<?xml version="1.0" encoding="UTF-8"?>
<svg id="Calque_1" xmlns="http://www.w3.org/2000/svg" version="1.1" viewBox="0 0 160 66">
  <!-- Generator: Adobe Illustrator 29.5.1, SVG Export Plug-In . SVG Version: 2.1.0 Build 141)  -->
  <defs>
    <style>
      .st0 {
        fill: #646464;
      }

      .st1 {
        fill: #5fa6f6;
      }

      .st2 {
        fill: #1f62ee;
      }

      .st3 {
        fill: #95e0ff;
      }
    </style>
  </defs>
  <g>
    <path class="st1" d="M15.8,50.6v15.4h-2v-11.5l-5.1,11.5h-1.4l-5.1-11.5v11.5H0v-15.4h2.2l5.7,12.7,5.7-12.7h2.2Z"/>
    <path class="st1" d="M44.1,62.5h-6.8l-1.2,3.5h-2.1l5.6-15.4h2.3l5.6,15.4h-2.1l-1.2-3.5ZM43.5,60.9l-2.8-7.8-2.8,7.8h5.6Z"/>
    <path class="st1" d="M73.7,66l-3.7-6.4h-2.5v6.4h-2v-15.5h5c1.2,0,2.2.2,3,.6.8.4,1.4.9,1.8,1.6s.6,1.5.6,2.3-.3,2-.9,2.8c-.6.8-1.5,1.4-2.8,1.6l3.9,6.5h-2.4ZM67.5,58h3c1.1,0,1.9-.3,2.5-.8.5-.5.8-1.3.8-2.2s-.3-1.6-.8-2.1-1.4-.8-2.5-.8h-3v5.9Z"/>
    <path class="st1" d="M103.1,66l-6.4-7.1v7.1h-2v-15.5h2v7.2l6.4-7.2h2.6l-7,7.8,7.1,7.8h-2.7Z"/>
    <path class="st1" d="M125.6,52.1v5.2h5.7v1.7h-5.7v5.3h6.3v1.7h-8.4v-15.6h8.4v1.7h-6.3Z"/>
    <path class="st1" d="M160,50.5v1.6h-4.1v13.9h-2v-13.9h-4.3v-1.6h10.4Z"/>
  </g>
  <path d="M64.2,0v41.5h-9.9V0h9.9Z"/>
  <path d="M100.9,27.7h-22.4c.2,2,.8,3.5,1.9,4.6,1.1,1.1,2.5,1.6,4.2,1.6,2.5,0,4.2-1,5.1-3.1h10.5c-.5,2.1-1.5,4-2.9,5.7-1.4,1.7-3.2,3-5.3,4-2.1,1-4.5,1.4-7.1,1.4s-6-.7-8.4-2c-2.5-1.3-4.4-3.3-5.8-5.8-1.4-2.5-2.1-5.4-2.1-8.8s.7-6.3,2.1-8.8c1.4-2.5,3.3-4.4,5.8-5.8,2.5-1.3,5.3-2,8.5-2s5.9.7,8.3,2c2.4,1.3,4.3,3.2,5.7,5.6,1.4,2.4,2.1,5.3,2.1,8.5s0,1.9-.2,2.9ZM91,22.3c0-1.7-.6-3-1.7-4-1.2-1-2.6-1.5-4.3-1.5s-3.1.5-4.2,1.4c-1.1,1-1.8,2.3-2.1,4.1h12.4Z"/>
  <path d="M137.3,27.7h-22.4c.2,2,.8,3.5,1.9,4.6,1.1,1.1,2.5,1.6,4.2,1.6,2.5,0,4.2-1,5.1-3.1h10.5c-.5,2.1-1.5,4-2.9,5.7-1.4,1.7-3.2,3-5.3,4-2.1,1-4.5,1.4-7.1,1.4s-6-.7-8.4-2c-2.5-1.3-4.4-3.3-5.8-5.8-1.4-2.5-2.1-5.4-2.1-8.8s.7-6.3,2.1-8.8c1.4-2.5,3.3-4.4,5.8-5.8,2.5-1.3,5.3-2,8.5-2s5.9.7,8.3,2c2.4,1.3,4.3,3.2,5.7,5.6,1.4,2.4,2.1,5.3,2.1,8.5s0,1.9-.2,2.9ZM127.3,22.3c0-1.7-.6-3-1.7-4-1.2-1-2.6-1.5-4.3-1.5s-3.1.5-4.2,1.4c-1.1,1-1.8,2.3-2.1,4.1h12.4Z"/>
  <path d="M160,33.1v8.4h-5c-3.6,0-6.4-.9-8.4-2.6-2-1.8-3-4.6-3-8.6v-12.8h-3.9v-8.2h3.9V0h9.9v9.2h6.5v8.2h-6.5v13c0,1,.2,1.7.7,2.1.5.4,1.2.6,2.3.6h3.5Z"/>
  <polygon points="0 0 0 13.6 20.6 13.6 24.2 13.6 32.5 13.6 32.6 13.6 38.4 0 0 0"/>
  <polygon class="st2" points="42.1 0 36.3 13.6 45.9 13.6 51.7 0 42.1 0"/>
  <polygon class="st0" points="0 13.6 0 27.2 8.1 27.2 11.8 27.2 14.7 27.2 14.7 27.2 20.6 13.6 0 13.6"/>
  <polygon class="st1" points="18.4 27.2 31.5 27.2 37.4 13.6 24.2 13.6 18.4 27.2"/>
  <polygon class="st3" points="20.6 13.6 14.7 27.2 18.4 27.2 24.2 13.6 20.6 13.6"/>
  <polygon class="st1" points="38.4 0 32.6 13.6 36.3 13.6 42.1 0 38.4 0"/>
  <polygon points="0 27.2 0 40.8 2.2 40.8 8.1 27.2 0 27.2"/>
  <polygon class="st3" points="5.9 40.8 13.6 40.8 19.5 27.2 11.8 27.2 5.9 40.8"/>
  <polygon class="st2" points="8.1 27.2 2.2 40.8 5.9 40.8 11.8 27.2 8.1 27.2"/>
</svg>