<?xml version="1.0" encoding="UTF-8"?>
<svg id="Layer_1" xmlns="http://www.w3.org/2000/svg" version="1.1" viewBox="0 0 260.449 139.113">
  <!-- Generator: Adobe Illustrator 29.5.1, SVG Export Plug-In . SVG Version: 2.1.0 Build 141)  -->
  <polygon points="81.058 126.499 83.284 126.499 83.284 121.109 87.127 121.109 87.127 119.365 83.284 119.365 83.284 116.349 87.378 116.349 87.378 114.608 81.058 114.608 81.058 126.499"/>
  <rect x="179.562" y="114.696" width="1.808" height="11.893"/>
  <polygon points="208.307 116.383 210.913 116.383 210.913 126.539 213.138 126.539 213.138 116.383 215.746 116.383 215.746 114.643 208.307 114.643 208.307 116.383"/>
  <rect x="16.528" y="114.696" width="1.822" height="11.893"/>
  <polygon points="149.752 123.567 149.788 123.656 149.752 123.656 149.752 123.567 146.735 114.592 144.114 114.592 144.114 126.484 145.997 126.484 145.997 117.534 149.086 126.484 151.674 126.484 151.674 114.592 149.758 114.592 149.752 123.567"/>
  <rect x="242.096" y="114.696" width="1.824" height="11.893"/>
  <rect x="114.298" y="114.696" width="1.815" height="11.893"/>
  <polygon points="51.624 123.567 51.66 123.656 51.624 123.656 51.624 123.567 48.604 114.592 45.985 114.592 45.985 126.484 47.848 126.484 47.848 117.534 50.958 126.484 53.559 126.484 53.559 114.592 51.639 114.592 51.624 123.567"/>
  <path d="M130.196,12.934c-48.05,0-87.021,19.577-87.021,43.72,0,19.554,25.555,36.099,60.788,41.695l26.232-62.466,26.243,62.466c35.251-5.597,60.776-22.142,60.776-41.695,0-24.143-38.946-43.72-87.02-43.72M170.161,78.594l-39.965-46.237-39.79,46.117c-19.62-5.461-32.54-15.013-32.54-26.746,0-18.601,32.14-36.054,72.268-36.054s73.023,17.453,73.023,36.054c0,11.83-13.131,21.435-32.996,26.866"/>
</svg>