<?xml version="1.0" encoding="UTF-8"?>
<svg id="Layer_1" xmlns="http://www.w3.org/2000/svg" version="1.1" viewBox="0 0 272.494 62.472">
  <!-- Generator: Adobe Illustrator 29.5.1, SVG Export Plug-In . SVG Version: 2.1.0 Build 141)  -->
  <path d="M46.315,16.68v34.56c5.363-2.979,13.109-12.173,15.237-17.28-2.043-5.107-9.874-14.301-15.237-17.28Z"/>
  <path d="M152.548,18.723c-4.256,0-8.342,1.617-10.981,4.426-2.639-2.724-6.725-4.426-11.066-4.426-7.491,0-13.705,4.937-14.13,11.322v22.387h8.683v-21.451c0-2.979,2.639-5.363,6.044-5.363,2.809,0,6.129,1.618,6.129,6.214v20.6h8.597v-20.685c0-4.256,3.15-6.129,6.129-6.129,3.66,0,6.129,2.213,6.129,5.363v21.451h8.597v-22.387c-.426-6.384-6.64-11.322-14.131-11.322Z"/>
  <path d="M96.197,32.683c-8.342-.851-10.044-2.043-10.044-4.001,0-3.065,5.448-3.405,7.916-3.405,4.171,0,8.257,1.362,11.151,3.49l5.533-4.682c-2.213-1.532-7.491-5.278-17.961-5.278-10.3,0-15.833,5.278-15.833,10.3,0,5.873,5.448,9.278,16.599,10.3,4.682.426,8.257,1.022,8.257,3.745,0,5.108-15.152,4.597-21.195-1.107l-5.959,5.108c.596.511,7.576,6.044,18.131,6.044,12.598,0,18.301-5.193,18.301-10.13,0-6.129-4.767-9.449-14.897-10.385Z"/>
  <path d="M258.782,7.827c-2.469,0-4.426,1.702-4.426,3.745s1.958,3.746,4.426,3.746,4.426-1.703,4.426-3.746-1.958-3.745-4.426-3.745ZM258.782,14.637c-1.958,0-3.575-1.362-3.575-3.065s1.617-3.064,3.575-3.064,3.575,1.362,3.575,3.064-1.617,3.065-3.575,3.065Z"/>
  <path d="M9.286,33.875c0,11.492,10.981,20.77,24.601,20.77,4.001,0,7.406-.851,10.215-2.298v-10.385c-2.809,1.702-6.469,2.724-9.278,2.724-7.661,0-13.279-4.767-13.279-10.726,0-6.044,5.618-10.725,13.279-10.725,2.809,0,6.384.936,9.278,2.639v-10.385c-2.809-1.447-6.214-2.383-10.215-2.383-13.62,0-24.601,9.279-24.601,20.77Z"/>
  <path d="M259.718,11.743c.426-.085.851-.511.851-1.021,0-.171-.085-1.107-1.447-1.107h-2.554v.596h.681v2.809h-.681v.596h2.128v-.596h-.681v-1.107h.681c.596.17.936.766,1.447,1.702h1.106v-.596c0-.085-.596-.085-.596-.085-.255-.341-.596-1.022-.936-1.192ZM258.867,11.317h-.851v-1.106h1.107c.596,0,.681.34.681.511,0,.34-.341.596-.936.596Z"/>
  <path d="M217.923,31.151v21.281h8.597v-20.855c0-2.894,2.809-5.277,6.214-5.277h4.001v-6.98h-4.426c-7.831.085-14.13,5.278-14.386,11.832Z"/>
  <path d="M249.759,40.174v-13.875h9.534v-6.98h-9.534v-6.555h-8.683v27.75c.341,6.555,6.64,11.747,14.386,11.832h4.426v-6.895h-3.916c-3.405,0-6.214-2.384-6.214-5.278Z"/>
  <path d="M192.045,18.808c-11.151,0-19.919,7.491-19.919,17.025,0,10.044,8.427,17.28,20.089,17.28,4.512,0,8.597-1.447,11.151-3.831v3.065h8.597v-16.429c0-9.874-8.427-17.11-19.919-17.11ZM192.13,46.047c-6.469,0-11.747-4.597-11.747-10.13s5.278-10.129,11.747-10.129,11.662,4.596,11.662,10.129c0,5.959-4.767,10.13-11.662,10.13Z"/>
</svg>