<?xml version="1.0" encoding="utf-8"?>
<!-- Generator: Adobe Illustrator 16.0.0, SVG Export Plug-In . SVG Version: 6.00 Build 0)  -->
<!DOCTYPE svg PUBLIC "-//W3C//DTD SVG 1.1//EN" "http://www.w3.org/Graphics/SVG/1.1/DTD/svg11.dtd">
<svg version="1.1" id="Layer_1" xmlns="http://www.w3.org/2000/svg" xmlns:xlink="http://www.w3.org/1999/xlink" x="0px" y="0px"
	 width="189px" height="200px" viewBox="0 0 189 200" enable-background="new 0 0 189 200" xml:space="preserve">
<g>
	<g>
		<path d="M67.146,114.383c-0.396,0.143-0.647-0.145-0.647-0.396c-0.145-0.646-0.504-3.094-0.647-3.738
			c-0.143-0.396,0-0.648,0.396-0.756c1.653-0.503,4.495-1.546,6.795-2.301c0.647-0.253,0.756-0.396,1.151-1.044
			c0.898-1.545,3.344-5.644,4.493-7.839c0.145-0.252,0.145-0.646,0-1.043l-0.503-0.898c-0.145-0.25-0.646-0.645-0.898-0.645
			c-2.301-0.648-5.393-1.402-6.939-1.654c-0.396-0.145-0.647-0.145-1.043,0l-0.252,0.143c2.193,0.756,4.1,1.404,6.545,2.303
			c0.251,0.143,0.396,0.252,0.503,0.502l0.251,0.756c0.145,0.252,0,0.646-0.143,0.898c-1.044,2.048-2.841,4.638-4.243,6.437
			c-0.252,0.25-0.504,0.503-0.756,0.503c-1.401,0.504-3.846,1.296-4.997,1.654c-0.252,0-0.396,0-0.502-0.145
			c-0.756-0.502-2.446-2.049-2.446-2.049s-0.144,1.654-0.144,2.443c0,0.145,0,0.145,0,0.252c0.252,0.648,0.754,1.943,1.043,2.553
			c0,0.145,0.144,0.251,0.144,0.504c0.252,1.151,1.043,4.386,1.043,4.386c0.143,0.504,0.395,0.648,0.755,0.504
			c0.504-0.144,2.301-0.646,3.092-0.898c0.144,0,0.251-0.144,0.251-0.144c0.504-0.395,1.296-1.151,1.296-1.151
			S68.188,114.238,67.146,114.383z"/>
		<path d="M71.136,104.496c0.899-1.152,2.049-2.844,3.093-4.496l-7.443,6.184c1.15-0.395,2.841-0.896,3.848-1.293
			C70.884,104.744,71.028,104.603,71.136,104.496z"/>
		<path d="M71.389,79.831l-1.296,0.143c-0.144,0-0.144,0.145-0.252,0.251l-0.144,1.547c0,0.144,0.144,0.144,0.144,0.144l1.295-0.252
			c0.144,0,0.396-0.144,0.396-0.395c0.143-0.396,0.251-0.756,0-1.15C71.675,79.938,71.532,79.831,71.389,79.831z"/>
		<path d="M58.408,99.604l2.049,2.301l0.647-4.1C59.845,98.057,58.803,98.705,58.408,99.604z"/>
		<path d="M124.205,99.102c-0.756-1.402-4.89-6.94-10.032-12.332c-0.144-0.252-0.396-0.396-0.647-0.504l-0.899-0.395
			c0,0,1.547,6.542,2.194,10.03c0.144,0.505,0.252,0.899,0.646,1.151c2.303,2.301,3.849,3.99,4.998,5.896
			c0.503,0.754,0.898,1.795,0.898,2.695c0.396,5.143,0.145,12.332-0.396,16.18c-0.143,0.755-0.252,1.043-0.899,1.546
			c-4.996,3.991-13.122,11.038-16.717,14.524c-0.396,0.396-0.503,0.505-0.755,0.9c-0.504,0.646-0.899,1.653-0.899,1.653
			s-0.899-2.554-1.042-3.99c-0.145-0.647-0.145-0.757,0-1.546c0.395-2.947,2.553-9.887,2.84-10.93c0-0.145,0-0.145,0-0.252v-0.646
			c-0.756,1.547-4.639,10.281-5.537,13.374c-0.145,0.646-0.145,0.898,0,1.401c0.503,1.402,1.942,4.998,2.697,6.543
			c0,0,1.545-2.947,2.553-4.494c0.25-0.393,0.503-0.753,0.897-1.149c2.841-2.554,12.728-10.929,17.366-14.381
			c0.647-0.504,0.754-0.756,1.043-1.402c1.941-7.19,2.696-15.425,1.799-23.263C124.492,99.748,124.348,99.354,124.205,99.102z"/>
		<path d="M103.782,78.141c0.144-0.395,0.252-0.757,0.252-1.043c-0.144-0.898-0.396-1.941-0.647-2.84
			c0-0.146-0.144-0.252-0.252-0.395l-1.402-0.648c-0.144-0.143-0.396-0.143-0.646-0.143c-3.346,0.646-6.939,1.293-9.638,1.938
			c-0.252,0-0.396,0.146-0.503,0.396l-0.898,1.402c-0.145,0.145,0,0.252,0.145,0.252c0.646,0.143,2.192,0.396,2.696,0.504
			c0.25,0,0.396,0,0.646-0.145c1.654-0.754,4.495-1.797,6.544-2.553c0.144,0,0.396,0,0.503,0l0.898,0.252
			c0.146,0,0.252,0.143,0.396,0.252c0.251,0.504,0.503,0.898,0.647,1.295c0.144,0.252,0,0.502-0.145,0.898
			c-0.647,1.041-1.941,2.554-2.696,3.595c-0.144,0.254-0.252,0.504-0.144,0.756c0.503,1.653,1.547,5.142,2.049,6.794
			c0.144,0.252,0.144,0.396,0.396,0.504l0.755,0.756c0,0-1.293-5.789-1.546-7.443c0-0.25,0-0.502,0.144-0.754
			C101.984,80.98,103.135,79.184,103.782,78.141z"/>
		<path d="M133.983,82.887c-0.143-0.396-0.252-0.646-0.646-0.898c-3.738-2.842-10.534-6.796-14.635-8.487
			c-0.502-0.252-1.149-0.252-1.652,0c-1.941,0.757-4.997,2.05-8.234,3.488c0,0,1.402,0.143,2.05,0.143c0.396,0,0.504,0,0.756,0
			c1.042-0.252,2.696-0.646,4.098-1.041c0.646-0.143,1.403,0,1.941,0.395c1.942,1.403,4.89,3.847,6.796,5.538
			c0.396,0.252,0.755,0.502,1.15,0.648c2.95,1.148,4.242,1.797,4.89,2.047c0.503,0.252,0.755,0.648,0.898,1.152
			c0.756,2.947,1.295,7.441,1.547,10.785c0,0.648,0,1.148-0.252,1.797c-0.754,2.301-2.948,6.291-4.099,8.091
			c-0.144,0.142-0.252,0.252-0.395,0.504c-0.396,0.396-1.151,0.898-1.655,1.295c-0.144,0.141-0.144,0.25-0.144,0.395
			c0,1.293-0.252,3.738-0.252,3.738c2.841-3.595,5.538-8.231,7.982-13.122c0.252-0.396,0.252-0.648,0.252-1.045
			C135.278,93.168,134.882,87.02,133.983,82.887z"/>
		<path d="M96.341,146.633c-0.647-1.547-4.101-9.78-5.144-12.838c-0.396-1.148-0.396-1.4-0.251-2.693
			c0.755-7.695,3.596-20.063,3.991-21.718c0.143-0.395,0.143-0.503,0-0.756c-0.144-0.646-0.503-2.839-0.503-2.839
			c-1.296,2.948-5.789,14.92-7.335,21.968c-0.252,1.295-0.252,1.655,0,2.446c2.444,6.184,8.486,17.364,9.528,19.02l-0.253-1.943
			C96.447,146.885,96.341,146.777,96.341,146.633z"/>
		<path d="M90.946,147.029c0,0-1.294-0.898-1.653-1.15c-0.36-0.251-0.505-0.396-0.757-0.648
			c-2.695-2.446-12.474-14.381-15.279-19.522c-0.503-0.9-0.646-1.295-0.646-2.194c0-1.042,0.25-2.947,0.396-3.992
			c0.144-0.645,0.251-1.148,0.898-1.652c1.653-1.545,4.241-4.1,5.646-5.537c0.646-0.646,0.897-1.041,1.293-1.653
			c1.296-2.445,5.143-10.786,6.437-14.272c0.253-0.648,0.253-0.758,0.143-1.405c-0.251-1.796-1.653-6.544-1.653-6.544l-0.143,1.547
			c0,0.145,0,0.252,0,0.396c0.143,0.646,0.502,3.344,0.502,4.746c0,0.502,0,0.647-0.252,1.149
			c-1.94,3.849-9.527,14.131-14.381,19.669c-0.503,0.647-0.647,1.041-0.899,1.797c-0.251,1.15-0.503,3.846-0.755,5.896
			c-0.144,1.149,0,1.545,0.647,2.696c2.948,4.891,12.728,16.322,16.072,19.02c0.252,0.145,0.396,0.396,0.647,0.505
			c1.15,0.646,4.241,2.191,4.241,2.191l-0.503-0.897C90.946,147.173,90.946,147.173,90.946,147.029z"/>
		<path d="M76.528,78.284l6.185-1.942c0.396-0.143,0.646-0.394,0.898-0.646l3.201-5.646c0.144-0.143,0-0.25-0.145-0.25h-2.84
			c-0.252,0-0.503,0-0.756,0.143c-2.444,0.756-5.896,2.303-7.837,3.344c-0.252,0.145-0.396,0.252-0.646,0.504l-2.949,3.595
			c-0.145,0.145-0.251,0.254-0.396,0.254l-1.941,0.755c-0.144,0-0.144,0.144-0.252,0.25l-0.144,0.252c0,0,3.991-0.145,5.394-0.252
			C75.271,78.536,75.773,78.393,76.528,78.284z"/>
		<path d="M87.855,64.908c7.693-0.646,16.574-0.395,18.769-0.395c0.395,0,0.647,0,0.898,0.145l1.546,0.502
			c-3.848,0.252-13.232,1.043-17.079,1.654l1.295,0.252c0.144,0,0.144,0,0.251,0c2.84-0.145,8.342-0.396,10.68-0.396
			c0.646,0,0.899,0,1.545,0.252c1.402,0.503,4.243,1.798,5.394,2.444c0.647,0.252,1.044,0.396,1.652,0.396
			c1.295,0,3.2,0.144,4.64,0.396c0.396,0,0.755,0.143,1.15,0.396c2.949,1.401,6.437,3.595,8.881,5.141
			c0.144,0.144,0.252,0.144,0.502,0.144l1.151,0.252c0,0-3.848-3.847-5.285-5.286c-0.251-0.142-0.503-0.395-0.646-0.504
			c-5.646-3.199-10.787-5.895-13.628-7.082c-0.502-0.252-0.898-0.252-1.399-0.395c-8.739-0.648-17.871-0.504-24.667,0.143
			c-0.503,0-0.898,0.252-1.15,0.648c-0.252,0.395-0.646,1.043-1.042,1.652c-0.145,0.252-0.396,0.646-0.647,0.898
			c-1.294,1.041-3.2,2.842-4.639,3.74c-0.145,0.143-0.145,0.143-0.252,0.143c-0.503,0.396-2.302,1.547-2.696,1.798
			c-0.144,0.146-0.144,0.146-0.251,0.253c-0.145,0.145-0.647,0.755-0.647,0.755c5.394-3.092,12.225-6.796,14.634-7.839
			C87.063,65.016,87.46,65.016,87.855,64.908z"/>
		<path d="M62.651,81.988c-0.146,0.143-0.146,0.143-0.252,0.252c-4.747,3.486-7.441,5.644-8.593,6.544
			c-0.395,0.395-0.9,0.897-1.295,1.292c-0.396,0.397-0.396,0.504-0.396,0.756s0,0.504,0,0.756c0,0.145,0,0.145,0.144,0.252
			c0.144,0.143,0.395,0.5,0.505,0.645h0.142c0.757-0.502,1.655-1.293,2.554-1.939c0.144,0,0.251-0.145,0.251-0.252
			c0.144-0.252,0.396-0.648,0.503-0.898c0.145-0.145,0.145-0.252,0.253-0.395c0.143-0.146,0.755-0.506,0.755-0.506
			s-0.396,1.654-0.646,2.303c-0.146,0.25-0.252,0.395-0.252,0.395c-0.756,0.754-1.941,2.191-2.554,2.947
			c-0.251,0.252-0.145,0.646,0,0.9c0.647,0.898,1.798,2.444,2.554,3.2c0.252,0.251,0.396,0.393,0.503,0.503
			c0.252,0.144,0.503,0.253,0.503,0.253s0.647-2.951,0.898-3.849c0.145-0.252,0.252-0.504,0.647-0.647
			c3.093-0.755,9.889-1.941,9.889-1.941c-0.756-0.899-3.093-3.345-3.848-3.993c-0.252-0.143-0.396-0.25-0.647-0.25
			c-0.898-0.145-3.739-0.252-3.739-0.252s0.252-0.252,0.396-0.502c0.144-0.145,0.251-0.252,0.504-0.396
			c3.487-1.293,8.233-2.949,10.93-4.098c0.647-0.252,0.898-0.395,1.401-0.899c0.252-0.252,0.647-0.647,0.899-1.044l0.144-0.143
			c0-0.145,0-0.252,0-0.252s-1.15,0.898-1.653,1.15c-0.396,0.252-0.648,0.396-1.15,0.504c-1.044,0.252-2.841,0.648-3.848,0.896
			c-0.252,0.146-0.395,0.146-0.647,0c-0.143,0-0.503-0.248-0.646-0.248c-0.251-0.145-0.251-0.145-0.504,0
			c-0.898,0.248-3.595,0.896-3.595,0.896s1.15-1.041,1.294-1.148c0.144-0.145,0.144-0.145,0.396-0.254
			c0.899-0.395,2.05-0.754,2.948-1.15c0.252-0.143,0.252-0.252,0.396-0.395c0-0.756,0.252-2.049,0.396-2.696
			c0-0.252,0.145-0.252,0.252-0.396c0.503-0.395,2.553-2.05,3.093-2.302c0,0,0,0,0.143-0.143l0.504-0.648
			c-1.402,0.899-3.991,2.446-5.394,3.2c-0.504,0.396-0.898,0.502-1.402,1.045l-0.144,0.143C64.592,79.541,63.19,81.34,62.651,81.988
			z"/>
	</g>
	<g>
		<g>
			<path d="M60.493,55.271c0-2.695,0-5.535,0-8.232c3.487-0.252,7.084-0.504,10.535-0.754c0,0.502,0,0.896,0,1.4
				c-3.093,0.145-6.185,0.396-9.241,0.648c0,0.646,0,1.402,0,2.049c2.697-0.25,5.394-0.395,8.09-0.646c0,0.502,0,0.898,0,1.4
				c-2.696,0.145-5.393,0.396-8.09,0.648c0,0.755,0,1.403,0,2.192c3.093-0.251,6.186-0.505,9.241-0.647c0,0.506,0,0.9,0,1.403
				C67.54,54.77,63.945,55.021,60.493,55.271z"/>
		</g>
		<g>
			<path d="M46.076,56.818c0-2.697,0-5.537,0-8.232c2.84-0.396,5.536-0.648,8.341-0.9c0.503,0,0.898,0,1.15,0
				c0.396,0.145,0.646,0.252,0.899,0.504c0.252,0.252,0.396,0.504,0.396,0.756s0.144,0.502,0.144,0.896c0,0.396,0,0.648,0,1.045
				c0,0.25,0,0.646-0.144,0.898s-0.253,0.648-0.396,0.898c-0.253,0.251-0.504,0.505-0.899,0.646
				c-0.396,0.143-0.756,0.253-1.15,0.253c-2.301,0.253-4.638,0.504-7.083,0.754c0,0.9,0,1.655,0,2.554
				C46.976,56.675,46.615,56.818,46.076,56.818z M47.513,52.684c2.446-0.25,4.999-0.646,7.445-0.898
				c0.395,0,0.753-0.396,0.753-0.898c0-0.504,0-1.045,0-1.402c0-0.395-0.396-0.754-0.753-0.646
				c-2.446,0.252-4.999,0.502-7.445,0.898C47.513,50.779,47.513,51.676,47.513,52.684z"/>
		</g>
		<g>
			<path d="M121.005,54.625c-0.504,0-0.898-0.143-1.295-0.143c-0.395-0.146-0.755-0.252-1.043-0.505
				c-0.251-0.251-0.502-0.505-0.502-0.897c-0.145-0.252-0.145-0.646-0.145-0.898c0-1.295,0-2.445,0-3.74
				c0-0.396,0-0.648,0.145-0.898c0.143-0.396,0.251-0.648,0.502-0.756c0.253-0.145,0.504-0.252,1.043-0.395c0.396,0,0.755,0,1.295,0
				c1.798,0.143,3.738,0.25,5.536,0.395c0.504,0,0.898,0.146,1.295,0.252c0.396,0.143,0.755,0.252,1.043,0.504
				c0.251,0.25,0.503,0.502,0.503,0.898c0.145,0.252,0.145,0.648,0.145,1.043c0,1.295,0,2.445,0,3.74c0,0.395,0,0.646-0.145,0.896
				c-0.144,0.396-0.252,0.648-0.503,0.755c-0.252,0.146-0.504,0.252-1.043,0.396c-0.396,0-0.756,0-1.295,0
				C124.601,54.876,122.803,54.77,121.005,54.625z M120.106,47.686c-0.396,0-0.756,0.252-0.756,0.756c0,1.295,0,2.695,0,3.992
				c0,0.395,0.396,0.755,0.756,0.755c0.251,0,0.502,0,0.647,0h0.144c1.798,0.142,3.595,0.25,5.536,0.395h0.145
				c0.251,0,0.502,0,0.754,0c0.396,0,0.756-0.253,0.756-0.648c0-1.293,0-2.696,0-3.989c0-0.395-0.396-0.756-0.756-0.9
				C124.852,48.082,122.55,47.83,120.106,47.686z"/>
		</g>
		<g>
			<path d="M137.076,56.028c0-2.302,0-4.64,0-6.938c-1.654-0.145-3.199-0.396-4.89-0.504c0-0.504,0-0.9,0-1.404
				c3.738,0.396,7.336,0.756,11.038,1.297c0,0.502,0,0.898,0,1.4c-1.654-0.252-3.199-0.395-4.891-0.646c0,2.301,0,4.639,0,6.939
				C137.975,56.172,137.471,56.172,137.076,56.028z"/>
		</g>
		<g>
			<path d="M103.926,53.871c0-2.697,0-5.537,0-8.232c3.488,0.143,7.083,0.25,10.536,0.395c0,0.502,0,0.9,0,1.4
				c-3.093-0.143-6.186-0.252-9.241-0.395c0,0.646,0,1.402,0,2.051c2.697,0.143,5.393,0.143,8.09,0.25c0,0.502,0,0.898,0,1.402
				c-2.697-0.144-5.393-0.252-8.09-0.252c0,0.755,0,1.401,0,2.193c3.093,0.145,6.185,0.251,9.241,0.396c0,0.503,0,0.897,0,1.402
				C110.975,54.121,107.522,53.978,103.926,53.871z"/>
		</g>
		<g>
			<path d="M92.205,53.727c-0.504,0-0.898,0-1.294-0.144c-0.396-0.145-0.755-0.253-1.042-0.395
				c-0.253-0.254-0.504-0.505-0.504-0.755c-0.144-0.252-0.144-0.648-0.144-0.9c0-1.15,0-2.443,0-3.596
				c0-0.756,0.251-1.402,0.647-1.795c0.395-0.398,1.042-0.504,2.049-0.504c2.553,0,5.285,0,7.838,0c0,0.504,0,0.896,0,1.4
				c-2.842,0-5.646,0-8.341,0c-0.396,0-0.756,0.395-0.756,0.754c0,1.297,0,2.554,0,3.849v0.144c0,0.396,0.395,0.755,0.756,0.755
				c0.251,0,0.503,0,0.646,0h0.144c2.301,0,4.494,0,6.796,0c0-0.755,0-1.403,0-2.193c-1.402,0-2.949,0-4.387,0
				c0-0.505,0-0.899,0-1.401c1.94,0,3.847,0,5.787,0c0,1.653,0,3.2,0,4.891C97.635,53.727,94.901,53.727,92.205,53.727z"/>
		</g>
		<g>
			<path d="M77.572,54.121c-0.505,0-0.9,0-1.295,0c-0.396,0-0.756-0.144-1.042-0.395c-0.252-0.254-0.505-0.502-0.505-0.754
				c-0.142-0.252-0.142-0.648-0.142-0.9c0-1.939,0-3.99,0-5.896c0.502,0,0.896,0,1.401-0.144c0,2.049,0,4.1,0,6.184
				c0,0.396,0.396,0.756,0.755,0.756c2.301-0.145,4.639-0.252,6.939-0.252c0.395,0,0.754-0.396,0.754-0.756c0-2.049,0-4.099,0-6.184
				c0.504,0,0.899,0,1.402,0c0,1.942,0,3.992,0,5.895c0,0.396,0,0.648-0.144,0.9c-0.144,0.396-0.251,0.648-0.502,0.896
				c-0.253,0.254-0.504,0.398-1.044,0.398c-0.396,0.145-0.755,0.145-1.294,0.145C81.023,53.978,79.226,54.121,77.572,54.121z"/>
		</g>
	</g>
	<path d="M153.795,39.597c-20.171-3.487-39.98-5.142-59.109-5.142c-19.128,0-38.938,1.654-59.108,5.142
		c-0.253,8.089-0.648,20.566-0.144,31.101c1.294,23.659,6.435,41.887,16.322,57.706c9.889,15.678,25.061,29.16,42.786,37.142
		c17.726-7.981,33.042-21.464,42.786-37.142c9.888-15.674,15.028-34.047,16.323-57.706
		C154.405,60.163,154.154,47.686,153.795,39.597z M151.602,70.555c-1.294,23.262-6.292,41.131-16.072,56.555
		c-9.634,15.426-24.16,28.152-40.88,35.846c-16.718-7.836-31.243-20.565-40.88-35.846c-9.636-15.424-14.776-33.399-16.071-56.557
		c-0.396-7.586-0.396-17.08,0-29.05c18.877-3.201,38.04-4.747,56.916-4.747c18.877,0,38.04,1.546,56.916,4.747
		C151.996,53.473,151.996,62.967,151.602,70.555z"/>
</g>
</svg>
