<?xml version="1.0" encoding="utf-8"?>
<!-- Generator: Adobe Illustrator 28.2.0, SVG Export Plug-In . SVG Version: 6.00 Build 0)  -->
<svg version="1.1" id="Calque_2" xmlns="http://www.w3.org/2000/svg" xmlns:xlink="http://www.w3.org/1999/xlink" x="0px" y="0px"
	 viewBox="0 0 200 200" style="enable-background:new 0 0 200 200;" xml:space="preserve">
<style type="text/css">
	.st0{fill-rule:evenodd;clip-rule:evenodd;}
	.st1{fill-rule:evenodd;clip-rule:evenodd;fill:#FFFFFF;}
</style>
<g>
	<path class="st0" d="M100,166.9c17.9,0,34.7-7,47.3-19.6c12.6-12.6,19.6-29.4,19.6-47.3c0-17.9-7-34.7-19.6-47.3
		S117.9,33.1,100,33.1s-34.7,7-47.3,19.6S33.1,82.1,33.1,100s7,34.7,19.6,47.3C65.3,159.9,82.1,166.9,100,166.9L100,166.9z"/>
	<path class="st1" d="M33.6,100c0-17.7,6.9-34.4,19.4-47c12.5-12.5,29.2-19.4,47-19.4s34.4,6.9,47,19.4s19.4,29.2,19.4,47
		s-6.9,34.4-19.4,47s-29.2,19.4-47,19.4s-34.4-6.9-47-19.4C40.5,134.4,33.6,117.7,33.6,100z"/>
	<path class="st0" d="M100,163.1c34.8,0,63.1-28.2,63.1-63.1S134.8,36.9,100,36.9c-34.8,0-63.1,28.2-63.1,63.1S65.2,163.1,100,163.1
		z"/>
	<path class="st1" d="M99.7,135.5c15.9,0,43.6-5.6,53.1-15.9c8.9-9.7,5.2-18.9,0.3-25.7l-36.6-39.4c-2.8-2.8-8.7-7-16.8-7
		c-8.1,0-14,4.2-16.8,7L46.3,93.9c-6.5,7.9-7.7,17.2,0.3,25.7C56.2,129.8,83.7,135.5,99.7,135.5z"/>
	<path class="st0" d="M99.7,131.4c14.4,0,38.5-6.1,48.1-14.4c8.7-7.6,6.6-17,0.3-23.3l-33.2-35.7c-2.5-2.5-7.9-6.3-15.2-6.3
		c-7.3,0-12.7,3.8-15.2,6.3L51.3,93.6c-6.3,6.3-8.4,15.8,0.3,23.3C61.1,125.3,85.2,131.4,99.7,131.4L99.7,131.4z"/>
	<path class="st1" d="M99,104.7c-1.6,0-6-0.2-7.3-0.4l-1.1,2.5c-0.4,1,0.8,1.4,1.3,0.9c0.5-0.5,3.3-1.9,4.6-0.8V119
		c0,0.8-0.8,1.5-1.4,1.5s-1,0.4-1,0.8c0,0.4,0.3,0.8,1.2,0.8c1.9,0.1,6.3,0.1,7.6,0c1,0,1.2-0.4,1.2-0.8c0-0.4-0.5-0.8-1-0.8
		s-1.4-0.7-1.4-1.5v-12.1c1.3-1.1,4.1,0.3,4.6,0.8c0.5,0.5,1.7,0.1,1.3-0.9l-1.1-2.5C105,104.5,100.7,104.7,99,104.7z M109.2,104.1
		c-0.8,0.2-0.9,0.9-0.8,1.2c0.1,0.3,0.5,0.5,1.1,0.6c0.6,0.1,0.9,0.5,1.1,1l2.7,9.3c0.5,1.8,3.9,5.3,10.5,2.8
		c6.6-2.5,4.4-7.5,4.1-8.4l-2.2-7.6c-0.3-1.1-0.1-1.4,0.3-1.8c0.3-0.4,0.3-2-1.2-1.5c-0.9,0.3-2.4,0.8-3,1c-0.6,0.2-1.1,1.4-0.1,1.6
		c1,0.2,1.3,0.3,1.6,1.2l2.2,7.6c0.6,2,0.4,4.3-2.4,5.3c-2.8,1-5-0.8-5.4-2.1l-2.2-7.5c-0.3-1.1-0.2-1.8,0.5-2.2
		c0.6-0.4,0.8-2-0.5-1.8C114.3,103,109.9,104.1,109.2,104.1L109.2,104.1z M82.2,102c-3.3-1.8-9.5-2.2-12.5,3.3
		c-3.2,5.8-1,10.4,4.6,13.1c7.3,3.5,11.3-1.6,12.4-3.9C88.2,110.8,89,105.7,82.2,102L82.2,102z"/>
	<path class="st0" d="M81,104c-2.7-1.2-5.1-0.1-7,3.5c-1.9,3.5-1.5,7.2,0.6,8.4c2.2,1.1,4.8,1,7.2-3.4C84.2,107.9,83.3,105.4,81,104
		L81,104z"/>
	<path class="st1" d="M61.9,91.9c-0.4-0.5-1-0.5-1.3-0.1c-0.3,0.4-0.1,0.8,0.3,1.3c0.4,0.4,0.7,1.4,0.2,2l-7.1,9.2
		c-0.5,0.5-1.4,0.6-2,0.1c-0.6-0.5-1.8,0.3-0.8,1c1,0.7,9,6.6,11.8,7.8l2.9-2.7c0.4-0.4,0-1.4-0.7-0.9c-2.3,1.6-6,0.8-7.2-2.7l6.9-9
		c0.3-0.4,1-1.2,2.1-0.8c0.6,0.3,0.9,0,1-0.2c0.2-0.3,0.1-0.8-0.3-1C67,95.6,62.5,92.4,61.9,91.9L61.9,91.9z M140,93.3
		c-0.8,0.4-2.1,0.6-3.2,0.8c-1.1,0.3-3.2,0.9-4.5,1.7c-1.3,0.8-4.7,4-2.7,7.9c1.1,1.9,3.5,3.1,8.7,1.5c1.8-0.6,4.8-1.5,5.4-0.2
		c0.6,1.3-0.8,3.2-3,4.1c-2.2,0.9-5.3,0.7-6.6,0c-0.6-0.4-1.5,0.1-1,0.8l1.9,2.5c2.3-0.1,6-0.8,8-2s6.1-4.6,4.2-8.7
		c-1.9-4.1-5.8-2.9-6.7-2.6c-0.8,0.3-7.4,2.4-7.9,0.9c-0.5-1.5,1.3-3.2,2.9-3.7c1.6-0.4,4.6-0.5,5.5-0.3c1,0.3,1.3-0.4,0.8-1.1
		l-1.6-1.8L140,93.3L140,93.3z M115.6,90.7c-1.6,1.4-6.3,4.9-12.7,4.9c-5.8,0-15.9-1.6-17.7-13.9l1.8-2.8h3c0,0.2,0,0.4,0,0.6
		c0,4.8,2.9,7.7,6.4,8.7v0.4c0,1.3-0.9,1.6-1.6,1.7C94,90.3,94,91.7,95,91.7h11.5c3.7,0,7.7-2.1,7.7-6.8c-0.1-4.7-3.5-6.1-5.4-7
		c1-0.3,3.4-1.3,3.4-4.4c0-3.1-3.2-5.1-6-5.1H90.1c-0.8,0-0.9,0.3-0.9,0.7c0,0.4,0.3,0.5,0.4,0.7c0.1,0.2,0.2,0.7-0.2,1.2l-4.6,7
		l0-0.1c0-15.3,13.3-15.3,15.2-15.5c1.9-0.1,8.8,0.7,14.1,3.8c1.5,1.1,1.5-0.1,1.3-0.5c-0.5-1.1-1.9-3.4-2.5-4.3
		c-0.6-0.9-1.9-1-2.3-0.5c-0.4,0.5-0.9,1.1-2.3,0.6c-1.4-0.5-5.4-1.5-10.3-1.5c-4.2,0-18.1,3.7-18.2,17.7c0,2.5,0.3,4.7,0.8,6.7
		l-2.3,3.5c-1.5,2.4-3.6,2.5-4.6,2.5c-0.9,0-1.2,1.3-0.2,1.3H81c1,0,0.8-1.3,0.2-1.5c-0.5-0.2-0.9-0.7-0.5-1.5l1-1.6
		c3.6,8.3,12.2,12,20.2,11.6c6.7-0.3,12.3-2.9,15.5-6.6C118.7,90.7,117.3,89.3,115.6,90.7L115.6,90.7z"/>
	<path class="st0" d="M92.8,79.6c0-0.2,0-0.4,0-0.7h3.6v6.6C94.7,84.7,92.8,83,92.8,79.6z M96.4,76.8h-3.3c0.6-2.1,2-3.1,3.3-3.6
		V76.8z M92.7,70.3h2.7c1,0,1,1,1,1.5v0.1c-2,0.5-4.8,2-5.9,5h-2L92.7,70.3L92.7,70.3z M104.8,76.8c1.8,0,3.3-1.5,3.3-3.3
		s-1.5-3.3-3.3-3.3h-4.7v6.5L104.8,76.8z M100.2,78.9h3c2,0,6.7,0.9,6.7,5.6s-4.6,5.6-6.4,5.6c-1.8-0.1-3.3-0.1-3.3-1.8V78.9z"/>
</g>
</svg>
