<?xml version="1.0" encoding="utf-8"?>
<!-- Generator: Adobe Illustrator 16.0.0, SVG Export Plug-In . SVG Version: 6.00 Build 0)  -->
<!DOCTYPE svg PUBLIC "-//W3C//DTD SVG 1.1//EN" "http://www.w3.org/Graphics/SVG/1.1/DTD/svg11.dtd">
<svg version="1.1" id="Layer_1" xmlns="http://www.w3.org/2000/svg" xmlns:xlink="http://www.w3.org/1999/xlink" x="0px" y="0px"
	 width="200px" height="200px" viewBox="0 0 200 200" enable-background="new 0 0 200 200" xml:space="preserve">
<g>
	<path d="M100.337,35.003c-35.842,0-65.004,29.162-65.004,64.992c0,35.847,29.162,65.001,65.004,65.001
		c35.838,0,64.996-29.154,64.996-65.001C165.333,64.166,136.175,35.003,100.337,35.003 M100.337,163.201
		c-34.847,0-63.198-28.343-63.198-63.205c0-34.853,28.352-63.196,63.198-63.196c34.867,0,63.19,28.343,63.19,63.196
		C163.527,134.857,135.204,163.201,100.337,163.201"/>
	<path d="M63.293,74.486c0.06,0.052,0.122,0.105,0.186,0.153c0.015,0,0.049-0.048,0.049-0.053c1.275-1.592,2.551-3.173,3.806-4.754
		c0.461-0.572,0.929-1.149,1.384-1.739c0.478-0.577,0.573-1.325,0.302-2.016c-0.357-0.705-1.041-1.172-1.851-1.147
		c-0.661,0.018-1.176,0.371-1.579,0.876c-0.567,0.705-1.116,1.406-1.682,2.106c-1.153,1.429-2.291,2.874-3.438,4.309
		c0.59,0.484,1.192,0.952,1.786,1.428C62.609,73.928,62.95,74.2,63.293,74.486"/>
	<path d="M100.337,37.924c-34.285,0-62.074,27.8-62.074,62.071c0,34.289,27.789,62.086,62.074,62.086s62.076-27.797,62.076-62.086
		C162.413,65.724,134.622,37.924,100.337,37.924 M90.313,41.801l5.813-0.643l4.211,12.282l4.208-12.282l5.816,0.643l0.644,17.463
		l-4.532-0.639l-0.433-11.645l-4.087,11.645h-3.238L94.62,46.981l-0.419,11.645l-4.523,0.639L90.313,41.801z M51.12,70.555
		c-0.457-0.385-0.925-0.766-1.4-1.144c-0.014,0-0.163-0.127-0.163-0.133c0.086-0.095,0.149-0.2,0.247-0.295
		c1.212-1.515,2.401-3.016,3.618-4.521c1.409-1.754,2.812-3.531,4.222-5.271c0.265-0.323,0.526-0.667,0.802-1.014
		c0.473-0.586,1.107-1.035,1.81-1.321c1.518-0.547,3.252-0.179,4.405,0.944c0.562,0.549,0.963,1.254,1.15,2.02
		c0.194,0.782,0.123,1.563-0.102,2.33c0.102-0.085,0.21-0.186,0.318-0.266c1.363-0.953,3.14-1.224,4.685-0.52
		c1.539,0.7,2.53,2.092,2.763,3.746c0.06,0.624,0.024,1.247-0.148,1.856c-0.354,1.163-1.176,2.044-1.925,2.964
		c-1.446,1.811-2.891,3.611-4.329,5.409c-1.202,1.509-2.412,3.005-3.616,4.506c-0.092,0.124-0.171,0.229-0.27,0.337
		c-0.014,0.025-0.111-0.081-0.137-0.099c-0.44-0.353-0.896-0.711-1.336-1.068c-1.768-1.41-3.508-2.82-5.272-4.211
		C54.674,73.385,52.897,71.951,51.12,70.555 M100.337,138.796c-21.418,0-38.784-17.37-38.784-38.801
		c0-21.422,17.366-38.788,38.784-38.788c21.431,0,38.803,17.366,38.803,38.788C139.14,121.426,121.768,138.796,100.337,138.796
		 M137.298,79.946l-2.232-3.812l7.68-10.081l-11.514,5.279l-3.24-2.992l10.496-13.794l3.246,3.003l-6.063,7.951l9.687-4.445
		l2.838,3.545l-6.462,8.471l9.074-4.168l2.236,3.815L137.298,79.946z"/>
	<path d="M63.15,63.41c0.143-0.639,0-1.301-0.447-1.798c-0.54-0.585-1.418-0.786-2.179-0.48c-0.539,0.219-0.871,0.695-1.217,1.153
		c-1.381,1.701-2.735,3.402-4.091,5.093c-0.019,0.029-0.314,0.386-0.289,0.396c0.257,0.225,0.54,0.438,0.824,0.667
		c0.729,0.586,1.459,1.171,2.175,1.763c0.73-0.905,1.435-1.792,2.154-2.703c0.727-0.89,1.435-1.776,2.155-2.673
		C62.587,64.375,62.987,63.965,63.15,63.41"/>
	<path d="M63.507,99.996h36.83v-36.83C80.232,63.704,64.031,79.899,63.507,99.996"/>
	<path d="M100.337,136.838c20.106-0.534,36.31-16.742,36.838-36.83h-36.838V136.838z"/>
</g>
</svg>
