<?xml version="1.0" encoding="utf-8"?>
<!-- Generator: Adobe Illustrator 16.0.0, SVG Export Plug-In . SVG Version: 6.00 Build 0)  -->
<!DOCTYPE svg PUBLIC "-//W3C//DTD SVG 1.1//EN" "http://www.w3.org/Graphics/SVG/1.1/DTD/svg11.dtd">
<svg version="1.1" id="Layer_1" xmlns="http://www.w3.org/2000/svg" xmlns:xlink="http://www.w3.org/1999/xlink" x="0px" y="0px"
	 width="300px" height="107.333px" viewBox="0 0 300 107.333" enable-background="new 0 0 300 107.333" xml:space="preserve">
<g>
	<path d="M44.199,34.479h-7.517c-1.395,0-2.037,0.662-2.037,2.018v34.289c0,1.361,0.677,1.999,2.037,1.999l7.538,0.019
		c1.39,0,2.007-0.706,2.007-2.032V36.496C46.228,35.116,45.55,34.479,44.199,34.479"/>
	<path d="M95.202,53.264c-3.986-1.282-25.49-8.067-26.479-8.374c-0.791-0.238-0.807-0.777-0.692-1.144
		c0.079-0.375,0.415-0.533,1.059-0.533c0.706,0,29.447,0.005,29.447,0.005c1.361,0,1.983-0.624,1.983-2.014v-4.708
		c0-1.355-0.596-2.018-1.993-2.018H68.692c-8.259,0-11.811,4.521-11.811,9.782c0,4.176,2.022,7.578,7.38,9.373
		c1.103,0.37,26.791,8.508,27.568,8.749c0.732,0.252,0.83,0.841,0.708,1.182c-0.12,0.406-0.417,0.629-1.029,0.629H58.835
		c-1.38,0-2.036,0.643-2.036,2.002v4.571c0,1.482,0.604,2.036,2.052,2.036c0,0,30.021,0.031,32.861-0.019
		c7.513-0.089,11.889-3.085,11.889-9.427C103.601,58.061,101.301,55.236,95.202,53.264"/>
	<path d="M154.475,34.479l-7.611-0.021c-1.444,0-2.037,0.659-2.037,2.014v21.737c0,3.617-0.55,5.743-5.497,5.901
		c-1.15,0.035-3.248,0.05-4.781,0.05c-1.524,0-3.284-0.015-4.44-0.05c-4.951-0.158-5.833-2.284-5.833-5.901V36.471
		c0-1.376-0.667-1.992-2.007-1.992h-7.603c-1.385,0-1.983,0.642-1.983,1.992c0,0,0.006,19.215,0.006,23.558
		c0,6.054,1.354,12.598,12.76,12.73c4.16,0.044,9.101,0.115,9.101,0.115s4.639-0.046,8.813-0.115
		c12.073-0.201,13.122-6.4,13.122-12.73V36.496C156.483,35.137,155.874,34.479,154.475,34.479"/>
	<path d="M263.354,34.479l-7.637-0.021c-1.43,0-2.026,0.659-2.026,2.014v21.737c0,3.617-0.546,5.743-5.486,5.901
		c-1.147,0.035-3.263,0.05-4.782,0.05s-3.285-0.015-4.451-0.05c-4.951-0.158-5.832-2.284-5.832-5.901V36.471
		c0-1.376-0.662-1.992-2.008-1.992h-7.592c-1.398,0-1.998,0.642-1.998,1.992v23.558c0,6.054,1.38,12.598,12.78,12.73
		c4.165,0.044,9.101,0.115,9.101,0.115s4.635-0.046,8.794-0.115c12.095-0.201,13.136-6.4,13.136-12.73V36.496
		C265.372,35.137,264.744,34.479,263.354,34.479"/>
	<path d="M210.329,64.193h-32.711c-0.589,0-0.881-0.223-1.006-0.619c-0.122-0.351-0.034-0.939,0.728-1.191
		c0.757-0.241,26.455-8.373,27.554-8.749c5.361-1.815,7.386-5.197,7.386-9.373c0-5.262-3.563-9.782-11.817-9.782h-29.828
		c-1.41,0-2.021,0.662-2.021,2.018v4.708c0,1.39,0.637,2.014,2.006,2.014c0,0,28.727-0.005,29.463-0.005
		c0.64,0,0.95,0.158,1.055,0.533c0.093,0.366,0.08,0.905-0.693,1.144c-0.988,0.307-22.529,7.092-26.505,8.374
		c-6.094,1.973-8.379,4.797-8.379,10.094c0,6.342,4.357,9.338,11.866,9.427c2.833,0.05,32.879,0.004,32.879,0.004
		c1.437,0,2.06-0.539,2.06-2.021v-4.571C212.363,64.836,211.715,64.193,210.329,64.193"/>
</g>
</svg>
