<?xml version="1.0" encoding="UTF-8"?>
<svg id="Layer_1" xmlns="http://www.w3.org/2000/svg" version="1.1" viewBox="0 0 250.652 44.843">
  <!-- Generator: Adobe Illustrator 29.5.1, SVG Export Plug-In . SVG Version: 2.1.0 Build 141)  -->
  <polygon points="26.502 25.794 33.238 25.794 33.238 35.228 47.138 35.228 47.138 10.884 33.238 10.884 33.238 20.201 26.502 20.201 26.502 10.884 12.581 10.884 12.581 35.228 26.502 35.228 26.502 25.794"/>
  <path d="M59.276,35.228h14.579c7.948,0,10.097-5.359,10.097-7.857V10.877h-13.914v16.269c0,1.699-1.018,3.598-3.489,3.598s-3.47-1.898-3.47-3.598V10.877h-13.922v16.493c0,2.498,2.137,7.857,10.119,7.857"/>
  <polygon points="98.53 24.808 104.255 35.228 110.085 35.228 115.813 24.808 115.813 35.228 128.604 35.228 128.604 10.877 112.672 10.877 107.16 20.753 101.675 10.877 85.727 10.877 85.727 35.228 98.53 35.228 98.53 24.808"/>
  <polygon points="143.184 24.808 148.909 35.228 154.742 35.228 160.466 24.808 160.466 35.228 173.239 35.228 173.239 10.877 157.313 10.877 151.827 20.753 146.331 10.877 130.401 10.877 130.401 35.228 143.184 35.228 143.184 24.808"/>
  <polygon points="201.989 28.517 189.181 28.517 189.181 25.794 201.989 25.794 201.989 20.201 189.181 20.201 189.181 17.628 201.989 17.628 201.989 10.877 174.827 10.877 174.827 35.228 201.989 35.228 201.989 28.517"/>
  <path d="M238.788,18.945c0-3.025-1.909-8.067-7.304-8.067h-27.71v24.351h13.918v-7.057l5.938,7.057h17.161l-7.285-8.628c2.904.118,5.281-4.618,5.281-7.655M221.505,22.109h-3.812v-5.507h4.266c3.486,0,3.137,5.507-.453,5.507"/>
  <path d="M240.061,10.615c-1.105,0-2.058.846-2.058,1.999,0,1.198.952,2.033,2.058,2.033,1.115,0,2.054-.835,2.054-2.033,0-1.153-.938-1.999-2.054-1.999M240.061,14.319c-.924,0-1.65-.722-1.65-1.705,0-.971.727-1.665,1.65-1.665s1.647.694,1.647,1.665c0,.983-.719,1.705-1.647,1.705"/>
</svg>