<?xml version="1.0" encoding="utf-8"?>
<!-- Generator: Adobe Illustrator 16.0.0, SVG Export Plug-In . SVG Version: 6.00 Build 0)  -->
<!DOCTYPE svg PUBLIC "-//W3C//DTD SVG 1.1//EN" "http://www.w3.org/Graphics/SVG/1.1/DTD/svg11.dtd">
<svg version="1.1" id="Layer_1" xmlns="http://www.w3.org/2000/svg" xmlns:xlink="http://www.w3.org/1999/xlink" x="0px" y="0px"
	 width="234px" height="200px" viewBox="0 0 234 200" enable-background="new 0 0 234 200" xml:space="preserve">
<g>
	<path d="M101.04,34.631c18.108-0.639,36.234-0.004,54.31,1.155c1.903,0.168,3.83,0.152,5.704,0.554
		c1.015,0.243,2.109,0.63,2.703,1.552c0.541,1.001,0.553,2.173,0.692,3.277c0.429,5.423,0.557,10.87,0.961,16.293
		c-0.782,0.096-1.564-0.023-2.349-0.049c-13.941-0.723-27.893-1.32-41.857-1.34c-7.233,0.021-14.474-0.05-21.7,0.301
		c-1.75,0.259-3.732,0.845-4.743,2.406c5.466,0.971,10.923,2.018,16.388,3.006c18.11,3.39,36.237,6.706,54.346,10.092
		c-0.014,3.434-0.007,6.869-0.002,10.305c-10.183-1.686-20.35-3.506-30.527-5.246c-21.9-3.774-43.79-7.6-65.693-11.337
		c0.044-3.815,0.206-7.625,0.285-11.44c0.138-3.021,0.053-6.084,0.736-9.049c0.457-2.093,1.309-4.198,2.895-5.692
		c2.74-2.712,6.699-3.475,10.386-3.857C89.383,35.022,95.215,34.847,101.04,34.631L101.04,34.631z M69.168,70.613
		c31.371,5.791,62.732,11.676,94.099,17.496c0.686,0.168,1.419,0.182,2.077,0.433l0.08,0.182
		c-0.171,5.146-0.272,10.296-0.456,15.441c-0.121,3.176-0.457,6.498-2.09,9.295c-1.752,2.892-5.015,4.489-8.243,5.095
		c-4.758,0.895-9.62,0.952-14.438,1.218c-20.738,0.941-41.521,0.421-62.227-1.006c-1.653-0.114-3.337-0.144-4.943-0.603
		c-0.833-0.263-1.693-0.686-2.163-1.456c-0.505-1.01-0.538-2.16-0.661-3.26c-0.444-6.006-0.679-12.019-0.994-18.029
		c10.681,0.679,21.381,1.06,32.08,1.298c10.333,0.166,20.665,0.164,30.996,0.266c2.229,0.093,4.64-0.331,6.329-1.897
		c0.247-0.283,0.647-0.545,0.607-0.969c-4.657-0.699-9.287-1.567-13.934-2.333c-18.702-3.196-37.41-6.366-56.108-9.58
		C69.156,78.34,69.183,74.477,69.168,70.613L69.168,70.613z"/>
	<path d="M152.387,147.337v7.153h-22.751v-2.016c0-3.123,0.504-5.188,4.169-5.188h18.582V147.337z M132.398,142.904
		c-5.977,0-8.739,3.173-8.739,8.312v14.406h5.977v-6.65h22.751v6.601h5.977v-22.668H132.398z M165.746,142.904v4.433h14.063v18.235
		h5.979v-18.235h14.062v-4.433H165.746z M85.29,156.856c0,3.175,0.651,4.332,4.169,4.332h24.961v4.434H88.052
		c-5.978,0-8.789-2.72-8.789-7.808v-14.91h35.106v4.433h-29.13v4.434h27.924v4.355H85.239v0.756L85.29,156.856z M42.5,150.813
		c-1.857-0.152-2.159-0.807-2.159-1.915c0-1.008,0.551-1.611,1.958-1.611H69.87v-4.382H41.596c-4.018,0-6.78,1.561-6.78,6.044
		s2.061,6.044,6.679,6.447l22.351,1.864c1.708,0.151,2.21,0.704,2.21,1.965c0,1.157-0.502,1.914-2.059,1.914H35.919v4.434h28.528
		c4.924,0,7.082-1.966,7.082-6.601c0-4.23-1.959-5.942-6.729-6.346L42.5,150.813z"/>
</g>
</svg>
