<?xml version="1.0" encoding="UTF-8"?>
<svg id="Layer_1" xmlns="http://www.w3.org/2000/svg" version="1.1" viewBox="0 0 216.176 153.079">
  <!-- Generator: Adobe Illustrator 29.5.1, SVG Export Plug-In . SVG Version: 2.1.0 Build 141)  -->
  <path d="M151.756,71.371s-8.144,2.359-23.926,12.059c-14.181,8.715-19.735,14.571-19.735,14.571l-43.664-30.181s18.373-13.512,33.728-3.163l20.592,14.13,2.509-1.655-56.829-39.808s8.175-2.361,23.955-12.062c14.181-8.715,19.709-14.573,19.709-14.573l43.689,30.181s-18.373,13.517-33.728,3.165l-20.59-14.126-2.509,1.646,56.8,39.816"/>
  <polyline points="117.949 112.544 84.704 112.544 84.704 119.934 100.751 119.934 84.14 135.454 84.14 141.647 117.895 141.647 117.895 134.227 101.099 134.227 117.949 118.745 117.949 112.544"/>
  <path d="M65.128,142.389c13.296,0,16.716-3.394,16.716-10.88v-18.965h-10.55v17.833c0,2.993-2.562,4.776-6.166,4.776-3.739,0-6.144-1.79-6.144-4.824v-17.785h-10.547v18.965c0,7.486,3.415,10.88,16.69,10.88"/>
  <path d="M137.232,142.389c13.298,0,16.715-3.394,16.715-10.88v-18.965h-10.549v17.833c0,2.993-2.562,4.776-6.166,4.776-3.739,0-6.145-1.79-6.145-4.824v-17.785h-10.546v18.965c0,7.486,3.417,10.88,16.69,10.88"/>
  <polyline points="206.501 112.544 195.529 112.544 195.529 141.647 206.501 141.647 206.501 112.544"/>
  <polyline points="193.873 112.544 179.395 112.544 167.728 122.584 167.728 112.544 156.725 112.544 156.725 141.647 167.728 141.647 167.728 131.326 178.57 141.647 193.338 141.647 177.259 126.716 193.873 112.544"/>
  <path d="M22.477,120.586c0-2.247,3.338-2.321,4.46-2.321,1.149,0,3.688.448,5.397,3.281h12.417c0-5.475-5.182-9.843-17.758-9.843-13.995,0-16.37,6.136-16.37,9.654,0,6.495,5.046,8.395,15.969,9.559.936.099,6.624-.17,6.624,2.566,0,2.032-3.204,2.163-4.352,2.163-1.178,0-3.365-.191-5.184-3.405h-13.672c0,6.383,4.301,10.081,18.828,10.081,13.353,0,16.902-5.455,16.902-9.607,0-4.028-2.749-8.127-14.153-9.584-4.752-.618-9.107-.877-9.107-2.544"/>
</svg>