<?xml version="1.0" encoding="UTF-8"?>
<svg id="Layer_1" xmlns="http://www.w3.org/2000/svg" version="1.1" viewBox="0 0 97.225 147.416">
  <!-- Generator: Adobe Illustrator 29.5.1, SVG Export Plug-In . SVG Version: 2.1.0 Build 141)  -->
  <path d="M49.426,7.441c-10.588,0-20.509,6.931-27.934,19.488-7.326,12.401-11.355,28.883-11.355,46.37s4.029,33.988,11.355,46.395c7.425,12.559,17.346,19.472,27.934,19.472s20.526-6.913,27.941-19.472c7.324-12.406,11.337-28.883,11.337-46.395s-4.013-33.969-11.337-46.37c-7.415-12.558-17.331-19.488-27.941-19.488M49.426,137.221c-9.86,0-19.172-6.574-26.252-18.524-7.146-12.099-11.074-28.219-11.074-45.397s3.928-33.272,11.074-45.377c7.08-11.939,16.392-18.523,26.252-18.523s19.202,6.584,26.258,18.523c7.138,12.105,11.074,28.217,11.074,45.377s-3.936,33.299-11.074,45.397c-7.056,11.95-16.373,18.524-26.258,18.524"/>
  <polygon points="67.751 69.604 67.751 68.936 49.426 68.936 31.111 68.936 31.111 69.604 49.426 69.604 67.751 69.604"/>
  <polygon points="49.426 73.489 67.751 73.489 67.751 72.811 49.426 72.811 31.102 72.811 31.102 73.489 49.426 73.489"/>
  <polygon points="69.696 70.716 49.426 70.716 29.145 70.716 29.145 71.399 49.426 71.399 69.696 71.399 69.696 70.716"/>
  <path d="M65.146,78.362c1.78,0,2.605-1.624,2.605-2.924h1.792v-.812H29.313v.812h1.789c0,1.3.823,2.924,2.601,2.924s2.448-1.135,2.448-2.76c1.789,0,8.311,0,8.311,7.789h9.927c0-7.789,6.513-7.789,8.315-7.789,0,1.625.649,2.76,2.443,2.76"/>
  <path d="M56.297,84.281h-13.747c-.18,0-.339.149-.339.341v2.717c0,.191.159.35.339.35h13.747c.182,0,.335-.158.335-.35v-2.717c0-.191-.153-.341-.335-.341"/>
  <path d="M29.158,66.228v2.033h40.551v-2.033h-1.777c0-9.665,1.777-21.686,8.504-30.564-4.356.985-9.696,5.62-11.862,8.48,1.767-.593,3.358-1.771,4.916-2.358-1.558,3.352-6.126,17.188-6.126,24.442h-4.342c-5.152-8.669-8.114-13.405-8.114-31.157,2.757,1.578,3.748,2.761,6.727,3.35-3.359-3.35-8.207-10.844-8.207-18.141,0,7.297-4.849,14.791-8.193,18.141,2.954-.589,3.946-1.772,6.718-3.35,0,17.752-2.957,22.482-8.122,31.157h-4.344c0-7.255-4.559-21.091-6.137-24.442,1.578.588,3.158,1.766,4.95,2.358-2.177-2.86-7.513-7.495-11.867-8.48,6.727,8.878,8.495,20.899,8.495,30.564h-1.769ZM51.302,57.559c.591,3.346,2.765,5.908,4.153,8.669h-4.153v-8.669ZM47.547,57.559v8.669h-4.145c1.388-2.761,3.558-5.323,4.145-8.669"/>
  <polygon points="62.673 107.698 64.699 107.698 63.665 103.798 62.673 107.698"/>
  <path d="M54.733,94.753v-5.961c0-.174-.143-.334-.345-.334h-9.927c-.211,0-.361.16-.361.334v5.961l-28.254.003c5.005,23.86,18.158,40.884,33.58,40.884s28.582-17.027,33.588-40.891l-28.281.004ZM29.681,110.918h-1.371l-.007-8.296-2.252,6.592-2.114-6.592v8.296h-1.375v-10.532h2.24l1.321,4.6,1.315-4.6h2.242v10.532ZM36.428,110.918l-.42-1.638h-2.968l-.372,1.638h-1.835l2.86-10.532h1.58l2.987,10.532h-1.833ZM44.879,109.547c-.242.515-.589.921-1.005,1.177-.439.254-.984.379-1.601.379-.952,0-1.655-.307-3.243-1.504l1.086-1.373c1.348.903,1.712,1.064,2.171,1.064.468,0,.84-.157,1.065-.434.246-.284.358-.627.358-1.016,0-.242-.052-.459-.144-.631-.101-.172-.289-.33-.524-.457-.195-.086-.632-.361-1.241-.64-.838-.437-1.459-.972-1.874-1.31-.494-.432-.995-1.113-.995-1.934,0-.549.139-1.067.354-1.535.213-.465.542-.742.938-.992.407-.252,1.173-.303,1.737-.303.918,0,1.841.441,2.749,1.382l-1.18,1.235c-.641-.604-1.098-.812-1.501-.89-.354-.066-.832.009-1.065.269-.174.162-.242.379-.242.647,0,.259.068.456.231.647.18.234.801.725,1.436,1.123.745.43,1.334.756,1.68.999.811.604.873.987.937,1.152.205.464.236.701.236,1.388,0,.596-.131,1.023-.362,1.554M51.335,110.918h-4.847v-10.532h4.708v1.767h-3.204v2.333h2.914v1.767h-2.914v2.881h3.343v1.785ZM58.338,110.918h-1.506l-1.162-2.333c-.307.02-.594.029-.873.029v2.304h-1.489v-10.532h1.489c2.259,0,4.565.683,4.565,3.877,0,2.465-1.071,3.559-2.362,4.019l1.338,2.636ZM65.605,110.918l-.408-1.638h-2.98l-.378,1.638h-1.837l2.847-10.532h1.608l2.985,10.532h-1.837ZM72.875,102.152h-2.19v8.766h-1.5v-8.766h-2.182v-1.767h5.872v1.767ZM74.571,100.385h1.485v10.532h-1.485v-10.532Z"/>
  <polygon points="33.503 107.698 35.562 107.698 34.491 103.798 33.503 107.698"/>
  <path d="M54.797,101.962v5.107c1.221,0,2.912-.253,2.912-2.717,0-2.053-1.486-2.391-2.912-2.391"/>
</svg>