<?xml version="1.0" encoding="utf-8"?>
<!-- Generator: Adobe Illustrator 16.0.0, SVG Export Plug-In . SVG Version: 6.00 Build 0)  -->
<!DOCTYPE svg PUBLIC "-//W3C//DTD SVG 1.1//EN" "http://www.w3.org/Graphics/SVG/1.1/DTD/svg11.dtd">
<svg version="1.1" id="Layer_1" xmlns="http://www.w3.org/2000/svg" xmlns:xlink="http://www.w3.org/1999/xlink" x="0px" y="0px"
	 width="201px" height="200px" viewBox="0 0 201 200" enable-background="new 0 0 201 200" xml:space="preserve">
<g>
	<path d="M129.716,34.309H72.383L35.058,71.631v56.882l37.03,37.18h57.03l37.324-37.324V71.337L129.716,34.309L129.716,34.309z
		 M155.1,123.29l-31.053,31.052H77.462l-31.053-30.908V76.711l31.053-30.909h47.181L155.1,76.411V123.29L155.1,123.29z"/>
	<path d="M72.852,85.069l-7.912-16.121L53.145,79.991v39.561l11.351,11.493V92.526l9.851,21.947l11.199-29.267v61.365h12.541V53.12
		H84.798L72.852,85.069z M106.857,53.12v93.466h14.336l27.169-27.021V99.856h-20.904v11.35h7.763
		c2.086-0.301,2.237,2.088,0.745,3.882c-1.491,1.793-16.574,16.571-16.574,16.571V68.051l17.615,18.361v4.477h11.351V80.442
		L121.48,53.12H106.857L106.857,53.12z"/>
</g>
</svg>
