<?xml version="1.0" encoding="UTF-8"?>
<svg id="Layer_1" xmlns="http://www.w3.org/2000/svg" version="1.1" viewBox="0 0 247.146 121.843">
  <!-- Generator: Adobe Illustrator 29.5.1, SVG Export Plug-In . SVG Version: 2.1.0 Build 141)  -->
  <path d="M60.448,47.417h37.013c1.135,0,1.538.527,1.538,1.534v5.427c0,1.627.947,2.375,2.371,2.375h41.758c1.43,0,2.385-.713,2.385-2.375v-5.408c0-1.092.461-1.553,1.541-1.553h23.221c1.58,0,2.738-.432,3.553-1.933l11.503-22.494c.255-.47.436-.767.436-1.315,0-1.55-1.318-2.085-2.224-2.085h-36.488c-.951,0-1.541-.256-1.541-1.531v-5.422c0-1.562-.858-2.392-2.385-2.392h-41.758c-1.566,0-2.371.861-2.371,2.392v5.395c0,1.164-.541,1.545-1.538,1.545l-23.906.014c-1.84,0-2.915.885-3.45,2.03l-11.652,22.76c-.148.274-.251.622-.251.974,0,.904.592,2.062,2.247,2.062M69.624,38.355l5.558-10.869c.208-.41.561-.652,1.402-.652h28.077c.97,0,1.583-.385,1.583-1.581v-6.218c0-1.127.477-1.568,1.533-1.568h28.939c1.036,0,1.537.477,1.537,1.58v6.244c0,1.057.513,1.543,1.597,1.543h33.226c1.058,0,1.409.695,1.409,1.239,0,.216-.047.427-.154.575l-5.539,10.889c-.358.615-.959.627-1.39.627h-27.552c-1.146,0-1.577.512-1.577,1.572v6.256c0,1.026-.447,1.515-1.557,1.515h-28.939c-.956,0-1.548-.333-1.548-1.53v-6.247c0-1.147-.522-1.565-1.568-1.565h-33.791c-.829,0-1.38-.51-1.38-1.241,0-.202.05-.403.134-.567"/>
  <path d="M149.44,15.619h.496l.74,1.127h.395l-.751-1.163c.444-.007.796-.211.796-.727,0-.536-.473-.686-.906-.686h-1.131v2.575h.36v-1.127ZM149.44,14.491h.684c.271,0,.623.044.623.365,0,.242-.122.461-.623.461h-.684v-.826Z"/>
  <path d="M149.932,17.743c1.268,0,2.294-.997,2.294-2.27,0-1.279-1.025-2.277-2.294-2.277-1.275,0-2.301.998-2.301,2.277,0,1.252,1.018,2.27,2.301,2.27M149.932,13.542c1.072,0,1.902.863,1.902,1.916,0,1.072-.83,1.93-1.902,1.93-1.082,0-1.936-.857-1.936-1.93,0-1.053.868-1.916,1.936-1.916"/>
  <polygon points="39.154 97.355 48.987 97.355 48.987 112.046 55.832 112.046 55.832 79.218 48.987 79.218 48.987 92.365 39.154 92.365 39.154 79.218 32.296 79.218 32.296 112.046 39.154 112.046 39.154 97.355"/>
  <polygon points="221.75 112.046 228.604 112.046 228.604 84.234 237.912 84.234 237.912 79.218 212.453 79.218 212.453 84.234 221.75 84.234 221.75 112.046"/>
  <polygon points="176.276 79.218 169.419 79.218 169.419 112.046 189.019 112.046 189.019 107.034 176.276 107.034 176.276 79.218"/>
  <path d="M93.097,112.057h6.336c1.85,0,3.039-.955,3.5-2.829l8.1-29.99h-6.04l-7.11,27.358c-.102.335-.355.439-.715.439s-.603-.138-.725-.455l-7.227-27.361h-7.969l8.273,29.944c.393,1.992,1.729,2.895,3.576,2.895"/>
  <path d="M14.346,112.057l15.333-.011v-5.012h-11.087c-1.893,0-2.502-.475-2.502-2.512v-17.792c0-1.976.469-2.497,2.502-2.497h11.087v-4.996h-15.31c-3.506,0-5.135,1.797-5.135,5.092v22.59c0,3.66,1.863,5.138,5.111,5.138"/>
  <path d="M69.299,84.234h11.252v-4.996h-15.491c-3.532,0-5.121,1.746-5.121,5.092v22.59c0,3.456,1.694,5.138,5.121,5.138h16.907v-5.023h-12.668c-1.907,0-2.497-.427-2.497-2.506v-7.174h13.604v-4.99h-13.604v-5.634c0-1.898.414-2.497,2.497-2.497"/>
  <path d="M136.149,93.042v-8.713c0-3.42-1.629-5.092-5.126-5.092h-19.094v32.819h6.852v-27.823h7.989c2.125,0,2.516.6,2.516,2.497l.008,3.995c0,1.932-.536,2.512-2.508,2.512h-3.737c-1.463,0-2.28.9-2.28,2.309,0,.712.36,1.225.646,1.73l8.656,14.77h8.481l-9.066-13.871h1.538c3.165,0,5.126-1.435,5.126-5.133"/>
  <path d="M152.638,112.057h7.517c3.269,0,5.117-1.561,5.117-5.138l-.009-22.59c0-3.346-1.576-5.092-5.108-5.092h-15.104c-3.619,0-5.129,1.82-5.129,5.092v22.59c0,3.717,1.996,5.138,5.129,5.138h7.588ZM146.77,86.731c0-1.718.229-2.497,2.506-2.497h6.639c1.793,0,2.505.307,2.505,2.497l.012,17.798c0,2.098-.65,2.509-2.517,2.509h-6.639c-1.964,0-2.506-.548-2.506-2.509v-17.798Z"/>
  <path d="M195.471,112.057l16.912-.011v-5.012h-12.657c-1.922,0-2.523-.427-2.523-2.512v-7.168h13.612v-4.99h-13.598v-5.634c0-1.898.402-2.497,2.509-2.497h11.229v-5.016l-15.484.02c-3.535,0-5.108,1.746-5.108,5.092l-.016,22.59c0,3.456,1.683,5.138,5.124,5.138"/>
</svg>