<?xml version="1.0" encoding="UTF-8"?>
<svg id="Layer_1" xmlns="http://www.w3.org/2000/svg" version="1.1" viewBox="0 0 251.461 115.558">
  <!-- Generator: Adobe Illustrator 29.5.1, SVG Export Plug-In . SVG Version: 2.1.0 Build 141)  -->
  <path d="M125.872,98.378c22.426,0,40.613-18.186,40.613-40.604s-18.188-40.634-40.613-40.634-40.617,18.191-40.617,40.634,18.178,40.604,40.617,40.604M125.872,20.162c20.777,0,37.602,16.843,37.602,37.611s-16.824,37.583-37.602,37.583-37.597-16.839-37.597-37.583,16.828-37.611,37.597-37.611"/>
  <path d="M15.444,41.578c1.853,2.236,4.084,4.862,6.677,7.752h-.016c2.412,2.693,5.14,5.606,8.154,8.688h.015c2.456,2.474,5.097,5.086,7.939,7.725h-.028c3.053,2.848,6.311,5.751,9.766,8.69h.028c3.075,2.596,6.325,5.182,9.71,7.745h0c3.795,2.86,7.788,5.657,11.956,8.351h19.664c8.982,10.035,22.038,16.361,36.564,16.361s27.58-6.326,36.558-16.361h19.387c37.02-23.971,60.523-57.018,60.523-57.018h-73.746c-8.449-14.86-24.418-24.842-42.721-24.842s-34.274,9.981-42.716,24.842H9.12s2.197,3.081,6.317,8.067h.007ZM40.053,65.743c-2.705-2.512-5.378-5.092-8.007-7.725h44.716c.008,2.62.215,5.213.639,7.725h-37.348ZM211.418,65.743h-37.078c.419-2.512.633-5.104.652-7.725h44.44c-2.64,2.633-5.315,5.213-8.014,7.725M234.382,41.578c-1.894,2.261-4.149,4.901-6.73,7.752h-53.392c-.458-2.67-1.131-5.262-1.996-7.752h62.118ZM172.099,74.433h29.44c-3.252,2.688-6.551,5.281-9.865,7.745h-23.162c1.404-2.475,2.604-5.066,3.587-7.745M125.872,15.253c23.476,0,42.497,19.034,42.497,42.521s-19.021,42.487-42.497,42.487-42.518-19.035-42.518-42.487S102.399,15.253,125.872,15.253M83.237,82.178h-23.447c-3.301-2.464-6.593-5.058-9.866-7.745h29.741c.955,2.679,2.157,5.271,3.572,7.745M79.485,41.578c-.878,2.49-1.549,5.082-2.013,7.752H23.817c-2.581-2.851-4.831-5.466-6.721-7.752h62.389Z"/>
  <rect x="120.648" y="47.363" width="5.316" height="21.037"/>
  <polygon points="105.67 68.4 110.952 56.037 110.952 68.4 116.125 68.4 116.125 47.363 111.062 47.363 110.952 47.363 110.428 47.363 104.468 61.23 98.993 47.363 93.204 47.363 93.204 68.4 97.612 68.4 97.612 55.732 102.645 68.4 105.67 68.4"/>
  <polygon points="134.814 55.714 144.589 68.4 148.548 68.4 148.548 47.363 144.093 47.363 144.093 60.145 144.093 60.155 134.252 47.363 130.417 47.363 130.417 68.4 134.814 68.4 134.814 55.714"/>
  <rect x="153.081" y="47.363" width="5.311" height="21.037"/>
</svg>