<?xml version="1.0" encoding="utf-8"?>
<!-- Generator: Adobe Illustrator 28.2.0, SVG Export Plug-In . SVG Version: 6.00 Build 0)  -->
<svg version="1.1" id="Calque_2" xmlns="http://www.w3.org/2000/svg" xmlns:xlink="http://www.w3.org/1999/xlink" x="0px" y="0px"
	 viewBox="0 0 168 200" style="enable-background:new 0 0 168 200;" xml:space="preserve">
<style type="text/css">
	.st0{fill:#FFFFFF;}
	.st1{stroke:#000000;stroke-width:0.2542;stroke-miterlimit:489.2269;}
</style>
<path d="M113.8,30.7l-61.3,0c-4.7,0-8.6,3.9-8.6,8.6v118.3c0,4.8,3.9,8.6,8.6,8.6c0,0,0,0,0,0h61.4c2.3,0,4.4-0.9,6-2.5
	c1.6-1.6,2.5-3.8,2.5-6.1V39.3C122.4,34.5,118.6,30.7,113.8,30.7z M119.3,157.5c0,1.5-0.5,2.9-1.6,3.9c-1,1-2.4,1.6-3.8,1.6H52.5
	c-1.5,0-2.9-0.6-3.9-1.6c-1-1-1.6-2.4-1.6-3.9V39.3c0-3.1,2.5-5.5,5.5-5.5l61.3,0c3.1,0,5.5,2.5,5.5,5.5V157.5L119.3,157.5z"/>
<path class="st0" d="M115.6,159.3c0.5-0.5,0.7-1.1,0.7-1.7V39.3c0-1.3-1-2.4-2.4-2.4l-61.3,0c-1.4,0-2.4,1.1-2.4,2.5v118.3
	c0,1.3,1.1,2.4,2.4,2.5c0,0,0,0,0,0h61.4C114.6,160,115.1,159.7,115.6,159.3"/>
<g>
	<path class="st1" d="M54.5,156.3l2,0c-0.1-0.4-0.2-0.7-0.2-1.1v-6.4c0-0.5,0.3-0.5,0.5-0.2l6.5,7.7h2l-6.8-8
		c-0.2-0.2-0.1-0.5,0.1-0.5h0.7c1.9,0,3.4-1.5,3.4-3.4c0-1.9-1.5-3.4-3.4-3.4h-4.8c0.1,0.3,0.2,0.6,0.2,1.1v13
		C54.8,155.6,54.7,156,54.5,156.3L54.5,156.3z M56.3,142.6h3.1c1,0,1.8,0.8,1.8,1.8c0,1-0.8,1.8-1.8,1.8l-3.1,0L56.3,142.6
		L56.3,142.6z M98.5,90.9c-2.7,6.8-9,9-9,9l2.2,4.6c0,0,0.3-0.1,0.9-0.3c1.4,1.6,6.8,8.4,7.1,19.1c0,0,0.4,4.4-3.6,7.5h12
		c0,0-1.5-1-2.2-3.8c-0.6-2.8-0.5-7.6-3.1-13.5c-2.1-4.7-5-9.6-6.1-11.3c3.2-2,7.1-5.4,9.3-11.2c4-10.8-3.7-18.8-11-20.2
		c0,0,2,3.6,2.3,6.3C97.4,77.1,102,82.1,98.5,90.9L98.5,90.9z M109.4,47.6c-0.5-0.4-2.2-1.9-2.9-2.4c-0.5-0.4-1.3-3.1,1.2-3.1
		c1.2,0,2.3,0.9,2.7,1.1l0.7-1.7c-0.4-0.1-0.8-0.2-1.2-0.4c-0.5-0.2-1.4-0.6-2.2-0.6c-0.8,0-3.2,0.5-3.3,3c-0.1,2.1,1.3,3.1,1.8,3.5
		c0.7,0.5,2.6,2,3.5,3.2c0.8,1.2,1.3,3.6-1.8,4c-1,0-2.2-0.5-2.8-0.9l0.2,2.1c0.6-0.1,1,0,1.3,0.1c0.5,0.1,1.1,0.2,1.7,0.2
		c0.6,0,3.7-0.5,3.7-3.5C111.9,49.5,110.1,48.2,109.4,47.6L109.4,47.6z M97.8,156.9c1.6,0,3.1,0,4.4-0.9l-0.1-1.9
		c-1.1,1.1-2.6,1.3-4.3,1.3c-3.4,0-6.1-3.1-6.1-6.4c0-3.4,2.7-6.3,6.1-6.3c1.5,0,3,0.4,4.1,1.3l-0.2-1.8c-1.2-0.7-2.4-1-3.9-1
		c-4.2,0-7.6,3.6-7.6,7.8C90.3,153.1,93.6,156.9,97.8,156.9z M72.4,156.5c4.2,0,7.6-3.4,7.6-7.6c0-4.2-3.4-7.6-7.6-7.6
		c-4.2,0-7.6,3.4-7.6,7.6C64.8,153.1,68.2,156.5,72.4,156.5z M72.4,142.8c3.4,0.1,6,2.9,6,6.3c-0.1,3.3-2.7,5.9-6,6
		c-3.4,0-6.1-2.7-6.1-6.1C66.3,145.6,69,142.8,72.4,142.8L72.4,142.8z M110.8,156.6l1.1-1.8c-0.8,0.4-2.4,0.4-3.4,0.4
		c-1,0-1.5-0.5-1.5-1v-5c0-0.6,0.4-0.8,0.8-0.8h2.7v-1.5h-2.7c-0.5,0-0.8-0.2-0.8-0.8v-2.4c0-0.4,0.5-1,1.5-1c1,0,1.9,0,2.7,0.4
		l-0.4-1.8h-5.5c0.1,0.3,0.2,0.6,0.2,1.1l0,13c0,0.4-0.1,0.8-0.2,1.1L110.8,156.6L110.8,156.6z M84.4,155.4c0,0.4-0.1,0.8-0.2,1.1
		l2,0c-0.1-0.4-0.2-0.7-0.2-1.1h0v-6.9l4.2-7.2h-1.8l-3.1,5.4l-3.1-5.4h-1.8l4,7.2L84.4,155.4L84.4,155.4z M84.7,106.5
		c-0.3-1.1-1.5-3.5-2.1-4.5c-2.2,0.4-4.3,0.5-6,0.5l0-1.2c-0.8,0.3-4.2,0.8-5.6,0.9v24c0,2.5-1.1,3.7-1.9,4.8h9.3
		c-0.8-1.1-1.9-2.3-1.9-4.8l0-19C79.5,107.1,82.3,106.9,84.7,106.5L84.7,106.5z M85.9,53V41.3c0-0.5,0.1-0.8,0.2-1.1l-2,0
		c0.1,0.3,0.2,0.6,0.2,1.1v13c0,0.4-0.1,0.8-0.2,1.1h5.5l1.1-1.8C90,54,88.4,54,87.3,54C86.3,54,85.9,53.5,85.9,53z M73.4,40.2
		c-4.2-0.1-7.6,3.3-7.7,7.4c-0.1,4.2,3.3,7.6,7.4,7.7c0.1,0,0.2,0,0.3,0c4.2-0.1,7.5-3.5,7.4-7.7C80.8,43.6,77.5,40.3,73.4,40.2
		L73.4,40.2z M73.4,53.9c-3.4,0.1-6.2-2.6-6.3-6c-0.1-3.4,2.6-6.2,6-6.3c0.1,0,0.2,0,0.3,0c3.4,0.1,6,2.9,6,6.3
		C79.3,51.2,76.6,53.8,73.4,53.9z M96.3,53l0-11.7c0-0.5,0.1-0.8,0.2-1.1l-2,0c0.1,0.3,0.2,0.6,0.2,1.1v13c0,0.4-0.1,0.8-0.2,1.1
		h5.5l1.1-1.8c-0.8,0.4-2.4,0.4-3.4,0.4C96.8,54,96.3,53.5,96.3,53L96.3,53z M59.7,46.9l0.7,0c1.9,0,3.3-1.6,3.3-3.5
		c0-1.8-1.5-3.2-3.3-3.3l-4.8,0c0.1,0.3,0.2,0.6,0.2,1.1v13c0,0.4-0.1,0.8-0.2,1.1h2v0c-0.1-0.4-0.2-0.7-0.2-1.1v-6.4
		c0-0.5,0.3-0.5,0.5-0.2l6.5,7.7h2l-6.8-8C59.4,47.2,59.4,46.9,59.7,46.9L59.7,46.9z M57.3,45.3v-3.7h3.1c1,0,1.8,0.9,1.8,1.9
		c0,1-0.8,1.7-1.8,1.8L57.3,45.3L57.3,45.3z"/>
	<path class="st1" d="M58.2,125l9.3,0c-0.8-1.1-1.9-2.3-1.9-4.8l0-19c6.3-0.1,11.5-1.1,15.7-2.8c6.4,6.9,7.2,16.8,7.3,19.5
		c0.1,2.7-1.3,5.1-3.5,7.1h12.1c-1.9-1-2.5-3.6-2.6-6.1c-1.2-11.4-7.5-20.2-9.1-22.5C92.8,92,96,85.4,96,79.3c0-10.2-9-15-16.7-15
		H58.8c0.8,1.1,1.3,1.5,1.3,4v51.9C60.1,122.7,59,123.9,58.2,125L58.2,125z M65.7,67.9h12c8.3,0,11.1,5.3,10.9,10.8
		c-0.5,15.4-15.9,17.7-23,17.7V67.9L65.7,67.9z"/>
	<path class="st1" d="M113.8,35.8H52.5c-1.9,0-3.5,1.5-3.5,3.5v118.3c0,0.9,0.4,1.8,1,2.4c0.6,0.6,1.5,1,2.4,1h61.4
		c0.9,0,1.7-0.4,2.4-1c0.7-0.7,1-1.5,1-2.4V39.3C117.2,37.4,115.7,35.8,113.8,35.8L113.8,35.8z M115.2,157.8c0,0.7-0.6,1.3-1.3,1.3
		H52.5c-0.3,0-0.7-0.1-0.9-0.4c-0.2-0.2-0.4-0.6-0.4-0.9l0-19.3h63.9L115.2,157.8L115.2,157.8z M115.2,136H51.3V59.7l63.9-0.1
		L115.2,136L115.2,136z M115.2,57.2H51.3V39c0-0.3,0.1-0.7,0.4-0.9c0.2-0.2,0.6-0.4,0.9-0.4h61.4c0.7,0,1.3,0.6,1.3,1.3L115.2,57.2
		L115.2,57.2z"/>
	<path class="st1" d="M83.4,70.1l-13.6,0c0.8,1.1,1.3,1.5,1.3,4v20.6c1.8-0.2,4.3-1,5.6-1.4V73.7h9.9C85.9,72.4,84.5,70.8,83.4,70.1
		z"/>
</g>
</svg>
