<?xml version="1.0" encoding="utf-8"?>
<!-- Generator: Adobe Illustrator 16.0.0, SVG Export Plug-In . SVG Version: 6.00 Build 0)  -->
<!DOCTYPE svg PUBLIC "-//W3C//DTD SVG 1.1//EN" "http://www.w3.org/Graphics/SVG/1.1/DTD/svg11.dtd">
<svg version="1.1" id="Layer_1" xmlns="http://www.w3.org/2000/svg" xmlns:xlink="http://www.w3.org/1999/xlink" x="0px" y="0px"
	 width="188.75px" height="200px" viewBox="0 0 188.75 200" enable-background="new 0 0 188.75 200" xml:space="preserve">
<g>
	<path d="M154.076,59.009c-2.223-1.938-7.797-6.665-9.734-17.65l-15.551-6.099c0,0-0.282-0.121-0.282,0s0,0.121-0.12,0.121
		c-4.161,4.322-18.742,1.13-33.768,1.13h-0.687c-15.024,0-29.605,3.192-33.767-1.13c-0.119-0.121,0-0.121-0.119-0.121
		c-0.123,0-0.284,0-0.284,0l-15.43,6.099c-1.937,10.985-7.351,15.712-9.733,17.65c3.756,2.787,7.635,6.825,7.635,12.521
		c0,5.01-5.293,20.438-5.293,33.361c0,35.141,27.789,48.631,44.873,52.953c4.322,1.13,9.573,5.29,12.24,7.633
		c0.12,0.122,0.402,0.122,0.686,0c2.625-2.343,7.917-6.543,12.238-7.633c17.084-4.322,44.873-17.65,44.873-52.79
		c0-12.926-5.411-28.476-5.411-33.362C146.402,65.795,150.32,61.796,154.076,59.009 M46.922,44.832
		c0.12-0.566,0.12-1.131,0.12-1.535l12.521-4.604c0,0,0.121,2.504,13.329,1.938c0.565,0,2.907-0.121,3.594-0.121
		c5.413-0.404,10.987-0.687,16.682-0.687h2.343c5.695,0,11.27,0.405,16.682,0.687c0.687,0,3.07,0.121,3.595,0.121
		c13.207,0.566,13.329-1.938,13.329-1.938l12.521,4.604c0,0.566,0,1.131,0.12,1.535c1.252,5.291,3.757,10.299,7.514,14.177H39.408
		C43.164,55.09,45.67,50.123,46.922,44.832 M148.623,105.014c0,35.422-29.729,46.689-42.529,49.881
		c-4.322,1.131-9.17,4.605-11.795,6.826c-2.787-2.221-7.514-5.695-11.794-6.826c-12.804-3.191-42.531-14.459-42.531-49.881
		c0-7.635,1.938-16.277,3.474-23.225c0.969-3.353,1.535-6.826,1.818-10.138c0-3.474-1.132-6.826-3.354-9.573h104.65
		c-2.101,2.788-3.191,6.1-3.352,9.573c0.283,3.474,0.849,6.825,1.816,10.138C146.685,88.736,148.623,97.34,148.623,105.014"/>
	<path d="M135.859,46.205c0,1.373,0,2.222,0,3.594c-3.069-0.281-4.604-0.402-7.796-0.686c0-1.535,0-2.342,0-3.877
		c-6.099-0.688-12.802-1.252-19.306-1.818v1.938c-0.404-1.252-1.373-1.938-3.354-2.099c-3.756-0.123-7.35-0.283-11.105-0.283v11.592
		L88.32,43.015c-1.939,0-2.908,0-4.726,0.12c-1.817,3.474-3.474,6.947-5.292,10.422c0-0.404,0.122-0.688,0.122-1.132
		c0-1.938-0.565-2.787-2.222-2.907l0,0c0.97-0.283,1.818-0.849,1.818-2.909c0-2.504-1.374-3.19-4.443-3.069
		c-3.474,0.284-7.068,0.565-10.542,0.969c0,4.161,0,6.383,0,10.542c-1.938-3.472-4.039-6.825-6.099-9.854
		C55,45.479,54.029,45.6,52.212,45.882c-2.101,3.353-4.16,6.665-6.542,9.735h4.158c0.404-0.688,0.688-0.971,1.132-1.657l7.513-0.12
		l1.131,1.938h15.268c0.969,0.121,1.938-0.121,2.787-0.688c-0.122,0.283-0.283,0.405-0.405,0.688h4.161
		c0.402-0.848,0.688-1.373,1.13-2.221h7.514l1.13,2.221h7.068v-3.353h5.816c1.132,0,1.535,0.405,1.535,1.818v1.534h3.594
		c0-0.848,0-1.252,0-2.1c0-2.1-0.848-2.505-1.938-2.787l0,0c1.656-0.404,2.1-1.373,2.1-3.07v-0.848c0-0.283,0-0.404,0-0.565
		l5.01,0.282c0,3.596,0,5.413,0,9.047h3.593c0-3.473,0-5.29,0-8.764c2.626,0.121,4.04,0.283,6.827,0.566c0,3.352,0,5.008,0,8.197
		h3.596c0-1.534,0-2.342,0-4.038c3.069,0.122,4.604,0.282,7.795,0.404c0,1.373,0,2.1,0,3.474h3.594v-8.887
		c-1.373-0.282-2.221-0.565-3.594-0.686 M52.212,51.9c0.97-1.535,1.372-2.342,2.343-3.879c0.969,1.375,1.373,2.102,2.342,3.758
		L52.212,51.9 M66.792,46.892c2.626-0.12,3.878-0.283,6.544-0.403c0.686,0,1.131,0.12,1.131,0.969c0,0.688-0.404,0.97-1.131,0.97
		c-2.625,0.12-3.879,0.12-6.544,0.282V46.892 M73.457,52.869c-2.626,0-3.878,0-6.544,0.122c0-0.687,0-1.132,0-1.818
		c2.626-0.12,3.878-0.12,6.665-0.282c0.849,0,1.373,0.121,1.373,0.969C74.951,52.708,74.305,52.869,73.457,52.869 M83.879,50.811
		c0.969-1.939,1.371-2.909,2.342-4.848c0.969,1.938,1.372,2.908,2.342,4.848H83.879 M105.404,48.021
		c0,0.971-0.402,1.253-1.372,1.253l-6.099-0.12v-2.908c2.342,0,3.474,0,5.695,0.121c1.13,0,1.656,0.282,1.656,1.373L105.404,48.021"
		/>
	<polygon points="103.467,126.945 107.91,126.379 111.949,123.472 111.949,135.549 105.85,136.275 103.467,134.74 	"/>
	<polygon points="103.063,135.427 105.688,137.082 111.666,136.558 102.498,147.221 98.741,144.029 98.055,141.525 	"/>
	<polygon points="97.367,141.971 98.055,144.475 101.529,147.664 90.542,150.007 89.451,146.816 90.26,144.756 	"/>
	<polygon points="89.572,144.756 88.604,146.816 89.734,150.29 77.779,140.557 80.565,139.466 	"/>
	<polygon points="84.848,101.66 67.762,114.465 63.884,106.508 71.639,105.014 80.687,90.393 71.114,95.967 76.647,75.973 
		57.503,95.118 62.755,121.814 90.018,108.326 	"/>
	<polygon points="103.185,92.613 123.783,86.636 119.865,78.881 113.605,84.575 96.521,82.758 107.102,78.194 87.916,70.398 
		114.736,66.764 132.668,87.363 105.566,100.691 	"/>
	<polygon points="98.338,94.027 94.742,98.47 89.047,98.592 90.542,108.043 105.002,100.974 	"/>
	<polygon points="119.744,116.686 118.492,118.059 110.576,118.625 109.727,115.717 118.209,114.868 118.492,111.112 
		117.361,112.486 109.041,113.051 108.193,110.264 116.837,109.577 117.361,105.699 116.108,107.072 107.507,107.639 
		106.658,105.014 115.422,104.164 116.108,100.287 115.019,101.66 105.85,101.539 90.26,109.295 85.008,116.403 83.191,116.525 
		86.664,118.342 92.643,111.961 94.299,114.182 88.604,120.685 86.785,120.847 90.138,122.785 95.994,116.403 97.65,118.625 
		92.077,124.885 90.42,125.006 93.49,127.105 99.307,120.847 101.125,123.188 95.833,129.166 94.016,129.328 97.207,131.388 
		102.78,125.41 103.185,126.137 107.668,125.41 111.827,122.502 111.263,121.25 119.34,120.401 	"/>
	<polygon points="79.84,138.334 72.367,141.404 77.617,122.502 	"/>
</g>
</svg>
