<?xml version="1.0" encoding="utf-8"?>
<!-- Generator: Adobe Illustrator 16.0.0, SVG Export Plug-In . SVG Version: 6.00 Build 0)  -->
<!DOCTYPE svg PUBLIC "-//W3C//DTD SVG 1.1//EN" "http://www.w3.org/Graphics/SVG/1.1/DTD/svg11.dtd">
<svg version="1.1" id="Layer_1" xmlns="http://www.w3.org/2000/svg" xmlns:xlink="http://www.w3.org/1999/xlink" x="0px" y="0px"
	 width="218.666px" height="200px" viewBox="0 0 218.666 200" enable-background="new 0 0 218.666 200" xml:space="preserve">
<g>
	<path d="M127.622,161.389c-0.016,0-0.033-0.014-0.033-0.025v-4.244c-0.006-0.021,0.006-0.037,0.021-0.043l0.012,0.002h11.238
		c0.018,0,0.033-0.014,0.035-0.029v-3.59c0-0.021-0.018-0.033-0.035-0.033h-11.238c-0.016,0-0.033-0.014-0.033-0.025v-4.043
		c0-0.014,0.01-0.029,0.025-0.033h12.408c0.014,0.004,0.027-0.002,0.031-0.02c0-0.004,0-0.004,0-0.008v-3.855
		c0.002-0.018-0.01-0.033-0.023-0.033h-16.896c-0.016,0-0.029,0.012-0.029,0.027v19.838c0.002,0.016,0.014,0.029,0.029,0.033h16.951
		c0.018,0,0.033-0.018,0.033-0.033v-3.854c0-0.02-0.016-0.031-0.033-0.031H127.622z"/>
	<path d="M97.05,146.051c-1.102-0.457-2.531-0.65-4.354-0.65H81.423c-0.018,0-0.033,0.014-0.033,0.033v19.834
		c0.004,0.018,0.016,0.031,0.033,0.033h4.486c0.018,0,0.031-0.014,0.031-0.033v-6.068c0-0.018,0.014-0.029,0.027-0.033h6.719
		c2.611,0,4.551-0.521,5.852-1.631c1.305-1.047,1.959-2.807,1.959-5.225c0-1.762-0.264-3.133-0.846-4.111
		C99.095,147.176,98.163,146.406,97.05,146.051z M95.235,154.6c-0.592,0.523-1.5,0.717-2.797,0.717h-6.467
		c-0.016,0-0.029-0.018-0.031-0.029v-6.072c0.002-0.016,0.016-0.029,0.031-0.033h6.467c0.979,0,1.688,0.064,2.205,0.326
		c0.465,0.199,0.855,0.547,1.109,0.98c0.221,0.537,0.332,1.113,0.326,1.695C96.073,153.357,95.753,154.143,95.235,154.6z"/>
	<path d="M53.128,146.184c-1.689-0.783-3.898-1.174-6.498-1.174c-2.666,0-4.809,0.391-6.498,1.174
		c-1.623,0.676-2.957,1.9-3.77,3.457c-0.844,1.516-1.236,3.393-1.236,5.68c0,2.348,0.393,4.244,1.236,5.738
		c0.83,1.541,2.156,2.762,3.76,3.461c1.688,0.783,3.832,1.17,6.496,1.17s4.811-0.387,6.496-1.17
		c1.631-0.695,2.979-1.914,3.838-3.461c0.846-1.498,1.234-3.393,1.234-5.738c0-2.287-0.389-4.176-1.234-5.68
		C56.116,148.078,54.765,146.857,53.128,146.184z M52.792,158.922l0.008-0.006c-0.414,0.936-1.188,1.666-2.145,2.033
		c-0.979,0.457-2.34,0.721-4.027,0.721c-1.371,0.031-2.74-0.189-4.029-0.654c-0.939-0.43-1.697-1.17-2.152-2.1
		c-0.447-1.117-0.668-2.313-0.652-3.516c-0.018-1.229,0.205-2.449,0.652-3.592c0.424-0.934,1.193-1.658,2.146-2.025
		c0.98-0.457,2.287-0.719,4.031-0.719c1.391-0.037,2.777,0.182,4.088,0.654c0.932,0.412,1.67,1.156,2.08,2.09
		c0.455,1.117,0.674,2.316,0.654,3.521C53.472,156.561,53.249,157.781,52.792,158.922z"/>
	<path d="M183.509,161.258H171.55c-0.018,0-0.031-0.008-0.033-0.025v-0.008v-15.787c0.002-0.016-0.01-0.029-0.025-0.033h-0.01
		h-4.418c-0.018,0-0.035,0.016-0.035,0.033v19.838c0.004,0.014,0.018,0.029,0.035,0.031h16.445c0.014-0.002,0.027-0.018,0.029-0.031
		v-3.986C183.536,161.275,183.522,161.262,183.509,161.258z"/>
	<path d="M101.647,79.945L79.427,91.566c-0.018,0.01-0.027,0.025-0.021,0.043c0.004,0.01,0.012,0.018,0.021,0.023h98.074l5.34-2.791
		c0.023,0,0.041-0.018,0.045-0.037c0.002-0.021-0.016-0.041-0.035-0.043h-0.004l-81.182-8.816H101.647z"/>
	<path d="M109.337,37.539c23.426,0.008,42.41,18.994,42.414,42.42c0,0.719-0.018,1.43-0.051,2.141l3.266,0.354
		c0.045-0.826,0.066-1.654,0.066-2.494c-0.031-25.244-20.52-45.684-45.764-45.65c-19.447,0.025-36.748,12.35-43.123,30.721h3.482
		C75.853,48.492,91.669,37.541,109.337,37.539z"/>
	<path d="M109.337,122.381c-23.43,0.01-42.432-18.975-42.441-42.404c0-0.004,0-0.012,0-0.018c0-0.723,0.02-1.438,0.055-2.154
		l-3.266-0.352c-0.045,0.83-0.068,1.664-0.068,2.504c0.027,25.242,20.512,45.686,45.756,45.658
		c19.457-0.02,36.768-12.352,43.141-30.736h-3.475C142.819,111.416,127.007,122.371,109.337,122.381z"/>
	<path d="M116.989,79.949h0.018l22.223-11.592c0.018-0.004,0.027-0.025,0.02-0.041l0,0c-0.002-0.01-0.01-0.018-0.02-0.02H41.144
		l-5.338,2.789c-0.018,0.006-0.025,0.025-0.021,0.041c0.004,0.012,0.012,0.018,0.021,0.02L116.989,79.949z"/>
</g>
</svg>
