<?xml version="1.0" encoding="utf-8"?>
<!-- Generator: Adobe Illustrator 16.0.0, SVG Export Plug-In . SVG Version: 6.00 Build 0)  -->
<!DOCTYPE svg PUBLIC "-//W3C//DTD SVG 1.1//EN" "http://www.w3.org/Graphics/SVG/1.1/DTD/svg11.dtd">
<svg version="1.1" id="Layer_1" xmlns="http://www.w3.org/2000/svg" xmlns:xlink="http://www.w3.org/1999/xlink" x="0px" y="0px"
	 width="200px" height="200px" viewBox="0 0 200 200" enable-background="new 0 0 200 200" xml:space="preserve">
<g>
	<g>
		<path d="M49.754,93.358v1.797h2.967l5.771,10.832h7.104l5.77-10.858l2.968-0.028V93.33h-8.847v1.771h2.341l-4.082,7.702
			l-4.41-7.674l3.211-0.028v-1.796H49.754V93.358z M106.777,93.358v1.797h2.967l5.771,10.832h7.103l5.77-10.858l2.968-0.028V93.33
			h-8.846v1.771h2.341l-4.083,7.702l-4.41-7.674l3.213-0.028v-1.796h-12.793V93.358z M92.215,93.358v1.797h2.966v8.846h-3.104v1.986
			l3.104,0.027h14.755v-5.878h-1.933c-0.11,3.103-2.805,3.891-3.946,3.891c-1.035,0-3.077,0-3.077,0v-8.846l2.913-0.026v-1.797
			H92.215z M82.282,92.979c-5.011,0-9.093,2.994-9.093,6.668s4.082,6.668,9.093,6.668c5.006,0,9.089-2.994,9.089-6.668
			S87.316,92.979,82.282,92.979z M82.146,104.382c-1.771,0-3.213-2.123-3.213-4.735c0-2.614,1.441-4.737,3.213-4.737
			c1.769,0,3.21,2.123,3.21,4.737C85.355,102.259,83.914,104.382,82.146,104.382z M139.304,92.759c-5.008,0-9.091,3.05-9.091,6.778
			c0,3.755,4.083,6.777,9.091,6.777c5.009,0,9.091-3.049,9.091-6.777S144.338,92.759,139.304,92.759z M139.169,104.328
			c-1.77,0-3.215-2.151-3.215-4.818s1.445-4.817,3.215-4.817c1.768,0,3.21,2.15,3.21,4.817S140.937,104.328,139.169,104.328z"/>
	</g>
	<path d="M132.88,37.723v1.363c4.082,2.121,7.948,4.679,11.458,7.62l-9.363,9.362c3.513,2.775,6.669,5.963,9.42,9.473l9.335-9.337
		c2.885,3.567,5.39,7.458,7.458,11.568h1.742v-30.05H132.88z"/>
	<path d="M154.246,63.119l-6.996,6.45c5.689,8.792,9.011,19.271,9.011,30.54c0,31.029-25.15,56.179-56.179,56.179
		c-31.03,0-56.18-25.149-56.18-56.179s25.149-56.18,56.18-56.18c11.296,0,21.829,3.347,30.647,9.091l7.051-6.642
		c-10.724-7.566-23.736-11.976-37.78-11.976c-36.229,0-65.597,29.367-65.597,65.597c0,36.229,29.368,65.596,65.597,65.596
		c36.228,0,65.597-29.367,65.597-65.596C165.597,86.309,161.404,73.624,154.246,63.119z"/>
</g>
</svg>
