<?xml version="1.0" encoding="UTF-8"?>
<svg id="Layer_1" xmlns="http://www.w3.org/2000/svg" version="1.1" viewBox="0 0 142.618 150.382">
  <!-- Generator: Adobe Illustrator 29.5.1, SVG Export Plug-In . SVG Version: 2.1.0 Build 141)  -->
  <g>
    <path d="M44.494,89.574c-.396.143-.647-.144-.647-.396-.145-.647-.504-3.094-.647-3.738-.143-.396,0-.648.395-.756,1.653-.503,4.495-1.546,6.795-2.301.647-.253.756-.395,1.151-1.044.898-1.545,3.344-5.644,4.493-7.839.145-.252.145-.647,0-1.043l-.503-.898c-.145-.25-.647-.645-.898-.645-2.301-.649-5.393-1.402-6.94-1.654-.396-.145-.647-.145-1.043,0l-.252.142c2.193.756,4.1,1.404,6.545,2.303.251.143.395.252.503.502l.251.756c.145.252,0,.646-.143.898-1.044,2.048-2.841,4.638-4.243,6.436-.252.25-.504.503-.756.503-1.401.504-3.846,1.296-4.997,1.654-.252,0-.396,0-.502-.145-.756-.502-2.446-2.049-2.446-2.049,0,0-.144,1.654-.144,2.443v.252c.252.648.754,1.943,1.043,2.553,0,.145.144.251.144.504.252,1.151,1.043,4.386,1.043,4.386.143.504.395.648.755.504.504-.144,2.301-.647,3.092-.898.144,0,.251-.144.251-.144.504-.395,1.296-1.151,1.296-1.151,0,0-2.554.72-3.596.864Z"/>
    <path d="M48.484,79.687c.899-1.152,2.049-2.844,3.093-4.496l-7.443,6.184c1.15-.395,2.841-.897,3.848-1.293.251-.147.396-.288.503-.395Z"/>
    <path d="M48.737,55.022l-1.296.142c-.144,0-.144.145-.252.251l-.144,1.547c0,.144.144.144.144.144l1.295-.252c.144,0,.397-.144.397-.395.143-.396.251-.756,0-1.15.143-.181,0-.287-.144-.287Z"/>
    <path d="M35.757,74.795l2.049,2.301.648-4.1c-1.26.252-2.302.9-2.696,1.799Z"/>
    <path d="M101.553,74.293c-.756-1.402-4.89-6.941-10.032-12.332-.143-.252-.396-.397-.647-.504l-.899-.395s1.547,6.542,2.194,10.03c.144.505.252.899.647,1.151,2.303,2.301,3.849,3.99,4.998,5.896.503.754.898,1.795.898,2.695.396,5.143.145,12.332-.395,16.18-.143.755-.252,1.043-.9,1.546-4.996,3.991-13.122,11.038-16.717,14.524-.395.396-.503.505-.755.9-.504.646-.899,1.653-.899,1.653,0,0-.9-2.554-1.042-3.99-.145-.648-.145-.757,0-1.546.394-2.947,2.553-9.887,2.84-10.93v-.898c-.756,1.547-4.639,10.281-5.537,13.374-.145.646-.145.898,0,1.401.503,1.402,1.942,4.998,2.697,6.543,0,0,1.545-2.947,2.553-4.494.25-.393.503-.753.898-1.149,2.841-2.554,12.727-10.929,17.366-14.381.647-.504.754-.756,1.043-1.402,1.941-7.19,2.696-15.425,1.799-23.263.179.035.034-.359-.108-.611Z"/>
    <path d="M81.131,53.332c.144-.395.252-.757.252-1.043-.144-.899-.396-1.941-.648-2.84,0-.146-.144-.252-.252-.394l-1.402-.649c-.144-.142-.395-.142-.645-.142-3.346.647-6.94,1.293-9.638,1.938-.252,0-.396.147-.503.397l-.899,1.402c-.144.145,0,.252.145.252.646.143,2.192.397,2.696.504.25,0,.396,0,.646-.145,1.654-.754,4.495-1.797,6.544-2.553h.503l.899.252c.145,0,.252.143.396.252.251.504.503.898.648,1.295.144.252,0,.502-.145.899-.648,1.041-1.941,2.554-2.696,3.595-.144.254-.252.504-.144.756.503,1.653,1.547,5.142,2.049,6.794.144.252.144.396.396.504l.755.756s-1.293-5.789-1.546-7.443c0-.25,0-.502.144-.754.647-.791,1.798-2.588,2.445-3.631Z"/>
    <path d="M111.332,58.078c-.143-.396-.252-.646-.646-.898-3.738-2.842-10.534-6.796-14.635-8.487-.502-.252-1.149-.252-1.652,0-1.941.757-4.997,2.05-8.234,3.488,0,0,1.402.142,2.05.142h.756c1.042-.252,2.696-.646,4.098-1.041.646-.143,1.403,0,1.941.395,1.942,1.403,4.89,3.847,6.796,5.538.395.252.755.502,1.15.648,2.95,1.148,4.242,1.797,4.89,2.047.503.252.755.648.898,1.152.756,2.947,1.295,7.441,1.547,10.785,0,.648,0,1.148-.252,1.797-.754,2.301-2.948,6.291-4.099,8.091-.144.142-.252.252-.395.504-.397.396-1.151.898-1.655,1.295-.144.141-.144.25-.144.395,0,1.293-.252,3.738-.252,3.738,2.841-3.595,5.538-8.231,7.982-13.122.252-.396.252-.648.252-1.045.898-5.141.502-11.289-.397-15.422Z"/>
    <path d="M73.689,121.824c-.648-1.547-4.101-9.78-5.144-12.838-.397-1.148-.397-1.4-.251-2.693.755-7.695,3.596-20.062,3.991-21.718.143-.395.143-.503,0-.756-.144-.645-.503-2.839-.503-2.839-1.296,2.948-5.789,14.92-7.335,21.968-.252,1.295-.252,1.655,0,2.446,2.444,6.184,8.486,17.364,9.528,19.02l-.253-1.943c.072-.395-.034-.502-.034-.647Z"/>
    <path d="M68.295,122.22s-1.294-.898-1.653-1.15c-.36-.251-.505-.396-.757-.648-2.695-2.446-12.474-14.381-15.279-19.522-.503-.9-.647-1.295-.647-2.194,0-1.042.25-2.947.396-3.992.144-.645.251-1.149.899-1.652,1.653-1.545,4.241-4.1,5.645-5.537.647-.647.898-1.041,1.293-1.653,1.296-2.445,5.142-10.786,6.436-14.272.253-.649.253-.758.143-1.405-.251-1.796-1.653-6.544-1.653-6.544l-.143,1.547v.397c.143.646.502,3.344.502,4.746,0,.502,0,.647-.252,1.149-1.94,3.849-9.527,14.131-14.381,19.669-.503.648-.648,1.041-.899,1.797-.251,1.15-.503,3.846-.755,5.897-.144,1.149,0,1.545.647,2.696,2.948,4.891,12.728,16.322,16.072,19.02.252.145.396.397.647.505,1.15.647,4.241,2.191,4.241,2.191l-.503-.897v-.144Z"/>
    <path d="M53.877,53.475l6.185-1.942c.396-.143.647-.394.898-.647l3.201-5.646c.144-.142,0-.25-.145-.25h-2.84c-.252,0-.503,0-.756.143-2.444.756-5.896,2.303-7.837,3.344-.252.145-.396.252-.646.504l-2.949,3.595c-.144.145-.251.254-.396.254l-1.941.755c-.144,0-.144.144-.252.25l-.144.252s3.991-.145,5.394-.252c.971-.106,1.474-.25,2.229-.358Z"/>
    <path d="M65.204,40.099c7.693-.647,16.574-.395,18.769-.395.395,0,.647,0,.898.145l1.546.502c-3.848.252-13.232,1.043-17.079,1.654l1.295.252h.251c2.84-.145,8.342-.396,10.68-.396.646,0,.899,0,1.545.252,1.402.503,4.243,1.798,5.394,2.444.647.252,1.044.396,1.652.396,1.295,0,3.2.144,4.64.396.396,0,.755.143,1.15.397,2.949,1.401,6.436,3.595,8.881,5.141.144.144.252.144.502.144l1.151.252s-3.848-3.847-5.285-5.286c-.251-.142-.503-.395-.647-.504-5.646-3.199-10.787-5.895-13.628-7.082-.502-.252-.898-.252-1.399-.395-8.739-.648-17.871-.504-24.667.143-.503,0-.898.252-1.15.648-.252.395-.647,1.043-1.042,1.652-.145.252-.397.647-.648.898-1.294,1.041-3.2,2.842-4.639,3.74q-.145.142-.252.142c-.503.396-2.302,1.547-2.696,1.798q-.144.146-.251.253c-.145.145-.648.755-.648.755,5.394-3.092,12.225-6.796,14.634-7.839.251,0,.647,0,1.043-.107Z"/>
    <path d="M40,57.179q-.146.143-.252.252c-4.747,3.486-7.441,5.644-8.593,6.544-.395.395-.9.897-1.295,1.292-.396.397-.396.504-.396.756v.756q0,.145.144.252c.144.143.395.5.505.645h.142c.757-.502,1.655-1.293,2.554-1.939.144,0,.251-.145.251-.252.144-.252.396-.648.503-.898.145-.145.145-.252.253-.395.143-.147.755-.506.755-.506,0,0-.396,1.654-.647,2.303-.146.25-.252.395-.252.395-.756.754-1.941,2.191-2.554,2.947-.251.252-.145.647,0,.9.647.898,1.798,2.444,2.554,3.2.252.251.396.392.503.503.252.144.503.253.503.253,0,0,.647-2.951.898-3.849.145-.252.252-.504.648-.648,3.093-.755,9.889-1.941,9.889-1.941-.756-.899-3.093-3.345-3.848-3.993-.252-.143-.396-.25-.647-.25-.898-.145-3.739-.252-3.739-.252,0,0,.252-.252.395-.502.144-.145.251-.252.504-.396,3.487-1.293,8.233-2.949,10.93-4.098.647-.252.898-.395,1.401-.899.252-.252.647-.647.899-1.044l.143-.142v-.252s-1.15.899-1.653,1.15c-.396.252-.648.397-1.15.504-1.044.252-2.841.649-3.848.897-.252.147-.395.147-.647,0-.143,0-.503-.248-.647-.248q-.251-.145-.504,0c-.898.248-3.595.896-3.595.896,0,0,1.15-1.041,1.294-1.148q.144-.145.396-.254c.899-.395,2.05-.754,2.948-1.15.252-.143.252-.252.396-.395,0-.756.252-2.049.396-2.696,0-.252.144-.252.252-.396.503-.395,2.553-2.05,3.093-2.302l.143-.143.504-.648c-1.402.899-3.991,2.446-5.394,3.2-.504.396-.898.502-1.402,1.045l-.144.143c-.647.357-2.049,2.156-2.588,2.805Z"/>
  </g>
  <g>
    <path d="M37.841,30.463v-8.232c3.487-.252,7.084-.504,10.535-.754v1.4c-3.093.145-6.185.397-9.241.649v2.049c2.697-.25,5.394-.394,8.09-.646v1.4c-2.696.145-5.392.397-8.09.649v2.192c3.093-.251,6.185-.505,9.241-.647v1.403c-3.488.036-7.083.288-10.535.538Z"/>
    <path d="M23.425,32.009v-8.233c2.84-.396,5.536-.648,8.341-.9h1.15c.395.145.646.252.899.504.252.252.395.504.395.756s.144.502.144.897v1.045c0,.25,0,.647-.144.899-.144.252-.253.648-.395.898-.253.251-.504.505-.899.646-.396.143-.756.253-1.15.253-2.301.253-4.638.504-7.083.754v2.554c-.358-.216-.719-.072-1.258-.072ZM24.861,27.875c2.446-.25,4.999-.647,7.445-.898.395,0,.753-.397.753-.899v-1.402c0-.395-.396-.754-.753-.646-2.446.252-4.999.502-7.445.898v2.947Z"/>
    <path d="M98.353,29.816c-.504,0-.899-.143-1.295-.143-.395-.146-.755-.252-1.043-.505-.251-.251-.502-.505-.502-.897-.145-.252-.145-.646-.145-.898v-3.74c0-.396,0-.648.145-.898.143-.396.251-.648.502-.756.253-.145.504-.252,1.043-.395h1.295c1.798.143,3.738.25,5.536.395.504,0,.898.147,1.295.252.395.142.755.252,1.043.504.251.25.503.502.503.898.145.252.145.648.145,1.043v3.74c0,.395,0,.647-.145.897-.144.396-.252.648-.503.755-.252.146-.504.252-1.043.396h-1.295c-1.94-.396-3.738-.502-5.536-.647ZM97.455,22.877c-.396,0-.756.252-.756.756v3.992c0,.395.395.755.756.755h.791c1.798.142,3.595.25,5.536.395h.898c.397,0,.756-.253.756-.648v-3.989c0-.394-.396-.756-.756-.9-2.48.037-4.782-.215-7.226-.359Z"/>
    <path d="M114.425,31.219v-6.939c-1.654-.145-3.199-.396-4.89-.504v-1.404c3.738.397,7.336.756,11.038,1.297v1.4c-1.654-.252-3.199-.395-4.891-.646v6.939c-.359,0-.863,0-1.258-.144Z"/>
    <path d="M81.274,29.062v-8.232c3.488.143,7.083.25,10.536.395v1.4c-3.093-.143-6.186-.252-9.241-.395v2.051c2.697.143,5.393.143,8.09.25v1.402c-2.697-.144-5.392-.252-8.09-.252v2.193c3.093.145,6.185.251,9.241.396v1.402c-3.487-.361-6.94-.505-10.536-.611Z"/>
    <path d="M69.553,28.918c-.504,0-.898,0-1.294-.144-.396-.145-.755-.253-1.042-.395-.253-.254-.504-.505-.504-.755-.143-.252-.143-.648-.143-.9v-3.596c0-.756.251-1.402.647-1.795.395-.398,1.042-.504,2.049-.504h7.838v1.4h-8.341c-.395,0-.756.395-.756.754v3.992c0,.396.394.755.756.755h7.586v-2.193h-4.387v-1.401h5.787v4.891c-2.767-.109-5.5-.109-8.196-.109Z"/>
    <path d="M54.921,29.312h-1.295c-.397,0-.756-.144-1.042-.395-.252-.254-.505-.502-.505-.754-.142-.252-.142-.649-.142-.9v-5.896c.502,0,.896,0,1.401-.144v6.184c0,.397.396.756.755.756,2.301-.145,4.639-.252,6.939-.252.395,0,.754-.397.754-.756v-6.183h1.402v5.895c0,.396,0,.648-.144.9-.144.397-.251.648-.502.897-.253.254-.504.398-1.044.398-.396.145-.755.145-1.294.145-1.834-.038-3.632.105-5.285.105Z"/>
  </g>
  <path d="M131.143,14.788c-20.171-3.487-39.98-5.142-59.109-5.142s-38.938,1.654-59.108,5.142c-.253,8.089-.648,20.566-.144,31.101,1.294,23.659,6.435,41.887,16.322,57.706,9.889,15.678,25.061,29.16,42.786,37.142,17.726-7.981,33.042-21.464,42.786-37.142,9.888-15.674,15.028-34.047,16.323-57.706.754-10.534.503-23.012.144-31.101ZM128.95,45.746c-1.294,23.262-6.292,41.131-16.072,56.555-9.634,15.426-24.16,28.152-40.88,35.846-16.718-7.836-31.243-20.565-40.88-35.846-9.636-15.424-14.776-33.399-16.071-56.557-.396-7.586-.396-17.08,0-29.05,18.877-3.201,38.04-4.747,56.916-4.747s38.04,1.546,56.916,4.747c.466,11.97.466,21.464.071,29.052Z"/>
</svg>