<?xml version="1.0" encoding="utf-8"?>
<!-- Generator: Adobe Illustrator 16.0.0, SVG Export Plug-In . SVG Version: 6.00 Build 0)  -->
<!DOCTYPE svg PUBLIC "-//W3C//DTD SVG 1.1//EN" "http://www.w3.org/Graphics/SVG/1.1/DTD/svg11.dtd">
<svg version="1.1" id="Layer_1" xmlns="http://www.w3.org/2000/svg" xmlns:xlink="http://www.w3.org/1999/xlink" x="0px" y="0px"
	 width="192.333px" height="200px" viewBox="0 0 192.333 200" enable-background="new 0 0 192.333 200" xml:space="preserve">
<g>
	<path d="M69.529,59.254c15.925,0,24.384,20.732,24.384,20.732l1.839-6.221c0,0-7.163-17.97-23.937-17.97
		c-14.645,0-19.209,12.554-19.209,12.554S58.011,59.254,69.529,59.254"/>
	<path d="M65.046,114.893c-10.8,0-14.92-27.226-14.92-27.226h-2.674c0,1.762-0.884,33.559,16.449,33.559
		c5.676,0,7.979-3.872,7.979-7.133c0-5.163-2.492-8.798-2.492-8.798S72.221,114.893,65.046,114.893"/>
	<path d="M123.791,59.254c11.536,0,16.936,9.096,16.936,9.096s-4.573-12.554-19.192-12.554c-16.794,0-23.952,17.97-23.952,17.97
		l1.848,6.221C99.43,79.986,107.883,59.254,123.791,59.254"/>
	<path d="M143.214,87.667c0,0-4.104,27.234-14.925,27.234c-7.18,0-4.336-9.602-4.336-9.602s-2.488,3.63-2.488,8.796
		c0,3.258,2.29,7.13,7.966,7.13c17.332,0,16.453-31.797,16.453-33.559H143.214z"/>
	<path d="M121.773,86.947c0,0,1.374-4.005,4.299-4.005c5.045,0,4.389,8.735,2.163,16.037c-2.288,7.45-0.484,8.569,0.886,8.569
		c1.359,0,4.412-1.411,7.763-7.559c3.357-6.149,4.608-13.766,4.608-13.766h2.481c0-15.284-9.021-17.987-14.014-17.987
		c-15.881,0-21.775,22.18-21.775,22.18l3.167,2.234l-1.525,7.604l-5.968,2.425l-1.083,7.472l2.955-3.564l3.074-1.242l-0.964,4.793
		l-5.399,2.232l-1.861,12.905l1.307,4.103l-5.217,2.064l-5.216-2.064l1.307-4.103l-1.874-12.905l-5.386-2.232l-0.97-4.793
		l3.073,1.242l2.947,3.564l-1.083-7.472l-5.966-2.425l-1.511-7.604l3.167-2.234c0,0-5.891-22.18-21.796-22.18
		c-5.01,0-14.02,2.703-14.02,17.987h2.489c0,0,1.275,7.616,4.627,13.766c3.334,6.147,6.403,7.559,7.752,7.559
		c1.351,0,3.162-1.119,0.885-8.569c-2.226-7.302-2.885-16.037,2.183-16.037c2.884,0,4.28,4.005,4.28,4.005
		s-3.639,9.649,3.334,12.727l4.99,2.209c1.366,5.737,2.92,12.268,3.213,13.368c0.459,1.814,2.063,4.307,2.063,4.307l3.38,5.734
		l1.563,7.706c0.406,1.982,0.841,3.983,5.755,3.983h1.624c4.937,0,5.371-2.001,5.778-3.983l1.554-7.706l3.371-5.734
		c0,0,1.594-2.492,2.067-4.307c0.297-1.101,1.849-7.631,3.213-13.368l4.991-2.209C125.425,96.597,121.773,86.947,121.773,86.947
		 M77.701,97.91c-2.1-0.845-4.131-2.297-4.131-5.951c0-2.075,0.28-3.829,0.514-4.967l3.617,5.64l1.363,5.831L77.701,97.91z
		 M115.635,97.91l-1.38,0.553l1.392-5.831l3.601-5.64c0.26,1.132,0.517,2.892,0.517,4.967
		C119.764,95.613,117.742,97.065,115.635,97.91"/>
	<path d="M146.058,36.395c-3.729-0.271-27.898-1.997-49.388-1.997c-21.496,0-45.646,1.727-49.387,1.997
		c-4.722,0.347-12.17,3.31-12.17,14.802c0,9.699,1.103,45.07,2.06,60.129c1.014,15.721,6.045,23.838,15.045,29.942
		c4.118,2.804,16.06,9.324,26.976,15.124c7.09,3.796,13.738,7.264,17.477,9.211c3.751-1.947,10.386-5.415,17.482-9.211
		c10.911-5.8,22.825-12.32,26.978-15.124c9.002-6.104,14.019-14.222,15.034-29.942c0.957-15.059,2.054-50.442,2.054-60.129
		C158.218,39.704,150.779,36.741,146.058,36.395 M150.705,110.982c-0.932,14.329-5.262,20.771-12.658,25.797
		c-6.128,4.151-30.269,16.88-41.377,22.679c-11.105-5.799-35.257-18.527-41.381-22.679c-7.383-5.016-11.737-11.468-12.646-25.797
		c-0.966-14.978-2.072-50.127-2.072-59.786c0-7.873,4.399-9.161,7.115-9.358c3.699-0.275,27.678-1.993,48.984-1.993
		c21.302,0,45.29,1.718,48.98,1.993c2.712,0.197,7.108,1.485,7.108,9.358C152.769,60.855,151.659,96.005,150.705,110.982"/>
</g>
</svg>
