<?xml version="1.0" encoding="utf-8"?>
<!-- Generator: Adobe Illustrator 28.2.0, SVG Export Plug-In . SVG Version: 6.00 Build 0)  -->
<svg version="1.1" id="Calque_3" xmlns="http://www.w3.org/2000/svg" xmlns:xlink="http://www.w3.org/1999/xlink" x="0px" y="0px"
	 viewBox="0 0 300 145.7" style="enable-background:new 0 0 300 145.7;" xml:space="preserve">
<path id="path11" d="M134.3,93.6c0.9,0,6.1,0,10.3-0.3c5.1-0.4,7.7-2.1,9.7-4.6c2.4-3.1,2.4-8.9,2.4-13.5c0-5.1,0.1-19.7,0-21
	c0-1.3-0.5-2-2-2c-1.5,0-5.7,0-7.2,0l-2.6,0c-1.5,0-2,0.7-2,2v1.4c0,1.6,0,16.3,0,19.8v1.5c0,3.2-0.4,6.3-4.9,6.8
	c-1.9,0.2-2.8,0.3-5.3,0.3c-2.4,0-3.3-0.1-5.3-0.3c-4.5-0.5-4.8-3.6-4.8-6.8v-1.5c0-3.5,0-18.3,0-19.8v-1.4c0-1.3-0.5-2-2-2l-2.6,0
	c-1.5,0-5.7,0-7.2,0c-1.5,0-2,0.7-2,2c0,1.3,0,16,0,21c0,4.5,0,10.4,2.4,13.5c1.9,2.5,4.5,4.3,9.6,4.6c4.2,0.3,9.3,0.3,10.4,0.3
	H134.3L134.3,93.6z M42.5,91.7c0,1.4-0.4,2-1.9,2c-1.5,0-8.6,0-9.9,0c-1.3,0-2.1-0.4-2.1-1.8c0-1.4,0-36.4,0-37.7c0-1.3,0.6-2,2-1.9
	c1.4,0,8.4,0,10.3,0c1.4,0,1.7,0.8,1.7,2.3C42.6,56.5,42.5,90.2,42.5,91.7 M237.6,77.5c0,3.3,0.8,5.5,4.6,6.1
	c3,0.3,7.1,0.4,10.2,0.1c2.9-0.3,5.1-1.5,5.2-4.7c0.1-2.7,0.2-3.2,0.2-6.1c0-7-0.1-17.2,0-18.2l0-0.4c0-1.6,0.7-2.2,2-2.2l0.8,0
	c1.5,0,7.5,0,9,0c1.3,0,2,0.7,2,2.2l0,0.5c0,1.5,0,17,0,21.5c-0.1,2.3-0.2,7.6-2,11c-1.5,2.9-4.3,5.2-9,5.7
	c-9,0.9-17.2,0.5-23.6,0.3c-4.7-0.2-7.7-1.3-10.2-4.1c-2.8-3.2-3-8.7-3-15c-0.1-13.9-0.1-17.8-0.1-19.2v-0.8c0-1.6,0.7-2.2,2-2.2
	l0.8,0c1.5,0,7.8,0,9.2,0c1.3,0,2,0.7,2,2.2C237.5,55.8,237.5,73.5,237.6,77.5 M167.4,52.1c1.4,0,26.6,0,34.4,0
	c7,0.1,9.5,1.1,11.4,3.6c2.2,2.9,2.4,6.6,0.6,9.6c-1.3,2.2-3.6,4-7.1,5.8c-2.8,1.4-7.7,3.6-12.4,5.7c-6.4,2.8-12.2,5.3-13.1,5.8
	c-1.3,0.7-0.8,1.7,0.2,1.7c2.7,0,29.1-0.2,30.5-0.3c1.4,0,1.9,0.5,1.9,2c0,1.6,0,4.3,0,5.5c0,1.5-0.5,1.9-1.9,1.9
	c-1.6,0-29.7,0-31.7,0c-4.4,0-9,0-11.7-1.3c-3.4-1.7-4.6-5-4.6-7.3c0.2-5.7,3.3-7.5,9-10.1c6.3-2.9,25-11,26.1-11.5
	c1.4-0.6,1-1.9-0.3-1.9c-1,0-29.6,0.2-31,0.2c-1.4,0-2.3-0.2-2.3-1.6c0-1.4,0-4.8,0-6.2C165.5,52.5,166,52.2,167.4,52.1 M93.5,73.4
	c-6.3-2.6-24.8-8.5-27.2-9.7c-1.2-0.5-1.1-2,0.5-2c2.7,0,29.8,0.1,31.2,0.1c1.4,0,2-0.5,2-2.1c0-1.6,0-4.5,0-5.8
	c0-1.3-0.5-1.8-1.7-1.8c-1.2,0-32.4,0-32.4,0c-8.7,0-11,1.3-13.4,4.2c-3.2,3.9-2.2,9.1-0.3,11.8c2.1,3,5.5,4.4,11,6.3
	c6.6,2.2,22.2,7.6,22.2,7.6c1.4,0.6,1.3,2.1-0.4,2.1c0,0-29.8-0.3-31.2-0.3c-1.4,0-2.1,0.7-2.1,2.1c0,1.4,0,3.9,0,5.3
	c0,1.4,0.4,2.2,1.8,2.3c1.4,0,27,0,34.9-0.1c6,0,11.8-1.9,13-8.5C102,79.4,99.6,75.9,93.5,73.4"/>
</svg>
