<?xml version="1.0" encoding="utf-8"?>
<!-- Generator: Adobe Illustrator 16.0.0, SVG Export Plug-In . SVG Version: 6.00 Build 0)  -->
<!DOCTYPE svg PUBLIC "-//W3C//DTD SVG 1.1//EN" "http://www.w3.org/Graphics/SVG/1.1/DTD/svg11.dtd">
<svg version="1.1" id="Layer_1" xmlns="http://www.w3.org/2000/svg" xmlns:xlink="http://www.w3.org/1999/xlink" x="0px" y="0px"
	 width="290px" height="167.333px" viewBox="0 0 290 167.333" enable-background="new 0 0 290 167.333" xml:space="preserve">
<g>
	<path d="M161.455,108.416c3.142,1.888,7.397,2.837,12.811,2.837c6.271,0,11.083-1.118,14.421-3.303
		c3.333-2.229,6.198-5.905,8.556-11.004l-15.465-1.787c-0.98,1.549-1.911,2.608-2.76,3.214c-1.372,0.959-2.839,1.46-4.396,1.46
		c-2.435,0-4.428-1.099-5.956-3.338c-1.081-1.52-1.751-3.84-2.043-6.996h31.518v-2.185c0-6.714-0.897-12.164-2.672-16.341
		c-1.77-4.159-4.374-7.385-7.762-9.56c-3.407-2.226-8.004-3.32-13.888-3.32c-7.229,0-12.897,2.477-17.02,7.389
		c-4.109,4.894-6.166,11.355-6.166,19.305c0,5.563,1.04,10.421,3.087,14.553C155.754,103.499,158.336,106.513,161.455,108.416
		 M168.464,73.335c1.519-2.473,3.504-3.704,6.025-3.704c2.152,0,3.895,0.799,5.227,2.445c1.317,1.613,2.125,4.305,2.44,8.099H166.69
		C166.94,77.139,167.503,74.872,168.464,73.335"/>
	<path d="M238.634,58.093c-2.795,0-5.317,0.74-7.629,2.258c-1.674,1.099-3.536,3.237-5.578,6.408v-7.502h-14.709v73.995h15.871
		v-28.075c1.57,2.011,3.362,3.521,5.346,4.561c1.984,1.012,4.182,1.515,6.641,1.515c4.976,0,9.121-2.208,12.391-6.654
		c3.266-4.493,4.894-10.94,4.894-19.374c0-7.679-1.518-14.119-4.491-19.331C248.344,60.688,244.125,58.093,238.634,58.093
		 M238.283,93.904c-1.235,1.874-2.755,2.804-4.604,2.804c-2.059,0-3.824-0.975-5.156-2.918c-1.367-1.966-2.056-4.958-2.056-8.985
		c0-4.354,0.675-7.52,2.007-9.467c1.327-1.943,3.008-2.938,5.025-2.938c1.86,0,3.416,0.984,4.707,2.938
		c1.299,1.893,1.941,4.943,1.941,9.063C240.147,88.845,239.528,92.03,238.283,93.904"/>
	<path d="M72.099,106.989c3.475-2.888,5.773-6.439,6.924-10.637c1.128-4.183,1.732-10.279,1.732-18.292V36.084H63.222v47.11
		c0,4.278-0.459,7.306-1.398,9.135c-0.884,1.793-2.33,2.678-4.302,2.678c-1.248,0-2.16-0.301-2.854-0.908
		c-0.952-0.894-1.663-2.121-2.093-3.625c-0.385-1.505-0.62-3.8-0.638-6.896L34.803,82.95c0.332,5.422,1.736,13.444,3.451,17.13
		c1.713,3.676,4.123,6.497,7.266,8.399c3.155,1.915,7.565,2.868,13.285,2.868C64.213,111.347,68.637,109.916,72.099,106.989"/>
	<path d="M103.458,108.416c3.105,1.888,7.352,2.837,12.806,2.837c6.266,0,11.055-1.118,14.416-3.303
		c3.32-2.229,6.162-5.905,8.556-11.004l-15.506-1.787c-0.964,1.549-1.879,2.608-2.723,3.214c-1.399,0.959-2.863,1.46-4.406,1.46
		c-2.462,0-4.424-1.099-5.96-3.338c-1.072-1.52-1.761-3.84-2.039-6.996h31.514v-2.185c0-6.714-0.88-12.164-2.668-16.341
		c-1.764-4.159-4.368-7.385-7.779-9.56c-3.38-2.226-8.019-3.32-13.87-3.32c-7.233,0-12.91,2.477-17.037,7.389
		c-4.078,4.894-6.162,11.355-6.162,19.305c0,5.563,1.05,10.421,3.074,14.553C97.748,103.499,100.306,106.513,103.458,108.416
		 M110.477,73.335c1.488-2.473,3.452-3.704,5.963-3.704c2.168,0,3.91,0.799,5.247,2.445c1.313,1.613,2.134,4.305,2.444,8.099
		h-15.487C108.891,77.139,109.5,74.872,110.477,73.335"/>
</g>
</svg>
