<?xml version="1.0" encoding="UTF-8"?>
<svg id="Layer_1" xmlns="http://www.w3.org/2000/svg" version="1.1" viewBox="0 0 199.034 151.461">
  <!-- Generator: Adobe Illustrator 29.5.1, SVG Export Plug-In . SVG Version: 2.1.0 Build 141)  -->
  <path d="M36.257,135.038c-1.483.412-3.055.606-4.735.606-2.066,0-3.925-.414-5.58-1.269-1.631-.854-2.915-1.996-3.844-3.436-.917-1.438-1.374-3.036-1.374-4.772,0-1.956.533-3.676,1.572-5.122,1.064-1.476,2.445-2.602,4.205-3.379,1.726-.812,3.593-1.204,5.575-1.204,2.267,0,4.207.354,5.878,1.07,1.648.683,3.349,1.557,5.03,2.621v-9.108c-4.939-1.741-9.352-2.632-13.255-2.632-2.602,0-5.084.36-7.434,1.06-2.364.722-4.455,1.798-6.312,3.273-1.821,1.457-3.27,3.315-4.278,5.545-1.029,2.209-1.554,4.802-1.554,7.758,0,2.566.459,4.955,1.309,7.083.876,2.158,2.18,4.038,3.93,5.651,1.723,1.641,3.785,2.831,6.148,3.666,2.405.816,5.076,1.238,8.053,1.238,1.608,0,3.186-.102,4.682-.285,1.537-.203,3.009-.504,4.505-.962,1.482-.458,2.938-1.051,4.37-1.787v-8.738c-1.066.678-2.139,1.289-3.137,1.772-1.028.479-2.286.957-3.753,1.35"/>
  <polygon points="74.005 121.504 58.424 121.504 58.424 108.932 48.059 108.932 48.059 143.239 58.424 143.239 58.424 129.87 74.005 129.87 74.005 143.239 84.409 143.239 84.409 108.932 74.005 108.932 74.005 121.504"/>
  <polygon points="101.337 129.04 115.754 129.04 115.754 122.068 101.337 122.068 101.337 115.902 116.45 115.902 116.45 108.932 90.951 108.932 90.951 143.255 116.87 143.255 116.87 136.32 101.337 136.32 101.337 129.04"/>
  <path d="M148.704,130.435c-.706-.87-1.614-1.65-2.754-2.31.933-.475,1.776-.984,2.51-1.549.757-.526,1.471-1.417,2.124-2.608.67-1.181,1.005-2.673,1.005-4.378,0-1.484-.409-3.066-1.215-4.734-.812-1.624-2.101-3.047-3.93-4.213-1.814-1.118-4.153-1.71-7.006-1.71h-17.648v34.307h10.37v-13.369h1.169c1.2,0,2.158.138,2.912.428.768.306,1.552.966,2.325,1.976.815,1.034,1.705,2.674,2.695,4.889l2.715,6.077h11.122l-3.468-7.438c-1.227-2.689-2.219-4.481-2.928-5.366M139.637,122.929c-.936.534-2.692.816-5.235.816h-2.24v-8.199h2.206c2.333,0,4.064.316,5.095.931,1.046.633,1.58,1.728,1.58,3.269,0,1.591-.471,2.628-1.405,3.184"/>
  <polygon points="170.931 119.722 163.041 108.932 152.274 108.932 165.976 127.709 165.976 143.239 176.377 143.239 176.377 127.538 189.849 108.932 178.843 108.932 170.931 119.722"/>
  <path d="M99.178,61.627c-4.602,0-9.072-.138-13.461-.352l15.555-44.194,31.639,68.619h21.019l-10.33-16.762,1.289,1.93c26.4-5.637,44.104-15.968,44.104-27.815,0-14.786-27.747-27.295-65.597-31.083l.082.12c-3.18-.325-6.441-.585-9.781-.772l.274.305h-.022l4.547,6.049s9.533.835,17.406,1.858c21.426,3.538,36.47,10.084,38.621,17.729.146.512.194,1.03.194,1.564,0,6.644-9.5,12.629-24.646,16.748l.113.164c-3.949,1.075-8.292,2.006-12.936,2.825l-28.85-47.039h-14.012l-25.329,48.243c-5.748-.75-11.152-1.701-16.043-2.83l.123-.104c-17.831-4.113-29.375-10.546-29.584-17.794.186-8.728,17.048-16.254,41.6-19.934,8.678-1.117,20.132-2.064,20.132-2.064l4.857-6.029c-1.703-.02-3.36.114-4.979.244-3.015.159-6.023.389-8.921.652l.035-.065c-10.25.962-19.773,2.577-28.258,4.69-.158.046-.32.096-.491.104-.68.201-1.343.354-2.006.532-.584.168-1.139.333-1.745.488-.077.031-.163.074-.26.081-20.979,5.892-34.475,15.072-34.475,25.377s13.549,19.511,34.623,25.446l.062-.106c5.686,1.605,11.95,2.985,18.632,4.049l-6.97,13.304h21.671l3.934-11.129c5.85.432,11.937.687,18.184.687,6.667,0,13.215-.279,19.492-.78l-5.132-13.217c-3.564.148-10.633.26-14.36.26"/>
</svg>