<?xml version="1.0" encoding="utf-8"?>
<!-- Generator: Adobe Illustrator 16.0.0, SVG Export Plug-In . SVG Version: 6.00 Build 0)  -->
<!DOCTYPE svg PUBLIC "-//W3C//DTD SVG 1.1//EN" "http://www.w3.org/Graphics/SVG/1.1/DTD/svg11.dtd">
<svg version="1.1" id="Layer_1" xmlns="http://www.w3.org/2000/svg" xmlns:xlink="http://www.w3.org/1999/xlink" x="0px" y="0px"
	 width="248.5px" height="200px" viewBox="0 0 248.5 200" enable-background="new 0 0 248.5 200" xml:space="preserve">
<g>
	<path d="M168.9,48.501c-11.218-12.039-29.566-14.641-44.996-14.641c-15.562,0-34.47,2.602-45.493,15.346
		c-0.205,0.217-0.349,0.456-0.543,0.699c-5.408,6.439-8.745,15.685-8.745,28.067c0,38.194,31.156,44.298,54.781,44.298
		c23.823,0,54.974-6.104,54.974-44.298c0-12.383-3.328-21.628-8.771-28.067C169.697,49.438,169.286,48.969,168.9,48.501
		 M88.202,56.004c7.362-11.323,21.371-14.121,35.702-14.121c14.379,0,28.028,2.62,35.549,13.767
		c0.126,0.268,0.316,0.517,0.455,0.763c-12.734,7.464-27.242,7.731-36.004,26.443c-9.52-18.16-23.864-18.286-36.46-25.483
		C87.671,56.91,87.937,56.466,88.202,56.004 M123.904,114.249c-21.164,0.188-41.124-5.919-41.124-36.276
		c0-2.266,0-4.529,0.354-6.452c0.114-0.423,0.21-0.847,0.327-1.273c7.132,2.395,14.249,4.8,21.391,7.207
		c8.376,3.495,13.985,8.375,19.053,19.357c5.084-10.982,10.514-16.566,19.09-20.056c7.196-2.564,14.375-5.129,21.555-7.685
		c0.069,0.164,0.103,0.349,0.135,0.549c0.37,2.426,0.548,5.4,0.548,8.367C165.231,108.33,145.099,114.437,123.904,114.249"/>
	<g>
		<polygon points="127.435,144.087 138.752,134.704 114.971,134.704 114.971,144.087 		"/>
		<path d="M204.112,134.704h-21v8.499h16.655c4.841,0,4.075,3.155,4.075,3.155h-13.347c-1.647,0-6.864-0.246-9.402,3.805v-1.518
			c0-14.313-10.819-13.941-10.819-13.941h-28.219l-28.733,22.681V143.45c0-9.118-9.414-8.746-9.414-8.746H82.936v8.499h16.651
			c4.84,0,4.197,3.155,4.197,3.155H90.436c-1.646,0-6.735-0.246-9.28,3.679v-3.536c0-12.539-11.333-11.797-11.333-11.797H34.488
			v31.435h10.689v-22.052h7.5v22.04h10.178v-22.04h3.418c4.967,0,4.319,4.049,4.319,4.049v17.991h10.563v-4.181
			c2.545,4.181,7.635,4.181,7.635,4.181h29.239l28.853-23.18v23.064h22.638c4.325,0,8.386-2.158,10.309-7.99
			c1.143,7.99,9.14,8.117,9.14,8.117h24.543V143.45C213.511,134.332,204.112,134.704,204.112,134.704 M103.648,157.514H92.455
			c0,0-2.271,0.127-2.271-2.15c0-1.898,1.773-2.029,2.407-2.029h11.058V157.514z M166.6,156.88h-9.535v-13.298h9.658
			c0,0,4.563,0.373,4.563,6.206C171.285,155.617,169.15,156.88,166.6,156.88 M203.589,157.514h-11.177c0,0-2.294,0.127-2.294-2.15
			c0-1.898,1.902-2.029,2.535-2.029h10.936V157.514z"/>
		<polygon points="121.341,166.13 145.111,166.13 145.111,156.887 132.636,156.887 		"/>
	</g>
</g>
</svg>
