<?xml version="1.0" encoding="utf-8"?>
<!-- Generator: Adobe Illustrator 16.0.0, SVG Export Plug-In . SVG Version: 6.00 Build 0)  -->
<!DOCTYPE svg PUBLIC "-//W3C//DTD SVG 1.1//EN" "http://www.w3.org/Graphics/SVG/1.1/DTD/svg11.dtd">
<svg version="1.1" id="Layer_1" xmlns="http://www.w3.org/2000/svg" xmlns:xlink="http://www.w3.org/1999/xlink" x="0px" y="0px"
	 width="300px" height="169px" viewBox="0 0 300 169" enable-background="new 0 0 300 169" xml:space="preserve">
<g>
	<path d="M78.754,36.181c1.057,0.023,2.262-0.406,3.061-0.793c0.561-0.27,0.936-0.479,0.883-0.479
		c-0.723-0.018-1.924-0.027-2.361-0.027c-1.916,0-2.918,1.091-2.918,1.172c-0.027,0.056,0.24,0.097,0.666,0.104
		C78.266,36.181,78.48,36.181,78.754,36.181"/>
	<path d="M58.117,52.81c0.377,0.638,0.725,1.527,1.186,2.07c0.67,0.816,2.029,2.184,3.953,1.856c0.83-0.137,0.848-0.396,0.848-0.396
		c0.977,0.952,2.5,0.921,2.5,0.921c-0.174-0.611-0.855-1.788-0.953-2.518c-0.096-0.803,0.133-1.551,0.133-1.551
		c0.283-0.899,0.811-2.03,1.404-2.601c0.512-0.524,1.861-1.099,2.914-0.368c0.863,0.606,1.865,2.572,1.031,5.376
		c-0.055,0.197-0.984,2.204-1.975,2.496c0,0-0.1,0.035-0.283,0.035c-0.676,0-1.934-0.716-1.934-0.716s-0.031,0.183,0.137,0.927
		c0.109,0.396,0.283,0.847,0.393,1.212c0,0-0.26,0.424-0.393,0.675c-0.229,0.284-0.475,1.246,0.055,1.651
		c0,0,2.234,1.51,4.379,1.619c1.49,0.087,2.051-0.903,2.051-0.903c1.088-1.499,1.922-2.768,3.066-3.821
		c3.15-2.883,7.57-3.645,7.57-3.645c0.293-0.031,5.121-1.391,13.367,5.172c-2.363,0.165-5.168,0.749-7.297,1.118
		c-6.08,1.095-9.992,6.781-11.109,9.121c-2.961,6.079,3.074,8.168,3.074,8.168c0.045-0.059,5.76-0.497,8.51-6.53
		c0,0,1.016-2.705,3.684-1.839c1.77,0.58,17.244,5.975,20.729,6.882c0,0,10.371,2.682,14.293-2.062
		c6.213,2.048,12.066,3.028,27.391,1.063c2.691-0.365,4.771-0.265,4.771-0.265c3.588,0.265,6.863,2.668,7.834,4.25
		c4.045,6.417,9.15,19.187,26.926,17.654l8.045-0.726c4.895-0.292,8.871-0.505,12.943,1.634c1.752,0.921,2.742,1.249,5.715,4.09
		c4.09,3.891,7.865,8.086,12.879,5.811c1.779-0.82,3.775-3.985,3.775-3.985c-0.205-1.423-0.82-2.841-2.434-4.019
		c4.547,1.063,14.807,1.756,18.781-5.158c1.025-1.618,1.133-3.042,0.738-3.917c-1.096-2.408-4.105-1.633-4.105-1.633
		c-1.422,0.31-3.023,1.93-5.434,2.659c-5.17,1.51-9.33-0.252-9.33-0.252c-7.975-3.465-33.629-18.06-46.678-24.468
		c0,0-15.135-7.009-37.123-15.678c0,0-43.211-18.353-72.053-16.865c0,0-15.369,0.418-20.203,7.16c0,0-0.793,0.93-0.361,1.951
		c0,0,0.115,0.288-0.09,0.474c0,0-2.568,2.313-3.91,4.392c-0.459,0.717-0.896,1.934-0.008,2.852
		C57.52,52.185,57.93,52.535,58.117,52.81 M59.555,50.511c1.541-3.484,4.441-3.981,4.828-4.05c0.406-0.036,1.738-0.237,1.738-0.237
		c3.699-0.629,5.469-4.479,5.469-4.479c-2.5-0.032-3.727,0.146-3.727,0.146c-2.445,0.435-3.293,3.321-3.293,3.289
		c-2.066,0.501-2.025-1.306-1.656-1.834c0.324-0.506,1.547-2.637,9.545-4.483c0,0,3.934-1.182,12.363-0.811l-0.354,0.629
		c-0.738,1.423-3.695,4.319-8.602,3.252c0,0,0.059,2.166,5.354,2.918c0,0,4.813,0.862,12.92,7.361c0,0-3.881-7.694-10.477-9.682
		c0,0-0.824-0.151-0.424-0.688c0,0,4.074-3.749,9.313-3.914c0,0,17.756-1.715,27.607,11.813c0,0-2.965-5.738-5.223-8.236
		c0,0,10.303,2.904,26.174,8.405c0,0,10.809,3.794,17.709,6.521c9.357,3.657,32.713,12.728,47.645,20.847
		c2.641,1.432,29.607,15.423,29.607,15.423c7.451,3.353,12.629,1.342,12.629,1.342c1.678-0.653,4.703-3.001,6.061-1.665
		c0.674,0.688,0.771,1.601,0.455,2.508c-0.41,1.318-2.326,3.111-4.646,4.169c-2.49,1.077-7.59,1.369-10.539,0.886
		c-0.004,0-5.742-0.584-10.736-5.797c-1.596-1.642-3.543-3.512-5.336-5.368c-0.789-0.825-2.74-2.759-5.979-3.188
		c-3.355-0.464-11.598-0.684-14.672-1.697c-2.082-0.702-4.574-2.093-7.881-6.977c-1.602-2.357-2.742-2.991-4.914-4.374
		c0,0,1.662,1.336,2.617,2.979c1.35,2.436,2.068,4.205,2.803,5.478c0.73,1.305,1.574,2.439,2.848,3.457
		c1.555,1.276,2.549,1.495,4.24,1.778c1.637,0.27,7.146,0.224,11.861,0.151c4.652-0.083,6.723,1.422,8.252,2.709
		c1.408,1.18,3.834,4.587,5.33,6.061c1.76,1.746,3.064,3.565,6.594,5.336c1.209,0.611,3.203,2.106,3.105,3.57
		c-1.586,1.556-3.537,1.989-8.23,0.738c0.309,0.338,2.791,2.896,6.988,1.684c-1.279,1.054-2.531,1.495-3.824,1.428
		c-4.4-0.242-8.715-5.656-11.121-7.63c-1.857-1.519-2.061-1.897-5.182-4.073c-4.734-3.252-15.369-2.331-15.369-2.331l-7.826,0.411
		c-15.211,1.136-21.604-12.295-23.295-15.109c-0.566-0.962-1.092-1.737-1.598-2.394c-0.785-1.026-4.957-6.381-9.148-8.164
		c0,0,4.137,3.563,3.908,5.893c0,0-1.729-0.771-6.391-0.114c-20.012,2.827-26.824-2.156-26.824-2.156
		c0.912-4.037-1.889-8.119-1.889-8.119c1.551,0.476,11.398,3.813,20.766,1.906c0,0-15.229,0.101-25.9-8.378
		c0,0,6.627,8.287,5.059,13.715c0,0-1.096,5.773-12.684,3.456c-1.227-0.246-2.682-0.656-20.008-5.459
		c-4.076-1.203-5.48,0.739-6.221,1.898c-0.041,1.69-2.061,3.697-3.078,4.322c-5.355-0.962-3.221-5.915-3.221-5.915
		c-3.369,4.799,0.129,6.938,1.256,7.069c-0.648,0.355-1.273,0.564-1.816,0.762c0,0-4.404-2.595-1.938-6.854
		c3.42-5.956,6.908-7.868,13.279-8.433c2.787-0.274,5.1-0.461,6.873-0.225c4.629,0.621,7.549,3.233,14.453,3.923
		c-14.686-4.337-14.721-12.812-14.768-12.971c0-0.022-0.014-0.022-0.014-0.022c-0.811,2.79-0.369,5.13,0.361,7.15
		c-0.215-0.087-3.434-2.17-4.67-2.932c-5.273-3.211-9.455-3.759-9.455-3.759c-1.732-0.236-2.568-2.334-2.568-2.334
		c-0.027-0.114-0.121-0.219-0.162-0.315c-2.432-4.177-4.873-4.219-4.873-4.219c1.389,1.812,1.416,4.443,1.416,4.443
		c0.715,5.144-5.146,6.735-5.146,6.735c-3.578,4.528-3.406,4.629-4.182,4.752c-0.803,0.114-2.563-0.779-2.563-0.779
		c-0.283-0.421,0.127-0.858,0.127-0.858c0.68-0.537,1.219-1.058,1.219-1.058c3.789-3.871,4.25-5.751,3.771-8.245
		c-0.943-5.035-4.561-4.434-4.561-4.434c-1.701,0.083-2.463,1.582-2.463,1.582c-0.588,0.932-1.865,3.782-1.865,3.782
		c-0.779,1.691-1.596,2.061-2.002,2.129c-0.182,0.042-0.492,0.023-0.621,0.023c-1.227-0.047-2.129-1.149-2.129-1.149
		c-0.064-0.056-0.127-0.114-0.156-0.168C58.77,52.08,59.555,50.511,59.555,50.511 M65.383,45.139c0,0,0.146-0.476,0.182-0.588
		c0.076-0.093,0.502-1.311,1.596-1.425c0,0,0.629-0.045,1.615-0.045c0,0-0.484,1.528-2.377,1.866
		C66.398,44.947,65.674,45.139,65.383,45.139"/>
	<path d="M61.797,130.508c1.373-1.396,2.043-3.151,2.043-6.001v-8.939h-6.844v8.374c0,2.427-0.543,4.086-1.742,5.262
		c-1.58,1.557-4.197,2.198-8.068,2.198h-12.65v2.45h13.74C54.791,133.852,59.381,132.976,61.797,130.508"/>
	<path d="M214.004,129.965l3.369,3.887h7.672l-15.939-18.284h-6.727l-15.936,18.284h3.963l3.365-3.887H214.004z M203.863,118.235
		l8.098,9.35h-16.164L203.863,118.235z"/>
	<path d="M97.877,133.852h7.67l-15.943-18.284h-6.736l-15.916,18.284h3.963l3.334-3.873h20.281L97.877,133.852z M76.309,127.607
		l8.064-9.372l8.09,9.372H76.309z"/>
	<path d="M261.16,126.021c1.732-0.931,2.545-2.699,2.545-4.537c0-2.445-1.094-4-3.074-4.866c-1.787-0.785-3.984-1.05-8.346-1.05
		h-21.166v18.284h6.814v-6.335h8.961l10.248,6.335h8.322l-10.727-6.472C257.275,127.325,259.445,126.919,261.16,126.021
		 M237.934,125.218v-7.355h13.457c2.559,0,3.686,0.223,4.48,0.82c0.742,0.565,0.994,1.396,0.994,2.724v0.351
		c0,1.167-0.266,2.139-1.16,2.75c-0.857,0.583-2.047,0.711-4.232,0.711H237.934z"/>
	<path d="M149.617,115.567v9.122c0,2.354,0.248,4.218,1.436,5.755c1.961,2.555,5.52,4.009,15.393,4.009h0.123
		c9.916,0,13.48-1.454,15.406-4.009c1.203-1.537,1.469-3.401,1.469-5.778v-9.099h-6.834v8.857c0,2.294-0.305,3.758-1.189,4.989
		c-1.463,2.08-3.803,2.828-8.609,2.828h-0.588c-4.57,0-7.119-0.748-8.617-2.828c-0.869-1.231-1.166-2.622-1.166-4.989v-8.857
		H149.617z"/>
	<path d="M124.322,117.989h17.049v-2.422H122.18c-4.643,0-7.424,0.533-9.9,1.916c-2.336,1.295-4.174,3.712-4.174,7.183
		c0,3.699,1.678,6.408,5.371,7.867c2.201,0.885,5.129,1.318,8.826,1.318h19.783v-8.396h-6.816v5.956h-10.881
		c-3.545,0-5.598-0.511-7.111-1.665c-1.451-1.094-2.203-2.772-2.203-5.048c0-2.18,0.725-3.804,2.053-4.908
		C118.668,118.564,120.656,117.989,124.322,117.989"/>
</g>
</svg>
