<?xml version="1.0" encoding="UTF-8"?>
<svg id="Layer_1" xmlns="http://www.w3.org/2000/svg" version="1.1" viewBox="0 0 206.697 152.539">
  <!-- Generator: Adobe Illustrator 29.5.1, SVG Export Plug-In . SVG Version: 2.1.0 Build 141)  -->
  <path d="M169.713,53.755c0-23.962-30.051-43.388-67.116-43.388S35.484,29.793,35.484,53.755s30.047,43.388,67.113,43.388,67.116-19.428,67.116-43.388ZM102.597,15.502c21.633,0,39.173,6.274,39.173,14.021,0,5.772-9.747,10.733-23.667,12.884l-.01.021c-2.254-15.028-8.341-25.8-15.496-25.8s-13.243,10.771-15.497,25.8l-.009-.021c-13.923-2.15-23.667-7.112-23.667-12.884,0-7.747,17.539-14.021,39.173-14.021ZM111.896,43.151c-2.979.26-6.096.395-9.299.395h-.002c-3.204,0-6.319-.136-9.3-.395,1.488-9.633,5.091-16.431,9.302-16.431s7.812,6.798,9.299,16.431ZM98.264,92.704c-30.044-1.552-53.732-19.097-53.732-40.512,0-7.278,2.734-14.107,7.525-20.015l.057-.113c.363,9.889,14.503,18.252,34.073,21.306-.013.646-.019,1.292-.019,1.947,0,17.939,5.186,33.036,12.225,37.411l-.128-.024ZM102.597,79.225c-5.388,0-9.78-11.118-10.014-25.066,3.237.296,6.583.452,10.014.452s6.776-.156,10.016-.452c-.237,13.948-4.63,25.066-10.016,25.066ZM106.93,92.704l-.126.023c7.035-4.373,12.223-19.472,12.223-37.409,0-.655-.006-1.302-.018-1.947,19.571-3.055,33.708-11.417,34.069-21.306l.06.113c4.788,5.907,7.526,12.736,7.526,20.015,0,21.414-23.692,38.96-53.736,40.512h.002Z"/>
  <path d="M118.889,108.901c-8.886,0-16.094,7.207-16.094,16.096s7.208,16.097,16.094,16.097,16.103-7.205,16.103-16.097-7.208-16.096-16.103-16.096ZM118.889,135.192c-4.96,0-8.984-4.565-8.984-10.195s4.024-10.194,8.984-10.194,8.991,4.566,8.991,10.194-4.023,10.195-8.991,10.195Z"/>
  <polygon points="162.715 110.011 137.01 110.011 137.01 115.608 146.472 115.608 146.472 140.363 153.253 140.363 153.253 115.608 153.276 115.608 162.715 115.608 162.715 110.011"/>
  <path d="M181.354,110.011h-8.44l-12.523,30.352h7.919l2.604-6.822.006-.008h12.429l.005.008,2.6,6.822h7.924l-12.522-30.352ZM177.135,128.411h-4.268l4.237-11.108h.06l4.235,11.108h-4.265Z"/>
  <polygon points="11.991 115.608 21.454 115.608 21.454 140.363 28.235 140.363 28.235 115.608 28.26 115.608 37.695 115.608 37.695 110.011 11.991 110.011 11.991 115.608"/>
  <path d="M55.529,108.901c-8.89,0-16.097,7.207-16.097,16.096s7.207,16.097,16.097,16.097,16.097-7.205,16.097-16.097-7.208-16.096-16.097-16.096ZM55.529,135.192c-4.962,0-8.987-4.565-8.987-10.195s4.025-10.194,8.987-10.194,8.987,4.566,8.987,10.194-4.025,10.195-8.987,10.195Z"/>
  <polygon points="87.21 122.767 79.861 110.011 71.939 110.011 83.771 128.838 83.771 128.98 83.771 140.363 87.21 140.363 90.651 140.363 90.651 128.98 90.651 128.838 102.483 110.011 94.564 110.011 87.21 122.767"/>
</svg>