<?xml version="1.0" encoding="UTF-8"?>
<svg id="Layer_1" xmlns="http://www.w3.org/2000/svg" version="1.1" viewBox="0 0 143.254 149.843">
  <!-- Generator: Adobe Illustrator 29.5.1, SVG Export Plug-In . SVG Version: 2.1.0 Build 141)  -->
  <path d="M45.26,34.984c15.925,0,24.384,20.732,24.384,20.732l1.839-6.221s-7.163-17.97-23.936-17.97c-14.645,0-19.209,12.554-19.209,12.554,0,0,5.404-9.096,16.923-9.096"/>
  <path d="M40.776,90.623c-10.8,0-14.92-27.226-14.92-27.226h-2.674c0,1.762-.884,33.559,16.449,33.559,5.676,0,7.979-3.872,7.979-7.133,0-5.163-2.492-8.798-2.492-8.798,0,0,2.832,9.598-4.343,9.598"/>
  <path d="M99.521,34.984c11.536,0,16.935,9.096,16.935,9.096,0,0-4.573-12.554-19.192-12.554-16.794,0-23.952,17.97-23.952,17.97l1.848,6.221s8.453-20.732,24.361-20.732"/>
  <path d="M118.944,63.397s-4.104,27.234-14.925,27.234c-7.18,0-4.336-9.602-4.336-9.602,0,0-2.488,3.63-2.488,8.796,0,3.258,2.29,7.13,7.966,7.13,17.332,0,16.453-31.797,16.453-33.559h-2.67Z"/>
  <path d="M97.504,62.678s1.374-4.005,4.299-4.005c5.045,0,4.389,8.735,2.163,16.037-2.288,7.45-.484,8.569.886,8.569,1.359,0,4.412-1.411,7.763-7.559,3.357-6.149,4.608-13.766,4.608-13.766h2.481c0-15.284-9.021-17.987-14.014-17.987-15.881,0-21.775,22.18-21.775,22.18l3.167,2.234-1.525,7.603-5.968,2.425-1.083,7.472,2.955-3.565,3.074-1.242-.964,4.793-5.399,2.232-1.861,12.905,1.307,4.102-5.217,2.065-5.216-2.065,1.307-4.102-1.874-12.905-5.386-2.232-.97-4.793,3.073,1.242,2.947,3.565-1.083-7.472-5.966-2.425-1.511-7.603,3.167-2.234s-5.891-22.18-21.796-22.18c-5.01,0-14.02,2.703-14.02,17.987h2.489s1.275,7.616,4.627,13.766c3.334,6.147,6.403,7.559,7.752,7.559s3.162-1.119.885-8.569c-2.226-7.302-2.885-16.037,2.183-16.037,2.884,0,4.28,4.005,4.28,4.005,0,0-3.639,9.649,3.334,12.727l4.99,2.209c1.366,5.737,2.92,12.268,3.213,13.368.459,1.814,2.062,4.307,2.062,4.307l3.38,5.734,1.564,7.706c.406,1.983.841,3.983,5.755,3.983h1.624c4.937,0,5.371-2.001,5.778-3.983l1.554-7.706,3.371-5.734s1.594-2.492,2.067-4.307c.297-1.101,1.849-7.631,3.213-13.368l4.991-2.209c6.969-3.077,3.317-12.727,3.317-12.727M53.432,73.641c-2.1-.845-4.131-2.297-4.131-5.951,0-2.075.28-3.829.514-4.967l3.617,5.64,1.363,5.831-1.363-.553ZM91.365,73.641l-1.38.553,1.392-5.831,3.601-5.64c.26,1.132.517,2.892.517,4.967,0,3.654-2.022,5.106-4.129,5.951"/>
  <path d="M121.788,12.125c-3.73-.271-27.898-1.997-49.388-1.997s-45.646,1.727-49.387,1.997c-4.722.347-12.17,3.31-12.17,14.802,0,9.699,1.103,45.07,2.059,60.129,1.014,15.721,6.045,23.838,15.045,29.942,4.118,2.804,16.059,9.324,26.975,15.124,7.09,3.796,13.738,7.264,17.477,9.211,3.751-1.947,10.386-5.415,17.482-9.211,10.911-5.8,22.825-12.32,26.978-15.124,9.002-6.104,14.019-14.222,15.034-29.942.957-15.059,2.054-50.442,2.054-60.129,0-11.492-7.439-14.455-12.16-14.802M126.435,86.713c-.932,14.329-5.262,20.771-12.658,25.797-6.128,4.151-30.269,16.88-41.377,22.679-11.105-5.799-35.257-18.527-41.381-22.679-7.383-5.016-11.737-11.468-12.646-25.797-.966-14.978-2.072-50.127-2.072-59.786,0-7.873,4.399-9.161,7.115-9.358,3.699-.275,27.678-1.993,48.984-1.993s45.29,1.718,48.98,1.993c2.712.197,7.108,1.485,7.108,9.358.01,9.659-1.1,44.809-2.054,59.786"/>
</svg>