<?xml version="1.0" encoding="UTF-8"?>
<svg id="Layer_1" xmlns="http://www.w3.org/2000/svg" version="1.1" viewBox="0 0 158 158">
  <!-- Generator: Adobe Illustrator 29.5.1, SVG Export Plug-In . SVG Version: 2.1.0 Build 141)  -->
  <g id="Layer_11" data-name="Layer_1">
    <g id="Nissan_Badge">
      <path d="M90.553,83.669c-.112.028-.554.028-.748.028h-14.296v3.324h14.545c.111,0,.97,0,1.137-.027,2.964-.277,4.321-2.743,4.321-4.904,0-2.216-1.412-4.6-4.101-4.848-.525-.055-.97-.055-1.164-.055h-9.502c-.416,0-.886-.027-1.053-.083-.747-.194-1.025-.859-1.025-1.413,0-.499.278-1.164,1.053-1.386.221-.055.471-.083.997-.083h13.715v-3.27h-13.937c-.581,0-1.024.028-1.384.084-2.384.332-4.045,2.244-4.045,4.682,0,1.995,1.246,4.322,3.989,4.71.499.055,1.192.055,1.496.055h9.254c.166,0,.582,0,.665.028,1.054.139,1.413.915,1.413,1.607,0,.665-.415,1.386-1.33,1.552Z"/>
      <path d="M63.456,83.669c-.11.028-.553.028-.72.028h-14.323v3.324h14.546c.111,0,.97,0,1.135-.027,2.965-.277,4.323-2.743,4.323-4.904,0-2.216-1.413-4.6-4.101-4.848-.527-.055-.97-.055-1.164-.055h-9.504c-.415,0-.886-.027-1.052-.083-.749-.194-1.025-.859-1.025-1.413,0-.499.275-1.164,1.052-1.386.222-.055.471-.083.997-.083h13.715v-3.27h-13.936c-.582,0-1.025.028-1.385.084-2.383.332-4.045,2.244-4.045,4.682,0,1.995,1.246,4.322,3.989,4.71.499.055,1.192.055,1.496.055h9.253c.166,0,.582,0,.665.028,1.053.139,1.414.915,1.414,1.607,0,.665-.389,1.386-1.332,1.552h0Z"/>
      <rect x="37.359" y="70.841" width="3.602" height="16.262"/>
      <polygon points="29.408 87.103 29.408 70.841 25.807 70.841 25.807 82.976 13.809 70.841 9.183 70.841 9.183 87.103 12.784 87.103 12.784 74.914 24.864 87.103 29.408 87.103"/>
      <polygon points="145.242 70.841 145.242 82.976 133.246 70.841 128.619 70.841 128.619 87.103 132.221 87.103 132.221 74.914 144.272 87.103 148.816 87.103 148.816 70.841 145.242 70.841"/>
      <path d="M109.863,70.841l-10.139,16.262h4.377l1.8-2.908h11.831l1.801,2.908h4.349l-10.14-16.262h-3.878ZM115.875,81.119h-8.118l4.073-6.538,4.045,6.538Z"/>
      <path d="M29.215,61.616c7.258-21.195,27.261-35.435,49.813-35.435s42.582,14.24,49.812,35.435l.058.166h15.875v-1.912l-6.594-.775c-4.074-.471-4.931-2.272-6.04-4.543l-.277-.554c-9.531-20.281-30.282-33.413-52.833-33.413s-43.302,13.132-52.833,33.468l-.276.554c-1.109,2.272-1.967,4.072-6.041,4.544l-6.594.776v1.912h15.847l.084-.221Z"/>
      <path d="M128.897,96.191l-.058.166c-7.257,21.194-27.261,35.407-49.812,35.407s-42.582-14.24-49.813-35.434l-.056-.166h-15.848v1.912l6.594.776c4.073.471,4.931,2.272,6.04,4.544l.277.554c9.532,20.336,30.282,33.467,52.833,33.467s43.304-13.131,52.833-33.44l.278-.554c1.108-2.272,1.966-4.073,6.039-4.543l6.594-.776v-1.912h-15.902Z"/>
    </g>
  </g>
</svg>