<?xml version="1.0" encoding="utf-8"?>
<!-- Generator: Adobe Illustrator 28.2.0, SVG Export Plug-In . SVG Version: 6.00 Build 0)  -->
<svg version="1.1" id="Calque_2" xmlns="http://www.w3.org/2000/svg" xmlns:xlink="http://www.w3.org/1999/xlink" x="0px" y="0px"
	 viewBox="0 0 300 145.7" style="enable-background:new 0 0 300 145.7;" xml:space="preserve">
<style type="text/css">
	.st0{fill-rule:evenodd;clip-rule:evenodd;}
</style>
<g>
	<path class="st0" d="M229.2,61c3.4,0.2,5.8,2.6,6.2,5.8c0.2,1.7,0.2,4.3,0.2,6c0,2.1,0,3.7-0.2,5.4c-0.6,3.9-3.4,6.2-6.2,6.2h-4.9
		c-2.6,0-5.6-2.2-6.2-6.2c-0.2-1.7-0.2-3.4-0.2-5.2c0-1.9,0-4.5,0.2-6.2c0.4-3.2,3-5.6,6.4-5.8c0.7-0.2,1.3-0.2,2.2-0.2L229.2,61z
		 M227.4,50.1c3.6,0,6.9,0.2,9.7,0.6c7.9,0.9,14.2,7.1,15.5,14.8c0.2,1.3,0.6,4.3,0.6,7.3c0,3.2-0.4,6.2-0.6,7.3
		c-1.3,7.9-7.7,13.8-15.5,15c-2.8,0.2-6.2,0.6-9.7,0.6h-1.1c-3.7,0-6.9-0.4-9.9-0.6c-7.9-1.1-14-7.1-15.3-15
		c-0.2-1.1-0.6-4.1-0.6-7.3c0-3,0.4-6,0.6-7.3c1.3-7.7,7.5-13.8,15.3-14.8c3-0.4,6.2-0.6,9.7-0.6H227.4z M159.8,72.7
		c0-2.4,0.2-4.9,0.7-7.3c1.3-7.7,7.5-13.8,15.3-14.8c2.8-0.4,6.2-0.6,9.7-0.6c3.9,0,7.5,0.2,10.5,0.6c1.1,0.2,1.9,1.1,1.9,2.2v6.7
		c0,1.3-0.9,2.2-2.1,2.2c0,0-3.6-0.2-5.4-0.2c-2.2,0-4.1,0-6.2,0.2c-3.4,0.2-5.8,2.6-6.2,5.8c-0.2,1.7-0.4,3.4-0.4,5.1v0.2
		c0,1.7,0.2,3.4,0.4,5.1c0.4,3.2,2.6,5.6,6.2,6c1.9,0.2,4.1,0.4,6.2,0.4c1.9,0,5.4-0.2,5.4-0.2c1.1,0,2.1,0.9,2.1,2.2v6.7
		c0,1.1-0.7,2.1-1.9,2.2c-3,0-6.6,0.2-10.5,0.2c-3.6,0-6.9-0.4-9.7-0.6c-7.9-1.1-14-7.1-15.3-15c-0.6-2.2-0.7-4.7-0.7-7.1V72.7z
		 M154.8,83.8c1.3,0,2.2,1.1,2.2,2.2v6.7c0,1.3-0.9,2.2-2.2,2.2H128c-4.9,0-8.8-3.9-8.8-8.8c0,0,0,0,0,0V59.6c0-4.9,3.9-8.8,8.8-8.8
		c0,0,0,0,0,0h26.8c1.3,0,2.2,0.9,2.2,2.1v6.5c0,1.3-0.9,2.2-2.2,2.2h-16.5c-1.3,0-2.2,0.7-2.2,2.1v4.1l14-0.2
		c1.1,0,2.2,1.1,2.2,2.2v5.6c0,1.3-1.1,2.2-2.2,2.2h-14v3.7c0,1.3,0.9,2.2,2.2,2.2L154.8,83.8L154.8,83.8z M86.7,95
		c-3.9,0-7.3-2.6-8.4-6.2l-9.2-35.4v-0.6c0-1.1,0.9-2.1,2.2-2.1H85c1.1,0,2.1,0.7,2.2,1.7l7.1,29.6c0,0.4,0.4,0.7,0.9,0.7
		c0.4,0,0.7-0.4,0.7-0.7l7.3-29.6c0.2-0.9,1.1-1.7,2.1-1.7h7.7c1.3,0,2.2,0.9,2.2,2.1v0.6l-8.8,34.6c-0.9,3.9-4.1,6.9-8.6,6.9H86.7z
		 M49,50.8h13.3c1.3,0,2.2,0.9,2.2,2.1v39.9c0,1.3-0.9,2.2-2.2,2.2H49c-1.1,0-2.2-0.9-2.2-2.2V52.9C46.8,51.8,47.9,50.8,49,50.8z"/>
</g>
</svg>
