<?xml version="1.0" encoding="UTF-8"?>
<svg id="Layer_1" xmlns="http://www.w3.org/2000/svg" version="1.1" viewBox="0 0 158 150.476">
  <!-- Generator: Adobe Illustrator 29.5.1, SVG Export Plug-In . SVG Version: 2.1.0 Build 141)  -->
  <path d="M84.248,118.254c8.789-.955,17.238-4.254,24.28-9.471,2.42-1.789,6.696-5.932,8.694-8.387,5.045-6.238,8.535-13.621,10.238-21.629.627-2.952.663-3.506.667-9.296,0-5.368-.053-6.521-.527-8.94-2.799-14.58-11.545-26.815-24.492-34.22-4.545-2.604-10.396-4.663-16.032-5.656-3.754-.661-11.144-.794-14.734-.261-12.227,1.804-22.992,7.624-30.736,16.587-11.047,12.803-14.755,29.726-10.082,46.015,3.806,13.234,13.547,24.717,26.084,30.713,4.549,2.17,10.819,3.969,15.815,4.526,2.668.306,8.136.313,10.825.019M71.735,112.115c-14.968-2.528-27.959-12.912-33.344-26.647-2.076-5.293-2.87-9.143-3.059-14.756-.154-4.602.162-7.885,1.141-11.751,4.226-16.81,17.219-29.253,33.894-32.47,3.714-.722,3.972-.701,4.435.383,1.002,2.425,1.926,7.443,2.849,15.538.392.727-.091,6.337,1.515,5.655.32-.199.475-.771.606-2.17.979-10.101,2.558-18.478,3.701-19.651.299-.309.655-.306,2.806.044,8.906,1.438,17.03,5.652,23.627,12.262,3.461,3.465,5.639,6.404,7.716,10.402,3.749,7.242,5.311,13.996,5.012,21.785-.142,3.945-.52,6.364-1.51,10.031-4.189,15.348-16.886,27.389-32.499,30.803-1.51.34-3.278.683-3.912.768l-1.148.152-.395-.92c-1.149-2.744-2.613-10.845-3.226-17.835-.148-1.72-.316-3.327-.388-3.556-.127-.43-.933-.584-1.147-.219-.061.113-.413,2.661-.745,5.68-1.015,9.038-2.423,16.045-3.303,16.608-.392.241-.312.247-2.626-.138Z"/>
  <path d="M79.65,69.666l.066-12.486.9-.076c.817-.065.915-.145.981-.844l.066-.767-2.518-.073c-3.296-.102-3.349-.098-3.258.844.064.673.179.78.923.889l.845.119.066,5.64c.036,3.094-.032,5.571-.136,5.499-.11-.061-1.383-3.014-2.816-6.537l-2.621-6.428-3.163.066-3.167.066v.727c0,.664.073.733.913.799l.897.076-.053,11.398-.074,11.399h-2.157l-2.515-11.597c-3.028-14.039-2.848-13.326-3.312-13.502-.995-.383-1.137.03-3.324,10.035-2.202,10.101-2.818,12.103-4.209,13.577-.991,1.034-2.283,1.608-3.665,1.608h-1.231l.071-11.412.06-11.416.846-.119c.752-.108.844-.207.844-.848v-.727h-7.489l-.087.699c-.075.797.255,1.109,1.236,1.113l.665.004v22.705h-.576c-1.005,0-1.36.257-1.36.978,0,.373.088.729.185.791.092.066,3.106.039,6.692-.049l6.506-.148.734-3.625.745-3.625,1.989-.066c1.892-.076,1.991-.049,2.102.48.43,2.02.858,4.416.858,4.795,0,.32-.217.456-.784.509-.686.071-.787.164-.787.807v.726l5.807.065c5.022.053,5.826.01,6.064-.316.501-.679.115-1.294-.844-1.372l-.88-.071-.066-8.925c-.032-4.908.026-9.008.132-9.112.1-.104,1.861,3.968,3.902,9.048,5.048,12.517,4.478,11.335,5.266,11.237l.669-.073.062-12.486ZM56.275,72.19c-.009-.58,1.808-8.759,1.939-8.759.193,0,1.884,8.482,1.75,8.759-.051.093-.904.171-1.882.171-.993,0-1.808-.078-1.808-.171ZM90.898,82.017c2.077-.584,3.653-2.797,4.415-6.211.469-2.076.359-2.467-.614-2.467-.865,0-.882.014-1.464,2.317-.656,2.517-1.447,3.85-2.555,4.202-1.591.527-3.015-.176-3.803-1.899-.475-1.036-.527-1.611-.599-7.401-.127-8.896.404-12.152,2.117-13.04,2.244-1.163,4.152.458,4.821,4.103.294,1.591.488,1.896,1.145,1.77.404-.075.457-.44.582-3.823.081-2.068.09-3.877.037-4.047-.191-.547-1.253-.349-1.533.281l-.27.566-1.157-.718c-1.07-.663-1.328-.729-2.754-.632-1.253.078-1.773.25-2.587.818-2.825,1.994-4.8,7.19-4.8,12.645,0,6.305,2.499,11.953,5.92,13.459.89.382,1.885.412,3.098.076ZM118.103,81.676c.546-.65.203-1.201-.827-1.332l-.942-.123-2.727-12.561c-1.502-6.907-2.733-12.588-2.733-12.622,0-.035-.32-.062-.717-.062-.85,0-.688-.491-2.287,7.004-.616,2.851-1.742,8.077-2.494,11.597l-1.387,6.402-1.157.071-1.147.078.069-11.426.057-11.43.847-.119c.751-.108.844-.207.844-.848v-.727h-7.483v.727c0,.641.088.739.85.848l.831.119v22.706l-.831.122c-.758.102-.863.211-.92.908l-.085.786,5.764-.057,5.747-.065.079-.664c.057-.582-.04-.691-.679-.819-.408-.083-.725-.216-.722-.3,0-.082.261-1.349.551-2.805l.546-2.662,1.975-.066c1.888-.076,1.98-.049,2.1.48.426,2.037.853,4.426.853,4.805,0,.324-.168.459-.59.459-.349,0-.709.204-.841.468-.329.606-.32.634.123,1.085.533.533,6.894.56,7.335.023ZM107.302,71.824c.07-.303.474-2.312.914-4.469.44-2.16.861-3.924.969-3.924.105,0,.533,1.87.963,4.165.444,2.294.836,4.304.898,4.476.083.219-.379.289-1.865.289-1.933,0-1.989-.013-1.879-.537Z"/>
  <path d="M77.943,8.898c21.522.171,43.29,8.235,65.297,23.516l1.078.748.111,1.324c2.099,25.742-2.108,47.608-12.812,65.479-10.708,17.894-27.863,31.668-51.673,41.203l-1.032.412-1.036-.412c-25.804-10.312-42.675-25.069-52.741-43.208-10.041-18.108-13.238-39.478-11.733-63.091l.079-1.246.986-.77c20.744-16.366,41.918-24.123,63.477-23.955M138.96,36.246c-20.709-14.149-41.065-21.618-61.026-21.773-19.943-.158-39.627,6.978-59.041,22.012-1.255,22.09,1.807,41.997,11.116,58.764,9.322,16.802,24.969,30.557,48.894,40.323,22.11-9.042,38.021-21.898,47.937-38.458,9.894-16.537,13.883-36.863,12.121-60.867Z"/>
</svg>