<?xml version="1.0" encoding="UTF-8"?>
<svg id="Layer_1" xmlns="http://www.w3.org/2000/svg" version="1.1" viewBox="0 0 241.461 117.715">
  <!-- Generator: Adobe Illustrator 29.5.1, SVG Export Plug-In . SVG Version: 2.1.0 Build 141)  -->
  <path d="M137.725,82.528c3.142,1.888,7.398,2.837,12.811,2.837,6.27,0,11.083-1.118,14.421-3.303,3.333-2.229,6.198-5.905,8.556-11.004l-15.465-1.787c-.98,1.549-1.911,2.608-2.76,3.214-1.372.959-2.839,1.46-4.396,1.46-2.435,0-4.428-1.099-5.956-3.338-1.081-1.52-1.751-3.84-2.043-6.996h31.518v-2.185c0-6.714-.897-12.164-2.672-16.341-1.769-4.159-4.374-7.385-7.762-9.56-3.407-2.226-8.004-3.32-13.888-3.32-7.229,0-12.898,2.477-17.02,7.389-4.109,4.894-6.166,11.355-6.166,19.305,0,5.563,1.04,10.421,3.087,14.553,2.034,4.159,4.616,7.174,7.735,9.076M144.734,47.448c1.519-2.473,3.504-3.704,6.025-3.704,2.152,0,3.895.799,5.227,2.445,1.317,1.613,2.125,4.305,2.44,8.099h-15.466c.25-3.036.812-5.304,1.773-6.84"/>
  <path d="M214.903,32.206c-2.795,0-5.317.74-7.629,2.258-1.674,1.099-3.536,3.237-5.578,6.408v-7.502h-14.709v73.995h15.871v-28.075c1.57,2.011,3.362,3.521,5.346,4.561,1.984,1.012,4.182,1.515,6.641,1.515,4.976,0,9.121-2.208,12.391-6.654,3.266-4.493,4.894-10.94,4.894-19.374,0-7.679-1.518-14.119-4.491-19.331-3.024-5.205-7.243-7.8-12.734-7.8M214.553,68.016c-1.235,1.874-2.755,2.804-4.604,2.804-2.059,0-3.824-.975-5.156-2.918-1.367-1.966-2.056-4.958-2.056-8.985,0-4.354.675-7.519,2.007-9.467,1.327-1.943,3.008-2.938,5.025-2.938,1.86,0,3.416.984,4.707,2.938,1.299,1.893,1.941,4.943,1.941,9.062,0,4.445-.619,7.63-1.864,9.504"/>
  <path d="M48.368,81.101c3.475-2.888,5.773-6.439,6.924-10.637,1.128-4.183,1.732-10.279,1.732-18.292V10.197h-17.533v47.11c0,4.278-.459,7.306-1.398,9.135-.884,1.793-2.33,2.678-4.302,2.678-1.248,0-2.16-.301-2.854-.908-.952-.894-1.663-2.121-2.093-3.625-.385-1.505-.62-3.8-.638-6.895l-17.134-.629c.332,5.422,1.736,13.444,3.451,17.13,1.713,3.676,4.123,6.497,7.266,8.399,3.155,1.915,7.565,2.868,13.285,2.868,5.408,0,9.832-1.432,13.294-4.358"/>
  <path d="M79.728,82.528c3.105,1.888,7.352,2.837,12.806,2.837,6.266,0,11.055-1.118,14.416-3.303,3.32-2.229,6.162-5.905,8.556-11.004l-15.506-1.787c-.964,1.549-1.879,2.608-2.723,3.214-1.399.959-2.863,1.46-4.406,1.46-2.462,0-4.424-1.099-5.96-3.338-1.072-1.52-1.761-3.84-2.039-6.996h31.514v-2.185c0-6.714-.88-12.164-2.668-16.341-1.764-4.159-4.368-7.385-7.779-9.56-3.38-2.226-8.019-3.32-13.87-3.32-7.233,0-12.91,2.477-17.037,7.389-4.078,4.894-6.162,11.355-6.162,19.305,0,5.563,1.05,10.421,3.074,14.553,2.075,4.159,4.633,7.174,7.785,9.076M86.746,47.448c1.488-2.473,3.452-3.704,5.963-3.704,2.168,0,3.91.799,5.247,2.445,1.312,1.613,2.134,4.305,2.444,8.099h-15.487c.247-3.036.856-5.304,1.833-6.84"/>
</svg>