<?xml version="1.0" encoding="UTF-8"?>
<svg id="Layer_1" xmlns="http://www.w3.org/2000/svg" version="1.1" viewBox="0 0 254.697 91.891">
  <!-- Generator: Adobe Illustrator 29.5.1, SVG Export Plug-In . SVG Version: 2.1.0 Build 141)  -->
  <path d="M13.484,16.96c.237.126,2.1,1.07,2.755,1.42.641.352,3.3,1.677,3.3,1.677,0,0-.025.128-.03.253-.053.113-.228.996-.337,1.517-.12.554-.345,1.684-.405,1.95-.041.287-.083.654.251.804.347.163,2.017.97,2.72,1.283.718.312,3.459,1.566,3.459,1.566,0,0-.022.801.025,1.134.003.396.125,1.638.188,1.929.066.299.037.833.462,1.108.425.271,1.146.554,1.899.8.767.2,1.055.321,2.171.617,1.103.308,2.501.667,2.501.667,0,0,.128.762.365,1.669.203.893.404,1.942.654,2.487.251.522.5.629.8.788.297.129,1.621.38,2.138.467.496.113,1.592.288,2.371.396.757.092,2.458.255,2.458.255,0,0,.096.165.166.32.061.17.746,1.15,1.083,1.617.312.516.665,1.033,1.038,1.42.362.4.575.763.995.883.413.159,1.935.43,2.961.601.987.133,2.809.366,3.697.458.896.096,2.574.112,2.574.112,0,0,.146.663.342,1.225.233.585.379.935.929,1.634.537.717.913.816,1.471.953.592.093,2.004.213,2.513.213.533.024,3.125.051,3.621.051.506,0,2.361-.051,2.361-.051,0,0,.079.301.18.533.1.238.591,1.166.792,1.43.22.346.399.616.883,1.045.471.413.839.588,1.366.65.537.08,1.575-.05,2.487-.15.904-.087,2.399-.404,3.054-.558.642-.142,2.296-.55,2.296-.55,0,0,.337.666.691,1.157.37.53.708.901.954,1.121.27.191.458.384,1.533.441,1.075.076,2.25-.282,3.296-.524,1.042-.241,2.562-.745,2.562-.745,0,0,.017.186.137.641.147.417.603,1.617,1.128,2.933.518,1.306.956,2.195,1.538,3.278.556,1.076,1.163,2.125,1.988,3.25.816,1.109,1.782,2.288,2.392,2.967.592.68,3.165,3.225,3.92,3.879.767.667,2.688,2.062,3.517,2.662.837.555,2.249,1.413,3.073,1.867.83.454,2.846,1.441,3.793,1.858.854.411,2.175.92,2.175.92,0,0,.261.558.441.959.149.396.956,1.929,1.074,2.128.066.172.392.218.619.172.193-.051,1.389-.518,1.773-.671.404-.184,1.514-.584,1.514-.584,0,0,.586.908.861,1.301.25.35.883,1.275.973,1.445.11.153.386.153.526.103.139-.066.863-.521,1.379-.791.486-.249,1.701-.904,1.701-.904,0,0,.62.751.786.971.205.228,1.192,1.379,1.331,1.55.124.179.349.226.519.12.166-.07,1.07-.795,1.421-1.049.35-.241,1.395-1.013,1.395-1.013,0,0,.842.871,1.144,1.166.35.338,1.197,1.122,1.398,1.217.202.101.346-.024.346-.024,0,0,.177-.15.258-.255.101-.112.825-.778,1.126-1.091.287-.279,1.116-1.075,1.116-1.075,0,0,.222.204.445.346.233.143.954.73,1.396,1.042.407.33.791.616.995.692.174.086.314.102.412.012.07-.059.963-1.092,1.221-1.445.337-.467.975-1.209.975-1.209,0,0,1.093.609,1.359.778.262.13,1.55.859,1.688.889.149.059.391.124.508-.013.108-.092.764-1.066.987-1.413.231-.382.897-1.35.897-1.35,0,0,.985.4,1.42.584.444.153,1.632.612,1.874.695.241.07.467.021.597-.155.096-.156.569-1.083.832-1.636.267-.621.767-1.564.767-1.564,0,0,1.251-.486,2.321-.975,1.065-.509,3.57-1.833,4.934-2.669,1.344-.835,3.106-2.113,4.088-2.888.963-.792,2.784-2.404,3.201-2.821.424-.445,1.107-1.175,1.558-1.654.504-.483,2.472-2.945,2.958-3.67.416-.583,1.733-2.758,1.995-3.254.284-.551,1.097-2.229,1.255-2.642.175-.407.783-2.212.783-2.212,0,0,.491.226,1.055.396.578.18,1.262.362,1.811.454.56.088.987.121,1.246.088.279-.046.816-.413,1.133-.645.321-.243.726-.713.96-.997.241-.341.578-1.024.578-1.024,0,0,.371.138.679.221.271.1,1.57.463,2.088.613.495.121,1.682.392,2.215.475.55.05,1.172.209,1.839.126.629-.085,1.024-.571,1.362-.867.282-.237.703-.884.891-1.251.196-.328.463-1.102.463-1.102,0,0,.394.19.8.308.376.117,1.75.392,2.434.467.684.1,2.111.195,2.778.208.642.018,1.342-.037,1.866-.108.554-.055.667-.238.963-.521.274-.246.503-.634.654-.963.175-.304.454-1.018.591-1.466.112-.417.321-1.168.321-1.168,0,0,.684-.02,1.091,0,.46.013,1.705.026,2.343.026.646,0,3.031-.067,3.411-.08.38-.02.967-.058,1.6-.183.604-.113.801-.358,1.013-.567.213-.216.458-.565.662-1.033.184-.499.363-1.133.412-1.399.06-.25.234-1.282.234-1.282,0,0,.338.096.753.141.53.047,1.334.137,2.051.191.754.037,2.232.037,2.733.037s1.532-.037,1.741-.111c.212-.07.674-.367.953-.629.267-.226.815-.867,1.138-1.317.283-.449.737-1.312.901-1.72.149-.413.516-1.746.516-1.746,0,0,.467-.013.954-.051.491-.045,1.892-.198,2.616-.266.759-.101,1.512-.267,2.116-.4.593-.133.829-.333,1.188-.629.338-.284.65-.913.779-1.271.126-.371.283-1.2.32-1.688.059-.474.097-1.541.097-1.541,0,0,.296,0,.666-.021.346-.037,1.188-.175,1.788-.301.62-.099,1.833-.483,2.157-.649.339-.154.855-.45,1.093-.721.234-.332.59-.962.712-1.45.149-.541.149-1.183.184-1.737.016-.538-.055-1.434-.055-1.434,0,0,1.153-.292,1.767-.457.653-.159,2.078-.771,2.44-.921.371-.153,1.355-.733,1.422-.771.087-.047.05-.772.05-1.083,0-.297-.255-1.305-.438-1.814-.16-.467-.642-1.603-.642-1.603,0,0,1.62-.684,2.25-.929.633-.259,2.554-1.233,2.728-1.359.179-.083.311-.165.471-.35.146-.175.533-.861.604-1.003.062-.134-.046-.238-.263-.464-.196-.262-.759-1.008-1.305-1.658-.579-.632-1.938-1.925-2.095-2.003-.142-.138-.508-.138-1.396-.054-.771.054-5.441.416-7.6.641-2.156.247-6.495.417-7.738.454-1.302.046-5.431-.145-7.41-.246-1.961-.099-11.768-.683-13.997-.674-2.221.042-13.07.538-14.883.652-1.791.089-8.04.355-9.973.381-2.916.032-5.691-.292-6.888-.434-1.186-.134-5.403-.558-7.182-.6-1.775-.03-2.941.108-4.362.208-1.454.107-3.987.505-5.645.857-1.626.356-3.567.942-3.567.942,0,0-2.658-1.196-3.899-1.692-1.271-.49-4.533-1.49-7.407-2.125-2.867-.629-7.02-.963-9.954-.963s-5.878.334-8.647.784c-2.754.413-6.37,1.421-7.758,1.9-1.362.467-4.066,1.516-4.066,1.516,0,0-1.617-.508-3.05-.715-1.404-.247-7.725-.659-9.717-.659-2.003,0-12.11.449-14.244.521-2.116.061-8.523-.26-10.862-.409-2.34-.124-11.764-.471-13.806-.454-2.036.029-10.457.167-11.92.245-1.475.097-8.05.484-8.944.484h-6.612c-1.565,0-5.532-.18-6.428-.297-.892-.091-4.258-.449-4.575-.474-.299-.03-.687.041-1.016.371-.316.337-.684.77-1.184,1.309-.491.544-2.208,2.57-2.208,2.57,0,0,.07.225.175.629.1.407.208.703.462.861M25.772,24.838c-.289-.124-2.163-.957-2.684-1.191-.528-.253-1.433-.604-1.605-.841-.162-.208-.08-.525-.08-.792,0-.275,0-.612-.311-.867-.299-.254-.674-.533-.674-.533l.124-.599s1.659-.009,2.176.024c.515.018,3.566.133,4.636.133,1.051,0,4.371.108,5.191.072.8-.051,5.296.065,6.25.065.98,0,5.682.021,6.645.021.967.034,6.342.042,7.183.042s5.254,0,6.279.034c1.028.004,5.478-.034,6.471-.034,1.004,0,3.566.038,4.128.034.57-.034,1.004-.055,1.125-.097.107-.029.478-.204.683-.096.231.116.32.346.413.484.107.099.295.282.408.35.118.092.354.191.5.407q.143.206.371.371c.226.188.287.268.2.362-.079.108-.429.524-.571.775-.146.229-.195.454-.274.537-.101.067-.588.13-.588.13,0,0,.287-.237.249-.433-.045-.176-.388-.642-1.083-.689-.725-.045-2.47.101-3.267.196-.787.092-6.023.537-6.936.616-.93.096-8.154.604-9.396.716-1.237.098-6.97.435-8.057.501-1.1.092-5.416.299-6.722.375-1.345.1-4.402.233-5.586.283-1.161.05-3.458.104-3.912.05-.408-.021-.991-.271-1.287-.409M98.864,52.756c.05.167.128.333.029.376-.181.066-.534.32-.636.363-.115.057-.395.041-.564-.21-.079-.153-.512-.196-.826-.462-.344-.221-.308-.404-.295-.679.012-.259.167-1.237.092-1.479-.092-.188-.287-.616-.287-.616,0,0,.49-1.166.604-1.389.14-.203.279-.557.279-.557,0,0,.116.599.254.895.122.271.4.592.5.912.079.226.562,1.483.633,1.688.1.184.247.505.192.686-.062.181-.05.326.025.471M93.693,40.147c-.267-.468-.43-.496-.646-.564-.238-.062-.312.021-.65-.142-.362-.188-.521-.546-.75-.592-.225-.033-.188-.066-.375,0-.27.138-.441.033-.441.033,0,0,1.079-.987,1.601-1.524.509-.522,1.528-1.517,1.996-1.942.42-.47,1.219-1.232,1.219-1.232,0,0,.176.279.547.296.379.032.75.075,1.02.088.292.041.76.041.908-.101.145-.153.338-.2.338-.2,0,0-.216.301-.495.667-.309.387-1.088,1.483-1.524,2.145-.442.689-1.434,2.154-1.597,2.426-.183.287-.55.861-.67,1.062-.108.124-.263.333-.263.333,0,0,.033-.329-.217-.753M93.131,27.56s-.833.654-1.125.92c-.275.291-.767.733-.875.806-.116.053-.532-.159-.809-.31-.27-.108-.874-.279-1.104-.304-.237-.028-.408-.028-.408-.028,0,0,.603-.518,1.008-.86.405-.315,1.185-.819,1.515-1.107.397-.23.673-.417.765-.466.125-.013.246.058.334.137.066.08.304.08.375.233.042.205,0,.387.042.495.078.126.237.084.282.177.028.111,0,.308,0,.308M93.152,28.346c.274-.22.824-.649.824-.649,0,0,.259.03.225.191-.054.13.146.168.238.168.124,0,.408-.076.486-.05.101.05.214.12.214.278,0,.188,0,.333.092.347.062.013.227-.014.245.065.009.074.022.166.022.166,0,0-.922.947-1.318,1.269-.386.387-.994,1.012-1.064,1.111-.076.107-.134.178-.134.178,0,0-.15-.365-.476-.66-.312-.279-.458-.384-.75-.451-.333-.108-.625-.108-.625-.108,0,0,.713-.655,1.062-.963.341-.328.696-.675.959-.893M91.015,25.247c-.138.213-.208.396-.567.747-.404.386-.712.557-.95.77-.254.216-.62.521-.824.555-.191.045-.5-.134-.666-.18-.15-.03-.646-.217-.779-.296-.116-.079-.304-.146-.459-.134-.141.017-.578.117-.578.117v-.329s1.004-.546,1.347-.747c.319-.2,1.391-.703,1.819-.974.487-.237.976-.417,1.242-.404.258.033.486.12.524.241.037.13.008.429-.108.634M89.357,23.198c-.18.095-1.221.683-1.613.861-.383.171-1.261.596-1.524.633-.274.009-.558-.062-.824-.153-.237-.066-.358-.108-.484-.126-.12-.008-.42,0-.42,0,0,0,.033-.087.033-.17,0-.088.036-.205.036-.205,0,0,.864-.47,1.61-.795.754-.3,2.232-.85,2.549-.912.321-.072.653-.2.838-.072.179.105.335.196.287.317-.055.137-.3.529-.487.622M89.04,20.489c-.083.054-.101.117-.284.292-.178.232-.354.433-.552.524-.197.066-.686.196-1.265.356-.561.12-1.429.42-1.75.485-.299.112-.391.192-.883.112-.491-.112-.646-.162-.857-.204-.208-.041-.229,0-.347.042-.105.05-.149,0-.149,0v-.225c0-.091.006-.17.006-.17,0,0,.898-.397,1.544-.622.686-.203,1.866-.483,2.421-.616.533-.092.942-.271,1.128-.184.228.05.492.05.642.05l.288-.041s.133.154.059.2M83.404,23.651c.307.125.603.262.635.45.064.209-.041.491-.182.642-.088.184-.117.329-.146.454-.05.137-.05.399-.05.399,0,0-.169.146-.387.18l-.321.087s.006-.221-.134-.396c-.158-.159-.562-.321-.835-.242-.286.083-1.352.517-1.773.692-.407.179-1.575.721-1.96.883-.41.166-.677.308-1.09.264-.406-.085-.766-.101-1.07-.264-.311-.147-.733-.355-.864-.399-.155-.029-.435-.092-.435-.092,0,0,.046-.267.191-.392.138-.125.524-.2.725-.321.196-.083.825-.288,1.454-.524.643-.234,1.851-.58,2.338-.713.527-.175,1.611-.5,1.884-.629.304-.1.642-.337.92-.312.285,0,.8.137,1.102.233M77.359,29.15l1.386-.671c.471-.229,2.282-1.05,2.855-1.32.552-.267,1.453-.701,1.663-.767.186-.097.397-.233.627-.275.227-.009.749.142,1.05.179.3.076.715.131.8.271.113.196.157.592.113.685-.051.124-.163.499-.15.636.017.168.061.547.061.547l-.42.196c-.217.14-.488.236-.488.236,0,0-.066-.236-.267-.388-.175-.163-.5-.249-.774-.163-.163.061-1.241.659-1.656.922-.372.258-1.398.879-1.535.963-.184.108-.33.317-.826.279-.49-.042-.715-.104-.966-.223-.241-.127-.74-.478-.88-.574-.133-.1-.645-.221-.645-.366,0-.149.052-.167.052-.167M81.97,31.264c.604-.368,2.069-1.172,2.649-1.509.57-.308,1.121-.742,1.434-.788.286-.037,1.021-.021,1.404-.021.399,0,.645,0,.679.188.037.2-.033.367-.059.55-.025.146,0,.625,0,.625l-2.837,2.226c-.45.351-1.554,1.311-1.604,1.332-.083.017-.454-.27-.88-.441-.433-.184-.679-.203-.887-.238-.163-.022-.433-.169-.726-.299-.258-.108-.36-.166-.561-.212-.188-.029-.598.137-.598.137l-.041-.262s1.404-.904,2.025-1.287M84.573,33.992c.501-.459,1.988-1.667,2.395-1.991.392-.326,1.409-1.105,1.55-1.21.145-.133.292-.145.471-.145.188,0,.629-.129.821-.129.2,0,.558-.025.601.242.007.27.149.77.133.975-.021.194,0,.42.062.528.075.138.126.217.126.217,0,0-.164.176-.435.449-.287.258-1.142,1.08-1.509,1.439-.387.366-1.149,1.1-1.429,1.383-.287.304-.712.726-.712.726,0,0-.104-.43-.371-.655-.237-.216-.862-.341-1.203-.341-.385-.013-.839-.38-1.035-.421-.182-.046-.378.059-.378.059,0,0-.226.079-.3-.104,0,.017.729-.612,1.212-1.021M88.89,35.196c.371-.38,1.633-1.555,1.941-1.857.292-.289.53-.598.846-.755.358-.104.755-.321.917-.25.188.066.316.3.412.554.07.276.321.629.77.797.467.132.746.182.968.161.22-.012.337-.029.337-.029,0,0-.492.472-.733.721-.217.246-.959.963-1.375,1.347-.438.399-1.541,1.524-1.842,1.8-.324.304-.75.679-.75.679,0,0-.013-.312-.236-.522-.334-.3-.714-.258-1.076-.236-.362.007-.587-.088-.811-.275-.21-.172-.381-.362-.499-.379-.119-.018-.385.115-.432.149-.07.051-.366.051-.366.051l1.929-1.954ZM96.406,32.676l.107-.172s.559-.674,1.026-1.179l1.15-1.225c.224-.233.331-.408.331-.408,0,0-.309.746-.375,1.055-.07.32-.157.953-.157,1.249,0,.267-.109.555-.18.917-.052.328-.052.649-.052.649,0,0-.228.163-.395.225-.17.079-.358.226-.358.226,0,0-.041-.512-.245-.783-.188-.25-.279-.316-.449-.408-.147-.1-.404-.145-.404-.145M94.589,43.095c.108,0,.658-.05,1.097-.137.432-.07,1.111-.229,1.295-.191.149.066.149.191.175.337.013.138.026,1.545.033,2.008.024.475.024,1.475-.068,1.825-.089.387-1.181,2.471-1.435,3.083-.236.559-.941,1.842-1.039,2.084-.108.267-.169.315-.249.411-.088.088-.267-.229-.533-.541-.358-.441-.733-.375-1.117-.283-.374.092-2.511.68-2.866.744-.384.08-1.028.255-1.387.209-.347-.074-.509-.291-.668-.587-.186-.287-.369-.458-.604-.458-.262,0-.454-.066-.454-.066,0,0,1.972-2.097,2.408-2.551.441-.448,2.829-3.015,3.353-3.596.509-.557,1.371-1.592,1.579-1.862.204-.273.371-.429.479-.429M97.505,40.97c-.146.309-.267.496-.279.625l-.058.371s-.258.184-.371.233l-.346.075v-.309c0-.113-.217-.371-.334-.616-.133-.209-.254-.482-.107-.934.126-.429.346-.953.491-1.341.176-.346.296-.73.558-1.338.267-.624.467-1.107.789-1.542.311-.478.453-.716.582-.903.146-.192.32-.247.32-.247,0,0,.142.223.259.385.128.158.316.342.278.478-.045.138-.624,1.312-.772,1.633-.118.321-.543,1.691-.625,2.109-.127.416-.255,1.017-.386,1.319M98.789,28.967c-.392.451-1.669,1.824-2.175,2.434-.505.617-.913,1.103-1.079,1.255-.229.233-.395.496-.395.496h-.15s.171-.267.142-.567c-.05-.25-.283-.704-.517-.824-.223-.113-.301-.159-.467-.113-.137.054-.283.113-.403.146-.12.038-.217.041-.217.041,0,0,.582-.649.864-.916.255-.282.964-.924,1.218-1.162.233-.254.472-.417.567-.417.1,0,.516.163.804.059.279-.149.783-.638.83-1.004.016-.387-.163-.742-.404-.925-.238-.184-.609-.329-.834-.309-.233.025-.528.074-.763.204-.179.066-.333.104-.333.104,0,0,.009-.184.034-.454.041-.288-.102-.556-.248-.755-.132-.258-.464-.449-.823-.509-.35-.032-.518.06-.646-.032-.145-.088-.037-.305-.154-.588-.112-.263-.292-.638-.607-.758-.374-.129-.659-.195-.839-.195-.158,0-.158-.113-.158-.317,0-.291-.079-.874-.254-1.017-.149-.15-.533-.417-.759-.463-.236-.041-.392-.083-.392-.212,0-.113.155-.404.155-.666,0-.264-.054-.642-.375-.858-.292-.221-.638-.313-.793-.551-.121-.204-.35-.436-.411-.458-.066-.017-.336-.017-.543,0-.193.022-.679.108-1.024.162-.332.064-.519.151-.7.092-.171-.061-.57-.19-.828-.19s-.9.032-1.312.083c-.445.046-.88.087-1.226.079-.354-.033-.576-.13-.862-.251-.288-.134-.387-.178-.523-.27-.172-.096-.252-.192-.252-.192,0,0,.026-.138.049-.237.031-.112.106-.251.106-.251,0,0,1.283-.049,2.23-.083.928-.016,2.106,0,2.729.108.631.07,1.668.138,2.06.113.387-.009.984-.066,1.945-.043.95.043,2.667.117,3.792.255,1.117.184,2.149.404,3.08.733.936.306,2.63,1.017,3.164,1.671.543.642.93,1.154.889,1.98-.084.841-.422,1.679-.672,2.203-.274.512-.909,1.612-1.028,1.8-.108.221-1.092,1.116-1.491,1.57M82.278,21.289c.191.137.383.388.325.508-.067.147-.134.233-.246.371-.091.146-.055.212-.091.342-.025.149-.025.388-.025.388,0,0-.502.171-.58.171-.1,0-.212.041-.212.041,0,0,.112-.354.029-.403-.104-.063-.458-.326-.822-.33-.362-.045-1.415.234-1.741.337-.35.13-1.643.485-2.125.647-.495.141-.944.365-1.337.333-.391-.047-.737-.217-1.096-.388-.321-.145-.408-.23-.528-.283-.105-.079-.367-.217-.367-.217,0,0,.291-.426.408-.492.079-.055.822-.3,1.121-.386.299-.102,1.679-.426,2.316-.556.613-.158,1.83-.358,2.379-.512.55-.149,1.074-.346,1.271-.346.153,0,.417.083.604.225.178.125.529.4.717.55M81.438,19.027c-.102.12-.235.445-.293.632-.096.209-.034.434-.154.446-.104.05-.637.108-.637.108,0,0,.087-.233-.06-.346-.162-.087-.524-.233-.835-.209-.318,0-1.876.168-2.376.209-.481.055-1.897.237-2.167.287-.292.038-.576,0-.782-.099-.218-.076-.98-.397-1.198-.542-.196-.175-.307-.238-.394-.258l-.33-.064.155-.404c.066-.13.175-.329.175-.329h3.999c.896.018,3.517.018,3.772.018.299,0,.657.133.798.141l.272.029s.146.316.055.38M30.324,30.518c-.852-.204-2.137-.575-2.354-.784-.224-.22-.328-.448-.391-.703-.058-.26-.483-.816-.687-.904-.205-.12-.718-.399-.718-.399v-.475s.784,0,1.179-.051c.417-.083,2.039-.083,3.123-.126,1.099-.054,5.327-.233,6.655-.312,1.392-.088,7.431-.392,8.559-.475,1.12-.092,9.104-.635,10.236-.739,1.113-.09,7.707-.623,8.719-.712,1.042-.095,4.514-.425,5.722-.527,1.25-.08,1.399-.251,1.625-.272.194-.024.332-.138.541.098.206.236.603.665.85.841.259.17,1.009.666,1.037.903,0,.237-.203.566-.347.796-.099.217-.099.688-.099.688l-.783.155s.078-.2.081-.309c0-.101-.119-.445-.444-.555-.323-.157-.874-.208-1.429-.111-.526.111-2.987.532-4.012.699-.987.166-6.799,1.15-8.216,1.353-1.408.235-7.008,1.101-8.336,1.272-1.325.225-6.483.866-8.282,1.028-1.817.196-3.996.404-5.197.476-1.22.067-2.461.176-3.328.091-.903-.112-2.85-.715-3.704-.944M38.795,37.022c-.971-.134-2.062-.367-2.445-.434-.384-.043-.729-.133-.917-.571-.153-.454-.121-.788-.417-1.096-.27-.312-.625-.633-.857-.737-.231-.083-.579-.066-.633-.175-.069-.222-.064-.492-.064-.492,0,0,.334.046.696,0,.358-.022.667-.191,1.087-.229.425-.021,1.699-.065,2.412-.101.7-.022,2.772-.228,3.508-.299.717-.058,4.149-.396,5.28-.554,1.119-.142,7.236-1.009,8.269-1.175.996-.13,6.125-.901,7.508-1.146,1.412-.241,6.091-1.083,7.278-1.304,1.217-.229,2.675-.458,3.208-.574.542-.129.899-.355,1.208-.292.301.092.602.316.975.503.362.167.955.363,1.258.473.324.111.617.282.655.395.028.121,0,.597-.144.816-.119.229-.211.417-.265.654-.047.279-.066.476-.066.476l-.738.279s.116-.347,0-.509c-.12-.139-.52-.449-.733-.421-.233.009-.549.05-.888.158-.354.124-4.791,1.467-5.497,1.658l-5.276,1.462c-.677.205-4.845,1.226-6.001,1.463-1.21.263-5.577,1.133-6.664,1.338-1.074.204-5.175.728-6.235.786-1.056.08-1.234.11-2.068.06-.833-.025-2.415-.242-3.433-.412M54.076,42.754c-.591.058-2.907-.15-3.841-.275-.95-.124-3.627-.546-3.996-.626-.37-.137-.595-.271-.8-.533-.211-.253-.392-.42-.75-.629-.375-.157-.804-.408-1.101-.508-.28-.116-.414-.167-.624-.259-.199-.062-.397-.086-.515-.178-.121-.067-.159-.226-.159-.226,0,0,3-.311,3.662-.425.68-.087,5.277-.733,6.381-.954,1.101-.246,5.848-1.271,6.698-1.496.857-.17,6.044-1.546,7.09-1.812,1.029-.283,4.504-1.271,5.445-1.566.954-.287,3.724-1.112,4.026-1.249.311-.147.632-.366.948-.33.3.022,1.199.313,1.529.409.329.104,1.171.237,1.335.396.139.142.231.279.18.491-.041.238-.015,1.479,0,1.571.022.162.335.407.335.407l-.782.306c-.172.073-.53.212-.53.212,0,0,.086-.362.028-.467-.045-.079-.508-.346-.616-.379-.166-.025-.285,0-.633.116-.358.096-1.238.518-1.68.717-.454.194-3.069,1.233-3.841,1.516-.814.334-3.978,1.572-5.019,1.913-1.021.358-5.642,1.954-6.504,2.217-.848.258-3.884,1.103-4.608,1.308-.721.184-1.061.309-1.658.334M62.803,46.882c-.953.034-2.855-.038-3.456-.059-.592-.022-1.45-.065-1.894-.203-.468-.218-.533-.441-.815-.755-.271-.346-.809-.667-1.063-.733-.248-.112-.641-.125-.788-.078-.073.012-.114-.371-.114-.371,0,0,.978-.216,1.254-.38.262-.1,1.837-.565,2.32-.716.492-.147,2.249-.609,3-.858.716-.241,4.174-1.416,4.844-1.662.68-.217,4.801-1.754,5.597-2.079.817-.321,5.369-2.167,6.037-2.425.645-.279,1.316-.546,1.517-.688.246-.171.982-.534,1.332-.607.347-.092,1.039-.209,1.351-.188.317,0,.546-.022.68.124.12.18.166.358.153.616-.021.233.071.834.346,1.067.288.212.713.429,1.191.529.467.124.917.188,1.083.194.168.026.284,0,.284,0,0,0-.923.576-1.171.684l-1.2.601s-.107-.251-.195-.309c-.12-.032-.577-.032-.935-.007-.344.049-.71.169-1.049.344-.326.213-3.484,1.897-4.104,2.217-.622.325-5.451,2.837-6.105,3.143-.671.304-3.783,1.816-4.279,2.065-.5.213-.804.388-1.283.453-.467.042-1.558.067-2.535.08M72.975,50.003c-.921.17-2.833.487-3.237.503-.375.034-.912.034-1.228-.324-.328-.333-.506-.857-.95-1.079-.441-.207-.725-.351-1.013-.316-.592.097-.633-.126-.633-.126,0,0,3.771-1.902,4.316-2.119.583-.255,6.204-3.129,6.912-3.538.737-.399,4.861-2.638,5.731-3.116.897-.503,2.135-1.157,2.316-1.307.188-.11.35-.314.584-.381.267-.086.417-.112.417-.112,0,0,.365.468.537.696.212.23.647.68,1.149.746.501.066.737.074,1.051.054.291-.017.846-.142.846-.142,0,0-1.371,1.292-1.601,1.48-.249.22-3.245,2.666-3.833,3.194-.6.518-2.778,2.233-3.266,2.601-.491.4-2.062,1.579-2.4,1.75-.353.188-1.228.516-1.756.648-.544.155-3.044.692-3.943.889M86.219,51.106c-.166.125-.658.038-.953-.141-.362-.23-.706-.05-1.176.058-.453.121-1.271.371-1.823.495-.467.131-1.792.421-2.135.421-.334,0-.727-.041-.941-.249-.203-.259-.683-.774-.929-.888-.242-.109-.537-.167-.679-.109-.138.092-.665.413-.751.172,0,0,2.039-1.496,2.476-1.866.452-.346,2.293-1.796,2.771-2.197.51-.399,2.67-2.153,3.316-2.686.671-.532,2.632-2.215,3.149-2.67.524-.476,1.529-1.441,1.529-1.441,0,0,.071.383.249.562.175.101.41.433.858.633.413.15,1.013.184,1.426.171.441-.02.843-.058,1.004-.058.184,0,.454.07.454.365.012.255.045.472.045.597,0,.146.038.262.038.262l-3.017,3.347c-.587.658-2.278,2.482-2.824,3.037-.548.562-1.938,2.053-2.088,2.186M109.45,75.612l-.421.708-.381-.178s.269-.227.177-.442c-.112-.192-.229-.409-.551-.559-.291-.166-1.645-.716-2.245-1.021-.592-.267-3.152-1.667-4.087-2.254-.93-.625-3.191-2.184-4.287-3.045-1.041-.871-3.362-3.134-4.141-3.996-.768-.85-2.384-2.962-2.858-3.732-.512-.737-1.9-3.274-2.208-3.954-.275-.671-.441-1.1-.731-1.371-.273-.271-.357-.329-.477-.329-.119-.029-.399-.037-.399-.037,0,0-.089-.217-.234-.667-.117-.345-.228-.684-.228-.684,0,0,.625.775.996.763.403-.025.55-.129.719-.157.151-.064.522-.079.663.011.15.067.358.339.354.584-.017.246.108.788.304,1.172.204.454,1.064,2.195,1.547,2.995.499.808,1.929,2.85,2.528,3.569.62.722,2.628,2.941,3.149,3.417.529.433,3.199,2.646,4.15,3.291.95.646,3.229,2.133,4.608,2.817,1.362.674,3.065,1.458,3.52,1.666.446.157.73.199.825.329.074.138.225.262.225.262l-.517.842ZM110.288,74.112c-.038.101-.171.083-.209,0-.066-.092.171-.354.171-.658,0-.342-.171-.799-.362-.979-.173-.188-.712-.438-1.013-.58-.312-.138-1.745-.816-2.475-1.19-.733-.38-2.198-1.226-3.146-1.863-.945-.603-2.221-1.47-3.066-2.116-.797-.679-1.972-1.699-2.684-2.399-.733-.708-1.915-2.038-2.684-3.025-.757-.985-1.735-2.312-2.244-3.249-.542-.954-1.086-2.1-1.267-2.3-.18-.18-.439-.5-.814-.646-.378-.1-.595-.195-.762-.2-.171,0-.467,0-.492-.15-.024-.116,0-.203,0-.203,0,0,.567-.034.993-.217.455-.184,1.685-.529,2.174-.663.488-.121,1.064-.388,1.312-.441.237-.075.416-.143.57-.121.146.038.229.121.398.342.156.233.368.733.571.904.235.196.56.488,1.022.433.468-.054.941-.104,1.33-.249.358-.162,1.074-.625,1.25-.733.146-.071.379-.241.462-.166.088.086.188.241.324.274.11.034.264.175.329.305.063.116,1.093,1.599,1.638,2.274.546.666,1.362,1.595,1.934,2.125.562.524,2.17,1.945,2.804,2.399.662.453,2.529,1.708,3.36,2.153.848.429,1.866.987,2.673,1.33.82.337,1.694.686,1.916.795.254.125.334.23.483.388.179.111.279.279.188.454-.044.158-.925,1.503-1.291,2.199-.388.688-1.067,1.804-1.38,2.306-.255.485-.999,1.678-1.187,2.082-.229.387-.801,1.288-.829,1.387M115.216,75.774c-.149.384-.616,1.513-.774,1.833-.138.284-.249.575-.249.575l-.613.196s.175-.267.067-.403c-.109-.15-.41-.459-.598-.468-.182-.028-.42.029-.644.1-.258.097-.579.097-.68-.1-.124-.232-.454-.816-.474-.966-.034-.167-.134-.38.02-.67.158-.318,1.226-2.3,1.45-2.676.245-.351,1.482-2.441,1.77-2.954.263-.508.962-1.68,1.09-1.941.136-.264.219-.451.127-.676-.111-.195-.111-.3-.216-.362-.122-.042-.321-.066-.321-.066l.629-1.059s.362.096.684.096c.35,0,.712-.013,1.099.096.397.121.941.416.996.634.097.233-.104.624-.331,1.162-.231.484-1.294,3.333-1.564,3.933-.241.597-1.312,3.351-1.467,3.716M120.302,76.06c-.086.444-.406,1.916-.519,2.239-.084.343-.301.947-.319.992-.049.071-.506.35-.631.38-.115.036-.272.115-.272.115,0,0,.184-.24.113-.424-.066-.154-.253-.338-.492-.338-.25,0-.543.184-.736.12-.189-.049-.493-.178-.726-.72-.237-.533-.25-.63-.164-1.046.08-.43,1.083-2.828,1.31-3.416.216-.575,1.149-2.958,1.358-3.525.239-.566.559-1.329.524-1.569-.016-.214-.196-.608-.295-.713-.122-.117-.272-.2-.351-.167-.083.013-.145-.046-.145-.046l.328-.889s.497.06.721.06c.23,0,.625-.06,1.051.066.471.08.995.162,1.054.351.062.229.144.421.055.838-.113.42-.905,3.625-1.017,4.203-.143.538-.75,3.07-.848,3.488M125.607,70.922c-.05.491-.346,3.812-.346,4.116s-.08,1.754-.121,2.237c-.037.351-.165,1.271-.199,1.602-.025.33-.217.921-.217.997,0,.07-.041.153-.041.153,0,0-.597.518-.817.622-.212.092-.212-.125-.342-.251-.138-.117-.328-.153-.649-.32-.295-.121-.763-.588-.991-.916-.209-.343-.285-.647-.147-1.188.138-.551.605-2.422.751-3.101.133-.68.591-2.554.728-3.203.15-.667.422-1.699.422-2.063,0-.369-.113-.703-.321-.874-.196-.179-.237-.209-.35-.258-.133-.051-.272-.108-.272-.108l.155-.708s.48,0,.724-.019c.226-.016.441-.054.816-.041.376,0,.684,0,.946.096.286.105.516.246.471.718-.034.428-.166,2.066-.2,2.508M97.624,44.612c0-11.979,12.963-22.558,30.104-22.558s30.129,10.579,30.129,22.558-12.977,22.594-30.129,22.594-30.104-10.562-30.104-22.594M112.942,15.873c-.292-.213-.741-.513-1.055-.55-.334-.034-.424.016-.603-.041-.153-.06-.396-.267-.396-.267,0,0,.799-.321,1.138-.439.345-.149,1.879-.686,2.931-.972,1.022-.311,2.122-.569,3.425-.837,1.322-.254,3.255-.546,4.814-.712,1.528-.142,3.545-.3,4.74-.267,1.176,0,3.917.166,5.037.297,1.101.136,3.278.382,4.578.682,1.3.288,3.729.893,4.792,1.255,1.062.396,2.354.77,2.487.903.129.146.274.296.476.362.175.085.391.222.391.222,0,0-.519.588-.893,1.191-1.041,1.808.201,4.07,1.855,5.32,2.186,1.608,6.145,4.066,6.828,7.733.167.842.12,2.399.12,2.399,0,0-.332-.371-.521-.569-.175-.206-.257-1.104-.47-1.592-.221-.497-.983-1.521-1.437-2.014-.479-.461-1.316-1.341-3.058-2.466-1.625-1.041-3.291-1.945-5.083-2.633-1.792-.663-3.044-1.179-5.199-1.667-2.137-.475-4.938-.934-7.984-1.059-3.04-.099-5.664.172-7.443.368-1.764.236-4.263.69-6.569,1.49-2.305.741-2.876,1.038-3.584,1.38-.746.337-2.478,1.22-3.107,1.653-.65.413-1.676,1.129-2.292,1.513-.624.404-.75.716-1.124.625-.526-.12-.681-.625-.681-.625,0,0,.464-.524.914-.976.433-.454,1.47-1.341,2.137-1.883.672-.541,1.942-1.646,2.146-1.846.22-.194.787-.875.787-.875,0,0,.192.392.516.268.334-.089.852-.476,1.168-.959.325-.505.858-1.649.72-2.596-.124-.982-.245-1.649-.499-1.82M183.151,20.464c-.153-.232-.445-.508-.816-.604-.379-.13-1.916-.251-2.471-.242-.532.017-1.866.041-2.482.017-.646-.017-1.213-.12-1.471-.258-.27-.101-.188-.058-.296-.101-.2-.067-.337.063-.337.063,0,0-.113-.33-.113-.417,0-.051.038-.168.038-.168,0,0,.671.034,1.133-.058.462-.058,1.815-.271,2.679-.391.862-.15,2.521-.426,3.054-.546.556-.101,1.222-.209,1.451-.101.212.083.387.304.411.551.037.224.209.753.292.936.058.217.221.551.199.649-.05.113-.32.467-.516.626-.212.184-.675.65-.675.65,0,0,.07-.375-.08-.609M175.335,20.797c.388.064,2.138.276,2.837.375.68.134,2.529.376,3.071.442.524.063,1.319.029,1.583.089.454.095.371.516.404.774.05.271.095.716.059.816-.05.101-.292.354-.563.566-.233.2-.509.325-.658.421-.149.092.05-.354-.112-.516-.113-.113-.367-.223-.787-.301-.4-.091-1.071-.25-1.442-.321-.395-.074-1.929-.396-2.524-.5-.604-.12-1.291-.178-1.686-.362-.417-.199-.696-.542-.926-.619-.225-.113-.508-.159-.508-.159l-.025-.309s.375-.367.492-.367c.091,0,.362-.054.787-.029M180.472,27.48c-.154-.228-.82-.479-1.212-.603-.442-.113-1.671-.497-2.353-.701-.672-.2-1.788-.579-2.159-.684-.384-.108-.843-.212-1.092-.384-.255-.182-.545-.466-.661-.528-.109-.067-.41-.108-.41-.108,0,0-.032-.779.079-.826.105-.037.438.079.588.055.133-.008.546-.008.933.075.389.104,2.45.637,3.283.788.822.179,1.908.449,2.62.565.68.117,1.155.117,1.28.384.166.236.13.775.13,1.037-.01.275.07.879,0,.968-.022.074-.384.224-.629.312-.243.104-.355.149-.355.149,0,0,.127-.283-.042-.499M179.26,30.984c-.096.096-.246.128-.528.158-.279.041-.441.091-.441.091,0,0,.248-.262.024-.474-.247-.242-.317-.321-.847-.559-.509-.172-1.36-.517-1.745-.68-.383-.125-2.007-.891-2.471-1.042-.445-.163-1.392-.525-1.717-.7-.333-.187-.467-.249-.57-.383-.067-.145-.417-.188-.417-.188,0,0,.07-.266.121-.555.034-.282-.025-.457.075-.478.087-.041.271.083.472.034.215-.013.432-.034.564.066.172.096.884.334,1.251.461.354.14,2.246.822,2.87,1.046.616.234,1.733.676,2.248.812.473.189.822.235,1.002.389.18.179.35.424.32.749-.007.346.042.397-.096.58-.111.167-.131.204-.178.283-.013.121.133.299.061.388M176.539,33.649c-.1.097-.384.101-.575.167-.179.066-.366.066-.366.066,0,0,.166-.108.125-.299-.038-.175-.188-.42-.52-.509-.371-.092-.772-.096-1.08-.188-.296-.066-.566-.209-1.049-.475-.488-.259-1.458-.866-1.975-1.12-.503-.264-1.434-.775-1.767-.979-.312-.196-.439-.296-.616-.351-.163-.055-.367-.062-.477-.033-.111.033-.459-.062-.459-.062,0,0,.451-.033.534-.208.102-.196.064-.646.102-.841.03-.201.02-.306.086-.317.092-.021.316.116.53.13.211.013.466,0,.816.188.357.166,1.833.962,2.587,1.299.788.329,2.321,1.125,2.811,1.303.467.181,1.25.46,1.372.714.103.2.178.4.028.646-.123.199-.209.329-.163.449.04.167.163.333.055.42M171.562,35.718c-.293-.155-.664-.181-1.014-.288-.32-.109-.904-.509-1.242-.763-.345-.267-1.22-.934-1.623-1.204-.417-.299-1.014-.787-1.299-.929-.306-.113-.844-.222-1.169-.243-.304-.011-.678.021-.725,0-.076-.011-.162.343-.312.243-.129-.121-.187-.134-.341-.243-.176-.09-.192-.137-.192-.137l.017-.321s.226-.073.508-.073c.279,0,.534.032.858-.085.316-.128.316-.09.513-.213.208-.137.309-.169.538-.319.207-.113.153-.304.274-.325.138,0,.538-.058.647,0,.129.078.966.755,1.447,1.054.494.283,1.997,1.204,2.556,1.554.551.35,1.407.797,1.662,1.055.283.254.458.366.447.601-.01.24-.196.399-.292.581-.096.181-.083.355-.155.521-.07.113-.111.273-.111.273l-.692.133s.191-.154.146-.342c-.025-.179-.146-.362-.445-.528M168.196,38.295c-.151-.107-.481-.308-.816-.467-.353-.183-.869-.632-1.302-.966-.413-.317-1.541-1.383-1.772-1.612-.258-.237-1.04-.883-1.236-.971-.196-.096-.772-.179-.984-.213-.208-.054-.524-.133-.524-.133,0,0-.134.246-.2.246-.154,0-.117-.022-.117-.022,0,0,.02,0-.111-.107-.112-.117-.221-.242-.221-.242,0,0,.042-.113.058-.292.027-.149.051-.365.153-.353.084,0,.476.219.755.219.283,0,.312-.057.312-.057,0,0,.142-.251.488-.321.337-.059.475-.076.576-.076.123,0,.294-.041.647.121.355.137,1.363.979,1.738,1.264.383.295,1.911,1.507,2.328,1.853.447.343.925.671,1.064.784.133.128.55.55.466.733-.109.188-.32.403-.379.583-.032.203-.054.482-.087.583-.037.121-.275.163-.38.159-.121-.021-.456-.038-.456-.038,0,0,.182-.133.239-.267.045-.124-.058-.254-.239-.409M164.537,40.147c-.209-.143-.463-.267-.825-.46-.334-.183-.613-.433-.88-.716-.237-.292-.804-1.041-1.087-1.366-.275-.309-.96-1.171-1.238-1.459-.341-.304-.658-.583-1.042-.666-.398-.064-.49-.096-.582-.096-.104,0-.237.242-.204.32.017.067-.17-.078-.32-.288-.164-.24-.575-.866-.575-.866,0,0,.62.213.949.213.367,0,.63.02.72-.013.043-.017.212-.283.539-.366.357-.096.684-.033,1.006.184.339.266,1.99,1.929,2.23,2.142.246.224,1.31,1.278,1.625,1.573.337.305.873.838.979,1.051.085.233.134.4.055.528-.07.098-.2.193-.245.347-.064.126-.076.459-.159.546-.086.113-.188.216-.423.216s-.473-.049-.473-.049c0,0,.263-.117.263-.275,0-.143-.075-.4-.311-.499M174.798,19.364c-.113.166-.101.378-.101.433v.159s-.108.059-.225.149c-.108.079-.662.384-.662.384,0,0,0-.117-.095-.317-.093-.216-.409-.391-.639-.441-.221-.071-1.07-.112-1.43-.121-.366-.012-1.211-.049-1.585-.079-.331-.016-.51-.07-.665-.07-.154,0-.295.013-.416.101-.145.099-.191.221-.27.224-.097.013-.23-.003-.295-.003-.067,0-.185.087.02.275.296.315.775.366,1.176.407.407.06.984.167,1.416.247.442.07,1.013.182,1.382.27.376.093.726.093.877.1.124.051.337.134.337.26-.028.125-.05.261-.089.387-.049.1-.049.304-.041.404.025.128-.008.208-.108.262-.099.072-.512.205-.616.267-.105.047-.279.033-.279.033,0,0,.064-.267,0-.312-.054-.066-.188-.233-.508-.325-.3-.095-1.15-.316-1.532-.394-.387-.067-1.061-.26-1.509-.343-.439-.092-.744-.238-.863-.104-.124.117-.166.212-.267.212-.066.029-.183-.024-.267.039-.087.095-.208.196-.112.282.076.108.362.283.654.384.292.128,1.283.362,1.683.512.446.112,1.189.426,1.575.517.396.074.817.2.891.43.076.203.067.415-.073.558-.154.133-.18.316-.23.366-.024.1-.096.309-.096.309,0,0-.35.25-.438.274l-.349.15s.121-.175,0-.446c-.132-.287-.452-.429-.897-.646-.403-.194-1.278-.509-1.599-.638-.321-.124-1.397-.541-1.654-.646-.23-.066-.515-.166-.746-.134-.236.067-.337.205-.283.313.075.108.241.162.241.309,0,.116,0,.236-.058.286-.07.005-.088.035-.088.035,0,0,.546.382.934.553.392.196,1.333.658,1.582.812.23.117,1.018.487,1.185.617.184.129.562.35.485.533-.069.183-.132.479-.149.566-.037.1.017.18-.146.25-.159.062-.769.229-.769.229,0,0,0-.134-.042-.229-.025-.092-.151-.25-.492-.446-.314-.166-1.458-.853-1.775-1.018-.287-.137-1.032-.553-1.208-.691-.154-.145-.57-.487-.721-.567-.145-.062-.435-.229-.621-.024-.166.145-.236.466-.153.569.104.126.33.313.33.313,0,0-.193.157-.165.233.019.083.564.45.95.733.38.309,1.426.991,1.69,1.167.258.184.823.546,1.003.695.163.168.221.312.087.479-.141.104-.175.3-.175.3,0,0,.009.171.009.254,0,.113-.023.18-.023.18,0,0-.078.083-.297.125-.218.021-.531.058-.531.058,0,0-.061-.128-.054-.249.013-.167-.121-.264-.359-.454-.254-.213-1.041-.784-1.44-1.076-.395-.277-1.158-.795-1.346-.985-.179-.164-.506-.659-.691-.817-.188-.139-.43-.301-.638-.23-.212.092-.454.247-.478.451-.022.184-.067.358.083.444.116.085.288.196.288.268,0,.038-.196.117-.155.238.051.111.726.629,1.033.879.337.283,1.392,1.103,1.654,1.32.283.255.763.688.816.929.08.188.038.566-.045.699-.08.104-.292.152-.522.181-.221.058-.508.083-.508.083,0,0,.112-.237.045-.35-.045-.108-.495-.392-.838-.676-.337-.274-1.374-1.162-1.77-1.483-.379-.316-.784-.716-.905-.999-.153-.271-.379-.67-.695-.67-.345,0-.666.066-.865.324-.196.267-.196.55-.051.667.152.111.42.279.337.328l-.299.181s.299.169.712.533c.454.375,1.236,1.02,1.534,1.291.315.291.903.866,1.02.958.096.104.283.388.271.601-.016.241-.07.503-.12.62-.079.124.021.184-.15.275-.167.086-.483.086-.584.086-.111,0-.203-.045-.203-.045,0,0,.254-.192.241-.296-.024-.088-.346-.441-.6-.653-.2-.2-1.332-1.15-1.738-1.53-.42-.383-1.004-.97-1.153-1.307-.12-.385-.12-.812-.333-1.127-.213-.303-.7-.665-.883-.982-.238-.321-.935-1.388-1.263-2.058-.334-.658-.684-1.175-.758-1.767-.076-.551-.013-.922-.134-1.104-.083-.17-.317-.459-.417-.459-.127,0-.512-.041-.512-.041,0,0,.249-.403.929-.87.619-.397,1.572-.816,2.162-1.005.595-.178,2.768-.675,3.74-.766,1.006-.084,3.655-.092,4.521-.113.863-.008,2.538.029,3.071.022.584-.022,1.366,0,1.95,0,.6,0,1.732-.022,2.078-.022.376,0,1.064-.042,1.254.022.214.045.572.104.613.254.033.167.092.3,0,.471M158.257,30.791c.252.193.718.502.852.58.157.067.715.647.858.83.161.179.54.521.497.728-.006.223-.182.805-.303.917-.142.163-.338.334-.497.338-.169,0-.46-.025-.46-.025,0,0,.358-.107.358-.275,0-.137-.067-.271-.339-.544-.249-.264-.353-.359-.642-.755-.262-.35-.503-.754-.503-.754l-.185.05-.203.036s-.083-.623-.129-.986c-.092-.333-.211-.621-.264-.799-.074-.214-.17-.551-.17-.551,0,0,.896,1.017,1.128,1.211M157.471,35.578l.037-.258s.433.555.559.726c.138.158.579.517.712.737.196.199.938,1.166,1.241,1.612.318.421,1.188,1.608,1.38,1.85.149.222.642.904.629,1.105-.059.213-.092.454-.179.655-.104.194-.2.415-.301.441-.079.003-.579.02-.579.02,0,0,.142-.191.142-.299,0-.121-.217-.483-.513-.626-.287-.158-.87-.492-1.004-.625-.13-.162-.553-1.212-.725-1.592-.225-.449-.625-1.204-.886-1.558-.239-.35-.389-.717-.489-.755-.092-.029-.058.054-.196.066-.153.022-.266-.066-.266-.066,0,0,.23-.516.266-.732.025-.226.139-.6.172-.701M166.735,53.735c-.337-.24-.841-.45-1.22-.603-.358-.142-1.172-.393-1.692-.617-.508-.191-.808-.358-.991-.575-.279-.29-.804-1.29-1.122-1.856-.298-.567-1.203-2.297-1.448-2.742-.242-.472-.343-.721-.379-1.017-.05-.284-.06-1.305-.154-1.575-.096-.237-.384-.729-.575-.851-.179-.161-.237-.182-.337-.228-.07-.051-.353-.134-.353-.134,0,0-.032-.371-.032-.433,0-.092-.028-.196-.028-.196,0,0,.705.07,1.108.07.434,0,.8-.041.995,0,.168.034.405,0,.577.226.19.216.277.591.386.816.059.234,1.362,2.08,1.592,2.362.205.271,1.166,1.566,1.559,2.084.416.533,1.532,1.987,1.861,2.415.321.406.987,1.093,1.147,1.33.166.255.592.843.654.987.087.138-.097.32-.196.459-.108.12-.292.362-.492.562-.19.171-.478.407-.575.438-.067.028.032-.238.047-.376.032-.145-.066-.332-.33-.546M159.595,54.231c-.13-.171-.379-.425-.679-.559-.304-.154-.892-.475-.95-.65-.071-.199-.081-.37.059-.737.208-.495.18-.954.092-1.328-.092-.379-.15-.488-.222-.604-.066-.146-.216-.237-.216-.237,0,0,.237-.846.287-1.054l.18-.738s.445.747.63,1.014c.171.271.591.836.807,1.271.198.416.876,1.496,1.038,1.858.175.353.417.683.377,1.07-.027.379-.349.837-.435,1.004-.103.184-.103.366-.346.541-.225.2-.608.242-.608.242,0,0,.241-.229.275-.417,0-.221-.167-.528-.288-.675M158.776,55.703c.429.065.689.099,1.143.07.419-.021.588-.083.812-.371.223-.259.476-.717.579-.971.117-.233.251-.559.251-.559,0,0,.524.217.862.358l1.588.541c.437.139,1.065.263,1.298.441.255.188.311.321.302.505-.034.172-.196.62-.362.967-.165.316-.801,1.633-1.022,2.087-.266.421-1.262,2.033-1.767,2.754-.516.746-2.149,2.77-2.766,3.351-.587.591-1.329,1.345-1.779,1.574-.445.229-1.149.362-1.638.646l-2.49,1.558c-.646.41-1.589.967-2.263,1.318-.676.353-2.355,1.183-2.864,1.44-.494.233-1.198.533-1.519.695-.321.134-.601.267-.862.228-.26-.012-.438-.178-.546-.391-.126-.2-.931-1.604-1.226-2.125-.292-.554-1.424-2.479-1.642-2.824-.237-.354-.337-.529-.84-.729-.34-.121-.439-.175-.601-.175-.181,0-.267.028-.515-.047-.169-.055-.259-.251-.259-.251,0,0,1.123-.399,1.635-.674.492-.213,1.492-.62,2.138-.928.654-.321,2.417-1.289,3.183-1.751.75-.483,1.716-1.155,2.5-1.8.788-.675,2.054-1.843,2.583-2.325.499-.499,1.7-1.9,2.05-2.449.384-.529,1.004-1.491,1.004-1.491l1.354.688c.596.304,1.259.558,1.676.638M130.131,79.321c-.025.274-.025.604-.025.604,0,0-.774.778-.994.986-.246.218-1.146.972-1.146.972,0,0,.147-.375.279-.55.125-.155.226-.422.134-.588-.084-.146-.763-.867-.989-1.038-.219-.149-.477-.511-.516-.878-.037-.314.134-2.588.255-3.558.079-.959.195-3.112.261-3.851.08-.736.176-1.625.042-1.941-.145-.301-.378-.691-.563-.783-.21-.086-.489-.171-.489-.171v-.649s.666.013.792-.013c.153-.062.795-.167,1.267-.154.445.05.933.154.982.417.022.212.045,1.033.054,1.517.025.499.217,3.054.226,3.467.025.399.254,3.236.292,3.916.038.716.149,2.021.141,2.296M135.306,79.504c-.033.092-.527.736-.77.983-.255.242-1.126,1.338-1.126,1.338,0,0-.083-.317.024-.476.117-.134.371-.354.339-.605-.038-.232-.276-.695-.492-.883-.193-.213-.676-.467-.908-.699-.188-.205-.311-.384-.379-.935-.013-.565-.251-3.417-.321-4.346-.071-.953-.267-3.554-.329-3.948-.05-.38-.117-.756-.387-1.055-.276-.226-.522-.366-.684-.403-.168-.062-.321-.072-.321-.072l-.028-.541s.645-.083.896-.154c.242-.067.902-.2,1.332-.2.371,0,.75.092.821.355.055.226.162.925.208,1.245.059.312.771,3.346.854,3.767.066.433.87,3.72.971,4.165.079.496.35,1.621.337,1.896-.02.259.013.475-.037.566M139.981,79.504c-.237.358-1.034,1.429-1.034,1.429,0,0-.041-.42.03-.559.091-.128.162-.394.116-.554-.058-.171-.227-.612-.487-.82-.229-.199-.704-.351-.946-.575-.241-.242-.358-.312-.541-1.034-.192-.699-.646-2.646-.767-3.211-.163-.604-.767-3.312-.9-3.854-.149-.537-.279-1.274-.508-1.554-.209-.258-.638-.646-.829-.695-.163-.038-.388-.021-.464-.021-.065,0-.178.021-.178.021l-.138-.555s.371.009.738-.091c.324-.109,1.115-.454,1.454-.475.328-.037.833-.037.891.099.096.144.209.468.358.855.146.416,1.125,2.879,1.333,3.55.245.667,1.317,3.275,1.529,3.812.184.55.699,1.732.767,1.999.054.237.308.888.248,1.092-.049.195-.443.782-.673,1.142M145.923,76.875c-.08.233-.617,1.186-.713,1.45-.139.241-.646,1.141-.646,1.141,0,0-.055-.741-.18-1.087-.129-.379-.279-.604-.546-.771-.267-.204-.767-.32-.971-.444-.199-.159-.379-.3-.616-.788-.259-.487-.909-2.278-1.129-2.833-.245-.634-1.084-2.712-1.366-3.379-.276-.691-.73-1.883-.947-2.162-.219-.292-.758-.68-.937-.692-.191-.045-.445-.087-.505-.07-.065.021-.28.025-.28.025l-.197-.426s.912-.199,1.363-.341c.433-.167.953-.337,1.245-.403.324-.072.461-.084.607.091.162.146.316.458.4.679.083.233,1.004,1.833,1.299,2.346.33.567,1.201,2.083,1.462,2.549.264.484,1.192,1.989,1.362,2.334.235.316.451.745.63,1.024.149.254.416.858.55,1.125.101.251.2.45.114.634M168.607,55.235c-.104.284-.445,1.208-.653,1.684-.251.503-.976,1.941-1.259,2.434-.254.441-1.445,2.346-1.946,3.027-.49.668-1.973,2.497-2.449,3.017-.449.516-2.279,2.278-2.717,2.729-.467.399-3.662,2.521-4.273,2.911-.651.376-2.693,1.563-3.172,1.817-.473.275-1.942.972-2.413,1.213-.483.258-1.786.849-2.091.929-.321.059-.679,0-.975-.038-.246-.042-.384-.042-.496-.042-.079,0-.467.047-.467.047l-.124-.229s1.19-.484,1.811-.793c.603-.283,3.216-1.487,3.959-1.929.737-.433,2.266-1.283,3.065-1.816.788-.55,2.678-1.916,3.352-2.52.705-.601,2.688-2.529,3.026-2.95.338-.441,1.914-1.899,2.276-2.27.353-.358,1.013-.984,1.45-1.616.482-.696,1.512-2.4,1.732-2.885.209-.52.45-.899.403-1.12-.032-.191-.07-.411-.137-.417-.058-.041-.416-.153-.416-.153l.149-.446c.059-.128.088-.246.088-.246,0,0,.394.013.588-.083.217-.087.708-.454,1.011-.754.309-.283.663-.684.78-.875.125-.203.162-.254.162-.254,0,0,.172.051.172.142,0,.134-.334,1.208-.439,1.487M175.672,52.569c-.137.221-.457.745-.683.967-.232.199-.725.554-.725.554,0,0,.166-.354.134-.524-.047-.18-.404-.512-.683-.584-.255-.112-1.396-.379-1.894-.547-.479-.149-1.569-.573-1.857-.819-.3-.221-1.587-1.767-1.913-2.145-.272-.367-1.404-1.838-1.808-2.354-.396-.489-1.266-1.73-1.732-2.334-.483-.617-1.229-1.579-1.413-1.771-.212-.2-.235-.295-.42-.408-.181-.138-.255-.221-.255-.221l.129-.482c.05-.185.05-.293.05-.293,0,0,.588.026,1.042-.013.45-.079.712-.19,1.103-.149.409.02.596.117.768.487.21.422.787,1.045,1.204,1.441.417.409,2.399,2.237,3.012,2.82.605.542,2.521,2.413,3.199,3.004.664.608,1.592,1.409,1.854,1.642.213.267.812.829.938.984.133.166.096.499-.051.745M185.322,50.735c-.205.43-.718,1.283-.863,1.467-.13.191-.492.537-.667.684-.175.137-.267.147-.267.147,0,0,.275-.312.205-.518-.037-.191-.154-.496-.491-.69-.334-.155-.972-.235-1.464-.375-.483-.085-2.311-.542-3.044-.756-.696-.188-1.28-.341-1.747-.674-.42-.333-1.57-1.4-2.153-1.946-.537-.49-1.73-1.603-2.412-2.208-.68-.616-2.062-1.912-2.541-2.379-.489-.483-1.833-1.666-2.075-1.924-.222-.284-.784-.809-.954-.959-.165-.149-.31-.137-.395-.321-.101-.136-.034-.396-.013-.444.041-.092.099-.222.099-.222,0,0,.648.062.93-.021.263-.066.858-.212,1.033-.212.2,0,.543-.071.88.079.315.133,1.145.603,1.575.953.44.338,2.218,1.733,2.777,2.142.56.4,3.246,2.309,3.812,2.691.521.384,2.967,1.995,3.621,2.404.658.387,1.881,1.12,2.466,1.461.612.356,1.25.692,1.45.889.177.17.404.35.238.732M195.625,48.053c-.144.292-.454,1.153-.585,1.43-.181.283-.398.824-.611,1.023-.224.188-.329.297-.441.33-.14.029-.158.004-.158.004,0,0,.245-.287.245-.387,0-.101-.162-.509-.35-.647-.175-.154-.45-.254-.666-.254-.209,0-.908,0-1.522-.083-.661-.062-1.7-.2-2.482-.367-.755-.166-1.295-.229-1.927-.495-.645-.284-2.044-1.046-2.799-1.466-.712-.426-3.068-1.871-3.824-2.372-.684-.467-4.066-2.857-4.582-3.228-.509-.342-1.726-1.259-2.226-1.63-.474-.382-1.191-.94-1.463-1.073-.282-.108-1.124-.4-1.403-.543-.262-.096-.578-.194-.68-.391-.07-.167-.036-.42-.036-.42,0,0,1.166-.288,1.469-.406.285-.111.951-.241,1.184-.207.233.05,1.093.458,1.614.733.489.291,2.752,1.471,3.484,1.865.722.392,3.701,1.9,4.358,2.214.68.328,2.858,1.42,3.642,1.757.791.362,3.533,1.566,4.308,1.875.701.317,1.857.725,2.5.962.667.214,1.5.459,1.905.566.374.126,1.073.31,1.124.479.041.196.041.463-.079.729M206.457,43.717c-.084.22-.267.87-.393,1.236-.157.384-.35.912-.561,1.147-.229.225-.717.337-.717.337,0,0,.263-.166.238-.441-.049-.225-.126-.362-.321-.476-.205-.145-.288-.249-.596-.249-.27-.034-.996.045-1.546.066-.566.038-2.492.038-3.241.038-.759,0-1.512.061-2.079-.009-.555-.076-1.263-.175-2.1-.433-.888-.243-3.036-1.018-4.005-1.41-.928-.391-3.781-1.623-4.553-1.973-.743-.352-3.587-1.751-4.517-2.227-.929-.486-2.246-1.125-2.978-1.508-.722-.399-2.293-1.254-2.685-1.463-.416-.171-.857-.337-1.203-.416-.34-.062-.838-.258-.997-.312-.149-.089-.508-.196-.508-.196l.046-.468s1.119-.228,1.671-.45c.467-.166,1.083-.429,1.608-.395.542.066,1.649.433,2.309.666.633.246,2.903,1.059,3.508,1.312.619.2,5.845,1.987,6.699,2.221.816.264,5.35,1.607,6.315,1.892.95.259,5.327,1.374,6.354,1.596,1.033.201,2.729.496,3.269.616.522.116,1.014.208,1.067.468.048.245.009.636-.087.829M216.617,39.679c-.176.388-.486,1.075-.835,1.471-.343.413-.592.729-.822.855-.201.162-.3.197-.3.197,0,0,.212-.29.159-.486-.047-.2-.355-.458-.646-.499-.304-.067-.939-.018-1.587-.018-.633,0-2.51-.087-4.137-.332-1.671-.264-4.18-.631-5.863-1.039-1.7-.408-4.099-.99-5.816-1.466-1.73-.491-4.582-1.316-6.355-1.907-1.807-.626-4.11-1.375-5.093-1.722-1.021-.366-3.968-1.407-4.417-1.582-.459-.193-.767-.264-1.116-.293-.337-.028-.787.055-1.138,0-.361-.037-.804-.162-.99-.225-.193-.083-.359-.1-.43-.254-.097-.166-.043-.283-.043-.283,0,0,.587-.029.879-.096.288-.072.979-.218,1.296-.313.312-.103.426-.166.467-.316.009-.17-.041-.611,0-.804.046-.167.142-.38.142-.38,0,0,.668.159.933.188.295,0,1.245.183,1.638.282.399.102,4.887,1.222,5.616,1.439.704.166,5.845,1.404,6.7,1.599.895.15,5.086,1.088,6.026,1.267.943.214,7.171,1.367,8.221,1.547,1.009.137,4.575.712,5.404.787.842.078,2.065.221,2.324.287.212.062.462.168.392.45-.054.43-.392,1.249-.609,1.646M225.135,34.351c-.105.316-.267.917-.438,1.129-.128.217-.25.458-.49.616-.26.108-.339.147-.339.147,0,0,.164-.358.079-.546-.108-.196-.467-.542-.684-.562-.21-.034-1.025.134-1.544.207-.572.089-1.566.196-2.234.247-.666.038-1.537.116-1.971.108-.441-.017-1.229-.108-1.936-.196-.696-.116-3.287-.471-4.23-.621-.895-.133-3.921-.679-5.198-.87-1.251-.259-5.762-1.15-6.626-1.362-.853-.167-4.199-.912-5.028-1.117-.845-.188-4.49-1.049-5.321-1.25-.849-.2-3.181-.766-3.794-.904-.646-.162-1.912-.465-2.274-.544-.342-.047-.724-.159-1.017-.06-.288.06-.921.242-1.1.321-.196.059-.242.076-.517.042-.317-.042-.483-.224-.483-.224,0,0,.637-.181.983-.364.35-.138.883-.295,1.066-.582.168-.268.196-.325.179-.534-.011-.178-.066-.321-.066-.321,0,0,1.08.051,1.504.093.438.032,2.484.346,3.13.438.633.067,3.787.558,4.641.678.855.143,6.635.922,7.766,1.08,1.146.125,6.111.771,7.029.883.921.097,6.516.705,7.373.788.871.075,4.022.371,5.088.454,1.092.104,3.4.226,4.421.238,1.004.023,1.712-.013,1.983.07.247.086.446.267.395.45-.046.199-.27,1.771-.345,2.07M231.938,28.284c-.138.486-.47,1.262-.749,1.487-.238.213-.605.396-.605.396,0,0,.14-.317.053-.484-.098-.183-.447-.445-.701-.445-.238.009-1.705.396-2.425.458-.73.113-1.918.221-2.826.212-.903-.007-2.965-.099-4.045-.175-1.052-.074-3.903-.286-5.333-.448-1.424-.151-5.328-.576-7.132-.784-1.801-.217-5.442-.671-6.75-.842-1.263-.162-5.445-.716-6.574-.896-1.096-.153-4.076-.554-4.899-.667-.847-.146-3.417-.513-4.145-.629-.769-.083-1.201-.188-1.538-.188s-.583-.033-.987,0c-.441.028-.375.028-.575.028-.175,0-.226-.007-.438-.028-.2-.033-.3-.055-.3-.055,0,0,.758-.483,1.081-.733.323-.258.706-.5.791-.745.078-.229.078-.367.078-.367,0,0,2.323.084,2.845.13.525.045,3.074.216,3.758.255.65.053,4.759.337,6.038.42,1.274.096,7.027.471,8.19.55,1.125.059,5.725.338,6.857.412,1.141.051,5.52.28,6.945.346,1.436.058,6.416.223,7.266.226.867.013,3.671.032,4.167.013.483-.016,1.078-.076,1.416-.076.316,0,.696.01.71.381.031.337-.039,1.766-.173,2.249M237.523,22.297c.011.26.131.601.061.68-.079.066-.657.403-.774.417-.122.059-.264.083-.264.083,0,0,.116-.196.024-.367-.07-.145-.42-.403-.62-.433-.234-.034-.533.029-.971.195-.417.171-1.662.521-2.371.683-.721.146-1.029.238-2.23.283-1.209.021-3.961.021-5.169-.045-1.178-.062-4.679-.146-6.349-.225-1.655-.092-5.746-.309-7.192-.37-1.439-.056-5.827-.326-6.882-.393-1.045-.093-6.183-.38-7.277-.43-1.049-.096-6.416-.433-7.3-.521-.846-.092-2.733-.213-3.305-.242-.57-.02-1.374-.111-1.683-.188-.279-.086-.279-.199-.522-.254-.241-.032-.562-.041-.562-.041,0,0,.644-.708.804-.887.175-.205.358-.46.445-.489.142-.024.551.026.821-.057.346-.138,2.549-.089,3.167-.138h5.554c.898,0,6.669-.088,7.632-.085.962.039,5.137,0,6.203-.016,1.054-.046,6.217,0,7.445-.07,1.233-.025,7.657-.07,8.736-.096,1.055-.037,6.024-.104,6.92-.147.902,0,2.696-.021,3.272-.071.562-.049,1.061-.096,1.283-.066.22.018.241.247.321.367.037.138.353,1.138.504,1.603.149.433.258,1.033.276,1.316M153.317,13.136c1.024-.188,3.908-.704,5.087-.775,1.179-.099,3.246-.183,4.204-.183,1.074,0,3.141.096,4.683.232,1.604.172,3.795.489,5.254.566,1.45.08,3.907.159,5.021.133,1.058-.053,3.062-.133,4.137-.14,1.087,0,5.037-.159,6.358-.254,1.317-.064,4.896-.284,6.216-.318,1.334-.073,5.408-.153,6.574-.153s6.22.214,7.495.278c1.297.071,4.439.246,5.592.305,1.175.072,2.841.143,3.804.199.983.03,3.853-.05,4.478-.05.62,0,2.812-.007,4.019-.028,1.185-.079,4.377-.334,5.564-.426,1.134-.1,4.125-.398,5.1-.471.95-.061,1.9-.207,2.305-.137.403.041.897.375,1.016.508.13.159.688.754,1.096,1.221.433.438.821.921.888,1.051.07.179.35.553.27.68-.036.137-.087.403-.229.482-.137.07-.819.366-.819.366,0,0-.039-.305-.276-.407-.204-.117-.629-.247-.919-.155-.285.12-1.251.53-1.805.771-.548.249-1.471.654-1.892.712-.446.054-2.101.133-3.216.146-1.128.026-4.4.033-5.808.08-1.407.045-6.191.073-7.208.095-.983.013-5.384.059-6.771.059-1.413,0-5.32.088-6.571.072-1.282-.019-6.869.099-8.114.065-1.217-.004-4.73,0-5.657.037-.934.024-2.205.064-3.438.143-1.192.099-2.907.267-3.396.279-.499.058-1.155-.038-1.384-.101-.237-.08-.255-.116-.4-.138-.133-.022-.55-.092-.55-.092l-.104-.213s.541-.1.983-.207c.466-.08.816-.296,1.62-.464.785-.145,2.766-.524,3.745-.683.991-.166,5.45-.949,6.737-1.124,1.283-.172,4.607-.534,5.782-.629,1.147-.084,4.479-.343,5.663-.389,1.157-.079,3.762-.19,4.42-.166.675.017,2.929.046,3.809.096.883.07,1.369.07,1.369.07l.168-.601s-.95-.05-1.725-.095c-.805-.05-2.834-.092-3.517-.092-.695,0-3.198.025-4.143.079-.905.051-2.239-.111-3.328-.138-1.342-.059-4.309-.008-5.52.059-1.226.092-4.646.434-5.729.584-1.1.124-4.811.654-6.516.982-1.717.301-4.379.834-5.633,1.066-1.236.233-2.834.55-4.267.696-1.42.149-4.305.199-5.357.171-1.062-.022-4.167-.092-5.746-.083-1.546.05-4.183.05-5.703.229-1.537.192-2.812.475-3.595.754-.81.245-1.607.55-2.128.925-.568.392-.807.842-.791.991.019.133.061.251.061.251l.425.12s-.4.329-.646.509c-.233.196-.467.657-.561,1.059-.057.38-.204,1.324-.224,1.732-.024.401-.062.558.067.875.137.317.766,1.441,1,1.903.254.46.912,1.534,1.103,1.829.175.326.513.756.75,1.159.259.371.676,1.267.729,1.55.054.299.054.745.054,1.163v2.145c0,.35-.015.607-.107.674-.071.089-.267.268-.279.451,0,.175-.138.597-.175.812-.058.212-.222.667-.222.667,0,0-.245-.546-.245-.601-.034-.066.081-.492.028-1.125-.028-.603-.969-2.603-1.204-4.615-.13-1.258-.894-2.551-1.48-3.404-.581-.846-.94-1.704-1.61-2.803-.642-1.127-2.491-2.223-3.646-3.064-.906-.608-2.076-2.025-2.076-3.137,0-.518-.281-1.304-.894-.967.105-.275.367-.514.666-.8.609-.496,1.713-1.201,2.726-1.566,1.079-.396,3.555-1.055,4.558-1.292M110.047,12.694c.595-.236,3.6-1.267,4.538-1.505,1.132-.312,3.789-.92,5.373-1.184,1.586-.267,4.808-.611,7.882-.611,2.654,0,5.07.233,6.354.366,1.279.171,3.866.625,4.912.867,1.05.283,2.812.708,3.817,1.036.961.343,2.498.858,3.098,1.125.613.264.969.347,1.076.446.087.084.116.245.424.408.317.121.775.296.775.296,0,0-.157.15-.417.254-.245.104-.566.234-.787.339-.258.115-.5.254-.5.254,0,0,0-.358-.133-.454-.138-.113-.887-.514-1.681-.81-.736-.267-1.849-.661-2.947-.978-1.088-.3-3.005-.88-4.33-1.097-1.291-.227-2.666-.482-3.949-.611-1.263-.138-4.183-.367-5.674-.35-1.5.022-4.39.167-5.825.358-1.43.166-3.806.546-5.191.899-1.369.35-3.215.8-3.92,1.024-.754.268-1.612.617-1.904.617-.27.038-.857-.05-1.056-.05-.202,0-.382,0-.531.037-.087.034-.404.191-.533.143-.141-.085-.404-.222-.404-.222,0,0,.938-.324,1.534-.6M15.875,12.989c.364-.407.814-.982,1.005-1.033.193-.079.984-.079,1.464-.028.483.028,3.507.316,4.111.362.592.042,3.166.12,3.853.142.702.037,3.95.058,5.034.091,1.12.034,4.494.117,5.508.071,1.013-.05,3.858-.304,4.724-.35.876-.043,3.604-.254,4.894-.288,1.303-.028,3.91,0,4.744-.054.836-.058,4.165-.079,5.317-.079,1.144,0,4.397.133,5.477.133,1.119.051,5.833.306,7.062.368,1.224.054,7.328.27,8.69.29,1.332.038,3.353.092,4.401.038,1.082-.059,6.219-.283,7.76-.328,1.558-.051,5.671-.102,7.319-.062,1.676.028,5.646.428,6.982.6,1.363.165,2.671.486,3.079.512.375.013.959.051,1.189.271.212.175.429.625.825.867.401.226.975.35,1.166.6.221.264.232.816.346,1.05.125.221.604.983.649,1.5.071.496,0,1.367-.333,1.949-.316.562-.875,1.217-1.457,1.846-.606.626-1.547,1.283-2.347,1.997-.809.695-2.174,1.745-2.875,2.724-.712.963-1.142,1.625-1.312,2.595-.137.984-.041,1.543-.105,1.71-.046.166-.169.574-.429.812-.22.254-1.236,1.403-1.583,1.894-.358.484-.971,1.363-1.108,1.597-.162.23-.275.484-.275.484l-.236-.422s.5-.579.566-.728c.188-.234.063-.931.188-2.1.258-3.042,4.053-6.434,3.528-9.541-.454-2.429-3.479-4.513-6.508-4.971-1.73-.279-7.483-.712-8.718-.745-1.547-.059-5.701-.116-7.005-.15-1.292-.017-4.737-.025-5.729-.079-1.021-.025-2.296-.038-3.925-.309-1.659-.296-2.816-.617-4.433-1.124-1.63-.493-2.925-.88-4.212-1.159-1.271-.296-2.922-.554-4.013-.646-1.137-.1-3.312-.258-4.993-.305-1.651-.019-5.751,0-7.065.037-1.308.01-5.387.15-6.453.15-1.074,0-2.208-.017-2.741.018-.505.041-.375.27-.597.321-.249.041-1.477,0-2.199,0-.691,0-1.245-.051-1.467-.072-.271-.013-.63-.013-.63-.013,0,0-.053.242.201.309.25.079.866.113,1.066.151.238.024,1.9.111,2.491.133.587.058,1.608.058,2.255.087.653.075,1.782.075,2.549.083.755.013,3.805,0,4.942.025,1.096.05,3.215.05,4.22.079,1.046.009,3.509.121,5.416.35,1.929.213,3.512.451,5.441.905,1.837.441,4.029,1.137,5.104,1.479,1.064.304,2.546.712,3.3.895.789.154,1.491.192,1.679.38.191.153.191.333.064.565-.101.254-.199.337-.288.56-.087.228-.159.436-.159.436h-.692s.134-.138.143-.308c.022-.146-.392-.371-.808-.484-.441-.066-2.384-.254-2.899-.321-.524-.07-2.434-.233-3.495-.229-1.055.021-5.162-.017-6.217,0-1.033.034-4.892-.049-5.874-.004-.955.025-4.329,0-5.254-.013-.917-.032-3.066-.032-3.932-.032-.852,0-3.714,0-4.743-.018-1.012,0-4.509-.096-5.178-.08-.68.034-2.592-.023-3.533-.023-.941-.03-4.225-.146-5.115-.146-.901,0-1.992-.072-2.343-.181-.346-.092-2.222-1.054-2.975-1.436-.759-.371-2.192-1.096-2.57-1.311-.392-.193-.787-.468-.899-.509-.114-.079-.626.467-.788.657-.129.205-.408,0-.408,0,0,0,1.812-2.007,2.165-2.441"/>
  <path d="M157.299,44.69c0-10.777-11.79-21.585-29.142-21.585s-29.114,10.808-29.114,21.585,11.782,21.606,29.114,21.606,29.142-10.829,29.142-21.606M110.488,55.252c0-1.032,2.075-2.096,2.058-3.016v-15.123c0-.775-2.159-1.112-2.159-2.564,0-.083.025-.183.047-.328.517-1.204,3.708-3.821,8.88-5.425,2.456-.721,5.34-1.267,8.651-1.316,1.704-.013,3.303.112,4.837.32,6.611.97,11.253,4.115,11.707,8.2.046.337.055.653.055,1.011,0,2.366-1.092,4.434-4.713,6.475v.05c4,1.871,5.63,5.62,5.608,8.421-.062,5.141-5.941,9.457-16.215,9.499-.725,0-1.445,0-2.116-.042-10.433-.537-16.64-5.149-16.64-6.162"/>
  <path d="M135.807,52.132c0-5.646-3.85-6.975-7.471-7-3.8.025-7.814,1.172-7.814,7,0,5.786,4.064,6.786,7.664,6.786h.271c3.787,0,7.351-1.712,7.351-6.786"/>
  <path d="M128.17,42.833c4.016-.022,6.936-1.567,6.936-6.357,0-4.604-2.783-6.288-6.936-6.308-3.805.02-6.954,1.899-6.954,6.308,0,4.97,3.12,6.336,6.954,6.357"/>
</svg>