<?xml version="1.0" encoding="utf-8"?>
<!-- Generator: Adobe Illustrator 16.0.0, SVG Export Plug-In . SVG Version: 6.00 Build 0)  -->
<!DOCTYPE svg PUBLIC "-//W3C//DTD SVG 1.1//EN" "http://www.w3.org/Graphics/SVG/1.1/DTD/svg11.dtd">
<svg version="1.1" id="Layer_1" xmlns="http://www.w3.org/2000/svg" xmlns:xlink="http://www.w3.org/1999/xlink" x="0px" y="0px"
	 width="227.333px" height="200px" viewBox="0 0 227.333 200" enable-background="new 0 0 227.333 200" xml:space="preserve">
<g>
	<path d="M76.05,156.271c-0.414-1.17-1.795-5.151-2.639-7.48c-0.866-2.334-2.256-6.623-2.486-7.362
		c-0.24-0.743-0.265-1.063-1.069-1.159c-0.79-0.076-2.857-0.222-3.896-0.123c-0.168,0.014-0.5,0.032-0.662,0.539
		c-0.148,0.518-1.735,5.341-2.392,7.327c-0.685,1.984-2.654,7.721-2.899,8.497c-0.258,0.777-2.002,5.986-2.313,6.877
		c-0.27,0.905-0.316,1.155,0.249,1.155c0.594,0,0.998,0.039,1.571,0.039c0.566,0,0.82,0.029,1.017-0.427
		c0.23-0.537,2.047-5.995,2.047-5.995h4.169c1.801,0,4.275-0.021,4.275-0.021s0.314,0.557,1.052,2.89
		c0.754,2.336,0.964,3.596,2.058,3.596h3.829c0.526,0,0.695-0.2,0.695-0.617c0-0.423-0.422-1.386-0.422-1.386
		S76.45,157.46,76.05,156.271 M66.836,155.582c-2.056,0-3.43-0.068-3.43-0.068s0.307-1.051,1.604-5.032
		c1.309-3.991,1.735-5.19,1.735-5.19s0.532,1.357,1.896,5.521c1.318,4.146,1.486,4.749,1.486,4.749S68.927,155.582,66.836,155.582"
		/>
	<path d="M136.233,156.271c-0.392-1.17-1.773-5.151-2.635-7.48c-0.849-2.334-2.243-6.623-2.463-7.362
		c-0.25-0.743-0.26-1.063-1.089-1.159c-0.809-0.076-2.847-0.222-3.896-0.123c-0.173,0.014-0.476,0.032-0.658,0.539
		c-0.162,0.518-1.719,5.341-2.399,7.327c-0.659,1.984-2.665,7.721-2.889,8.497c-0.26,0.777-2.014,5.986-2.297,6.877
		c-0.293,0.905-0.331,1.155,0.25,1.155c0.569,0,0.978,0.039,1.547,0.039c0.573,0,0.844,0.029,1.016-0.427
		c0.235-0.537,2.053-5.995,2.053-5.995h4.154c1.807,0,4.289-0.021,4.289-0.021s0.321,0.557,1.05,2.89
		c0.747,2.336,0.962,3.596,2.06,3.596h3.829c0.528,0,0.688-0.2,0.688-0.617c0-0.423-0.419-1.386-0.419-1.386
		S136.637,157.46,136.233,156.271 M127.032,155.582c-2.065,0-3.431-0.068-3.431-0.068s0.307-1.051,1.605-5.032
		c1.313-3.991,1.734-5.19,1.734-5.19s0.542,1.357,1.884,5.521c1.337,4.146,1.505,4.749,1.505,4.749S129.107,155.582,127.032,155.582
		"/>
	<path d="M88.166,140.858c0-0.68-1.173-0.657-1.839-0.657c-0.661,0-1.591-0.014-2.487-0.014c-0.93,0-1.184,0.418-1.184,1.428
		c0,1.012,0.052,5.55,0.052,7.506c0,1.96,0.086,12.979,0.086,14.225c0,1.25,0.563,1.334,1.448,1.345
		c0.891,0.014,2.204-0.048,3.095-0.048c0.868,0,0.988-0.488,0.988-1.61c0-1.125-0.062-9.296-0.062-11.068
		C88.264,150.19,88.166,141.54,88.166,140.858"/>
	<path d="M112.967,140.183c-0.877,0-1.758,0.019-2.371,0.019c-0.628,0-1.765-0.022-1.765,0.657c0,0.57-0.066,6.666-0.066,9.72
		c0,0-1.711,0.029-4.264,0.029c-2.562,0-3.797-0.029-3.797-0.029c-0.038-3.054-0.101-9.149-0.101-9.72
		c0-0.68-1.136-0.657-1.764-0.657c-0.609,0-1.514-0.019-2.385-0.019c-0.883,0-1.123,0.423-1.123,1.433
		c0,1.012,0.065,5.55,0.065,7.506s0.045,12.979,0.045,14.219c0,1.246,0.579,1.336,1.408,1.356c0.849,0.004,2.123-0.054,2.953-0.054
		c0.828,0,0.946-0.488,0.946-1.619c0-0.934-0.036-6.843-0.046-9.767c0,0,2.626-0.015,3.762-0.015c1.126,0,4.265,0.015,4.265,0.015
		c0,2.924-0.032,8.833-0.032,9.767c0,1.131,0.096,1.619,0.933,1.619c0.825,0,2.101,0.058,2.952,0.054
		c0.84-0.021,1.396-0.097,1.396-1.356c0-1.24,0.03-12.259,0.03-14.219c0-1.956,0.09-6.494,0.09-7.506
		C114.099,140.605,113.839,140.183,112.967,140.183"/>
	<path d="M155.242,140.534c-0.711-0.05-5.379-0.14-6.399-0.144c-0.979-0.029-4.846-0.029-5.587-0.015
		c-0.729,0.015-5.427,0.076-5.785,0.076c-0.346,0-0.514,0.406-0.514,1.264c0,0.879,0.067,1.41,0.547,1.41
		c0.465,0,4.109,0.009,5.09,0.029c0.498,0.004,0.705,0,0.838,0c0.139,0,0.332-0.021,0.332,0.123c0,0.153,0.09,3.581,0.09,4.889
		c0,1.31-0.058,4.807-0.058,6.198c0,1.397,0.092,5.999,0.092,6.583c0,0.571,0.01,1.975,0.066,2.74c0.033,0.762,0,0.926,0.34,0.991
		c0.369,0.089,1.75,0.226,2.719,0.275c0.996,0.043,2.257,0.229,2.257-1.155c0-1.396-0.01-6.096-0.01-6.537
		c0-0.449-0.034-5.219-0.034-5.636v-5.66v-2.496c0-0.233,0.073-0.291,0.337-0.291c0.271,0,2.956,0.058,4.001,0.058h1.679
		c0.247,0,0.54,0.069,0.577-0.333c0.059-0.406,0.111-1.231,0.13-1.638C155.965,140.858,155.931,140.571,155.242,140.534"/>
	<path d="M161.197,145.367c0-1.408,1.02-2.601,3.428-2.601c3.676,0,4.661,1.667,5.346,1.667c0.202,0,0.352-0.187,0.352-0.445v-1.802
		c0-0.359-0.096-0.579-0.754-0.897c-0.67-0.313-2.597-0.928-5.199-0.928c-3.229,0-7.26,0.973-7.26,6.362
		c0,7.338,10.188,8.411,10.188,13.615c0,0.955-0.399,2.444-3.009,2.444c-4.563,0-5.635-1.547-6.632-1.547
		c-0.308,0-0.369,0.578-0.369,1.079v0.985c0,0.316,0.015,0.706,0.633,0.896c0.604,0.197,3.658,1.035,5.966,1.035
		c3.432,0,7.859-1.347,7.859-6.509C171.745,151.401,161.197,149.542,161.197,145.367"/>
	<path d="M192.355,140.848c-0.526,0-1.369-0.026-1.709-0.026c-0.345,0-0.427,0.224-0.427,0.693c0,0.484,0.047,2.904,0.047,4.477
		c0.028,2.972,0.116,10.198,0.116,12.111c0,4.9-3.672,4.9-4.64,4.9c-5.085,0-4.668-4.605-4.668-7.093
		c0-1.358-0.004-4.406-0.004-5.328c0-0.939,0.028-5.938,0.028-7.854c0-1.935-0.498-2.013-0.996-2.013
		c-0.504-0.019-1.036-0.029-1.678-0.029c-0.643,0-1.126,0.064-1.859,0.064c-0.724,0-0.79,0.353-0.79,0.833
		c0,0.47,0.081,11.711,0.081,15.766c0,4.039,2.577,8.029,10.126,8.029c7.514,0,7.366-5.576,7.366-7.093v-7.305
		c0-6.863-0.082-9.373-0.082-9.749C193.268,140.854,192.927,140.848,192.355,140.848"/>
	<path d="M43.925,140.029h-8.181c-0.68,0-1.093,0.032-1.093,0.792c0,0.766,0.029,7.931,0.029,12.062c0,4.121,0.1,10.083,0.1,10.658
		c0,0.581,0.015,0.848,1.433,0.938c1.425,0.063,6.906,0.015,8.545,0.015c6.677,0,10.079-4.786,10.079-11.668
		C54.837,141.458,48.468,140.029,43.925,140.029 M43.145,161.983c-1.386,0-3.034-0.091-3.034-0.091v-18.604
		c0-0.609,0.513-0.55,0.838-0.55h1.922c2.971,0,6.519,0.072,6.519,9.408C49.389,161.495,46.201,161.983,43.145,161.983"/>
	<path d="M34.651,128.553H193.35v-93.93H34.651V128.553z M53.897,57.424l36.205,36.093c0,0,88.89-7.821,88.89-17.172
		c0-5.636-39.687-10.586-59.123-12.173c-17.378-1.424-36.576-1.336-36.576-1.336l26.89,26.818L91.02,91.608L56.726,57.424
		c0,0,22.403-1.379,63.144,2.276c40.758,3.666,63.354,9.889,63.354,16.429c0,17.388-110.349,34.394-110.349,34.394l9.863-15.361
		L44.935,57.851L53.897,57.424z"/>
</g>
</svg>
