<?xml version="1.0" encoding="utf-8"?>
<!-- Generator: Adobe Illustrator 16.0.0, SVG Export Plug-In . SVG Version: 6.00 Build 0)  -->
<!DOCTYPE svg PUBLIC "-//W3C//DTD SVG 1.1//EN" "http://www.w3.org/Graphics/SVG/1.1/DTD/svg11.dtd">
<svg version="1.1" id="Layer_1" xmlns="http://www.w3.org/2000/svg" xmlns:xlink="http://www.w3.org/1999/xlink" x="0px" y="0px"
	 width="300px" height="119px" viewBox="0 0 300 119" enable-background="new 0 0 300 119" xml:space="preserve">
<g>
	<path d="M48.787,84.348h43.487c9.126,0,14.905-4.637,14.905-13.12V53.477H71.568v11.044h23.396v4.516
		c0,2.937-1.615,3.729-3.729,3.729h-39.98c-2.91,0-3.824-1.498-3.824-3.854V49.641c0-2.564,1.419-3.412,2.986-3.412h56.763V34.652
		H48.667c-9.01,0-13.767,5.502-13.767,13.668v22.461C34.9,79.265,39.947,84.348,48.787,84.348"/>
	<polygon points="127.396,46.651 147.414,84.348 158.993,84.348 178.973,46.651 178.973,84.348 191.549,84.348 191.549,34.652 
		172.239,34.652 153.188,70.34 134.133,34.652 114.863,34.652 114.863,84.348 127.396,84.348 	"/>
	<path d="M198.8,48.32v22.461c0,8.483,5.048,13.566,13.86,13.566h52.44v-12.51h-49.933c-2.909,0-3.846-1.484-3.846-3.836V50.557
		c0-2.525,1.437-3.432,3.008-3.432h50.771V34.652H212.55C203.558,34.652,198.8,40.154,198.8,48.32"/>
</g>
</svg>
