<?xml version="1.0" encoding="utf-8"?>
<!-- Generator: Adobe Illustrator 28.2.0, SVG Export Plug-In . SVG Version: 6.00 Build 0)  -->
<svg version="1.1" id="Calque_2" xmlns="http://www.w3.org/2000/svg" xmlns:xlink="http://www.w3.org/1999/xlink" x="0px" y="0px"
	 viewBox="0 0 200 200" style="enable-background:new 0 0 200 200;" xml:space="preserve">
<style type="text/css">
	.st0{fill-rule:evenodd;clip-rule:evenodd;}
	.st1{fill:none;stroke:#FFFFFF;stroke-width:0.662;stroke-miterlimit:33.89;}
	.st2{fill-rule:evenodd;clip-rule:evenodd;fill:#FFFFFF;}
</style>
<g>
	<path class="st0" d="M165,100c0,35.9-29.1,65-65,65c-35.9,0-65-29.1-65-65c0-35.9,29.1-65,65-65C135.9,35,165,64.1,165,100L165,100
		z"/>
	<path class="st1" d="M159.1,100c0,32.7-26.5,59.1-59.1,59.1c-32.7,0-59.1-26.5-59.1-59.1c0-32.7,26.5-59.1,59.1-59.1
		C132.7,40.9,159.1,67.3,159.1,100L159.1,100z"/>
	<path class="st2" d="M68.9,75.2c1.2,2.8,3.4,6,7.2,6c2.5,0,5.5-1.7,7-1.7c2.4,0,3.8,0.7,4.4,1.3c-1.2-2.7-3.8-3.6-5.3-3.6
		c-2,0-4.3,1.1-7.2,1.1S70.1,76.3,68.9,75.2L68.9,75.2z"/>
	<path class="st2" d="M89.8,64.2c-0.9,0.7-1.8,2.1-2,3.4c-1.9-1.1-3.7-1.7-5.2-1.7c-3.2,0-7,2.5-7.3,10.5c3.2-1.5,5.2-2,6.6-2
		c1.2,0,2,0.2,2.6,0.9c1.4,1.9,3,2.3,4,2.5c0.7,0.4,1.9,0.7,3.1,1.4c-2.6,3.4-5.2,4.3-7.2,4.3c-2.1,0-3.6-0.8-5.1-2
		c-0.2,4.4,1.3,7.2,6.2,7.5c-2,3-2.6,7.2-2.1,11c1.3-2.6,2.6-4,4.6-4.7c-1.4,2.3-2.1,4.5-2.1,6.6c0,5.3,4,8.5,5.3,9.6
		c0.5-4,1.8-7.2,2.8-8.9c0.5,7.6-0.4,13.7-1.3,16.1c5.6-1.3,9.2-3.4,11.9-6.9c1.3-2.7,1.4-6.6,1.3-10.2c1.3,1.7,2.8,4.3,3.4,6
		c3.4-2.1,4.9-5.5,4.9-9.2c0-1.4-0.4-3.4-0.6-4.4c1.2,0.9,2.1,2,3.1,3.6l0.7-1.5c0.8-1.9,1.2-4,1.2-6c0-2.8-0.6-5.2-2.4-8.1
		c1.2,0.2,3.1,1.1,4,1.8c0.7-5.8-0.6-10.3-4-13.7c0.7-1.3,1.4-2.5,2.4-4.7c-0.2-0.2-0.9-0.4-0.9-0.4c-0.2-0.1-0.8-0.2-1.9-0.2
		c-0.9,0-2.4,0.1-3.8,0.7c-0.4-0.6-0.8-1.1-1.2-1.5l6.6-15.9c-2.8,0-5.7,1.2-5.7,3.6c0,0.7,0.2,1.5,0.9,2.4c0,0.1-0.1,0.1-0.2,0.1
		h-0.1c-0.5-0.6-1.2-0.9-1.9-0.9c-1.5,0-2.7,1.3-2.7,2.7c0,1.5,1.2,2.7,2.7,2.7c0.1,0,0.4,0,0.5-0.1c-1.4,1.4-2.8,1.9-4.3,1.9
		c-2.5,0-4.5-1.9-4.9-3.1c0.5,0.4,1.1,0.6,1.8,0.6c1.4,0,2.6-1.2,2.6-2.7c0-1.4-1.2-2.7-2.6-2.7c-0.5,0-0.9,0.1-1.3,0.4
		c0.5-0.5,0.7-1.2,0.7-1.9c0-1.4-1.2-2.6-2.6-2.6c-1.5,0-2.7,1.2-2.7,2.6c0,0.8,0.4,1.5,0.8,2c-0.4-0.2-0.9-0.5-1.4-0.5
		c-1.5,0-2.7,1.3-2.7,2.7c0,1.5,1.2,2.7,2.7,2.7c0.6,0,1.2-0.2,1.5-0.5c-1.1,2.1-3,2.7-4.7,2.7c-2.1,0-4-0.9-4.1-1.7
		c0.1,0.1,0.4,0.1,0.5,0.1c1.5,0,2.7-1.2,2.7-2.7c0-1.4-1.2-2.7-2.7-2.7c-0.7,0-1.4,0.4-1.9,0.9H88c-0.1,0-0.1,0-0.1-0.1
		c0.6-0.8,0.8-1.7,0.8-2.4c0-2.4-2.8-3.6-5.7-3.6L89.8,64.2L89.8,64.2z"/>
	<path class="st0" d="M93.7,70.2c0.4,0,0.8,0,1.2,0.1c-0.5,2.1-2,2.5-3.1,2.5c-1.3,0-2.7-0.6-2.7-2.6c0.2,0.1,0.6,0.1,0.8,0.1
		c0.2,0.6,0.7,1.3,1.9,1.3C93,71.6,93.6,70.8,93.7,70.2L93.7,70.2z"/>
	<path class="st0" d="M87.5,69.7c-0.2,1.7,0.5,4.6,4.4,4.6c1.4,0,3.7-0.7,4.4-3.8c0.2,0,0.5,0.1,0.7,0.2c0.4-0.4,0.6-0.7,0.8-1.3
		c-1.3-0.8-3.4-0.9-4.7-0.9c-0.8,0-1.5,0.1-2.3,0.1c-0.6,0-1.3-0.1-1.8-0.2c0.4-1.4,0.9-2.7,1.7-2.7h19.2c0.1,0.1,0.4,0.4,0.4,0.6
		c-1.8,1.1-3.4,2.6-4.9,4.5c0.2,0.4,0.8,0.8,1.3,1.1c3.3-4.4,7-5.2,9.2-5.1c-3.4,7-10.2,9.5-15.8,10.1c4.7,1.8,7.9,4.5,4.9,9.7
		c-1.1-2.6-2.6-4.1-5.6-5.7c2,6,0.5,9.4-1.4,11.3c-0.1-1.3-0.6-4.1-1.4-6.2c-0.8,1.2-1.8,2.3-2.7,3c-0.1,0.7,0,1.8,0.1,2.3
		c0.7-0.5,1.4-1.1,1.8-1.5c0.4,1.8,0.7,3.7,0.5,5.8c5.6-2.6,6.2-7.6,5.9-10.2c1.3,1.5,1.9,3.3,2.3,5.3c3.9-4.7,5.1-9.6,0.9-12.9
		c4.7-1.7,7.1-3.3,9.6-6.2c2.8,2.8,3.6,6.5,3.4,9.6c-1.7-0.6-3.3-1.1-6.3-1.1c1.9,1.8,4.5,5.2,4.5,10.1c0,1.4-0.2,2.7-0.6,4
		c-1.7-1.8-3.6-2.7-5.7-3.6c0.9,2.3,1.9,4.9,1.9,8.1c0,2.7-0.8,4.9-2.4,6.4c-1.2-2.5-3.4-5.6-6.2-7.2c0.5,5,0.4,11-0.8,13.3
		c-2.1,2.7-4.7,4.1-7.7,5.2c0.6-3.1,1.1-10.9,0-18c-1.7,1.5-4.3,4.7-5.3,9.8c-0.9-1.1-2.4-2.8-2.4-6c0-3.1,1.7-6.2,4.5-9.2
		c-2.4,0.1-4.6,0.5-6.9,2.1c0.5-3.9,2.6-6.4,5.1-8.3c-2.4,0.5-3.6,0.7-4.7,0.7c-1.5,0-3.4-0.5-4-2.4c0.7,0.2,1.8,0.5,2.8,0.5
		c2.5,0,5.6-1.1,8.7-5.2c0.4-0.4,0.5-0.7,0.5-0.9c0-1.5-3.2-2.7-5.1-3.2c-0.2-0.1-1.5-0.4-2.5-1.8c-1.1-1.1-2.4-1.5-4-1.5
		c-1.3,0-2.7,0.4-4.5,0.9c0.5-2.3,1.8-5.8,5.2-5.8C84,67.9,85.6,68.5,87.5,69.7L87.5,69.7z"/>
	<path class="st2" d="M81.2,127.1h-7c0-1.9-1.2-2.1-2.8-2.1c-1.5,0-2.5,0.5-2.5,1.5c0,1.2,0.8,1.5,3.3,1.5c6.3,0,9,1.2,9.5,4l4-10
		h8.9l4.4,10.7l4.4-10.7h8.9l4.9,11.9v-11.9h14.2c3.6,0,4.5,2.6,4.5,4c0,1.4-0.6,3.3-3.3,3.7c3.1,0.4,3.8,2.7,3.8,4.1
		c0,1.7-1.2,4.4-4.4,4.4h-19.2l-1.1-2.6h-7.8l-1.1,2.6h-7.6l-1.1-2.6h-7.9l-0.9,2.6h-6.2l0.6-1.4c-0.9,0.8-2.6,1.8-8.1,1.8
		c-5.3,0-10-1.1-10.1-5.5h7c0,1.1,0.7,2.1,3,2.1c2.7,0,3-0.9,3-1.5c0-1.1-0.7-1.8-4-1.8c-4.9,0-8.3-0.8-8.3-4.7
		c0-4.5,5.1-5.5,9.2-5.5C76.5,121.9,81.2,122.7,81.2,127.1z M110.2,131.9l-2.5-5.9l-2.4,5.9H110.2z M92.6,131.9l-2.4-5.9l-2.5,5.9
		H92.6z M129.1,127.2c0-0.7-0.5-1.2-1.1-1.2h-5.1v2.4h5.1C128.6,128.4,129.1,127.8,129.1,127.2z M128.4,134.1c0.6,0,1.1-0.5,1.1-1.2
		c0-0.6-0.5-1.1-1.1-1.1c0,0,0,0,0,0h-5.5v2.3H128.4z"/>
	<path class="st0" d="M109.2,64H91.1l-0.8-1.9H110L109.2,64L109.2,64z"/>
</g>
</svg>
