<?xml version="1.0" encoding="utf-8"?>
<!-- Generator: Adobe Illustrator 28.2.0, SVG Export Plug-In . SVG Version: 6.00 Build 0)  -->
<svg version="1.1" id="Layer_1" xmlns="http://www.w3.org/2000/svg" xmlns:xlink="http://www.w3.org/1999/xlink" x="0px" y="0px"
	 viewBox="0 0 200 200" style="enable-background:new 0 0 200 200;" xml:space="preserve">
<style type="text/css">
	.st0{fill:#FFFFFF;}
</style>
<g>
	<path class="st0" d="M101.2,32.4c6.1,4.7,13.6,8.5,22.4,11.2c7.6,2.3,16.2,3.9,25.5,4.6l1.6,0.1v20h24.2v43.4H160l-1.5,1.5
		l-3.6,3.2c-16.3,14.5-39.1,31.9-54.5,32.6h-0.1h-0.1c-11.9-0.4-31.9-12.2-54.9-32.4l-3.5-3.1l-1.8-1.9H24.7V68.3h24.7v-20l1.6-0.1
		c19.6-0.9,34.4-5.8,48.2-15.9l1-0.8L101.2,32.4L101.2,32.4z"/>
	<path d="M100.2,33.8c13.4,10.4,31.5,14.8,48.8,16.2v14.1c-3.7-0.2-6.6,3.6-6.6,6l30.8,0v40h-28.6c0.7,3.7,5.6,5.3,9.2,5.1
		c-19,16.9-39.9,31.6-53.5,32.2c-12.3-0.4-33.2-13.9-53.9-32c8.6,0.1,9.3-5.4,9.3-5.4l-29.4,0V70h30.7c-0.2-2.9-2.8-5.7-6-6V49.9
		C69.4,49.1,85.2,44.7,100.2,33.8L100.2,33.8z"/>
	<path class="st0" d="M145.4,53c0,2.5,0,6,0,8.8c-3.4,0.7-6.8,5.3-6.8,8.2c-2,0-2.8,0-2.8,0c0.3-5.5,3.3-8.2,6.8-10
		c0-1.7,0-2.7,0-4.4c-14.7-0.4-31.7-6.7-42.4-13.9c-9.7,6.5-27.9,13.5-42.8,13.9c0,1,0,2.9,0,4.4c3.9,2,6.2,5.8,6.4,10
		c-1.5,0-2.1,0-2.9,0c-0.6-4.4-3.1-6.7-6.2-8.4c0-2.8,0-5.5,0-8.4c16.8-0.9,35.6-7.4,45.3-15C109.4,45.9,128.9,51.7,145.4,53
		L145.4,53z"/>
	<g>
		<path class="st0" d="M93.3,54.6c-0.2-3.9-1.1-4.9-6.8-2.1c-3.7,1.8-4.5,1.7-4.6,4.9V66c0,4.1,1.4,4,5.4,4c5,0,5.9,0,6-2.9
			C93.3,65.1,93.3,60,93.3,54.6z M90.1,66c0,0.6-0.3,0.7-0.7,0.8c-0.9,0-2.4,0-3.5,0c-0.7,0-0.9-0.6-0.9-1.1c0-2.4-0.2-8,0.6-8.8
			c0.3-0.3,4.5-2.7,4.5-0.7C90.1,56.1,90.1,65.4,90.1,66z"/>
		<path class="st0" d="M73.3,62.8l-2.6-5.7c-1,0.2-1.5,0.3-3.3,0.6V70l3.4,0l0.1-4.9c1,1.3,1.8,3.1,2.6,4.7c0.8-1.5,1.6-3.6,2.5-5.3
			c0.4,0.5,0.4,3.6,0.4,5.5v0h3.3V55.2C77,55.7,77,55.7,76.1,56L73.3,62.8z"/>
		<path class="st0" d="M93.6,49.3l0,3.7l4.6-2.3c0,0,0,13,0,19.3h3.7V50.7l4.7,2.3l0-3.7c0,0-5.5-2.6-6.7-3.5
			C98.9,46.6,93.6,49.3,93.6,49.3z"/>
		<path class="st0" d="M132,65c1.4-0.5,1.8-5.1,0.2-6.9c-0.9-1-6.1-1.8-10.6-2.8V70h3.2v-3.9c1.6,0,1.2,0,2.6,0
			c1.9,0,2.6,0.1,2.6,3.9h3.2C133.1,70,133.4,66.2,132,65z M128.9,63.1c-1.5-0.1-2-0.1-4.1-0.2l0-3.4c1.8,0.2,4.4,0.5,4.7,0.9
			C129.8,60.8,130.1,63.1,128.9,63.1z"/>
		<path class="st0" d="M113.7,52.4c-2.9-1.1-6.7-3.1-6.7,1.5c0,3.5,0,12.8,0,12.8c0,3.2,1.9,3.2,6.1,3.2c4.5,0,5.6,0,5.6-3.2
			c0,0,0-8.5,0-10.3C118.8,53.9,116.4,53.5,113.7,52.4z M115.6,65.5c0,1.5-1.4,1.3-2.4,1.3c-1.4,0-2.7,0.2-2.7-2.3c0,0,0-4.8,0-7.8
			c0-1.7,1-1.4,2.6-1c1,0.3,2.5,0.3,2.5,2.1C115.6,61.2,115.6,62.4,115.6,65.5z"/>
	</g>
	<polygon class="st0" points="30.1,73.8 169.6,73.8 169.6,106.1 30.1,106.1 	"/>
	<polygon points="33.2,76.5 166.9,76.5 166.9,103.6 33.2,103.6 	"/>
	<g>
		<path class="st0" d="M42.5,87.7h-2.2v-7.8h-3.1v20.4h3.1l0-8.5c0.9,0,1.3,0,2.2,0v8.5h3.1V79.9h-3.1
			C42.5,79.9,42.5,87.7,42.5,87.7z"/>
		<path class="st0" d="M69.3,96.9L69.3,96.9l0-17H66v20.4h6.3v-3.4C71.2,96.9,70.4,96.9,69.3,96.9z"/>
		<path class="st0" d="M73,100.3h6.3v-3.4c-1.2,0-1.9,0-3,0v-5.4h3.1v-3.6c-1.1,0-1.8,0-3.1,0v-4.8h3.1v-3.2H73V100.3z"/>
		<rect x="88.3" y="88.9" class="st0" width="5.6" height="2.5"/>
		<path class="st0" d="M103.4,83.4c0-2.4-1.1-3.5-2.7-3.5c-2.1,0-3,0-5.3,0v20.4c1.8,0,3.3,0,4.4,0c2.5,0,3.6-2,3.7-3.6
			C103.4,93,103.3,87.7,103.4,83.4z M99.5,96.9c-0.7,0-0.6,0-1.1,0l0-13.9c0,0,1.8-0.4,1.8,1c0,0.8,0,9.5,0,12
			C100.3,96.5,99.9,96.9,99.5,96.9z"/>
		<path class="st0" d="M88.9,79.9h-3c-0.7,2.3-0.9,4.3-1.5,6.7c-0.6-2.4-1-4.5-1.4-6.7c-1,0-1.7,0-3.2,0c0.8,4,2,8,3,12
			c0,2.6,0,4.9,0,8.3h3.1c0-3.2,0-4.9,0-8.2C86.9,87.9,88,84.2,88.9,79.9z"/>
		<path class="st0" d="M63.3,89.9c1.6-1.6,1.5-3.4,1.5-4.4c0-2.1-0.3-5.6-3.3-5.6c-3.4,0-3.8,0-5.2,0l0,20.4h3.3v-7.9h0.5
			c0.7,0,1.5,0.1,1.5,1.4c0,1.5,0,4.3,0,5.6c0,0.6,0.9,0.9,1.2,0.9h2c0-2.6,0-4.4,0-6.6C64.8,91.6,64.3,90.8,63.3,89.9z M61.4,87.5
			c0,0.8-0.4,1-0.7,1.1h-1.2v-5.4c1.2,0,1.9,0,1.9,1.1C61.5,85.2,61.5,86.6,61.4,87.5z"/>
		<path class="st0" d="M53.2,79.9h-4.7c-0.7,7-1.4,13.7-2.1,20.4h2.9l0.6-4.9H52c0.2,1.2,0.4,3.1,0.6,4.9h2.8
			C54.7,93.2,54,86.5,53.2,79.9L53.2,79.9L53.2,79.9z M50.4,91.4l0.4-7.4c0.4,2.6,0.6,4.8,0.8,7.4H50.4z"/>
		<path class="st0" d="M141.2,89.1c-1.4-1-2.8-1.5-2.8-4.2c0-0.9-0.2-2.1,0.9-2.1c1.2-0.1,1.2,1.6,1.2,4.1l3.1,0v-4
			c0-2-1.2-3.5-3.9-3.5c-4.7-0.1-4.2,4.3-4.2,7.2c0,3.2,2.6,4.2,4,5.2c0.7,0.5,1.3,1.2,1.3,3.2c0,1.8-0.3,2.4-1.1,2.4
			c-1.3,0-1.2-1.2-1.2-1.8c0-0.5,0-2.1,0-3.1c-0.6,0-2.6,0-3.1,0c0,6.4,0.5,8,4.2,8c3.2,0,4.2-2.3,4.2-5.2
			C143.7,91.4,143,90.5,141.2,89.1z"/>
		<path class="st0" d="M131,79.7c-1.7,0-3.6,0-4.9,0v20.5c1.1,0,2.8,0,4.2,0c2.6,0,3.9-1.1,3.9-3.3V83.3
			C134.3,80.6,132.6,79.7,131,79.7z M131.4,95.9c0,0.9-0.2,1-2,1V83c0,0,0.5,0,1,0c0.5,0,1,0.5,1,1.1
			C131.4,87.6,131.4,95.9,131.4,95.9z"/>
		<path class="st0" d="M149,79.2c-1.7,0-4.3,0.4-4.3,4.3c0,5.5,0,10.2,0,13.1c0,3,2.2,4,4,4c2.1,0,4.2-1.8,4.2-4c0,0,0-11.2,0-13.1
			C152.9,79.8,150.6,79.2,149,79.2z M149.8,96.1c0,1.9-2.2,1.5-2.2-0.3c0-4.7,0-9.5,0-12.2c0-1.4,2.2-1.4,2.2,0
			C149.8,84.8,149.8,91.4,149.8,96.1z"/>
		<path class="st0" d="M159.9,79.7l0.1,9.4c-0.7-3.1-1.3-6.2-2-9.4h-3.9V100h3.2l-0.1-11.2c0.8,3.8,1.4,7.4,2.1,11.2h3.6V79.7H159.9
			z"/>
		<path class="st0" d="M116.6,91.8c-0.4-4-0.8-8.1-1.2-12.1h-3.1l2.7,20.4h3.3l2.8-20.4h-3C117.6,83.3,116.6,91.8,116.6,91.8z"/>
		<path class="st0" d="M106.3,79.7c-0.7,6.7-1.8,13.7-2.4,20.4h2.9l0.6-4.9c0.7,0,1.4,0,2.2,0c0.3,1.7,0.4,3.3,0.8,4.9h2.9
			l-2.5-20.4C110.7,79.7,106.3,79.7,106.3,79.7z M107.7,91.4l0.7-7.3c0.4,2,0.6,5.3,0.7,7.3H107.7z"/>
		<polygon class="st0" points="121.7,79.7 121.7,100.2 124.8,100.2 124.8,79.7 		"/>
	</g>
	<path class="st0" d="M62.9,110c0,3.4-1.5,5.7-3.6,7.5c13.6,12.2,32,22.6,41,23.2c9.2-0.6,27.1-11.7,40.7-23.3
		c-2.7-2.4-3.5-4.5-3.5-7.4c1.3,0,1.9,0,2.7,0c0.2,3.5,4,6.4,5.5,7.1c-20.1,16.6-32.8,24.7-45.6,26.4c-13.4-1.9-26.3-9.9-45.7-26.2
		c2.7-1.2,5.4-4,5.4-7.2H62.9L62.9,110z"/>
	<g>
		<path class="st0" d="M78.6,110c-1.6,0-4.2-0.1-4.2,1.8c0,3.2,0,10.1,0,11.7c0,2.3,1.3,2.7,3.4,4.2c2.2,1.5,2.8,1.9,3.7,2.1
			c0.6,0.1,1.5-0.5,1.5-2.2c0-4.8,0-15,0-15C83.1,109.9,81.5,110,78.6,110z M80.2,124c0,1.8-1.2,1-1.6,0.7c-0.3-0.2-1.4-0.6-1.4-1.9
			c0-2.5,0-6.8,0-8.9c0-0.9,0.9-1,1.3-1c1.1,0,1.7-0.2,1.8,1.1C80.2,117.8,80.2,120.6,80.2,124z"/>
		<path class="st0" d="M90.5,121c-0.7-2.6-2.8-9.8-2.8-9.8s-0.2-1.1-1-1.1c-0.6,0-1.5,0-2.3,0v21.6c1.1,0.7,1.6,1,2.7,1.4
			c0-4.6,0-9,0-13.1h0.3c0.9,3.2,2.4,7.5,3.2,9.9c0.9-2.7,1.7-5.7,2.5-8.4l0.3,0l0,14.4l2.9,1.1v-27h-2.9
			C92.4,113.7,91.7,116.9,90.5,121z"/>
		<path class="st0" d="M72.5,110h-3.9c-0.9,0-1.9,0.9-1.9,1.9c0,2.2,0,5.2,0,7.3c0,1.2,4.2,4,6.3,5.2c0-1.2,0-1.8,0-3.4
			c-1.4-1-3.4-1.8-3.4-2.7c0-2.5,0-4.1,0-5.2c0.4,0,3,0,3.2,0c0,0,0.4,0,0.4-0.5c0-0.4,0-1.9,0-1.9C73.2,110.2,73,110,72.5,110z"/>
		<path class="st0" d="M134.5,110c-0.8,0-1.8,0-2.7,0l-1.6,6c-0.5-1.7-0.8-4.3-1.3-6c-0.8,0-2.4,0-3,0c0.9,2.7,1.9,5.5,2.9,8.3
			c0,1.8,0,3,0,5.5c0.9-0.6,2-1.5,2.7-2c0-0.9,0-3,0-4.5C132.2,115.6,133.7,112.5,134.5,110z"/>
		<path class="st0" d="M113,110h-3.4l-4.4,26.6c2-0.6,2.7-0.9,3.4-1.3c0.3-2.3,0.7-4.9,1-6.6c1.1-0.4,2.2-0.7,3.4-1
			c0.3,1.6,0.5,3.4,0.8,5.1c1.2-0.4,2.1-1,2.8-1.4C115.6,124.3,114.4,117.3,113,110L113,110L113,110z M110.1,125.3
			c0,0,1-8.2,1.3-8.2c0.3,0,1.1,7.5,1.1,7.5C111.7,125,111.2,125.1,110.1,125.3z"/>
		<path class="st0" d="M122.2,110v8.7H122c0,0-1.2-5.5-2.1-8.7H117v21.2l3-1.8l-0.1-9.9c1.1,3.1,1.7,5.3,2.6,8.2
			c0.9-0.5,1.7-1,2.6-1.7c0-5.3,0-10.6,0-16L122.2,110L122.2,110z"/>
		<path class="st0" d="M106.8,122.7l0-9.8c0-1.3-0.7-2.9-2.7-2.9c-1.6,0-4,0-6.2,0v27.3c1.8,0.8,2.3,0.9,3.2,0.2l0-11.1
			C105.3,125.9,106.6,125.8,106.8,122.7z M101.1,123.3V113h1.5c0.5,0,0.9,0.3,0.9,1.1c0,2,0,5.6,0,7.9
			C103.5,122.8,103,123.2,101.1,123.3z"/>
	</g>
	<path d="M153.4,111.9c0.2,0.2,0.3,0.5,0.3,0.7c0,0.3-0.1,0.5-0.3,0.8c-0.2,0.2-0.5,0.3-0.7,0.3c-0.3,0-0.5-0.1-0.7-0.3
		c-0.2-0.2-0.3-0.5-0.3-0.8c0-0.3,0.1-0.5,0.3-0.7c0.2-0.2,0.5-0.3,0.7-0.3C152.9,111.6,153.2,111.7,153.4,111.9L153.4,111.9z
		 M153.5,111.7c-0.2-0.2-0.5-0.4-0.9-0.4c-0.3,0-0.6,0.1-0.9,0.4c-0.2,0.2-0.4,0.5-0.4,0.9c0,0.3,0.1,0.6,0.4,0.9
		c0.2,0.2,0.5,0.4,0.9,0.4c0.3,0,0.6-0.1,0.9-0.4c0.2-0.2,0.4-0.5,0.4-0.9C153.9,112.3,153.7,112,153.5,111.7L153.5,111.7z
		 M152.8,112.6c-0.1,0-0.1,0-0.2,0h-0.2v-0.5h0.2c0.1,0,0.2,0,0.3,0.1c0.1,0,0.1,0.1,0.1,0.2C153,112.4,152.9,112.5,152.8,112.6
		L152.8,112.6z M152.1,113.3h0.2v-0.5h0.2c0.1,0,0.2,0,0.3,0c0.1,0.1,0.1,0.2,0.1,0.3v0.1l0,0c0,0,0,0,0,0c0,0,0,0,0,0h0.2l0,0
		c0,0,0,0,0-0.1c0,0,0-0.1,0-0.1V113c0-0.1,0-0.1-0.1-0.2c0-0.1-0.1-0.1-0.2-0.1c0.1,0,0.1,0,0.2-0.1c0.1-0.1,0.1-0.1,0.1-0.3
		c0-0.2-0.1-0.3-0.2-0.3c-0.1,0-0.2,0-0.4,0h-0.5L152.1,113.3L152.1,113.3L152.1,113.3z"/>
</g>
</svg>
