<?xml version="1.0" encoding="UTF-8"?>
<svg id="Layer_1" xmlns="http://www.w3.org/2000/svg" version="1.1" viewBox="0 0 158 157.214">
  <!-- Generator: Adobe Illustrator 29.5.1, SVG Export Plug-In . SVG Version: 2.1.0 Build 141)  -->
  <path d="M108.216,12.916h-57.333L13.558,50.238v56.882l37.03,37.18h57.03l37.324-37.324v-57.031L108.216,12.916h0ZM133.6,101.897l-31.053,31.052h-46.585l-31.053-30.908v-46.723l31.053-30.909h47.181l30.457,30.609v46.879h0Z"/>
  <path d="M51.352,63.676l-7.912-16.121-11.795,11.043v39.561l11.351,11.493v-38.519l9.851,21.947,11.199-29.267v61.365h12.541V31.727h-13.288l-11.946,31.949ZM85.357,31.727v93.466h14.336l27.169-27.021v-19.709h-20.904v11.35h7.763c2.086-.301,2.237,2.088.745,3.882-1.491,1.793-16.574,16.571-16.574,16.571v-63.608l17.615,18.361v4.477h11.351v-10.446l-26.877-27.322h-14.623Z"/>
</svg>