<?xml version="1.0" encoding="UTF-8"?>
<svg id="Layer_1" xmlns="http://www.w3.org/2000/svg" version="1.1" viewBox="0 0 243.961 153.888">
  <!-- Generator: Adobe Illustrator 29.5.1, SVG Export Plug-In . SVG Version: 2.1.0 Build 141)  -->
  <path d="M43.653,40.748c-4.213,6.414-5.602,13.318-3.268,20.795,1.883,5.997,5.721,10.681,10.398,14.707,6.242,5.422,13.441,9.212,21.061,12.2,14.852,5.822,30.339,8.297,46.157,8.836,7.701.257,15.405-.018,23.051-.85,7.938-.873,15.763-2.254,23.434-4.398,9.981-2.788,19.526-6.576,28.125-12.451,5.309-3.639,10.022-7.861,13.333-13.46,3.267-5.443,4.544-11.285,3.174-17.584-1.109-5.189-3.822-9.486-7.358-13.332-5.37-5.776-11.912-9.875-18.987-13.22-8.438-4.026-17.307-6.633-26.444-8.439-6.36-1.266-12.786-2.137-19.285-2.541-1.484-.081-2.932-.247-4.396-.372h-14.19c-.226.054-.476.149-.708.167-2.435.153-4.832.251-7.243.481-7.643.698-15.215,1.897-22.625,3.782-10.251,2.569-20.112,6.148-29.123,11.699-5.92,3.689-11.234,8.065-15.105,13.98M142.47,70.63c-1.149,7.011-4.528,12.82-9.835,17.519-1.974,1.734-4.409,2.411-6.932,2.61-1.793.145-3.604.201-4.684.25-6.554-.105-12.328-.722-18.122-1.512-5.984-.81-11.938-1.841-17.757-3.472-2.01-.563-3.987-1.218-5.89-1.928-1.595-.648-1.641-1.612-.326-2.666,12.573-10.022,26.846-16.423,42.425-20.002,4.056-.947,8.153-1.695,12.362-1.385,3.15.211,6.018,1.126,7.75,4.085,1.223,2.015,1.39,4.283,1.008,6.5M182.052,37.937c.68-1.323,1.354-2.681,2.059-4.014.893-1.707,1.812-2.11,3.511-1.239,8.088,3.981,13.074,10.322,14.531,19.331.101.621,0,1.323,0,1.964.067,4.608-1.624,8.539-4.364,12.099-3.679,4.835-8.493,8.305-13.764,11.224-8.982,4.981-18.604,8.243-28.746,9.988-.418.058-1.243-.07-1.296-.261-.167-.485-.109-1.194.165-1.588,1.282-1.849,2.683-3.655,4.072-5.483,4.935-6.522,9.128-13.527,13.013-20.706,3.784-7.01,7.228-14.178,10.819-21.314M114.285,21.658c3.111-3.267,6.973-4.659,11.431-4.799,11.224-.39,22.266,1.013,33.137,3.717,2.94.712,5.869,1.646,8.77,2.565.919.312,1.79.772,2.604,1.287,1.006.696,1.066,1.604.244,2.505-.538.585-1.18,1.122-1.894,1.532-11.397,7.053-23.442,12.906-36.175,17.174-4.843,1.566-9.75,2.814-14.864,3.072-2.197.111-4.368-.144-6.434-1.04-3.297-1.505-4.315-4.238-4.247-8.345.551-6.156,2.52-12.507,7.428-17.668M89.725,21.164c1.693-.435,3.543-.468,5.335-.491,1.516,0,1.853.73.949,1.943-2.48,3.287-5.05,6.446-7.481,9.749-8.768,11.918-16.362,24.442-21.396,38.396-.45,1.293-1.084,2.522-1.819,3.635-.985,1.6-2.109,1.879-3.881,1.298-2.131-.794-3.84-2.165-5.457-3.685-3.587-3.471-6.797-7.234-8.45-12.031-.646-1.879-.886-3.894-1.343-5.842.102-.046.182-.069.249-.077.057-4.885,2.141-8.985,5.229-12.65,3.515-4.238,7.95-7.421,12.688-10.153,7.95-4.632,16.529-7.67,25.379-10.091"/>
  <path d="M179.806,109.966c-.596-.089-1.242-.125-1.878-.125h-23.656c-.332,0-.682.05-1.098.067v31.329c0,.386-.049.812-.058,1.201h26.884c.341-.129.701-.248,1.039-.39,2.05-.687,3.238-2.155,3.61-4.222.191-.812.229-1.626.229-2.426.022-3.981,0-7.908,0-11.856,0-2.352.067-4.688-.038-7.009-.121-4.049-1.629-5.915-5.034-6.57M175.295,131.556c-.106,2.356-.75,2.963-3.055,2.99h-9.417v-16.926c3.387,0,6.732-.035,10.07.024,1.424.033,1.98.72,2.232,2.129.11.449.169.919.169,1.378.017,3.31,0,6.636,0,9.959,0,.171.017.296,0,.445"/>
  <path d="M220.516,110.932v-1.133c-.436-.02-.709-.062-.983-.062-7.502.042-15.019.062-22.532.104-.323,0-.625.05-.929.067-3.94.237-6.721,2.888-6.734,6.803-.099,8.596-.043,17.166-.043,25.728h9.262v-7.125h12.496v7.125h9.477c-.014-.366-.032-.752-.032-1.124,0-10.123.019-20.268.019-30.383M211.039,127.057h-12.482c0-2.369-.062-4.725.045-7.085.014-1.229.88-2.085,2.118-2.147,2.452-.167,4.967-.119,7.436-.167.939-.014,1.904,0,2.883,0v9.398Z"/>
  <path d="M111.829,109.738c-2.574,0-5.183.042-7.747-.027-.899-.011-1.119.298-1.105,1.138.034,7.081.034,14.212,0,21.31,0,1.845-.554,2.346-2.352,2.37h-10.041v-24.707h-9.65v1.305c0,6.277-.021,12.545,0,18.826,0,4.176,0,8.324.021,12.486h27.1c.095-.014.167-.139.29-.163,2.652-.453,3.965-2.141,4.329-4.667.134-.776.207-1.584.207-2.374.037-8.094.037-16.237.047-24.303v-1.133c-.41-.02-.771-.062-1.099-.062"/>
  <path d="M148.906,123.08c0-2.551-.039-5.088-.199-7.57-.198-2.696-1.645-4.545-4.017-5.178-1.276-.311-2.594-.553-3.88-.553-7.665-.08-15.35-.069-23.01-.069-.263,0-.478.027-.831.056v9.307c0,7.8,0,15.567-.027,23.366h9.657c0-8.151,0-16.272-.037-24.436,0-.073.047-.147.082-.296.177-.048.341-.086.517-.086,3.202-.012,6.448-.025,9.654-.012,1.503,0,2.159.645,2.159,2.165.016,7.397,0,14.811,0,22.212,0,.163-.035.324-.082.453h10.067c-.048-.163-.094-.366-.094-.529.039-6.309.046-12.584.039-18.829"/>
  <path d="M32.727,109.738c-.642,0-.549.462-.549.884v10.773h-12.433v-11.657h-1.198c-2.686-.027-5.349-.038-8.049-.069v32.771h9.286v-12.821h12.503v12.821h9.665c.019-.064.019-.163.019-.248v-31.663c0-.219-.061-.47-.097-.762-3.1-.028-6.119,0-9.147-.028"/>
  <path d="M70.479,109.78c-.297,0-.711.338-.906.633-2.416,3.317-4.748,6.691-7.149,10.006-.147.274-.372.507-.626.837-.249-.361-.397-.585-.549-.837-2.152-3.279-4.33-6.582-6.482-9.891-.298-.441-.583-.706-1.195-.706-2.963,0-5.92-.042-8.896-.084h-1.203c.343.508.506.79.697,1.064,3.503,5.263,6.912,10.597,10.573,15.777,1.535,2.169,2.262,4.322,2.081,7-.213,2.946-.081,5.915-.106,8.859h9.667c0-3.981,0-7.998.043-12.003,0-.483.181-1.065.449-1.486,4.201-6.082,8.425-12.187,12.639-18.265.171-.241.317-.499.494-.794-.165-.069-.249-.125-.348-.125-3.037,0-6.122-.056-9.183.014"/>
  <path d="M224.939,110.965c.046,10.082.031,20.19.031,30.272,0,.386-.084.812-.084,1.201h9.075v-32.548c-2.594-.069-5.226-.05-7.839-.181-.982-.042-1.184.326-1.184,1.255"/>
</svg>