<?xml version="1.0" encoding="UTF-8"?>
<svg id="Layer_1" xmlns="http://www.w3.org/2000/svg" version="1.1" viewBox="0 0 165.746 149.843">
  <!-- Generator: Adobe Illustrator 29.5.1, SVG Export Plug-In . SVG Version: 2.1.0 Build 141)  -->
  <path d="M134.876,122.739h-14.273c-4.133,0-8.056,2.047-8.056,7.234v4.049c0,4.383,1.862,6.16,6.337,6.9,2.63.425,6.435.644,8.854.644s6.223-.219,8.846-.644c4.493-.74,6.37-2.518,6.37-6.9v-4.049c0-5.188-3.929-7.234-8.079-7.234M134.445,133.598c0,1.482-1.197,2.676-2.688,2.676h-8.163c-.961,0-1.603-.484-1.895-.775-.302-.302-.794-.934-.794-1.9v-3.662c0-.971.492-1.61.794-1.9.292-.297.934-.789,1.895-.789h8.163c.975,0,1.61.492,1.93.789.275.303.758.93.758,1.9v3.662Z"/>
  <path d="M43.459,126.189c0,1.55-1.031,2.321-2.126,2.321h-7.188c-1.062,0-2.117-.772-2.117-2.321v-2.768h-7.744v16.659h7.744v-3.282c0-1.509,1.055-2.294,2.117-2.294h7.188c1.095,0,2.126.785,2.126,2.294v3.282h8.785v-16.659h-8.785v2.768Z"/>
  <path d="M96.691,8.288c-8.737.344-7.358,4.614-1.679,6.504,5.678,1.882,31.623,10.189,33.582,26.021.762,5.873-10.089,6.723-45.39,6.728-35.459,0-46.153-.854-45.425-6.728,1.975-15.833,27.901-24.14,33.598-26.021,5.693-1.89,7.049-6.16-1.675-6.504-10.546-.428-58.248,10.238-58.248,45.966-.019,35.603,47.702,46.403,58.248,45.971,8.724-.333,7.368-4.62,1.675-6.505-5.696-1.89-31.623-10.2-33.598-26.032-.728-5.88,10.193-6.789,45.425-6.715,35.301.069,46.151.835,45.39,6.715-1.959,15.832-27.904,24.139-33.582,26.032-5.679,1.885-7.059,6.172,1.679,6.505,10.522.433,58.267-10.395,58.267-45.971S107.213,7.86,96.691,8.288M83.394,49.472c45.692,0,42.976-.772,47.647-2.843,1.003-.441,1.657-.543,2.02-.301.375.245.854.543,1.723,1.031.832.492,1.271,1.094.047,1.518-5.717,1.986-42.968,1.935-51.436,1.935s-45.734.051-51.441-1.935c-1.225-.424-.779-1.025.075-1.518.836-.488,1.328-.786,1.691-1.031.356-.242,1.002-.141,2.005.301,4.68,2.071,1.974,2.843,47.67,2.843M152.209,55.322c-.116,2.772-.92.896-1.017-.152-.048-1.077-.966-11.928-9.547-21.029-.988-1.026-1.593-.73-.85.552.711,1.277,7.173,9.757,6.617,21.164-.539,11.394-9.375,32.891-48.497,41.1-1.118.247-3.877,0-.052-1.08,3.845-1.101,29.637-6.854,40.646-25.423,10.335-17.453-6.019-15.522-14.222-15.688-7.452-.173-30.082-.037-40.454-.014v.014h-2.879v-.014c-10.387-.023-33.018-.159-40.455.014-8.205.166-24.562-1.766-14.228,15.688,10.985,18.568,36.825,24.322,40.628,25.423,3.853,1.08,1.118,1.322-.052,1.08-39.079-8.209-47.948-29.706-48.507-41.1-.538-11.407,5.93-19.887,6.646-21.164.732-1.281.116-1.578-.868-.552-8.585,9.101-9.49,19.952-9.569,21.029-.057,1.049-.853,2.925-.966.152-.171-3.826,1.359-18.726,17.025-30.23,15.657-11.479,30.561-13.387,34.057-13.991,3.502-.616,7.109-.31.461,1.445-27.019,7.113-35.733,18.647-40.767,29.07-5.07,10.438,4.875,10.438,11.441,10.66,6.38.224,29.719.288,46.592.302,16.864-.014,40.2-.078,46.603-.302,6.536-.223,16.477-.223,11.436-10.66-5.034-10.424-13.772-21.957-40.803-29.07-6.622-1.755-3.029-2.061.473-1.445,3.52.604,18.419,2.513,34.057,13.991,15.676,11.505,17.213,26.404,17.05,30.23"/>
  <rect x="60.369" y="123.421" width="7.832" height="16.659"/>
  <path d="M97.378,128.245c0,.846-.343,1.097-1.011,1.097-1.009,0-10.564-5.92-11.516-5.92h-8.571v16.674h8.571v-6.923c0-.633.399-1.115,1.087-1.115,1.143,0,3.296.78,10.001,5.534,1.519,1.073,1.439,1.914,1.439,2.48v.023h8.539v-16.674h-8.539v4.823Z"/>
</svg>