<?xml version="1.0" encoding="UTF-8"?>
<svg id="Calque_3" xmlns="http://www.w3.org/2000/svg" version="1.1" viewBox="0 0 250 200">
  <!-- Generator: Adobe Illustrator 29.2.1, SVG Export Plug-In . SVG Version: 2.1.0 Build 116)  -->
  <defs>
    <style>
      .st0 {
        fill-rule: evenodd;
      }
    </style>
  </defs>
  <g id="layer1">
    <path id="path84" class="st0" d="M119.7,41.7c-51.9,0-94.1,26-94.1,58.1s42.2,58,94.1,58,94-26.1,94-58-41.8-58.1-94-58.1ZM119.7,52.9c48.5,0,87.8,20.9,87.8,47s-39.3,46.8-87.8,46.8-87.5-21-87.5-46.8,39.3-47,87.5-47h0ZM52.4,78.2v43.2h11.1v-18.2h18.8v7.7h-16.4v10.5h21.1l6.3-4.4v-14.5l-2.9-2.7,2.9-2.6v-12.3l-5.7-6.8h-35.2ZM97.9,78.2v21.2l4.7,4.5,10.4-.2v-10.2l-2-1.8v-13.6h-13.1ZM129.8,78.2v13.6l-2,1.8h-12.5v27.9h13v-17.6l9.8.2,4.7-4.4v-21.4h-13ZM147.3,78.2v43.2h11.7v-32.4h12.8l3.5,3.9v17.8h-13.9v10.7h25.5v-35.5l-6.5-7.7h-33.1,0ZM63.5,88.7h18.7v7.7h-18.7v-7.7Z"/>
  </g>
</svg>