<?xml version="1.0" encoding="UTF-8"?>
<svg id="Layer_1" xmlns="http://www.w3.org/2000/svg" version="1.1" viewBox="0 0 158 158">
  <!-- Generator: Adobe Illustrator 29.5.1, SVG Export Plug-In . SVG Version: 2.1.0 Build 141)  -->
  <path d="M33.693,43.683l6.599,6.305,1.99-2.101-2.507-2.36,4.092-4.461-1.585-1.585-4.093,4.461-1.844-1.843,5.936-6.305-1.586-1.586-8.185,8.849c.406.258.812.369,1.182.626h0ZM48.181,30.412h0l.147,10.543,2.507-1.438v-2.103l5.935-3.428,1.696,1.181,2.507-1.438-9.881-6.305-3.538,1.99c.37.184.627.59.627.996ZM54.632,32.771l-3.834,2.25-.146-4.867,3.98,2.617ZM73.212,30.928h2.765v-2.912h4.755l2.103,2.912h3.171l-2.36-3.172.26-.147c1.178-.664,1.99-1.99,1.843-3.428.147-2.101-1.439-3.834-3.43-3.944h-9.621c.257.404.405.774.516,1.181v9.51ZM81.397,22.633h0c.774,0,1.437.663,1.437,1.439v.148c.147.773-.517,1.438-1.327,1.584h-5.641v-3.17h5.53ZM137.358,71.074c-.664-3.688-3.023-6.305-5.788-6.305-.259,0-.517,0-.775.147-3.171.517-4.865,3.944-4.202,8.038.664,3.834,2.912,6.304,5.788,6.304.258,0,.517,0,.774-.148,3.134-.517,4.866-3.944,4.203-8.036ZM132.602,76.235h-.517c-1.584,0-2.911-1.437-3.28-3.687-.404-2.617.516-4.461,2.359-4.756h.517c1.584,0,2.911,1.438,3.281,3.685.553,2.508-.37,4.498-2.36,4.757ZM112.731,35.277l-1.068,8.037.147.148,7.631-1.844-4.203,5.678,2.102,1.99,6.449-8.442-2.358-2.249-6.71,1.438.775-6.967-2.507-2.359h0l-.259-.258c0,.515-.147.921-.515,1.327l-6.601,6.451,2.103,1.991,5.013-4.942ZM95.848,34.357c1.069.404,2.102.516,3.17.516h0c2.36.148,4.461-1.18,5.382-3.43.517-1.584.259-3.17-.663-4.608-1.068-1.438-2.506-2.508-4.202-3.023-1.069-.404-2.103-.517-3.171-.517-2.359-.257-4.607,1.18-5.381,3.43-1.033,3.022.921,6.155,4.865,7.632ZM93.636,27.647c.404-1.327,1.695-2.102,3.023-1.99.662,0,1.325.146,1.991.406,2.358.92,3.538,2.617,2.911,4.461-.406,1.326-1.696,2.1-3.023,1.99-.663,0-1.327-.149-1.99-.406-2.397-.922-3.575-2.617-2.912-4.461ZM79,13.159C42.65,13.159,13.159,42.652,13.159,79s29.491,65.84,65.841,65.84,65.841-29.49,65.841-65.84S115.349,13.159,79,13.159ZM79,142.186c-34.911,0-63.225-28.312-63.225-63.224S44.124,15.776,79,15.776s63.224,28.312,63.224,63.224-28.312,63.186-63.224,63.186ZM20.679,72.549c.147-.147.406-.147.517-.147.257,0,.517,0,.663.147h0l8.442,6.451.406-2.765-1.696-1.327,1.069-6.711,1.99-.662.406-2.766-11.061,3.688-.737,4.092ZM27.647,68.972l-.663,4.351-3.834-2.911,4.497-1.439ZM79.406,57.397l.147-.148h0l-.147-.147c-1.844-1.326-3.171-3.28-3.946-5.381-.404-.923-.921-1.844-1.584-2.617-.517-.664-1.438-1.07-2.25-1.07-.404,0-.921,0-1.327.147h-.257l.147.26c.258.664.774,1.178,1.438,1.438h.554c.773.516,1.18,3.944,1.18,5.678,0,.257-.148.404-.406.404-.257,0-.663-.148-.773-.404-.517-.517-1.181-.775-1.844-.775-1.327-.148-2.507.922-2.617,2.249v.257c.148,1.328,1.327,2.361,2.617,2.25.663,0,1.438-.259,1.844-.774.259-.26.517-.406.773-.406.259,0,.406.147.406.406,0,1.695-.406,5.125-1.18,5.676h-.517c-.664.26-1.179.775-1.438,1.44l-.147.257h.258c.406.148.923.148,1.327.148.923,0,1.696-.404,2.25-1.068.773-.775,1.326-1.696,1.584-2.617.738-2.029,2.213-3.873,3.909-5.199h0ZM77.82,42.909c.663,0,1.18-.517,1.18-1.181s-.517-1.18-1.18-1.18-1.18.517-1.18,1.18h0c0,.518.516,1.033,1.18,1.181h0ZM77.414,45.82h10.396c.406,0,.775-.404.775-.773,0-.404-.406-.773-.775-.773h-10.396c-.404,0-.773.406-.773.773,0,.48.405.773.773.773ZM79,34.725c-24.368,0-44.238,19.87-44.128,44.238.148,24.368,19.87,44.238,44.238,44.129,24.368,0,44.129-19.761,44.129-44.238,0-24.222-19.724-44.129-44.239-44.129h0ZM51.092,110.19c-7.629-6.858-12.496-16.076-13.713-26.213h13.713v26.213ZM51.092,73.728h-13.713c1.327-9.991,6.045-19.244,13.713-25.953v25.953ZM92.566,118.777c-10.139,3.428-21.345,2.912-31.077-1.696v-33.067h11.833c-1.18-3.43-.773-7.115.774-10.285h-12.644v-32.773c12.127-5.53,26.21-5.124,37.785,1.327h0c1.439.921,1.844,2.765.923,4.202-.517.922-1.586,1.439-2.617,1.439h-5.271c-1.07-.147-1.99.257-2.767.921-1.438,1.327-.921,2.766-3.944,2.766h-8.295c1.07,1.991,2.508,3.686,4.351,4.865h10.139c.404,0,.773.258.921.664,0,.147,0,.258.148.406v.146c-.148.518-.516.774-.922.774h-10.286c-2.101,1.181-3.54,3.023-4.351,5.272h18.581c1.18-.148,2.249.775,2.359,1.99.147,1.181-.775,2.25-1.99,2.36h-9.77c-6.453,0-11.724,5.271-11.724,11.723s5.27,11.725,11.724,11.725h11.724c.516,0,.92.404.92.92s-.404.922-.92.922h-11.982c-4.755,0-8.552,3.834-8.552,8.554,0,4.755,3.834,8.552,8.552,8.552h4.608c2.359,0,4.203,1.844,4.203,4.202-.073,1.696-.996,3.282-2.434,4.093h0ZM110.483,51.057h0c15.409,17.4,13.825,43.869-3.54,59.242-3.169,2.765-6.709,5.125-10.653,6.855l-.146.149h.146c3.538-1.696,5.015-5.936,3.281-9.364-1.181-2.508-3.688-4.092-6.305-4.092h-7.372c-.517,0-.923-.406-.923-.923s.406-.921.923-.921h12.496c5.938-.259,10.543-5.124,10.286-11.059-.148-5.678-4.755-10.139-10.286-10.285h-12.129c-.515,0-.921-.406-.921-.924s.406-.92.921-.92h9.216c9.734.147,17.77-7.779,17.77-17.511,0-3.54-1.069-6.968-3.023-9.991h0c0-.111.11-.111.26-.258q-.149,0,0,0c0,.147-.149,0,0,0h0ZM82.688,42.762c.663,0,1.178-.516,1.178-1.18s-.515-1.18-1.178-1.18-1.181.516-1.181,1.18h0c0,.664.517,1.18,1.181,1.18h0ZM122.723,53.821l1.696-.921,2.765,5.381,1.99-1.068-2.765-5.383,1.585-.922,4.091,7.778,1.992-1.067-5.53-10.656c-.147.406-.517.774-.923,1.07l-8.035,4.351,5.53,10.653,1.842-1.068-4.238-8.148ZM36.346,51.461l-3.538,7.115-7.372-3.834-1.586,3.023h.517c.257,0,.516,0,.773.146l8.147,4.204,4.865-9.622-1.807-1.033ZM87.442,42.762c.663,0,1.18-.516,1.18-1.18s-.517-1.18-1.18-1.18h0c-.664,0-1.181.516-1.181,1.18s.517,1.18,1.181,1.18h0Z"/>
</svg>