<?xml version="1.0" encoding="UTF-8"?>
<svg id="Layer_1" xmlns="http://www.w3.org/2000/svg" version="1.1" viewBox="0 0 158 158">
  <!-- Generator: Adobe Illustrator 29.5.1, SVG Export Plug-In . SVG Version: 2.1.0 Build 141)  -->
  <path d="M28.754,72.358v1.797h2.967l5.772,10.832h7.103l5.77-10.858,2.968-.028v-1.771h-8.847v1.771h2.341l-4.082,7.702-4.41-7.674,3.211-.028v-1.796h-12.792v.054ZM85.777,72.358v1.797h2.967l5.772,10.832h7.103l5.769-10.858,2.968-.028v-1.771h-8.846v1.771h2.341l-4.083,7.702-4.41-7.674,3.213-.028v-1.796h-12.793v.054ZM71.215,72.358v1.797h2.966v8.846h-3.104v1.986l3.104.027h14.755v-5.878h-1.933c-.11,3.103-2.805,3.891-3.946,3.891h-3.077v-8.846l2.913-.026v-1.797h-11.678ZM61.282,71.978c-5.011,0-9.093,2.994-9.093,6.668s4.082,6.668,9.093,6.668,9.089-2.994,9.089-6.668-4.055-6.668-9.089-6.668ZM61.146,83.382c-1.772,0-3.213-2.123-3.213-4.735s1.441-4.737,3.213-4.737,3.21,2.123,3.21,4.737-1.441,4.735-3.21,4.735ZM118.304,71.759c-5.008,0-9.091,3.05-9.091,6.778,0,3.755,4.083,6.777,9.091,6.777s9.091-3.049,9.091-6.777-4.057-6.778-9.091-6.778ZM118.169,83.328c-1.77,0-3.215-2.151-3.215-4.818s1.445-4.817,3.215-4.817,3.21,2.15,3.21,4.817-1.442,4.818-3.21,4.818Z"/>
  <path d="M111.88,16.723v1.363c4.082,2.121,7.948,4.679,11.458,7.62l-9.363,9.362c3.513,2.775,6.669,5.963,9.42,9.473l9.335-9.337c2.885,3.567,5.39,7.458,7.458,11.568h1.742v-30.05h-30.05Z"/>
  <path d="M133.246,42.119l-6.996,6.45c5.69,8.792,9.011,19.272,9.011,30.54,0,31.029-25.15,56.179-56.179,56.179s-56.18-25.149-56.18-56.179,25.15-56.18,56.18-56.18c11.296,0,21.829,3.347,30.647,9.091l7.051-6.642c-10.724-7.566-23.736-11.976-37.78-11.976C42.772,13.403,13.403,42.771,13.403,79s29.368,65.596,65.597,65.596,65.597-29.367,65.597-65.596c0-13.691-4.192-26.376-11.351-36.881Z"/>
</svg>