<?xml version="1.0" encoding="utf-8"?>
<!-- Generator: Adobe Illustrator 16.0.0, SVG Export Plug-In . SVG Version: 6.00 Build 0)  -->
<!DOCTYPE svg PUBLIC "-//W3C//DTD SVG 1.1//EN" "http://www.w3.org/Graphics/SVG/1.1/DTD/svg11.dtd">
<svg version="1.1" id="Layer_1" xmlns="http://www.w3.org/2000/svg" xmlns:xlink="http://www.w3.org/1999/xlink" x="0px" y="0px"
	 width="300px" height="145.333px" viewBox="0 0 300 145.333" enable-background="new 0 0 300 145.333" xml:space="preserve">
<g>
	<path d="M129.371,53.492l-23.665,0.027c-5.123,0-9.39,3.553-10.32,8.57L91.56,82.643c-1.057,5.65,3.297,10.088,8.419,10.088
		l21.275,0.047c5.675,0,10.388-3.918,11.396-9.492l3.914-21.165C137.462,57.273,133.755,53.492,129.371,53.492 M123.396,65.394
		l-2.484,13.286c-0.744,3.461-1.783,4.853-6.112,4.853h-5.888c-1.985-0.019-4.907-0.191-4.287-3.566l2.245-12.122
		c0.897-4.767,2.535-5.664,6.117-5.701h7.975C122.197,62.143,123.775,63.338,123.396,65.394"/>
	<path d="M172.528,36.088l-8.788,47.426l-12.055-0.031c-2.111,0-3.109-1.442-2.73-3.517l2.243-12.127
		c0.894-4.775,2.608-5.646,6.189-5.646l7.716-0.014l1.604-8.651h-16.595c-5.126,0-9.404,3.543-10.339,8.561l-3.809,20.554
		c-1.085,5.834,2.896,10.088,8.392,10.088l29.576,0.047l10.516-56.694L172.528,36.088z"/>
	<path d="M193.672,53.556c-5.136,0-9.372,3.529-10.298,8.551l-3.808,20.563c-1.123,6.043,2.841,10.061,8.326,10.084h14.33
		l1.715-9.24h-7.123c-1.975-0.031-5.035-0.173-4.401-3.516l2.253-12.154c0.862-4.767,2.672-5.65,6.257-5.65h9.559l-6.58,35.3
		c-0.393,2.069-2.131,4.136-4.972,4.136h-21.617l-1.665,8.957l25.764-0.027l-0.01-0.027h0.46c5.487,0.027,11.53-0.438,13.382-10.476
		l8.679-46.527L193.672,53.556z"/>
	<path d="M258.748,53.492l-22.699,0.027c-4.935,0-9.029,3.553-9.911,8.57l-3.689,20.554c-0.967,5.65,3.18,10.088,8.073,10.088
		l29.174,0.047l1.715-9.264l-22.323-0.031c-1.871,0-4.681-0.142-4.082-3.517l2.152-12.122c0.844-4.767,2.435-5.71,5.869-5.71h7.616
		c1.218,0,2.732,1.204,2.376,3.232l-0.936,4.21h-12.199l-1.322,7.129h24.522l2.577-14.585
		C266.504,57.273,262.946,53.492,258.748,53.492"/>
	<path d="M82.306,41.142H43.791L42.04,50.5h32.088c3.549-0.031,5.26,2.066,4.867,4.343l-4.237,22.743
		c-1.076,4.246-4.258,5.182-5.997,5.182H49.494l5.11-27.61H41.174l-6.96,37.574l32.462,0.023
		c15.466-0.023,19.137-2.765,21.514-12.446l4.966-26.856C94.474,44.356,89.644,41.142,82.306,41.142"/>
</g>
</svg>
