<?xml version="1.0" encoding="UTF-8"?>
<svg id="Layer_1" xmlns="http://www.w3.org/2000/svg" version="1.1" viewBox="0 0 172.18 182.202">
  <!-- Generator: Adobe Illustrator 29.5.1, SVG Export Plug-In . SVG Version: 2.1.0 Build 141)  -->
  <polygon points="39.878 160.96 34.984 152.763 28.989 152.763 28.989 173.072 33.638 173.072 33.638 158.757 39.755 169.034 45.872 158.757 45.872 173.072 50.644 173.072 50.644 152.763 44.649 152.763 39.878 160.96"/>
  <path d="M62.878,141.752c-2.814,0-5.016-.367-5.995-.612v4.282c1.957.367,3.793.489,5.872.612,5.383,0,7.952-1.835,7.952-5.873,0-3.915-2.692-5.138-6.117-6.729-2.202-.979-3.67-1.591-3.67-2.692,0-1.223.612-1.468,3.303-1.468,2.325,0,4.404.245,5.506.367v-4.282c-1.346-.123-3.181-.367-5.75-.367-5.016,0-7.585,1.468-7.585,5.75,0,3.548,2.447,4.771,5.628,6.239,3.303,1.591,4.282,1.713,4.282,3.181,0,1.346-1.101,1.59-3.426,1.59Z"/>
  <rect x="112.305" y="125.357" width="4.527" height="20.309"/>
  <polygon points="29.111 145.667 29.111 125.357 23.116 125.357 18.467 133.677 13.574 125.357 7.701 125.357 7.701 145.667 12.228 145.667 12.228 131.352 18.467 141.629 24.584 131.352 24.584 145.667 29.111 145.667"/>
  <path d="M62.511,152.518c-5.995,0-8.809,3.181-8.809,10.399s2.814,10.399,8.809,10.399,8.809-3.181,8.809-10.399-2.814-10.399-8.809-10.399ZM62.389,169.157c-3.303,0-4.037-2.08-4.037-6.24s.734-6.239,4.037-6.239,4.037,2.08,4.037,6.239-.612,6.24-4.037,6.24Z"/>
  <rect x="33.026" y="125.357" width="4.527" height="20.309"/>
  <polygon points="49.665 145.667 49.665 129.639 55.171 129.639 55.171 125.357 39.633 125.357 39.633 129.639 45.016 129.639 45.016 145.667 49.665 145.667"/>
  <path d="M105.943,135.023c1.59-.489,3.181-1.468,3.181-4.404,0-3.67-2.325-5.261-6.484-5.261h-8.931l.122,20.309h9.176c4.649,0,6.729-2.202,6.729-5.75,0-3.303-1.957-4.282-3.793-4.894ZM98.236,129.15h3.67c1.835,0,2.569.489,2.569,2.08,0,1.346-.734,2.325-2.569,2.325h-3.67v-4.405ZM102.273,141.874h-4.037v-4.649h4.16c1.713,0,2.447.612,2.447,2.202,0,1.713-.734,2.447-2.569,2.447Z"/>
  <path d="M133.96,140.161c0-3.915-2.692-5.138-6.117-6.729-2.202-.979-3.67-1.591-3.67-2.692,0-1.223.612-1.468,3.303-1.468,2.325,0,4.404.245,5.506.367v-4.282c-1.346-.123-3.181-.367-5.75-.367-5.016,0-7.585,1.468-7.585,5.75,0,3.548,2.447,4.771,5.628,6.239,3.303,1.591,4.282,1.713,4.282,3.181,0,1.346-1.101,1.59-3.425,1.59-2.814,0-5.016-.367-5.995-.612v4.282c1.958.367,4.037.489,5.872.612,5.383,0,7.952-1.835,7.952-5.873Z"/>
  <polygon points="148.397 133.432 141.178 133.432 141.178 125.357 136.652 125.357 136.652 145.667 141.178 145.667 141.178 137.592 148.397 137.592 148.397 145.667 152.923 145.667 152.923 125.357 148.397 125.357 148.397 133.432"/>
  <path d="M134.694,160.715c-2.202-.979-3.67-1.591-3.67-2.692s.612-1.346,3.303-1.346c2.325,0,4.404.245,5.505.367v-4.282c-1.346-.122-3.181-.367-5.75-.367-5.016,0-7.585,1.468-7.585,5.75,0,3.548,2.447,4.771,5.628,6.239,3.303,1.591,4.282,1.713,4.282,3.181,0,1.346-1.101,1.591-3.426,1.591-2.814,0-5.016-.367-5.995-.612v4.282c1.958.367,4.037.489,5.873.489,5.383,0,7.952-1.835,7.952-5.873,0-3.915-2.692-5.138-6.117-6.729Z"/>
  <rect x="156.716" y="125.357" width="4.527" height="20.309"/>
  <polygon points="72.054 157.045 77.56 157.045 77.56 173.072 82.086 173.072 82.086 157.045 87.592 157.045 87.592 152.763 71.932 152.763 72.054 157.045"/>
  <path d="M89.794,125.357h-4.527v13.213c0,2.324-1.468,3.059-3.548,3.059-2.202,0-3.548-.734-3.548-3.059v-13.213h-4.527v13.458c0,4.894,3.181,7.218,8.075,7.218s8.075-2.325,8.075-7.218v-13.458Z"/>
  <path d="M124.295,159.247c0-4.894-2.814-6.484-7.218-6.484h-8.197v20.309h4.527v-7.218h2.08l4.282,7.218h5.383l-5.016-8.075c2.569-.489,4.16-2.569,4.16-5.75ZM116.954,161.816v.122h-3.426v-5.261h3.426c1.958,0,2.692,1.101,2.692,2.569s-.612,2.569-2.692,2.569Z"/>
  <path d="M97.135,152.518c-5.995,0-8.809,3.181-8.809,10.399s2.814,10.399,8.809,10.399,8.809-3.181,8.809-10.399-2.814-10.399-8.809-10.399ZM97.012,169.157c-3.303,0-4.037-2.08-4.037-6.24s.734-6.239,4.037-6.239,4.037,2.08,4.037,6.239-.734,6.24-4.037,6.24Z"/>
  <polygon points="84.166 8.886 64.836 42.531 84.288 76.297 103.741 42.531 84.166 8.886"/>
  <polygon points="84.227 76.403 84.166 76.297 45.383 76.297 25.93 109.942 64.836 109.942 84.227 76.403"/>
  <polygon points="142.647 109.942 123.194 76.297 84.288 76.297 84.227 76.403 103.741 109.942 142.647 109.942"/>
</svg>