<?xml version="1.0" encoding="utf-8"?>
<!-- Generator: Adobe Illustrator 16.0.0, SVG Export Plug-In . SVG Version: 6.00 Build 0)  -->
<!DOCTYPE svg PUBLIC "-//W3C//DTD SVG 1.1//EN" "http://www.w3.org/Graphics/SVG/1.1/DTD/svg11.dtd">
<svg version="1.1" id="Layer_1" xmlns="http://www.w3.org/2000/svg" xmlns:xlink="http://www.w3.org/1999/xlink" x="0px" y="0px"
	 width="171.75px" height="200px" viewBox="0 0 171.75 200" enable-background="new 0 0 171.75 200" xml:space="preserve">
<g>
	<path d="M34.482,152.055c0.302,1.167,1.313,2.361,2.699,2.661h4.194l0.214,0.085v10.583h2.619v-10.583l0.237-0.085h4.198
		c1.403-0.362,2.393-1.494,2.688-2.661v-0.025h-16.85V152.055z"/>
	<path d="M60.405,165.412h9.962c1.387-0.274,2.417-1.496,2.705-2.677H57.699C57.985,163.916,59.03,165.138,60.405,165.412z"/>
	<path d="M60.405,159.984h9.962c1.387-0.274,2.417-1.495,2.705-2.679H57.699C57.985,158.489,59.03,159.71,60.405,159.984z"/>
	<path d="M60.405,154.702h9.962c1.387-0.276,2.417-1.499,2.705-2.682H57.699C57.985,153.203,59.03,154.426,60.405,154.702z"/>
	<path d="M92.331,154.677c1.388-0.403,2.553-1.461,2.837-2.633H80.546v7.9h11.968v2.771l-9.388,0.007
		c-1.472,0.409-2.718,1.397-3.34,2.702l0.76-0.014h14.54v-8.094h-11.96v-2.641H92.331z"/>
	<path d="M105.11,152.04l-2.604,0.008v13.366h11.944c1.309-0.554,2.011-1.512,2.28-2.633h-11.625L105.11,152.04z"/>
	<path d="M124.604,154.712h9.966c1.385-0.274,2.414-1.496,2.704-2.678h-15.375C122.188,153.216,123.23,154.438,124.604,154.712z"/>
	<polygon points="122.301,165.408 124.893,165.408 124.893,160.028 134.326,160.028 134.326,165.408 136.918,165.408 
		136.918,157.341 122.301,157.326 	"/>
	<path d="M115.945,58.968c0,0,8.367-3.119,12.587-9.456c-16.468-7.631-33.015-7.976-33.015-7.976l-9.644,11.747l-9.645-11.748
		c0,0-16.547,0.345-33.014,7.976c4.218,6.336,12.587,9.455,12.587,9.455c0.573-5.582,4.501-6.95,16.891-6.959l13.191,73.605
		L98.97,52.017C111.443,52.017,115.377,53.386,115.945,58.968z"/>
	<path d="M85.876,38.14h0.003c13.312-0.102,28.549,2.059,44.147,8.856c2.085-3.751,2.621-5.409,2.621-5.409
		c-17.052-6.746-33.02-9.055-46.771-9.112c-13.749,0.058-29.716,2.366-46.766,9.112c0,0,0.761,2.042,2.62,5.409
		C57.326,40.198,72.564,38.038,85.876,38.14z"/>
</g>
</svg>
