<?xml version="1.0" encoding="utf-8"?>
<!-- Generator: Adobe Illustrator 16.0.0, SVG Export Plug-In . SVG Version: 6.00 Build 0)  -->
<!DOCTYPE svg PUBLIC "-//W3C//DTD SVG 1.1//EN" "http://www.w3.org/Graphics/SVG/1.1/DTD/svg11.dtd">
<svg version="1.1" id="Layer_1" xmlns="http://www.w3.org/2000/svg" xmlns:xlink="http://www.w3.org/1999/xlink" x="0px" y="0px"
	 width="210px" height="200px" viewBox="0 0 210 200" enable-background="new 0 0 210 200" xml:space="preserve">
<g>
	<path d="M110.248,143.016c8.789-0.955,17.238-4.254,24.28-9.471c2.42-1.789,6.696-5.932,8.694-8.387
		c5.045-6.238,8.535-13.621,10.238-21.629c0.627-2.952,0.663-3.506,0.667-9.296c0-5.368-0.053-6.521-0.527-8.94
		c-2.799-14.58-11.545-26.814-24.492-34.22c-4.545-2.604-10.396-4.663-16.032-5.656c-3.754-0.661-11.144-0.794-14.734-0.261
		C86.115,46.96,75.35,52.78,67.605,61.743c-11.047,12.803-14.755,29.726-10.082,46.015c3.806,13.234,13.547,24.717,26.084,30.713
		c4.549,2.17,10.819,3.969,15.815,4.526C102.091,143.303,107.559,143.311,110.248,143.016 M97.735,136.877
		c-14.968-2.528-27.959-12.912-33.344-26.646c-2.076-5.293-2.87-9.143-3.059-14.756c-0.154-4.603,0.162-7.885,1.141-11.751
		c4.226-16.811,17.219-29.253,33.894-32.47c3.714-0.722,3.972-0.701,4.436,0.383c1.002,2.425,1.926,7.443,2.849,15.538
		c0.392,0.728-0.091,6.337,1.515,5.655c0.32-0.199,0.475-0.771,0.606-2.17c0.979-10.101,2.558-18.478,3.701-19.651
		c0.299-0.309,0.655-0.306,2.806,0.044c8.906,1.438,17.03,5.652,23.627,12.262c3.461,3.465,5.639,6.404,7.716,10.402
		c3.749,7.242,5.312,13.996,5.012,21.785c-0.142,3.945-0.521,6.364-1.51,10.031c-4.188,15.348-16.886,27.389-32.499,30.803
		c-1.51,0.34-3.278,0.683-3.912,0.768l-1.147,0.152l-0.396-0.92c-1.149-2.744-2.613-10.845-3.226-17.835
		c-0.148-1.72-0.316-3.327-0.388-3.556c-0.127-0.43-0.933-0.584-1.147-0.219c-0.061,0.113-0.413,2.661-0.745,5.68
		c-1.015,9.038-2.423,16.045-3.303,16.608C99.97,137.256,100.049,137.262,97.735,136.877z"/>
	<path d="M105.65,94.428l0.066-12.486l0.9-0.076c0.817-0.065,0.915-0.145,0.981-0.844l0.066-0.767l-2.518-0.073
		c-3.296-0.102-3.349-0.098-3.258,0.844c0.064,0.673,0.179,0.78,0.923,0.889l0.845,0.119l0.065,5.64
		c0.036,3.094-0.032,5.571-0.136,5.499c-0.11-0.062-1.383-3.014-2.816-6.537l-2.621-6.428l-3.163,0.066l-3.167,0.066v0.727
		c0,0.664,0.073,0.733,0.913,0.799l0.897,0.076L93.577,93.34l-0.074,11.399h-1.077h-1.08l-2.515-11.597
		c-3.028-14.039-2.848-13.326-3.313-13.502c-0.995-0.383-1.137,0.03-3.324,10.035c-2.202,10.101-2.818,12.104-4.209,13.577
		c-0.991,1.034-2.283,1.608-3.665,1.608h-1.231l0.071-11.412l0.061-11.416l0.846-0.119c0.752-0.108,0.844-0.207,0.844-0.848V80.34
		h-3.739h-3.75l-0.087,0.699c-0.075,0.797,0.255,1.109,1.236,1.113l0.665,0.004v11.35v11.355h-0.576c-1.005,0-1.36,0.257-1.36,0.979
		c0,0.373,0.088,0.729,0.185,0.791c0.092,0.066,3.106,0.039,6.692-0.049l6.506-0.148l0.734-3.625l0.745-3.625l1.989-0.066
		c1.892-0.076,1.991-0.049,2.103,0.48c0.43,2.02,0.857,4.416,0.857,4.795c0,0.32-0.217,0.456-0.784,0.509
		c-0.686,0.071-0.787,0.164-0.787,0.807v0.726l5.807,0.065c5.021,0.053,5.826,0.01,6.063-0.316c0.501-0.679,0.115-1.294-0.844-1.372
		l-0.88-0.071l-0.066-8.925c-0.032-4.908,0.026-9.008,0.132-9.112c0.1-0.104,1.861,3.968,3.902,9.048
		c5.048,12.517,4.479,11.335,5.266,11.237l0.669-0.073L105.65,94.428z M82.275,96.952c-0.009-0.58,1.808-8.759,1.939-8.759
		c0.193,0,1.884,8.482,1.75,8.759c-0.051,0.093-0.904,0.171-1.882,0.171C83.09,97.123,82.275,97.045,82.275,96.952z
		 M116.898,106.779c2.077-0.584,3.653-2.797,4.415-6.211c0.469-2.076,0.359-2.467-0.614-2.467c-0.865,0-0.882,0.014-1.464,2.317
		c-0.656,2.517-1.447,3.85-2.555,4.202c-1.591,0.527-3.015-0.176-3.803-1.899c-0.475-1.036-0.527-1.611-0.599-7.401
		c-0.127-8.896,0.404-12.152,2.117-13.04c2.244-1.163,4.152,0.458,4.821,4.104c0.294,1.591,0.488,1.896,1.145,1.77
		c0.404-0.075,0.457-0.44,0.582-3.823c0.081-2.068,0.09-3.877,0.037-4.047c-0.191-0.547-1.253-0.349-1.533,0.281l-0.27,0.566
		l-1.157-0.718c-1.07-0.663-1.328-0.729-2.754-0.632c-1.253,0.078-1.773,0.25-2.587,0.818c-2.825,1.994-4.8,7.189-4.8,12.645
		c0,6.305,2.499,11.953,5.92,13.459C114.69,107.085,115.686,107.115,116.898,106.779z M144.103,106.438
		c0.546-0.65,0.203-1.201-0.827-1.332l-0.942-0.123l-2.727-12.562c-1.502-6.907-2.733-12.588-2.733-12.622
		c0-0.035-0.32-0.063-0.717-0.063c-0.85,0-0.688-0.491-2.287,7.004c-0.616,2.851-1.742,8.077-2.494,11.597l-1.387,6.402
		l-1.157,0.071l-1.147,0.078l0.069-11.426l0.057-11.43l0.847-0.119c0.751-0.108,0.844-0.207,0.844-0.848V80.34h-3.736h-3.747v0.727
		c0,0.641,0.088,0.739,0.85,0.848l0.831,0.119v11.359v11.347l-0.831,0.122c-0.758,0.102-0.863,0.211-0.92,0.908l-0.085,0.786
		l5.764-0.057l5.747-0.065l0.079-0.664c0.057-0.582-0.04-0.691-0.679-0.819c-0.408-0.083-0.725-0.216-0.722-0.3
		c0-0.082,0.261-1.349,0.551-2.805l0.546-2.662l1.975-0.066c1.888-0.076,1.98-0.049,2.1,0.48c0.426,2.037,0.854,4.426,0.854,4.805
		c0,0.324-0.168,0.459-0.59,0.459c-0.349,0-0.709,0.204-0.841,0.468c-0.329,0.606-0.32,0.634,0.123,1.085
		C137.301,106.947,143.661,106.975,144.103,106.438z M133.302,96.586c0.07-0.303,0.474-2.313,0.914-4.469
		c0.439-2.16,0.861-3.924,0.969-3.924c0.105,0,0.533,1.87,0.963,4.165c0.444,2.294,0.836,4.304,0.898,4.476
		c0.083,0.219-0.379,0.289-1.865,0.289C133.248,97.123,133.191,97.11,133.302,96.586z"/>
	<path d="M103.943,33.66c21.522,0.171,43.29,8.235,65.297,23.516l1.078,0.748l0.111,1.324c2.099,25.742-2.108,47.607-12.813,65.479
		c-10.708,17.894-27.863,31.668-51.673,41.203l-1.032,0.412l-1.036-0.412c-25.804-10.313-42.675-25.069-52.741-43.208
		c-10.041-18.108-13.238-39.479-11.733-63.091l0.079-1.246l0.986-0.77C61.211,41.249,82.385,33.492,103.943,33.66 M164.96,61.008
		c-20.709-14.149-41.065-21.618-61.026-21.773c-19.943-0.158-39.627,6.978-59.041,22.012c-1.255,22.09,1.807,41.997,11.116,58.764
		c9.322,16.802,24.969,30.557,48.894,40.323c22.11-9.042,38.021-21.897,47.937-38.458C162.732,105.338,166.722,85.012,164.96,61.008
		z"/>
</g>
</svg>
