<?xml version="1.0" encoding="UTF-8"?>
<svg id="Layer_1" data-name="Layer 1" xmlns="http://www.w3.org/2000/svg" width="215.865" height="200" version="1.1" viewBox="0 0 215.865 200">
  <polygon points="61.72 169.858 56.826 161.661 50.832 161.661 50.832 181.97 55.481 181.97 55.481 167.656 61.598 177.933 67.715 167.656 67.715 181.97 72.486 181.97 72.486 161.661 66.492 161.661 61.72 169.858" fill="#000" stroke-width="0"/>
  <path d="M84.721,150.65c-2.814,0-5.016-.367-5.995-.612v4.282c1.958.367,3.793.489,5.873.612,5.383,0,7.952-1.835,7.952-5.873,0-3.915-2.692-5.138-6.117-6.729-2.202-.979-3.67-1.591-3.67-2.692,0-1.223.612-1.468,3.303-1.468,2.325,0,4.404.245,5.505.367v-4.282c-1.346-.123-3.181-.367-5.75-.367-5.016,0-7.585,1.468-7.585,5.75,0,3.548,2.447,4.771,5.628,6.24,3.303,1.591,4.282,1.713,4.282,3.181,0,1.346-1.101,1.59-3.426,1.59Z" fill="#000" stroke-width="0"/>
  <rect x="134.148" y="134.256" width="4.527" height="20.309" fill="#000" stroke-width="0"/>
  <polygon points="50.954 154.565 50.954 134.256 44.959 134.256 40.31 142.576 35.416 134.256 29.544 134.256 29.544 154.565 34.07 154.565 34.07 140.251 40.31 150.528 46.427 140.251 46.427 154.565 50.954 154.565" fill="#000" stroke-width="0"/>
  <path d="M84.354,161.417c-5.995,0-8.809,3.181-8.809,10.399s2.814,10.399,8.809,10.399,8.809-3.181,8.809-10.399-2.814-10.399-8.809-10.399ZM84.232,178.055c-3.303,0-4.037-2.08-4.037-6.24s.734-6.24,4.037-6.24,4.037,2.08,4.037,6.24-.612,6.24-4.037,6.24Z" fill="#000" stroke-width="0"/>
  <rect x="54.869" y="134.256" width="4.527" height="20.309" fill="#000" stroke-width="0"/>
  <polygon points="71.508 154.565 71.508 138.538 77.013 138.538 77.013 134.256 61.475 134.256 61.475 138.538 66.859 138.538 66.859 154.565 71.508 154.565" fill="#000" stroke-width="0"/>
  <path d="M127.786,143.921c1.59-.489,3.181-1.468,3.181-4.404,0-3.67-2.325-5.261-6.484-5.261h-8.931l.122,20.309h9.176c4.649,0,6.729-2.202,6.729-5.75,0-3.303-1.958-4.282-3.793-4.894ZM120.078,138.049h3.67c1.835,0,2.569.49,2.569,2.08,0,1.346-.734,2.324-2.569,2.324h-3.67v-4.405ZM124.116,150.773h-4.037v-4.649h4.16c1.713,0,2.447.612,2.447,2.202,0,1.713-.734,2.447-2.569,2.447Z" fill="#000" stroke-width="0"/>
  <path d="M155.803,149.06c0-3.915-2.692-5.138-6.117-6.729-2.202-.979-3.67-1.591-3.67-2.692,0-1.223.612-1.468,3.303-1.468,2.324,0,4.404.245,5.505.367v-4.282c-1.346-.123-3.181-.367-5.75-.367-5.016,0-7.585,1.468-7.585,5.75,0,3.548,2.447,4.771,5.628,6.24,3.303,1.591,4.282,1.713,4.282,3.181,0,1.346-1.101,1.59-3.426,1.59-2.814,0-5.016-.367-5.995-.612v4.282c1.958.367,4.037.489,5.872.612,5.383,0,7.952-1.835,7.952-5.873Z" fill="#000" stroke-width="0"/>
  <polygon points="170.239 142.331 163.021 142.331 163.021 134.256 158.494 134.256 158.494 154.565 163.021 154.565 163.021 146.491 170.239 146.491 170.239 154.565 174.766 154.565 174.766 134.256 170.239 134.256 170.239 142.331" fill="#000" stroke-width="0"/>
  <path d="M156.537,169.614c-2.202-.979-3.67-1.591-3.67-2.692s.612-1.346,3.303-1.346c2.324,0,4.404.245,5.505.367v-4.282c-1.346-.122-3.181-.367-5.75-.367-5.016,0-7.585,1.468-7.585,5.75,0,3.548,2.447,4.771,5.628,6.24,3.303,1.591,4.282,1.713,4.282,3.181,0,1.346-1.101,1.591-3.426,1.591-2.814,0-5.016-.367-5.995-.612v4.282c1.958.367,4.037.489,5.872.489,5.383,0,7.952-1.835,7.952-5.873,0-3.915-2.692-5.138-6.117-6.729Z" fill="#000" stroke-width="0"/>
  <rect x="178.559" y="134.256" width="4.527" height="20.309" fill="#000" stroke-width="0"/>
  <polygon points="93.897 165.943 99.402 165.943 99.402 181.97 103.929 181.97 103.929 165.943 109.434 165.943 109.434 161.661 93.774 161.661 93.897 165.943" fill="#000" stroke-width="0"/>
  <path d="M111.637,134.256h-4.527v13.213c0,2.324-1.468,3.059-3.548,3.059-2.202,0-3.548-.734-3.548-3.059v-13.213h-4.527v13.458c0,4.894,3.181,7.218,8.075,7.218s8.075-2.324,8.075-7.218v-13.458Z" fill="#000" stroke-width="0"/>
  <path d="M146.138,168.146c0-4.894-2.814-6.484-7.218-6.484h-8.197v20.309h4.527v-7.218h2.08l4.282,7.218h5.383l-5.016-8.075c2.569-.49,4.16-2.569,4.16-5.75ZM138.797,170.715v.122h-3.426v-5.261h3.426c1.958,0,2.692,1.101,2.692,2.569s-.612,2.569-2.692,2.569Z" fill="#000" stroke-width="0"/>
  <path d="M118.977,161.417c-5.995,0-8.809,3.181-8.809,10.399s2.814,10.399,8.809,10.399,8.809-3.181,8.809-10.399-2.814-10.399-8.809-10.399ZM118.855,178.055c-3.303,0-4.037-2.08-4.037-6.24s.734-6.24,4.037-6.24,4.037,2.08,4.037,6.24-.734,6.24-4.037,6.24Z" fill="#000" stroke-width="0"/>
  <polygon points="106.009 17.785 86.678 51.429 106.131 85.196 125.584 51.429 106.009 17.785" fill="#000" stroke-width="0"/>
  <polygon points="106.07 85.302 106.009 85.196 67.226 85.196 47.773 118.841 86.678 118.841 106.07 85.302" fill="#000" stroke-width="0"/>
  <polygon points="164.489 118.841 145.037 85.196 106.131 85.196 106.07 85.302 125.584 118.841 164.489 118.841" fill="#000" stroke-width="0"/>
</svg>
