<?xml version="1.0" encoding="UTF-8"?>
<svg id="Layer_1" xmlns="http://www.w3.org/2000/svg" version="1.1" viewBox="0 0 252 75.315">
  <!-- Generator: Adobe Illustrator 29.5.1, SVG Export Plug-In . SVG Version: 2.1.0 Build 141)  -->
  <path d="M23.978,62.235h43.487c9.126,0,14.905-4.637,14.905-13.12v-17.751h-35.611v11.044h23.396v4.516c0,2.937-1.615,3.73-3.729,3.73H26.446c-2.91,0-3.824-1.498-3.824-3.855v-19.27c0-2.564,1.419-3.412,2.986-3.412h56.763v-11.576H23.858c-9.01,0-13.767,5.502-13.767,13.668v22.461c0,8.483,5.047,13.566,13.887,13.566"/>
  <polygon points="102.587 24.539 122.605 62.235 134.184 62.235 154.164 24.539 154.164 62.235 166.74 62.235 166.74 12.54 147.43 12.54 128.38 48.227 109.324 12.54 90.054 12.54 90.054 62.235 102.587 62.235 102.587 24.539"/>
  <path d="M173.991,26.208v22.461c0,8.483,5.048,13.566,13.86,13.566h52.44v-12.51h-49.933c-2.909,0-3.846-1.484-3.846-3.836v-17.445c0-2.525,1.436-3.432,3.008-3.432h50.771v-12.473h-52.551c-8.992,0-13.75,5.502-13.75,13.668"/>
</svg>