<?xml version="1.0" encoding="UTF-8"?>
<svg id="Layer_1" xmlns="http://www.w3.org/2000/svg" version="1.1" viewBox="0 0 158 158">
  <!-- Generator: Adobe Illustrator 29.5.1, SVG Export Plug-In . SVG Version: 2.1.0 Build 141)  -->
  <path d="M79.337,14.003C43.495,14.003,14.333,43.166,14.333,78.996s29.162,65.001,65.004,65.001,64.996-29.154,64.996-65.001S115.175,14.003,79.337,14.003M79.337,142.201c-34.847,0-63.198-28.343-63.198-63.205S44.49,15.799,79.337,15.799s63.19,28.343,63.19,63.196-28.323,63.205-63.19,63.205"/>
  <path d="M42.293,53.486c.06.052.122.105.186.153.015,0,.049-.048.049-.053,1.275-1.592,2.551-3.173,3.806-4.754.461-.572.929-1.149,1.384-1.739.478-.577.573-1.325.302-2.016-.357-.705-1.041-1.172-1.851-1.148-.661.018-1.176.371-1.579.876-.567.705-1.116,1.406-1.682,2.106-1.153,1.429-2.291,2.874-3.438,4.309.59.484,1.192.952,1.786,1.428.355.28.695.553,1.038.838"/>
  <path d="M79.337,16.924c-34.285,0-62.074,27.8-62.074,62.071s27.789,62.086,62.074,62.086,62.076-27.797,62.076-62.086-27.791-62.071-62.076-62.071M69.312,20.801l5.814-.643,4.211,12.282,4.208-12.282,5.816.643.644,17.463-4.532-.639-.433-11.645-4.087,11.645h-3.238l-4.095-11.645-.419,11.645-4.524.639.635-17.463ZM30.12,49.555c-.457-.385-.925-.766-1.4-1.144-.014,0-.163-.127-.163-.133.086-.095.149-.2.247-.295,1.212-1.515,2.401-3.016,3.618-4.52,1.409-1.754,2.811-3.531,4.222-5.271.265-.323.526-.667.802-1.014.473-.586,1.107-1.035,1.81-1.321,1.518-.547,3.252-.179,4.405.944.562.549.963,1.254,1.15,2.02.194.782.123,1.563-.102,2.33.102-.086.21-.186.318-.266,1.363-.953,3.14-1.224,4.685-.52,1.539.7,2.53,2.092,2.763,3.746.06.624.024,1.247-.148,1.856-.354,1.163-1.176,2.044-1.925,2.964-1.446,1.811-2.891,3.611-4.329,5.409-1.202,1.509-2.412,3.005-3.616,4.506-.092.123-.171.229-.269.337-.014.025-.111-.081-.137-.099-.44-.353-.896-.711-1.336-1.068-1.768-1.41-3.508-2.82-5.272-4.211-1.768-1.42-3.544-2.854-5.321-4.25M79.337,117.796c-21.418,0-38.784-17.37-38.784-38.801s17.366-38.788,38.784-38.788,38.803,17.366,38.803,38.788-17.372,38.801-38.803,38.801M116.298,58.946l-2.232-3.811,7.68-10.081-11.514,5.279-3.24-2.992,10.496-13.794,3.246,3.003-6.062,7.951,9.686-4.445,2.838,3.545-6.462,8.471,9.074-4.169,2.236,3.816-15.746,7.228Z"/>
  <path d="M42.15,42.41c.143-.639,0-1.301-.447-1.798-.54-.585-1.418-.786-2.179-.48-.539.219-.871.695-1.217,1.153-1.381,1.701-2.735,3.402-4.091,5.093-.019.029-.315.386-.289.396.257.225.54.439.824.667.729.586,1.459,1.171,2.175,1.763.73-.905,1.434-1.791,2.154-2.703.727-.89,1.435-1.776,2.155-2.673.351-.452.751-.862.914-1.418"/>
  <path d="M42.507,78.996h36.83v-36.83c-20.104.539-36.306,16.734-36.83,36.83"/>
  <path d="M79.337,115.838c20.106-.534,36.31-16.742,36.838-36.83h-36.838v36.83Z"/>
</svg>