<?xml version="1.0" encoding="utf-8"?>
<!-- Generator: Adobe Illustrator 16.0.0, SVG Export Plug-In . SVG Version: 6.00 Build 0)  -->
<!DOCTYPE svg PUBLIC "-//W3C//DTD SVG 1.1//EN" "http://www.w3.org/Graphics/SVG/1.1/DTD/svg11.dtd">
<svg version="1.1" id="Layer_1" xmlns="http://www.w3.org/2000/svg" xmlns:xlink="http://www.w3.org/1999/xlink" x="0px" y="0px"
	 width="300px" height="95px" viewBox="0 0 300 95" enable-background="new 0 0 300 95" xml:space="preserve">
<g>
	<polygon points="49.153,50.873 55.89,50.873 55.89,60.307 69.79,60.307 69.79,35.963 55.89,35.963 55.89,45.279 49.153,45.279 
		49.153,35.963 35.232,35.963 35.232,60.307 49.153,60.307 	"/>
	<path d="M81.928,60.307h14.579c7.948,0,10.097-5.359,10.097-7.857V35.956H92.689v16.269c0,1.699-1.018,3.598-3.489,3.598
		s-3.47-1.898-3.47-3.598V35.956H71.809v16.493C71.809,54.947,73.945,60.307,81.928,60.307"/>
	<polygon points="121.182,49.887 126.906,60.307 132.736,60.307 138.465,49.887 138.465,60.307 151.256,60.307 151.256,35.956 
		135.323,35.956 129.812,45.832 124.326,35.956 108.379,35.956 108.379,60.307 121.182,60.307 	"/>
	<polygon points="165.836,49.887 171.561,60.307 177.394,60.307 183.117,49.887 183.117,60.307 195.891,60.307 195.891,35.956 
		179.965,35.956 174.479,45.832 168.982,35.956 153.053,35.956 153.053,60.307 165.836,60.307 	"/>
	<polygon points="224.641,53.596 211.833,53.596 211.833,50.873 224.641,50.873 224.641,45.279 211.833,45.279 211.833,42.707 
		224.641,42.707 224.641,35.956 197.479,35.956 197.479,60.307 224.641,60.307 	"/>
	<path d="M261.439,44.023c0-3.025-1.909-8.067-7.304-8.067h-27.71v24.351h13.918V53.25l5.938,7.057h17.161l-7.285-8.628
		C259.063,51.797,261.439,47.061,261.439,44.023 M244.156,47.188h-3.813v-5.507h4.266C248.096,41.681,247.746,47.188,244.156,47.188
		"/>
	<path d="M262.713,35.693c-1.105,0-2.058,0.846-2.058,1.999c0,1.198,0.952,2.033,2.058,2.033c1.115,0,2.054-0.835,2.054-2.033
		C264.767,36.539,263.828,35.693,262.713,35.693 M262.713,39.397c-0.924,0-1.65-0.722-1.65-1.705c0-0.971,0.727-1.665,1.65-1.665
		c0.928,0,1.646,0.694,1.646,1.665C264.359,38.676,263.641,39.397,262.713,39.397"/>
</g>
</svg>
