<?xml version="1.0" encoding="UTF-8"?>
<svg id="Layer_1" xmlns="http://www.w3.org/2000/svg" version="1.1" viewBox="0 0 158 158">
  <!-- Generator: Adobe Illustrator 29.5.1, SVG Export Plug-In . SVG Version: 2.1.0 Build 141)  -->
  <path d="M113.197,121.492c-13.711,13.896-59.256,10.92-67.621,0-10.209-22.475-13.896-45.492-12.637-68.916-.365-7.789,2.189-13.043,7.662-15.752,19.023-8.537,57.045-9.476,74.688-.338,7.285,2.807,9.949,9.824,9.648,20.045.578,25.631-4.662,46.824-11.74,64.961M23.504,52.422c1.494-9.279,7.43-16.107,16.949-21.611,20.781-13.719,53.764-13.924,77.506.479,8.564,4.473,13.5,11.297,15.822,20.139,4.783,25.17.615,47.158-9.984,66.166-11.566,26.478-72.785,26.93-87.172,3.088-12.164-16.51-18.113-44.041-13.121-68.26ZM78.986,144.99c-36.67,0-66.404-29.555-66.404-65.988S42.316,13.01,78.986,13.01s66.432,29.553,66.432,65.992-29.734,65.988-66.432,65.988ZM95.379,53.836h16.836l-.053,5.988-5.521-.014-.057,47.217h-5.498l-.246-47.185-5.471-.031.01-5.975ZM88.664,74.492h-7.598v-14.924l4.705-.01,2.893,6.992v7.941ZM94.156,107.027h-5.492l-.043-25.439h-7.576l-.123,25.449-4.957-.01v-53.351h12.969l5.223,10.559v42.793ZM63.928,53.676h5.483v53.51h-5.483v-53.51ZM45.459,53.836h15.975v5.897l-10.465.01.021,15.926,8.215.01.02,5.975-8.234-.016-.027,25.549h-5.504v-53.35Z" fill-rule="evenodd"/>
</svg>