<?xml version="1.0" encoding="utf-8"?>
<!-- Generator: Adobe Illustrator 16.0.0, SVG Export Plug-In . SVG Version: 6.00 Build 0)  -->
<!DOCTYPE svg PUBLIC "-//W3C//DTD SVG 1.1//EN" "http://www.w3.org/Graphics/SVG/1.1/DTD/svg11.dtd">
<svg version="1.1" id="Layer_1" xmlns="http://www.w3.org/2000/svg" xmlns:xlink="http://www.w3.org/1999/xlink" x="0px" y="0px"
	 width="259.334px" height="200px" viewBox="0 0 259.334 200" enable-background="new 0 0 259.334 200" xml:space="preserve">
<g>
	<path d="M127.992,85.362c0-4.504,6.453-5.677,8.01-1.683c1.265,3.254-1.222,5.797-3.42,5.797c-1.918,0-3.475-0.675-4.216-2.429
		C128.244,86.765,127.992,85.669,127.992,85.362L127.992,85.362z M115.492,45.335c0.109,0.417,1.256,1.374,1.647,1.677
		c1.748,1.327,3.657,3.674,5.116,5.322c0.587,0.655,1.013,1.207,1.554,1.931c0.55,0.737,0.954,1.265,1.462,2.021
		c0.541,0.814,2.322,3.584,2.404,4.557c-0.483,0.009-0.574,0.071-0.948,0.158l-5.107-5.336c-0.383-0.322-0.489-0.336-0.869-0.715
		c-1.817-1.825-4.791-4.04-6.87-5.313c-0.419-0.259-3.429-1.979-3.97-1.792c-0.009,0.005-0.824,0.46-0.899,0.503l-2.761,1.825
		c-2.353,1.768-2.741,2.151-4.8,4.217l-1.462,1.705c2.222,1.489,5.374,2.975,8.184,5.106c1.866,1.419,5.787,4.072,7.161,6.127
		c-0.416,0.098-0.465,0.145-0.79,0.318c-2.426-1.625-5.135-3.201-8.092-4.255c-1.994-0.71-7.813-2.827-9.631-2.869
		c-0.216,0.804-3.62,6.164-4.249,12.235c-0.112,1.093,0.58,0.574,4.04,1.585c5.03,1.472,10.715,3.829,13.955,8.192
		c0.6,0.806,0.982,1.255,1.447,2.19c1.28,2.582,2.466,5.776,2.529,8.704c-4.174,0-2.438,0.183-6.104-1.331
		c-1.35-0.557-2.31-1.202-3.699-1.209c-3.271-0.009-6.541,0.007-9.815,0.007c0.164,0.689,1,2.17,1.371,2.902
		c0.265,0.526,0.45,0.795,0.757,1.303c1.088,1.797,2.265,3.479,3.617,5.089c0.383,0.459,0.732,0.661,1.064,1.149
		c5.45,0,3.934,0.484,7.961-1.528c1.645-0.819,1.496-1.006,3.903-1.003h29.905c0.265,1.137,0.724,1.727,0.791,2.531
		c1.577,0,4.833-1.035,6.109-1.808c1.311-0.8,3.651-2.155,4.493-3.415c-1.502-2.242-7.354-5.221-10.603-5.221
		c-0.067,0.809-0.523,1.38-0.791,2.528h-3.325c0.498-2.142,1.663-4.071,2.626-8.925c1.815-9.155,1.648-16.429-1.538-25.07
		c-0.474-1.289-1.14-2.865-1.845-4.012c-0.386-0.626-0.645-1.148-1.043-1.799c-0.404-0.657-0.806-1.209-1.203-1.808
		c-1.326-2.002-2.122-2.62-3.277-4l-2.937-2.917c-1.77-1.48-1.715-1.309-4.39-1.309C120.073,43.591,116.642,45.238,115.492,45.335z"
		/>
	<path d="M87.486,77.452c0-6.376,1.806-13.266,4.852-18.724c1.787-3.199,4.551-6.912,7.211-9.402
		c6.478-6.07,16.135-10.636,24.966-10.636c5.572,0,10.208,0.263,15.396,2.322c1.155,0.461,2.253,0.877,3.332,1.42
		c2.258,1.14,6.63,3.751,8.611,5.628l1.265,1.106c1.398,1.309,1.447,1.567,2.292,2.458c1.469,1.553,1.839,2.224,3.152,3.967
		c0.361,0.483,0.599,0.964,0.924,1.451c1.532,2.284,2.897,5.447,3.775,8.092c0.396,1.198,0.772,2.354,1.062,3.685
		c1.21,5.501,1.395,11.732,0.033,17.15c-0.301,1.209-0.645,2.728-1.052,3.854c-0.207,0.569-0.438,1.173-0.653,1.719
		c-2.356,5.868-3.755,7.427-7.411,12.049c-1.493,1.894-5.627,5.222-7.903,6.65c-1.554,0.977-3.129,1.888-4.824,2.611
		c-6.627,2.835-13.06,4.139-20.392,3.233c-2.62-0.321-5.642-0.867-8.067-1.744c-0.568-0.206-1.174-0.436-1.721-0.651l-2.529-1.106
		c-0.341-0.149-0.522-0.178-0.885-0.384l-5.194-3.196c-0.277-0.2-0.511-0.325-0.751-0.512l-2.688-2.213
		c-1.38-1.093-3.444-3.613-4.611-5.04C90.441,94.853,87.486,85.649,87.486,77.452L87.486,77.452z M125.104,34.891
		c-7.211,0.191-14.272,2.155-20.564,5.979c-2.639,1.604-3.186,2.05-5.375,3.803c-1.514,1.213-2.146,1.96-3.498,3.312
		c-1.818,1.819-3.223,3.589-4.676,5.769c-3.587,5.385-6.63,12.896-6.994,19.427c-0.243,4.359-0.374,5.648,0.134,9.834
		c0.44,3.627,1.395,7.11,2.711,10.421c1.843,4.604,3.897,7.66,6.985,11.526l2.545,2.837c1.669,1.687,5.38,4.617,7.243,5.729
		c2.968,1.768,5.664,3.19,8.992,4.297c3.016,1.002,7.919,2.229,11.096,2.195c1.079-0.01,1.443,0.157,2.529,0.157
		c3.234,0,6.417-0.479,9.511-1.093c1.505-0.296,2.81-0.717,4.198-1.183c4.617-1.538,8.378-3.568,12.221-6.453l4.334-3.732
		c0.417-0.417,0.906-0.838,1.253-1.278c2.754-3.488,4.171-4.608,6.62-9.52c0.295-0.599,0.593-1.146,0.895-1.792
		c0.881-1.883,1.511-3.805,2.134-5.783c0.2-0.637,0.358-1.383,0.55-2.142c0.657-2.592,1.167-6.841,1.167-9.591
		c0-10.349-3.453-19.101-9.557-26.992c-0.243-0.315-0.368-0.392-0.593-0.675l-1.188-1.326c-0.325-0.346-0.325-0.456-0.626-0.795
		l-2.703-2.516c-0.514-0.403-0.888-0.71-1.404-1.131c-2.687-2.195-4.948-3.513-8.062-5.069c-2.252-1.126-5.073-2.237-7.584-2.86
		c-3.289-0.814-6.612-1.269-9.929-1.36h-2.364V34.891z"/>
	<path d="M173.72,159.256h-16.932v-14.56h16.458c1.921,0,3.483,1.117,3.483,3.008v8.226
		C176.724,157.786,175.522,159.256,173.72,159.256L173.72,159.256z M150.301,139.162v25.953h25c1.869,0,4.654-1.878,5.86-3.478
		c2.605-3.46,2.056-7.531,2.056-12.505c0-3.119-0.973-6.267-3.417-8.135c-0.319-0.249-0.393-0.355-0.693-0.571
		c-1.553-1.115-3.909-1.738-6.019-1.738h-22.313C150.414,138.688,150.301,138.799,150.301,139.162z"/>
	<path d="M115.809,155.937c0-2.291-0.398-8.538,0.604-9.841c0.377-0.493,1.131-1.236,1.931-1.236h15.825
		c1.444,0,2.688,1.246,2.688,2.688v9.021c0,1.489-1.362,2.688-2.849,2.688h-15.506C117.273,159.256,115.809,157.92,115.809,155.937
		L115.809,155.937z M109.479,147.548v9.179c0,1.863,1.286,4.365,2.568,5.657c1.125,1.137,3.338,2.727,5.499,2.727h17.723
		c0.681,0,1.197-0.149,1.721-0.335c0.392-0.144,1.076-0.407,1.44-0.613c0.398-0.231,0.821-0.541,1.237-0.819
		c2.033-1.355,3.669-4.466,3.669-6.933v-8.706c0-1.484-0.48-2.701-1-3.745c-0.361-0.719-0.462-0.905-0.896-1.48
		c-0.368-0.489-0.764-0.854-1.229-1.309c-1.806-1.763-4.568-2.486-7.162-2.486h-12.974c-3.942,0-6.466,1.077-8.508,3.517
		c-0.39,0.466-0.733,0.939-1.04,1.49C110.036,144.592,109.479,146.226,109.479,147.548z"/>
	<path d="M73.248,165.11h6.487v-10.129h8.384l5.101,5.026c1.429,1.434,4.222,3.671,5.183,5.103h9.022l-13.448-12.974l6.922-6.684
		c0.596-0.594,1.069-1.068,1.662-1.661c1.404-1.404,4.316-3.815,5.187-5.104h-8.864c-0.571,0.854-6.42,6.344-7.636,7.555
		c-0.69,0.69-2.019,1.864-2.493,2.573h-9.019v-10.128h-6.487V165.11L73.248,165.11z"/>
	<path d="M204.891,143.753c0.167,0.709,3.118,5.634,3.793,6.965l0.8,1.419c0.256,0.44,0.529,0.93,0.814,1.397
		c0.308,0.496,0.499,0.964,0.764,1.458h-12.5c0.498-0.939,0.948-1.811,1.517-2.756L204.891,143.753L204.891,143.753z
		 M185.745,165.11h7.12l5.38-9.654l3.322,5.064h12.658c0.407,0.771,0.839,1.489,1.262,2.224l1.271,2.366h7.274
		c-0.213-0.924-2.915-5.228-3.639-6.646c-0.298-0.583-0.557-1.024-0.896-1.634l-5.533-9.811c-0.331-0.614-0.62-1.145-0.973-1.721
		l-3.669-6.616h-8.864l-2.225,4.111c-0.167,0.292-0.295,0.45-0.469,0.795c-0.318,0.628-0.626,1.12-0.942,1.743l-10.131,18.034
		C186.384,163.979,186.064,164.507,185.745,165.11z"/>
	<path d="M35.11,145.175c0,2.785-0.358,5.745,1.462,7.561c1.007,1.006,2.311,1.778,3.919,1.778h19.618
		c0,6.213,1.672,5.063-10.444,5.063c-3.903,0-7.804,0-11.706,0c-0.548,1.035-3.152,4.906-3.326,5.539l27.656-0.029
		c0.931-0.153,2.286-1.077,2.818-1.772c0.699-0.919,1.328-1.892,1.328-3.417v-6.021c0-1.979-1.429-3.89-3.183-4.57
		c-1.937-0.752-5.171-0.492-7.42-0.492h-11.71c-1.422,0-2.687,0.178-2.687-1.265v-8.864C37.454,138.688,35.11,141.228,35.11,145.175
		z"/>
	<path d="M47.452,144.227h15.035l2.979-4.771c0.222-0.354,0.234-0.294,0.347-0.768h-21.68C44.354,139.638,46.808,143,47.452,144.227
		z"/>
</g>
</svg>
