<?xml version="1.0" encoding="utf-8"?>
<!-- Generator: Adobe Illustrator 16.0.0, SVG Export Plug-In . SVG Version: 6.00 Build 0)  -->
<!DOCTYPE svg PUBLIC "-//W3C//DTD SVG 1.1//EN" "http://www.w3.org/Graphics/SVG/1.1/DTD/svg11.dtd">
<svg version="1.1" id="Layer_1" xmlns="http://www.w3.org/2000/svg" xmlns:xlink="http://www.w3.org/1999/xlink" x="0px" y="0px"
	 width="279.333px" height="200px" viewBox="0 0 279.333 200" enable-background="new 0 0 279.333 200" xml:space="preserve">
<g>
	<path d="M85.4,102.388c0.582,2.95,1.283,5.859,2.417,8.659c0.672,1.594,1.388,3.175,2.392,4.6c1.896,2.719,4.403,4.712,7.446,6.022
		c1.245,0.542,2.499,1.004,3.795,1.384c3.597,1.085,7.312,1.638,11.035,1.945c3.568,0.308,7.161,0.546,10.754,0.686
		c5.189,0.196,10.357,0.26,14.415,0.351c4.337-0.063,7.529-0.1,10.715-0.154c4.475-0.105,8.975-0.277,13.475-0.608
		c3.342-0.236,6.676-0.552,9.988-1.178c2.713-0.503,5.378-1.194,7.899-2.309c4.216-1.854,7.396-4.774,9.302-8.984
		c0.811-1.782,1.508-3.578,2.036-5.461c0.993-3.583,1.658-7.231,2.174-10.905c0.478-3.637,0.889-7.295,1.255-10.939
		c0.359-3.64,0.594-7.295,0.677-10.939c0.125-5.863,0.187-11.728-0.317-17.581c-0.183-2.258-0.567-4.471-1.271-6.617
		c-1.173-3.649-3.161-6.743-6.244-9.076c-1.999-1.483-4.208-2.512-6.535-3.276c-3.141-1.022-6.359-1.564-9.629-1.967
		c-3.972-0.48-7.986-0.823-11.986-1.004c-4.147-0.212-8.298-0.366-12.442-0.452c-5.546-0.141-11.111-0.106-16.683,0.005
		c-6.272,0.13-12.528,0.389-18.782,0.95c-3.105,0.289-6.228,0.606-9.301,1.183c-2.599,0.489-5.164,1.138-7.584,2.199
		c-4.152,1.791-7.332,4.644-9.311,8.744c-1.114,2.334-1.776,4.798-2.109,7.338c-0.373,2.698-0.517,5.406-0.556,8.115
		c-0.043,3.486-0.068,6.964,0,10.45c0.101,6.232,0.695,12.438,1.393,18.638C84.206,95.612,84.744,99.012,85.4,102.388
		 M88.087,68.558c0.071-2.987,0.177-5.97,0.37-8.938c0.158-2.636,0.45-5.233,1.228-7.785c1.014-3.23,2.733-5.963,5.518-7.965
		c1.586-1.129,3.344-1.937,5.183-2.545c2.036-0.674,4.14-1.102,6.252-1.364c2.938-0.375,5.896-0.721,8.866-1.004
		c2.059-0.197,4.144-0.308,6.231-0.408c3.457-0.153,6.905-0.354,10.358-0.384c5.072-0.048,10.147-0.048,15.223,0.052
		c3.844,0.073,7.669,0.274,11.536,0.501c4.09,0.225,8.212,0.633,12.275,1.257c2.655,0.389,5.261,0.932,7.727,1.959
		c3.029,1.24,5.536,3.107,7.293,5.902c1.007,1.613,1.667,3.376,2.118,5.221c0.446,1.857,0.69,3.745,0.83,5.643
		c0.476,5.656,0.537,11.327,0.414,16.998c-0.078,3.372-0.305,6.729-0.644,10.076c-0.256,2.747-0.511,5.483-0.835,8.211
		c-0.548,4.447-1.27,8.856-2.672,13.144c-0.461,1.47-1.026,2.905-1.746,4.27c-1.769,3.435-4.463,5.84-8.021,7.319
		c-2.194,0.902-4.479,1.44-6.801,1.811c-3.984,0.647-8.013,0.955-12.052,1.186c-5.504,0.297-11.061,0.447-16.601,0.447h-1.322v0.081
		c-4.782-0.115-9.571-0.177-14.357-0.366c-3.492-0.133-6.978-0.393-10.441-0.682c-2.905-0.249-5.754-0.647-8.567-1.349
		c-1.404-0.351-2.745-0.822-4.037-1.402c-3.478-1.59-6.018-4.129-7.643-7.544c-1.102-2.271-1.86-4.663-2.461-7.087
		c-0.799-3.329-1.37-6.705-1.753-10.101c-0.395-3.804-0.794-7.615-1.088-11.415C88.062,77.705,88.011,73.13,88.087,68.558"/>
	<path d="M58.788,144.408c0.276,0.048,0.521,0.091,0.77,0.105c0.742,0.106,1.528,0.177,2.295,0.265
		c0.928,0.114,1.411,0.574,1.557,1.493c0.037,0.12,0.066,0.23,0.066,0.351c0,1.271-0.019,2.54-0.019,3.809
		c0,0.022-0.048,0.057-0.058,0.096c-0.691,0.114-13.993,0.077-14.427-0.049v-2.118c0.021-0.671,0-1.349,0.045-2.007
		c0.091-0.923,0.604-1.426,1.504-1.561c0.421-0.072,0.854-0.091,1.271-0.144c0.629-0.072,1.248-0.149,1.893-0.24
		c0-0.582,0.01-1.096,0-1.629c-0.029-0.509,0.06-1.026-0.05-1.521H34.823v3.15c0.284,0.048,0.526,0.091,0.777,0.105
		c0.753,0.106,1.516,0.177,2.3,0.265c0.921,0.114,1.406,0.57,1.589,1.487c0.044,0.266,0.044,0.538,0.044,0.808v11.77
		c0,0.299,0,0.581-0.056,0.87c-0.184,0.897-0.667,1.33-1.567,1.436c-0.783,0.096-1.532,0.173-2.295,0.26
		c-0.275,0.037-0.528,0.086-0.784,0.118v3.09c0.634,0.129,18.396,0.109,18.824-0.021v-3.087c-0.973-0.115-1.929-0.246-2.89-0.337
		c-1.178-0.129-1.715-0.614-1.758-1.806c-0.035-1.278-0.015-2.568-0.015-3.855c0-0.033,0.043-0.058,0.058-0.088
		c0.785-0.124,13.968-0.081,14.425,0.055c0,1.238,0,2.472,0,3.72c0,0.16-0.029,0.318-0.066,0.473
		c-0.146,0.888-0.606,1.354-1.505,1.479c-0.43,0.048-0.841,0.085-1.271,0.139c-0.594,0.067-1.219,0.154-1.83,0.222v3.146h18.8
		v-3.142c-0.319-0.042-0.617-0.077-0.916-0.119c-0.733-0.083-1.479-0.153-2.229-0.245c-0.856-0.124-1.311-0.566-1.479-1.417
		c-0.055-0.312-0.065-0.64-0.065-0.959c-0.004-3.881-0.004-7.743,0-11.614c0-0.301,0.011-0.608,0.054-0.92
		c0.181-0.914,0.681-1.346,1.618-1.46c0.432-0.059,0.891-0.092,1.314-0.136c0.565-0.071,1.121-0.153,1.703-0.23v-3.154H58.788
		V144.408z"/>
	<path d="M144.431,141.314v3.083c0.108,0.021,0.208,0.049,0.311,0.059c0.895,0.115,1.797,0.216,2.715,0.322
		c0.999,0.114,1.507,0.619,1.622,1.613c0.031,0.147,0.031,0.308,0.031,0.455v11.194c0,0.12-0.031,0.236-0.06,0.432
		c-0.212-0.254-0.354-0.436-0.472-0.615c-3.939-5.151-7.855-10.29-11.751-15.462c-0.58-0.763-1.252-1.172-2.188-1.172
		c-0.158,0-0.326,0-0.471,0h-15.521c-0.163,0-0.325,0.014-0.526,0.034v3.15c0.238,0.038,0.45,0.081,0.647,0.105
		c0.781,0.092,1.555,0.173,2.371,0.265c0.965,0.1,1.471,0.57,1.644,1.545c0.047,0.273,0.028,0.549,0.028,0.813
		c0.019,3.89,0.019,7.77,0.019,11.655c0,0.211,0,0.421-0.039,0.633c-0.086,1.085-0.614,1.619-1.719,1.743
		c-0.428,0.039-0.868,0.077-1.314,0.14c-0.549,0.072-1.088,0.149-1.637,0.216v3.094c0.623,0.124,14.568,0.109,14.994-0.007
		c0.103-0.689,0.074-2.684-0.037-3.105c-0.284-0.033-0.563-0.068-0.85-0.105c-0.746-0.088-1.475-0.154-2.186-0.261
		c-0.94-0.113-1.45-0.667-1.541-1.599c-0.014-0.221-0.014-0.417-0.014-0.628c-0.007-3.603,0-7.199,0-10.791v-0.553
		c0.039,0,0.071-0.019,0.127-0.032c0.128,0.167,0.251,0.336,0.385,0.503c3.905,5.153,7.838,10.296,11.729,15.468
		c0.634,0.821,1.396,1.201,2.425,1.195c3.708-0.019,7.406-0.015,11.122-0.015c0.14,0,0.32-0.028,0.493-0.047v-0.759v-16.606
		c0-0.278,0-0.537,0.029-0.806c0.072-1.024,0.629-1.576,1.629-1.69c0.46-0.049,0.893-0.092,1.324-0.15
		c0.578-0.057,1.135-0.148,1.694-0.22v-3.142C158.567,141.152,144.848,141.195,144.431,141.314"/>
	<path d="M199.847,151.636c-0.283-2.978-1.54-5.451-3.938-7.301c-1.061-0.816-2.256-1.401-3.494-1.871
		c-2.511-0.912-5.129-1.24-7.798-1.24c-7.607-0.024-15.229,0-22.808,0c-0.177,0-0.35,0.006-0.522,0.028v3.185
		c0.831,0.077,1.633,0.163,2.443,0.25c1.495,0.153,1.945,0.652,1.945,2.152v12.004c0,0.27-0.015,0.542-0.047,0.813
		c-0.177,0.945-0.665,1.388-1.633,1.512c-0.446,0.029-0.881,0.077-1.32,0.13c-0.558,0.071-1.138,0.159-1.709,0.226v3.179h0.777
		c7.342,0,14.669,0.006,22.018-0.019c1.339,0,2.693-0.059,4.043-0.183c2.075-0.202,4.091-0.715,5.975-1.623
		c2.688-1.301,4.633-3.251,5.569-6.108C199.893,155.089,200.016,153.364,199.847,151.636 M188.711,156.202
		c-0.145,0.604-0.375,1.215-0.681,1.758c-0.688,1.201-1.82,1.806-3.161,2.046c-0.652,0.114-1.335,0.162-2.003,0.168
		c-2.454,0.027-4.918,0.013-7.361,0.013c-0.179,0-0.341-0.019-0.521-0.032v-14.368c0.138-0.01,0.273-0.043,0.407-0.043
		c2.558,0,5.11-0.01,7.662,0c0.866,0.005,1.759,0.11,2.6,0.375c1.32,0.446,2.224,1.295,2.741,2.573
		c0.511,1.186,0.609,2.458,0.669,3.727C189.095,153.7,189.063,154.963,188.711,156.202"/>
	<path d="M112.558,143.999c-1.737-1.276-3.702-2.036-5.776-2.578c-2.925-0.763-5.926-0.975-8.868-1
		c-2.787,0.021-5.471,0.204-8.111,0.778c-2.036,0.452-3.992,1.1-5.754,2.176c-3.577,2.165-5.448,5.325-5.473,9.495
		c-0.035,4.067,1.687,7.231,5.098,9.459c0.94,0.614,1.936,1.091,3.011,1.488c2.378,0.89,4.85,1.336,7.382,1.538
		c3.773,0.287,7.521,0.206,11.243-0.505c2.139-0.413,4.191-1.065,6.068-2.156c3.433-1.978,5.439-4.903,5.685-8.88
		C117.323,149.757,115.888,146.43,112.558,143.999 M105.936,155.865c-0.547,2.569-2.122,4.178-4.662,4.778
		c-2.353,0.548-4.72,0.543-7.055-0.047c-2.527-0.639-4.01-2.286-4.501-4.812c-0.202-0.908-0.243-1.851-0.358-2.787
		c0.058-1.117,0.148-2.203,0.442-3.266c0.595-2.285,2.04-3.76,4.316-4.369c2.357-0.634,4.782-0.634,7.17-0.072
		c2.507,0.605,4.09,2.186,4.64,4.73C106.353,151.966,106.353,153.921,105.936,155.865"/>
	<path d="M237.328,159.678c-1.733-2.698-3.515-5.373-5.267-8.066c-1.946-2.959-3.901-5.911-5.826-8.88
		c-0.628-0.984-1.436-1.532-2.659-1.532c-5.72,0.03-11.425,0.016-17.15,0.016c-0.158,0-0.331,0.022-0.5,0.037v3.156
		c0.23,0.048,0.442,0.071,0.679,0.105c1.127,0.129,2.209,0.245,3.351,0.379c0.971,0.105,1.445,0.946,1.014,1.845
		c-0.076,0.135-0.15,0.259-0.238,0.398c-2.61,4.222-5.226,8.441-7.823,12.669c-0.111,0.191-0.227,0.363-0.36,0.531
		c-0.361,0.486-0.835,0.766-1.466,0.831c-0.403,0.029-0.846,0.077-1.253,0.12c-0.586,0.072-1.187,0.154-1.771,0.231v3.105
		c0.844,0.131,14.592,0.102,15.009-0.043v-3.068c-0.357-0.042-0.714-0.077-1.061-0.129c-0.605-0.063-1.22-0.097-1.829-0.217
		c-0.98-0.211-1.276-0.927-0.769-1.771c0.27-0.491,0.604-0.938,0.865-1.436c0.212-0.381,0.457-0.472,0.879-0.472
		c4.441,0.02,8.874,0.01,13.316,0.01c0.101,0,0.209-0.019,0.294,0.01c0.117,0.034,0.296,0.087,0.378,0.197
		c0.385,0.572,0.781,1.138,1.101,1.748c0.378,0.671,0.162,1.268-0.554,1.546c-0.417,0.149-0.849,0.216-1.306,0.279
		c-0.722,0.09-1.432,0.157-2.19,0.23v3.115c0.101,0.034,0.145,0.063,0.197,0.063c6.584,0.007,13.164,0.007,19.756,0.007
		c0.082,0,0.193-0.021,0.288-0.035c0.01,0,0.015-0.019,0.028-0.034c0.031,0,0.031-0.028,0.039-0.043v-3.063
		c-0.913-0.11-1.828-0.256-2.708-0.322C238.691,161.109,237.933,160.582,237.328,159.678 M213.17,153.263
		c1.482-2.362,2.899-4.673,4.331-7.01c0.341,0.278,4.244,6.146,4.668,6.995C221.76,153.364,214.033,153.393,213.17,153.263"/>
	<path d="M105.331,48.119c0.136,2.017,0.263,4.038,0.389,6.041c0.208,3.313,0.432,6.617,0.633,9.912
		c0.175,2.708,0.342,5.422,0.524,8.121c0.198,3.141,0.433,6.294,0.648,9.432c0.154,2.521,0.316,5.036,0.508,7.548
		c0.24,3.434,0.502,6.862,0.74,10.296c0.223,2.791,0.413,5.605,0.64,8.399c0.259,3.246,0.528,6.468,0.802,9.715
		c0.011,0.278,0.058,0.557,0.095,0.827c2.032,0.446,9.491,0.81,11.254,0.786c0.065-0.25,0.142-0.493,0.22-0.754
		c0.961-3.539,1.917-7.084,2.914-10.604c0.539-1.936,1.234-3.804,2.176-5.599c1.152-2.248,2.982-3.507,5.475-3.885
		c2.155-0.341,4.327-0.505,6.497-0.505c2.205,0,4.395,0.164,6.571,0.519c2.366,0.403,4.151,1.612,5.267,3.746
		c0.23,0.466,0.477,0.923,0.683,1.407c0.763,1.753,1.406,3.566,1.906,5.426c0.883,3.17,1.713,6.339,2.575,9.523
		c0.08,0.245,0.156,0.494,0.23,0.725c2.194,0.126,10.217-0.479,11.278-0.845c2.1-25.121,3.675-50.299,5.269-75.529
		c-2.618-0.384-5.201-0.523-7.817-0.59c-0.06,0.217-0.103,0.379-0.131,0.547c-1.052,4.744-2.098,9.483-3.155,14.238
		c-1.555,6.94-3.249,13.851-5.094,20.716c-0.611,2.233-1.335,4.428-2.345,6.514c-1.925,4.023-5.156,6.242-9.565,6.861
		c-1.637,0.226-3.294,0.302-4.945,0.308c-2.425,0.015-4.838,0-7.224-0.446c-2.992-0.548-5.46-1.926-7.348-4.337
		c-0.944-1.205-1.584-2.583-2.159-3.99c-0.971-2.441-1.672-4.961-2.351-7.482c-2.592-10.037-4.858-20.141-7.042-30.254
		c-0.204-0.889-0.405-1.757-0.615-2.674c-2.628,0.052-5.203,0.217-7.794,0.571c0,0.216-0.017,0.355,0,0.484
		C105.119,44.906,105.244,46.506,105.331,48.119"/>
</g>
</svg>
