<?xml version="1.0" encoding="UTF-8"?>
<svg id="Calque_2" xmlns="http://www.w3.org/2000/svg" version="1.1" viewBox="0 0 250 200">
  <!-- Generator: Adobe Illustrator 29.2.1, SVG Export Plug-In . SVG Version: 2.1.0 Build 116)  -->
  <defs>
    <style>
      .st0 {
        fill: #fff;
      }
    </style>
  </defs>
  <path d="M207.5,174.3l-10.5-27c-.4-.9-1.3-1.5-2.2-1.6h-8.6c-.9,0-1.7.7-1.9,1.6l-2.3,12.5c0,.6-.2,1.1-.5,1.6-.4-.4-.7-.9-.9-1.5l-6.5-12.8c-.5-.9-1.4-1.4-2.4-1.5h-10.3c-.9,0-1.6.8-1.6,1.7v24.2l-10.5-24.4c-.4-.9-1.3-1.5-2.3-1.5h-11.3c-1,0-1.9.6-2.3,1.5l-9.5,22.6-5.3-8.8c-.6-.8-.6-1.8,0-2.6l9.3-11.5c.6-.7.3-1.3-.6-1.3h-11.6c-1,0-1.9.6-2.4,1.5l-2.1,3.8c-.3.5-.6,1-.9,1.5-.4-.4-.7-.9-1-1.5l-2.2-3.8c-.5-.9-1.5-1.4-2.5-1.5h-11.6c-.9,0-1.2.6-.6,1.3l9.3,11.5c.6.8.6,1.8,0,2.6l-11.7,12.9v-26.6c0-.9-.7-1.7-1.6-1.7h-9.9c-.9,0-1.6.8-1.6,1.7v24.8l-10.7-24.9c-.4-.9-1.3-1.5-2.3-1.5h-11.3c-1,0-1.9.6-2.3,1.5l-11.3,27c-.3.5-.1,1.1.4,1.4.2.1.4.1.6.1h10.7c1,0,1.8-.7,2.1-1.6v-.5c.5-.9,1.3-1.6,2.2-1.6h6.7c1,0,1.8.7,2.1,1.6l.2.6c.3.9,1.2,1.6,2.1,1.6h10.7c.3,0,.6-.1.8-.3.3.2.6.3.9.3h9.9c.4,0,.7-.1,1-.4.2.3.5.4.9.4h11.7c1,0,1.9-.6,2.5-1.4l3.3-5.4c.3-.5.6-1,1.1-1.4.4.4.8.9,1.1,1.4l3.2,5.4c.6.8,1.5,1.3,2.5,1.4h8c.1,0,.3-.2.4-.2.1,0,.2.2.3.2h9.4c1,0,1.8-.7,2.1-1.6v-.5c.5-.9,1.3-1.6,2.2-1.6h6.7c1,0,1.8.7,2.2,1.6l.2.6c.3.9,1.2,1.5,2.2,1.6h10.7c.2,0,.5,0,.7-.2.2.1.5.2.7.2h6.8c.9,0,1.6-.8,1.6-1.7v-12.5c0-.9.1-1.6.3-1.6.3,1.3,7.9,14.4,7.9,14.4.5.9,1.5,1.4,2.5,1.5h5.2c1,0,1.8-.7,1.9-1.6l2.3-12.5c0-.6.2-1.1.4-1.6.3.5.5,1,.6,1.6l4,12.7c.3.9,1.2,1.6,2.1,1.6h9.5c.6,0,1.1-.6,1.1-1.2,0-.2,0-.3-.1-.5h0ZM59.7,165.1h-3.1c-1.3,0-2.2-.9-1.8-2l2.4-7.3c.4-1.1.8-2,1-2s.6.9,1,2l2.4,7.3c.3,1.1-.5,2-1.8,2h0ZM142.8,165.1h-3c-1.4,0-2.2-.9-1.8-2l2.4-7.3c.4-1.1.8-2,1-2s.7.9,1,2l2.4,7.3c.3,1.1-.5,2-1.9,2Z"/>
  <g>
    <path d="M121.5,15.1c-33.6,0-60.8,27.2-60.8,60.8s27.2,60.8,60.8,60.8,60.8-27.2,60.8-60.8c0-33.6-27.2-60.8-60.8-60.8Z"/>
    <path d="M128.1,71.3h-13.7c-.7,0-1.3-.5-1.4-1.2,0-.2,0-.4,0-.6,0,0,1.5-4.4,3.3-9.7,2.8-8,3.1-8.6,4-10.8h0c.1-.2.3-.2.4-.2h.6c.2,0,.3,0,.4.2h0c.9,2.2,1.2,2.9,4,10.8,1.1,3.2,2.2,6.4,3.3,9.7.3.6,0,1.3-.5,1.6-.2.1-.4.1-.7.1h0Z"/>
    <path class="st0" d="M154.5,60.7c-4.2-9.7-9.2-19.2-14.8-28.1-11.7-5-24.9-5-36.6,0-5.7,9-10.6,18.4-14.8,28.1-8.1,18.2-15.3,37.8-15.3,37.8,2.5,5.3,3.3,7.9,7.5,11.9h19s1.5-7.3,1.9-9.2,1-2.3,5-2.3,15.1.1,15.1.1c0,0,11.1-.1,15.1-.1s4.5.5,5,2.3,1.9,9.2,1.9,9.2h19c4.2-4,4.9-6.6,7.5-11.9,0,0-7.4-19.6-15.4-37.8h0ZM134,73.9c-.5,1.6-1.6,2.4-4,2.4h-17.3c-2.4,0-3.6-.8-4-2.4s.5-4.6,4-15c2.6-7.9,3-8.7,3.9-11,1.3-2.6,4.4-3.7,7.1-2.5,1.1.5,1.9,1.4,2.5,2.5,1,2.3,1.2,3.1,3.9,11,3.4,10.4,4.4,13.3,4,15Z"/>
    <path class="st0" d="M148.5,24.4c-28.4-14.9-63.6-4-78.5,24.5-14.9,28.4-4,63.6,24.5,78.5,28.4,14.9,63.6,4,78.5-24.5,0,0,0,0,0,0,14.9-28.4,3.9-63.5-24.5-78.5h0ZM97.5,121.7c-25.3-13.3-35.1-44.6-21.8-69.9,13.3-25.3,44.6-35.1,69.9-21.8,25.3,13.3,35.1,44.6,21.8,69.9,0,0,0,0,0,0-13.3,25.3-44.6,35.1-69.9,21.8h0Z"/>
    <path d="M139.3,113.2c-.7-.6-1.2-1.5-1.4-2.4-.3-1.6-1.3-6.4-1.7-8.6l4.7-2.5c.3.4.5.9.6,1.4.5,1.8,1.9,9.2,1.9,9.2,0,0-3.7,3.1-4.1,2.8h0Z"/>
  </g>
</svg>