<?xml version="1.0" encoding="UTF-8"?>
<svg id="Layer_1" xmlns="http://www.w3.org/2000/svg" version="1.1" viewBox="0 0 133.742 156.315">
  <!-- Generator: Adobe Illustrator 29.5.1, SVG Export Plug-In . SVG Version: 2.1.0 Build 141)  -->
  <path d="M120.488,99.862c-2.665-2.552-11.966-11.399-18.885-21.266l-.17-.283.057.057c-2.893-4.14-5.33-8.45-6.69-12.589-.908-2.724-1.419-5.615-1.475-8.507.056-2.439.509-4.878,1.475-7.145.851-2.213,2.154-4.48,3.686-6.749v-.057c2.269-3.232,5.047-6.408,7.882-9.3,2.041-2.099,10.832-10.661,13.723-13.497.624-.681,1.079-1.475,1.306-2.381.17-1.078.226-2.213.226-3.29v-1.643l-52.511,40.942c-.851.567-1.476,1.361-1.816,2.269-.341-.907-.963-1.702-1.758-2.269L13.026,13.213v88.011l52.568-40.943c.851-.568,1.475-1.361,1.816-2.269.227.68.567,1.304,1.134,1.814,3.799,3.629,21.096,20.075,25.746,34.081.964,2.723,1.474,5.614,1.474,8.507,0,2.439-.51,4.819-1.474,7.032-2.099,5.33-6.806,10.944-11.569,15.878-2.041,2.098-10.943,10.604-13.723,13.439-.624.624-1.077,1.474-1.304,2.325-.172,1.191-.228,2.44-.228,3.63v1.645l52.512-40.943c1.021-.681,1.701-1.815,1.815-3.064-.056-.906-.511-1.872-1.304-2.494ZM24.821,89.429c-4.083,3.174-7.146,5.671-9.301,7.314-.169.17-.169-.284-.169-.567s0-.623.112-.794c4.48-4.026,22.174-17.523,27.334-30.396,2.211-4.933,2.211-10.604,0-15.594-5.104-12.873-22.797-26.37-27.334-30.396-.112-.114-.112-.624-.112-.795,0-.169,0-.681.227-.51,2.154,1.645,5.16,4.14,9.243,7.315,4.366,3.401,8.449,7.088,12.306,11.057,6.465,6.692,11.455,13.951,11.455,21.096,0,7.202-4.935,14.462-11.455,21.096-3.856,4.027-7.939,7.77-12.306,11.173ZM64.063,59.599c-5.274,3.63-13.213,10.265-23.704,18.544-.227.171-.17-.454-.112-.681.056-.34.169-.623.283-.906,3.8-3.913,7.031-8.28,9.583-13.044,1.815-3.401,2.212-5.671,5.444-5.671h9.018c1.417,0,.112,1.248-.512,1.758ZM98.146,39.639c-2.553,3.175-4.65,6.521-5.955,9.754-2.212,4.989-2.212,10.718,0,15.707,1.701,4.253,3.913,8.337,6.578,12.078,1.191,1.59,1.702,2.271,2.495,3.347.17.283.34.566.453.908l.114,1.021c-.283-.17-.51-.398-.794-.624-.85-.795-1.984-1.814-3.346-3.289-6.577-6.579-11.285-14.234-11.285-21.322s4.934-14.291,11.456-20.927c3.855-3.912,7.994-7.541,12.304-10.943,1.646-1.305,3.062-2.438,4.424-3.459l1.986-1.476c.112-.112.168.114.112.171.056.454-.057.85-.339,1.19-.456.455-.908.851-1.361,1.248-4.878,4.026-11.684,10.095-16.843,16.616M70.642,59.599c-.624-.51-1.985-1.814-.624-1.814h8.733c3.345,0,4.594,3.346,6.35,6.747,2.723,4.537,5.899,8.791,9.526,12.59.341.453.567,1.021.682,1.587.114.341,0,.454-.341.171-10.83-7.882-22.343-17.636-24.327-19.281ZM82.493,129.35c-.51.454-.906.738-.851.398,0-.341,0-1.079.284-1.361,6.351-6.238,12.647-13.213,14.913-18.714,1.022-2.326,1.589-4.764,1.646-7.316,0-2.721-.454-5.386-1.36-7.939-2.099-5.955-6.749-12.419-11.569-18.032-1.19-1.419-2.211-2.609-2.609-3.062-.112-.171-.112-.285,0-.285.342,0,.682.171.966.398.112.113,1.475,1.53,2.211,2.325,1.53,1.587,3.006,3.401,4.592,5.217,5.729,6.748,10.775,14.177,10.775,21.435,0,6.635-4.706,13.213-10.944,19.338-1.417,1.531-4.31,4.31-8.053,7.598ZM118.22,104.909c-5.955,4.196-14.915,11.513-26.88,20.981-.34.284-.284-.51-.284-.736,0-.284.059-.568.227-.795,4.368-4.479,8.055-9.47,11.059-14.97,2.042-3.855,2.553-6.465,6.295-6.465h10.207c1.531.057.059,1.53-.623,1.984Z"/>
</svg>