<?xml version="1.0" encoding="utf-8"?>
<!-- Generator: Adobe Illustrator 16.0.0, SVG Export Plug-In . SVG Version: 6.00 Build 0)  -->
<!DOCTYPE svg PUBLIC "-//W3C//DTD SVG 1.1//EN" "http://www.w3.org/Graphics/SVG/1.1/DTD/svg11.dtd">
<svg version="1.1" id="Layer_1" xmlns="http://www.w3.org/2000/svg" xmlns:xlink="http://www.w3.org/1999/xlink" x="0px" y="0px"
	 width="272.667px" height="200px" viewBox="0 0 272.667 200" enable-background="new 0 0 272.667 200" xml:space="preserve">
<path fill="#010101" d="M209.699,60.56c-8.878-0.015-17.499,2.98-24.458,8.496c-6.954-5.516-15.575-8.511-24.454-8.496
	c-8.879-0.015-17.498,2.981-24.454,8.496c-6.957-5.516-15.578-8.512-24.457-8.496c-8.878-0.015-17.497,2.981-24.454,8.496
	c-6.957-5.515-15.578-8.511-24.454-8.496c-21.787,0-39.441,17.654-39.441,39.44s17.652,39.441,39.441,39.441
	c8.876,0.014,17.497-2.982,24.454-8.497c6.957,5.515,15.576,8.511,24.454,8.497c8.879,0.015,17.5-2.98,24.457-8.497
	c6.956,5.515,15.575,8.511,24.454,8.497c8.879,0.015,17.5-2.98,24.454-8.497c6.957,5.517,15.58,8.512,24.458,8.497
	c21.785,0,39.439-17.654,39.439-39.441C249.139,78.215,231.484,60.56,209.699,60.56 M80.968,124.502
	c-5.024,3.666-11.303,5.902-18,5.902c-16.808,0-30.408-13.598-30.408-30.404c0-16.806,13.601-30.405,30.408-30.405
	c6.697,0,12.972,2.238,18,5.905c-5.541,6.962-8.549,15.602-8.532,24.5C72.441,108.895,75.447,117.527,80.968,124.502
	 M87.422,118.066c-3.875-5.226-5.962-11.561-5.949-18.066c-0.017-6.506,2.07-12.843,5.949-18.066
	c3.879,5.225,5.966,11.561,5.951,18.066C93.386,106.506,91.299,112.841,87.422,118.066 M129.881,124.502
	c-5.223,3.844-11.542,5.91-18.025,5.895c-6.471,0.014-12.774-2.054-17.979-5.895c5.521-6.974,8.526-15.605,8.532-24.5
	c0.017-8.899-2.993-17.538-8.532-24.499c5.205-3.844,11.509-5.91,17.979-5.897c6.747,0,12.979,2.183,18.025,5.897
	c-5.544,6.961-8.552,15.6-8.533,24.499C121.353,108.896,124.357,117.528,129.881,124.502 M136.33,118.066
	c-3.874-5.226-5.961-11.561-5.949-18.066c-0.016-6.506,2.072-12.843,5.949-18.066c3.882,5.224,5.969,11.561,5.952,18.066
	C142.294,106.506,140.207,112.842,136.33,118.066 M178.789,124.502c-5.045,3.714-11.278,5.895-18.022,5.895
	c-6.745,0-12.938-2.184-17.982-5.895c5.523-6.974,8.528-15.605,8.533-24.5c0.019-8.899-2.991-17.538-8.533-24.499
	c5.045-3.714,11.237-5.897,17.982-5.897c6.744,0,12.978,2.183,18.022,5.897c-5.539,6.961-8.549,15.601-8.532,24.499
	C170.263,108.896,173.269,117.528,178.789,124.502 M185.243,118.066c-3.877-5.226-5.962-11.561-5.949-18.066
	c-0.017-6.506,2.07-12.843,5.949-18.066c3.879,5.225,5.966,11.561,5.951,18.066C191.207,106.506,189.118,112.841,185.243,118.066
	 M209.699,130.404c-6.701,0-12.978-2.236-18.002-5.902c5.521-6.974,8.526-15.606,8.53-24.5c0.019-8.898-2.991-17.538-8.53-24.499
	c5.03-3.667,11.304-5.907,18.002-5.907c16.804,0,30.404,13.6,30.404,30.406C240.104,116.806,226.503,130.404,209.699,130.404"/>
</svg>
