<?xml version="1.0" encoding="utf-8"?>
<!-- Generator: Adobe Illustrator 28.2.0, SVG Export Plug-In . SVG Version: 6.00 Build 0)  -->
<svg version="1.1" id="Layer_1" xmlns="http://www.w3.org/2000/svg" xmlns:xlink="http://www.w3.org/1999/xlink" x="0px" y="0px"
	 viewBox="0 0 200 200" style="enable-background:new 0 0 200 200;" xml:space="preserve">
<style type="text/css">
	.st0{fill-rule:evenodd;clip-rule:evenodd;stroke:#DBDCDD;stroke-width:1.0471;stroke-miterlimit:33.89;}
	.st1{fill-rule:evenodd;clip-rule:evenodd;fill:#FFFFFF;}
	.st2{fill-rule:evenodd;clip-rule:evenodd;}
	.st3{fill-rule:evenodd;clip-rule:evenodd;fill:#FFFFFF;stroke:#000000;stroke-width:0.5231;stroke-miterlimit:33.89;}
</style>
<g>
	<path class="st0" d="M100.1,55.6c15.6,0,29.5,6.2,38.2,15.8l-7.6,1.9c-7.1-8.1-18.1-13.2-30.5-13.2c-12.4,0-23.5,5.2-30.6,13.3
		l-7.6-1.9C70.6,61.8,84.5,55.6,100.1,55.6L100.1,55.6z"/>
	<path class="st0" d="M38.3,89.8L20.4,57.3c-0.1-0.2,0-0.5,0.4-0.5L49.9,64c1.1,0.3,1.8,0.7,2.3,1.7l2,4.3l32.6,8
		c0.8,0.2,1.5,0.4,2.2,1c0.8,0.7,1.3,1.6,1.7,2.6l8.9,21.6c0.1,0.2,0.1,0.3,0,0.4L97,110c0,0.1-0.1,0.1-0.2,0.1l-28.9-7
		c-0.7-0.2-1.4-0.6-1.9-1.5l-1.9-4.1c-0.1-0.3-0.3-0.4-0.6-0.4c-0.1,0-23.1-5.7-23.1-5.7C39.9,91.2,39.1,91.1,38.3,89.8z"/>
	<path class="st0" d="M52.6,94.8l8.8,2.2c1.1,14.8,12.7,27,28.2,30.9l-1.8,4.4C67.7,127.8,52.8,112.8,52.6,94.8L52.6,94.8z
		 M100.1,133.6c-2.5,0-4.9-0.2-7.3-0.5l1.8-4.3c3.6,0.4,7.1,0.5,10.7,0l1.8,4.3C104.8,133.4,102.5,133.6,100.1,133.6L100.1,133.6z
		 M116.1,144.4l-3.6-0.6c-0.4-0.1-0.7-0.2-0.9-0.7l-11.2-27.2c-0.1-0.3-0.2-0.5,0-0.8c0.2-0.5,0.6-1.5,0.8-2c0.4-1,1-1.7,1.5-2.1
		c0.1-0.1,0.3-0.1,0.4,0.1l13.5,32.7C116.7,144.1,116.5,144.5,116.1,144.4z M112.2,132.3l-1.8-4.4c15.7-3.8,27.4-16.1,28.5-31
		l8.8-2.1C147.5,112.8,132.5,128,112.2,132.3L112.2,132.3z"/>
	<path class="st0" d="M179.6,57.3l-17.9,32.4c-0.8,1.4-1.6,1.5-2.2,1.7c0,0-23,5.6-23.1,5.7c-0.3,0.1-0.5,0.2-0.6,0.4
		c0,0.1-1.9,4.1-1.9,4.1c-0.5,0.9-1.2,1.4-1.9,1.5c0,0-27.9,6.8-28.3,6.9c-1.3,0.3-2.3,1.5-2.9,2.9c-0.2,0.4-12.5,30.2-12.5,30.2
		c-0.2,0.6-0.6,0.7-0.9,0.7l-3.6,0.6c-0.4,0.1-0.6-0.3-0.4-0.7l25.7-62.2c0.4-1,0.9-1.9,1.7-2.6c0.7-0.6,1.4-0.7,2.2-1l32.6-8l2-4.3
		c0.5-1.1,1.2-1.5,2.3-1.7l29.1-7.1C179.6,56.8,179.7,57.1,179.6,57.3L179.6,57.3z"/>
	<path class="st1" d="M97.3,107.1L87,82.5c-0.7-1.7-2.1-2.4-3.1-2.7L56.3,73c-0.1,0-0.2,0-0.1,0.1l12.2,25.8c0.5,1,1.4,1.9,2.6,2.2
		c9.1,2.2,17,4.3,26.2,6.4C97.3,107.4,97.4,107.4,97.3,107.1L97.3,107.1z"/>
	<path class="st2" d="M87.6,104.7l-9-2.2l-3.8-8.8l-9.7-2.4l-4.2-9L71,84.8l-3.8-8.7l9.6,2.4l3.6,8.7l9.2,2.2l3.7,8.9L84,96
		L87.6,104.7z"/>
	<path class="st1" d="M62,93.4L50.4,68.9c-0.3-0.6-0.5-1.2-0.9-1.7c-0.7-0.9-1.3-1.2-2.1-1.4l-20.6-5.1c-0.2,0-0.2,0-0.2,0.2
		l14.4,26c1,1.8,2.6,2.2,3.3,2.4l17.6,4.3C62,93.6,62,93.6,62,93.4z"/>
	<path class="st2" d="M51.5,90.7l-4.2-8.9l-10.1-2.5L32,70.1L43,72.8l-4.1-8.7c0,0,7.4,1.8,8.1,2c1.3,0.3,2.3,1.1,2.8,2.3
		c0.2,0.5,3.2,6.9,3.2,6.9l-10-2.4l4.3,9l10,2.4l4.2,8.9L51.5,90.7L51.5,90.7z"/>
	<path class="st2" d="M173.2,60.9L152.6,66c-0.8,0.2-1.5,0.5-2.3,1.5c0,0-0.8,1.4-0.8,1.4l-11.8,25l0.1,0.3c0,0.1,0.2,0.2,0.4,0.1
		l17.6-4.3c0.8-0.2,2.4-0.6,3.5-2.5c0,0,14.5-26.2,14.5-26.2l-0.1-0.3C173.6,60.9,173.4,60.9,173.2,60.9L173.2,60.9z"/>
	<path class="st2" d="M154.8,87.7l-8.4,2l0.6-1.3l8.4-2L154.8,87.7L154.8,87.7z"/>
	<path class="st3" d="M161.9,73.4c-1,0.9-1.5,1.1-2.1,2c-0.1,0.2-0.3,0.4-0.3,0.7c0,0.1-0.2,0.2-0.3,0c0-0.1,0-0.3,0.1-0.4
		c0.3-0.8,0.7-1.2,0.9-1.9c0.1-0.2-0.1-0.4-0.3-0.3c-0.1,0-0.3,0.1-0.5,0.4c-1,1-2.1,2.3-3,3.5l0.6-0.2l-1.7,3.6l-0.7,0.2
		c-0.1,0.2-0.2,0.4-0.3,0.7c-0.1,0.5,0.4,0.4,0.5,0.3c0.2-0.2,0.5-0.6,0.7-0.8c0.2-0.2,0.5-0.6,0.8-0.7c0.3-0.1,0.6,0.1,0.3,0.3
		c-0.2,0.1-0.4,0.3-0.5,0.5c-0.3,0.5-0.5,0.9-0.8,1.3c-0.4,0.5-0.8,0.9-1.2,1.2c-0.3,0.2-0.8,0.2-0.7-0.6c0.1-0.8,0.4-1.3,0.7-1.9
		l-0.2,0.1c-0.4,0.9-0.7,1.6-0.7,2c-0.1,0.6-0.2,1-0.4,1.4c-0.4,0.7-1,1.3-1.7,1.8c-0.1,0.1-0.2,0-0.2-0.1c-0.2-0.9,0.3-1.7,0.8-2.4
		c0.6-0.8,1.2-1.5,1.7-2.7l-0.2,0.1c-0.5,0.9-0.8,1.4-1.5,2.2c-0.5,0.5-0.9,0.8-1.2,1c-0.3,0.1-0.7,0.2-0.6-0.5
		c0.1-0.5,0.4-0.9,0.7-1.4c0.1-0.3,0.3-0.5,0.2-0.7c0-0.3,0.4-0.3,0.4,0c0,0.2,0,0.4,0.1,0.6c0.1,0.3,0.3,0.3,0.5,0.1
		c0.4-0.4,0.6-0.8,0.9-1.2l-0.7,0.2l1.7-3.5l0.7-0.2c0.3-0.8,0.3-1.8,0.1-2.6c-0.1-0.4-0.4-0.7-0.9-0.2c-0.5,0.6-0.9,1.5-1.4,2.5
		c-0.1,0.2-0.2,0.3-0.4,0.5c-0.1,0.1-0.2,0.1-0.2-0.2c0-0.2,0.1-0.5,0.2-0.8c0.1-0.6,0.1-1.1,0.3-1.8c0.3-1.3,1-2.4,2-3
		c0.6-0.3,1.6-0.6,2-0.2c0.4,0.5,0.1,1.6-0.1,2.3c-0.3,1.1-0.8,2.3-1.2,3.4l0.2-0.1c0.9-2,1.6-4.1,2.3-6.2c0.3-0.8,0.8-1.9,1.4-2.8
		c0.5-0.6,1.1-1.2,1.6-1.5c0.2-0.1,0.2-0.1,0.2,0.1c0.2,1.6-0.4,3.1-1.3,4.3c-1.1,1.7-2.5,3.1-3.7,5.9l0.3-0.1c1.1-2,2.5-3.9,4-5.7
		c0.6-0.7,1.5-1.7,2.4-1.7c0.4,0,0.6,0.3,0.6,0.7C163,71.8,162.5,72.9,161.9,73.4L161.9,73.4z"/>
	<path class="st2" d="M145,72.8c-0.1-0.1-0.2-0.2-0.4-0.1L117,79.5c-0.7,0.2-2.5,0.8-3.3,2.8v0L103.5,107c-0.1,0.3-0.1,0.4,0,0.5
		c0.1,0.1,0.2,0.2,0.5,0.1l17.3-4.2l8.9-2.2c1.2-0.3,2.2-1.2,2.8-2.3c0,0,12.2-26,12.2-26L145,72.8L145,72.8z"/>
	<path class="st3" d="M133.7,89.8l-6.2,1.5l-1,2.3l-9.2,2.3l1-2.4l-8,2l3.7-4.7l6-1.5l1-2.3l9.5-2.3l-1,2.3l8-2L133.7,89.8
		L133.7,89.8z"/>
	<path class="st1" d="M71,84.8l3.8,8.9L84,96l-3.7-8.9L71,84.8L71,84.8z"/>
</g>
</svg>
