<?xml version="1.0" encoding="utf-8"?>
<!-- Generator: Adobe Illustrator 16.0.0, SVG Export Plug-In . SVG Version: 6.00 Build 0)  -->
<!DOCTYPE svg PUBLIC "-//W3C//DTD SVG 1.1//EN" "http://www.w3.org/Graphics/SVG/1.1/DTD/svg11.dtd">
<svg version="1.1" id="Layer_1" xmlns="http://www.w3.org/2000/svg" xmlns:xlink="http://www.w3.org/1999/xlink" x="0px" y="0px"
	 width="149px" height="200px" viewBox="0 0 149 200" enable-background="new 0 0 149 200" xml:space="preserve">
<g>
	<path d="M74.505,34.138c-10.588,0-20.509,6.931-27.934,19.488c-7.326,12.401-11.355,28.883-11.355,46.37
		c0,17.512,4.029,33.988,11.355,46.395c7.425,12.559,17.346,19.472,27.934,19.472c10.61,0,20.526-6.913,27.941-19.472
		c7.324-12.406,11.337-28.883,11.337-46.395c0-17.487-4.013-33.969-11.337-46.37C95.031,41.068,85.115,34.138,74.505,34.138
		 M74.505,163.918c-9.86,0-19.172-6.574-26.252-18.524c-7.146-12.099-11.074-28.219-11.074-45.397
		c0-17.16,3.928-33.271,11.074-45.377c7.08-11.939,16.392-18.523,26.252-18.523c9.885,0,19.202,6.584,26.258,18.523
		c7.138,12.105,11.074,28.217,11.074,45.377c0,17.179-3.937,33.299-11.074,45.397C93.707,157.344,84.39,163.918,74.505,163.918"/>
	<polygon points="92.83,96.301 92.83,95.633 74.505,95.633 56.189,95.633 56.189,96.301 74.505,96.301 	"/>
	<polygon points="74.505,100.186 92.83,100.186 92.83,99.508 74.505,99.508 56.181,99.508 56.181,100.186 	"/>
	<polygon points="94.774,97.413 74.505,97.413 54.224,97.413 54.224,98.096 74.505,98.096 94.774,98.096 	"/>
	<path d="M90.225,105.059c1.78,0,2.605-1.624,2.605-2.924h1.792v-0.813H74.505H54.392v0.813h1.789c0,1.3,0.823,2.924,2.601,2.924
		c1.782,0,2.448-1.135,2.448-2.76c1.789,0,8.311,0,8.311,7.789h4.965h4.962c0-7.789,6.513-7.789,8.314-7.789
		C87.781,103.924,88.431,105.059,90.225,105.059"/>
	<path d="M81.376,110.978h-6.871h-6.876c-0.18,0-0.339,0.149-0.339,0.341v2.717c0,0.191,0.159,0.35,0.339,0.35h6.876h6.871
		c0.182,0,0.335-0.158,0.335-0.35v-2.717C81.711,111.127,81.558,110.978,81.376,110.978"/>
	<path d="M54.236,92.925v2.033h20.269h20.282v-2.033H93.01c0-9.665,1.777-21.687,8.504-30.564c-4.356,0.985-9.696,5.62-11.862,8.48
		c1.767-0.593,3.358-1.771,4.916-2.358c-1.558,3.352-6.126,17.188-6.126,24.442H84.1c-5.152-8.669-8.114-13.405-8.114-31.157
		c2.757,1.578,3.748,2.761,6.727,3.35c-3.359-3.35-8.207-10.844-8.207-18.141c0,7.297-4.849,14.791-8.193,18.141
		c2.954-0.589,3.946-1.771,6.718-3.35c0,17.752-2.957,22.482-8.122,31.157h-4.344c0-7.255-4.559-21.091-6.137-24.442
		c1.578,0.588,3.158,1.766,4.95,2.358c-2.177-2.86-7.513-7.495-11.867-8.48c6.727,8.878,8.495,20.899,8.495,30.564H54.236z
		 M76.381,84.256c0.591,3.346,2.765,5.908,4.153,8.669h-4.153V84.256z M72.626,84.256v8.669h-4.145
		C69.869,90.164,72.039,87.602,72.626,84.256"/>
	<polygon points="87.752,134.395 89.777,134.395 88.743,130.495 	"/>
	<path d="M79.812,121.449v-5.961c0-0.174-0.143-0.334-0.345-0.334h-4.962H69.54c-0.211,0-0.361,0.16-0.361,0.334v5.961
		l-28.254,0.003c5.005,23.86,18.158,40.884,33.58,40.884c15.434,0,28.582-17.027,33.588-40.891L79.812,121.449z M54.76,137.614
		h-1.371l-0.007-8.296l-2.252,6.592l-2.114-6.592v8.296h-1.375v-10.532h2.24l1.321,4.6l1.315-4.6h2.242V137.614z M61.507,137.614
		l-0.42-1.638h-2.968l-0.372,1.638h-1.835l2.86-10.532h1.58l2.987,10.532H61.507z M69.958,136.243
		c-0.242,0.515-0.589,0.921-1.005,1.177c-0.438,0.254-0.984,0.379-1.601,0.379c-0.952,0-1.655-0.307-3.243-1.504l1.086-1.373
		c1.348,0.903,1.712,1.064,2.171,1.064c0.468,0,0.84-0.157,1.065-0.434c0.246-0.284,0.358-0.627,0.358-1.016
		c0-0.242-0.052-0.459-0.144-0.631c-0.101-0.172-0.289-0.33-0.524-0.457c-0.195-0.086-0.632-0.361-1.241-0.64
		c-0.838-0.437-1.459-0.972-1.874-1.31c-0.494-0.432-0.995-1.113-0.995-1.934c0-0.549,0.139-1.067,0.354-1.535
		c0.213-0.465,0.542-0.742,0.938-0.992c0.407-0.252,1.173-0.303,1.737-0.303c0.918,0,1.841,0.441,2.749,1.382l-1.18,1.235
		c-0.641-0.604-1.098-0.813-1.501-0.89c-0.354-0.065-0.832,0.009-1.065,0.269c-0.174,0.162-0.242,0.379-0.242,0.647
		c0,0.259,0.068,0.456,0.231,0.647c0.18,0.234,0.801,0.725,1.436,1.123c0.745,0.43,1.334,0.756,1.68,0.999
		c0.811,0.604,0.873,0.987,0.937,1.152c0.205,0.464,0.236,0.701,0.236,1.388C70.32,135.285,70.189,135.713,69.958,136.243
		 M76.414,137.614h-4.847v-10.532h4.708v1.767h-3.204v2.333h2.914v1.767h-2.914v2.881h3.343V137.614z M83.417,137.614h-1.506
		l-1.162-2.333c-0.307,0.021-0.594,0.029-0.873,0.029v2.304h-1.489v-10.532h1.489c2.259,0,4.565,0.683,4.565,3.877
		c0,2.465-1.071,3.559-2.362,4.02L83.417,137.614z M90.684,137.614l-0.408-1.638h-2.98l-0.378,1.638H85.08l2.847-10.532h1.608
		l2.985,10.532H90.684z M97.954,128.849h-2.19v8.766h-1.5v-8.766h-2.182v-1.767h5.872V128.849z M99.649,127.082h1.485v10.532h-1.485
		V127.082z"/>
	<polygon points="58.582,134.395 60.641,134.395 59.569,130.495 	"/>
	<path d="M79.876,128.658v5.107c1.221,0,2.912-0.253,2.912-2.717C82.788,128.996,81.302,128.658,79.876,128.658"/>
</g>
</svg>
