<?xml version="1.0" encoding="utf-8"?>
<!-- Generator: Adobe Illustrator 16.0.0, SVG Export Plug-In . SVG Version: 6.00 Build 0)  -->
<!DOCTYPE svg PUBLIC "-//W3C//DTD SVG 1.1//EN" "http://www.w3.org/Graphics/SVG/1.1/DTD/svg11.dtd">
<svg version="1.1" id="Layer_1" xmlns="http://www.w3.org/2000/svg" xmlns:xlink="http://www.w3.org/1999/xlink" x="0px" y="0px"
	 width="300px" height="160.667px" viewBox="0 0 300 160.667" enable-background="new 0 0 300 160.667" xml:space="preserve">
<g id="Ford_Script">
	<path d="M266.221,63.428c0.265-0.45-0.013-0.79-0.59-0.79c-2.995,0-6.918,0.013-10.026,0.013c-0.741,0-1.13,0.088-1.479,0.777
		c-1.152,2.205-15.182,23.229-17.785,27.299c-0.438,0.628-0.977,0.538-1.042-0.175c-0.263-2.418-2.357-5.213-5.653-6.543
		c-2.507-1.017-4.977-1.202-7.521-0.867c-4.614,0.617-8.722,3.06-12.334,5.791c-5.438,4.139-10.141,9.5-16.208,13.473
		c-3.311,2.155-7.848,4.036-10.882,1.229c-2.745-2.544-2.43-8.196,1.768-12.573c0.438-0.463,0.977-0.075,0.888,0.342
		c-0.398,1.979,0.089,3.947,1.594,5.327c1.831,1.641,4.448,1.832,6.691,0.726c2.645-1.315,4.198-3.85,4.661-6.716
		c0.702-4.461-2.731-8.4-7.031-8.711c-3.497-0.25-6.845,0.964-10.104,3.658c-1.632,1.355-2.569,2.359-3.974,4.377
		c-0.34,0.488-0.878,0.54-0.853-0.188c0.161-5.715-2.193-8.927-6.917-9.037c-3.658-0.088-7.584,1.904-10.63,4.339
		c-3.348,2.681-6.268,6.254-9.403,9.602c-0.387,0.412-0.727,0.387-0.842-0.413c-0.102-3.785-1.04-7.443-2.795-10.051
		c-0.616-0.902-1.917-1.355-3.021-0.74c-0.501,0.275-2.268,1.091-3.548,2.12c-0.637,0.527-0.878,1.279-0.603,2.257
		c1.69,5.653,1.316,12.083-0.978,17.509c-2.107,4.976-6.203,9.461-11.017,10.979c-3.17,1.001-6.467,0.515-8.51-2.295
		c-2.796-3.875-1.665-10.63,2.507-16.221c3.684-4.925,9.011-8.062,14.326-10.078c0.628-0.237,0.752-0.638,0.578-1.177
		c-0.289-0.88-0.752-2.068-0.939-2.608c-0.488-1.292-1.856-1.505-3.522-1.331c-3.861,0.45-7.345,1.768-10.791,3.611
		c-9.012,4.826-13.523,14.166-15.503,19.166c-0.952,2.405-1.768,3.9-2.821,5.228c-1.416,1.778-3.209,3.406-6.467,6.278
		c-0.302,0.263-0.514,0.815-0.264,1.317c0.341,0.688,2.031,3.083,2.507,3.296c0.526,0.263,1.152-0.101,1.389-0.275
		c2.282-1.543,5.014-3.998,6.355-5.663c0.465-0.565,0.952-0.327,1.204,0.539c1.253,4.448,4.511,8.084,9.023,9.602
		c8.26,2.784,16.833-1.253,23.3-8.271c4.113-4.462,5.592-7.333,7.168-9.288c2.669-3.31,7.933-10.714,14.213-15.47
		c2.306-1.755,5.025-3.085,6.394-2.205c1.104,0.713,1.452,2.37-0.315,5.579c-6.394,11.684-15.804,25.407-17.534,28.742
		c-0.314,0.577-0.038,1.029,0.565,1.029c3.348-0.013,6.667-0.013,9.7-0.013c0.502-0.026,0.727-0.252,0.989-0.617
		c4.911-7.681,9.526-15.001,14.476-22.561c0.276-0.45,0.526-0.103,0.539,0.102c0.103,1.755,0.54,4.159,1.582,5.727
		c1.868,2.907,4.524,4.16,7.468,4.187c2.346,0.025,3.523-0.327,6.055-1.267c2.057-0.765,3.71-1.768,4.964-2.668
		c0.738-0.515,0.865,0.353,0.853,0.477c-1.139,6.105,0.265,13.322,6.33,16.331c7.258,3.573,15.229-1.454,19.816-5.99
		c0.45-0.438,0.926-0.386,0.978,0.553c0.103,1.728,0.879,3.785,2.319,5.226c3.849,3.862,11.596,2.332,19.379-3.696
		c5-3.862,10.227-9.314,14.956-15.078c0.174-0.227,0.302-0.579-0.039-0.939c-0.714-0.753-1.755-1.618-2.469-2.282
		c-0.327-0.275-0.803-0.2-1.078,0.014c-4.84,4.601-9.2,9.852-15.504,14.203c-2.121,1.479-5.515,2.681-7.032,0.628
		c-0.59-0.803-0.527-1.903,0.064-3.36C235.627,110.32,264.718,66.05,266.221,63.428z M227.779,100.553
		c0.064,0.34,0.502,0.663,0.939,0.829c0.148,0.051,0.237,0.161,0.063,0.527c-1.24,2.642-2.371,4.171-3.922,6.479
		c-1.428,2.133-3.032,3.785-4.975,5.378c-2.932,2.431-7.007,5.066-10.38,3.299c-1.491-0.777-2.142-2.874-2.12-4.564
		c0.077-4.763,2.191-9.665,6.106-14.463c4.774-5.88,10.051-8.926,13.51-7.256c3.586,1.703,2.443,5.854,0.842,9.114
		C227.729,100.142,227.716,100.353,227.779,100.553z"/>
	<path d="M55.282,125.761c-10.843,0.075-20.394-6.618-21.485-18.228c-0.617-6.428,1.202-12.16,4.853-16.871
		c3.22-4.198,8.684-7.695,13.311-8.548c1.503-0.277,3.521-0.103,4.363,0.888c1.316,1.528,0.926,3.195-0.378,3.875
		c-3.522,1.807-7.771,4.89-9.865,9.088c-1.705,3.433-2.045,7.583,0.552,11.519c4.351,6.58,16.493,6.755,27.778-3.735
		c2.795-2.57,5.289-5.025,7.835-7.945c4.975-5.676,6.618-7.757,13.234-16.922c0.075-0.104,0.102-0.25,0.063-0.314
		c-0.05-0.116-0.147-0.149-0.34-0.162c-4.409,0.127-8.259,1.44-11.993,4.237c-1.08,0.79-2.621,0.675-3.31-0.365
		c-0.753-1.165-0.212-2.696,1.028-3.549c6.016-4.186,12.584-4.937,19.289-6.066c0,0,0.463,0.025,0.854-0.489
		c2.757-3.535,4.839-6.718,7.771-10.289c2.956-3.626,6.78-6.957,9.699-9.45c4.074-3.51,6.68-4.688,9.339-6.132
		c0.701-0.365-0.089-0.803-0.302-0.803c-14.828-2.782-30.233-6.395-44.96-0.938C72.43,48.37,67.951,56.456,70.11,61.854
		c1.529,3.837,6.568,4.45,11.293,2.143c3.921-1.916,7.545-5.013,10.117-9c1.439-2.204,4.473-0.615,2.833,3.222
		c-4.313,10.13-12.546,18.163-22.574,18.499c-8.535,0.275-14.037-6.003-14.023-13.749C57.793,47.69,74.801,37.64,92.663,36.122
		c21.518-1.781,41.898,3.946,63.27,6.543c16.372,1.979,32.074,2.03,48.521-1.755c1.942-0.425,3.311,0.815,3.183,2.781
		c-0.162,2.849-2.357,5.581-7.784,8.537c-6.164,3.387-12.609,4.4-19.352,4.461c-16.281,0.137-31.463-6.216-47.157-9.628
		c0.025,0.689,0.199,1.505-0.379,1.942c-8.684,6.414-16.544,12.938-21.809,22.084c-0.174,0.213-0.077,0.411,0.227,0.388
		c4.575-0.239,8.684-0.365,12.949-0.702c0.739-0.064,0.777-0.25,0.701-0.79c-0.379-3.156,0.54-6.743,3.322-9.224
		c2.834-2.545,6.395-2.833,8.747-1.003c2.682,2.095,2.444,5.843,0.978,8.663c-1.491,2.859-3.946,4.39-6.316,5.128
		c0,0-0.49,0.114-0.426,0.566c0.103,0.726,3.323,2.506,3.599,2.982c0.264,0.45,0.127,1.149-0.365,1.69
		c-0.34,0.386-0.881,0.751-1.555,0.738c-0.553-0.011-0.889-0.198-1.593-0.59c-1.44-0.79-3.247-2.069-4.462-3.587
		c-0.412-0.513-0.615-0.525-1.641-0.463c-4.613,0.265-11.819,0.965-16.696,1.569c-1.178,0.148-1.356,0.363-1.606,0.777
		c-7.784,12.821-16.081,26.661-25.194,35.908C72.052,123.08,63.92,125.696,55.282,125.761z M129.41,68.77
		c0.126,0.661,0.376,0.79,0.675,0.726c1.479-0.302,3.109-1.517,4.062-2.92c0.879-1.277,1.292-3.135,0.413-3.873
		c-0.778-0.664-2.032-0.477-2.971,0.353C129.736,64.693,129.158,67.04,129.41,68.77z"/>
</g>
</svg>
