<?xml version="1.0" encoding="UTF-8"?>
<svg id="Layer_1" xmlns="http://www.w3.org/2000/svg" version="1.1" viewBox="0 0 220.794 148.225">
  <!-- Generator: Adobe Illustrator 29.5.1, SVG Export Plug-In . SVG Version: 2.1.0 Build 141)  -->
  <path d="M82.391,37.064c-1.862-3.297-3.873-6.505-5.762-9.783,6.165,3.08,12.421,5.992,18.536,9.176-4.245,1.658-8.522,3.226-12.735,4.942-2.369.961-4.898,2.791-5.109,5.553-.397,3.284,1.907,5.975,3.495,8.606,9.118,14.297,18.23,28.609,27.362,42.9-.021-3.81.364-7.651-.04-11.436-3.624-11.588-7.267-23.179-10.564-34.865-.635-1.445.928-2.459,2.034-2.971,3.587-1.735,7.096-3.65,10.753-5.232,3.604,1.332,6.902,3.394,10.423,4.951,1.25.607,3.189,1.536,2.536,3.271-3.322,11.681-6.928,23.277-10.577,34.859-.448,3.778-.014,7.619-.065,11.424,9.279-14.419,18.461-28.903,27.694-43.349,1.492-2.473,3.599-4.996,3.221-8.081-.16-2.78-2.702-4.643-5.071-5.611-4.251-1.722-8.542-3.321-12.825-4.955,6.127-3.194,12.409-6.083,18.582-9.188-1.896,3.279-3.906,6.492-5.775,9.784,3.228,1.318,6.524,2.465,9.726,3.842,6.929-10.713,13.774-21.483,20.555-32.292-19.114,6.685-38.144,13.594-57.303,20.152-.68.263-1.351.263-2.029,0-19.19-6.526-38.234-13.493-57.379-20.152,6.819,10.771,13.65,21.547,20.555,32.273,3.232-1.327,6.519-2.523,9.764-3.818Z"/>
  <path d="M123.865,120.49c-10.386-.056-20.777.034-31.164-.037-.102,6.315.007,12.62-.057,18.934,1.959.072,3.917.096,5.877.046-.024-1.897-.031-3.786-.038-5.681,8.478-.019,16.949.014,25.422-.005,2.189.154,4.673-1.281,4.802-3.65.153-2.146.211-4.321-.039-6.468-.404-2.188-2.773-3.207-4.803-3.139ZM122.661,129.091c-8.041.141-16.084-.008-24.126.072-.032-1.481-.045-2.953-.07-4.426,8.31.065,16.635-.161,24.938.122-.274,1.356.719,3.386-.742,4.231Z"/>
  <path d="M16.926,125.775c9.97-.168,19.959-.009,29.936-.077-.013-1.743-.02-3.491-.04-5.231-10.186.023-20.369-.014-30.548.013-2.004-.045-4.162,1.006-4.995,2.887-.576,2.043-.269,4.194-.302,6.282.097,2.297-.261,4.648.256,6.913.949,2.562,3.92,3.024,6.314,2.929,9.766-.103,19.544.141,29.308-.141,0-1.685-.006-3.369-.013-5.054-9.322.04-18.647,0-27.969.026-.941.037-1.856-.19-2.76-.416.102-2.51-.039-5.027.076-7.529.186-.153.551-.456.736-.602Z"/>
  <path d="M81.502,120.485c-.07,4.598.174,9.208-.148,13.806-7.747.013-15.501.103-23.25-.051-.167-4.579-.019-9.163-.089-13.742-2.095-.039-4.188-.026-6.275-.031-.059,4.77-.045,9.545-.025,14.323-.097,1.926,1.362,3.65,3.105,4.303,2.056.52,4.194.39,6.294.397,7.281-.13,14.56.159,21.835-.058,2.504.045,4.931-2.094,4.905-4.656.045-4.778.032-9.553-.014-14.323-2.112.026-4.226.019-6.339.032Z"/>
  <path d="M169.572,130.314c.152-2.133.159-4.285.006-6.418-.551-2.323-3.145-3.47-5.348-3.425-10.199-.005-20.399.019-30.6-.005-.045,6.306.013,12.614-.019,18.92,2.01.136,4.032.128,6.051-.05-.02-1.865-.026-3.723-.039-5.576,6.743-.009,13.484-.04,20.229.019.819,1.355,1.62,2.727,2.464,4.072,1.409,2.854,5.24,1.345,7.762,1.504-1.243-1.858-2.472-3.72-3.855-5.476,1.447-.831,3.028-1.772,3.35-3.565ZM164.341,128.489c-.206.148-.603.434-.801.575-7.959.186-15.932.019-23.897.077-.007-1.536-.007-3.08.044-4.616,7.921.071,15.849-.09,23.764.077,1.549.64.773,2.595.89,3.887Z"/>
  <path d="M210.495,120.459c-10.105.031-20.209.008-30.313.013-2.677-.199-5.692,1.812-5.608,4.701-.097,4.738.082,9.477.026,14.214,1.958.085,3.917.109,5.884.059-.013-1.902-.026-3.804-.013-5.698,8.118.005,16.238,0,24.356.005.193,1.839-.48,4.004.314,5.662,1.748.217,3.521.05,5.276-.027.185-6.306.108-12.619.077-18.928ZM204.795,129.142c-8.099.008-16.198-.024-24.293.022-.026-1.462-.031-2.916-.008-4.37,8.114-.127,16.227-.045,24.341-.045-.02,1.468-.026,2.929-.04,4.394Z"/>
</svg>