<?xml version="1.0" encoding="utf-8"?>
<!-- Generator: Adobe Illustrator 16.0.0, SVG Export Plug-In . SVG Version: 6.00 Build 0)  -->
<!DOCTYPE svg PUBLIC "-//W3C//DTD SVG 1.1//EN" "http://www.w3.org/Graphics/SVG/1.1/DTD/svg11.dtd">
<svg version="1.1" id="Layer_1" xmlns="http://www.w3.org/2000/svg" xmlns:xlink="http://www.w3.org/1999/xlink" x="0px" y="0px"
	 width="200px" height="200px" viewBox="0 0 200 200" enable-background="new 0 0 200 200" xml:space="preserve">
<g>
	<path d="M54.693,64.683l6.599,6.305l1.99-2.101l-2.507-2.36l4.092-4.461l-1.585-1.585l-4.093,4.461l-1.844-1.843l5.937-6.305
		l-1.586-1.586l-8.185,8.849C53.918,64.314,54.324,64.426,54.693,64.683L54.693,64.683z M69.181,51.412L69.181,51.412l0.147,10.543
		l2.507-1.438v-2.103l5.935-3.428l1.696,1.181l2.507-1.438l-9.881-6.305l-3.538,1.99C68.924,50.6,69.181,51.006,69.181,51.412z
		 M75.632,53.771l-3.834,2.25l-0.146-4.867L75.632,53.771z M94.212,51.928h2.765v-2.912h4.755l2.103,2.912h3.171l-2.36-3.172
		l0.26-0.146c1.178-0.664,1.99-1.99,1.843-3.428c0.147-2.101-1.438-3.834-3.43-3.944c-0.146,0-0.257,0-0.516,0h-8.553h-0.553
		c0.257,0.404,0.405,0.774,0.516,1.181V51.928z M102.396,43.633L102.396,43.633c0.774,0,1.438,0.663,1.438,1.438v0.147
		c0.147,0.773-0.517,1.438-1.327,1.584c-0.146,0-0.146,0-0.259,0h-5.382v-3.17H102.396z M158.358,92.074
		c-0.664-3.688-3.023-6.305-5.788-6.305c-0.259,0-0.517,0-0.775,0.147c-3.171,0.517-4.865,3.944-4.202,8.038
		c0.664,3.834,2.912,6.304,5.788,6.304c0.258,0,0.517,0,0.774-0.148C157.289,99.594,159.021,96.166,158.358,92.074z M153.602,97.235
		c-0.147,0-0.404,0-0.517,0c-1.584,0-2.911-1.437-3.28-3.687c-0.404-2.617,0.516-4.461,2.359-4.756c0.147,0,0.406,0,0.517,0
		c1.584,0,2.911,1.438,3.281,3.686C156.515,94.986,155.592,96.977,153.602,97.235z M133.731,56.277l-1.068,8.037l0.147,0.148
		l7.631-1.844l-4.203,5.678l2.103,1.99l6.449-8.442l-2.358-2.249l-6.71,1.438l0.775-6.967l-2.507-2.359l0,0l-0.259-0.258
		c0,0.515-0.147,0.921-0.515,1.327l-6.601,6.451l2.103,1.991L133.731,56.277z M116.848,55.357c1.069,0.404,2.103,0.516,3.17,0.516
		l0,0c2.36,0.147,4.461-1.18,5.382-3.43c0.517-1.584,0.259-3.17-0.663-4.607c-1.068-1.438-2.506-2.508-4.202-3.023
		c-1.069-0.404-2.103-0.517-3.171-0.517c-2.359-0.257-4.607,1.18-5.381,3.43C110.949,50.747,112.903,53.881,116.848,55.357z
		 M114.636,48.646c0.404-1.327,1.695-2.102,3.023-1.99c0.662,0,1.325,0.146,1.991,0.406c2.358,0.92,3.538,2.617,2.911,4.461
		c-0.406,1.326-1.696,2.1-3.023,1.99c-0.663,0-1.327-0.149-1.99-0.406C115.15,52.186,113.973,50.49,114.636,48.646z M100,34.159
		c-36.35,0-65.841,29.493-65.841,65.841c0,36.35,29.491,65.84,65.841,65.84c36.349,0,65.841-29.49,65.841-65.84
		C165.841,63.652,136.349,34.159,100,34.159z M100,163.187c-34.911,0-63.225-28.313-63.225-63.224
		c0-34.91,28.349-63.187,63.225-63.187c34.874,0,63.224,28.313,63.224,63.224C163.224,134.91,134.911,163.187,100,163.187z
		 M41.679,93.549c0.147-0.147,0.406-0.147,0.517-0.147c0.257,0,0.517,0,0.663,0.147l0,0L51.301,100l0.406-2.765l-1.696-1.327
		l1.069-6.711l1.99-0.662l0.406-2.766l-11.061,3.688L41.679,93.549z M48.646,89.972l-0.663,4.351l-3.834-2.911L48.646,89.972z
		 M100.406,78.396l0.147-0.147l0,0l-0.147-0.147c-1.844-1.326-3.171-3.28-3.946-5.381c-0.404-0.923-0.921-1.844-1.584-2.617
		c-0.517-0.664-1.438-1.07-2.25-1.07c-0.404,0-0.921,0-1.327,0.146h-0.257l0.146,0.26c0.258,0.664,0.774,1.178,1.438,1.438h0.147
		h0.406c0.773,0.516,1.18,3.944,1.18,5.678c0,0.257-0.147,0.404-0.406,0.404c-0.257,0-0.663-0.147-0.773-0.404
		c-0.517-0.517-1.181-0.775-1.844-0.775c-1.327-0.147-2.507,0.922-2.617,2.249v0.257c0.148,1.328,1.327,2.361,2.617,2.25
		c0.663,0,1.438-0.259,1.844-0.773c0.259-0.26,0.517-0.406,0.773-0.406c0.259,0,0.406,0.146,0.406,0.406
		c0,1.695-0.406,5.125-1.18,5.676h-0.517c-0.664,0.26-1.179,0.775-1.438,1.439l-0.147,0.257h0.258
		c0.406,0.147,0.923,0.147,1.327,0.147c0.923,0,1.696-0.404,2.25-1.068c0.773-0.775,1.326-1.696,1.584-2.617
		C97.235,81.566,98.71,79.723,100.406,78.396L100.406,78.396z M98.82,63.909c0.663,0,1.18-0.517,1.18-1.181
		c0-0.663-0.517-1.18-1.18-1.18c-0.664,0-1.18,0.517-1.18,1.18l0,0C97.641,63.246,98.156,63.762,98.82,63.909L98.82,63.909z
		 M98.414,66.82h10.396c0.406,0,0.775-0.404,0.775-0.773c0-0.404-0.406-0.773-0.775-0.773H98.414c-0.404,0-0.773,0.406-0.773,0.773
		C97.641,66.526,98.046,66.82,98.414,66.82z M100,55.725c-24.368,0-44.238,19.87-44.128,44.238
		c0.148,24.368,19.87,44.238,44.238,44.129c24.368,0,44.129-19.761,44.129-44.238C144.239,75.632,124.516,55.725,100,55.725
		L100,55.725z M72.092,131.189c-7.629-6.858-12.496-16.076-13.713-26.213h13.713V131.189z M72.092,94.729H58.379
		c1.327-9.991,6.045-19.244,13.713-25.953V94.729z M113.566,139.777c-10.139,3.428-21.345,2.912-31.077-1.696v-33.067h11.833
		c-1.18-3.43-0.773-7.115,0.774-10.285H82.453V61.955c12.127-5.53,26.21-5.124,37.785,1.327l0,0
		c1.439,0.921,1.844,2.765,0.923,4.202c-0.517,0.922-1.586,1.438-2.617,1.438h-5.271c-1.07-0.147-1.99,0.257-2.767,0.921
		c-1.438,1.327-0.921,2.766-3.944,2.766h-8.295c1.07,1.991,2.508,3.686,4.351,4.865h10.139c0.404,0,0.773,0.258,0.921,0.664
		c0,0.146,0,0.258,0.148,0.406v0.146c-0.148,0.518-0.516,0.774-0.922,0.774h-10.286c-2.101,1.181-3.54,3.023-4.351,5.271h18.581
		c1.18-0.147,2.249,0.775,2.359,1.99c0.147,1.181-0.775,2.25-1.99,2.36c-0.147,0-0.26,0-0.406,0h-9.363
		c-6.453,0-11.724,5.271-11.724,11.723s5.271,11.725,11.724,11.725h11.724c0.516,0,0.92,0.404,0.92,0.92
		c0,0.518-0.404,0.922-0.92,0.922l0,0h-11.982c-4.755,0-8.552,3.834-8.552,8.554c0,4.755,3.834,8.552,8.552,8.552h4.608
		c2.359,0,4.203,1.844,4.203,4.202C115.927,137.381,115.004,138.967,113.566,139.777L113.566,139.777z M131.483,72.057
		L131.483,72.057c15.409,17.4,13.825,43.869-3.54,59.242c-3.169,2.765-6.709,5.125-10.653,6.855l-0.146,0.149l0,0h0.146
		c3.538-1.696,5.015-5.937,3.281-9.364c-1.181-2.508-3.688-4.092-6.305-4.092h-7.372c-0.517,0-0.923-0.406-0.923-0.923
		s0.406-0.921,0.923-0.921h12.496c5.938-0.259,10.543-5.124,10.286-11.059c-0.147-5.678-4.755-10.139-10.286-10.285h-12.129
		c-0.515,0-0.921-0.406-0.921-0.924c0-0.516,0.406-0.92,0.921-0.92h9.216c9.734,0.146,17.77-7.779,17.77-17.511
		c0-3.54-1.069-6.968-3.023-9.991l0,0l0,0C131.224,72.203,131.334,72.203,131.483,72.057
		C131.334,72.057,131.334,72.057,131.483,72.057C131.483,72.203,131.334,72.057,131.483,72.057L131.483,72.057z M103.688,63.762
		c0.663,0,1.178-0.516,1.178-1.18s-0.515-1.18-1.178-1.18c-0.664,0-1.181,0.516-1.181,1.18l0,0
		C102.507,63.246,103.023,63.762,103.688,63.762L103.688,63.762z M143.723,74.821l1.696-0.921l2.765,5.381l1.99-1.068l-2.765-5.383
		l1.585-0.922l4.091,7.778l1.992-1.067l-5.53-10.656c-0.146,0.406-0.517,0.774-0.923,1.07l-8.035,4.351l5.53,10.653l1.842-1.068
		L143.723,74.821z M57.346,72.461l-3.538,7.115l-7.372-3.834l-1.586,3.023c0.146,0,0.406,0,0.517,0c0.257,0,0.516,0,0.773,0.146
		l8.147,4.204l4.865-9.622L57.346,72.461z M108.442,63.762c0.663,0,1.18-0.516,1.18-1.18s-0.517-1.18-1.18-1.18l0,0
		c-0.664,0-1.181,0.516-1.181,1.18S107.778,63.762,108.442,63.762L108.442,63.762z"/>
</g>
</svg>
