<?xml version="1.0" encoding="UTF-8"?>
<svg id="Layer_1" xmlns="http://www.w3.org/2000/svg" version="1.1" viewBox="0 0 246.607 135.795">
  <!-- Generator: Adobe Illustrator 29.5.1, SVG Export Plug-In . SVG Version: 2.1.0 Build 141)  -->
  <path d="M191.9,78.307h-3.168l-1.873,5.806h3.025c.338,0,.996-.105,2.031-.378.501-.129.996-.411,1.455-.907.453-.483.775-1.015.991-1.65.287-.928.287-1.633-.018-2.123-.32-.49-1.128-.747-2.444-.747"/>
  <path d="M147.011,59.534c1.486,0,2.595-.201,3.358-.635.769-.407,1.506-1.135,2.206-2.164.711-1.032,1.476-2.704,2.31-5.002,1.054-3.085,1.409-5.161,1.016-6.281-.391-1.139-1.494-1.68-3.325-1.68h-1.731l-5.544,15.762h1.711Z"/>
  <path d="M84.125,78.307h-3.144l-1.893,5.806h3.012c.334,0,.994-.105,2.041-.378.494-.129.995-.411,1.466-.907.438-.483.781-1.015.993-1.65.29-.928.29-1.633-.011-2.123-.349-.49-1.154-.747-2.464-.747"/>
  <polygon points="98.104 44.694 91.979 55.073 96.98 55.073 98.104 44.694"/>
  <path d="M123.316,17.039c-59.411,0-107.88,22.938-107.88,51.038s48.469,51.029,107.88,51.029,107.891-22.939,107.891-51.029-48.478-51.038-107.891-51.038M172.172,54.13l2.027-5.97,19.624-.32-3.924,6.068-19.374,9.189,10.336-9.282-8.69.315ZM156.531,37.224c2.089,0,3.614.361,4.63,1.061,1.022.712,1.714,1.714,2.041,3.022.358,1.356.435,2.897.191,4.655-.242,1.769-.722,3.626-1.422,5.59-1.082,3.083-2.197,5.48-3.332,7.172-1.144,1.717-2.413,3.109-3.793,4.258-1.394,1.146-2.703,1.94-3.981,2.312-1.727.52-3.182.778-4.43.778h-10.431l10.13-28.849h10.396ZM96.98,37.224h7.646l-1.59,28.849h-7.326l.557-4.765h-8.007l-2.77,4.765h-7.172l18.661-28.849ZM67.491,37.224h7.009l-7.632,21.737h10.934l-2.484,7.111h-17.967l10.14-28.849ZM63.017,88.623l-19.63.342,3.924-6.073,19.376-9.195-10.316,9.293,8.662-.315-2.016,5.948ZM94.039,80.474c-.525,1.596-1.236,2.953-2.164,4.112-.923,1.145-1.976,2.083-3.19,2.796-.749.454-1.718.856-2.873,1.119.737.375,1.241.721,1.532,1.057.18.253.402.747.654,1.51.252.769.382,1.366.417,1.786l.773,8.294h-8.096l-1-8.765c-.128-1.118-.324-1.836-.603-2.196-.362-.433-.877-.671-1.526-.671h-.649l-3.774,11.632h-7.225l9.311-28.601h11.992c2.208,0,3.822.223,4.847.713,1.022.436,1.672,1.314,1.996,2.593.32,1.264.17,2.809-.424,4.621M121.017,86.614c-1.077,3.334-2.436,6.093-4.054,8.237-1.612,2.157-3.444,3.79-5.569,5.019-2.128,1.159-4.476,1.773-7.048,1.773-2.641,0-4.631-.531-6.011-1.541-1.382-1.037-2.243-2.682-2.59-4.895-.36-2.232.016-4.991,1.105-8.342,1.525-4.662,3.777-8.302,6.727-10.905,2.959-2.608,6.333-3.897,10.096-3.897,3.873,0,6.441,1.268,7.689,3.82,1.263,2.561,1.155,6.135-.345,10.731M122.517,66.072l-2.935-15.835-5.559,15.835h-6.584l10.122-28.849h6.558l2.935,15.957,5.604-15.957h6.611l-10.134,28.849h-6.619ZM127.415,101.147l.536-28.601h7.523l-1.49,20.573,11.868-20.573h7.3l-17.947,28.601h-7.79ZM170.678,89.036h-11.174l-1.834,5.621h12.395l-2.089,6.49h-19.614l9.308-28.601h19.248l-1.99,6.114h-12.034l-1.49,4.533h11.182l-1.907,5.842ZM201.812,80.474c-.501,1.596-1.243,2.953-2.161,4.112-.917,1.145-1.975,2.083-3.191,2.796-.737.454-1.713.856-2.872,1.119.741.375,1.243.721,1.525,1.057.177.253.413.747.665,1.51.238.769.398,1.366.419,1.786l.784,8.294h-8.128l-1.009-8.765c-.124-1.118-.285-1.836-.574-2.196-.369-.433-.891-.671-1.551-.671h-.629l-3.789,11.632h-7.203l9.305-28.601h11.969c2.226,0,3.857.223,4.877.713,1.021.436,1.686,1.314,1.99,2.593.32,1.264.144,2.809-.427,4.621"/>
  <path d="M111.478,78.74c-1.439,0-2.791.623-4.105,1.902-1.285,1.237-2.39,3.342-3.36,6.264-.938,2.878-1.15,4.956-.711,6.214.472,1.268,1.45,1.902,2.936,1.902,1.548,0,2.965-.624,4.206-1.871,1.239-1.223,2.378-3.455,3.425-6.647.881-2.69,1.078-4.641.594-5.889-.492-1.253-1.464-1.876-2.985-1.876"/>
  <path d="M123.316,10.694c-62.739,0-113.921,25.798-113.921,57.383s51.182,57.355,113.921,57.355,113.895-25.766,113.895-57.355S186.06,10.694,123.316,10.694M123.316,122.097c-61.361,0-111.386-24.27-111.386-54.02S61.955,14.058,123.316,14.058s111.396,24.259,111.396,54.019-50.045,54.02-111.396,54.02"/>
</svg>