<?xml version="1.0" encoding="utf-8"?>
<!-- Generator: Adobe Illustrator 28.2.0, SVG Export Plug-In . SVG Version: 6.00 Build 0)  -->
<svg version="1.1" id="Calque_3" xmlns="http://www.w3.org/2000/svg" xmlns:xlink="http://www.w3.org/1999/xlink" x="0px" y="0px"
	 viewBox="0 0 300 145.7" style="enable-background:new 0 0 300 145.7;" xml:space="preserve">
<style type="text/css">
	.st0{fill-rule:evenodd;clip-rule:evenodd;fill:#010202;}
</style>
<g>
	<path class="st0" d="M95.8,54.5c0,0,1.3,1,1.3,5.4v25.1c0,3,0.9,3.8,2.6,3.8h8.1c0,0-1.4-1.7-1.4-4.1V59.2c0-3.4-0.6-4.8-2.6-4.8
		S95.8,54.5,95.8,54.5 M112.3,54.3c0,0,1.3,1,1.3,3.8v21.2c0,6.4,5.4,10.5,12.7,10.5c6.5,0,9-3.4,9-3.4s0.4,2.4,2.7,2.4
		s7.7-0.1,7.7-0.1s-1.4-2.1-1.4-4.6V54.3h-10.5c0,0,1.3,1.9,1.3,4.4c0,2.6-0.1,14.5-0.1,17.7s-1.1,6.8-6.1,6.8c-5,0-5.7-5-5.7-6.8
		V57.6c0-1.7-1-3.4-2.3-3.4S112.3,54.3,112.3,54.3 M149.9,54.3c0,0,1.9,1.3,1.9,4.7v24.9c0,3.4-1.4,4.8-1.4,4.8h9.8
		c0,0-1.3-1.6-1.3-4.8V64.8c0,0,4,8.1,6.4,12.1c2.4,4,4.6,4.3,6.6,4.4c2,0.1,2.8-0.4,2.8-0.4s4.8-13.5,7.3-17.4
		c-0.3,0.3,0,17.9,0,20.9c0,3-1.4,4.4-1.4,4.4h10.8c0,0-1.4-2.3-1.4-4.7V58.7c0-2.7,1.4-4.4,1.4-4.4s-8.7,0.1-10.7,0.1
		c-2,0-3,1-4,3.7c-1,2.7-5,12.8-5,12.8s-5.1-10.5-6.3-13.1c-1.1-2.6-2-3.7-4.1-3.7C159.1,54.2,149.9,54.3,149.9,54.3 M207,60.1
		c0,0,3.1-0.1,4.1-0.1c1,0,5,1.1,5,4.6c0,7.1-9.1,8.1-9.1,8.1L207,60.1z M195.9,54.2h18.4c5.7,0,10.3,4.3,10.3,11
		c0,11-17.5,13.2-17.5,13.2v7.3c0,2.7-1.1,3.1-2.3,3.1h-8.8c0,0,1.6-2,1.6-4.3V58.2C197.4,56,195.9,54.2,195.9,54.2"/>
	<path class="st0" d="M260.8,84.8V54.3h-11c0,0,1.3,2.4,1.3,4.6v4.8c-4.4,0.5-8.7,2.7-13.4,5.8V54.3h-11c0,0,1.3,2.4,1.3,4.6v17.7
		c-15.7,11.8-37.4,27.4-77.7,27.7c-52.1,0.4-67.1-28.5-67.1-28.5s7.4-3,7.4-10.8c0-6.4-5-10.8-9.8-10.8c-4.8,0-15.4,0.3-15.4,0.3
		l-0.9-9c0,0-6.8,0.7-18.4,0.7c-11.5,0-17.5-0.6-17.5-0.6l-0.9,10.7c3.4-1.4,13.8-2.1,13.8-2.1s-0.1,10.5-0.1,19.6
		c0,9.1-2.3,15.1-2.3,15.1l14.9-0.1c0,0-2.4-6.4-2.4-15.5V54.2c0,0,9.7,0.6,11.1,1.4c0.9,0.5,1.4,1.4,1.4,2.4v26.5
		c0,2-1.3,4.4-1.3,4.4l11.5-0.1c0,0-1.1-1.9-1.1-3.4s-0.1-7.3-0.1-7.3l1.4-0.1c0,0,20.9,31.3,74.9,31.3c37.9,0,61.7-13.3,78.6-24
		c0.3,2.4,1.2,3.6,2.4,3.6h8.4c0,0-1.3-1.7-1.3-4.1v-7.2c4.6-3.5,9.3-6.1,13.4-7.5v13.4c0,3.6,1,5.4,2.6,5.4h8.4
		C262.1,88.9,260.8,87.2,260.8,84.8z M73.4,60.1h3.8c1.6,0,5.3,1.1,5.3,4.6c0,7-9.3,7.8-9.3,7.8L73.4,60.1z"/>
</g>
</svg>
