<?xml version="1.0" encoding="utf-8"?>
<!-- Generator: Adobe Illustrator 16.0.0, SVG Export Plug-In . SVG Version: 6.00 Build 0)  -->
<!DOCTYPE svg PUBLIC "-//W3C//DTD SVG 1.1//EN" "http://www.w3.org/Graphics/SVG/1.1/DTD/svg11.dtd">
<svg version="1.1" id="Layer_1" xmlns="http://www.w3.org/2000/svg" xmlns:xlink="http://www.w3.org/1999/xlink" x="0px" y="0px"
	 width="300px" height="143.666px" viewBox="0 0 300 143.666" enable-background="new 0 0 300 143.666" xml:space="preserve">
<g>
	<path d="M35.327,42.848c0.237,0.126,2.1,1.07,2.755,1.42c0.641,0.352,3.3,1.677,3.3,1.677s-0.025,0.128-0.03,0.253
		c-0.053,0.113-0.228,0.996-0.337,1.517c-0.12,0.554-0.345,1.684-0.405,1.95c-0.041,0.287-0.083,0.654,0.251,0.804
		c0.347,0.163,2.018,0.97,2.72,1.283c0.718,0.313,3.459,1.566,3.459,1.566s-0.021,0.801,0.025,1.134
		c0.003,0.396,0.125,1.638,0.188,1.929c0.066,0.299,0.037,0.833,0.462,1.108c0.425,0.271,1.146,0.554,1.899,0.8
		c0.767,0.2,1.055,0.321,2.171,0.617c1.104,0.309,2.501,0.667,2.501,0.667s0.128,0.762,0.365,1.669
		c0.203,0.893,0.404,1.942,0.654,2.487c0.251,0.521,0.5,0.629,0.8,0.788c0.297,0.129,1.621,0.38,2.138,0.467
		c0.496,0.113,1.592,0.288,2.371,0.396c0.757,0.092,2.458,0.255,2.458,0.255s0.096,0.165,0.166,0.32
		c0.061,0.17,0.746,1.15,1.083,1.617c0.313,0.516,0.665,1.033,1.038,1.42c0.362,0.4,0.575,0.763,0.995,0.883
		c0.413,0.159,1.935,0.43,2.961,0.601c0.987,0.133,2.81,0.366,3.697,0.458c0.896,0.096,2.574,0.112,2.574,0.112
		s0.146,0.663,0.342,1.225c0.232,0.585,0.379,0.935,0.929,1.634c0.537,0.717,0.913,0.816,1.471,0.953
		c0.592,0.093,2.004,0.213,2.513,0.213c0.533,0.024,3.125,0.051,3.621,0.051c0.506,0,2.361-0.051,2.361-0.051
		s0.079,0.301,0.18,0.533c0.1,0.238,0.591,1.166,0.792,1.43c0.22,0.346,0.399,0.616,0.883,1.045c0.471,0.413,0.839,0.588,1.366,0.65
		c0.537,0.08,1.575-0.05,2.487-0.15c0.904-0.087,2.399-0.404,3.054-0.558c0.642-0.142,2.296-0.55,2.296-0.55
		s0.337,0.666,0.691,1.157c0.37,0.53,0.708,0.901,0.954,1.121c0.27,0.191,0.458,0.384,1.533,0.441
		c1.075,0.076,2.25-0.282,3.296-0.524c1.042-0.241,2.563-0.745,2.563-0.745s0.017,0.187,0.137,0.641
		c0.147,0.417,0.604,1.617,1.128,2.933c0.518,1.306,0.956,2.195,1.538,3.278c0.556,1.076,1.163,2.125,1.988,3.25
		c0.816,1.109,1.782,2.288,2.392,2.967c0.592,0.68,3.165,3.225,3.92,3.879c0.767,0.667,2.688,2.063,3.517,2.662
		c0.837,0.555,2.249,1.413,3.073,1.867c0.83,0.454,2.846,1.441,3.793,1.858c0.854,0.411,2.175,0.92,2.175,0.92
		s0.261,0.558,0.441,0.959c0.149,0.396,0.956,1.929,1.074,2.128c0.066,0.172,0.392,0.218,0.619,0.172
		c0.193-0.051,1.389-0.518,1.772-0.671c0.404-0.184,1.514-0.584,1.514-0.584s0.586,0.908,0.861,1.301
		c0.25,0.35,0.883,1.275,0.973,1.445c0.11,0.153,0.386,0.153,0.526,0.104c0.139-0.066,0.863-0.521,1.379-0.791
		c0.486-0.249,1.701-0.904,1.701-0.904s0.62,0.751,0.786,0.971c0.205,0.229,1.192,1.379,1.331,1.55
		c0.124,0.179,0.349,0.226,0.52,0.12c0.166-0.07,1.07-0.795,1.421-1.049c0.35-0.241,1.395-1.013,1.395-1.013
		s0.842,0.871,1.144,1.166c0.35,0.338,1.197,1.122,1.398,1.217c0.202,0.101,0.346-0.024,0.346-0.024s0.177-0.15,0.258-0.255
		c0.101-0.112,0.825-0.778,1.126-1.091c0.287-0.279,1.116-1.075,1.116-1.075s0.222,0.204,0.445,0.346
		c0.233,0.143,0.954,0.729,1.396,1.042c0.407,0.33,0.791,0.616,0.995,0.692c0.174,0.086,0.313,0.103,0.412,0.012
		c0.07-0.059,0.963-1.092,1.221-1.445c0.337-0.467,0.975-1.209,0.975-1.209s1.093,0.609,1.359,0.778
		c0.262,0.13,1.55,0.859,1.688,0.889c0.149,0.059,0.391,0.124,0.508-0.013c0.108-0.092,0.764-1.066,0.987-1.413
		c0.231-0.382,0.897-1.35,0.897-1.35s0.985,0.4,1.42,0.584c0.444,0.153,1.632,0.612,1.874,0.695c0.241,0.07,0.467,0.021,0.597-0.155
		c0.096-0.156,0.569-1.083,0.832-1.636c0.267-0.621,0.767-1.563,0.767-1.563s1.251-0.486,2.321-0.975
		c1.065-0.509,3.57-1.833,4.935-2.669c1.344-0.835,3.106-2.113,4.088-2.888c0.963-0.792,2.784-2.404,3.201-2.821
		c0.424-0.445,1.107-1.175,1.558-1.654c0.504-0.483,2.472-2.945,2.958-3.67c0.416-0.583,1.733-2.758,1.995-3.254
		c0.284-0.551,1.097-2.229,1.255-2.642c0.175-0.407,0.783-2.212,0.783-2.212s0.491,0.226,1.055,0.396
		c0.578,0.18,1.262,0.362,1.812,0.454c0.56,0.088,0.987,0.121,1.246,0.088c0.279-0.046,0.816-0.413,1.133-0.646
		c0.321-0.243,0.726-0.713,0.96-0.997c0.241-0.341,0.578-1.024,0.578-1.024s0.371,0.138,0.679,0.221
		c0.271,0.1,1.57,0.463,2.088,0.613c0.495,0.121,1.682,0.392,2.215,0.475c0.55,0.05,1.172,0.209,1.839,0.126
		c0.629-0.085,1.024-0.571,1.362-0.867c0.282-0.237,0.703-0.884,0.891-1.251c0.196-0.328,0.463-1.103,0.463-1.103
		s0.395,0.19,0.8,0.308c0.376,0.117,1.75,0.392,2.434,0.467c0.684,0.1,2.111,0.195,2.778,0.208c0.642,0.018,1.342-0.037,1.866-0.108
		c0.554-0.055,0.667-0.238,0.963-0.521c0.274-0.246,0.503-0.634,0.654-0.963c0.175-0.304,0.454-1.018,0.591-1.466
		c0.112-0.417,0.321-1.168,0.321-1.168s0.684-0.02,1.091,0c0.46,0.013,1.705,0.026,2.343,0.026c0.646,0,3.031-0.067,3.411-0.08
		c0.38-0.021,0.967-0.058,1.6-0.183c0.604-0.113,0.801-0.358,1.013-0.567c0.213-0.216,0.458-0.565,0.662-1.033
		c0.184-0.499,0.363-1.133,0.412-1.399c0.06-0.25,0.234-1.282,0.234-1.282s0.338,0.096,0.753,0.141
		c0.53,0.047,1.334,0.137,2.051,0.191c0.754,0.037,2.232,0.037,2.733,0.037c0.499,0,1.532-0.037,1.741-0.111
		c0.212-0.07,0.674-0.367,0.953-0.629c0.268-0.226,0.815-0.867,1.138-1.317c0.283-0.449,0.737-1.313,0.901-1.72
		c0.149-0.413,0.516-1.746,0.516-1.746s0.467-0.013,0.954-0.051c0.491-0.045,1.892-0.198,2.616-0.266
		c0.759-0.101,1.512-0.267,2.116-0.4c0.593-0.133,0.829-0.333,1.188-0.629c0.338-0.284,0.65-0.913,0.779-1.271
		c0.126-0.371,0.283-1.2,0.32-1.688c0.06-0.474,0.097-1.541,0.097-1.541s0.296,0,0.666-0.021c0.346-0.037,1.188-0.175,1.788-0.301
		c0.62-0.099,1.833-0.483,2.157-0.649c0.339-0.154,0.854-0.45,1.093-0.721c0.234-0.332,0.59-0.962,0.712-1.45
		c0.149-0.541,0.149-1.183,0.184-1.737c0.016-0.538-0.055-1.434-0.055-1.434s1.153-0.292,1.767-0.457
		c0.653-0.159,2.078-0.771,2.44-0.921c0.371-0.153,1.355-0.733,1.422-0.771c0.087-0.047,0.05-0.771,0.05-1.083
		c0-0.297-0.255-1.305-0.438-1.813c-0.16-0.467-0.642-1.604-0.642-1.604s1.62-0.684,2.25-0.929c0.633-0.259,2.554-1.233,2.729-1.359
		c0.179-0.083,0.312-0.165,0.471-0.35c0.146-0.175,0.533-0.861,0.604-1.003c0.062-0.134-0.046-0.238-0.263-0.464
		c-0.196-0.262-0.759-1.008-1.305-1.658c-0.579-0.632-1.938-1.925-2.095-2.003c-0.142-0.138-0.508-0.138-1.396-0.054
		c-0.771,0.054-5.441,0.416-7.6,0.641c-2.156,0.247-6.495,0.417-7.738,0.454c-1.302,0.046-5.431-0.145-7.41-0.246
		c-1.961-0.099-11.768-0.683-13.997-0.674c-2.221,0.042-13.07,0.538-14.883,0.652c-1.791,0.089-8.04,0.355-9.973,0.381
		c-2.916,0.032-5.691-0.292-6.888-0.434c-1.187-0.134-5.403-0.558-7.182-0.6c-1.775-0.03-2.94,0.108-4.362,0.208
		c-1.454,0.107-3.987,0.505-5.646,0.857c-1.626,0.355-3.567,0.942-3.567,0.942s-2.658-1.196-3.899-1.692
		c-1.271-0.49-4.533-1.49-7.407-2.125c-2.867-0.629-7.02-0.963-9.954-0.963c-2.923,0-5.878,0.334-8.647,0.784
		c-2.754,0.413-6.37,1.421-7.758,1.9c-1.362,0.467-4.066,1.516-4.066,1.516s-1.617-0.508-3.05-0.715
		c-1.404-0.247-7.725-0.659-9.717-0.659c-2.003,0-12.11,0.449-14.244,0.521c-2.116,0.062-8.523-0.26-10.862-0.409
		c-2.34-0.124-11.764-0.471-13.806-0.454c-2.036,0.029-10.457,0.167-11.92,0.245c-1.475,0.097-8.05,0.484-8.944,0.484h-6.612
		c-1.565,0-5.532-0.18-6.428-0.297c-0.892-0.091-4.258-0.449-4.575-0.474c-0.299-0.03-0.687,0.041-1.016,0.371
		c-0.316,0.337-0.684,0.77-1.184,1.309c-0.491,0.544-2.208,2.57-2.208,2.57s0.07,0.225,0.175,0.629
		C34.965,42.394,35.073,42.689,35.327,42.848 M47.614,50.726c-0.289-0.124-2.163-0.957-2.684-1.191
		c-0.528-0.253-1.433-0.604-1.604-0.841c-0.162-0.208-0.08-0.525-0.08-0.792c0-0.275,0-0.612-0.312-0.867
		c-0.299-0.254-0.674-0.533-0.674-0.533l0.124-0.599c0,0,1.659-0.009,2.176,0.024c0.515,0.018,3.565,0.133,4.636,0.133
		c1.051,0,4.371,0.108,5.191,0.072c0.8-0.051,5.296,0.065,6.25,0.065c0.979,0,5.682,0.021,6.645,0.021
		c0.967,0.034,6.342,0.042,7.183,0.042c0.838,0,5.254,0,6.279,0.034c1.028,0.004,5.478-0.034,6.471-0.034
		c1.004,0,3.565,0.038,4.128,0.034c0.57-0.034,1.004-0.055,1.125-0.097c0.107-0.029,0.479-0.204,0.683-0.096
		c0.231,0.116,0.32,0.346,0.413,0.484c0.107,0.099,0.295,0.282,0.408,0.35c0.118,0.092,0.354,0.19,0.5,0.407
		c0.143,0.206,0.143,0.206,0.371,0.371c0.226,0.188,0.287,0.268,0.2,0.362c-0.079,0.108-0.429,0.524-0.571,0.775
		c-0.146,0.229-0.195,0.454-0.274,0.537c-0.101,0.067-0.588,0.13-0.588,0.13s0.287-0.237,0.249-0.433
		c-0.045-0.176-0.388-0.642-1.083-0.688c-0.725-0.045-2.47,0.101-3.267,0.196c-0.787,0.092-6.023,0.537-6.936,0.616
		c-0.93,0.096-8.154,0.604-9.396,0.716c-1.237,0.098-6.97,0.435-8.057,0.501c-1.1,0.092-5.416,0.299-6.722,0.375
		c-1.345,0.1-4.402,0.232-5.586,0.283c-1.161,0.05-3.458,0.104-3.912,0.05C48.493,51.113,47.91,50.864,47.614,50.726
		 M120.707,78.644c0.05,0.167,0.128,0.333,0.029,0.376c-0.181,0.066-0.534,0.32-0.636,0.363c-0.115,0.057-0.395,0.041-0.564-0.21
		c-0.079-0.153-0.512-0.196-0.826-0.462c-0.344-0.221-0.308-0.404-0.295-0.679c0.012-0.259,0.167-1.237,0.092-1.479
		c-0.092-0.188-0.287-0.616-0.287-0.616s0.49-1.166,0.604-1.389c0.14-0.203,0.279-0.557,0.279-0.557s0.116,0.599,0.254,0.896
		c0.122,0.271,0.4,0.592,0.5,0.912c0.079,0.226,0.563,1.483,0.633,1.688c0.101,0.184,0.247,0.505,0.192,0.687
		C120.619,78.354,120.632,78.499,120.707,78.644 M115.536,66.034c-0.267-0.468-0.43-0.496-0.646-0.563
		c-0.238-0.063-0.313,0.021-0.65-0.142c-0.362-0.188-0.521-0.546-0.75-0.592c-0.225-0.033-0.188-0.066-0.375,0
		c-0.27,0.138-0.441,0.033-0.441,0.033s1.079-0.987,1.601-1.524c0.509-0.521,1.528-1.517,1.996-1.942
		c0.42-0.47,1.219-1.232,1.219-1.232s0.176,0.279,0.547,0.296c0.379,0.032,0.75,0.075,1.02,0.088
		c0.292,0.041,0.76,0.041,0.908-0.101c0.145-0.153,0.338-0.2,0.338-0.2s-0.216,0.301-0.495,0.667
		c-0.309,0.387-1.088,1.483-1.524,2.145c-0.442,0.688-1.435,2.154-1.597,2.426c-0.184,0.287-0.55,0.861-0.67,1.063
		c-0.108,0.124-0.263,0.333-0.263,0.333S115.786,66.458,115.536,66.034 M114.974,53.447c0,0-0.833,0.654-1.125,0.92
		c-0.275,0.291-0.767,0.733-0.875,0.806c-0.116,0.053-0.532-0.159-0.809-0.31c-0.27-0.108-0.874-0.279-1.104-0.304
		c-0.237-0.028-0.408-0.028-0.408-0.028s0.604-0.518,1.008-0.86c0.405-0.315,1.185-0.819,1.515-1.107
		c0.397-0.229,0.673-0.417,0.765-0.466c0.125-0.013,0.246,0.058,0.334,0.137c0.066,0.08,0.304,0.08,0.375,0.233
		c0.042,0.205,0,0.387,0.042,0.495c0.078,0.126,0.237,0.084,0.282,0.177C115.002,53.251,114.974,53.447,114.974,53.447
		 M114.995,54.233c0.274-0.22,0.824-0.649,0.824-0.649s0.259,0.03,0.225,0.191c-0.054,0.13,0.146,0.168,0.238,0.168
		c0.124,0,0.408-0.076,0.486-0.05c0.101,0.05,0.214,0.12,0.214,0.278c0,0.188,0,0.333,0.092,0.347
		c0.063,0.013,0.227-0.014,0.245,0.065c0.009,0.074,0.021,0.166,0.021,0.166s-0.922,0.947-1.318,1.269
		c-0.386,0.387-0.994,1.012-1.064,1.111c-0.076,0.107-0.134,0.178-0.134,0.178s-0.15-0.365-0.476-0.66
		c-0.313-0.279-0.458-0.384-0.75-0.451c-0.333-0.107-0.625-0.107-0.625-0.107s0.713-0.655,1.063-0.963
		C114.377,54.798,114.732,54.451,114.995,54.233 M112.857,51.135c-0.138,0.213-0.208,0.396-0.567,0.747
		c-0.404,0.386-0.712,0.557-0.95,0.77c-0.254,0.216-0.62,0.521-0.824,0.555c-0.191,0.045-0.5-0.134-0.666-0.18
		c-0.15-0.03-0.646-0.217-0.779-0.296c-0.116-0.079-0.304-0.146-0.459-0.134c-0.141,0.017-0.578,0.117-0.578,0.117v-0.329
		c0,0,1.004-0.546,1.347-0.747c0.319-0.2,1.391-0.703,1.819-0.974c0.487-0.237,0.976-0.417,1.242-0.404
		c0.258,0.033,0.486,0.12,0.524,0.241C113.003,50.631,112.974,50.93,112.857,51.135 M111.199,49.086
		c-0.18,0.095-1.221,0.683-1.613,0.861c-0.383,0.171-1.261,0.596-1.524,0.633c-0.274,0.009-0.558-0.062-0.824-0.153
		c-0.237-0.066-0.358-0.108-0.484-0.126c-0.12-0.008-0.42,0-0.42,0s0.033-0.087,0.033-0.17c0-0.088,0.036-0.205,0.036-0.205
		s0.864-0.47,1.61-0.795c0.754-0.3,2.232-0.851,2.549-0.912c0.321-0.072,0.653-0.2,0.838-0.072c0.179,0.104,0.335,0.196,0.287,0.317
		C111.632,48.601,111.387,48.993,111.199,49.086 M110.883,46.377c-0.083,0.054-0.101,0.117-0.284,0.292
		c-0.178,0.232-0.354,0.433-0.552,0.524c-0.197,0.066-0.686,0.196-1.265,0.355c-0.562,0.12-1.429,0.42-1.75,0.485
		c-0.299,0.112-0.391,0.192-0.883,0.112c-0.491-0.112-0.646-0.162-0.857-0.204c-0.208-0.041-0.229,0-0.347,0.042
		c-0.105,0.05-0.149,0-0.149,0V47.76c0-0.091,0.006-0.17,0.006-0.17s0.898-0.396,1.544-0.622c0.687-0.203,1.866-0.482,2.421-0.616
		c0.533-0.092,0.942-0.271,1.128-0.184c0.229,0.05,0.492,0.05,0.642,0.05l0.288-0.041C110.824,46.177,110.957,46.331,110.883,46.377
		 M105.247,49.539c0.307,0.125,0.604,0.262,0.635,0.45c0.063,0.209-0.041,0.491-0.182,0.642c-0.088,0.184-0.117,0.329-0.146,0.454
		c-0.05,0.137-0.05,0.399-0.05,0.399s-0.169,0.146-0.387,0.18l-0.321,0.087c0,0,0.006-0.221-0.134-0.396
		c-0.158-0.159-0.563-0.321-0.835-0.242c-0.286,0.083-1.352,0.518-1.773,0.692c-0.407,0.179-1.575,0.721-1.96,0.883
		c-0.41,0.166-0.677,0.308-1.09,0.264c-0.406-0.085-0.766-0.101-1.07-0.264c-0.312-0.146-0.733-0.354-0.864-0.399
		c-0.155-0.029-0.436-0.092-0.436-0.092s0.046-0.267,0.191-0.392c0.138-0.125,0.524-0.2,0.725-0.321
		c0.196-0.083,0.825-0.288,1.454-0.524c0.643-0.234,1.851-0.58,2.338-0.713c0.527-0.175,1.611-0.5,1.884-0.629
		c0.304-0.1,0.642-0.337,0.92-0.313C104.431,49.306,104.945,49.442,105.247,49.539 M99.202,55.038l1.386-0.671
		c0.471-0.229,2.282-1.05,2.855-1.32c0.552-0.267,1.453-0.701,1.663-0.767c0.186-0.097,0.397-0.233,0.627-0.275
		c0.228-0.009,0.749,0.142,1.05,0.179c0.3,0.076,0.715,0.131,0.8,0.271c0.113,0.196,0.157,0.592,0.113,0.685
		c-0.051,0.124-0.163,0.499-0.15,0.636c0.017,0.168,0.062,0.547,0.062,0.547l-0.42,0.196c-0.217,0.14-0.488,0.236-0.488,0.236
		s-0.066-0.236-0.267-0.388c-0.175-0.163-0.5-0.249-0.774-0.163c-0.163,0.061-1.241,0.659-1.656,0.922
		c-0.372,0.258-1.398,0.879-1.535,0.963c-0.184,0.107-0.33,0.316-0.826,0.279c-0.49-0.042-0.715-0.104-0.966-0.223
		c-0.241-0.127-0.74-0.478-0.88-0.574c-0.133-0.1-0.645-0.221-0.645-0.366C99.15,55.056,99.202,55.038,99.202,55.038
		 M103.813,57.151c0.604-0.368,2.069-1.172,2.649-1.509c0.57-0.308,1.121-0.742,1.434-0.788c0.286-0.037,1.021-0.021,1.404-0.021
		c0.399,0,0.646,0,0.679,0.188c0.037,0.2-0.033,0.367-0.059,0.55c-0.025,0.146,0,0.625,0,0.625l-2.837,2.226
		c-0.45,0.351-1.554,1.312-1.604,1.332c-0.083,0.017-0.454-0.27-0.88-0.441c-0.433-0.184-0.679-0.203-0.887-0.238
		c-0.163-0.022-0.433-0.169-0.726-0.299c-0.258-0.107-0.36-0.166-0.562-0.212c-0.188-0.029-0.598,0.137-0.598,0.137l-0.041-0.262
		C101.787,58.438,103.191,57.534,103.813,57.151 M106.416,59.88c0.501-0.459,1.988-1.667,2.396-1.991
		c0.392-0.326,1.409-1.105,1.55-1.21c0.146-0.133,0.292-0.145,0.471-0.145c0.188,0,0.629-0.129,0.821-0.129
		c0.2,0,0.558-0.025,0.601,0.242c0.007,0.27,0.149,0.77,0.133,0.975c-0.021,0.194,0,0.42,0.063,0.528
		c0.075,0.138,0.126,0.217,0.126,0.217s-0.164,0.176-0.435,0.449c-0.287,0.258-1.142,1.08-1.509,1.438
		c-0.387,0.366-1.149,1.1-1.429,1.383c-0.287,0.304-0.712,0.726-0.712,0.726s-0.104-0.43-0.371-0.655
		c-0.237-0.216-0.862-0.341-1.203-0.341c-0.385-0.013-0.839-0.38-1.035-0.421c-0.182-0.046-0.378,0.059-0.378,0.059
		s-0.226,0.079-0.3-0.104C105.204,60.917,105.933,60.288,106.416,59.88 M110.732,61.084c0.371-0.38,1.633-1.555,1.941-1.857
		c0.292-0.289,0.53-0.598,0.846-0.755c0.358-0.104,0.755-0.321,0.917-0.25c0.188,0.066,0.316,0.3,0.412,0.554
		c0.07,0.276,0.321,0.629,0.771,0.797c0.467,0.132,0.746,0.182,0.968,0.161c0.22-0.012,0.337-0.029,0.337-0.029
		s-0.492,0.472-0.733,0.721c-0.217,0.246-0.959,0.963-1.375,1.347c-0.438,0.399-1.541,1.524-1.842,1.8
		c-0.324,0.304-0.75,0.679-0.75,0.679s-0.013-0.313-0.236-0.521c-0.334-0.3-0.714-0.258-1.076-0.236
		c-0.362,0.007-0.587-0.088-0.811-0.275c-0.21-0.172-0.381-0.362-0.499-0.379c-0.119-0.018-0.385,0.115-0.432,0.149
		c-0.07,0.051-0.366,0.051-0.366,0.051L110.732,61.084z M118.249,58.563l0.107-0.172c0,0,0.559-0.674,1.026-1.179l1.15-1.225
		c0.224-0.233,0.331-0.408,0.331-0.408s-0.309,0.746-0.375,1.055c-0.07,0.32-0.157,0.953-0.157,1.249
		c0,0.267-0.109,0.555-0.18,0.917c-0.052,0.328-0.052,0.649-0.052,0.649s-0.228,0.163-0.395,0.225
		c-0.17,0.079-0.358,0.226-0.358,0.226s-0.041-0.512-0.245-0.783c-0.188-0.25-0.279-0.316-0.449-0.408
		C118.507,58.609,118.249,58.563,118.249,58.563 M116.432,68.982c0.108,0,0.658-0.05,1.097-0.137
		c0.432-0.07,1.111-0.229,1.295-0.191c0.149,0.066,0.149,0.191,0.175,0.337c0.013,0.138,0.026,1.545,0.033,2.008
		c0.024,0.475,0.024,1.475-0.068,1.825c-0.089,0.387-1.181,2.471-1.435,3.083c-0.236,0.559-0.941,1.842-1.039,2.084
		c-0.107,0.267-0.169,0.315-0.249,0.411c-0.088,0.088-0.267-0.229-0.533-0.541c-0.358-0.441-0.733-0.375-1.117-0.283
		c-0.374,0.092-2.511,0.68-2.866,0.744c-0.384,0.08-1.028,0.255-1.387,0.209c-0.347-0.074-0.509-0.291-0.668-0.587
		c-0.187-0.287-0.369-0.458-0.604-0.458c-0.262,0-0.454-0.066-0.454-0.066s1.972-2.097,2.408-2.551
		c0.441-0.448,2.829-3.015,3.354-3.596c0.509-0.557,1.371-1.592,1.579-1.862C116.156,69.138,116.323,68.982,116.432,68.982
		 M119.348,66.857c-0.146,0.309-0.267,0.496-0.279,0.625l-0.058,0.371c0,0-0.258,0.184-0.371,0.233l-0.346,0.075v-0.309
		c0-0.113-0.217-0.371-0.334-0.616c-0.133-0.209-0.254-0.482-0.107-0.934c0.126-0.429,0.346-0.953,0.491-1.341
		c0.176-0.346,0.296-0.729,0.559-1.338c0.267-0.624,0.467-1.107,0.789-1.542c0.312-0.478,0.453-0.716,0.582-0.903
		c0.146-0.192,0.32-0.247,0.32-0.247s0.143,0.223,0.259,0.385c0.128,0.158,0.316,0.342,0.278,0.479
		c-0.045,0.138-0.624,1.313-0.772,1.633c-0.118,0.321-0.543,1.691-0.625,2.109C119.606,65.954,119.479,66.555,119.348,66.857
		 M120.632,54.854c-0.392,0.451-1.669,1.824-2.175,2.434c-0.505,0.617-0.913,1.104-1.079,1.255
		c-0.229,0.232-0.396,0.496-0.396,0.496h-0.15c0,0,0.171-0.267,0.142-0.567c-0.05-0.25-0.283-0.704-0.517-0.824
		c-0.223-0.113-0.301-0.159-0.467-0.113c-0.137,0.054-0.283,0.113-0.403,0.146c-0.12,0.038-0.217,0.041-0.217,0.041
		s0.582-0.649,0.864-0.916c0.255-0.282,0.964-0.924,1.218-1.162c0.233-0.254,0.472-0.417,0.567-0.417c0.1,0,0.516,0.163,0.804,0.059
		c0.279-0.149,0.783-0.638,0.83-1.004c0.016-0.387-0.163-0.742-0.404-0.925c-0.238-0.184-0.609-0.329-0.834-0.309
		c-0.233,0.025-0.528,0.074-0.763,0.204c-0.179,0.066-0.333,0.104-0.333,0.104s0.009-0.184,0.034-0.454
		c0.041-0.288-0.102-0.556-0.248-0.755c-0.132-0.258-0.464-0.449-0.823-0.509c-0.35-0.032-0.518,0.06-0.646-0.032
		c-0.146-0.088-0.037-0.305-0.154-0.588c-0.112-0.263-0.292-0.638-0.607-0.758c-0.374-0.129-0.659-0.195-0.839-0.195
		c-0.158,0-0.158-0.113-0.158-0.317c0-0.291-0.079-0.874-0.254-1.017c-0.149-0.15-0.533-0.417-0.759-0.463
		c-0.236-0.041-0.392-0.083-0.392-0.212c0-0.113,0.155-0.404,0.155-0.666c0-0.264-0.054-0.642-0.375-0.858
		c-0.292-0.221-0.638-0.313-0.793-0.551c-0.121-0.204-0.35-0.437-0.411-0.458c-0.066-0.017-0.336-0.017-0.543,0
		c-0.193,0.021-0.679,0.107-1.024,0.162c-0.332,0.063-0.519,0.151-0.7,0.092c-0.171-0.062-0.57-0.19-0.828-0.19
		s-0.9,0.032-1.313,0.083c-0.445,0.046-0.88,0.087-1.226,0.079c-0.354-0.033-0.576-0.13-0.862-0.251
		c-0.288-0.134-0.387-0.178-0.523-0.27c-0.172-0.096-0.252-0.192-0.252-0.192s0.026-0.138,0.049-0.237
		c0.031-0.112,0.106-0.251,0.106-0.251s1.283-0.049,2.23-0.083c0.928-0.016,2.106,0,2.729,0.108c0.631,0.07,1.668,0.138,2.06,0.113
		c0.387-0.009,0.984-0.066,1.945-0.043c0.95,0.043,2.667,0.117,3.792,0.255c1.117,0.184,2.149,0.404,3.08,0.732
		c0.937,0.306,2.63,1.018,3.164,1.671c0.543,0.642,0.93,1.154,0.889,1.98c-0.084,0.841-0.422,1.679-0.672,2.203
		c-0.274,0.512-0.909,1.612-1.028,1.8C122.015,53.505,121.031,54.4,120.632,54.854 M104.121,47.177
		c0.191,0.137,0.383,0.388,0.325,0.508c-0.067,0.146-0.134,0.233-0.246,0.371c-0.091,0.146-0.055,0.212-0.091,0.342
		c-0.025,0.149-0.025,0.388-0.025,0.388s-0.502,0.171-0.58,0.171c-0.1,0-0.212,0.041-0.212,0.041s0.112-0.354,0.029-0.403
		c-0.104-0.063-0.458-0.326-0.822-0.33c-0.362-0.045-1.415,0.234-1.741,0.337c-0.35,0.13-1.643,0.485-2.125,0.647
		c-0.495,0.141-0.944,0.365-1.337,0.333c-0.391-0.047-0.737-0.217-1.096-0.388c-0.321-0.146-0.408-0.23-0.528-0.283
		c-0.104-0.079-0.367-0.217-0.367-0.217s0.291-0.426,0.408-0.492c0.079-0.055,0.822-0.3,1.121-0.386
		c0.299-0.102,1.679-0.426,2.316-0.556c0.613-0.158,1.83-0.358,2.379-0.512c0.55-0.149,1.074-0.346,1.271-0.346
		c0.153,0,0.417,0.083,0.604,0.225C103.582,46.752,103.934,47.027,104.121,47.177 M103.28,44.915
		c-0.102,0.12-0.235,0.445-0.293,0.632c-0.096,0.209-0.034,0.434-0.154,0.446c-0.104,0.05-0.637,0.108-0.637,0.108
		s0.087-0.233-0.06-0.346c-0.162-0.087-0.524-0.233-0.835-0.209c-0.318,0-1.876,0.168-2.376,0.209
		c-0.48,0.055-1.896,0.237-2.167,0.287c-0.292,0.038-0.576,0-0.782-0.099c-0.218-0.076-0.98-0.397-1.198-0.542
		c-0.196-0.175-0.307-0.238-0.394-0.258l-0.33-0.063l0.155-0.404c0.066-0.13,0.175-0.329,0.175-0.329h3.999
		c0.896,0.018,3.517,0.018,3.771,0.018c0.299,0,0.657,0.133,0.798,0.141l0.272,0.029C103.226,44.535,103.371,44.852,103.28,44.915
		 M52.167,56.405c-0.852-0.204-2.137-0.575-2.354-0.784c-0.224-0.22-0.328-0.448-0.391-0.703c-0.058-0.26-0.483-0.816-0.687-0.904
		c-0.205-0.12-0.718-0.399-0.718-0.399V53.14c0,0,0.784,0,1.179-0.051c0.417-0.083,2.039-0.083,3.123-0.126
		c1.099-0.054,5.327-0.232,6.655-0.312c1.392-0.088,7.431-0.392,8.559-0.475c1.12-0.092,9.104-0.635,10.236-0.739
		c1.113-0.09,7.707-0.623,8.719-0.712c1.042-0.095,4.514-0.425,5.722-0.527c1.25-0.08,1.399-0.251,1.625-0.272
		c0.194-0.024,0.332-0.138,0.541,0.098c0.206,0.236,0.604,0.665,0.85,0.841c0.259,0.17,1.009,0.666,1.037,0.903
		c0,0.237-0.203,0.566-0.347,0.796c-0.099,0.217-0.099,0.688-0.099,0.688l-0.783,0.155c0,0,0.078-0.2,0.081-0.31
		c0-0.101-0.119-0.445-0.444-0.555c-0.323-0.157-0.874-0.208-1.429-0.111c-0.526,0.111-2.987,0.532-4.012,0.699
		c-0.987,0.166-6.799,1.15-8.216,1.354c-1.408,0.235-7.008,1.101-8.336,1.271c-1.325,0.225-6.483,0.866-8.282,1.028
		c-1.817,0.196-3.996,0.404-5.197,0.476c-1.22,0.067-2.461,0.176-3.328,0.091C54.968,57.237,53.021,56.635,52.167,56.405
		 M60.638,62.909c-0.971-0.134-2.063-0.367-2.445-0.434c-0.384-0.043-0.729-0.133-0.917-0.571c-0.153-0.454-0.121-0.788-0.417-1.096
		c-0.27-0.313-0.625-0.633-0.857-0.737c-0.231-0.083-0.579-0.066-0.633-0.175c-0.069-0.222-0.063-0.492-0.063-0.492
		s0.334,0.046,0.696,0c0.358-0.021,0.667-0.19,1.087-0.229c0.425-0.021,1.699-0.065,2.412-0.101c0.7-0.022,2.771-0.229,3.508-0.299
		c0.717-0.058,4.149-0.396,5.28-0.554c1.119-0.142,7.236-1.009,8.269-1.175c0.996-0.13,6.125-0.901,7.508-1.146
		c1.412-0.241,6.091-1.083,7.278-1.304c1.217-0.229,2.675-0.458,3.208-0.574c0.542-0.129,0.899-0.355,1.208-0.292
		c0.301,0.092,0.602,0.316,0.975,0.503c0.362,0.167,0.955,0.363,1.258,0.473c0.324,0.111,0.617,0.282,0.655,0.395
		c0.028,0.121,0,0.597-0.144,0.816c-0.119,0.229-0.211,0.417-0.265,0.654c-0.047,0.279-0.066,0.476-0.066,0.476l-0.738,0.279
		c0,0,0.116-0.347,0-0.509c-0.12-0.139-0.52-0.449-0.733-0.421c-0.233,0.009-0.549,0.05-0.888,0.158
		c-0.354,0.124-4.791,1.467-5.497,1.658l-5.276,1.462c-0.677,0.205-4.845,1.226-6.001,1.463c-1.21,0.263-5.577,1.133-6.664,1.338
		c-1.074,0.204-5.175,0.729-6.235,0.786c-1.056,0.08-1.234,0.11-2.068,0.06C63.237,63.296,61.655,63.079,60.638,62.909
		 M75.919,68.642c-0.591,0.058-2.907-0.15-3.841-0.275c-0.95-0.124-3.627-0.546-3.996-0.626c-0.37-0.137-0.595-0.271-0.8-0.533
		c-0.211-0.253-0.392-0.42-0.75-0.629c-0.375-0.157-0.804-0.408-1.102-0.508c-0.28-0.116-0.414-0.167-0.624-0.259
		c-0.199-0.063-0.397-0.086-0.515-0.178c-0.121-0.067-0.159-0.226-0.159-0.226s3-0.312,3.662-0.425
		c0.68-0.087,5.277-0.733,6.381-0.954c1.102-0.246,5.848-1.271,6.698-1.496c0.857-0.17,6.044-1.546,7.09-1.813
		c1.029-0.283,4.504-1.271,5.445-1.566c0.954-0.287,3.724-1.112,4.026-1.249c0.311-0.146,0.632-0.366,0.948-0.33
		c0.3,0.021,1.199,0.313,1.529,0.409c0.329,0.104,1.171,0.237,1.335,0.396c0.139,0.142,0.23,0.279,0.18,0.491
		c-0.041,0.238-0.015,1.479,0,1.571c0.022,0.162,0.335,0.407,0.335,0.407l-0.782,0.306c-0.172,0.073-0.53,0.212-0.53,0.212
		s0.086-0.362,0.028-0.467c-0.045-0.079-0.508-0.346-0.616-0.379c-0.166-0.025-0.285,0-0.633,0.116
		c-0.358,0.096-1.238,0.518-1.68,0.717c-0.454,0.194-3.069,1.233-3.841,1.516c-0.814,0.334-3.979,1.572-5.02,1.913
		c-1.021,0.358-5.642,1.954-6.504,2.217c-0.848,0.258-3.884,1.104-4.608,1.308C76.856,68.491,76.516,68.616,75.919,68.642
		 M84.646,72.77c-0.953,0.034-2.855-0.038-3.456-0.059c-0.592-0.021-1.45-0.065-1.894-0.203c-0.468-0.218-0.533-0.441-0.814-0.755
		c-0.271-0.346-0.809-0.667-1.063-0.733c-0.248-0.112-0.641-0.125-0.788-0.078c-0.073,0.012-0.114-0.371-0.114-0.371
		s0.979-0.216,1.254-0.38c0.262-0.1,1.837-0.565,2.32-0.716c0.492-0.146,2.249-0.609,3-0.858c0.716-0.241,4.174-1.416,4.844-1.662
		c0.68-0.217,4.801-1.754,5.597-2.079c0.817-0.321,5.369-2.167,6.037-2.425c0.645-0.279,1.316-0.546,1.517-0.688
		c0.246-0.171,0.982-0.534,1.332-0.607c0.347-0.092,1.039-0.209,1.351-0.188c0.317,0,0.546-0.021,0.68,0.124
		c0.12,0.18,0.166,0.358,0.153,0.616c-0.021,0.233,0.071,0.834,0.346,1.067c0.288,0.212,0.713,0.429,1.191,0.529
		c0.467,0.124,0.917,0.188,1.083,0.194c0.168,0.026,0.284,0,0.284,0s-0.923,0.576-1.171,0.684l-1.2,0.601
		c0,0-0.107-0.251-0.195-0.309c-0.12-0.032-0.577-0.032-0.936-0.007c-0.344,0.049-0.71,0.169-1.049,0.344
		c-0.326,0.213-3.484,1.896-4.104,2.217c-0.622,0.325-5.451,2.837-6.105,3.143c-0.671,0.304-3.783,1.816-4.279,2.065
		c-0.5,0.213-0.804,0.388-1.283,0.453C86.714,72.731,85.623,72.757,84.646,72.77 M94.817,75.891
		c-0.921,0.17-2.833,0.487-3.237,0.503c-0.375,0.034-0.912,0.034-1.229-0.324c-0.328-0.333-0.506-0.857-0.95-1.079
		c-0.441-0.207-0.725-0.351-1.013-0.316c-0.592,0.097-0.633-0.126-0.633-0.126s3.771-1.902,4.316-2.119
		c0.583-0.255,6.204-3.129,6.912-3.538c0.737-0.399,4.861-2.638,5.731-3.116c0.896-0.503,2.135-1.157,2.316-1.307
		c0.188-0.11,0.35-0.313,0.584-0.381c0.267-0.086,0.417-0.112,0.417-0.112s0.365,0.468,0.537,0.696
		c0.212,0.229,0.646,0.68,1.149,0.746c0.501,0.066,0.737,0.074,1.051,0.054c0.291-0.017,0.846-0.142,0.846-0.142
		s-1.371,1.292-1.601,1.479c-0.249,0.22-3.245,2.666-3.833,3.194c-0.6,0.518-2.778,2.233-3.266,2.601
		c-0.491,0.4-2.063,1.579-2.4,1.75c-0.354,0.188-1.229,0.516-1.756,0.648C98.217,75.157,95.717,75.694,94.817,75.891
		 M108.062,76.994c-0.166,0.125-0.658,0.038-0.953-0.141c-0.362-0.23-0.706-0.05-1.176,0.058c-0.453,0.121-1.271,0.371-1.823,0.495
		c-0.467,0.131-1.792,0.421-2.135,0.421c-0.334,0-0.727-0.041-0.941-0.249c-0.203-0.259-0.683-0.774-0.929-0.888
		c-0.242-0.109-0.537-0.167-0.679-0.109c-0.138,0.092-0.665,0.413-0.751,0.172c0,0,2.039-1.496,2.476-1.866
		c0.452-0.346,2.293-1.796,2.771-2.197c0.51-0.399,2.67-2.153,3.316-2.687c0.671-0.532,2.632-2.215,3.149-2.67
		c0.524-0.476,1.529-1.441,1.529-1.441s0.071,0.383,0.249,0.563c0.175,0.101,0.41,0.433,0.858,0.633
		c0.413,0.15,1.013,0.184,1.426,0.171c0.441-0.021,0.843-0.058,1.004-0.058c0.184,0,0.454,0.07,0.454,0.365
		c0.012,0.255,0.045,0.472,0.045,0.597c0,0.146,0.038,0.262,0.038,0.262l-3.017,3.347c-0.587,0.658-2.278,2.482-2.824,3.037
		C109.602,75.37,108.212,76.86,108.062,76.994 M131.293,101.5l-0.421,0.708l-0.381-0.178c0,0,0.269-0.227,0.177-0.442
		c-0.112-0.192-0.229-0.409-0.551-0.559c-0.291-0.166-1.645-0.716-2.245-1.021c-0.592-0.267-3.152-1.667-4.087-2.254
		c-0.93-0.625-3.191-2.184-4.287-3.045c-1.041-0.871-3.362-3.134-4.141-3.996c-0.768-0.85-2.384-2.962-2.858-3.732
		c-0.512-0.737-1.9-3.274-2.208-3.954c-0.275-0.671-0.441-1.1-0.73-1.371c-0.273-0.271-0.357-0.329-0.478-0.329
		c-0.119-0.029-0.399-0.037-0.399-0.037s-0.089-0.217-0.234-0.667c-0.117-0.345-0.229-0.684-0.229-0.684s0.625,0.775,0.996,0.763
		c0.403-0.025,0.55-0.129,0.719-0.157c0.151-0.063,0.521-0.079,0.663,0.011c0.15,0.067,0.358,0.339,0.354,0.584
		c-0.017,0.246,0.108,0.788,0.304,1.172c0.204,0.454,1.063,2.195,1.547,2.995c0.499,0.808,1.929,2.85,2.528,3.569
		c0.62,0.722,2.628,2.941,3.149,3.417c0.529,0.433,3.199,2.646,4.15,3.291c0.95,0.646,3.229,2.133,4.607,2.817
		c1.362,0.674,3.065,1.458,3.521,1.666c0.446,0.157,0.729,0.199,0.825,0.329c0.074,0.138,0.225,0.262,0.225,0.262L131.293,101.5z
		 M132.131,100c-0.038,0.101-0.171,0.083-0.209,0c-0.066-0.092,0.171-0.354,0.171-0.658c0-0.342-0.171-0.799-0.362-0.979
		c-0.173-0.188-0.712-0.438-1.013-0.58c-0.313-0.138-1.745-0.816-2.475-1.19c-0.733-0.38-2.198-1.226-3.146-1.863
		c-0.945-0.603-2.221-1.47-3.065-2.116c-0.797-0.679-1.972-1.699-2.685-2.399c-0.733-0.708-1.915-2.038-2.684-3.025
		c-0.757-0.985-1.735-2.313-2.244-3.249c-0.542-0.954-1.086-2.1-1.267-2.3c-0.18-0.18-0.439-0.5-0.813-0.646
		c-0.378-0.1-0.595-0.195-0.762-0.2c-0.171,0-0.467,0-0.492-0.15c-0.024-0.116,0-0.203,0-0.203s0.567-0.034,0.993-0.217
		c0.455-0.184,1.685-0.529,2.174-0.663c0.488-0.121,1.063-0.388,1.313-0.441c0.237-0.075,0.416-0.143,0.57-0.121
		c0.146,0.038,0.229,0.121,0.398,0.342c0.156,0.233,0.368,0.733,0.571,0.904c0.235,0.196,0.56,0.488,1.021,0.433
		c0.468-0.054,0.941-0.104,1.33-0.249c0.358-0.162,1.074-0.625,1.25-0.733c0.146-0.071,0.379-0.241,0.462-0.166
		c0.088,0.086,0.188,0.241,0.324,0.274c0.11,0.034,0.264,0.175,0.329,0.305c0.063,0.116,1.093,1.599,1.638,2.274
		c0.546,0.666,1.362,1.595,1.934,2.125c0.563,0.524,2.17,1.945,2.804,2.399c0.662,0.453,2.529,1.708,3.36,2.153
		c0.848,0.429,1.866,0.987,2.673,1.33c0.82,0.337,1.694,0.687,1.916,0.795c0.254,0.125,0.334,0.229,0.483,0.388
		c0.179,0.111,0.279,0.279,0.188,0.454c-0.044,0.158-0.925,1.503-1.291,2.199c-0.388,0.688-1.067,1.804-1.38,2.306
		c-0.255,0.485-0.999,1.678-1.187,2.082C132.73,99,132.159,99.901,132.131,100 M137.059,101.662
		c-0.149,0.384-0.616,1.513-0.774,1.833c-0.138,0.284-0.249,0.575-0.249,0.575l-0.613,0.196c0,0,0.175-0.267,0.067-0.403
		c-0.109-0.15-0.41-0.459-0.598-0.468c-0.182-0.028-0.42,0.029-0.645,0.1c-0.258,0.097-0.579,0.097-0.68-0.1
		c-0.124-0.232-0.454-0.816-0.474-0.966c-0.034-0.167-0.134-0.38,0.02-0.67c0.158-0.318,1.226-2.3,1.45-2.676
		c0.245-0.351,1.482-2.441,1.771-2.954c0.263-0.508,0.962-1.68,1.09-1.94c0.136-0.264,0.219-0.451,0.127-0.676
		c-0.111-0.195-0.111-0.3-0.216-0.362c-0.122-0.042-0.321-0.066-0.321-0.066l0.629-1.059c0,0,0.362,0.096,0.684,0.096
		c0.35,0,0.712-0.013,1.099,0.096c0.397,0.121,0.941,0.416,0.996,0.634c0.097,0.233-0.104,0.624-0.331,1.162
		c-0.231,0.484-1.294,3.333-1.564,3.933C138.284,98.543,137.213,101.297,137.059,101.662 M142.145,101.947
		c-0.086,0.444-0.406,1.916-0.519,2.239c-0.084,0.343-0.301,0.947-0.319,0.992c-0.049,0.071-0.506,0.35-0.631,0.38
		c-0.115,0.036-0.271,0.115-0.271,0.115s0.184-0.24,0.113-0.424c-0.066-0.154-0.253-0.338-0.492-0.338
		c-0.25,0-0.543,0.184-0.736,0.12c-0.188-0.049-0.493-0.178-0.726-0.72c-0.237-0.533-0.25-0.63-0.164-1.046
		c0.08-0.43,1.083-2.828,1.31-3.416c0.216-0.575,1.149-2.958,1.358-3.525c0.239-0.566,0.559-1.329,0.524-1.569
		c-0.016-0.214-0.196-0.608-0.295-0.713c-0.122-0.117-0.271-0.2-0.351-0.167c-0.083,0.013-0.146-0.046-0.146-0.046l0.328-0.889
		c0,0,0.497,0.061,0.721,0.061c0.23,0,0.625-0.061,1.051,0.065c0.471,0.08,0.995,0.162,1.054,0.351
		c0.063,0.229,0.144,0.421,0.055,0.838c-0.113,0.42-0.905,3.625-1.017,4.203C142.85,98.997,142.242,101.529,142.145,101.947
		 M147.449,96.81c-0.05,0.491-0.346,3.813-0.346,4.116s-0.08,1.754-0.121,2.237c-0.037,0.351-0.165,1.271-0.199,1.603
		c-0.025,0.33-0.217,0.921-0.217,0.997c0,0.07-0.041,0.153-0.041,0.153s-0.597,0.518-0.817,0.622
		c-0.212,0.092-0.212-0.125-0.342-0.251c-0.138-0.117-0.328-0.153-0.649-0.32c-0.295-0.121-0.763-0.588-0.991-0.916
		c-0.209-0.343-0.285-0.647-0.146-1.188c0.138-0.551,0.604-2.422,0.751-3.101c0.133-0.68,0.591-2.554,0.728-3.203
		c0.15-0.667,0.422-1.699,0.422-2.063c0-0.369-0.113-0.703-0.321-0.874c-0.196-0.179-0.237-0.209-0.35-0.258
		c-0.133-0.051-0.271-0.108-0.271-0.108l0.155-0.708c0,0,0.48,0,0.724-0.019c0.226-0.016,0.441-0.054,0.816-0.041
		c0.376,0,0.684,0,0.946,0.096c0.286,0.104,0.516,0.246,0.471,0.718C147.615,94.729,147.483,96.368,147.449,96.81 M119.467,70.5
		c0-11.979,12.963-22.558,30.104-22.558c17.151,0,30.129,10.579,30.129,22.558c0,12.031-12.978,22.594-30.129,22.594
		C132.43,93.094,119.467,82.531,119.467,70.5 M134.784,41.761c-0.292-0.213-0.741-0.513-1.055-0.55
		c-0.334-0.034-0.424,0.016-0.604-0.041c-0.153-0.06-0.396-0.267-0.396-0.267s0.799-0.321,1.138-0.438
		c0.345-0.149,1.879-0.687,2.931-0.972c1.022-0.312,2.122-0.569,3.425-0.837c1.322-0.254,3.255-0.546,4.814-0.712
		c1.528-0.142,3.545-0.3,4.74-0.267c1.176,0,3.917,0.166,5.037,0.297c1.101,0.136,3.278,0.382,4.578,0.682
		c1.3,0.288,3.729,0.893,4.792,1.255c1.063,0.396,2.354,0.77,2.487,0.903c0.129,0.146,0.274,0.296,0.476,0.362
		c0.175,0.085,0.391,0.222,0.391,0.222s-0.519,0.588-0.893,1.191c-1.041,1.808,0.201,4.07,1.855,5.32
		c2.187,1.608,6.145,4.066,6.828,7.732c0.167,0.842,0.12,2.399,0.12,2.399s-0.332-0.371-0.521-0.569
		c-0.175-0.206-0.257-1.104-0.47-1.592c-0.221-0.497-0.983-1.521-1.438-2.014c-0.479-0.461-1.316-1.341-3.058-2.466
		c-1.625-1.041-3.291-1.945-5.083-2.633c-1.792-0.663-3.044-1.179-5.199-1.667c-2.137-0.475-4.938-0.934-7.984-1.059
		c-3.04-0.099-5.664,0.172-7.443,0.368c-1.764,0.236-4.263,0.69-6.569,1.49c-2.305,0.741-2.876,1.038-3.584,1.38
		c-0.746,0.337-2.479,1.22-3.107,1.653c-0.65,0.413-1.676,1.129-2.292,1.513c-0.624,0.404-0.75,0.716-1.124,0.625
		c-0.526-0.12-0.681-0.625-0.681-0.625s0.464-0.524,0.914-0.976c0.433-0.454,1.47-1.341,2.137-1.883
		c0.672-0.541,1.942-1.646,2.146-1.846c0.22-0.194,0.787-0.875,0.787-0.875s0.192,0.392,0.516,0.268
		c0.334-0.089,0.852-0.476,1.168-0.959c0.325-0.505,0.858-1.649,0.72-2.596C135.159,42.599,135.038,41.932,134.784,41.761
		 M204.993,46.352c-0.153-0.232-0.445-0.508-0.816-0.604c-0.379-0.13-1.916-0.251-2.471-0.242c-0.532,0.017-1.866,0.041-2.482,0.017
		c-0.646-0.017-1.213-0.12-1.471-0.258c-0.271-0.101-0.188-0.058-0.296-0.101c-0.2-0.067-0.337,0.063-0.337,0.063
		s-0.113-0.33-0.113-0.417c0-0.051,0.038-0.168,0.038-0.168s0.671,0.034,1.133-0.058c0.462-0.058,1.814-0.271,2.679-0.391
		c0.862-0.15,2.521-0.426,3.054-0.546c0.556-0.101,1.222-0.209,1.451-0.101c0.212,0.083,0.387,0.304,0.411,0.551
		c0.037,0.224,0.209,0.753,0.292,0.937c0.059,0.217,0.221,0.551,0.199,0.649c-0.05,0.113-0.32,0.467-0.516,0.626
		c-0.212,0.184-0.675,0.65-0.675,0.65S205.144,46.586,204.993,46.352 M197.178,46.685c0.388,0.063,2.138,0.276,2.837,0.375
		c0.68,0.134,2.529,0.376,3.071,0.441c0.524,0.063,1.319,0.029,1.583,0.089c0.454,0.095,0.371,0.516,0.404,0.774
		c0.05,0.271,0.095,0.716,0.059,0.816c-0.05,0.101-0.292,0.354-0.563,0.566c-0.233,0.2-0.509,0.325-0.658,0.421
		c-0.149,0.092,0.05-0.354-0.112-0.516c-0.113-0.113-0.367-0.223-0.787-0.301c-0.4-0.091-1.071-0.25-1.442-0.321
		c-0.395-0.074-1.929-0.396-2.524-0.5c-0.604-0.12-1.291-0.178-1.687-0.362c-0.417-0.199-0.696-0.542-0.926-0.619
		c-0.225-0.113-0.508-0.159-0.508-0.159l-0.025-0.309c0,0,0.375-0.367,0.492-0.367C196.481,46.714,196.753,46.66,197.178,46.685
		 M202.314,53.368c-0.154-0.229-0.82-0.479-1.212-0.604c-0.442-0.113-1.671-0.497-2.353-0.701c-0.672-0.2-1.788-0.579-2.159-0.684
		c-0.384-0.107-0.843-0.212-1.092-0.384c-0.255-0.182-0.545-0.466-0.661-0.528c-0.109-0.066-0.41-0.107-0.41-0.107
		s-0.032-0.779,0.079-0.826c0.104-0.037,0.438,0.079,0.588,0.055c0.133-0.008,0.546-0.008,0.933,0.075
		c0.389,0.104,2.45,0.637,3.283,0.788c0.822,0.179,1.908,0.449,2.62,0.565c0.68,0.117,1.155,0.117,1.28,0.384
		c0.166,0.236,0.13,0.775,0.13,1.037c-0.01,0.275,0.07,0.879,0,0.968c-0.021,0.074-0.384,0.224-0.629,0.312
		c-0.243,0.104-0.355,0.149-0.355,0.149S202.483,53.584,202.314,53.368 M201.103,56.872c-0.096,0.096-0.246,0.128-0.528,0.158
		c-0.279,0.041-0.441,0.091-0.441,0.091s0.248-0.262,0.024-0.474c-0.247-0.242-0.317-0.321-0.847-0.559
		c-0.509-0.172-1.36-0.518-1.745-0.68c-0.383-0.125-2.007-0.891-2.471-1.042c-0.445-0.163-1.392-0.525-1.717-0.7
		c-0.333-0.187-0.467-0.249-0.57-0.383c-0.067-0.145-0.417-0.188-0.417-0.188s0.07-0.266,0.121-0.555
		c0.034-0.282-0.025-0.457,0.075-0.479c0.087-0.041,0.271,0.083,0.472,0.034c0.215-0.013,0.432-0.034,0.564,0.066
		c0.172,0.096,0.884,0.334,1.251,0.461c0.354,0.14,2.246,0.822,2.87,1.046c0.616,0.234,1.733,0.676,2.248,0.813
		c0.473,0.188,0.822,0.235,1.002,0.389c0.18,0.179,0.35,0.424,0.32,0.749c-0.007,0.346,0.042,0.397-0.096,0.58
		c-0.111,0.167-0.131,0.204-0.178,0.283C201.028,56.605,201.174,56.783,201.103,56.872 M198.382,59.537
		c-0.101,0.097-0.384,0.101-0.575,0.167c-0.179,0.066-0.366,0.066-0.366,0.066s0.166-0.108,0.125-0.299
		c-0.038-0.175-0.188-0.42-0.521-0.509c-0.371-0.092-0.771-0.096-1.08-0.188c-0.296-0.066-0.566-0.209-1.049-0.475
		c-0.488-0.259-1.458-0.866-1.975-1.12c-0.503-0.264-1.434-0.775-1.767-0.979c-0.313-0.196-0.438-0.296-0.616-0.351
		c-0.163-0.055-0.367-0.062-0.477-0.033c-0.111,0.033-0.459-0.063-0.459-0.063s0.451-0.033,0.534-0.208
		c0.102-0.196,0.063-0.646,0.102-0.841c0.03-0.201,0.02-0.306,0.086-0.317c0.092-0.021,0.315,0.116,0.53,0.13
		c0.211,0.013,0.466,0,0.816,0.188c0.357,0.166,1.833,0.962,2.587,1.299c0.788,0.329,2.321,1.125,2.812,1.303
		c0.467,0.181,1.25,0.46,1.372,0.714c0.104,0.2,0.178,0.4,0.028,0.646c-0.123,0.199-0.209,0.329-0.163,0.449
		C198.367,59.284,198.49,59.45,198.382,59.537 M193.404,61.605c-0.293-0.155-0.664-0.181-1.014-0.288
		c-0.32-0.109-0.904-0.509-1.242-0.763c-0.345-0.267-1.22-0.934-1.623-1.204c-0.417-0.299-1.014-0.787-1.299-0.929
		c-0.306-0.113-0.844-0.222-1.169-0.243c-0.304-0.011-0.678,0.021-0.725,0c-0.076-0.011-0.162,0.343-0.313,0.243
		c-0.129-0.121-0.187-0.134-0.341-0.243c-0.176-0.09-0.192-0.137-0.192-0.137l0.017-0.321c0,0,0.226-0.073,0.508-0.073
		c0.279,0,0.534,0.032,0.858-0.085c0.316-0.128,0.316-0.09,0.513-0.213c0.208-0.137,0.309-0.169,0.538-0.319
		c0.207-0.113,0.153-0.304,0.274-0.325c0.138,0,0.538-0.058,0.646,0c0.129,0.078,0.966,0.755,1.447,1.054
		c0.494,0.283,1.997,1.204,2.556,1.554c0.551,0.35,1.407,0.797,1.662,1.055c0.283,0.254,0.458,0.366,0.447,0.601
		c-0.01,0.24-0.196,0.399-0.292,0.581c-0.096,0.181-0.083,0.355-0.155,0.521c-0.07,0.113-0.111,0.272-0.111,0.272l-0.692,0.133
		c0,0,0.191-0.154,0.146-0.342C193.824,61.955,193.703,61.771,193.404,61.605 M190.039,64.183c-0.151-0.107-0.481-0.308-0.816-0.467
		c-0.353-0.183-0.869-0.632-1.302-0.966c-0.413-0.317-1.541-1.383-1.771-1.612c-0.258-0.237-1.04-0.883-1.236-0.971
		c-0.196-0.096-0.771-0.179-0.984-0.213c-0.208-0.054-0.524-0.133-0.524-0.133s-0.134,0.246-0.2,0.246
		c-0.154,0-0.117-0.021-0.117-0.021s0.02,0-0.111-0.107c-0.112-0.117-0.221-0.242-0.221-0.242s0.042-0.113,0.058-0.292
		c0.027-0.149,0.051-0.365,0.153-0.353c0.084,0,0.476,0.219,0.755,0.219c0.283,0,0.313-0.057,0.313-0.057s0.142-0.251,0.488-0.321
		c0.337-0.059,0.475-0.076,0.576-0.076c0.123,0,0.294-0.041,0.647,0.121c0.355,0.137,1.363,0.979,1.738,1.264
		c0.383,0.295,1.911,1.507,2.328,1.853c0.447,0.343,0.925,0.671,1.063,0.784c0.133,0.128,0.55,0.55,0.466,0.733
		c-0.109,0.188-0.32,0.403-0.379,0.583c-0.032,0.203-0.054,0.482-0.087,0.583c-0.037,0.121-0.275,0.163-0.38,0.159
		c-0.121-0.021-0.456-0.038-0.456-0.038s0.182-0.133,0.239-0.267C190.323,64.468,190.221,64.338,190.039,64.183 M186.38,66.034
		c-0.209-0.143-0.463-0.267-0.825-0.46c-0.334-0.183-0.613-0.433-0.88-0.716c-0.237-0.292-0.804-1.041-1.087-1.366
		c-0.275-0.309-0.96-1.171-1.238-1.459c-0.341-0.304-0.658-0.583-1.042-0.666c-0.398-0.063-0.49-0.096-0.582-0.096
		c-0.104,0-0.237,0.242-0.204,0.32c0.017,0.067-0.17-0.078-0.32-0.288c-0.164-0.24-0.575-0.866-0.575-0.866s0.62,0.213,0.949,0.213
		c0.367,0,0.63,0.021,0.72-0.013c0.043-0.017,0.212-0.283,0.539-0.366c0.357-0.096,0.684-0.033,1.006,0.184
		c0.339,0.266,1.99,1.929,2.23,2.142c0.246,0.224,1.31,1.278,1.625,1.573c0.337,0.305,0.873,0.838,0.979,1.051
		c0.085,0.233,0.134,0.4,0.055,0.528c-0.07,0.098-0.2,0.193-0.245,0.347c-0.063,0.126-0.076,0.459-0.159,0.546
		c-0.086,0.113-0.188,0.216-0.423,0.216c-0.234,0-0.473-0.049-0.473-0.049s0.263-0.117,0.263-0.275
		C186.691,66.391,186.616,66.133,186.38,66.034 M196.641,45.252c-0.113,0.166-0.101,0.378-0.101,0.433v0.159
		c0,0-0.108,0.059-0.225,0.149c-0.108,0.079-0.662,0.384-0.662,0.384s0-0.117-0.095-0.317c-0.093-0.216-0.409-0.391-0.639-0.441
		c-0.221-0.071-1.07-0.112-1.43-0.121c-0.366-0.012-1.211-0.049-1.585-0.079c-0.331-0.016-0.51-0.07-0.665-0.07
		c-0.154,0-0.295,0.013-0.416,0.101c-0.146,0.099-0.191,0.221-0.271,0.224c-0.097,0.013-0.23-0.003-0.295-0.003
		c-0.067,0-0.185,0.087,0.02,0.275c0.296,0.315,0.775,0.366,1.176,0.407c0.407,0.06,0.984,0.167,1.416,0.247
		c0.442,0.07,1.013,0.182,1.382,0.27c0.376,0.093,0.726,0.093,0.877,0.1c0.124,0.051,0.337,0.134,0.337,0.26
		c-0.028,0.125-0.05,0.261-0.089,0.387c-0.049,0.1-0.049,0.304-0.041,0.404c0.025,0.128-0.008,0.208-0.108,0.262
		c-0.099,0.072-0.512,0.205-0.616,0.267c-0.104,0.047-0.279,0.033-0.279,0.033s0.063-0.267,0-0.313
		c-0.054-0.066-0.188-0.233-0.508-0.325c-0.3-0.095-1.15-0.316-1.532-0.394c-0.387-0.067-1.061-0.26-1.509-0.343
		c-0.438-0.092-0.744-0.238-0.863-0.104c-0.124,0.117-0.166,0.212-0.267,0.212c-0.066,0.029-0.183-0.024-0.267,0.039
		c-0.087,0.095-0.208,0.196-0.112,0.282c0.076,0.108,0.362,0.283,0.654,0.384c0.292,0.128,1.283,0.362,1.683,0.512
		c0.446,0.112,1.188,0.426,1.575,0.518c0.396,0.074,0.817,0.2,0.891,0.43c0.076,0.203,0.067,0.415-0.073,0.558
		c-0.154,0.133-0.18,0.316-0.23,0.366c-0.024,0.1-0.096,0.309-0.096,0.309s-0.35,0.25-0.438,0.274l-0.349,0.15
		c0,0,0.121-0.175,0-0.446c-0.132-0.287-0.452-0.429-0.896-0.646c-0.403-0.194-1.278-0.509-1.599-0.638
		c-0.321-0.124-1.396-0.541-1.654-0.646c-0.229-0.066-0.515-0.166-0.746-0.134c-0.236,0.067-0.337,0.205-0.283,0.313
		c0.075,0.108,0.241,0.162,0.241,0.309c0,0.116,0,0.236-0.058,0.286c-0.07,0.005-0.088,0.035-0.088,0.035s0.546,0.382,0.934,0.553
		c0.392,0.196,1.333,0.658,1.582,0.813c0.23,0.117,1.018,0.487,1.185,0.617c0.184,0.129,0.563,0.35,0.485,0.533
		c-0.069,0.183-0.132,0.479-0.148,0.566c-0.037,0.1,0.017,0.18-0.146,0.25c-0.159,0.062-0.77,0.229-0.77,0.229s0-0.134-0.042-0.229
		c-0.025-0.092-0.151-0.25-0.492-0.446c-0.313-0.166-1.458-0.853-1.775-1.018c-0.287-0.137-1.032-0.553-1.208-0.69
		c-0.154-0.146-0.57-0.487-0.721-0.567c-0.146-0.062-0.435-0.229-0.621-0.023c-0.166,0.145-0.236,0.466-0.153,0.569
		c0.104,0.126,0.33,0.313,0.33,0.313s-0.193,0.157-0.165,0.233c0.019,0.083,0.563,0.45,0.95,0.732
		c0.38,0.31,1.426,0.991,1.689,1.167c0.258,0.184,0.823,0.546,1.003,0.695c0.163,0.168,0.221,0.313,0.087,0.479
		c-0.141,0.104-0.175,0.3-0.175,0.3s0.009,0.171,0.009,0.254c0,0.113-0.022,0.18-0.022,0.18s-0.078,0.083-0.297,0.125
		c-0.218,0.021-0.531,0.058-0.531,0.058s-0.062-0.128-0.054-0.249c0.013-0.167-0.121-0.264-0.359-0.454
		c-0.254-0.213-1.041-0.784-1.44-1.076c-0.396-0.277-1.158-0.795-1.346-0.985c-0.179-0.164-0.506-0.659-0.691-0.817
		c-0.188-0.139-0.43-0.301-0.638-0.23c-0.212,0.092-0.454,0.247-0.479,0.451c-0.021,0.184-0.067,0.358,0.083,0.444
		c0.116,0.085,0.288,0.196,0.288,0.268c0,0.038-0.196,0.117-0.155,0.238c0.051,0.111,0.726,0.629,1.033,0.879
		c0.337,0.283,1.392,1.103,1.654,1.32c0.283,0.255,0.763,0.688,0.816,0.929c0.08,0.188,0.038,0.566-0.045,0.699
		c-0.08,0.104-0.292,0.152-0.521,0.181c-0.221,0.058-0.508,0.083-0.508,0.083s0.112-0.237,0.045-0.35
		c-0.045-0.108-0.495-0.392-0.838-0.676c-0.337-0.274-1.374-1.162-1.77-1.483c-0.379-0.315-0.784-0.716-0.905-0.999
		c-0.153-0.271-0.379-0.67-0.695-0.67c-0.345,0-0.666,0.066-0.865,0.324c-0.196,0.267-0.196,0.55-0.051,0.667
		c0.152,0.111,0.42,0.279,0.337,0.328l-0.299,0.181c0,0,0.299,0.169,0.712,0.533c0.454,0.375,1.236,1.02,1.534,1.291
		c0.315,0.291,0.903,0.866,1.02,0.958c0.096,0.104,0.283,0.388,0.271,0.601c-0.016,0.241-0.07,0.503-0.12,0.62
		c-0.079,0.124,0.021,0.184-0.15,0.275c-0.167,0.086-0.483,0.086-0.584,0.086c-0.111,0-0.203-0.045-0.203-0.045
		s0.254-0.192,0.241-0.296c-0.024-0.088-0.346-0.441-0.6-0.653c-0.2-0.2-1.332-1.15-1.738-1.53c-0.42-0.383-1.004-0.97-1.153-1.307
		c-0.12-0.385-0.12-0.813-0.333-1.127c-0.213-0.303-0.7-0.665-0.883-0.982c-0.238-0.321-0.935-1.388-1.263-2.058
		c-0.334-0.658-0.684-1.175-0.758-1.767c-0.076-0.551-0.013-0.922-0.134-1.104c-0.083-0.17-0.317-0.459-0.417-0.459
		c-0.127,0-0.512-0.041-0.512-0.041s0.249-0.403,0.929-0.87c0.619-0.396,1.572-0.816,2.162-1.005
		c0.595-0.178,2.768-0.675,3.74-0.766c1.006-0.084,3.655-0.092,4.521-0.113c0.863-0.008,2.538,0.029,3.071,0.021
		c0.584-0.021,1.366,0,1.95,0c0.6,0,1.732-0.021,2.078-0.021c0.376,0,1.063-0.042,1.254,0.021c0.214,0.045,0.572,0.104,0.613,0.254
		C196.674,44.948,196.732,45.081,196.641,45.252 M180.1,56.679c0.252,0.193,0.718,0.502,0.852,0.58
		c0.157,0.067,0.715,0.646,0.858,0.83c0.161,0.179,0.54,0.521,0.497,0.728c-0.006,0.223-0.182,0.805-0.303,0.917
		c-0.142,0.163-0.338,0.334-0.497,0.338c-0.169,0-0.46-0.025-0.46-0.025s0.358-0.107,0.358-0.275c0-0.137-0.067-0.271-0.339-0.544
		c-0.249-0.264-0.354-0.359-0.642-0.755c-0.262-0.35-0.503-0.754-0.503-0.754l-0.185,0.05l-0.203,0.036c0,0-0.083-0.623-0.129-0.986
		c-0.092-0.333-0.211-0.621-0.264-0.799c-0.074-0.214-0.17-0.551-0.17-0.551S179.867,56.484,180.1,56.679 M179.313,61.466
		l0.037-0.258c0,0,0.433,0.555,0.559,0.726c0.138,0.158,0.579,0.517,0.712,0.737c0.196,0.199,0.938,1.166,1.241,1.612
		c0.318,0.421,1.188,1.608,1.38,1.85c0.149,0.222,0.642,0.904,0.629,1.104c-0.059,0.213-0.092,0.454-0.179,0.655
		c-0.104,0.194-0.2,0.415-0.301,0.441c-0.079,0.003-0.579,0.02-0.579,0.02s0.142-0.191,0.142-0.299c0-0.121-0.217-0.483-0.513-0.626
		c-0.287-0.158-0.87-0.492-1.004-0.625c-0.13-0.162-0.553-1.212-0.725-1.592c-0.225-0.449-0.625-1.204-0.886-1.558
		c-0.239-0.35-0.389-0.717-0.489-0.755c-0.092-0.029-0.058,0.054-0.196,0.066c-0.153,0.021-0.266-0.066-0.266-0.066
		s0.23-0.516,0.266-0.732C179.167,61.941,179.28,61.567,179.313,61.466 M188.578,79.623c-0.337-0.24-0.841-0.45-1.22-0.604
		c-0.358-0.142-1.172-0.393-1.692-0.617c-0.508-0.191-0.808-0.358-0.991-0.575c-0.279-0.29-0.804-1.29-1.122-1.856
		c-0.298-0.567-1.203-2.297-1.448-2.742c-0.242-0.472-0.343-0.721-0.379-1.017c-0.05-0.284-0.06-1.305-0.154-1.575
		c-0.096-0.237-0.384-0.729-0.575-0.851c-0.179-0.161-0.237-0.182-0.337-0.229c-0.07-0.051-0.353-0.134-0.353-0.134
		s-0.032-0.371-0.032-0.433c0-0.092-0.028-0.196-0.028-0.196s0.705,0.07,1.108,0.07c0.434,0,0.8-0.041,0.995,0
		c0.168,0.034,0.405,0,0.577,0.226c0.19,0.216,0.277,0.591,0.386,0.816c0.059,0.234,1.362,2.08,1.592,2.362
		c0.205,0.271,1.166,1.566,1.559,2.084c0.416,0.533,1.532,1.987,1.861,2.415c0.321,0.406,0.987,1.093,1.146,1.33
		c0.166,0.255,0.592,0.843,0.654,0.987c0.087,0.138-0.097,0.32-0.196,0.459c-0.108,0.12-0.292,0.362-0.492,0.563
		c-0.19,0.171-0.479,0.407-0.575,0.438c-0.067,0.028,0.032-0.238,0.047-0.376C188.94,80.024,188.842,79.837,188.578,79.623
		 M181.438,80.119c-0.13-0.171-0.379-0.425-0.679-0.559c-0.304-0.154-0.892-0.475-0.95-0.65c-0.071-0.199-0.081-0.37,0.059-0.737
		c0.208-0.495,0.18-0.954,0.092-1.328c-0.092-0.379-0.15-0.488-0.222-0.604c-0.066-0.146-0.216-0.237-0.216-0.237
		s0.237-0.846,0.287-1.054l0.18-0.738c0,0,0.445,0.747,0.63,1.014c0.171,0.271,0.591,0.836,0.807,1.271
		c0.198,0.416,0.876,1.496,1.038,1.858c0.175,0.353,0.417,0.683,0.377,1.07c-0.027,0.379-0.349,0.837-0.436,1.004
		c-0.104,0.184-0.104,0.366-0.346,0.541c-0.225,0.2-0.608,0.242-0.608,0.242s0.241-0.229,0.275-0.417
		C181.726,80.573,181.559,80.266,181.438,80.119 M180.618,81.591c0.429,0.065,0.689,0.099,1.144,0.07
		c0.419-0.021,0.588-0.083,0.813-0.371c0.223-0.259,0.476-0.717,0.579-0.971c0.117-0.233,0.251-0.559,0.251-0.559
		s0.524,0.217,0.862,0.358l1.588,0.541c0.437,0.139,1.065,0.263,1.298,0.441c0.255,0.188,0.311,0.321,0.302,0.505
		c-0.034,0.172-0.196,0.62-0.362,0.967c-0.165,0.316-0.801,1.633-1.021,2.087c-0.266,0.421-1.262,2.033-1.767,2.754
		c-0.516,0.746-2.149,2.771-2.766,3.351c-0.587,0.591-1.329,1.345-1.779,1.574c-0.445,0.229-1.149,0.362-1.638,0.646l-2.49,1.558
		c-0.646,0.41-1.589,0.967-2.263,1.318c-0.676,0.353-2.354,1.183-2.864,1.44c-0.494,0.233-1.198,0.533-1.519,0.695
		c-0.321,0.134-0.601,0.267-0.862,0.229c-0.26-0.012-0.438-0.178-0.546-0.391c-0.126-0.2-0.931-1.604-1.226-2.125
		c-0.292-0.554-1.424-2.479-1.642-2.824c-0.237-0.354-0.337-0.529-0.84-0.729c-0.34-0.121-0.438-0.175-0.601-0.175
		c-0.181,0-0.267,0.028-0.515-0.047c-0.169-0.055-0.259-0.251-0.259-0.251s1.123-0.398,1.635-0.674
		c0.492-0.213,1.492-0.62,2.138-0.928c0.654-0.321,2.417-1.289,3.183-1.751c0.75-0.483,1.716-1.155,2.5-1.8
		c0.788-0.675,2.054-1.843,2.583-2.325c0.499-0.499,1.7-1.9,2.05-2.449c0.384-0.529,1.004-1.491,1.004-1.491l1.354,0.688
		C179.538,81.257,180.201,81.511,180.618,81.591 M151.974,105.209c-0.025,0.274-0.025,0.604-0.025,0.604s-0.774,0.778-0.994,0.986
		c-0.246,0.218-1.146,0.972-1.146,0.972s0.147-0.375,0.279-0.55c0.125-0.155,0.226-0.422,0.134-0.588
		c-0.084-0.146-0.763-0.867-0.989-1.038c-0.219-0.149-0.477-0.511-0.516-0.878c-0.037-0.313,0.134-2.588,0.255-3.558
		c0.079-0.959,0.195-3.112,0.261-3.851c0.08-0.736,0.176-1.625,0.042-1.941c-0.145-0.301-0.378-0.691-0.563-0.783
		c-0.21-0.086-0.489-0.171-0.489-0.171v-0.649c0,0,0.666,0.013,0.792-0.013c0.153-0.063,0.795-0.167,1.267-0.154
		c0.445,0.05,0.933,0.154,0.982,0.417c0.021,0.212,0.045,1.033,0.054,1.517c0.025,0.499,0.217,3.054,0.226,3.467
		c0.025,0.399,0.254,3.236,0.292,3.916C151.871,103.629,151.982,104.934,151.974,105.209 M157.148,105.392
		c-0.033,0.092-0.527,0.736-0.77,0.983c-0.255,0.242-1.126,1.338-1.126,1.338s-0.083-0.317,0.024-0.476
		c0.117-0.134,0.371-0.354,0.339-0.604c-0.038-0.232-0.276-0.695-0.492-0.883c-0.193-0.213-0.676-0.467-0.908-0.699
		c-0.188-0.205-0.312-0.384-0.379-0.935c-0.013-0.565-0.251-3.417-0.321-4.346c-0.071-0.953-0.267-3.554-0.329-3.948
		c-0.05-0.38-0.117-0.756-0.387-1.055c-0.276-0.226-0.521-0.366-0.684-0.403c-0.168-0.063-0.321-0.072-0.321-0.072l-0.028-0.541
		c0,0,0.645-0.083,0.896-0.154c0.242-0.067,0.902-0.2,1.332-0.2c0.371,0,0.75,0.092,0.821,0.354
		c0.055,0.226,0.162,0.925,0.208,1.245c0.059,0.313,0.771,3.346,0.854,3.768c0.066,0.433,0.87,3.72,0.971,4.165
		c0.079,0.496,0.35,1.621,0.337,1.896C157.165,105.084,157.198,105.3,157.148,105.392 M161.823,105.392
		c-0.237,0.358-1.034,1.429-1.034,1.429s-0.041-0.42,0.03-0.559c0.091-0.128,0.162-0.395,0.116-0.554
		c-0.058-0.171-0.227-0.612-0.487-0.82c-0.229-0.199-0.704-0.351-0.946-0.575c-0.241-0.242-0.357-0.313-0.541-1.034
		c-0.192-0.699-0.646-2.646-0.767-3.211c-0.163-0.604-0.767-3.312-0.9-3.854c-0.149-0.537-0.279-1.273-0.508-1.554
		c-0.209-0.258-0.638-0.646-0.829-0.695c-0.163-0.038-0.388-0.021-0.464-0.021c-0.064,0-0.178,0.021-0.178,0.021l-0.138-0.555
		c0,0,0.371,0.009,0.738-0.091c0.324-0.109,1.115-0.454,1.454-0.476c0.328-0.037,0.833-0.037,0.891,0.099
		c0.096,0.144,0.209,0.468,0.358,0.855c0.146,0.416,1.125,2.879,1.333,3.55c0.245,0.667,1.317,3.275,1.529,3.813
		c0.184,0.55,0.699,1.732,0.767,1.999c0.054,0.237,0.308,0.888,0.248,1.092C162.447,104.445,162.053,105.032,161.823,105.392
		 M167.766,102.763c-0.08,0.233-0.617,1.187-0.713,1.45c-0.139,0.241-0.646,1.141-0.646,1.141s-0.055-0.741-0.18-1.087
		c-0.129-0.379-0.279-0.604-0.546-0.771c-0.267-0.204-0.767-0.32-0.971-0.444c-0.199-0.159-0.379-0.3-0.616-0.788
		c-0.259-0.487-0.909-2.278-1.129-2.833c-0.245-0.634-1.084-2.712-1.366-3.379c-0.276-0.691-0.73-1.883-0.947-2.162
		c-0.219-0.292-0.758-0.68-0.937-0.692c-0.191-0.045-0.445-0.087-0.505-0.07c-0.065,0.021-0.28,0.025-0.28,0.025l-0.197-0.426
		c0,0,0.912-0.199,1.363-0.341c0.433-0.167,0.953-0.337,1.245-0.403c0.324-0.072,0.461-0.084,0.607,0.091
		c0.162,0.146,0.316,0.458,0.4,0.679c0.083,0.233,1.004,1.833,1.299,2.346c0.33,0.567,1.201,2.083,1.462,2.549
		c0.264,0.484,1.192,1.989,1.362,2.334c0.235,0.316,0.451,0.745,0.63,1.024c0.149,0.254,0.416,0.858,0.55,1.125
		C167.752,102.38,167.852,102.579,167.766,102.763 M190.449,81.123c-0.104,0.284-0.445,1.208-0.653,1.684
		c-0.251,0.503-0.976,1.941-1.259,2.434c-0.254,0.441-1.445,2.346-1.946,3.027c-0.49,0.668-1.973,2.497-2.449,3.018
		c-0.449,0.516-2.279,2.278-2.717,2.729c-0.467,0.399-3.662,2.521-4.272,2.911c-0.651,0.376-2.693,1.563-3.172,1.817
		c-0.473,0.275-1.942,0.972-2.413,1.213c-0.483,0.258-1.786,0.849-2.091,0.929c-0.321,0.059-0.679,0-0.975-0.038
		c-0.246-0.042-0.384-0.042-0.496-0.042c-0.079,0-0.467,0.047-0.467,0.047l-0.124-0.229c0,0,1.19-0.484,1.811-0.793
		c0.604-0.283,3.216-1.487,3.959-1.929c0.737-0.433,2.266-1.283,3.065-1.816c0.788-0.55,2.678-1.916,3.352-2.521
		c0.705-0.601,2.688-2.529,3.026-2.95c0.338-0.441,1.914-1.899,2.276-2.27c0.354-0.358,1.013-0.984,1.45-1.616
		c0.482-0.696,1.512-2.4,1.732-2.885c0.209-0.52,0.45-0.898,0.403-1.12c-0.032-0.191-0.07-0.411-0.137-0.417
		c-0.058-0.041-0.416-0.153-0.416-0.153l0.149-0.446c0.059-0.128,0.088-0.246,0.088-0.246s0.395,0.013,0.588-0.083
		c0.217-0.087,0.708-0.454,1.011-0.754c0.309-0.283,0.663-0.684,0.78-0.875c0.125-0.203,0.162-0.254,0.162-0.254
		s0.172,0.051,0.172,0.142C190.888,79.77,190.554,80.844,190.449,81.123 M197.515,78.457c-0.137,0.221-0.457,0.745-0.683,0.967
		c-0.232,0.199-0.725,0.554-0.725,0.554s0.166-0.354,0.134-0.524c-0.047-0.18-0.404-0.512-0.683-0.584
		c-0.255-0.112-1.396-0.379-1.894-0.547c-0.479-0.149-1.569-0.573-1.857-0.819c-0.3-0.221-1.587-1.767-1.913-2.146
		c-0.271-0.367-1.404-1.838-1.808-2.354c-0.396-0.489-1.266-1.73-1.732-2.334c-0.483-0.617-1.229-1.579-1.413-1.771
		c-0.212-0.2-0.235-0.295-0.42-0.408c-0.181-0.138-0.255-0.221-0.255-0.221l0.129-0.482c0.05-0.185,0.05-0.293,0.05-0.293
		s0.588,0.026,1.042-0.013c0.45-0.079,0.712-0.19,1.104-0.149c0.409,0.021,0.596,0.117,0.768,0.487
		c0.21,0.422,0.787,1.045,1.204,1.441c0.417,0.409,2.399,2.237,3.012,2.82c0.604,0.542,2.521,2.413,3.199,3.004
		c0.664,0.608,1.592,1.409,1.854,1.642c0.213,0.267,0.813,0.829,0.938,0.984C197.698,77.878,197.661,78.211,197.515,78.457
		 M207.165,76.623c-0.205,0.43-0.718,1.283-0.863,1.467c-0.13,0.191-0.492,0.537-0.667,0.684c-0.175,0.137-0.267,0.146-0.267,0.146
		s0.275-0.313,0.205-0.518c-0.037-0.191-0.154-0.496-0.491-0.69c-0.334-0.155-0.972-0.235-1.464-0.375
		c-0.483-0.085-2.311-0.542-3.044-0.756c-0.696-0.188-1.28-0.341-1.747-0.674c-0.42-0.333-1.57-1.4-2.153-1.946
		c-0.537-0.49-1.729-1.604-2.412-2.208c-0.68-0.616-2.063-1.912-2.541-2.379c-0.489-0.483-1.833-1.666-2.075-1.924
		c-0.222-0.284-0.784-0.809-0.954-0.959c-0.165-0.149-0.31-0.137-0.396-0.321c-0.101-0.136-0.034-0.396-0.013-0.444
		c0.041-0.092,0.099-0.222,0.099-0.222s0.647,0.063,0.93-0.021c0.263-0.066,0.858-0.212,1.033-0.212c0.2,0,0.543-0.071,0.88,0.079
		c0.315,0.133,1.145,0.604,1.575,0.953c0.439,0.338,2.218,1.733,2.777,2.142c0.56,0.4,3.246,2.309,3.813,2.691
		c0.521,0.384,2.967,1.995,3.621,2.404c0.658,0.387,1.881,1.12,2.466,1.461c0.612,0.355,1.25,0.692,1.45,0.889
		C207.104,76.061,207.331,76.24,207.165,76.623 M217.468,73.94c-0.144,0.292-0.454,1.153-0.585,1.43
		c-0.181,0.283-0.398,0.824-0.611,1.023c-0.224,0.188-0.329,0.297-0.441,0.33c-0.14,0.029-0.158,0.004-0.158,0.004
		s0.245-0.287,0.245-0.387c0-0.101-0.162-0.509-0.35-0.646c-0.175-0.154-0.45-0.254-0.666-0.254c-0.209,0-0.908,0-1.521-0.083
		c-0.661-0.063-1.7-0.2-2.482-0.367c-0.755-0.166-1.295-0.229-1.927-0.495c-0.645-0.284-2.044-1.046-2.799-1.466
		c-0.712-0.426-3.068-1.871-3.824-2.372c-0.684-0.467-4.066-2.857-4.582-3.229c-0.509-0.342-1.726-1.259-2.226-1.63
		c-0.474-0.382-1.191-0.94-1.463-1.073c-0.282-0.108-1.124-0.4-1.403-0.543c-0.262-0.096-0.578-0.194-0.68-0.391
		c-0.07-0.167-0.036-0.42-0.036-0.42s1.166-0.288,1.469-0.406c0.285-0.111,0.951-0.241,1.185-0.207
		c0.232,0.05,1.093,0.458,1.614,0.733c0.489,0.291,2.752,1.471,3.484,1.865c0.722,0.392,3.701,1.9,4.358,2.214
		c0.68,0.328,2.858,1.42,3.642,1.757c0.791,0.362,3.533,1.566,4.308,1.875c0.701,0.317,1.857,0.725,2.5,0.962
		c0.667,0.214,1.5,0.459,1.905,0.566c0.374,0.126,1.073,0.31,1.124,0.479C217.588,73.407,217.588,73.674,217.468,73.94
		 M228.3,69.604c-0.084,0.22-0.267,0.87-0.393,1.236c-0.157,0.384-0.35,0.912-0.562,1.146c-0.229,0.225-0.717,0.337-0.717,0.337
		s0.263-0.166,0.238-0.441c-0.049-0.225-0.126-0.362-0.321-0.476c-0.205-0.145-0.288-0.249-0.596-0.249
		c-0.271-0.034-0.996,0.045-1.546,0.066c-0.566,0.038-2.492,0.038-3.241,0.038c-0.759,0-1.512,0.062-2.079-0.009
		c-0.555-0.076-1.263-0.175-2.1-0.433c-0.888-0.243-3.036-1.018-4.005-1.41c-0.928-0.391-3.781-1.623-4.553-1.973
		c-0.743-0.352-3.587-1.751-4.517-2.227c-0.929-0.486-2.246-1.125-2.978-1.508c-0.722-0.399-2.293-1.254-2.685-1.463
		c-0.416-0.171-0.857-0.337-1.203-0.416c-0.34-0.063-0.838-0.258-0.997-0.312c-0.149-0.089-0.508-0.196-0.508-0.196l0.046-0.468
		c0,0,1.119-0.229,1.671-0.45c0.467-0.166,1.083-0.429,1.608-0.395c0.542,0.066,1.649,0.433,2.309,0.666
		c0.633,0.246,2.903,1.059,3.508,1.313c0.619,0.2,5.845,1.987,6.699,2.221c0.816,0.264,5.35,1.607,6.315,1.892
		c0.95,0.259,5.327,1.374,6.354,1.596c1.033,0.201,2.729,0.496,3.27,0.616c0.521,0.116,1.014,0.208,1.067,0.468
		C228.435,69.021,228.396,69.411,228.3,69.604 M238.46,65.566c-0.176,0.388-0.486,1.075-0.835,1.471
		c-0.343,0.413-0.592,0.729-0.822,0.855c-0.201,0.162-0.3,0.197-0.3,0.197s0.212-0.29,0.159-0.486
		c-0.047-0.2-0.355-0.458-0.646-0.499c-0.304-0.067-0.938-0.018-1.587-0.018c-0.633,0-2.51-0.087-4.137-0.332
		c-1.671-0.264-4.18-0.631-5.863-1.039c-1.7-0.408-4.099-0.99-5.816-1.466c-1.729-0.491-4.582-1.316-6.354-1.907
		c-1.807-0.626-4.11-1.375-5.093-1.722c-1.021-0.366-3.968-1.407-4.417-1.582c-0.459-0.193-0.767-0.264-1.116-0.293
		c-0.337-0.028-0.787,0.055-1.138,0c-0.361-0.037-0.804-0.162-0.99-0.225c-0.193-0.083-0.359-0.1-0.43-0.254
		c-0.097-0.166-0.043-0.283-0.043-0.283s0.587-0.029,0.879-0.096c0.288-0.072,0.979-0.218,1.296-0.313
		c0.313-0.103,0.426-0.166,0.467-0.316c0.009-0.17-0.041-0.611,0-0.804c0.046-0.167,0.143-0.38,0.143-0.38s0.668,0.159,0.933,0.188
		c0.295,0,1.245,0.183,1.638,0.282c0.399,0.102,4.887,1.222,5.616,1.438c0.704,0.166,5.845,1.404,6.7,1.599
		c0.895,0.15,5.086,1.088,6.026,1.267c0.943,0.214,7.171,1.367,8.221,1.547c1.009,0.137,4.575,0.712,5.404,0.787
		c0.842,0.078,2.065,0.221,2.324,0.287c0.212,0.063,0.462,0.168,0.392,0.45C239.016,64.351,238.678,65.17,238.46,65.566
		 M246.978,60.238c-0.105,0.316-0.267,0.917-0.438,1.129c-0.128,0.217-0.25,0.458-0.49,0.616c-0.26,0.108-0.339,0.146-0.339,0.146
		s0.164-0.358,0.079-0.546c-0.108-0.196-0.467-0.542-0.684-0.563c-0.21-0.034-1.025,0.134-1.544,0.207
		c-0.572,0.089-1.566,0.196-2.234,0.247c-0.666,0.038-1.537,0.116-1.971,0.108c-0.441-0.017-1.229-0.108-1.937-0.196
		c-0.696-0.116-3.287-0.471-4.229-0.621c-0.896-0.133-3.921-0.679-5.198-0.87c-1.251-0.259-5.762-1.15-6.626-1.362
		c-0.853-0.167-4.199-0.912-5.028-1.117c-0.845-0.188-4.49-1.049-5.321-1.25c-0.849-0.2-3.181-0.766-3.794-0.904
		c-0.646-0.162-1.912-0.465-2.274-0.544c-0.342-0.047-0.724-0.159-1.017-0.061c-0.288,0.061-0.921,0.242-1.1,0.321
		c-0.196,0.059-0.242,0.076-0.518,0.042c-0.316-0.042-0.482-0.224-0.482-0.224s0.637-0.181,0.982-0.364
		c0.35-0.138,0.883-0.295,1.066-0.582c0.168-0.268,0.196-0.325,0.179-0.534c-0.011-0.178-0.066-0.321-0.066-0.321
		s1.08,0.051,1.504,0.093c0.438,0.032,2.484,0.346,3.13,0.438c0.633,0.067,3.787,0.558,4.641,0.678
		c0.854,0.143,6.635,0.922,7.766,1.08c1.146,0.125,6.111,0.771,7.029,0.883c0.921,0.097,6.516,0.705,7.373,0.788
		c0.871,0.075,4.021,0.371,5.088,0.454c1.092,0.104,3.4,0.226,4.421,0.238c1.004,0.023,1.712-0.013,1.982,0.07
		c0.247,0.086,0.446,0.267,0.396,0.45C247.276,58.367,247.052,59.938,246.978,60.238 M253.78,54.172
		c-0.138,0.486-0.47,1.262-0.749,1.487c-0.238,0.213-0.605,0.396-0.605,0.396s0.14-0.317,0.053-0.484
		c-0.098-0.183-0.447-0.445-0.701-0.445c-0.238,0.009-1.705,0.396-2.425,0.458c-0.73,0.113-1.918,0.221-2.826,0.212
		c-0.903-0.007-2.965-0.099-4.045-0.175c-1.052-0.074-3.903-0.286-5.333-0.448c-1.424-0.151-5.328-0.576-7.132-0.784
		c-1.801-0.217-5.442-0.671-6.75-0.842c-1.263-0.162-5.445-0.716-6.574-0.896c-1.096-0.153-4.076-0.554-4.899-0.667
		c-0.847-0.146-3.417-0.513-4.145-0.629c-0.769-0.083-1.201-0.188-1.538-0.188c-0.338,0-0.583-0.033-0.987,0
		c-0.441,0.028-0.375,0.028-0.575,0.028c-0.175,0-0.226-0.007-0.438-0.028c-0.2-0.033-0.3-0.055-0.3-0.055s0.758-0.482,1.081-0.733
		c0.323-0.258,0.706-0.5,0.791-0.745c0.078-0.229,0.078-0.367,0.078-0.367s2.323,0.084,2.845,0.13
		c0.525,0.045,3.074,0.216,3.758,0.255c0.65,0.053,4.759,0.337,6.038,0.42c1.274,0.096,7.027,0.471,8.19,0.55
		c1.125,0.059,5.725,0.338,6.857,0.412c1.141,0.051,5.52,0.28,6.945,0.346c1.436,0.058,6.416,0.223,7.266,0.226
		c0.867,0.013,3.671,0.032,4.167,0.013c0.483-0.016,1.078-0.076,1.416-0.076c0.316,0,0.696,0.01,0.71,0.381
		C253.984,52.26,253.914,53.688,253.78,54.172 M259.365,48.185c0.011,0.26,0.131,0.601,0.061,0.68
		c-0.079,0.066-0.657,0.403-0.773,0.417c-0.122,0.059-0.264,0.083-0.264,0.083s0.116-0.196,0.024-0.367
		c-0.07-0.146-0.42-0.403-0.62-0.433c-0.234-0.034-0.533,0.029-0.971,0.195c-0.417,0.171-1.662,0.521-2.371,0.683
		c-0.721,0.146-1.029,0.238-2.23,0.283c-1.209,0.021-3.961,0.021-5.169-0.045c-1.178-0.063-4.679-0.146-6.349-0.225
		c-1.655-0.092-5.746-0.309-7.192-0.37c-1.439-0.056-5.827-0.326-6.882-0.393c-1.045-0.093-6.183-0.38-7.277-0.43
		c-1.049-0.096-6.416-0.433-7.3-0.521c-0.846-0.092-2.733-0.213-3.305-0.242c-0.57-0.02-1.374-0.111-1.683-0.188
		c-0.279-0.086-0.279-0.199-0.521-0.254c-0.241-0.032-0.562-0.041-0.562-0.041s0.644-0.708,0.804-0.887
		c0.175-0.205,0.358-0.46,0.445-0.489c0.143-0.024,0.551,0.026,0.821-0.057c0.346-0.138,2.549-0.089,3.167-0.138h5.554
		c0.898,0,6.669-0.088,7.632-0.085c0.962,0.039,5.137,0,6.203-0.016c1.054-0.046,6.217,0,7.445-0.07
		c1.233-0.025,7.657-0.07,8.736-0.096c1.055-0.037,6.024-0.104,6.92-0.146c0.902,0,2.696-0.021,3.271-0.071
		c0.563-0.049,1.062-0.096,1.283-0.066c0.22,0.018,0.241,0.247,0.321,0.367c0.037,0.138,0.353,1.138,0.504,1.604
		C259.238,47.301,259.347,47.901,259.365,48.185 M175.159,39.023c1.024-0.188,3.908-0.704,5.087-0.775
		c1.179-0.099,3.246-0.183,4.204-0.183c1.074,0,3.141,0.096,4.683,0.232c1.604,0.172,3.795,0.489,5.254,0.566
		c1.45,0.08,3.907,0.159,5.021,0.133c1.058-0.053,3.062-0.133,4.137-0.14c1.087,0,5.037-0.159,6.357-0.254
		c1.317-0.063,4.896-0.284,6.216-0.318c1.334-0.073,5.408-0.153,6.574-0.153c1.162,0,6.22,0.214,7.495,0.278
		c1.297,0.071,4.438,0.246,5.592,0.305c1.175,0.072,2.841,0.143,3.804,0.199c0.983,0.03,3.854-0.05,4.479-0.05
		c0.62,0,2.812-0.007,4.019-0.028c1.185-0.079,4.377-0.334,5.563-0.426c1.134-0.1,4.125-0.398,5.1-0.471
		c0.95-0.062,1.9-0.207,2.305-0.137c0.403,0.041,0.897,0.375,1.016,0.508c0.13,0.159,0.688,0.754,1.096,1.221
		c0.433,0.438,0.821,0.921,0.888,1.051c0.07,0.179,0.35,0.553,0.271,0.68c-0.036,0.137-0.087,0.403-0.229,0.482
		c-0.137,0.07-0.819,0.366-0.819,0.366s-0.039-0.305-0.276-0.407c-0.204-0.117-0.629-0.247-0.919-0.155
		c-0.285,0.12-1.251,0.53-1.805,0.771c-0.548,0.249-1.471,0.654-1.892,0.712c-0.446,0.054-2.101,0.133-3.216,0.146
		c-1.128,0.026-4.4,0.033-5.808,0.08c-1.407,0.045-6.191,0.073-7.208,0.095c-0.983,0.013-5.384,0.059-6.771,0.059
		c-1.413,0-5.32,0.088-6.571,0.072c-1.282-0.019-6.869,0.099-8.114,0.065c-1.217-0.004-4.729,0-5.657,0.037
		c-0.934,0.024-2.205,0.063-3.438,0.143c-1.191,0.099-2.907,0.267-3.396,0.279c-0.499,0.058-1.155-0.038-1.384-0.101
		c-0.237-0.08-0.255-0.116-0.4-0.138c-0.133-0.021-0.55-0.092-0.55-0.092l-0.104-0.213c0,0,0.541-0.1,0.983-0.207
		c0.466-0.08,0.816-0.296,1.62-0.464c0.785-0.145,2.766-0.524,3.745-0.683c0.991-0.166,5.45-0.949,6.737-1.124
		c1.283-0.172,4.607-0.534,5.782-0.629c1.146-0.084,4.479-0.343,5.663-0.389c1.157-0.079,3.762-0.19,4.42-0.166
		c0.675,0.017,2.929,0.046,3.809,0.096c0.883,0.07,1.369,0.07,1.369,0.07l0.168-0.601c0,0-0.95-0.05-1.725-0.095
		c-0.805-0.05-2.834-0.092-3.517-0.092c-0.695,0-3.198,0.025-4.143,0.079c-0.905,0.051-2.239-0.111-3.328-0.138
		c-1.342-0.059-4.309-0.008-5.52,0.059c-1.226,0.092-4.646,0.434-5.729,0.584c-1.1,0.124-4.812,0.654-6.516,0.982
		c-1.717,0.301-4.379,0.834-5.633,1.066c-1.236,0.233-2.834,0.55-4.267,0.696c-1.42,0.149-4.305,0.199-5.357,0.171
		c-1.063-0.021-4.167-0.092-5.746-0.083c-1.546,0.05-4.183,0.05-5.703,0.229c-1.537,0.192-2.813,0.475-3.595,0.754
		c-0.81,0.245-1.607,0.55-2.128,0.925c-0.568,0.392-0.807,0.842-0.791,0.991c0.019,0.133,0.061,0.251,0.061,0.251l0.425,0.12
		c0,0-0.4,0.329-0.646,0.509c-0.233,0.196-0.467,0.657-0.561,1.059c-0.057,0.38-0.204,1.324-0.224,1.732
		c-0.024,0.401-0.063,0.558,0.067,0.875c0.137,0.317,0.766,1.441,1,1.903c0.254,0.46,0.912,1.534,1.104,1.829
		c0.175,0.326,0.513,0.756,0.75,1.159c0.259,0.371,0.676,1.267,0.729,1.55c0.054,0.299,0.054,0.745,0.054,1.163v2.145
		c0,0.35-0.015,0.607-0.107,0.674c-0.071,0.089-0.267,0.268-0.279,0.451c0,0.175-0.138,0.597-0.175,0.813
		c-0.058,0.212-0.222,0.667-0.222,0.667s-0.245-0.546-0.245-0.601c-0.034-0.066,0.081-0.492,0.028-1.125
		c-0.028-0.604-0.969-2.604-1.204-4.615c-0.13-1.258-0.894-2.551-1.48-3.404c-0.581-0.846-0.94-1.704-1.61-2.803
		c-0.642-1.127-2.491-2.223-3.646-3.063c-0.906-0.608-2.076-2.025-2.076-3.137c0-0.518-0.281-1.304-0.894-0.967
		c0.104-0.275,0.367-0.514,0.666-0.8c0.609-0.496,1.713-1.201,2.726-1.566C171.681,39.919,174.156,39.261,175.159,39.023
		 M131.89,38.582c0.595-0.236,3.6-1.267,4.538-1.505c1.132-0.313,3.789-0.92,5.373-1.184c1.586-0.267,4.808-0.611,7.882-0.611
		c2.654,0,5.07,0.233,6.354,0.366c1.279,0.171,3.866,0.625,4.912,0.867c1.05,0.283,2.812,0.708,3.817,1.036
		c0.961,0.343,2.498,0.858,3.098,1.125c0.613,0.264,0.969,0.347,1.076,0.446c0.087,0.084,0.116,0.245,0.424,0.408
		c0.317,0.121,0.775,0.296,0.775,0.296s-0.157,0.15-0.417,0.254c-0.245,0.104-0.566,0.234-0.787,0.339
		c-0.258,0.115-0.5,0.254-0.5,0.254s0-0.358-0.133-0.454c-0.138-0.113-0.887-0.514-1.681-0.81c-0.736-0.267-1.849-0.661-2.947-0.979
		c-1.088-0.3-3.005-0.88-4.33-1.097c-1.291-0.228-2.666-0.482-3.949-0.611c-1.263-0.138-4.183-0.367-5.674-0.35
		c-1.5,0.021-4.39,0.167-5.825,0.358c-1.43,0.166-3.806,0.546-5.191,0.899c-1.369,0.35-3.215,0.8-3.92,1.024
		c-0.754,0.268-1.612,0.617-1.904,0.617c-0.27,0.038-0.857-0.05-1.056-0.05c-0.202,0-0.382,0-0.531,0.037
		c-0.087,0.034-0.404,0.191-0.533,0.143c-0.141-0.085-0.404-0.222-0.404-0.222S131.293,38.857,131.89,38.582 M37.718,38.877
		c0.364-0.407,0.814-0.982,1.005-1.033c0.193-0.079,0.984-0.079,1.464-0.028c0.483,0.028,3.507,0.316,4.111,0.362
		c0.592,0.042,3.166,0.12,3.853,0.142c0.702,0.037,3.95,0.058,5.034,0.091c1.12,0.034,4.494,0.117,5.508,0.071
		c1.013-0.05,3.858-0.304,4.724-0.35c0.876-0.043,3.604-0.254,4.894-0.288c1.303-0.028,3.91,0,4.744-0.054
		c0.836-0.058,4.165-0.079,5.317-0.079c1.144,0,4.397,0.133,5.477,0.133c1.119,0.051,5.833,0.306,7.063,0.368
		c1.224,0.054,7.328,0.27,8.69,0.29c1.332,0.038,3.353,0.092,4.401,0.038c1.082-0.059,6.219-0.283,7.76-0.328
		c1.558-0.051,5.671-0.102,7.319-0.063c1.676,0.028,5.646,0.428,6.982,0.6c1.363,0.165,2.671,0.486,3.079,0.512
		c0.375,0.013,0.959,0.051,1.188,0.271c0.212,0.175,0.429,0.625,0.825,0.867c0.401,0.226,0.975,0.35,1.166,0.6
		c0.221,0.264,0.232,0.816,0.346,1.05c0.125,0.221,0.604,0.983,0.649,1.5c0.071,0.496,0,1.367-0.333,1.949
		c-0.316,0.563-0.875,1.217-1.457,1.846c-0.606,0.626-1.547,1.283-2.347,1.997c-0.809,0.695-2.174,1.745-2.875,2.724
		c-0.712,0.963-1.142,1.625-1.313,2.595c-0.137,0.984-0.041,1.543-0.104,1.71c-0.046,0.166-0.169,0.574-0.429,0.813
		c-0.22,0.254-1.236,1.403-1.583,1.894c-0.358,0.484-0.971,1.363-1.108,1.597c-0.162,0.229-0.275,0.484-0.275,0.484l-0.236-0.422
		c0,0,0.5-0.579,0.565-0.729c0.188-0.234,0.063-0.931,0.188-2.1c0.258-3.042,4.053-6.434,3.528-9.541
		c-0.454-2.429-3.479-4.513-6.508-4.971c-1.73-0.279-7.482-0.712-8.718-0.745c-1.547-0.059-5.701-0.116-7.005-0.15
		c-1.292-0.017-4.737-0.025-5.729-0.079c-1.021-0.025-2.296-0.038-3.925-0.309c-1.659-0.296-2.815-0.617-4.433-1.124
		c-1.63-0.493-2.925-0.88-4.212-1.159c-1.271-0.296-2.922-0.554-4.013-0.646c-1.137-0.1-3.313-0.258-4.993-0.305
		c-1.651-0.02-5.751,0-7.064,0.037c-1.308,0.01-5.387,0.15-6.453,0.15c-1.074,0-2.208-0.017-2.741,0.018
		c-0.505,0.041-0.375,0.271-0.597,0.321c-0.249,0.041-1.478,0-2.199,0c-0.691,0-1.245-0.051-1.467-0.072
		c-0.271-0.013-0.63-0.013-0.63-0.013s-0.053,0.242,0.201,0.309c0.25,0.079,0.866,0.113,1.066,0.151
		c0.238,0.024,1.9,0.111,2.491,0.133c0.587,0.058,1.608,0.058,2.255,0.087c0.653,0.075,1.782,0.075,2.549,0.083
		c0.755,0.013,3.805,0,4.942,0.025c1.096,0.05,3.215,0.05,4.22,0.079c1.046,0.009,3.509,0.121,5.416,0.35
		c1.929,0.213,3.512,0.451,5.44,0.905c1.837,0.441,4.029,1.137,5.104,1.479c1.064,0.304,2.546,0.712,3.3,0.896
		c0.789,0.154,1.491,0.192,1.679,0.38c0.191,0.153,0.191,0.333,0.063,0.565c-0.101,0.254-0.199,0.337-0.288,0.56
		c-0.087,0.228-0.159,0.437-0.159,0.437h-0.692c0,0,0.134-0.138,0.143-0.308c0.021-0.146-0.392-0.371-0.808-0.484
		c-0.441-0.066-2.384-0.254-2.899-0.321c-0.524-0.07-2.434-0.232-3.495-0.229c-1.055,0.021-5.162-0.017-6.217,0
		c-1.033,0.034-4.892-0.049-5.874-0.004c-0.955,0.025-4.329,0-5.254-0.013c-0.917-0.032-3.066-0.032-3.932-0.032
		c-0.852,0-3.714,0-4.743-0.018c-1.012,0-4.509-0.096-5.178-0.08c-0.68,0.034-2.592-0.023-3.533-0.023
		c-0.941-0.03-4.225-0.146-5.115-0.146c-0.901,0-1.992-0.072-2.343-0.181c-0.346-0.092-2.222-1.054-2.975-1.437
		c-0.759-0.371-2.191-1.096-2.57-1.312c-0.392-0.193-0.787-0.468-0.899-0.509c-0.114-0.079-0.626,0.467-0.788,0.657
		c-0.129,0.205-0.408,0-0.408,0S37.365,39.312,37.718,38.877"/>
	<path d="M179.142,70.578c0-10.777-11.79-21.585-29.142-21.585c-17.332,0-29.114,10.808-29.114,21.585S132.668,92.185,150,92.185
		C167.352,92.185,179.142,81.355,179.142,70.578 M132.331,81.14c0-1.032,2.075-2.096,2.058-3.016V63.001
		c0-0.775-2.159-1.112-2.159-2.563c0-0.083,0.025-0.183,0.047-0.328c0.517-1.204,3.708-3.821,8.88-5.425
		c2.456-0.721,5.34-1.267,8.651-1.316c1.704-0.013,3.303,0.112,4.837,0.32c6.611,0.97,11.253,4.115,11.707,8.2
		c0.046,0.337,0.055,0.653,0.055,1.011c0,2.366-1.092,4.434-4.713,6.475v0.05c4,1.871,5.63,5.62,5.608,8.421
		c-0.062,5.141-5.941,9.457-16.215,9.499c-0.725,0-1.445,0-2.116-0.042C138.538,86.765,132.331,82.152,132.331,81.14"/>
	<path d="M157.649,78.02c0-5.646-3.85-6.975-7.471-7c-3.8,0.025-7.814,1.172-7.814,7c0,5.786,4.064,6.786,7.664,6.786h0.271
		C154.086,84.806,157.649,83.094,157.649,78.02"/>
	<path d="M150.013,68.721c4.016-0.021,6.936-1.567,6.936-6.357c0-4.604-2.783-6.288-6.936-6.308
		c-3.805,0.02-6.954,1.899-6.954,6.308C143.059,67.333,146.179,68.699,150.013,68.721"/>
</g>
</svg>
