<?xml version="1.0" encoding="utf-8"?>
<!-- Generator: Adobe Illustrator 16.0.0, SVG Export Plug-In . SVG Version: 6.00 Build 0)  -->
<!DOCTYPE svg PUBLIC "-//W3C//DTD SVG 1.1//EN" "http://www.w3.org/Graphics/SVG/1.1/DTD/svg11.dtd">
<svg version="1.1" id="Layer_1" xmlns="http://www.w3.org/2000/svg" xmlns:xlink="http://www.w3.org/1999/xlink" x="0px" y="0px"
	 width="300px" height="172px" viewBox="0 0 300 172" enable-background="new 0 0 300 172" xml:space="preserve">
<g>
	<path d="M86.875,72.766h37.013c1.135,0,1.538,0.527,1.538,1.534v5.427c0,1.627,0.947,2.375,2.371,2.375h20.89h20.868
		c1.43,0,2.385-0.713,2.385-2.375v-5.408c0-1.092,0.461-1.553,1.541-1.553h23.221c1.58,0,2.738-0.432,3.553-1.933l11.503-22.494
		c0.255-0.47,0.436-0.767,0.436-1.314c0-1.55-1.318-2.085-2.224-2.085H173.48c-0.951,0-1.541-0.256-1.541-1.531v-5.422
		c0-1.563-0.858-2.392-2.385-2.392h-41.758c-1.565,0-2.371,0.861-2.371,2.392v5.395c0,1.164-0.541,1.545-1.538,1.545l-23.906,0.014
		c-1.84,0-2.915,0.885-3.45,2.03l-11.652,22.76c-0.148,0.274-0.251,0.622-0.251,0.974C84.628,71.607,85.22,72.766,86.875,72.766
		 M96.051,63.703l5.558-10.869c0.208-0.41,0.562-0.652,1.402-0.652h28.077c0.97,0,1.583-0.385,1.583-1.581v-6.218
		c0-1.127,0.478-1.568,1.533-1.568h28.939c1.036,0,1.537,0.478,1.537,1.58v6.244c0,1.057,0.513,1.543,1.597,1.543h33.226
		c1.058,0,1.409,0.695,1.409,1.239c0,0.216-0.047,0.427-0.154,0.575l-5.539,10.889c-0.358,0.615-0.959,0.627-1.39,0.627h-27.552
		c-1.146,0-1.577,0.512-1.577,1.572v6.256c0,1.026-0.447,1.515-1.557,1.515h-14.457h-14.482c-0.956,0-1.548-0.333-1.548-1.53v-6.247
		c0-1.147-0.521-1.565-1.568-1.565H97.297c-0.829,0-1.38-0.51-1.38-1.241C95.917,64.068,95.967,63.867,96.051,63.703"/>
	<path d="M175.867,40.968h0.496l0.74,1.127h0.396l-0.751-1.163c0.444-0.007,0.796-0.211,0.796-0.727
		c0-0.536-0.473-0.686-0.906-0.686h-1.131v2.575h0.36V40.968z M175.867,39.84h0.684c0.271,0,0.623,0.044,0.623,0.365
		c0,0.242-0.122,0.461-0.623,0.461h-0.684V39.84z"/>
	<path d="M176.359,43.092c1.269,0,2.294-0.997,2.294-2.27c0-1.279-1.025-2.277-2.294-2.277c-1.275,0-2.301,0.998-2.301,2.277
		C174.059,42.074,175.076,43.092,176.359,43.092 M176.359,38.891c1.072,0,1.902,0.863,1.902,1.916c0,1.072-0.83,1.93-1.902,1.93
		c-1.082,0-1.936-0.857-1.936-1.93C174.424,39.754,175.292,38.891,176.359,38.891"/>
	<polygon points="65.581,122.703 75.414,122.703 75.414,137.395 82.259,137.395 82.259,104.566 75.414,104.566 75.414,117.713 
		65.581,117.713 65.581,104.566 58.723,104.566 58.723,137.395 65.581,137.395 	"/>
	<polygon points="248.177,137.395 255.031,137.395 255.031,109.582 264.339,109.582 264.339,104.566 238.88,104.566 238.88,109.582 
		248.177,109.582 	"/>
	<polygon points="202.703,104.566 195.846,104.566 195.846,137.395 215.446,137.395 215.446,132.383 202.703,132.383 	"/>
	<path d="M119.524,137.405h6.336c1.85,0,3.039-0.955,3.5-2.829l8.1-29.99h-6.04l-7.11,27.358c-0.102,0.335-0.354,0.438-0.715,0.438
		s-0.604-0.138-0.725-0.455l-7.227-27.361h-7.969l8.273,29.944C116.341,136.503,117.678,137.405,119.524,137.405"/>
	<path d="M40.772,137.405l15.333-0.011v-5.012H45.019c-1.893,0-2.502-0.475-2.502-2.512v-17.792c0-1.976,0.469-2.497,2.502-2.497
		h11.087v-4.996h-15.31c-3.506,0-5.135,1.797-5.135,5.092v22.59C35.661,135.928,37.524,137.405,40.772,137.405"/>
	<path d="M95.726,109.582h11.252v-4.996H91.486c-3.532,0-5.121,1.746-5.121,5.092v22.59c0,3.456,1.694,5.138,5.121,5.138h16.907
		v-5.022H95.726c-1.907,0-2.497-0.427-2.497-2.506v-7.174h13.604v-4.99H93.229v-5.634C93.229,110.182,93.643,109.582,95.726,109.582
		"/>
	<path d="M162.576,118.391v-8.713c0-3.42-1.629-5.092-5.126-5.092h-19.094v32.819h6.852v-27.823h7.989
		c2.125,0,2.516,0.6,2.516,2.497l0.008,3.995c0,1.932-0.536,2.512-2.508,2.512h-3.737c-1.463,0-2.28,0.9-2.28,2.309
		c0,0.712,0.36,1.225,0.646,1.73l8.656,14.77h8.481l-9.066-13.871h1.538C160.615,123.523,162.576,122.088,162.576,118.391"/>
	<path d="M179.064,137.405h7.517c3.269,0,5.117-1.562,5.117-5.138l-0.009-22.59c0-3.346-1.576-5.092-5.108-5.092h-15.104
		c-3.619,0-5.129,1.82-5.129,5.092v22.59c0,3.717,1.996,5.138,5.129,5.138H179.064z M173.197,112.079
		c0-1.718,0.229-2.497,2.506-2.497h6.639c1.793,0,2.505,0.307,2.505,2.497l0.012,17.798c0,2.098-0.65,2.509-2.517,2.509h-3.277
		h-3.361c-1.964,0-2.506-0.548-2.506-2.509V112.079z"/>
	<path d="M221.897,137.405l16.912-0.011v-5.012h-12.657c-1.922,0-2.523-0.427-2.523-2.512v-7.168h13.612v-4.99h-13.598v-5.634
		c0-1.897,0.402-2.497,2.509-2.497h11.229v-5.016l-15.484,0.02c-3.535,0-5.108,1.746-5.108,5.092l-0.016,22.59
		C216.773,135.724,218.456,137.405,221.897,137.405"/>
</g>
</svg>
