<?xml version="1.0" encoding="UTF-8"?>
<svg id="Layer_1" xmlns="http://www.w3.org/2000/svg" version="1.1" viewBox="0 0 158 158">
  <!-- Generator: Adobe Illustrator 29.5.1, SVG Export Plug-In . SVG Version: 2.1.0 Build 141)  -->
  <path d="M81.309,14.71c-35.873-.01-64.977,28.775-64.977,64.28s29.08,64.286,64.977,64.3c35.908,0,65.023-28.779,65.023-64.3S117.229,14.71,81.309,14.71M81.309,140.85c-24.417,0-43.571-12.702-52.697-30.148l1.395-.519c2.366,3.874,5.472,7.267,9.633,11.862,5.132,5.645,21.349,16.523,41.647,16.523,21.612.01,40.603-11.201,51.255-28.323.821-.236,1.091-.589.809-1.311,4.875-8.596,8.193-19.387,8.193-29.944,0-6.649-.976-12.05-2.521-16.879-1.155-3.644-2.773-7.263-3.487-8.7-.207-.336-.22-.52-.228-.835.252.218.385.358.582.711.941,1.731,3.049,5.942,4.038,8.681,1.339,3.685,3.737,8.746,3.737,17.022,0,33.838-27.696,61.874-62.354,61.86M29.193,109.264l45.527-32.743-3.893-2.214-40.555,33.724c-4.56-8.262-7.728-18.857-7.728-28.937,0-31.934,25.416-57.778,57.613-57.98l-8.304,51.641,3.874,2.249,5.217-53.891c.095-.679.549-.679.549,0l.316,56.82,9.243-5.423-8.845-51.407c31.637.849,57.861,26.359,57.861,57.887,0,10.165-3.09,20.779-7.749,29.102l-40.518-33.756-3.902,2.224,43.561,31.587c1.051.741.721,1.085-.4.463l-48.913-28.215v10.575l49.035,18.733c-10.27,16.759-28.822,27.475-50.04,27.475s-39.504-10.702-49.789-27.494l49.13-18.743v-10.569l-50.864,29.374c-1.225.665-1.539.306-.427-.481M28.017,109.839c-2.159-4.467-4.425-10.749-5.368-15.711-.009-.294-.056-.528.033-.783.164.198.236.414.362.759,1.477,4.566,2.758,8.663,6.122,14.822l-1.149.913ZM143.564,68.099c-.145-.178-.238-.433-.354-.745-4.75-14.646-8.795-20.396-16.604-28.955-10.272-11.281-27.051-19.991-44.902-20.013-34.114,0-61.79,27.695-61.79,61.801,0,10.157,2.214,18.903,3.979,23.314,2.098,5.094,5.693,11.976,5.867,12.281.165.359.186.504.197.82-.255-.194-.362-.357-.579-.679-1.041-1.502-5.274-9.142-6.602-12.474-2.863-7.267-4.991-15.179-4.991-23.488,0-35.167,28.465-63.697,63.655-63.697,31.424,0,56.773,21.835,62.123,51.068.018.277.099.514,0,.767"/>
</svg>