<?xml version="1.0" encoding="utf-8"?>
<!-- Generator: Adobe Illustrator 16.0.0, SVG Export Plug-In . SVG Version: 6.00 Build 0)  -->
<!DOCTYPE svg PUBLIC "-//W3C//DTD SVG 1.1//EN" "http://www.w3.org/Graphics/SVG/1.1/DTD/svg11.dtd">
<svg version="1.1" id="Layer_1" xmlns="http://www.w3.org/2000/svg" xmlns:xlink="http://www.w3.org/1999/xlink" x="0px" y="0px"
	 width="200px" height="200px" viewBox="0 0 200 200" enable-background="new 0 0 200 200" xml:space="preserve">
<g transform="translate(170.24 5.0558)">
	<g id="Layer_1_1_" transform="matrix(.52497 0 0 .52497 -170.24 -5.0558)">
		<g id="Nissan_Badge_1_">
			<path d="M214.758,200.295c-0.234,0.059-1.165,0.059-1.572,0.059h-30.033v6.983h30.556c0.233,0,2.037,0,2.389-0.058
				c6.226-0.582,9.078-5.762,9.078-10.302c0-4.656-2.967-9.663-8.615-10.186c-1.103-0.116-2.037-0.116-2.444-0.116h-19.962
				c-0.874,0-1.862-0.058-2.212-0.175c-1.57-0.407-2.154-1.804-2.154-2.968c0-1.048,0.584-2.444,2.212-2.911
				c0.465-0.115,0.99-0.174,2.094-0.174h28.813v-6.869h-29.28c-1.22,0-2.15,0.06-2.907,0.176c-5.008,0.698-8.498,4.714-8.498,9.836
				c0,4.191,2.617,9.08,8.38,9.895c1.047,0.116,2.504,0.116,3.142,0.116h19.441c0.348,0,1.222,0,1.397,0.059
				c2.214,0.291,2.969,1.922,2.969,3.375C217.552,198.432,216.679,199.946,214.758,200.295z"/>
			<path d="M157.833,200.295c-0.231,0.059-1.163,0.059-1.512,0.059h-30.091v6.983h30.558c0.232,0,2.037,0,2.385-0.058
				c6.228-0.582,9.082-5.762,9.082-10.302c0-4.656-2.969-9.663-8.615-10.186c-1.107-0.116-2.037-0.116-2.444-0.116h-19.966
				c-0.872,0-1.862-0.058-2.21-0.175c-1.574-0.407-2.152-1.804-2.152-2.968c0-1.048,0.578-2.444,2.21-2.911
				c0.467-0.115,0.99-0.174,2.094-0.174h28.813v-6.869h-29.278c-1.222,0-2.154,0.06-2.909,0.176
				c-5.006,0.698-8.498,4.714-8.498,9.836c0,4.191,2.617,9.08,8.38,9.895c1.049,0.116,2.504,0.116,3.144,0.116h19.439
				c0.348,0,1.222,0,1.397,0.059c2.212,0.291,2.971,1.922,2.971,3.375C160.631,198.432,159.814,199.946,157.833,200.295
				L157.833,200.295z"/>
			<rect x="103.006" y="173.346" width="7.567" height="34.165"/>
			<polygon points="86.302,207.511 86.302,173.346 78.738,173.346 78.738,198.841 53.532,173.346 43.814,173.346 43.814,207.511 
				51.378,207.511 51.378,181.902 76.757,207.511 			"/>
			<polygon points="329.651,173.346 329.651,198.841 304.45,173.346 294.729,173.346 294.729,207.511 302.296,207.511 
				302.296,181.902 327.614,207.511 337.158,207.511 337.158,173.346 			"/>
			<path d="M255.325,173.346l-21.301,34.165h9.195l3.782-6.11h24.854l3.784,6.11h9.137l-21.303-34.165H255.325z M267.956,194.94
				h-17.055l8.557-13.736L267.956,194.94z"/>
			<path d="M85.896,153.965c15.248-44.526,57.271-74.443,104.649-74.443c47.376,0,89.458,29.917,104.647,74.443l0.121,0.349h33.35
				v-4.017l-13.853-1.629c-8.559-0.99-10.36-4.772-12.689-9.545l-0.582-1.164c-20.023-42.607-63.618-70.195-110.994-70.195
				c-47.434,0-90.97,27.588-110.994,70.31l-0.581,1.164c-2.329,4.773-4.133,8.555-12.69,9.546l-13.853,1.63v4.016h33.292
				L85.896,153.965z"/>
			<path d="M295.313,226.602l-0.121,0.35c-15.247,44.525-57.271,74.384-104.647,74.384c-47.378,0-89.458-29.916-104.649-74.442
				l-0.117-0.35H52.484v4.016l13.853,1.63c8.557,0.99,10.359,4.773,12.688,9.546l0.582,1.164
				c20.025,42.722,63.618,70.309,110.994,70.309c47.378,0,90.974-27.587,110.994-70.251l0.584-1.164
				c2.327-4.773,4.13-8.556,12.687-9.545l13.853-1.63v-4.016H295.313z"/>
		</g>
	</g>
</g>
</svg>
