<?xml version="1.0" encoding="UTF-8"?>
<svg id="Layer_1" xmlns="http://www.w3.org/2000/svg" version="1.1" viewBox="0 0 121.534 149.843">
  <!-- Generator: Adobe Illustrator 29.5.1, SVG Export Plug-In . SVG Version: 2.1.0 Build 141)  -->
  <path d="M9.589,52.122c.264,8.204.574,18.032.918,27.861.144,4.163.643,8.29,1.838,12.295,4.121,13.684,11.71,25.138,22.318,34.61,6.726,6.036,14.347,10.532,23.173,12.894,2.921.777,5.667.853,8.361-.622,3.842-2.108,7.783-4.1,11.535-6.411,11.706-7.221,20.521-17.105,26.583-29.459,3.858-7.86,6.402-16.124,6.887-24.867.33-5.999.33-12.029.353-18.023.071-13.774.043-27.549.085-41.321.013-1.129-.373-1.764-1.455-2.064-4.475-1.253-8.924-2.724-13.451-3.76-10.631-2.45-21.471-3.299-32.357-3.668-12.716-.433-25.233,1.111-37.586,4.079-5.521,1.316-10.908,3.045-16.098,5.362-.796.355-1.121.838-1.107,1.742.025,9.898.004,19.803.004,31.352M12.693,77.59c-.245-5.602-.541-11.207-.67-16.806-.158-7.368-.15-14.737-.26-22.119-.012-.81.26-1.214.972-1.552,8.812-4.182,18.02-7.118,27.66-8.463,5.682-.775,11.433-1.114,17.15-1.651.3-.024.628-.016.972-.012.254.012.462.225.462.48v22.457c0,.269-.208.477-.462.477h-14.782c-.242,0-.354-.18-.185-.376.658-.653,1.686-.618,2.425-1.047.227-.13.227-.43-.021-.549-1.161-.631-3.166-.379-4.394.617-.411.351-.816.745-1.104,1.179-.572.876-1.278,1.282-2.34,1.227-.717-.035-1.444.056-2.257.137-.26.025-.457-.168-.413-.428.265-1.33,1.123-2.165,1.985-2.973.333-.317.803-.501,1.137-.802.124-.097.214-.206.29-.348.14-.202.061-.445-.18-.539-.152-.062-.311-.09-.444-.086-1.895.39-3.381,1.405-4.338,3.117-.196.309-.296.662-.432.986-.231.562-.315,1.42-.722,1.603-1.03.497-2.191.72-3.314.974-.12.034-.511-.477-.496-.702.044-1.312.514-2.468,1.435-3.427.287-.305.553-.645.874-1.026.153-.21.094-.412-.17-.432-1.145-.121-1.985.251-2.64,1.054-1.121,1.33-1.834,2.859-1.909,4.615-.01.652-.243.98-.84,1.186-.611.221-1.193.488-1.785.77-.711.338-1.017.084-1.017-.657.013-1.548.273-3.023,1.252-4.282.085-.087.131-.195.196-.302.106-.189-.011-.412-.265-.456-.795-.136-1.524.267-2.085,1.143-.922,1.479-.996,3.139-1.042,4.803-.02.989-1.64,2.512-2.596,2.38-.239-.034-.462-.296-.647-.503-.286-.312-.468-.856-.811-.96-.476-.151-1.223-.197-1.535.082-.284.261-.255,1.019-.194,1.519.031.229.194.432.375.65.153.207.108.501-.118.639-.34.235-.653.455-.977.683-.663.484-.762,1.109-.39,1.806.381.708.953,1.02,1.718.708.909-.383,1.7-.63,2.617.17.282.258,1.299.122,1.599-.189.295-.306.285-1.13.121-1.632-.19-.581-.584-1.008.202-1.423,5.85-3.084,11.917-5.396,18.587-5.747.406-.031.794.004,1.199.02.07,0,.154.017.264.038.147.041.277.276.277.536.003,2.596.06,5.182-.054,7.744-.032.624-.849,1.153-1.078,1.825-.344.96-1.097.61-1.712.702-.72.106-1.447.133-2.16.22-.954.138-1.081-.314-.954-1.145.288-1.828,1.144-3.251,2.714-4.242.081-.052.171-.124.252-.193.148-.116.055-.267-.206-.282-1.258-.03-3.108.922-3.745,2.121-.447.837-.728,1.806-.85,2.74-.222,1.678-.146,1.695-1.822,2.118-.604.174-1.195.318-1.786.465-.054.017-.131.017-.221.007-.132,0-.277-.214-.329-.472-.328-2.07.298-3.809,1.81-5.273.191-.19.136-.383-.12-.408-1.025-.065-1.975.45-2.739,1.496-1.02,1.387-1.115,2.965-.8,4.564.151.736-.03,1.058-.703,1.289-.597.229-1.169.542-1.753.834-.642.345-1.006.151-1.17-.549-.375-1.664-.185-3.238.759-4.671.08-.128.172-.252.268-.394.143-.218.044-.421-.204-.395-1.008.05-1.642.612-2.145,1.362-.886,1.36-.984,2.861-.663,4.394.373,1.734.43,1.878-.943,2.662-.228.132-.572.1-.774-.073-.314-.292-.656-.588-1.001-.862-.585-.479-1.316-.545-1.755.008-.292.392-.419,1.228-.209,1.608.553.974.447,1.514-.524,2.098-.855.531-.977,1.522-.48,2.162.474.636,1.42.672,2.24.086.222-.167.457-.352.663-.558.462-.489.887-.438,1.394,0,.319.27.763.597,1.111.558.523-.044,1.147-.279,1.458-.657.213-.277.033-.942-.099-1.372-.087-.263-.308-.485-.585-.807-.167-.201-.136-.472.1-.612,5.673-3.298,11.671-5.33,18.276-5.802.254-.022.463.185.463.45v11.578c0,.274-.209.501-.463.511-.261.033-.514.055-.768.055H14.272c-1.473,0-1.516,0-1.578-1.457M36.834,122.174c-.161.664-.315,1.343-.494,2.062-.055.247-.198.438-.3.427-.086-.01-.164-.216-.164-.485v-1.235c0-.261.124-.634.299-.817.068-.088.141-.16.206-.246.168-.202.378-.316.445-.261.074.056.087.311.008.557M59.619,122.909c-.409.411-1.201.706-.795,1.389.143.211.119.466-.075.635-.688.519-.642.682.309,1.526.189.171.242.292.123.273-.102-.033-.18-.033-.243-.033-.323,0-.712-.069-.931.085-.184.138-.338.632-.246.799.156.248.542.382.854.518.21.108.52.09.662.237.09.098-.12.428-.158.647-.039.308-.075.626-.075.956,0,.251-.118.604-.341.738-.308.21-.627.444-.361,1.081.054.102-.148.278-.211.436-.123.359-.411.908-.294,1.026.226.223.549.303.978.44.23.09.419.296.405.473-.019.18-.185.218-.405.097-.153-.055-.277-.136-.408-.176-.24-.08-.617-.172-.736-.046-.235.209-.455.588-.426.876.011.217.391.47.664.568.318.13.671.197,1.009.274.253.047.424.232.371.372-.041.147-.274.185-.516.084-.353-.135-.704-.268-1.073-.373-.764-.228-1.537-.425-2.309-.633-.247-.054-.471-.054-.492.014-.027.078-.114-.022-.211-.206-.089-.177-.382-.328-.63-.347-.201-.01-.386-.035-.617-.042-.257-.025-.408-.231-.334-.483.058-.14.098-.295.138-.453.027-.323.107-.664,0-.938-.09-.193-.545-.435-.694-.363-.281.157-.479.485-.667.769-.075.125-.119.245-.167.379-.07.222-.273.27-.44.115-.177-.163-.527-.335-.781-.383-.203-.028-.403-.06-.616-.09-.256-.048-.365-.257-.261-.514.355-.743.686-1.41.92-2.114.044-.142-.091-.311-.233-.497-.162-.211-.464-.271-.686-.131-.194.121-.362.233-.415.388-.233.738-.267,1.525-.465,2.284-.013.045-.173.07-.33.092-.189.008-.319-.198-.289-.459.077-.545.167-.973.054-1.346-.105-.353-1.578-.58-2.417-.511-.252.017-.518-.111-.65-.317-.29-.446-.709-.63-1.381-.36-.229.09-.366,0-.296-.253.094-.36.156-.623.287-.884.339-.699-.056-.992-.604-1.218-.438-.172-.897-.455-1.299-.391-.38.064-.738.282-1.085.494-.225.136-.364.025-.302-.225.1-.376.21-.839.331-1.3.077-.325.309-.72.18-.939-.128-.226-.667-.443-.866-.355-.265.13-.405.575-.549.902-.058.115-.111.243-.144.369-.066.209-.221.363-.337.354-.126-.023-.203-.255-.192-.523.013-.18.044-.363.108-.543.243-.708.421-1.45.634-2.131.182-.58-.289-.77-.806-.674-.245.052-.533.01-.625-.184-.098-.189-.117-.369-.019-.398.077-.031.11-.045.181-.045.878.134,1.821-.047,2.624.637.128.119.444.012.746-.09.231-.109.578-.016.767.165.087.095.171.198.283.294.18.18.441.174.608-.039.201-.28.403-.558.641-.867.145-.205.419-.215.672-.147.609.202,1.502.039,2.152.726.376.415,1.147.53,1.759.588.253.022.576-.488.806-.781.134-.146.243-.33.374-.493.133-.22.318-.352.398-.295.077.064.035.303-.08.524-.107.188-.22.397-.331.603-.123.224-.065.56.145.704.111.08.228.184.372.304.213.153.434.082.498-.168.086-.279.163-.57.222-.828.077-.241.231-.643.465-.77.248-.142.459-.014.628.278.13.219.371.364.615.274.171-.056.358-.125.53-.188.243-.092.575,0,.73.206.086.102.18.226.266.33.155.2.421.2.586,0,.144-.211.329-.414.517-.688.157-.205.432-.355.642-.329.205.032.229.166.032.301-.121.106-.22.18-.297.28-.134.221-.335.602-.254.7.208.241.54.377.849.511.275.111.606.125.893.209.284.105.645.413.784.327.254-.167.497-.527.555-.842.119-.874.244-1.079.881-.842.251.084.399.401.221.591M108.514,80.754c-1.188,9.665-4.077,18.739-9.302,27.02-4.24,6.751-9.133,12.918-15.492,17.823-6.041,4.636-12.398,8.74-19.323,11.94-.272.13-.553.229-.884.369-.242.086-.447-.032-.447-.299v-37.968c0-.257.218-.545.482-.485.719.137,1.543.878,2.064.162.148-.213.39-.354.634-.264.606.235,1.189.501,1.643.381.33-.086.507-.76.774-1.454.098-.252.382-.532.628-.613,2.858-1.205,5.485-3.195,7.827-5.634.194-.193.468-.331.74-.417,7.162-2.573,14.203-2.779,20.94,1.343.551.323,1.058.716,1.761,1.235.212.142.357.059.344-.202-.006-.574.013-1.054-.178-1.398-.505-.896-1.134-1.751-1.855-2.505-.661-.694-.703-1.111.277-1.574.984-.467,1.989-.849,3.234-1.329.242-.103.255-.291.044-.444-.342-.273-.584-.481-.87-.511-1.734-.225-3.401-.177-4.667,1.337-.343.402-.951.961-1.339.883-.968-.195-1.899-.66-2.801-1.098-.078-.046-.032-.729.16-.922.729-.841,1.533-1.604,2.363-2.35.212-.205.478-.365.751-.519.225-.116.274-.403.068-.55-.898-.729-2.591-.793-3.698.029-.897.674-1.756,1.544-2.312,2.518-.615,1.077-1.232,1.767-2.557,1.626-.36-.052-.72,0-1.154.038-.26.014-.436-.189-.39-.436.326-1.747,1.218-3.01,2.806-3.977.23-.132.219-.321-.013-.444-.242-.154-.412-.259-.594-.259-2.741-.019-4.759,1.506-5.511,4.136-.582,1.956-.709,2.169-2.659,2.442-.254.044-.376-.113-.254-.354.375-.665.765-1.3.957-1.994.517-1.831.911-3.696,1.272-5.566.103-.608.288-.857.931-.857,8.211.008,16.424.008,24.624,0,.854,0,1.072.369.977,1.141M12.967,20.281c5.568-2.474,11.364-4.215,17.311-5.514,12.064-2.655,24.272-3.779,36.616-3.23,12.172.554,24.274,1.858,36.064,5.156,1.908.531,3.771,1.243,5.614,1.981.366.136.809.691.809,1.054.074,4.769.055,9.552.067,14.319,0,.102-.013.184-.06.301-.026.171-.263.231-.505.142-1.922-.688-3.806-1.404-5.699-2.04-7.506-2.521-15.163-4.374-22.994-5.548-.25-.039-.678-.1-.935-.129-5.367-.767-10.751-1.127-16.18-.977q-1.846.046-1.857,1.86c0,2.782.038,5.573-.034,8.353-.033,1.037.254,1.347,1.325,1.347,14.175-.03,28.349-.013,42.528-.013h3.614c.265,0,.474.213.474.472v.252c0,.261-.209.472-.474.472h-46.103q-1.538,0-1.538,1.587c-.011,3.358-.011,6.71.014,10.073,0,.227.061.433.148.636.084.266.326.341.564.209.148-.091.315-.185.485-.253.224-.104.497-.223.752-.223.897,0,1.251-.344,1.027-1.076-.077-.241-.064-.527.054-.639.082-.078.17-.138.246-.207.054-.03.096-.064.136-.08.069-.044.249.094.423.287.553.635,1.079.697,1.294.099.233-.632.296-1.308.645-1.923.021-.043-.146-.199-.336-.369-.196-.161-.497-.161-.669.047-.157.155-.31.322-.415.507-.099.151-.14.335-.192.515-.061.258-.211.425-.336.402-.118-.033-.2-.261-.164-.486.034-.154.066-.298.102-.431.072-.29.361-.715.264-.805-.251-.303-.654-.44-1.006-.633-.13-.071-.251-.144-.385-.234-.21-.116-.199-.344-.03-.527.448-.411.551-.832.285-1.291-.121-.231-.475-.301-.72-.214-.01.008-.017.008-.017.008-.235.09-.446-.046-.46-.315-.04-.69-.086-1.383-.086-2.085,0-.16.226-.401.395-.457.136-.047.443.027.553.145.092.13.189.268.254.425.123.229.356.262.551.078.233-.248.475-.479.72-.738.081-.09.175-.176.273-.275.138-.162.317-.234.381-.166.062.048.02.22-.092.359-.066.1-.131.199-.171.302-.076.271-.17.684-.04.853.155.203.622.352.835.261.263-.129.424-.502.565-.796.105-.219.153-.448.224-.752.069-.266.258-.296.412-.094.463.566.857.926,1.342.543.201-.145.423-.145.541.084.231.45.475.838,1.197.508.071-.039.23.076.328.164.401.397.893.657,1.291.134.158-.19.145-.507.17-.884,0-.256.161-.463.349-.463.158,0,.288.193.248.449-.016.142-.024.297-.037.439-.031.325-.112.694-.011.982.061.149.586.316.714.223.232-.18.392-.537.531-.842.1-.241.176-.483.251-.704.062-.239.294-.302.491-.128.163.148.308.274.44.417.19.17.497.164.657-.038.179-.211.391-.438.613-.704.173-.189.529-.313.775-.275.773.128,1.673.293,2.709.473.258.048.389.272.29.515-.1.194-.158.445-.17.669-.015.253.07.489.17.742.099.252.374.387.616.321.199-.061.367-.111.408-.22.258-.672.424-1.358.619-2.135.059-.249.317-.391.582-.365.738.058,1.577-.18,2.363.435.18.147.608-.031,1.131-.173.245-.072.369.073.271.319-.142.406-.293.775-.427,1.159-.044.105-.158.255-.132.289.287.312.553.678.903.888.399.228.901.425,1.346.407.572,0,1.007-.312.817-1.06-.035-.142.146-.347.19-.524.086-.346.295-.732.196-1.012-.179-.501-.606-.671-1.138-.34-.012.015-.065-.014-.132-.061-.062-.034-.109-.138-.109-.241.016-.086.229-.128.495-.124.63.004,1.304-.004,1.767.279.447.3.772.397,1.049.308.229-.076.544-.151.74.006.267.249.542.477.762.453.3-.052.555-.363.892-.725.182-.197.491-.287.668-.235.191.061.561.074.826.08,1.003.036,1.964.247,2.859.814.206.112.717-.229,1.034-.435.081-.061.138-.151.18-.256.052-.155.147-.083.177.184.038.234.075.455.106.677.044.257.267.527.532.515.674-.018.794-.572.794-1.271,0-.269.198-.394.433-.298.181.07.338.142.476.204.193.094.448.369.529.319.692-.392,1.101.088,1.631.372.18.11.683-.315.998-.55.096-.048.161-.142.233-.235.116-.14.14-.04.052.207-.299.746-.03.9,1.094,1.14.559.124,1.035.76,1.64.419.226-.118.411-.105.491.144.008.046.021.068.038.104.067.247-.012.604-.188.788-.541.587-.48.747.325,1.385.201.158.174.342-.08.399-.299.08-.631.159-.926.295-.092.012-.084.637.054.728.254.172.573.258.996.391.253.078.56.344.424.585-.267.44-1.009.988-.267,1.538.206.164.193.238-.059.309-1.009.274-.574,1.316-.863,1.994-.103.244-.077.366.18.366h.353c.266,0,.472-.189.472-.43,0-.231.077-.431.177-.438.092-.017.176.184.186.45.031.354.052.724.076,1.123.024.265-.183.489-.448.519-.264.04-.511.061-.755.061-8.734-.017-17.492-.017-26.239-.061-.958,0-1.339.186-1.297,1.239.107,2.826.163,5.651.13,8.467,0,1.14.423,1.365,1.458,1.35,8.437-.042,16.866-.042,25.284-.051h.9c.265,0,.509.204.553.463.008.102.031.192.045.311.04.246-.14.465-.393.499-.341.018-.652.032-.968.032h-25.258c-1.602,0-1.589,0-1.576,1.613.029,3.366.052,6.729.084,10.099.012,1.192.079,1.222,1.15.717.162-.074.403.06.584.013.227-.087.436-.202.67-.292.235-.133.307-.394.158-.604-.148-.177-.273-.379-.435-.541-.096-.09-.216-.171-.336-.263-.188-.142-.088-.222.156-.142.959.353.993.181,1.351-1.225.018-.112.205-.202.237-.33.065-.34.243-.796.088-.995-.146-.19-.417-.254-.786-.356-.256-.078-.458-.286-.458-.458,0-.092,0-.188.025-.307.071-.38.425-.926.291-1.092-.202-.207-.541-.31-.894-.441-.247-.087-.417-.369-.397-.628.046-.377.101-.82.149-1.351.024-.256.247-.42.493-.363.123.052.272.084.421.123.283.053.656.237.834.122.243-.173.491-.549.477-.832-.02-.717.204-.8.629-.669.243.082.287.324.111.518-.41.463-.64.928-.305,1.416.147.235.317.348.305.338-.01-.013.184-.048.439-.122.409-.151.662-.427.551-1.073-.034-.176.1-.386.282-.619.149-.209.364-.209.482.028.02.056.042.088.064.122.123.237.42.483.676.489.486.018.65-.196.806-.921.043-.259.275-.407.529-.391.749.06,1.557-.078,2.165.48.188.176.285.35.285.342-.014-.006.188-.006.44.008.158,0,.31.01.488.02.255.012.326.184.165.377-.122.145-.224.266-.266.399-.102.264-.164.62-.068.848.084.192.479.408.678.357.272-.069.626-.327.705-.572.198-.599.321-1.226.459-1.868.056-.259.31-.442.566-.4,1.081.155,2.087.297,3.091.45.255.022.465,0,.476-.081,0-.086.086.031.201.274.031.058.065.135.098.207.105.237.242.465.285.501.055.048.297.048.562.01.069,0,.138-.018.209-.021.256-.03.39.094.298.297-.061.128-.118.256-.15.377-.068.348-.219.759-.102,1.012.096.204.674.359.869.245.244-.138.315-.584.434-.896.071-.216.092-.427.159-.637.061-.193.118-.387.184-.584.09-.238-.044-.501-.301-.581-.2-.07-.405-.122-.605-.186-.054-.018-.119-.018-.174-.018-.092-.024-.164-.086-.164-.176-.013-.068.2-.142.467-.124.459.024.91.048,1.364.108.458.068.901.192,1.364.244.255.033.618.18.83.356.662.603.851.565,1.442-.253.167-.206.486-.331.752-.331.673,0,1.403-.228,2.014.125.231.132.351.376.317.489-.022.096-.242.12-.497.042-.394-.124-.807-.249-1.18-.415-.742-.341-.993.067-1.173.652-.076.239-.054.517-.092.78-.07.411-.327.922-.151,1.195.104.207.477.249.92.343.25.057.393.279.32.489-.046.111-.1.231-.133.369-.07.308-.231.687-.114.926.098.201.645.42.774.339.266-.18.381-.578.528-.892.11-.223.11-.511.244-.704.486-.768.311-1.213-.595-1.337-.168-.017-.423.056-.498-.034-.075-.087-.114-.201-.156-.318-.051-.177.042-.334.202-.334.133,0,.217.013.305.038.342.138.666.296,1.085.501.235.113.355.404.281.662-.18.574-.401,1.256-.538,1.968-.042.21.012.438.081.652.088.248,0,.613-.176.794-.235.243-.469.475-.435.654.052.293.355.511.679.772.199.163.343.53.33.776-.055.939-.121,1.973-.192,3.113-.02.254-.231.459-.503.459h-1.291c-8.211.026-16.405.073-24.619.065-.893,0-1.233.286-1.256,1.169-.176,8.269-6.767,14.975-14.005,17.172-1.197.372-2.443.724-3.686.822-1.188.087-1.408.598-1.408,1.647.033,6.235.022,12.444.033,18.666v19.417c0,.186-.02.359-.033.559-.022.248-.266.449-.474.301-.448-.272-.355-.811-.363-1.245-.042-3.771-.067-7.512-.085-11.287-.024-1.445,0-2.891-.042-4.327-.053-1.49-.255-1.68-1.746-1.68h-20.292c-2.458,0-4.92.038-7.372-.042-.407-.01-.784-.224-1.191-.452-.222-.119-.389-.312-.347-.444.018-.138.269-.237.519-.237h28.838c1.539,0,1.556-.022,1.556-1.586.009-3.254.009-6.505.009-9.765,0-1.37-.025-1.393-1.405-1.389-12.362.061-24.725.132-37.095.193-1.334.013-1.59-.104-1.835-1.36-.042-.253.142-.407.386-.365.243.052.456.092.674.142.321.042.694.219.948.103.199-.085.467-.621.38-.733-.2-.3-.565-.535-.899-.669-.634-.214-1.286-.375-1.831-.519-.262-.072-.415-.325-.373-.587.09-.441.156-.83.243-1.197.046-.257.052-.463.008-.445-.051,0,.022-.171.158-.398.067-.12.117-.208.183-.31.124-.224.044-.497-.191-.622-.221-.116-.465-.24-.702-.334-.61-.237-1.329-.325-1.853-.69-.496-.344-.265-.569-.011-.772.2-.185.355-.562.275-.811-.154-.631-.661-.767-1.445-.586-.269.046-.366-.061-.246-.298.011-.033.025-.059.046-.088.111-.242.41-.352.653-.259.404.158.763.305,1.071.259.156-.035.275-.373.398-.755.089-.229.372-.413.628-.382.377.042.804.09,1.284.152.262.023.602.211.778.4.453.483.661.424,1.26-.321.186-.196.275-.15.29.11.027.795.371,1.037,1.258.811.254-.052.388.065.296.309-.07.273-.144.496-.196.72-.068.312-.18.668-.1.943.074.185.519.415.69.325.247-.102.434-.42.57-.693.194-.382.317-.794.461-1.205.049-.186.12-.498.042-.575-.256-.213-.584-.338-.871-.488-.132-.061-.266-.106-.392-.156-.205-.075-.337-.23-.293-.332.046-.115.284-.173.536-.135.647.074,1.337.094,1.739.447.815.712,1.228.526,1.548.055.15-.215.305-.215.378.027.106.29.223.604.425.797.099.085.284.043.487,0,.232-.067.639-.029.868.085.467.246.894.468,1.324.694.234.121.396.315.361.413-.031.109-.233.192-.448.205-.158,0-.294-.013-.369-.086-.394-.39-.745-.613-1.186-.146-.134.168-.231.673-.158.721.234.138.497.232.763.288.253.068.656.188.876.309.26.154.501.312.744.277.543-.075.667-.557.411-1.103-.034-.093.299-.337.403-.53.128-.254.339-.584.259-.767-.11-.24-.448-.386-.714-.527-.136-.064-.266-.13-.388-.169-.225-.071-.356-.252-.269-.405.075-.154.335-.206.562-.09.85.376,1.57.793,2.32.858.665.052.871-.396.74-.89-.065-.247.021-.431.285-.431.672,0,1.329-.013,1.977.033.068.009.153.565.134.866-.032.348-.376.822-.242,1.003.19.246.696.266,1.038.42.159.066.407.182.407.283.014.154-.029.314-.09.527-.066.259-.244.301-.373.111-.112-.17-.2-.273-.286-.321-.314-.102-.711-.244-.963-.146-.18.075-.359.615-.268.799.146.253.534.356.83.515.287.138.615.201.882.355.537.344,1.161.096,1.068-.34-.15-.672.181-.989.52-1.324.191-.176.168-.466-.021-.633-.217-.189-.438-.373-.66-.536-.099-.07-.198-.108-.33-.15-.165-.065-.242-.293-.146-.504.085-.213.21-.171.377.01.52.526,1.497.159,1.956.645.19.18.425.347.656.234.52-.222.844-.553.411-1.256-.132-.231-.064-.386.19-.407.32-.034.586-.059.705.055.675.661,1.18.536,1.708.066.206-.167.268-.121.167.11-.228.53-.459,1.047-.553,1.6-.02.147.167.343.369.539.186.181.496.203.703.039.184-.171.377-.356.503-.553.076-.115.105-.252.126-.386.021-.215.226-.327.455-.21.893.423,1.644.897,2.451.955.458.022.761.177,1.018.36.216.159.571.315.822.344.21.013.431.017.643.029.26.021.495.092.528.15.03.068-.081.202-.235.302-.105.08-.184.14-.244.234-.139.215-.284.722-.248.751.738.425,1.477.884,2.265,1.059.195.05.505-.413.892-.892.151-.21.505-.306.759-.241.511.151,1.161.343,1.822.515.2.057.409.128.609.189.162.022.31.072.463.102.248.068.356.275.239.481-.072.114-.149.245-.18.39-.06.322-.102.919.012.969,1.076.435.867,1.446,1.099,2.253.027.077.057.17.087.257.055.112.297.292.555.252.367-.052.495-.348.495-.823-.013-1.449,0-2.898.035-4.343,0-.662-.267-.965-.955-1.04-4.42-.389-8.253-2.185-11.71-4.935-.392-.318-1.039-.463-1.568-.46-9.953.02-19.889.07-29.833.142-.851.01-1.381-.176-1.453-1.105-.031-.27.193-.475.458-.475h29.739c.252,0,.483-.084.517-.174.033-.09-.105-.317-.285-.491-2.086-2.072-2.943-4.73-3.44-7.529-.237-1.275-.325-2.588-.333-3.873-.074-8.646-.104-17.291-.168-25.932-.01-1.76.021-1.776,1.726-1.776,5.216,0,10.42-.025,15.639.017.984.014,1.282-.303,1.273-1.298-.107-7.68-.158-15.335-.193-23.002,0-.965-.294-1.352-1.325-1.311-14.627.483-28.881,2.803-42.475,8.451-1.301.531-2.56,1.123-3.925,1.738-.231.101-.442-.015-.476-.26-.011-.142-.021-.277-.021-.428,0-4.374.01-8.752-.032-13.126,0-.965.331-1.498,1.215-1.905"/>
  <path d="M89.706,67.957c.248.069.645.172.9.281.309.113.604.255.806.157.463-.192.498-.555.347-.943-.102-.241-.222-.4-.195-.389,0,.014-.206.006-.461.045-.441.065-.909.164-1.196-.44-.053-.082-.573-.023-.669.094-.176.244-.348.836-.266.87.228.155.48.237.734.325"/>
  <path d="M98.351,67.65h0c-.265.068-.511.114-.55.068-.034,0-.064-.024-.088-.038-.378-.164-.75-.359-1.142-.451-.044-.014-.107.147-.203.317-.08.193.03.449.254.562.239.13.458.243.7.369.171.066.36.098.53.17.18.052.354.124.519.185.258.104.48-.034.497-.289.014-.148.035-.27.035-.407.057-.264.033-.505-.021-.549-.031-.042-.285-.024-.531.061"/>
  <path d="M42.628,53.969c0,8.487-.029,16.978,0,25.469.024,2.821.679,5.523,2.11,7.98,2.841,4.863,7.258,7.533,12.565,8.878,1.577.406,3.331.817,4.898.56,4.669-.753,8.876-2.761,12.473-5.903,3.268-2.879,5.092-6.404,5.044-10.91-.1-8.816-.033-17.646,0-26.456,0-.945-.257-1.25-1.211-1.233-5.698.04-11.411.019-17.132.019-5.706-.019-11.412-.019-17.121-.006-1.488,0-1.626.125-1.626,1.604M61.085,53.592c5.289,0,10.554.029,15.842-.017,1.058-.013,1.456.244,1.444,1.385-.057,8.491.012,16.985-.057,25.495-.02,3.957-2.051,6.996-4.876,9.556-3.223,2.93-7.052,4.748-11.329,5.56-.71.141-1.517.013-2.25-.138-4.312-.845-8.383-2.214-11.531-5.522-2.891-3.062-4.327-6.821-4.405-10.901-.136-8.062,0-16.13-.014-24.199-.006-.942.289-1.234,1.24-1.224,5.31.035,10.619.014,15.936.006"/>
  <path d="M96.551,27.491c1.545.498,3.139.858,4.684,1.32,1.871.566,3.742,1.166,5.615,1.776.245.075.477-.074.507-.331.235-1.687.105-1.763-1.631-2.363-2.011-.694-4.048-1.324-6.086-1.938-1.202-.365-1.418-.581-1.033-1.832.088-.243.361-.387.605-.309,2.553.781,5.117,1.572,7.68,2.358.257.069.478-.066.511-.33.142-1.448.021-1.534-1.529-2.062-2.276-.755-4.595-1.445-6.892-2.137-.254-.086-.461-.359-.461-.611v-.718c0-.26.207-.421.461-.346,2.663.759,5.239,1.479,7.818,2.205.244.07.482-.07.549-.331.332-1.528.176-1.638-1.462-2.153-1.75-.562-3.519-1.081-5.28-1.553-1.418-.395-2.839-.71-4.23-1.041-.253-.078-.482-.048-.553.038-.033.076-.056.126-.056.159-.02,3.142-.046,6.298,0,9.438,0,.268.465.664.783.759"/>
  <path d="M13.632,31.503c0,.257.213.437.476.395,2.008-.363,2.248-.712,2.261-2.676,0-.776.348-1.124.984-1.347,2.398-.876,4.788-1.759,7.223-2.614,1.06-.365,1.609-.992,1.591-2.133-.039-1.084-.066-2.171-.039-3.246.048-1.059-.565-1.539-1.476-1.664-.544-.062-1.17-.02-1.699.163-2.891.964-5.787,1.978-8.662,3.051-.294.11-.615.663-.615,1.014-.065,2.244-.043,4.483-.043,6.728v2.329ZM16.423,23.36c0-.264.197-.545.443-.629,1.936-.636,3.918-1.315,5.917-1.921.334-.1,1.128.209,1.128.337.012.601-.012,1.584-.331,1.72-2.173.892-4.393,1.647-6.714,2.454-.246.09-.443-.046-.443-.307v-1.654Z"/>
  <path d="M57.773,19.196c2.058-.013,4.11.065,6.176.065.689,0,1.155.245,1.134.964-.022.721-.636.648-1.134.639-1.728,0-3.478-.024-5.2,0-.733.01-1.445.061-2.166.117-.253.02-.465.24-.465.501v1.022c0,.256.212.472.465.472,2.693,0,5.331-.06,7.951.016,2.762.092,2.837-.988,2.943-3.147.031-.354-.106-.716-.14-1.07-.112-.954-.588-1.525-1.602-1.562-2.13-.065-4.247-.131-6.37-.184-.553-.009-1.259.275-1.359-.598-.121-.938.584-1.037,1.26-1.062,1.345-.052,2.68-.114,4.004-.14,1.006-.028,2.009-.015,3.095-.01.256,0,.474-.132.485-.296,0-.086.006-.192.019-.284.178-1.085-.199-1.533-1.387-1.5-2.043.042-4.108-.138-6.169-.094-3.302.06-3.915.067-3.701,4.223.068,1.446.717,1.941,2.16,1.93"/>
  <path d="M27.83,22.645c-.013.853-.021,1.712.009,2.562.033,1.554.841,2.137,2.331,1.76,2.446-.601,4.887-1.249,7.351-1.788,1.58-.357,2.185-.932,2.217-2.534.033-1.844.033-3.679,0-5.523-.021-1.429-.824-2.186-2.236-1.927-2.72.485-5.447,1.094-8.157,1.648-1.105.205-1.601.925-1.622,1.98-.024.957-.014,1.923-.014,2.873.014.267.035.478.058.478.031,0,.065.208.065.471M31.377,18.655c1.582-.35,3.16-.679,4.755-.95.804-.142,1.244.244,1.223,1.084-.023.583,0,1.167,0,1.735-.03,2.772.411,2.277-2.352,3.004-1.156.305-2.311.568-3.442.896-.874.257-1.325.038-1.312-.926.008-1.115-.024-2.228-.013-3.343,0-.783.377-1.345,1.142-1.5"/>
  <path d="M42.226,24.248c1.731.176,1.943-.151,1.982-1.924,0-.079.015-.155,0-.22-.073-.747.255-1.041.996-1.081,1.14-.077,2.3-.213,3.444-.335,1.975-.228,2.25-.048,2.881,1.84.111.293.439.7.706.738.471.052.947-.021,1.574-.072.267-.023.391-.231.295-.493-.398-1.014-.764-1.955-1.153-2.944-.096-.243-.077-.623.053-.851.454-.957.555-1.64.454-3.252-.096-1.531-.612-2.165-2.148-2.093-2.959.173-5.906.452-8.839.747-.258.017-.69.467-.69.725-.044,2.89-.018,5.793-.018,8.688,0,.26.208.499.463.527M44.346,16.627c.028-.218.352-.535.585-.562,1.609-.192,3.209-.309,4.828-.467.765-.065,1.117.274,1.159,1.036.05.792-.008,1.562-.935,1.679-1.686.228-3.391.341-5.19.509-.255.017-.467-.168-.475-.441-.01-.613-.036-1.191.027-1.754"/>
  <path d="M82.83,24.557c.455.085.897.171,1.376.261.269.056.456-.138.456-.395v-3.414c0-.247.224-.415.465-.369,1.991.451,3.824.86,5.672,1.322.18.043.358.483.376.765.058.938-.007,1.872.069,2.815.008.275.287.66.528.751.401.163.828.228,1.315.326.262.05.464-.125.464-.381,0-3.156.009-6.219-.023-9.276,0-.193-.273-.515-.476-.575-.433-.125-.87-.192-1.388-.261-.254-.048-.467.136-.467.392v2.808c0,.251-.198.427-.457.373-1.944-.408-3.739-.755-5.539-1.176-.224-.048-.468-.491-.495-.771-.076-.752.014-1.522-.046-2.282-.018-.253-.23-.635-.435-.69-.436-.13-.899-.176-1.385-.228-.253-.022-.473.155-.473.421v9.025c0,.259.22.502.461.559"/>
  <path d="M70.733,23.218c1.372.078,2.739.228,4.096.373,1.779.189,3.554.396,5.322.597.253.018.492-.15.559-.407.275-1.406.083-1.536-1.456-1.75-2.175-.289-4.357-.493-6.545-.794-.295-.042-.805-.377-.805-.577-.077-1.464-.055-2.9-.046-4.571,0-.261.213-.459.464-.435,2.682.216,5.275.421,7.89.622.251.018.469-.168.469-.433v-1.201c0-.253-.218-.475-.469-.497-3.106-.254-6.113-.511-9.125-.711-.972-.065-1.64.625-1.654,1.616-.039,2.281-.013,4.562-.031,6.835,0,.904.447,1.27,1.331,1.333"/>
  <path d="M94.094,43.494c.167.08.421-.008.637.052.207.056.421.134.63.205.245.09.509-.035.585-.273.076-.195.142-.408.222-.649.079-.231.339-.356.57-.243.17.062.343.124.522.162.308.072.667.104.962.03.12-.03.256-.511.177-.623-.191-.248-.492-.425-.799-.57-.171-.093-.428-.021-.605-.09-.22-.072-.434-.176-.648-.271-.231-.112-.495-.016-.599.239-.07.18-.156.381-.258.612-.107.24-.325.511-.528.595-.194.105-.342-.021-.353-.261,0-.21,0-.373.067-.424.744-.502.665-.941.286-1.347-.182-.207-.553-.266-.77-.134-.375.22-.599.539-.388,1.171.046.133-.243.36-.342.565-.091.232-.29.588-.198.714.185.25.52.407.83.539"/>
  <path d="M107.158,46.603c-.255-.074-.499-.188-.756-.275-.281-.081-.631-.277-.844-.172-.142.048-.24.172-.342.345-.14.214-.189.433-.117.497.077.042.027.231-.08.402-.078.116-.153.236-.178.348-.076.327-.102.699-.032,1.014.032.136.483.341.557.29.52-.424.721.069,1.068.272.231.133.815.145.859.037.317-.712.571-1.466.738-2.23.048-.128-.345-.376-.57-.543-.06-.048-.212.046-.304.017"/>
  <path d="M68.691,44.716c.184.082.661-.095.722-.259.215-.526.351-1.088.53-1.788.076-.249-.059-.534-.293-.646-.494-.222-1.059-.477-1.631-.672-.195-.07-.5.129-.732.255-.092.054-.207.279-.164.379.258.561,0,.904-.434,1.226-.08.071-.148.363-.123.363.703.404,1.395.825,2.125,1.143"/>
  <path d="M31.926,103.114c-.202-.094-.388-.193-.575-.287-.184-.1-.44-.206-.496-.354-.05-.161.109-.379.161-.587.112-.337.289-.706.245-1.02-.017-.134-.672-.375-.771-.284-.266.25-.382.64-.531.991-.065.16-.075.364-.138.55-.052.189-.125.405-.192.611-.074.249.055.507.309.588.148.048.299.096.475.142.245.088.489.352.531.615.022.094.043.209.065.328.044.27.245.326.443.158.14-.105.255-.209.351-.329.114-.157.222-.338.317-.515.136-.224.046-.511-.193-.608"/>
  <path d="M73.698,48.945c.104-.216.084-.485.157-.717.072-.318.379-.754.279-.88-.207-.235-.616-.301-.959-.423-.191-.061-.388-.107-.597-.159-.281-.038-.557-.092-.83-.147-.264-.046-.428.125-.373.383.01.086.043.18.065.289.044.237.099.457.109.457.015,0,.242.024.496.038.039,0,.077,0,.145.01.244.012.375.21.256.449-.066.163-.149.34-.17.517-.054.268-.008.62.138.817.13.16.57.279.717.18.255-.18.427-.511.566-.812"/>
  <path d="M79.925,47.165c-.275-.035-.524-.06-.802-.077-.254-.01-.429.19-.383.44,0,.065,0,.108.018.164.034.261.111.517.157.574.057.056.309.091.573.091h.277c.253,0,.459.125.393.257-.042.125-.106.163-.132.228-.186.335-.421.686-.43,1.041-.009.116.666.476.799.396.261-.215.407-.634.58-.96.092-.197.148-.421.223-.633.088-.265.321-.634.222-.791-.146-.24-.516-.378-.814-.52-.202-.111-.455-.184-.682-.21"/>
  <path d="M23.643,101.404c.269.113.5.337.773.431.235.074.605.104.753-.021.2-.184.374-.561.319-.805-.065-.224-.415-.429-.674-.545-.331-.145-.748-.129-1.067-.293-.609-.329-1.163-.149-1.12.527.009.469.033.756-.386,1.057-.162.128-.145.764.035.964.146.18.635.112.949.061.101-.022.185-.086.277-.172.108-.134.217-.224.192-.22-.005.026-.094-.163-.205-.389-.09-.235-.09-.459-.028-.523.087-.056.149-.094.181-.071"/>
  <path d="M105.303,74.536c-.019.031.012.079,0,.116-.086.335-.193.674-.241,1.012-.064.291-.151.647-.034.876.094.175.564.376.688.312.255-.172.432-.505.56-.802.078-.18.104-.387.128-.664.042-.254.216-.306.396-.104.518.567.918.928,1.441.189.113-.189.008-.808-.122-.865-.74-.283-1.522-.481-2.286-.627-.14-.025-.35.363-.529.557"/>
  <path d="M47.389,97.868c.09.032.146.058.24.066.136.017.235.149.211.294-.008.112-.025.207-.096.263-.672.536-.419.909.088,1.402.191.184.452.14.592-.082.162-.257.312-.494.413-.716.122-.283.173-.595.256-.9.056-.286.226-.652.117-.848-.117-.212-.509-.279-.786-.398-.271-.094-.538-.184-.824-.226-.364-.052-.73-.067-1.095-.01-.08.022-.207.553-.132.623.296.215.664.382,1.016.53"/>
  <path d="M87.059,70.777c.211-.208.356-.503.464-.776.045-.117.064-.237.089-.354.009-.196.176-.277.387-.171.132.064.258.132.386.171.287.07.652.18.853.053.201-.124.373-.559.297-.79-.061-.231-.498-.606-.645-.554-.689.275-.977-.127-1.27-.515-.161-.209-.444-.205-.638-.016-.159.17-.297.343-.307.518-.036.58-.062,1.085-.466,1.566-.108.129.124.592.296.861.051.09.447.094.553.006"/>
  <path d="M74.898,44.785c.222.107.48.155.736.206.31.067.666.227.922.125.182-.061.395-.644.297-.732-.213-.26-.586-.389-.909-.537-.119-.048-.264-.075-.439-.096-.264-.035-.299-.215-.113-.395.507-.48.899-.846.209-1.406-.163-.128-.79-.064-.835.066-.296.732-.517,1.478-.653,2.249-.019.126.486.379.786.521"/>
  <path d="M101.388,44.026c.267.12.587.168.888.224.328.051.683.176.979.094.153-.043.352-.593.257-.702-.215-.257-.566-.436-.889-.578-.16-.076-.347-.088-.638-.108-.253-.027-.33-.203-.124-.357.167-.145.266-.213.292-.305.088-.197.123-.377.176-.574.061-.252-.088-.511-.353-.593-.189-.062-.379-.098-.507-.015-.223.128-.247.601-.375.925-.066.231-.179.46-.269.678-.101.241-.334.583-.24.711.172.273.505.452.804.602"/>
  <path d="M87.256,48.897c.1.064.193.103.302.107.355.03.749.017,1.093-.107.077-.026.088-.721-.033-.776-.637-.335-1.335-.629-2.033-.802-.198-.042-.751.488-.703.646.164.61-.121.932-.465,1.364-.084.106.044.392.176.669.122.241.297.434.415.434.116.009.318-.171.437-.406.128-.221.232-.456.352-.666.028-.107.058-.21.102-.317.057-.163.215-.231.359-.146"/>
  <path d="M100.238,46.053c-.101-.063-.33.103-.494.103-.198-.013-.389-.103-.574-.132-.364-.108-.819-.373-1.064-.246-.43.25-.378.559-.219.884.114.224.432.503.676.396.275-.107.582-.304.76-.069.172.197-.009.576-.163.772-.497.571-.497.939-.015,1.172.21.073.674.035.744-.082.329-.694.626-1.433.816-2.175.051-.154-.267-.461-.467-.621"/>
  <path d="M100.695,73.257c.219.096.434.177.648.285.21.097.408.257.641.356.243.088.571.238.752.141.232-.124.426-.446.549-.713.134-.301.202-.639.246-.96.056-.317.151-.703,0-.957-.082-.159-.611-.27-.795-.154-.209.154-.299.531-.398.828-.062.164-.098.322-.142.541-.046.261-.235.326-.399.105-.181-.205-.353-.381-.537-.604-.157-.196-.397-.181-.514.067-.098.173-.177.317-.257.473-.125.231-.017.497.205.591"/>
  <path d="M93.001,45.774c-.103-.084-.225-.167-.358-.23-.319-.145-.691-.223-1.056-.278-.288-.048-.628-.091-.884.013-.163.077-.334.496-.243.626.124.231.441.522.686.519.956-.048,1.346.078.511.977-.138.15.021.721.218.931.119.138.782.048.84-.086.211-.527.339-1.067.495-1.744.075-.258-.019-.591-.209-.727"/>
  <path d="M42.801,100.549c.031-.257.19-.349.414-.205.134.102.289.188.443.199.177.017.373-.038.564-.098.24-.073.391-.339.315-.597-.062-.247-.13-.488-.192-.488-.664.022-1.175-.493-1.684-.549-1.243-.138-.517,1.183-.934,1.773-.147.226-.283.439-.168.667.094.167.202.331.352.39.496.223.834-.206.889-1.093"/>
  <path d="M50.609,101.561c-.15-.086-.302-.18-.459-.295-.224-.138-.244-.392-.038-.546.157-.138.279-.231.291-.348.042-.15.021-.308-.012-.459-.036-.262-.279-.445-.541-.417-.234.02-.461.041-.532.167-.317.524-.539,1.165-.661,1.772-.029.219.445.759.584.726.575-.125.861.142,1.093.481.146.217.467.448.72.393.352-.082.551-.355.491-.77-.04-.276-.608-.483-.935-.704"/>
  <path d="M81.314,46.708c.192.048.382.129.569.199.121.018.287-.044.375.018q1.089.603,1.398-.648c.016-.069.07-.121.105-.184.604-1.073.69-1.201-.223-1.498-.24-.064-.604.035-.619.297-.007.394.164.86-.107,1.149-.204.186-.469.159-.511.102-.044-.05-.079-.081-.11-.093-.165-.087-.338-.16-.505-.236-.243-.098-.507.008-.619.248-.009.008-.009.021-.02.031-.09.234.02.51.267.615"/>
  <path d="M66.756,51.093c.042,0,.083,0,.114.009.253.014.545-.167.622-.413.017-.103.051-.193.077-.261.077-.25.297-.348.494-.227.11.067.23.142.363.185.273.059.686.14.884.007.189-.125.317-.716.222-.798-.2-.146-.453-.272-.71-.36-.241-.104-.469-.133-.496-.062-.046.074-.206-.038-.397-.212-.559-.475-1.091-.484-1.259.06-.148.473-.222,1.005-.306,1.565-.033.258.152.495.391.508"/>
  <path d="M87.038,75.248c0-.03-.542.033-.726.187-.138.131-.116.458-.168.681-.042.18-.076.35-.122.543-.058.235.046.639.311.635.289-.015.489-.343.725-.613.176-.176.464-.141.561.034.062.099.134.201.246.258.198.137.551.249.751.171.205-.094.465-.429.465-.655-.011-1.42-1.686-.257-2.044-1.239"/>
  <path d="M103.383,70.35c.148.199.319.369.512.511.254.185.647.227.961.292.254.061.549.163.774.081.131-.046.222-.146.327-.287.142-.17.15-.497.013-.703-.108-.163-.198-.288-.321-.334-.558-.234-1.162-.42-1.754-.478-.154-.017-.308.102-.455.259-.196.164-.226.466-.057.659"/>
  <path d="M41.266,101.998c-.321-.193-.73-.231-1.105-.287-.289-.047-.687-.138-.851,0-.19.153-.292.604-.209.827.098.218.476.327.751.445.309.133.649.22.955.361.096.03.18.073.301.141.146.095.399.017.583-.192.166-.19.339-.379.326-.559-.013-.268-.448-.573-.751-.736"/>
  <path d="M33.77,101.509c-.227-.115-.529-.142-.796-.207-.344-.05-.719-.2-1.048-.122-.11.022-.279.603-.178.796.09.18.241.298.417.411.21.151.451.202.521.086.068-.086.264-.038.411.088.094.09.196.157.308.195.297.09.664.147.928.044.184-.065.385-.56.308-.639-.21-.279-.54-.48-.87-.652"/>
  <path d="M104.349,49.398c-.255-.106-.523-.2-.786-.264-.309-.058-.676-.229-.928-.13-.197.091-.417.591-.33.776.075.153.223.282.376.413.219.148.438.199.517.118.057-.086.273-.044.485.09.109.072.243.159.389.193.307.094.717.164.966.022.172-.1.277-.636.148-.825-.14-.215-.532-.286-.837-.395"/>
  <path d="M40.954,99.39c.258-.119.418-.511.543-.806.071-.193-.066-.562.054-.646.595-.442.495-.855.229-1.243-.133-.231-.475-.314-.717-.219-.077.033-.161.059-.231.092-.244.104-.471.382-.488.65-.033.321-.062.634-.11.955-.031.317-.165.69-.052.922.108.196.601.389.773.295"/>
  <path d="M89.113,72.323c-.077.313-.167.713-.042.94.096.192.616.354.791.253.244-.134.375-.52.507-.814.125-.261.171-.56.237-.84.064-.314.209-.696.088-.936-.097-.181-.599-.321-.817-.248-.138.056-.259.184-.356.335-.142.214-.192.436-.101.497.081.064.031.264-.092.453-.091.118-.161.231-.215.36"/>
  <path d="M95.812,69.793c.124.245.51.367.802.519.261.138.559.237.845.331.246.072.553.234.724.153.169-.081.296-.24.447-.446.155-.202.111-.471-.099-.633-.219-.142-.398-.267-.611-.373-.296-.147-.625-.247-.956-.317-.289-.069-.667-.168-.86-.036-.199.139-.381.598-.291.803"/>
  <path d="M78.387,48.338c-.333.092-.654.036-.994-.287-.181-.157-.678-.076-.953.056-.127.038-.233.571-.127.716.181.225.54.353.838.465.192.072.415-.022.615.035.353.127.751.482,1.005.38.475-.175.484-.526.407-.896-.077-.249-.206-.485-.263-.541-.046-.058-.281.013-.528.072"/>
  <path d="M104.885,45.162c.092-.18.143-.387.206-.566.074-.244-.064-.526-.303-.625-.193-.085-.396-.136-.515-.073-.233.129-.317.584-.448.917-.062.168-.072.36-.11.541-.032.231-.075.473-.108.728-.033.253.134.499.396.549.211.034.391.048.451-.029.142-.164.2-.39.245-.627.054-.244.054-.476-.022-.505-.064-.021-.023-.086.064-.154.069-.039.126-.096.145-.155"/>
  <path d="M38.623,101.408c-.085-.142-.303-.228-.54-.289-.252-.068-.525.061-.621.305-.061.189-.138.359-.205.553-.054.206-.134.428-.168.644-.046.21-.075.429-.095.634-.035.261.129.507.347.553.173.055.335.064.39,0,.146-.157.242-.36.31-.565.084-.254.107-.476.042-.515-.062-.034-.042-.124.065-.189.068-.039.114-.071.149-.138.149-.335.442-.788.325-.993"/>
  <path d="M81.578,45.12c.225.158.777-.129,1.153-.275.081-.027.141-.098.189-.176.1-.115-.067-.243-.253-.437-.154-.147-.088-.365.231-.686.221-.207.233-.683.186-1.031-.023-.105-.604-.311-.715-.222-.251.222-.396.579-.545.912-.115.207-.044.562-.202.681-.533.427-.498.941-.044,1.234"/>
  <path d="M26.253,98.366c.253-.119.577-.617.516-.763-.244-.489,0-.645.286-.946.168-.193.168-.671.066-.945-.054-.149-.551-.304-.736-.21-.132.069-.258.192-.36.347-.146.211-.206.436-.146.507.084.055.03.257-.102.438-.092.118-.163.236-.205.359-.103.296-.202.686-.096.936.096.185.597.386.777.277"/>
  <path d="M36.294,100.528c-.273,0-.805.359-.771.522.075.601-.01,1.056-.451,1.488-.069.096.177.673.396.832.147.128.72-.025.793-.184.191-.524.334-1.081.498-1.764.05-.243.013-.582-.147-.729-.081-.091-.206-.167-.318-.167"/>
  <path d="M96.805,74.506c-.071-.106-.594-.077-.731.063-.18.199-.317.598-.233.819.075.223.448.366.711.46.234.073.5.044.743.073.228.05.465.115.694.174.265.065.469-.103.478-.363,0-.134.011-.257.011-.382.011-.271.031-.472.042-.463,0,0-.188.013-.451.039-.46.059-.917.132-1.264-.421"/>
  <path d="M103.521,42.955c.33.218.753.373,1.146.401.21.014.434-.056.652-.108.25-.08.396-.346.354-.612-.052-.231-.104-.459-.23-.52-.466-.207-1.006-.291-1.66-.425-.251-.046-.574,0-.716.151-.098.09-.18.21-.167.308.045.293.344.627.621.804"/>
  <path d="M101.089,48.451c-.246.134-.394.498-.531.789-.14.267-.231.565-.307.841-.078.262-.233.553-.163.756.042.142.213.222.479.372.224.125.497.043.601-.192.11-.241.215-.455.286-.658.121-.277.253-.533.331-.818.075-.274.209-.66.099-.842-.132-.196-.623-.341-.795-.247"/>
  <path d="M69.724,45.739c-.054.341-.158.71-.073,1.018.029.146.62.321.686.255.211-.267.33-.622.466-.958.086-.188.162-.389.252-.564.075-.122.151-.247.267-.387.15-.204.11-.497-.09-.657-.221-.195-.429-.347-.63-.36-.219-.016-.521.469-.671.772-.145.25-.153.581-.207.883"/>
  <path d="M77.711,41.861c.064.003.13-.012.197-.039.112-.044.258,0,.331.111.056.061.098.12.167.146.288.134.643.338.887.272.195-.061.452-.614.356-.748-.161-.283-.536-.437-.857-.595-.222-.125-.497-.241-.764-.283-.35-.04-.734-.086-1.048.038-.141.056-.243.643-.128.806.151.201.549.227.858.293"/>
  <path d="M66.99,45.828c.106-.037.191-.144.279-.291.146-.203.078-.479-.111-.648-.196-.159-.386-.301-.585-.399-.363-.159-.794-.261-1.202-.295-.28-.048-.64-.032-.849.118-.138.121-.204.553-.108.729.138.228.435.396.711.495.335.147.696.208,1.085.277.252.052.546.102.78.014"/>
  <path d="M33.708,98.843c.36-.79.667-1.605.901-2.411.017-.077-.172-.215-.391-.382-.222-.149-.517-.11-.703.082-.199.213-.379.398-.337.489.258.6-.023.905-.363,1.304-.123.141-.071.637.066.749.215.169.806.237.826.169"/>
  <path d="M27.63,100.489c-.022-.305-.075-.575-.13-.871-.056-.257-.094-.459-.069-.445,0,.013-.196.051-.462.09-.398.055-.784.055-1.107-.398-.066-.103-.544-.052-.746.077-.18.099-.317.591-.301.597.716.407,1.425.807,2.167,1.132.167.054.648-.133.648-.181"/>
  <path d="M55.971,99.532c-.181-.129-.338-.222-.476-.205-.289.064-.584.381-.777.664-.178.27-.275.627-.354.974-.066.279-.163.642-.031.836.132.218.587.424.771.355.231-.138.359-.517.485-.813.115-.24.158-.52.279-.76.062-.137.133-.261.243-.398.143-.223.075-.502-.14-.652"/>
  <path d="M101.512,71.766c.295-.102.558-.385.738-.664.212-.331.328-.756.417-1.149.036-.249.048-.652-.089-.756-.116-.106-.294-.142-.463-.188-.255-.052-.51.12-.575.36-.023.097-.053.18-.072.268-.067.256-.067.504-.023.555.067.052,0,.142-.138.206-.086.052-.159.086-.203.151-.136.26-.312.577-.254.809.065.193.494.454.662.408"/>
  <path d="M100.549,75.274c.251-.025.516-.228.516-.484,0-.583-.282-.926-1.114-.828-.166.018-.415-.06-.507-.193-.396-.45-.761-.485-1.18-.059-.337.355-.308.633-.082.88.182.2.338.299.338.299-.021-.009.163-.048.404-.09.202-.057.384-.067.413-.009.315.57.764.532,1.212.484"/>
  <path d="M89.389,74.117c-.267-.064-.591-.03-.752.11-.12.087-.232.202-.218.257.146.362.428.684.748.89.297.205.686.308,1.035.33.189.017.382-.022.586-.057.263-.068.432-.321.411-.566-.024-.201-.042-.395-.14-.424-.488-.228-1.028-.36-1.671-.54"/>
  <path d="M98.152,47.508c-.033-.259-.277-.469-.529-.421-.363.077-.736.167-1.039-.325-.065-.101-.553-.054-.761.056-.153.084-.333.473-.257.612.131.258.393.489.666.621.231.094.618-.066.781.069.376.317.745.798,1.139.228.111-.203.069-.519,0-.84"/>
  <path d="M88.814,47.516c.397.214.86.361,1.304.411.309.025.784-.076.904-.273.113-.184-.055-.8-.233-.888-.502-.224-1.049-.351-1.699-.523-.251-.054-.586.004-.718.172-.106.114-.171.239-.171.351.021.274.347.601.613.75"/>
  <path d="M96.442,72.885c-.096.271-.146.653,0,.862.129.206.562.377.762.292.225-.078.383-.439.509-.707.122-.262.193-.567.233-.859.042-.347.1-.72.01-1.063-.023-.134-.498-.33-.578-.274-.16.119-.285.274-.415.438-.158.213-.229.431-.146.507.069.055.011.269-.152.444-.081.121-.167.228-.223.36"/>
  <path d="M94.113,71.153c.107-.013.21-.013.319-.017.254-.01.453-.01.443.004.01-.014.086.176.176.395.067.238.048.47-.032.546-.068.037-.134.084-.144.142-.088.338-.21.691-.145,1.015.029.168.598.377.652.318.235-.259.373-.584.511-.919.077-.176,0-.442.094-.568.381-.404.706-.897.128-1.239-.18-.109-.497.02-.818.17-.231.104-.43.154-.421.142-.009.013.044-.193.096-.434.094-.385.193-.764.277-1.166.034-.292.123-.64.01-.854-.094-.18-.593-.343-.714-.248-.254.16-.407.511-.529.81-.061.197.021.442-.02.645-.061.281-.14.557-.213.826-.081.241.066.434.33.434"/>
  <path d="M77.325,47.54c.163.091.407-.032.532-.256.119-.228.261-.447.351-.682.129-.267.198-.561.309-.851.079-.248.298-.612.224-.723-.189-.216-.555-.415-.816-.399-1.041.09-.444,1.184-.773,1.732-.146.224-.319.433-.246.643.046.124.1.241.163.355.039.077.116.109.258.18"/>
  <path d="M97.124,48.841c-.307,0-.618-.156-.935-.224-.273-.056-.635-.222-.816-.107-.191.113-.366.585-.285.777.118.244.487.39.772.518.208.077.575-.024.647.087.365.582.742.51,1.136.33.233-.115.404-.43.335-.69-.076-.373-.264-.677-.853-.69"/>
  <path d="M93.87,74.065c.054-.12-.087-.326-.31-.472-.155-.103-.327-.185-.44-.146-.639.196-1-.114-1.476-.399-.106-.064-.286-.012-.469.056-.238.092-.396.379-.346.636.042.196.086.348.203.424.555.309,1.195.557,1.842.662.146.016.336-.105.531-.258.197-.173.411-.391.465-.502"/>
  <path d="M85.701,72.441c.101.122.764.012.851-.155.107-.253.071-.893-.08-.956-.493-.212-1.046-.327-1.706-.481-.241-.052-.58,0-.72.154-.101.115-.21.248-.176.313.102.335.572.826.698.788.528-.204.792-.032,1.133.337"/>
  <path d="M70.104,47.596c-.129-.174-.637-.18-.889-.088-.171.056-.359.543-.29.677.164.262.488.463.784.596.182.09.553-.103.661.009.375.408.806.771,1.217.197.116-.176.087-.459.03-.759-.03-.253-.042-.48-.066-.48-.018,0-.241.024-.474.107-.332.12-.665.196-.974-.259"/>
  <path d="M92.415,71.393c-.154-.077-.377-.051-.601-.022-.251.038-.457.279-.446.539.012.231.031.469.127.513.499.223,1.04.329,1.696.49.258.058.602-.012.755-.188.113-.115.209-.253.191-.339-.122-.307-.732-.775-.816-.724-.503.382-.606-.129-.906-.271"/>
  <path d="M91.199,44.209c.127.235.229.451.296.434.657-.124,1.074.155,1.559.505.105.086.399-.076.763-.25.22-.113.287-.349.119-.555-.233-.287-.396-.509-.499-.477-.626.128-1.021-.159-1.497-.463-.103-.065-.307.042-.527.163-.237.13-.323.403-.213.643"/>
  <path d="M100.207,45.393c.19.189.351.346.477.331.577-.142.971-.017,1.344.459.079.094.615.03.709-.121.15-.208.215-.784.141-.833-.762-.364-1.533-.685-2.328-.929-.075-.036-.229.167-.394.395-.159.203-.146.505.052.698"/>
  <path d="M27.852,101.78c-.108.261-.214.644-.099.831.132.216.605.409.772.309.256-.142.408-.507.543-.81.107-.224.116-.493.184-.738.058-.321.277-.69.178-.951-.078-.185-.606-.426-.784-.321-.151.071-.267.223-.361.39-.137.231-.189.466-.102.523.092.068.036.254-.108.424-.098.113-.167.215-.223.344"/>
  <path d="M77.084,43.683c.469-.134.682-.029.957.321.125.176.555.224.751.145.138-.038.231-.155.351-.315.15-.199.102-.511-.086-.688-.209-.202-.4-.373-.474-.344-.562.289-.817-.115-1.19-.331-.255-.142-.655-.088-.963,0-.109.026-.224.503-.13.636.193.254.583.64.784.575"/>
  <path d="M57.811,100.207c-.212-.216-.632-.411-.887-.365-.129.044-.221.18-.32.352-.117.227-.156.459-.075.505.075.052.033.245-.081.431-.075.105-.14.214-.168.347-.094.288-.181.669-.094.929.038.163.578.375.662.301.254-.237.436-.581.586-.916.121-.249.191-.523.265-.798.062-.258.233-.669.112-.784"/>
  <path d="M72.086,45.822c.459.22.964.334,1.483.451.258.063.511.195.577.3.058.101.221.01.366-.21.108-.159.198-.312.162-.417-.14-.343-.471-.633-.796-.856-.266-.197-.619-.327-.944-.36-.224-.021-.469.004-.698.033-.255.036-.417.279-.376.543.046.231.101.439.226.517"/>
  <path d="M94.347,48.107c-.155-.101-.319-.18-.477-.18-.243,0-.549.352-.69.613-.19.365-.281.789-.348,1.214-.042.257-.042.678.125.824.173.149.749.133.826.004.276-.519.498-1.102.771-1.76.1-.251,0-.565-.208-.716"/>
  <path d="M22.798,98.856c.221-.15.241-.382.04-.536-.438-.378-.681-.641-.784-.592-.591.312-.856-.065-1.231-.361-.166-.129-.675-.029-.822.15-.159.162-.159.756-.03.819.673.338,1.383.651,2.127.832.18.042.413-.115.701-.312"/>
  <path d="M34.537,99.155c.062.137.192.235.317.339.218.147.446.192.499.124.06-.08.262-.016.463.13.118.094.246.172.383.214.293.104.671.155.945.039.145-.048.309-.55.222-.709-.163-.238-.51-.39-.785-.531-.266-.122-.561-.211-.836-.26-.332-.08-.689-.174-.972-.08-.156.061-.336.559-.236.734"/>
  <path d="M34.839,99.923c-.42-.18-.884-.283-1.354-.386-.25-.044-.555-.228-.669-.383-.104-.17-.293-.102-.397.13-.108.218-.198.455-.198.66,0,.256.453.736.575.707.565-.15.905.017,1.304.398.119.13.711-.073.935-.279.104-.119-.018-.78-.195-.848"/>
  <path d="M44.009,101.324c-.184-.195-.426-.401-.561-.482-.142-.07-.329.056-.429.303-.048.154-.1.313-.176.469-.136.453-.344.897-.412,1.371-.033.279.049.769.24.878.216.106.878-.101.878-.195.033-.733.359-1.351.704-1.955.028-.069-.085-.216-.245-.388"/>
  <path d="M83.685,43.248c-.082.09.035.628.198.698.615.303,1.29.576,1.963.722.142.03.329-.105.54-.278.202-.162.237-.451.079-.665-.169-.231-.307-.425-.42-.397-.619.084-1.032-.193-1.501-.483-.178-.094-.63.18-.859.403"/>
  <path d="M104.949,71.664c-.161-.202-.408-.186-.548.039-.209.302-.384.531-.33.677.192.492.022.707-.289,1.067-.08.111-.02.352.068.636.064.231.342.401.586.347.217-.029.399-.083.419-.158.152-.67.321-1.3.627-1.913.056-.11-.212-.366-.533-.694"/>
  <path d="M27.431,99.172c-.014-.014.185-.018.441-.048.42-.039.841-.071,1.122.442.062.091.567.073.713-.064.186-.186.353-.532.314-.793-.019-.184-.367-.369-.615-.436-.263-.1-.582-.045-.867-.078-.246-.025-.485-.067-.729-.102-.264-.039-.455.142-.436.408.01.074.023.144.032.222.011.257.024.463.024.45"/>
  <path d="M44.135,98.363c.13.247.51.398.818.539.274.121.582.155.867.271.097.044.202.106.328.176.183.12.444.042.603-.163.138-.168.251-.321.233-.473-.029-.26-.382-.539-.653-.686-.321-.174-.698-.213-1.051-.307-.275-.053-.661-.25-.828-.138-.212.125-.399.607-.317.781"/>
  <path d="M19.344,95.06c-.235-.048-.479.112-.566.356-.051.184-.103.38-.134.553-.023.064.01.146.031.202.04.103-.107.311-.317.459-.043.042-.096.064-.142.094-.209.145-.231.402-.042.582.097.087.194.189.284.288.195.171.429.147.565-.077.119-.227.24-.445.351-.674.121-.213.254-.442.308-.682.066-.301.17-.683.045-.934-.045-.09-.215-.138-.382-.167"/>
  <path d="M21.961,99.748c-.225-.138-.808-.181-.853-.084-.335.709-.608,1.439-.794,2.188-.038.117.178.31.438.562.188.176.425.147.543-.09.321-.682.608-1.243.825-1.832.079-.199,0-.65-.159-.744"/>
  <path d="M48.328,102.621c-.275-.153-.526-.331-.824-.409-.275-.056-.682-.117-.867.028-.174.141-.264.714-.159.796.201.151.448.241.696.34.245.081.479.11.51.043.023-.062.096-.048.148.003.043.043.074.094.118.108.321.144.644.342.974.351.119.004.411-.604.374-.639-.288-.244-.628-.415-.97-.621"/>
  <path d="M21.042,96.695c.227.098.454.124.505.071.021-.071.137.009.221.192.062.116.136.241.235.275.252.103.657.133.868.004.198-.128.348-.738.317-.755-.646-.368-1.323-.686-2.023-.973-.149-.065-.467,0-.574.125-.158.192-.315.661-.277.694.228.147.471.251.729.365"/>
  <path d="M89.521,45.672c.267-.136.419-.498.575-.79.142-.261.223-.553.295-.826.078-.267.216-.579.14-.804-.049-.132-.199-.235-.405-.381-.206-.144-.473-.094-.604.138-.119.223-.218.42-.31.616-.107.26-.175.536-.252.808-.069.31-.271.656-.175.908.075.186.569.411.736.331"/>
  <path d="M96.278,44.991c-.134.261-.333.702-.212.837.18.22.599.376.878.328.202-.038.391-.417.505-.697.132-.305.216-.642.288-.987.052-.277.15-.625.038-.862-.071-.157-.537-.309-.705-.225-.14.089-.242.207-.337.341-.139.214-.206.442-.12.524.094.062.038.256-.107.419-.093.102-.176.21-.228.322"/>
  <path d="M88.763,70.501c-.136-.207-.427-.258-.645-.134-.182.111-.34.224-.436.377-.233.373-.392.849-.427,1.301,0,.228.09.466.18.703.1.245.279.488.431.534.154.044.39-.088.538-.311.092-.151.18-.305.143-.431-.128-.616.133-1.031.412-1.52.068-.1-.057-.298-.196-.52"/>
  <path d="M53.429,100.373c-.487-.273-1.036-.449-1.601-.562-.211-.038-.576.134-.695.306-.125.176-.092.694.029.75.52.262,1.081.453,1.712.694.243.09.574.065.731-.086.102-.104.177-.209.205-.331.028-.257-.172-.658-.381-.772"/>
  <path d="M84.243,47.654c.067.094.189.176.325.266.211.132.505.066.677-.147.171-.18.293-.355.267-.453-.215-.557.05-.828.369-1.197.126-.132.066-.557-.065-.755-.092-.171-.475-.309-.633-.247-.211.094-.551.427-.509.573.18.58-.075.91-.447,1.282-.102.112-.071.495.017.679"/>
  <path d="M23.674,102.846c-.021.138-.031.287-.05.443-.013.263-.172.63-.319.845-.053.071-.116.154-.18.248-.164.19-.076.369.18.369h.65c.265,0,.518-.209.553-.463.057-.237.088-.417.144-.614.097-.329.4-.76.284-.981-.181-.357-.472-.531-.841-.469-.248.05-.404.19-.399.173.014-.01,0,.192-.022.449"/>
  <path d="M84.379,77.187c.027,0,.073-.012.103-.012.253,0,.557-.206.7-.431.191-.325.338-.58.398-.852.042-.164.023-.356-.019-.55-.041-.275-.287-.442-.549-.416-.297.003-.57.038-.634.161-.212.511-.277,1.06-.388,1.656-.04.257.144.442.388.442"/>
  <path d="M76.493,51.024c.304.078.645.057.962.042.266-.008.499.036.522.096.035.07.225-.004.423-.164.196-.161.213-.415.02-.578-.104-.103-.233-.193-.378-.254-.351-.18-.742-.283-1.137-.356-.296-.052-.638-.055-.886.04-.14.06-.284.467-.216.596.141.261.413.523.691.579"/>
  <path d="M29.611,104.065l-.402-.123c-.248-.08-.461-.08-.478-.036-.031.062-.13-.007-.227-.157-.07-.086-.152-.168-.241-.212-.21-.115-.555-.214-.717-.118-.191.118-.364.462-.354.693.021.237.286.617.445.617.625.035,1.252-.013,1.878-.046.267-.013.486-.121.505-.263.025-.119-.17-.277-.409-.355"/>
  <path d="M92.092,75.326c-.205.048-.362.453-.435.725-.087.239-.087.505-.094.922,0,.265.157.356.354.203.406-.272.74-.475,1.031-.777.161-.167.211-.717.071-.854-.201-.192-.644-.304-.928-.218"/>
  <path d="M74.161,51.131c.395-.271.71-.48.978-.764.155-.19.252-.646.133-.84-.11-.205-.561-.369-.791-.31-.214.073-.413.426-.5.696-.093.264-.103.553-.145,1.024-.02.261.109.343.325.192"/>
  <path d="M85.383,50.711c-.551-.216-1.102-.443-1.677-.594-.064-.02-.19.108-.321.269-.151.184-.165.441-.025.595.101.1.201.184.312.196.534.052,1.087.031,1.625.022.265,0,.486-.071.492-.154.026-.091-.167-.228-.406-.334"/>
  <path d="M106.871,43.953c.188.014.398-.172.673-.407.205-.164.205-.411,0-.579-.294-.257-.527-.468-.673-.429-.205.06-.361.24-.519.438-.174.207-.151.511.038.694.161.165.319.283.48.283"/>
  <path d="M87.689,49.677c-.178.025-.334.163-.484.305-.202.18-.215.485-.043.682.151.196.319.385.52.439.138.042.351-.207.591-.484.188-.186.168-.456-.032-.619-.221-.193-.397-.354-.552-.321"/>
  <path d="M92.577,42.709c.157-.119.297-.253.297-.355-.029-.259-.205-.502-.402-.816-.158-.219-.397-.227-.585-.046-.243.286-.458.483-.41.611.06.212.223.393.394.555.177.18.496.205.706.052"/>
  <path d="M45.057,101.607c-.231.134-.359.575-.425.911-.013.093.054.186.129.282.104.146.369.235.595.206.154-.019.301-.038.369-.124.184-.271.317-.721.196-.996-.068-.189-.685-.391-.864-.279"/>
  <path d="M100.065,71.345c.249-.317.438-.536.408-.732-.043-.279-.435-.712-.689-.729-.256-.016-.76.411-.76.65.017.243.242.478.492.811.158.206.404.206.549,0"/>
  <path d="M36.465,96.107c.239-.24.448-.42.413-.536-.077-.219-.218-.417-.403-.592-.181-.194-.475-.201-.664-.04-.176.15-.33.305-.355.49-.008.18.172.39.386.643.173.202.433.225.624.035"/>
  <path d="M90.031,48.396c-.178-.181-.442-.151-.593.064-.19.258-.35.472-.304.601.052.18.21.321.378.455.207.162.519.142.725-.035.153-.15.312-.314.303-.451-.019-.206-.235-.405-.509-.633"/>
  <path d="M90.937,70.266c.263-.298.476-.517.443-.71-.022-.273-.478-.66-.765-.671-.233-.02-.661.436-.688.703-.009.205.179.402.423.678.171.2.429.2.586,0"/>
  <path d="M70.91,49.677c-.189-.188-.437-.162-.594.044-.213.29-.386.519-.351.681.031.181.191.325.371.458.211.156.522.138.709-.043.16-.166.317-.343.34-.514,0-.177-.21-.378-.476-.626"/>
  <path d="M47.642,100.292c-.295.067-.707.453-.707.716-.009.258.444.703.707.703.18,0,.373-.202.615-.445.178-.185.167-.443-.027-.614-.248-.224-.443-.382-.588-.359"/>
  <path d="M93.924,75.668c-.251.304-.425.496-.395.634.064.215.211.395.383.561.172.193.467.223.668.039.15-.119.287-.244.273-.363-.008-.254-.188-.489-.413-.836-.138-.221-.356-.227-.517-.035"/>
  <path d="M86.885,74.498c.153.188.32.343.499.382.165.025.37-.171.614-.408.202-.175.202-.454.035-.634-.246-.244-.413-.455-.522-.426-.21.079-.4.231-.581.398-.18.177-.201.481-.046.688"/>
  <path d="M57.932,102.106c-.263.274-.511.483-.444.621.048.201.242.364.444.527.211.164.52.146.705-.029.188-.151.33-.317.33-.48.026-.184-.176-.383-.398-.635-.184-.184-.451-.191-.637-.004"/>
  <path d="M106.628,73.576c.201.013.402-.175.666-.412.202-.167.202-.43,0-.582-.301-.259-.53-.478-.774-.488-.209-.021-.624.518-.634.82-.013.229.467.644.742.662"/>
  <path d="M79.808,46.512c.253-.012.698-.462.698-.702-.008-.203-.223-.395-.465-.656-.189-.18-.444-.163-.612.038-.226.267-.415.48-.393.67.029.256.498.65.771.65"/>
  <path d="M67.149,47.55c.138.305.44.658.751.729.149.027.337-.162.593-.388.189-.185.18-.434-.024-.589-.271-.201-.484-.369-.703-.381-.201-.02-.67.517-.616.629"/>
  <path d="M86.843,46.998c.195.184.439.167.606-.038.206-.298.395-.524.371-.725-.033-.228-.529-.542-.838-.566-.188-.004-.635.463-.597.656.034.218.237.413.457.673"/>
  <path d="M65.091,51.116c.235.003.702-.498.681-.738-.023-.228-.256-.452-.541-.748-.18-.193-.425-.162-.577.048-.197.327-.377.549-.321.725.065.297.474.7.759.714"/>
  <path d="M99.267,49.467c-.416.072-.778.3-1.16.471-.021.013-.03.035-.038.044-.022.026.139.162.337.321.231.184.463.369.721.524.044.025.497-.399.526-.649.037-.24-.305-.728-.386-.711"/>
  <path d="M90.369,42.416c.19.018.419-.152.691-.381.219-.154.227-.399.029-.569-.277-.259-.505-.459-.72-.455-.14.009-.303.157-.45.35-.18.193-.18.513,0,.718.135.172.296.326.45.338"/>
  <path d="M83.643,49.029c.064.301.421.738.683.764.185.013.396-.189.678-.433.2-.175.191-.415-.012-.579-.275-.209-.493-.385-.696-.393-.228-.01-.692.482-.652.641"/>
  <path d="M65.611,43.735c.182.004.361-.199.615-.453.16-.189.16-.462-.029-.634-.242-.204-.426-.369-.53-.333-.211.077-.388.253-.562.436-.18.176-.18.467,0,.652.166.17.329.321.507.331"/>
  <path d="M99.934,43.272c.167-.221.204-.636.132-.918-.038-.117-.124-.225-.253-.339-.173-.151-.457-.117-.634.063-.131.11-.233.224-.275.355-.053.275.065.7.267.89.113.132.643.088.764-.052"/>
  <path d="M84.991,70.141c.254.051.499-.102.529-.348.018-.231.06-.449.06-.664,0-.074-.06-.158-.134-.229-.105-.102-.162-.189-.162-.167,0,0-.111.026-.305.065-.116.028-.231.051-.272.124-.164.293-.373.78-.243.96.104.155.301.21.526.258"/>
  <path d="M79.894,44.489c.199.172.511.172.69-.008.173-.169.297-.319.362-.515.029-.12-.144-.312-.362-.562-.148-.199-.433-.206-.597-.02-.253.257-.44.462-.421.642.008.168.157.325.327.463"/>
  <path d="M52.978,102.29c-.193-.166-.511-.166-.717-.008-.147.132-.289.257-.293.411-.012.205.146.421.348.726.151.205.383.226.549.028.263-.291.469-.501.456-.702-.014-.155-.157-.304-.343-.455"/>
  <path d="M64.355,41.985c-.151-.207-.483-.293-.713-.163-.604.329-.668.587-.293,1.188.134.209.465.283.687.159.614-.365.685-.635.319-1.184"/>
  <path d="M87.921,45.02c.185-.128.344-.258.386-.425.053-.184-.129-.411-.343-.729-.144-.213-.377-.231-.568-.052-.284.283-.511.477-.499.674,0,.172.162.328.329.502.182.184.489.201.695.029"/>
  <path d="M99.247,73.036c.205.009.421-.196.729-.432.197-.163.188-.4-.034-.546-.302-.211-.521-.373-.742-.373-.219,0-.68.457-.648.625.078.298.435.726.696.726"/>
  <path d="M75.734,47.023c.186.024.406-.186.724-.437.201-.164.193-.396-.019-.539-.338-.233-.56-.405-.773-.397-.242.018-.681.484-.624.656.053.296.426.69.692.716"/>
  <path d="M103.763,74.995c-.212-.008-.632.356-.601.467.06.25.167.478.299.703.136.233.302.414.413.414.082,0,.252-.203.373-.425.114-.25.239-.494.281-.748.013-.084-.488-.401-.766-.411"/>
  <path d="M99.761,75.743c-.171.059-.309.196-.438.373-.153.205-.145.51.024.71.165.16.305.31.436.302.212-.028.397-.241.647-.489.188-.18.175-.439-.034-.588-.277-.18-.488-.352-.636-.308"/>
  <path d="M83.972,68.859c-.287-.247-.487-.454-.738-.503-.102-.013-.243.138-.381.292-.176.199-.176.503-.011.709.156.177.315.343.505.437.114.039.317-.128.605-.343.204-.168.216-.417.02-.592"/>
  <path d="M101.707,48.057c.254-.034.477-.231.765-.465.209-.17.209-.419,0-.591-.265-.218-.465-.407-.579-.359-.215.086-.376.235-.526.421-.185.184-.198.501-.022.696.134.181.262.315.363.298"/>
  <path d="M28.394,97.347c.145.046.344-.113.629-.327.22-.142.229-.39.021-.557-.275-.237-.475-.43-.685-.436-.126,0-.275.125-.42.26-.195.176-.207.478-.022.671.145.177.292.315.478.389"/>
  <path d="M93.783,46.753c.066.206.221.376.408.553.174.185.463.185.662,0,.184-.167.327-.347.338-.54.023-.172-.198-.351-.443-.601-.203-.195-.457-.176-.635.018-.201.239-.373.436-.33.57"/>
  <path d="M23.94,99.707c.145.04.334-.067.532-.191.225-.133.342-.348.282-.476-.058-.124-.282-.352-.497-.514-.186-.112-.358-.225-.538-.225-.118,0-.25.119-.373.283-.158.205-.158.511.035.704.154.189.351.352.559.419"/>
  <path d="M102.082,74.708c-.211.011-.428.023-.614.103-.085.017-.168.104-.247.184-.117.138-.105.349.024.44.075.092.155.144.253.144.209.033.434.021.654-.013.271-.022.461-.223.44-.478-.023-.226-.246-.402-.511-.38"/>
  <path d="M75.898,48.039c0-.161-.163-.333-.369-.53-.166-.199-.434-.189-.601.02-.066.096-.141.164-.206.258-.144.202-.115.501.078.665.167.134.347.257.52.275.185.013.578-.44.578-.688"/>
  <path d="M92.228,70.777c.196.17.441.14.583-.074.19-.309.349-.549.299-.734-.077-.251-.532-.522-.861-.553-.162-.013-.569.523-.527.726.052.205.252.393.507.636"/>
  <path d="M94.898,45.707c.308-.042.73-.39.78-.665.026-.177-.161-.381-.407-.672-.184-.208-.425-.208-.595,0-.235.287-.43.495-.43.702-.007.214.462.667.651.635"/>
  <path d="M73.146,44.194c.251-.309.478-.511.457-.704-.014-.241-.457-.597-.75-.645-.206-.025-.649.403-.649.632-.012.206.158.408.367.684.162.208.396.222.575.032"/>
  <path d="M83.347,41.83c.224-.275.397-.487.38-.694,0-.128-.145-.262-.312-.382-.206-.157-.517-.138-.702.047-.146.159-.288.307-.319.48-.025.142.152.335.382.58.181.192.424.181.571-.031"/>
  <path d="M71.121,43.641c.286-.067.649-.409.73-.714.044-.124-.148-.321-.365-.573-.176-.189-.439-.199-.62,0-.205.243-.403.432-.411.639,0,.218.481.677.667.648"/>
  <path d="M106.311,49.892c-.164.017-.329.171-.465.334-.184.202-.174.501.027.669.126.111.286.211.428.245.178.017.377-.108.66-.268.235-.126.249-.347.056-.518-.307-.271-.507-.479-.706-.463"/>
  <path d="M30.855,100.099c.197.171.475.155.616-.048.189-.24.352-.434.319-.567-.066-.157-.199-.311-.369-.457-.203-.163-.499-.125-.679.068-.14.163-.266.317-.288.507-.019.138.171.305.4.497"/>
  <path d="M82.546,47.872c-.177.048-.323.206-.461.395-.158.202-.135.511.051.688.166.157.319.286.491.312.142.022.293-.155.505-.387.167-.204.153-.483-.034-.664-.231-.21-.421-.386-.552-.344"/>
  <path d="M99.048,45.278c.186,0,.354-.18.592-.413.173-.18.173-.449-.017-.615-.256-.245-.453-.435-.54-.383-.309.159-.605.477-.72.815-.044.117.442.597.684.597"/>
  <path d="M86.274,73.658c-.034-.211-.224-.413-.449-.652-.186-.19-.442-.176-.608.018-.204.234-.353.424-.331.565.077.284.435.66.706.703.21.019.713-.446.683-.634"/>
  <path d="M69.002,45.471c-.254-.237-.454-.403-.575-.365-.307.086-.641.44-.707.738-.031.197.432.672.657.668.204-.012.383-.188.638-.429.188-.18.188-.433-.013-.612"/>
  <path d="M81.695,49.721c-.218.287-.382.511-.329.634.067.189.221.334.414.481.202.161.501.145.671-.044.149-.159.262-.3.262-.45-.024-.198-.213-.404-.442-.655-.185-.193-.417-.172-.575.034"/>
  <path d="M102.527,68.529c.176.039.393-.141.681-.36.199-.167.211-.408.025-.592-.229-.228-.411-.403-.578-.403-.184.028-.338.151-.505.287-.198.172-.241.471-.081.677.138.186.286.356.458.392"/>
  <path d="M84.766,42.434c.206-.014.407-.188.66-.429.19-.176.196-.438,0-.601-.243-.236-.435-.398-.562-.377-.305.083-.674.439-.738.741-.044.172.419.684.641.665"/>
  <path d="M91.357,49.008c-.2.283-.356.498-.349.713.013.2.486.569.734.547.261-.023.69-.428.672-.647-.023-.201-.221-.403-.476-.661-.181-.18-.434-.153-.582.048"/>
  <path d="M35.645,97.633c.059-.009.118-.009.172-.03.259-.024.409-.236.352-.493-.041-.116-.083-.241-.106-.356-.084-.244-.3-.428-.51-.415-.199.017-.362.235-.362.502,0,.118,0,.234-.007.359,0,.261.198.453.461.434"/>
  <path d="M95.205,68.015c.215-.036.4-.228.635-.463.191-.19.159-.443-.038-.604-.254-.195-.449-.341-.587-.31-.295.086-.625.449-.683.753-.036.173.461.658.673.624"/>
  <path d="M50.356,98.902c.124.068.652-.27.642-.376-.042-.362-.243-.716-.389-1.085,0-.01-.021-.022-.029-.026-.025-.025-.189.112-.404.282-.171.133-.347.293-.446.492-.066.105.341.571.626.713"/>
  <path d="M45.271,103.367c-.189-.189-.561-.331-.808-.227-.373.189-.402.565-.316,1.046.032.262.262.367.498.235.244-.094.485-.235.731-.355.238-.123.265-.36.061-.535-.053-.065-.102-.111-.167-.163"/>
  <path d="M26.016,102.882c-.283.038-.634.441-.698.748-.029.177.052.379.151.575.103.233.308.356.451.272.152-.096.428-.335.595-.536.136-.154.243-.298.211-.405-.075-.282-.495-.684-.71-.654"/>
  <path d="M43.941,96.401c.148-.113.267-.229.267-.329-.022-.231-.177-.463-.364-.764-.13-.219-.374-.231-.545-.035-.226.269-.411.465-.379.606.039.18.163.338.327.496.201.159.505.176.694.025"/>
  <path d="M39.939,101.081c.19.185.465.185.638-.014.229-.256.429-.463.409-.621-.052-.262-.507-.635-.795-.635-.221,0-.584.459-.634.749-.02.135.171.307.382.521"/>
  <path d="M46.309,100.021c-.057-.06-.133-.107-.202-.18-.189-.189-.459-.155-.617.052-.19.249-.347.451-.34.644.013.213.533.621.717.566.188-.06.336-.215.478-.382.161-.215.151-.514-.035-.699"/>
  <path d="M94.687,74.005c-.277.051-.637.424-.703.703-.016.132.182.309.426.531.191.166.458.149.62-.043.199-.254.343-.442.354-.636.014-.188-.497-.6-.696-.556"/>
  <path d="M106.362,45.697c.17,0,.337-.153.559-.35.193-.186.193-.443,0-.627-.235-.205-.411-.391-.539-.351-.283.063-.604.433-.667.729-.043.159.418.599.647.599"/>
  <path d="M104.361,68.937c.251.02.636-.408.716-.714.032-.114-.146-.292-.359-.505-.19-.172-.471-.172-.668-.009-.245.222-.443.399-.41.514.097.306.463.7.722.714"/>
  <path d="M43.039,98.32c.122.029.309-.114.555-.307.21-.161.231-.415.056-.595-.201-.219-.377-.406-.53-.406-.138,0-.287.102-.411.226-.208.181-.237.481-.088.696.126.158.268.312.419.386"/>
  <path d="M33.781,103.701c-.166-.202-.465-.218-.664-.051-.1.095-.2.18-.302.27-.174.167-.272.43-.167.571.071.15.349.171.576.052.159-.082.317-.16.477-.245.218-.124.275-.378.102-.575,0-.012-.022-.018-.022-.022"/>
  <path d="M26.93,101.158c-.172-.203-.424-.203-.613-.022-.207.217-.36.388-.36.576,0,.133.116.277.228.425.186.176.501.209.707.038.154-.134.301-.269.355-.44.041-.143-.126-.33-.317-.576"/>
  <path d="M102.887,47.846c-.021.139.171.33.409.588.188.189.419.166.578-.046.176-.256.323-.461.346-.683.016-.184-.483-.618-.58-.576-.32.147-.671.421-.753.717"/>
  <path d="M54.422,102.643c-.136.008-.279.136-.399.285-.174.189-.174.499,0,.695.134.15.274.288.419.302.163.017.355-.151.588-.345.196-.18.188-.433,0-.597-.247-.191-.425-.363-.608-.341"/>
  <path d="M38.77,100.604c.219-.224.386-.391.331-.487-.102-.306-.39-.601-.685-.769-.087-.038-.64.378-.61.537.038.214.188.42.389.688.142.211.386.214.575.03"/>
  <path d="M39.6,103.761c-.29-.192-.486-.34-.679-.34-.118,0-.228.094-.357.228-.147.18-.147.455,0,.622.105.127.206.219.327.226.188.019.394-.099.686-.267.24-.126.248-.325.023-.47"/>
  <path d="M95.429,50.445c-.2-.111-.409-.213-.641-.251-.08-.016-.188.126-.304.299-.138.206-.052.42.191.501.17.055.317.1.476.138.245.077.509.009.562-.15.067-.164-.054-.396-.285-.536"/>
  <path d="M96.476,76.504c-.223-.142-.444-.265-.686-.295-.112-.01-.242.249-.418.535-.123.225-.031.408.233.408h.641c.26,0,.505-.096.549-.202.042-.106-.102-.312-.319-.446"/>
  <path d="M101.644,76.218c-.199-.009-.392.136-.579.276-.215.164-.341.369-.282.465.042.106.29.184.538.184h.774c.261,0,.329-.157.167-.359-.268-.312-.431-.565-.618-.565"/>
  <path d="M89.401,50.178c-.164.01-.319.112-.485.254-.207.177-.343.385-.299.463.044.086.272.163.55.163h.435c.261,0,.505-.06.54-.142.031-.08-.11-.283-.288-.476-.147-.138-.296-.263-.452-.263"/>
  <path d="M72.566,50.194c-.186-.016-.384.084-.576.199-.231.125-.383.334-.351.459.042.126.279.241.553.25.132.014.273.017.423.026.266.016.499-.035.551-.112.042-.073-.052-.289-.207-.498-.129-.176-.258-.321-.392-.324"/>
  <path d="M90.079,76.2c-.151-.017-.331.253-.597.562-.154.207-.094.347.17.347h.691c.254,0,.494-.052.536-.123.057-.058-.068-.272-.265-.446-.18-.164-.343-.309-.536-.34"/>
  <path d="M107.516,76.555c-.234-.09-.485-.18-.728-.234-.059,0-.138.132-.222.261-.102.163.03.356.275.442.146.056.296.104.44.151.256.084.507.012.562-.151.066-.16-.073-.365-.327-.469"/>
  <path d="M50.236,103.367c-.051.052-.104.11-.154.163-.185.181-.155.412.094.518.216.087.404.158.535.087.555-.273.343-.511.108-.755-.167-.184-.401-.218-.582-.013"/>
  <path d="M15.553,48.906c.498-.057.974-.288,1.47-.501.242-.099.615-.061.828.085.717.545,1.449,1.154,2.453.381,1.133-.87.257-1.616-.189-2.577-.114-.24.033-.527.255-.643,9.887-4.623,19.889-8.029,31.036-4.657.239.065.357-.056.235-.275-.185-.346-.366-.629-.633-.794-.989-.633-2.021-1.247-3.089-1.748-.65-.295-.72-.602-.415-1.149.699-1.307,1.769-2.067,3.272-2.113.321-.013.652-.013.964-.013.256.013.481-.073.503-.189.017-.099-.174-.253-.415-.343-.361-.146-.73-.296-1.103-.331-2.211-.213-4.046.473-5.277,2.467-.243.404-.597,1.037-.94,1.07-1.376.092-2.778.047-4.263.041-.252,0-.42-.202-.373-.456.652-2.628,2.408-4.125,4.298-5.523.205-.154.177-.33-.079-.363-.367-.04-.693-.04-1.007.033-3.028.659-4.747,2.679-5.728,5.488-.12.348-.311.826-.57.901-1.517.435-3.054.793-4.675,1.182-.241.066-.463-.088-.463-.359.014-2.432,1.027-4.221,2.899-5.651.217-.157.184-.309-.086-.317-.625-.039-1.22-.025-1.729.19-1.6.697-2.672,1.934-2.993,3.717-.142.802-.309,1.638-.333,2.462-.033.684-.349.93-.938,1.129-1.358.435-2.748.883-4.082,1.429-.794.325-1.071.05-1.121-.684-.118-1.471.205-2.814,1.173-3.958.521-.609,1.073-1.204,1.76-1.981.171-.18.094-.356-.147-.343-1.84.021-2.958.952-3.909,2.182-1.274,1.7-1.318,3.605-1.022,5.597.034.297-.038.756-.241.894-.593.392-1.239.832-1.913.93-.344.05-.759-.718-1.225-.901-.502-.201-1.204-.348-1.649-.132-.406.174-.892,1.006-.762,1.32.38,1.072.078,1.651-.855,2.161-.786.441-.64,1.26-.246,1.81.224.338.892.579,1.325.536"/>
  <path d="M91.917,99.127c-.639.369-1.319.854-1.688,1.458-.683,1.134-1.593,1.345-2.76,1.134-.39-.064-.772-.128-1.165-.18-.683-.044-.778-.438-.581-.96.501-1.382,1.161-2.654,2.445-3.492.129-.094.26-.192.396-.312.189-.172.154-.399-.085-.468-1.189-.325-2.557.186-3.414,1.399-.659.932-1.074,2.037-1.635,3.035-.19.36-.441.875-.764.955-.74.154-1.487.189-2.221.233-.264.017-.522-.167-.562-.427-.338-2.387.742-4.099,2.222-5.694.184-.2.116-.325-.148-.277-.48.077-.92.197-1.322.415-1.775.909-2.98,2.435-2.915,4.371.054,2.113-.996,2.658-2.679,2.844-.083.016-.145.05-.213.08-.993.257-1.305.052-1.41-1.018-.132-1.482,0-2.897,1.115-4.019.188-.184.149-.367-.116-.367-1.031,0-2.049.652-2.513,1.63-.603,1.23-.828,2.508-.442,3.889.103.388-.065,1.067-.351,1.275-.775.562-1.664,1.137-2.588,1.265-.461.064-1.071-.838-1.62-1.287-.034-.025-.054-.044-.086-.061-.73-.523-1.376-.33-1.913.267-.561.622-.449,1.256.08,1.84.087.106.192.196.294.286.163.15.163.421-.022.615-1.392,1.62-1.443,1.977-.759,2.757.7.784,1.295.811,2.728-.039.221-.128.571-.112.746.091.645.697,1.161,1.709,2.43.835.233-.154.464-.571.409-.815-.132-.618-.356-1.231-.634-1.999-.082-.24.039-.545.265-.655,1.239-.661,2.586-1.452,4.001-2.015,3.175-1.236,6.544-1.467,9.901-1.698,3.306-.231,6.398.38,8.985,2.684.076.067.182.085.352.149.211.06.303-.081.243-.341-.13-.507-.218-.919-.425-1.232-.445-.647-1.049-1.174-1.582-1.764-.866-.977-.939-1.685,0-2.551.533-.476,1.232-.794,1.933-1.166.234-.116.264-.386.055-.52-.575-.415-1.256-.566-1.987-.151"/>
  <path d="M86.676,114.754c-.573.147-1.174.275-1.673.55-.708.407-1.306,1.021-1.932,1.575-.702.604-2.478.71-2.986.046-.637-.826-.098-1.6.455-2.221.469-.532,1.089-.918,1.676-1.355.178-.132.393-.257.704-.417.25-.119.225-.277-.027-.321-.216-.054-.336-.102-.468-.102-1.781-.008-3.769,1.375-4.277,3.272-.338,1.204-.899,1.65-2.112,1.757-.751.077-1.03-.123-1.226-.79-.321-1.037.028-1.915.602-2.747.246-.356.468-.751.741-1.179.138-.224.044-.365-.209-.314-2.207.583-3.442,2.869-3.091,5.132.133.876-.67,1.802-1.74,1.844-.88.035-1.115-.762-1.146-1.429-.022-.679.073-1.356.171-2.049.021-.277-.075-.449-.206-.39-.094.025-.18.052-.242.103-1.324.919-1.669,2.454-.854,4.142.368.755.306,1.223-.365,1.746-.672.524-1.14.823-1.884.01-.294-.317-1.259-.331-1.7-.1-.729.369-.309,1.093.021,1.6.155.258.365.497.578.713.17.193.152.488-.05.639-.142.113-.257.215-.296.354-.163.494-.424,1.235-.205,1.51.277.33.998.362,1.539.362.243,0,.532-.353.741-.598.54-.664,1.09-.915,1.737-.129.115.142.29.304.435.304.451.015,1.1.117,1.348-.123.208-.24.142-.967-.066-1.304-.205-.36-.551-.61-.924-.891-.211-.169-.211-.465-.02-.632,2.035-1.912,4.302-3.093,6.812-3.704,3.39-.821,6.738-.986,9.623,1.543.017.012.082,0,.189-.03.096-.031.117-.247.038-.497-.06-.199-.132-.392-.253-.546-.244-.353-.571-.672-.916-.922-.851-.608-.816-1.273-.178-1.976.583-.652,1.201-1.273,1.804-1.905.182-.184.319-.411.308-.501-.012-.081-.212-.094-.475-.031"/>
  <path d="M45.104,125.299c.206.058.406.125.621.199.229.09.451-.052.477-.31.02-.132.029-.262.037-.399.024-.261-.151-.471-.419-.509-.155,0-.298-.031-.452-.041-.263-.021-.503-.13-.543-.234-.041-.098.069-.261.257-.348.122-.064.228-.141.286-.234.134-.25.219-.778.111-.825-.266-.167-.908-.28-.941-.196-.369.767-.657,1.582-.914,2.397-.008.054.511.291.784.391.211.086.468.048.695.11"/>
  <path d="M50.47,127.007c.233.225.616.325.945.45.168.065.369.065.553.115.212.064.425.12.619.189.247.081.509-.069.584-.318.056-.162.11-.333.17-.556.073-.24.31-.578.459-.79.325-.446.257-.819-.396-1.009-.178-.051-.387.014-.616.1-.239.098-.434.162-.419.155.01-.01-.015.184.071.433.116.309.288.634.013.836-.21.158-.497.083-.571-.022-.046-.08-.09-.136-.142-.163-.311-.104-.674-.281-.939-.188-.191.083-.409.694-.331.767"/>
  <path d="M55.769,128.04c-.562.386-.341.705-.123,1.03.145.219.209.407.197.386-.005,0,.179-.065.443-.108.373-.056.738-.008,1.081.369.12.134.596.154.731.04.204-.189.353-.567.319-.824-.059-.488-2.216-1.17-2.649-.892"/>
  <path d="M54.455,129.099c-.312-.067-.674-.119-.965-.016-.157.051-.337.561-.239.673.163.261.599.614.789.544.49-.171.678,0,.841.244.127.219.402.353.642.257.687-.265.784-.427.531-.947-.112-.235-.217-.398-.212-.398.012.009-.178-.033-.431-.108-.319-.088-.639-.184-.957-.248"/>
  <path d="M46.784,124.261c.314-.084.67-.136.91.358.045.09.603.044.827-.09.18-.116.315-.561.233-.69-.191-.245-.517-.415-.813-.562-.177-.072-.5.077-.575-.008-.382-.497-.889-.683-1.227-.186-.117.169-.033.494.062.816.062.241.338.434.582.363"/>
  <path d="M55.322,131.364c-.138-.219-.229-.389-.229-.383.01.01-.195.054-.449.084-.234.025-.457.042-.532-.043-.363-.446-.707-.413-1.044-.272-.222.093-.489.395-.489.654.055,1.109,1.776.252,2.027,1.144.015.04.432.052.569-.028.195-.125.458-.413.427-.571-.054-.202-.164-.396-.279-.584"/>
  <path d="M52.243,130.717c-.161-.106-.31-.193-.459-.292-.22-.129-.466-.043-.532.219-.06.227-.132.463-.198.681-.046.142-.067.301-.144.356-.76.443-.566.87-.259,1.273.159.214.446.228.658.06.255-.222.519-.427.482-.495-.263-.696.128-.967.501-1.263.212-.149.16-.414-.05-.539"/>
  <path d="M53.638,124.577c.2.163.419.226.467.149.064-.086.262-.042.445.098.116.086.247.142.361.19.307.09.654.138.943.06.158-.042.39-.485.331-.565-.197-.272-.482-.473-.758-.645-.302-.167-.644-.287-.973-.373-.33-.067-.699-.138-1.007-.039-.142.052-.295.55-.205.696.077.171.241.299.395.429"/>
  <path d="M44.265,126.411c-.118-.317-.461-.608-.761-.813-.257-.173-.61-.225-.918-.305-.265-.071-.674-.267-.815-.16-.22.202-.398.636-.315.893.061.196.516.285.8.411.258.112.511.168.765.293.1.042.195.107.309.196.165.134.459.077.639-.103.18-.174.342-.315.298-.411"/>
  <path d="M57.083,130.245c-.159.043-.288.2-.402.355-.163.201-.233.407-.152.486.075.059.033.261-.081.466-.082.113-.152.241-.194.369-.067.267-.154.647-.043.823.142.186.616.396.76.306.231-.155.355-.531.484-.832.101-.224.171-.459.244-.704.09-.317.275-.7.18-.951-.076-.202-.574-.408-.795-.318"/>
  <path d="M46.935,125.518c.067.713-.196,1.253-.549,1.814-.055.073.103.292.293.532.17.21.436.235.647.09.21-.17.391-.308.391-.445.023-.572.19-1.003.514-1.462.099-.156-.177-.773-.415-.897-.215-.094-.889.257-.88.367"/>
  <path d="M48.448,128.988c-.467-.206-1.007-.295-1.664-.425-.267-.05-.582,0-.72.15-.074.094-.147.211-.144.318,0,.257.331.57.597.716.371.215.815.356,1.24.417.184.007.373-.022.561-.069.244-.068.417-.325.351-.575-.042-.244-.098-.471-.222-.532"/>
  <path d="M51.078,128.677c-.101-.327-.469-.645-.796-.847-.286-.167-.661-.223-1.01-.258-.15-.013-.314,0-.469.01-.24.009-.433.261-.42.518.013.25.029.476.15.54.444.254.964.369,1.578.563.255.072.599,0,.764-.172.11-.12.222-.258.202-.354"/>
  <path d="M55.175,125.674c-.224-.077-.681.103-.795.309-.294.549-.57,1.157-.658,1.767-.016.198.16.421.364.676.16.207.444.252.653.075.158-.105.277-.205.316-.33.238-.562.446-1.168.546-1.78.031-.224-.212-.664-.427-.716"/>
  <path d="M51.66,125.518c.09-.02.176-.042.273-.071.246-.074.459-.112.445-.103-.024.007-.044-.193-.076-.45-.042-.264-.05-.511.052-.597.663-.566.532-.996.224-1.421-.157-.195-.409-.161-.553.056-.169.313-.356.623-.528.94-.068.133-.112.292-.145.459-.033.287-.065.562-.1.84-.03.263.163.426.408.347"/>
  <path d="M41.107,123.076c-.219-.173-.52-.18-.726-.01-.18.138-.327.287-.354.447-.036.184.145.401.354.672.171.211.425.228.618.051.275-.276.507-.47.475-.629-.029-.197-.191-.355-.367-.531"/>
  <path d="M56.604,127.526c.215,0,.421-.172.7-.386.203-.155.215-.411.022-.592-.235-.238-.415-.419-.561-.399-.298.055-.674.382-.742.647-.044.224.374.729.582.729"/>
  <path d="M56.308,133.496c-.189.018-.365.142-.551.289-.209.144-.233.447-.092.672.134.184.277.328.445.367.176.04.4-.113.685-.303.221-.138.244-.386.077-.592-.233-.25-.413-.434-.565-.434"/>
  <path d="M49.919,125.245c.193,0,.384-.209.617-.455.175-.193.154-.458-.035-.625-.253-.229-.465-.416-.574-.353-.197.068-.367.261-.537.441-.171.193-.148.486.032.674.17.176.33.317.497.317"/>
  <path d="M49.512,127.059c.121.059.305-.052.493-.171.223-.138.362-.356.298-.478-.046-.123-.255-.352-.464-.505-.164-.129-.327-.25-.507-.267-.21-.003-.675.527-.631.601.18.325.467.72.81.819"/>
  <path d="M45.602,126.185c-.198-.177-.472-.177-.649.013-.226.226-.415.415-.376.517.067.21.248.373.415.545.18.184.487.193.69.021.184-.159.35-.331.359-.511.012-.158-.19-.356-.44-.586"/>
  <path d="M44.772,127.873c-.158-.02-.34.176-.573.403-.189.189-.189.438.01.606.255.223.453.429.643.406.166-.021.311-.19.459-.377.15-.205.128-.507-.039-.699-.165-.16-.317-.318-.499-.34"/>
  <path d="M56.893,124.435c-.2.239-.364.436-.331.578.022.17.173.308.331.463.18.163.501.163.695.009.2-.141.344-.296.344-.438.01-.189-.191-.395-.435-.645-.18-.188-.436-.17-.603.032"/>
  <path d="M53.945,133.2c-.164.14-.146.621-.054.9.044.132.165.224.286.309.189.15.454.134.582-.025.09-.107.159-.214.181-.327.067-.277.076-.733-.091-.856-.218-.149-.745-.172-.904,0"/>
  <path d="M42.566,124.684c.142.042.327-.15.572-.365.2-.18.2-.446-.008-.614-.243-.214-.423-.385-.65-.419-.188-.018-.633.48-.591.683.052.281.39.65.677.716"/>
  <path d="M52.159,128.569c-.239-.014-.435-.014-.532.099-.384.471-.185.831.475,1.228.224.131.434.016.447-.242.008-.225.029-.404.038-.584.023-.275-.166-.488-.428-.501"/>
  <path d="M50.998,72.577c-.782-1.234-1.377-1.309-2.15.005-1.026,1.8-2.025,3.628-2.995,5.476-.076.123-.086.28-.086.458-.013.258.054.51.142.549.082.048.301-.039.529-.184.422-.27.888-.546.888-.82.021-1.775,1.109-3.035,1.911-4.435.082-.136.207-.244.38-.382.2-.154.474-.119.62.088.309.436.582.809.772,1.193.407.863.619,1.872,1.838,2.014.132.016.325.416.295.613-.035.176-.285.386-.5.444-.625.146-1.27.246-1.916.336-.729.107-1.079.453-1.008,1.243.112,1.111.267,2.239.168,3.356-.126,1.356.767,2.037,1.544,2.934.162.198.428.198.575-.017.218-.277.417-.559.637-.845.148-.211.079-.354-.188-.354-1.201-.015-1.476-.778-1.485-1.833,0-.527-.127-1.07-.127-1.606,0-1.694.425-2.017,2.015-1.579,1.134.301,2.27.645,3.368.051.603-.325,1.02-.273,1.565.109,1.225.87,2.569,1.265,4.082,1.064.433-.058.872-.04,1.315-.023.265.006.408.073.351.173-.075.081-.054.329.044.569.285.716.601,1.442.805,2.179.121.449.191,1.165-.075,1.41-1.039,1.037-2.25,1.897-3.331,2.891-.54.493-.996,1.072-1.471,1.642-.168.186-.231.452-.129.555.099.11.351.091.574-.064.307-.206.64-.421.922-.671.287-.247.456-.685.773-.877,1.389-.849,2.799-1.647,4.198-2.471.625-.352.909-.841.824-1.599-.02-.279.044-.546.127-.855.059-.248.274-.328.489-.181.633.48,1.14.928,1.734,1.153.989.35,1.102.945.642,1.651-.784,1.185-1.733,2.265-2.567,3.427-.425.596-.788,1.219-1.157,1.831-.123.22-.19.459-.123.511.061.078.316.09.571.026.252-.039.507-.103.772-.158.257-.048.411-.295.394-.555-.044-.892.524-1.347,1.322-1.702.444-.197.911-.45,1.22-.798.565-.642.982-1.406,1.504-2.078.525-.726.83-1.282.082-2.171-1.322-1.608-1.177-2.315.014-4.005.509-.708.872-1.601.995-2.464.209-1.344.476-1.584,1.809-1.221.487.129.996.133,1.521.142.245.017.465-.013.465-.098,0-.086-.163-.272-.373-.436-.101-.08-.213-.161-.308-.235-.211-.166-.267-.466-.137-.706.231-.36.436-.688.612-1,.134-.231.055-.304-.177-.184-.753.391-1.007.419-1.273.039-.14-.205-.042-.516.168-.688.297-.18.603-.381.914-.587.22-.142.191-.33-.044-.424-.443-.158-.836-.302-1.228-.443-.243-.094-.327-.334-.171-.553.49-.613.986-1.115.771-1.869-.059-.244-.255-.258-.359-.033-.064.152-.129.273-.207.36-.176.139-.343.247-.519.347-.228.132-.441.029-.499-.224-.044-.249-.076-.492,0-.69.306-.601.786-1.115,1.144-1.682.15-.228.261-.453.405-.747.114-.226.014-.325-.22-.223-1.467.714-2.782,1.353-2.983,3.055-.021.265-.097.45-.184.411-.069-.042-.231-.266-.347-.483-.064-.133-.128-.262-.198-.399-.107-.223-.373-.283-.513-.067-.457.65-.126,1.302.285,1.95.553.848,1.164,1.65,1.673,2.512.48.821.383,1.57-.261,2.296-.169.205-.456.174-.64-.029-1.46-1.614-3.465-1.387-5.432-1.304-.871.042-1.737.051-2.609-.022-.892-.069-1.596-.561-1.81-1.464-.231-.968-.077-1.911.742-2.569.761-.615,1.471-.268,2.175.224.021.014.057-.013.154-.051.099-.039.099-.261.021-.515-.155-.488-.329-.981-.538-1.561-.066-.253.062-.385.283-.275.361.15.666.292.966.416.242.1.474.151.528.113.056-.038-.009-.254-.136-.494-.233-.396-.469-.807-.731-1.26-.117-.228-.021-.369.24-.339.173.037.34.06.511.079.253.04.356-.109.189-.315-.34-.442-.773-.777-1.124-1.201-.275-.322-.463-.706-.665-1.103-.129-.222-.062-.507.181-.631.317-.174.637-.343.947-.519.036-.012.059-.048.09-.09.031-.064-.112-.193-.369-.27-.826-.257-1.62-.203-2.49.068-.373.115-.808.005-1.24-.088-.266-.06-.391-.285-.317-.529.125-.347.245-.708.351-1.063.024-.034,0-.065-.02-.145-.035-.072-.245-.058-.483.072-1.779.943-3.197,2.715-5.632,2.342-.258-.033-.331.076-.164.272.086.102.138.174.208.251.153.206.123.481-.098.623-1.07.723-2.144,1.475-3.335,2.293-.217.129-.197.335.04.45,1.038.514,1.787,1.149,2.815.43.149-.086.403,0,.77.102.252.069.348.289.21.503-.379.543-.658,1.008-.955,1.44-.671.922-1.337,1.849-2.008,2.748-.176.233-.335.46-.498.684-.156.214-.451.261-.675.132-.361-.224-.711-.429-.914-.75M59.649,64.063c.93.01,1.513.7,1.757,2.021.34,1.873.121,3.246-.575,3.742-.209.142-.441-.046-.447-.293-.07-1.74.103-3.532-.93-5.054-.14-.21-.056-.423.195-.417"/>
  <path d="M46.751,59.419c-.288,0-.588-.098-.843-.251-.121-.07-.243-.026-.261.094l-.081.347c-.031.108.02.218.09.262.277.178.688.291,1.051.291.977,0,1.59-.624,1.59-1.578,0-.742-.347-1.208-1.142-1.599-.604-.279-.796-.498-.796-.9,0-.315.191-.684.713-.684.307,0,.527.096.667.173.101.059.222.008.267-.102l.089-.33c.021-.1-.019-.223-.114-.275-.167-.085-.473-.206-.892-.206-.867,0-1.466.628-1.466,1.497,0,.712.377,1.206,1.174,1.544.557.254.738.498.738.931,0,.498-.307.788-.784.788"/>
  <path d="M48.572,55.497l1.103.017v4.357c0,.124.084.211.202.211h.339c.105,0,.187-.087.187-.211l.034-4.374h1.081c.108,0,.196-.086.196-.196v-.343c0-.109-.088-.216-.196-.216h-2.946c-.104,0-.201.106-.201.216v.343c0,.11.097.196.201.196"/>
  <path d="M53.628,60.171c1.079,0,1.694-.85,1.694-2.33v-2.884c0-.118-.096-.206-.196-.206h-.329c-.117,0-.199.088-.199.206v2.936c0,.704-.176,1.544-.947,1.544-.583,0-.9-.55-.9-1.544v-2.936c0-.118-.092-.206-.214-.206h-.323c-.125,0-.209.088-.209.206v2.916c0,1.992,1.019,2.298,1.624,2.298"/>
  <path d="M55.813,55.497l1.098.017v4.357c0,.124.092.211.204.211h.34c.114,0,.202-.087.202-.211l.013-4.374h1.093c.102,0,.195-.086.195-.196v-.343c0-.109-.094-.216-.195-.216h-2.949c-.109,0-.199.106-.199.216v.343c0,.11.09.196.199.196"/>
  <path d="M59.2,55.497l1.092.017v4.357c0,.124.099.211.195.211h.357c.107,0,.188-.087.188-.211l.023-4.374h1.08c.121,0,.201-.086.201-.196v-.343c0-.109-.08-.216-.201-.216h-2.935c-.113,0-.199.106-.199.216v.343c0,.11.086.196.199.196"/>
  <path d="M62.822,59.419c.415.479.955.717,1.668.717.507,0,.952-.13,1.246-.238.085-.039.166-.157.166-.241v-2.257c0-.111-.087-.214-.207-.214h-1.189c-.109,0-.205.103-.205.214v.317c0,.103.096.198.205.198l.671.017v1.312c0,.034-.028.069-.039.078-.163.06-.364.081-.615.081-.954,0-1.549-.767-1.549-1.997,0-1.209.616-1.966,1.62-1.966.312,0,.573.053.809.154.102.066.221,0,.251-.11l.083-.327c.035-.115-.033-.217-.125-.27-.128-.048-.486-.193-1.004-.193-1.444,0-2.386,1.103-2.394,2.754,0,.799.221,1.522.608,1.972"/>
  <path d="M66.431,60.084h.342c.11,0,.209-.072.237-.175l.38-1.408c0-.02.033-.046.044-.046h1.302c.024,0,.035.025.044.046l.402,1.408c.033.102.129.175.221.175h.384c.041,0,.104-.03.142-.059.016-.054.029-.112.016-.16l-1.396-4.943c-.023-.1-.121-.171-.222-.171h-.448c-.104,0-.197.071-.231.171l-1.391,4.943c-.023.048-.011.107.022.16.029.028.096.059.152.059M67.564,57.778l.376-1.388c.065-.193.109-.379.152-.555.027.18.072.361.125.558l.406,1.368-1.06.017Z"/>
  <path d="M70.623,60.082h.331c.123,0,.212-.087.212-.211l.01-2.019h.411c.447.029.637.265.763.922.108.614.178.956.243,1.141.034.106.14.168.236.168h.358c.052,0,.104-.027.138-.056.025-.054.046-.112.012-.163-.078-.241-.172-.717-.287-1.308-.084-.511-.262-.846-.537-1.021.453-.254.717-.732.717-1.324,0-.426-.128-.799-.35-1.04-.301-.317-.688-.468-1.305-.468-.357,0-.71.05-.974.108-.108.01-.18.104-.18.211v4.871c0,.103.082.19.201.19M71.166,57.148v-1.655c0-.021.01-.04.01-.04.076-.022.21-.042.432-.042.406.004.894.163.894.87,0,.549-.344.884-.884.884l-.451-.017Z"/>
  <path d="M73.603,55.497l1.087.017v4.357c0,.124.086.211.208.211h.333c.107,0,.206-.087.206-.211l.019-4.374h1.08c.116,0,.202-.086.202-.196v-.343c0-.109-.086-.216-.202-.216h-2.933c-.12,0-.206.106-.206.216v.343c0,.11.086.196.206.196"/>
</svg>