<?xml version="1.0" encoding="UTF-8"?>
<svg id="Layer_1" xmlns="http://www.w3.org/2000/svg" version="1.1" viewBox="0 0 253.888 130.075">
  <!-- Generator: Adobe Illustrator 29.5.1, SVG Export Plug-In . SVG Version: 2.1.0 Build 141)  -->
  <path d="M110.794,46.084c-2.906,4.593-3.164,6.815-3.248,8.306-.098,1.454-.098,4.067,2.264,6.211,4.004,3.544,9.582,2.974,14.529,2.974h40.822c1.738,0,2.248-.511,3.184-1.766,3.26-4.975,4.73-10.356,4.73-15.183,0-10.324-6.736-23.331-23.762-29.21l-1.912,2.741c13.496,6.385,19.096,14.749,19.096,26.447.067,3.133-.744,6.53-2.814,9.659h-39.695c-2.377,0-2.699-2.683-1.855-4.183,3.529-6.225,7.145-11.726,11.383-17.38,4.01-5.337,7.971-10.321,12.102-15.548,1.125-1.45.375-2.855-1.857-3.301-4.637-.981-9.483-1.655-15.342-1.655-32.568,0-44.447,18.629-44.447,32.439,0,14.964,11.984,32.354,44.529,32.354,18.065,0,29.898-5.801,36.744-13.244h-6.9c-6,5.504-16.271,9.413-29.844,9.413-27.566,0-37.734-15.438-37.734-28.731.215-11.854,11.117-28.235,38.426-28.782,1.031-.032,1.83.917,1.113,1.806-4.668,5.724-17.984,24.244-19.51,26.634"/>
  <path d="M233.489,99.548h-26.121c.35-3.165,3.086-5.815,5.858-5.815h26.434l-.088-5.509h-28.029c-8.863,0-15.953,7.333-16.164,15.866-.033.598.367.958,1.047.958l31.799-.105c1.637.219,2.887,1.515,2.887,3.024,0,1.71-1.572,3.078-3.449,3.078h-34.986v-22.809h-10.293v22.873h-18.939c-5.15,0-6.207-3.115-6.207-5.966v-17.039h-17.084c-1.693,1.154-3.33,2.399-5.062,3.448l-10.127,6.225-13.184-9.591h-39.83c-5.234,0-9.26,1.364-12.242,3.718-5.367,4.218-7.066,8.674-6.996,10.666h6.973c-3.061,2.285-5.129,5.021-6.211,8.196h-22.916c-4.119,0-6.764-2.914-6.764-5.746v-17.029h-10.129v17.694c0,6.357,6.057,10.755,15.783,10.755h76.807c1.603-1.073,3.109-2.222,4.777-3.233l10.436-6.29,13.223,9.399h15.053l-19.889-14.918,10.221-6.649c2.176-1.427,4.459-2.618,6.691-3.941v15.024c0,6.329,1.623,10.717,14.43,10.717l72.295-.173c5.574.087,9.162-3.763,9.162-8.409,0-4.615-4.117-8.419-9.162-8.419M104.208,110.704h-37.445c.094-2.92,3.207-5.848,6.047-5.848h23.582v-5.855h-29.938c-.34-1.711,2.877-5.072,5.33-5.072h26.908v-3.138l17.443,12.464-11.928,7.448Z"/>
</svg>