<?xml version="1.0" encoding="UTF-8"?>
<svg id="Layer_1" xmlns="http://www.w3.org/2000/svg" version="1.1" viewBox="0 0 167.969 149.303">
  <!-- Generator: Adobe Illustrator 29.5.1, SVG Export Plug-In . SVG Version: 2.1.0 Build 141)  -->
  <path d="M101.195,137.119c-.016,0-.033-.014-.033-.025v-4.244c-.006-.021.006-.037.021-.043l.012.002h11.238c.018,0,.033-.014.035-.029v-3.59c0-.022-.018-.033-.035-.033h-11.238c-.016,0-.033-.014-.033-.025v-4.043c0-.014.01-.029.025-.033h12.408c.014.004.027-.002.031-.019v-3.863c.002-.018-.01-.033-.023-.033h-16.896c-.016,0-.029.012-.029.027v19.838c.002.016.014.029.029.033h16.951c.017,0,.033-.017.033-.033v-3.853c0-.02-.016-.031-.033-.031h-12.463Z"/>
  <path d="M70.623,121.781c-1.102-.457-2.531-.65-4.353-.65h-11.274c-.017,0-.033.014-.033.033v19.834c.004.018.016.031.033.033h4.486c.018,0,.031-.014.031-.033v-6.068c0-.018.014-.029.027-.033h6.719c2.611,0,4.551-.521,5.852-1.631,1.305-1.047,1.959-2.807,1.959-5.225,0-1.762-.264-3.133-.846-4.111-.557-1.023-1.488-1.793-2.602-2.148ZM68.808,130.33c-.592.523-1.5.717-2.797.717h-6.467c-.016,0-.029-.018-.031-.029v-6.072c.002-.016.016-.029.031-.033h6.467c.978,0,1.688.065,2.205.326.465.199.856.547,1.109.981.221.537.332,1.113.326,1.695-.006,1.174-.326,1.959-.844,2.416Z"/>
  <path d="M26.701,121.914c-1.689-.783-3.898-1.174-6.498-1.174-2.666,0-4.809.391-6.498,1.174-1.623.676-2.957,1.9-3.77,3.457-.844,1.516-1.236,3.393-1.236,5.68,0,2.348.392,4.244,1.236,5.738.83,1.541,2.156,2.762,3.76,3.461,1.688.783,3.832,1.17,6.496,1.17s4.81-.387,6.496-1.17c1.631-.695,2.978-1.914,3.838-3.461.846-1.498,1.234-3.393,1.234-5.738,0-2.287-.389-4.176-1.234-5.68-.836-1.562-2.188-2.783-3.824-3.457ZM26.365,134.652l.008-.006c-.414.936-1.188,1.666-2.145,2.033-.978.457-2.34.721-4.027.721-1.371.031-2.74-.189-4.029-.654-.939-.43-1.697-1.17-2.152-2.1-.447-1.117-.668-2.312-.652-3.516-.017-1.229.205-2.449.652-3.592.424-.934,1.193-1.658,2.146-2.025.98-.457,2.287-.719,4.031-.719,1.391-.037,2.777.182,4.088.654.932.412,1.67,1.156,2.08,2.09.455,1.117.674,2.316.654,3.521.025,1.23-.197,2.451-.654,3.592Z"/>
  <path d="M157.082,136.988h-11.959c-.018,0-.031-.008-.033-.025v-15.795c.002-.016-.01-.029-.025-.033h-4.428c-.018,0-.035.016-.035.033v19.838c.004.014.018.029.035.031h16.445c.014-.002.027-.017.029-.031v-3.986c-.002-.014-.016-.027-.029-.031Z"/>
  <path d="M75.221,55.676l-22.221,11.621c-.018.01-.027.025-.022.043.004.01.012.018.022.023h98.074l5.34-2.791c.024,0,.041-.018.045-.037.002-.022-.016-.041-.035-.043h-.004l-81.182-8.816h-.017Z"/>
  <path d="M82.91,13.269c23.426.008,42.41,18.994,42.414,42.42,0,.719-.018,1.43-.051,2.141l3.266.354c.045-.826.066-1.654.066-2.494-.031-25.244-20.519-45.684-45.764-45.65-19.447.025-36.748,12.35-43.123,30.721h3.482c6.225-16.537,22.041-27.488,39.709-27.49Z"/>
  <path d="M82.91,98.111c-23.43.01-42.432-18.975-42.441-42.404v-.018c0-.723.02-1.438.055-2.154l-3.266-.352c-.045.83-.068,1.664-.068,2.504.027,25.242,20.512,45.686,45.756,45.658,19.457-.02,36.767-12.352,43.141-30.736h-3.475c-6.219,16.537-22.031,27.492-39.701,27.502Z"/>
  <path d="M90.562,55.68h.017l22.223-11.592c.018-.004.027-.025.02-.041h0c-.002-.01-.01-.018-.02-.02H14.717l-5.338,2.789c-.018.006-.025.025-.022.041.004.012.012.017.022.02l81.184,8.803Z"/>
</svg>