<?xml version="1.0" encoding="utf-8"?>
<!-- Generator: Adobe Illustrator 16.0.0, SVG Export Plug-In . SVG Version: 6.00 Build 0)  -->
<!DOCTYPE svg PUBLIC "-//W3C//DTD SVG 1.1//EN" "http://www.w3.org/Graphics/SVG/1.1/DTD/svg11.dtd">
<svg version="1.1" id="Layer_1" xmlns="http://www.w3.org/2000/svg" xmlns:xlink="http://www.w3.org/1999/xlink" x="0px" y="0px"
	 width="252px" height="200px" viewBox="0 0 252 200" enable-background="new 0 0 252 200" xml:space="preserve">
<g>
	<path d="M193.443,78.024c0-23.962-30.051-43.388-67.116-43.388c-37.066,0-67.113,19.426-67.113,43.388
		c0,23.96,30.047,43.388,67.113,43.388C163.393,121.412,193.443,101.984,193.443,78.024z M126.327,39.771
		c21.633,0,39.173,6.274,39.173,14.021c0,5.771-9.747,10.733-23.667,12.884l-0.01,0.021c-2.254-15.028-8.341-25.8-15.496-25.8
		c-7.153,0-13.243,10.771-15.497,25.8l-0.009-0.021c-13.923-2.15-23.667-7.112-23.667-12.884
		C87.154,46.046,104.693,39.771,126.327,39.771z M135.626,67.421c-2.979,0.26-6.096,0.396-9.299,0.396h-0.002
		c-3.204,0-6.319-0.136-9.3-0.396c1.488-9.633,5.091-16.431,9.302-16.431C130.537,50.99,134.14,57.788,135.626,67.421z
		 M121.994,116.974c-30.044-1.552-53.732-19.097-53.732-40.512c0-7.278,2.734-14.107,7.525-20.015l0.057-0.113
		c0.363,9.889,14.503,18.252,34.073,21.306c-0.013,0.646-0.02,1.292-0.02,1.947c0,17.938,5.187,33.036,12.225,37.411
		L121.994,116.974z M126.327,103.495c-5.388,0-9.78-11.118-10.014-25.066c3.237,0.296,6.583,0.452,10.014,0.452
		c3.428,0,6.776-0.156,10.016-0.452C136.105,92.377,131.713,103.495,126.327,103.495z M130.66,116.974l-0.126,0.022
		c7.035-4.373,12.223-19.472,12.223-37.409c0-0.655-0.006-1.302-0.018-1.947c19.571-3.055,33.708-11.417,34.069-21.306l0.06,0.113
		c4.788,5.907,7.526,12.736,7.526,20.015c0,21.414-23.692,38.96-53.736,40.512H130.66z"/>
	<path d="M142.619,133.171c-8.886,0-16.094,7.207-16.094,16.096c0,8.892,7.208,16.097,16.094,16.097
		c8.895,0,16.103-7.205,16.103-16.097C158.722,140.378,151.514,133.171,142.619,133.171z M142.619,159.462
		c-4.96,0-8.984-4.565-8.984-10.195c0-5.628,4.024-10.194,8.984-10.194c4.968,0,8.991,4.566,8.991,10.194
		C151.61,154.896,147.587,159.462,142.619,159.462z"/>
	<polygon points="186.445,134.28 160.74,134.28 160.74,139.878 170.202,139.878 170.202,164.633 176.983,164.633 176.983,139.878 
		177.006,139.878 186.445,139.878 	"/>
	<path d="M205.084,134.28h-4.219h-4.222l-12.523,30.353h7.919l2.604-6.822l0.006-0.008h6.219h6.21l0.005,0.008l2.6,6.822h7.924
		L205.084,134.28z M200.865,152.681h-4.268l4.237-11.107h0.06l4.235,11.107H200.865z"/>
	<polygon points="35.722,139.878 45.185,139.878 45.185,164.633 51.965,164.633 51.965,139.878 51.99,139.878 61.426,139.878 
		61.426,134.28 35.722,134.28 	"/>
	<path d="M79.26,133.171c-8.89,0-16.097,7.207-16.097,16.096c0,8.892,7.207,16.097,16.097,16.097
		c8.889,0,16.097-7.205,16.097-16.097C95.356,140.378,88.148,133.171,79.26,133.171z M79.26,159.462
		c-4.962,0-8.987-4.565-8.987-10.195c0-5.628,4.025-10.194,8.987-10.194s8.987,4.566,8.987,10.194
		C88.247,154.896,84.222,159.462,79.26,159.462z"/>
	<polygon points="110.94,147.037 103.591,134.28 95.669,134.28 107.501,153.107 107.501,153.25 107.501,164.633 110.94,164.633 
		114.381,164.633 114.381,153.25 114.381,153.107 126.213,134.28 118.294,134.28 	"/>
</g>
</svg>
