<?xml version="1.0" encoding="utf-8"?>
<!-- Generator: Adobe Illustrator 28.2.0, SVG Export Plug-In . SVG Version: 6.00 Build 0)  -->
<svg version="1.1" id="Layer_1" xmlns="http://www.w3.org/2000/svg" xmlns:xlink="http://www.w3.org/1999/xlink" x="0px" y="0px"
	 viewBox="0 0 204 200" style="enable-background:new 0 0 204 200;" xml:space="preserve">
<style type="text/css">
	.st0{fill-rule:evenodd;clip-rule:evenodd;}
</style>
<g>
	<path class="st0" d="M101.4,48.7l-25-10.9l25,93.7l25.2-93.7L101.4,48.7z M80,42.1l21.4,9.3l21.6-9.2l-21.6,79.9L80,42.1L80,42.1z"
		/>
	<path class="st0" d="M101.5,53.3l-18.7-8.1l18.7,71l19-71L101.5,53.3z M101.5,71.7l-1.6-6.3l-9.7-1.5l9.7-1.6l1.6-6.2l1.5,6.2
		l9.9,1.6l-9.9,1.5L101.5,71.7L101.5,71.7z M125.1,163.6c0.3,0,0.5-0.2,0.5-0.5l0,0V147c0-0.3-0.2-0.5-0.5-0.5h0h-2.5
		c-0.3,0-0.5,0.2-0.5,0.5c0,0,0,0,0,0v16.1c0,0.3,0.2,0.5,0.5,0.5c0,0,0,0,0,0H125.1z M97.1,147c0-0.3,0.2-0.5,0.5-0.5c0,0,0,0,0,0
		h2.5c0.3,0,0.5,0.2,0.5,0.5v13.1c0,1.3-0.5,3.4-3.4,3.4c-1,0-2.1-0.2-3-1.5l-7.9-11.3c-0.3-0.4-1-0.6-1,0.3v12
		c0,0.3-0.2,0.5-0.5,0.5c0,0,0,0,0,0h-2.5c-0.3,0-0.5-0.2-0.5-0.5l0,0v-11.9c-0.1-1.5,0.5-4.6,3.4-4.6c1,0,2.2,0.1,3.2,1.5l7.8,11.1
		c0.3,0.4,1,0.5,1-0.3L97.1,147L97.1,147z M41.9,155.9c-0.3,0-0.5,0.2-0.5,0.5l0,0v2.5c0,0.3,0.2,0.5,0.5,0.5h7.9
		c2.5,0,6.2-1.1,6.2-6.4c0-5.3-4.1-6.4-6.6-6.4H36.5c-0.3,0-0.5,0.2-0.5,0.5l0,0v16.1c0,0.3,0.2,0.5,0.5,0.5c0,0,0,0,0,0h2.5
		c0.3,0,0.5-0.2,0.5-0.5c0,0,0,0,0,0v-12.4c0-0.4,0.2-0.8,0.6-0.8h9.4c1.1,0,2.9,0.3,2.9,2.9c0,2.3-1.1,3-2.9,3L41.9,155.9
		L41.9,155.9z M139.1,151.3c-0.4-0.7-0.9-0.7-1.3,0l-6.8,11.9c-0.2,0.4-0.3,0.5-0.6,0.5h-2.8c-0.5,0-0.4-0.3-0.3-0.4l8.5-14.8
		c1.5-2.6,3.9-2.4,5.3,0.1l8.5,14.8c0.2,0.4,0,0.4-0.3,0.4h-2.6c-0.4,0-0.7-0.2-0.8-0.4l-1.5-2.5c-0.1-0.2-0.2-0.4-0.9-0.4h-8.7
		c-0.2,0-0.3-0.1-0.1-0.4c0.2-0.3,1.7-2.7,1.7-2.7c0.1-0.1,0.2-0.3,0.5-0.3h4.8c0.3,0,0.4-0.2,0.2-0.5
		C141.8,156,139.1,151.3,139.1,151.3L139.1,151.3z M167.2,160.2c0.3,0,0.5,0.2,0.5,0.5c0,0,0,0,0,0v2.5c0,0.3-0.2,0.5-0.5,0.5l0,0
		h-10c-3.8,0-8.1-2.5-8.2-8.6c-0.1-6.5,4.8-8.5,7.5-8.5h10.7c0.3,0,0.5,0.2,0.5,0.5c0,0,0,0,0,0v2.4c0,0.3-0.2,0.5-0.5,0.5
		c0,0,0,0,0,0h-9.8c-2.5,0.1-5,1.1-5,5.1s3.4,5.1,5,5.1L167.2,160.2L167.2,160.2L167.2,160.2z M71.6,146.6h-5.1
		c-4.4,0-8.4,3-8.4,8.5s3.4,8.6,7.5,8.6h5.8c4.1,0,7.6-3,7.6-8.8C78.9,148.9,74.1,146.6,71.6,146.6L71.6,146.6z M70.2,160.4h-3.3
		c-4.3,0-5.3-2.8-5.3-5.1c0-4.6,3.4-5.4,4.8-5.4h4.4c2.5,0,4.8,1.8,4.8,5.1C75.5,159.4,72.4,160.4,70.2,160.4z M109.7,163.2
		c0,0.3,0.2,0.5,0.5,0.5c0,0,0,0,0,0h2.5c0.3,0,0.5-0.2,0.5-0.5l0-12.8c0-0.3,0.1-0.4,0.4-0.4h6.4c0.3,0,0.5-0.2,0.5-0.5
		c0,0,0,0,0,0V147c0-0.3-0.2-0.5-0.5-0.5c0,0,0,0,0,0h-17c-0.3,0-0.5,0.2-0.5,0.5l0,0v2.4c0,0.3,0.2,0.5,0.5,0.5h6.4
		c0.3,0,0.4,0.1,0.4,0.4L109.7,163.2L109.7,163.2z M117.3,105.7c-1.6,0-3,1.1-3,3s1.4,3,3,3c1.6,0,3-1.1,3-3
		S118.8,105.7,117.3,105.7z M117.3,111L117.3,111c-1.2,0-2.2-0.9-2.2-2.3s1-2.3,2.2-2.3c1.2,0,2.1,0.9,2.1,2.3S118.4,111,117.3,111z
		"/>
	<path class="st0" d="M117.8,108.9c0.4,0,0.8-0.2,0.8-0.8c0-0.7-0.5-1-1.3-1h-1.2v3.2h0.7v-1.4h0.3l0.7,1.4h0.8L117.8,108.9
		L117.8,108.9z M117.4,108.4h-0.6v-0.8h0.5c0.3,0,0.6,0,0.6,0.4C117.9,108.3,117.7,108.4,117.4,108.4z M171.9,160
		c-1.1,0-2.1,0.8-2.1,2.1c0,1.3,1,2.1,2.1,2.1c1.1,0,2.1-0.8,2.1-2.1C174,160.8,173,160,171.9,160z M171.9,163.7L171.9,163.7
		c-0.8,0-1.5-0.7-1.5-1.6s0.7-1.6,1.5-1.6c0.8,0,1.5,0.6,1.5,1.6S172.7,163.7,171.9,163.7z"/>
	<path class="st0" d="M172.3,162.2c0.3,0,0.5-0.2,0.5-0.6c0-0.5-0.3-0.7-0.9-0.7H171v2.3h0.5v-1h0.2l0.5,1h0.6L172.3,162.2
		L172.3,162.2z M172,161.9h-0.4v-0.5h0.3c0.2,0,0.4,0,0.4,0.2C172.3,161.8,172.2,161.9,172,161.9z"/>
</g>
</svg>
