<?xml version="1.0" encoding="UTF-8"?>
<svg id="Layer_1" xmlns="http://www.w3.org/2000/svg" version="1.1" viewBox="0 0 121.888 153.079">
  <!-- Generator: Adobe Illustrator 29.5.1, SVG Export Plug-In . SVG Version: 2.1.0 Build 141)  -->
  <polygon points="11.962 19.264 11.962 21.864 61.35 13.155 110.735 21.864 110.735 19.264 61.35 10.551 11.962 19.264"/>
  <path d="M11.962,24.409v35.073c0,14.052,3.303,28.036,9.814,41.546,15.286,31.745,38.972,42.863,39.218,42.961l.356.156.353-.156c.238-.098,23.913-11.216,39.199-42.961,6.511-13.51,9.808-27.494,9.808-41.546v-26.286l.024-8.787-49.385-8.658L11.962,24.409ZM109.033,59.482c0,13.788-3.256,27.532-9.662,40.827-13.993,29.072-35.076,40.479-38.02,41.957-2.935-1.478-24.053-12.885-38.036-41.957-6.404-13.295-9.661-27.039-9.661-40.827v-25.276c2.712-1.398,19.464-9.369,47.78-9.369s44.908,7.962,47.6,9.369v25.276Z"/>
  <path d="M78.655,110.891c-1.6-.379-3.371-.662-5.145-.287-1.789.34-2.75,1.361-2.978,2.781-.179,1.081,1.1,1.748,2.172,1.484,1.182-.293,1.508-1.69,1.508-1.69,0,0-.756.585-1.517.738-.784.134-1.193-.4-.975-.95.424-1.028,1.066-1.289,1.735-1.395.667-.082,1.481-.129,2.962,0,1.474.134,2.225.393,1.837,1.088-.484.856-.989.932-1.728,2.805-.322.79-.242,1.19-.768,1.19-.268,0-.98-.122-1.518.351-.648.555-.549,1.31-.549,1.31,0,0,.386-.776,1.697-.776.286,0,.102.735-.174,1.315-.279.574-1.736,4.416-4.725,4.416-3.2,0-3.675-3.124-3.509-3.539.318-.775.843-.088,1.485-.228.617-.177,1.219-1.16.401-1.733-1.913-1.302-3.727,1.909-1.744,4.729,1.881,2.72,4.859,1.685,6.431.89,1.531-.824,2.391-2.487,2.929-3.548.534-1.065.986-2.241.986-2.241,0,0,1.056,0,1.637-.243.892-.366,1.252-1.172,1.252-1.172,0,0-.664.405-2.53.334-.194,0,.302-1.106.8-2.088.556-1.033,1.206-1.947,1.657-2.141.576-.226,2.342,0,4.319-.545,1.966-.523,3.401-1.686,3.401-1.686,0,0-1.958.733-5.108.91-1.482.09-2.663.32-4.244-.078"/>
  <path d="M49.271,115.05c-2.32-.91-3.664-1.414-3.695-2.518-.009-1.861,2.352-1.4,2.873-1.222,3.05.988,4.142,3.258,4.142,3.258,0,0-.498-2.991-.598-3.542-.129-.562-.456-.484-.622-.473-.368.027-.368.645-.368.645,0,0-7.528-3.16-7.528,1.781,0,2.324,2.459,2.708,3.556,3.276,2.241,1.181,5.037,1.891,5.296,3.642.214,1.599-1.212,3.373-4.264,3.373s-4.375-2.913-4.267-3.479c.119-.556.689-.218,1.151-.218.448,0,1.231-.488.871-1.427-.295-.718-2.652-.777-2.652,1.614,0,3.406,3.381,4.424,4.854,4.424,1.456,0,4.5-.496,5.179-3.594.729-3.222-.845-4.335-3.927-5.541"/>
  <path d="M61.9,99.532l1.243.59c.718.283,1.169.15,1.322.088.186-.088.818-.781.974-1.375.058-.244.029-.449-.115-.6-.461-.566-1.323-3.201-1.634-4.611-.129-.531.013-1.982.14-3.15.092-.998.156-1.616.095-1.779-.086-.25-.448-.484-.864-.76l-.692-.459c-.343-.295-.364-.692-.372-1.117l-.096-.681c-.143-.612-3.31-3.848-3.806-3.872-.7-.066-.894.734-.94,1.197-.028.264.292,1.499.574,2.593l.325,1.288c.322,2.079,2.511,5.705,3.433,7.253l.456.747c.191.431.104.777-.238.977-.322.189-3.167-.121-4.516-.418-.589-.138-1.331-.417-2.021-.718-.817-.314-1.556-.63-2.003-.651-.526-.017-.75.067-.96.15l-.317.101-.3-.104c-.367-.147-1.068-.466-2.98-.629-2.801-.269-3.032.292-3.155.607-.124.376,1.577,2.189,1.887,2.446.4.322,1.652.793,2.428.673.881-.14,2.3-.331,2.507-.29l.266.168.279.201c.237.1,1.823.174,2.274.209.561.033,1.986.307,3.036.547l1.155.232c.481.087,1.657.66,2.615,1.147M63.034,96.199c.229,0,.423.189.423.417,0,.237-.194.412-.423.412-.233,0-.462-.175-.462-.412,0-.228.228-.417.462-.417M48.032,95.443c-.372,0-.659-.181-.659-.45,0-.25.287-.456.659-.456.361,0,.644.206.644.456,0,.27-.282.45-.644.45M53.373,95.53c-.267,0-.475-.128-.475-.303,0-.182.208-.322.475-.322.239,0,.448.141.448.322,0,.175-.209.303-.448.303M57.446,96.803c-.812-.221-2.363-.685-2.278-.998l.025-.065.017-.013c.267-.15,1.444.054,2.423.309.826.197,2.372.676,2.289.992l-.034.056-.03.021c-.257.145-1.409-.056-2.411-.302"/>
  <path d="M60.961,29.272l-.31.697s-.312.484-.312.484v.02c0,.094.054.56.054.56,0,.038.31.355.334.368-.031,0-.141.476-.141.488,0-.034-1.285.024-1.285.024l-1.04-.493-.814-.279c-.007-.005-1.886.06-1.886.06-.033.024-.367.517-.367.517l-.025.059.812.135s.127.06.198.103c-.071.05-.213.17-.213.17,0-.008-1.138-.066-1.138-.066-.02.021-.831.343-.831.343l-.089.038.404.262c.03,0,1.732.064,1.732.064,0,0,1.267.331,1.277.331,0,.012.227.362.227.362,0,0,.18.241.237.337-.069.042-.531.292-.531.292l-1.566.655-3.191,1.799-2.107.312c-.031.009-.827.459-.827.459-.027.013-.674.906-.674.906-.009.021-.373,1.143-.373,1.143-.021,1.899.049,1.949.083,1.949.031.041.607.367,1.034.135.459-.26,1.503-.514,2.071-.641.224-.053.351.053.388.146.021.115-.059.244-.25.31l-.117.028c-.927.26-1.878.56-1.847.91l.162.284c.405.3,1.518.147,2.072.022l.589-.163c.538-.158,1.119-.33,1.61-.267.301.033.534.154.855.287.393.206.877.432,1.574.481,1.168.079,1.967.312,2.024.375.153.315.037.784-.021,1.169l-.07.338c-.322,2.951-3.628,6.285-5.2,7.893-.442.42-.726.713-.786.831l-.169.42c-.151.392-.28.734-.794.926-.278.114-.955.644-1.753,1.216-1.14.859-2.537,1.902-2.942,1.853-.636-.062-3.677-2.153-3.801-2.282-2.955-2.863-4.211-2.263-4.934-1.928l-.129.053c-.877.397-1.783,2.9-1.879,3.44l-.372,1.535-.27,1.131c-.086.393-.442,1.324-.789,2.232l-.7,1.975c-.13.459-.405,1.109-.659,1.636l-.303.765c-.227.914-.227,5.855.15,6.275l.022.025.073.025c.395-.051,1.208-.884,1.613-1.289l.074-.096c.343-.334.695-1.24.695-1.624,0-.362-.178-1.136-.227-1.341-.542-1.63-.341-3.184-.237-3.945l.048-.332c.022-.354.364-.729.707-1.1l.434-.484c.226-.309.473-.422.709-.522l.363-.213.092-.064c.242-.246.671-.674.856-1.242l.35-1.566.089-.429c0-.079.047-.127.117-.134.141-.041.375.071.462.199l2.622,3.045c.658.574,1.364,1.247,1.364,1.396v.014c0-.014-.025,0-.025,0-.368.037-2.208-.359-2.522-.447-2.511-.723-3.642-.605-4.532.504-.998,1.256-.674,5.129-.486,5.559.2.384,1.11,5.092,1.153,5.726.044.621.273,1.723.54,1.971l.064.07c.299.312,1.116,1.135,1.257,1.936.159.868,2.023,3.226,2.737,3.435.11.024.193.003.296-.062.553-.388.804-2.267.831-3.046.037-1.002-.301-1.477-.688-1.994l-.151-.197c-.278-.377-.762-.504-1.097-.609-.135-.028-.321-.07-.321-.117,0-.025-.038-1.469-.493-1.752-.35-.227-.719-1.615-.768-2.141-.048-.543-.251-1.807-.519-2.372-.279-.566-.53-1.601-.409-2.407.056-.332.298-.447.501-.476.325-.054.743.101.806.204.121.299,2.781,1.871,3.679,2.225.537.205,1.288.831,1.951,1.398.458.401.885.748,1.12.855.333.176,1.311.195,2.093.2.405.007.84.017.889.056-.3.119-.3.676-.283.857.325,2.288,8.626,8.543,9.267,8.899.738.4,3.416,3.185,3.629,3.56.27.383.484.788.442,1.102-.054.463.121.996.504,1.41.368.408.805.664,1.237.664.381,0,.621-.334.806-.577l.045-.059c.483-.65,1.223-1.613,1.318-3.108.088-1.541.814-2.157,1.039-2.184.092-.036.188,0,.196.067.043.06,0,.189-.139.278-.304.21-.491.891-.697,1.62,0,.013-.074.731-.074.731-.016.559-.047,1.188-.592,1.799-.83.876-1.786,2.945-2.014,5.546-.159,1.561.557,3.817,2.101,6.702l.084.191.43.706c.435.669,1.116,1.782,1.096,2.044-.061.376-.082.68-.73,1.466-.711.889-3.27,3.886-3.529,3.94-.51,0-.589.05-.997.366l-.436.322c-.474.352-.562.605-.641.822-.059.162-.122.312-.33.48l-.163.115c-.037.014-.133.147-1.156,1.186-1.179,1.172-1.719,2.5-1.535,3.807.064.404.414.56,1.452.601,1.05.05,3.458-1.636,3.573-2.17l.024-.216c.099-.486.265-1.32.522-1.441.334-.158.903-.802,1.321-1.263l.066-.097c.206-.26.267-.519.322-.74.043-.203.084-.391.226-.57.083-.117.238-.196.4-.264.309-.163.723-.351,1.006-1.082.282-.709,2.008-1.951,3.266-2.842.629-.459,1.139-.825,1.266-.978.188-.215.273-.631.273-1.078,0-.504-.136-1.072-.474-1.385-.482-.443-.92-1.758-1.064-2.176h0c0-.156-.022-.482-.04-1.072v-.074c0-1.545,2.282-3.058,3.298-3.711l.434-.301c3.594-3.176,4.304-5.574,4.419-6.23l.075-.801c.033-.538.073-1.077.372-1.14.134-.017.338.089.497.23.07.094.175.262.109.479-.162.434-.246,4.896-.254,5.088.04.02.409.476.409.476l.076.075.007-.097c0-.065.203-1.273.203-1.714,0-.469.795-2.538.958-2.572,0,.013.025.029.025.029.092.28.196.978.196,1.725,0,.734-.104,1.503-.442,1.935-.559.668-.963,1.715-1.257,2.412l-.264.594c-.035.049-.035.157-.035.245,0,.586.299,1.778.492,2.003.056.06.101.06.116.06.072-.028.121-.109.121-.585,0-1.807,1.495-3.113,1.539-3.125,1.33-1.053,1.621-3.026,1.621-4.523,0-1.137-.15-1.997-.172-2.025-.013-.016-.624-.922-.655-.939.037.017.213-.122.268-.179.059.082.66.897.66.897.111.139.392.551.392.723,0,.92.131,1.565.217,2.035l.034.101c.1.506.781,2.087.805,2.146l.074.162.034-.183s.08-.831,0-1.537c-.075-.397.013-.876.07-1.401l.125-1.209c0-.979-.134-1.6-.493-2.172l-.173-.254c-.047-.109-.134-.213-.134-.25l.134-.056c2.829-.95,4.15-3.026,4.69-4.19.551-1.214.589-3.097.589-3.451,0-.468-.038-2.917-.436-4.164-.258-.749-.153-1.532-.095-2.392l.095-1.46c0-1.012.519-1.753,1.029-2.476l.62-.952c.378-.776.196-1.466.021-1.661-.06-.082-.118-.082-.137-.078-.031.01-.077.045-.077.129-.054.406-.566,1.398-.939,1.544-.798.314-1.199,1.235-1.489,1.911-.168.34-.321.674-.435.674-.016,0-.079-.043-.153-.156-.483-.844-.228-2.115.022-3.16l.032-.25c.169-.866,1.192-2.086,1.813-2.823l.242-.315c.436-.516.544-2.266.468-2.399-.032-.007-.041.005-.062.021-.015.009-.015.021-.029.03v-.009.018c-.036.019-.06.019-.06.11-.115.547-1.124,1.672-2.823,3.139-.347.306-.755.856-1.072,1.285-.209.309-.454.631-.542.637-.422-2.256.362-3.535.73-4.166l.144-.316c.74-1.972,2.603-3.457,2.624-3.473.02-.062.02-.118-.021-.168-.059-.049-.207-.029-.414.084l-.096.062c-.655.3-2.625,1.26-3.812,3.564-.869,1.657-1.195,3.497-1.195,4.901,0,.713.1,1.293.237,1.688.397,1.123,1.144,3.911,1.363,5.018.151.672.175,3.008.175,4.47v1.253l-.373,1.176c0,.013-.188.935-1.702,2.486-1.524,1.549-3.224,2.059-3.23,2.071-.696.058-1.305.036-1.332-.065,0-1.779-3.062-5.929-4.613-7.302-1.597-1.401-2.869-2.386-5.043-3.708-2.207-1.341-4.642-6.971-4.674-7.023l-.201-.748s-.126-1.516-.161-1.928c.089.05.188.125.188.125l.754.434c.014,0,.848.334.848.334.012.008,1.136.217,1.136.217,0,.004.64.329.64.329l.587.377.885.654c.018,0,.951.489.951.489.021.008,1.103.058,1.103.058l.019-.093s-1.254-.592-1.267-.592c0-.025-.454-.807-.454-.807l-.536-.763c-.033-.021-.658-.396-.658-.396-.022,0-.814-.129-.814-.129,0,0-.179-.13-.24-.209.057-.038.198-.122.198-.122,0,.004.869.109.869.109.006.013.796.543.796.543l.853.65c0,.01.8.316.8.316l.11.04-.356-.909c-.024,0-.667-.619-.667-.619l-.942-.818c-.03-.01-.774-.394-.774-.394l-.805-.269-.84-.538v-.105c.117.034,1.189.469,1.189.469l1.023.27c-.009,0,.825.334.825.334,0-.004,1.248.598,1.248.598.022,0,1.022.221,1.022.221.008,0,1.247-.221,1.247-.221.031-.008,1.205-.826,1.205-.826,0-.02.208-.504.208-.504l.058-.127-.37.162c-.021,0-1.069.538-1.069.538l-.734.177s-.835-.177-.835-.177c0-.003-.685-.636-.685-.636l-.971-.924c0-.014-.85-.451-.85-.451-.031-.004-1.029-.156-1.029-.156,0,0-.632-.328-.632-.335v-.024c0-.081-.01-.238-.03-.318.115.012,1.289.121,1.289.121.008,0,1.395-.121,1.395-.121l.805.168.793.328.786.097.159.034-.901-.877c-.011,0-.92-.656-.92-.656-.013,0-.764-.269-.764-.269,0-.014-1.257-.125-1.298-.125.019,0,.019-.022.019-.047,0-.079-.019-.185-.019-.238.089-.009.586-.104.586-.104l.958.221c0,.008.898.539.898.539l.972.325c.02,0,1.41-.212,1.41-.212l.071-.01-.42-.559c-.03-.019-.711-.234-.711-.234,0-.014-.581-.434-.581-.434l-.856-.598c-.01,0-.668-.221-.668-.221l-.999-.171c0-.013-.494-.463-.513-.472.019,0,.054-.168.054-.247.074.03.542.159.542.159l.692.327c.009,0,.975.308.975.308l-.223-.435c-.019-.013-.375-.396-.375-.396,0,0-.242-.289-.331-.43.063-.01.126-.038.126-.038,0,.02,1.041.55,1.041.55,0,0,.808.275.82.275,0,.01.612.588.612.588.009.006,1.19.682,1.19.682l.119.062-.215-.576c0-.021-.647-.83-.647-.83l-.538-.919c-.006-.013-.951-.992-.951-.992-.022-.013-1.236-.669-1.236-.669l-.491-.537-.84-.869c0-.007-.1-.316-.154-.463.167.038.849.264.849.264l.98.278.666.436c0,.007.573.7.573.7.029.013.929.388.929.388l2.314.312.139.006-.627-.674c-.024,0-1.273-.558-1.273-.558l-.725-.538-.417-.744-.428-.768c0-.01-.7-.678-.7-.678-.013,0-.868-.491-.868-.491l-.853-.7s-.206-.428-.308-.714c.203.213.575.567.575.567l1.123.984c.022.016.868.397.868.397l.742.598.846.851c.031.02,1.372.221,1.372.221l.153.012-1.353-1.16c0-.024-.296-.969-.296-.969-.025-.02-.716-.676-.716-.676l-.36-.425c0-.013-.37-1.132-.37-1.132-.019-.021-.762-.78-.762-.78,0-.007-1.226-1.142-1.226-1.148v-.008s-.051-.19-.074-.3c.094.048.22.11.22.11l1.131.656c0,.008,1.343.383,1.343.383l1.391.334,1.601.262-.387-.771c-.011-.022-.805-.354-.805-.354l-.761-.432-.906-.385-.783-.325c0-.019-.538-.674-.817-1.05.267.188.7.481.7.481.022.013.707.054.707.054h2.202l.9.493.719.825.144.101-.111-.926c-.032-.022-.491-.618-.491-.618-.013-.017-1.305-.731-1.305-.731l-1.008-.376c-.021-.006-1.546-.27-1.565-.27v-.026c0-.007-.271-.35-.271-.35-.02-.009-1.136-1.051-1.136-1.051l-.548-.263s-.182-.175-.29-.306h.58c0,.013.889.547.889.547.009.018,1.173.39,1.173.39l1.506.23c0,.012.556.629.556.629.025.005.826.506.826.506.012,0,.931.166.931.166l.111.009-1.89-2.325c-.019-.016-.913-.5-.913-.5-.011,0-1.083-.326-1.083-.326,0-.016-.958-1.081-.958-1.081,0-.02-1.161-.726-1.161-.726-.031-.004-.698-.172-.871-.209.041-.092.216-.375.216-.375l.958-.43c.007.013,1.375-.259,1.375-.259.051-.028.162-.362.162-.362-.022-.051-.608-.435-.608-.435-.019-.009-.713-.231-.713-.231-.041.014-.409.231-.409.231,0-.009-1.156.042-1.156.042l-1.38-.33s-1.436-1.182-1.436-1.182c0-.022-.624-.35-.624-.35-.023,0-2.389-.267-2.389-.267,0-.03-.556-.849-.556-.849,0-.004-.752-.822-.752-.822,0-.013-.949-.876-.949-.876l-.052.071ZM50.359,39.923s-.182.154-.194.162c-.267.254-.397.367-.647.209-.135-.074-.188-.326-.188-.455-.024-.328.029-.764.233-.938l.13-.134c.098-.141.212-.279.484-.279.213,0,.516.033.659.204.092.097.134.216.115.384-.032.383-.335.626-.593.848M52.055,39.094l-.035.119c-.058.149-.092.178-.274.162-.109,0-.188-.013-.21-.075-.061-.043-.038-.104,0-.153v-.135c-.038-.137-.083-.305.014-.387.008,0,.037-.047.154-.021.112.021.274.07.351.209.048.087.037.171,0,.281M53.115,40.941c-.178,0-.343-.163-.343-.351,0-.205.165-.362.343-.362.219,0,.372.157.372.362,0,.188-.153.351-.372.351M56.16,36.346l-1.314.855-.896.352-.111.027c-.497.16-.838.133-.921-.046-.12-.308.557-.604,1.34-.947l.249-.082.516-.265c.374-.176.73-.342,1.085-.416.138-.014.316-.029.362.074.043.166-.278.417-.31.447M34.202,70.979c-.214,0-.401-.179-.401-.379,0-.225.188-.393.401-.393.25,0,.446.168.446.393,0,.2-.196.379-.446.379M37.606,58.614c-.246.736-.575,1.324-.794,1.424l-.11.013c-.251-.093-.113-.924.145-1.703.242-.738.565-1.328.772-1.435l.151-.009c.237.084.108.935-.164,1.711M39.243,55.592c-.397,0-.73-.192-.73-.425,0-.237.334-.434.73-.434.418,0,.727.197.727.434,0,.233-.309.425-.727.425M42.763,60.137l-.102.049c-.185.006-.562-.211-.906-.551-.342-.304-.646-.676-.646-.885,0-.045.024-.082.053-.098l.106-.053c.183-.012.557.201.926.553.409.357.725.822.568.984M41.338,79.3c.259,0,.488.213.488.478,0,.248-.23.47-.488.47-.279,0-.509-.222-.509-.47,0-.265.229-.478.509-.478M36.812,63.673c.132-.199.31-.33.452-.346l.179.048c.163.118.144.443-.083.722-.145.197-.329.31-.461.344l-.178-.051c-.166-.117-.124-.42.091-.717M37.879,72.295l-.083-.013-.025-.012c-.184-.122-.481-.856-.681-1.787-.15-.654-.362-1.898-.07-1.974l.07.011.025.006c.207.125.481.855.686,1.785.152.656.353,1.92.078,1.983M44.138,68.122c-.386.287-1.547-.432-1.815-.644l-1.595-1.197.038-.105c.012.018,1.453.31,2.278.827.738.454,1.129.744,1.174.955,0,.037-.026.113-.08.164M46.6,61.952c-.403.994-.893,1.782-1.195,1.916l-.169.004c-.102-.049-.143-.191-.143-.408,0-.451.206-1.223.474-1.94.398-1.007.888-1.786,1.205-1.913l.171-.01c.087.035.119.194.119.398,0,.474-.203,1.24-.462,1.953M65.58,91.975l-.061.055h-.022c-.058.022-.108-.051-.12-.079-.105-.172-.215-.656-.215-1.124,0-.338.052-.654.215-.889,0,0,.797-1.356.801-1.373.057-.005.33-.121.496.014.076.087.076.237,0,.475l-.308.676-.344.897-.442,1.349ZM67.408,98.537l-.022.132-.085-.119c-.048-.09-1.41-2.263-1.054-2.822.034-.109.168-.162.343-.138.195.007.366.108.484.271.592.71.333,2.587.333,2.676M60.475,112.979c-.211.238-.491.385-.686.385l-.16-.062c-.042-.038-.062-.094-.062-.163,0-.192.135-.456.385-.706.227-.241.493-.391.698-.391l.134.072c.176.16.047.519-.309.865M62.884,109.37c-.21.216-.448.358-.604.358l-.146-.041c-.108-.159.066-.509.302-.765.216-.213.453-.355.625-.355l.118.048c.147.145-.035.486-.295.755M84.026,81.3l.815-1.216c.693-.988,1.572-2.244,1.757-2.888.232-.808.267-2.602.267-3.938,0-.926-.034-1.645-.034-1.66l.104-.014c.013.029,1.365,3.806.703,5.881-.627,1.898-1.461,2.748-2.165,3.445l-.537.547c-.403.494-.694.348-.759.281-.125-.055-.178-.176-.178-.31.008-.034.008-.079.027-.129M76.101,84.893c.059-.272.384-.422.384-.422h.022c.037,0,.647.2.647.668,0,.517-.058.893-.112,1.178-.055.217-.222.326-.351.326-.122.012-.205-.068-.26-.185l-.061-.525-.043-.359-.091-.192c-.095-.124-.196-.292-.134-.488M70.598,102.214c.282,0,.514.229.514.494,0,.285-.231.484-.514.484-.272,0-.503-.199-.503-.484,0-.266.23-.494.503-.494M68.502,103.482l.059.007.008.021c.247.25-1.585,2.113-1.668,2.198-.834.865-1.823,1.729-2.092,1.729l-.054-.013-.029-.004c-.236-.268,1.598-2.128,1.69-2.212.838-.863,1.827-1.727,2.086-1.727M59.833,34.993c.203-.091.423-.112.559-.065l.128.132c.077.168-.083.415-.404.562-.186.085-.391.11-.548.061l-.131-.128c-.008-.038-.008-.066-.008-.092,0-.162.158-.35.403-.469M57.126,36.693c.075-.243.38-.477.709-.552l.624-.066.078.02c.331.006.66.252.853.631.197.388.178.828-.025,1.131-.08.101-.175.163-.318.18-.496.033-1.361-.501-1.846-1.045-.096-.078-.105-.188-.075-.298M58.352,41.608l-.31.039-.224.09-.146.022-.071-.108c-.053-.121-.012-.159.062-.227l.046-.055.551-.379c.426-.302,1.014-.705,1.112-.814.065-.092.171-.123.257-.1.096.008.137.049.148.108.026.062.012.17-.114.333l-.309.496-.209.344c-.158.158-.505.203-.793.25M52.415,56.686c.224-.367,1.276-1.252,2.576-1.23,2.01.053,2.61,1.047,2.737,1.351.049.056.08.15.022.213-.087.101-.311.03-.786-.123-.495-.172-1.212-.394-1.871-.378-.885.027-1.606.178-2.07.292l-.572.102-.07-.016-.013-.034c-.015-.03,0-.105.047-.176M59.062,80.214c-.016-.02-3.729-2.866-4.986-4.072-.9-.854-1.922-2.039-1.871-2.523.025-.072.069-.135.13-.182.438-.235.872-.149,1.773,1.045.895,1.168,4.987,5.613,5.037,5.666l-.083.066ZM59.826,60.66c-.238.149-.656.02-.831-.075-.32-.158-.483-.355-.483-.586,0-.232.325-.676.773-.676.474,0,.668.093.72.902,0,.201-.052.342-.179.434M60.664,48.048l-.1.213c-.246.668-.677,1.228-1.064,1.721l-.581.799c-.461.744-1.414,1.688-1.665,1.875-.158.095-.29.05-.365-.013-.083-.087-.102-.209-.052-.304l.517-.934,1.558-2.944.083-.171c.525-.942,1.27-2.227,1.7-2.345l.172.022c.483.287.386.534-.203,2.082M66.344,77.093c-.246.3-.421.647-.453.919-.031.194-.173.334-.299.383-.102.029-.216,0-.28-.049-.145-.152-.108-.59-.066-.678,0,0,.306-1.626.334-1.643,0-.008.164-.201.388-.211l.334.139c.372.35.31.847.043,1.14M65.284,54.817c-.22,0-.421-.184-.421-.393,0-.228.201-.41.421-.41.234,0,.435.182.435.41,0,.209-.2.393-.435.393M65.605,53.647c-.228,0-.438-.18-.438-.4,0-.224.209-.398.438-.398.255,0,.461.175.461.398,0,.221-.206.4-.461.4M65.967,52.409c-.309,0-.55-.205-.55-.458s.24-.448.55-.448c.306,0,.54.195.54.448s-.234.458-.54.458M66.248,51.028c-.28,0-.529-.18-.529-.405,0-.233.249-.397.529-.397.272,0,.518.164.518.397,0,.226-.246.405-.518.405M66.499,49.96c-.392,0-.723-.159-.723-.392,0-.226.331-.406.723-.406.401,0,.728.181.728.406,0,.233-.327.392-.728.392M66.642,47.009c.216-.028.422.014.567.101l.092.153c0,.213-.227.394-.576.451-.218.037-.443-.004-.552-.088l-.107-.172c-.044-.207.216-.4.576-.445M66.174,46.165c0-.19.204-.346.513-.371.185-.025.378.029.48.114l.1.183c.025.196-.211.359-.517.388-.222.022-.372-.028-.489-.125l-.087-.172v-.017ZM66.75,48.685c-.334,0-.594-.166-.594-.379s.26-.394.594-.394c.325,0,.584.182.584.394s-.259.379-.584.379M66.925,45.259c-.282,0-.509-.163-.509-.376,0-.191.227-.362.509-.362.285,0,.483.171.483.362,0,.213-.198.376-.483.376M66.9,44.053c-.235,0-.448-.16-.448-.348,0-.194.213-.362.448-.362.239,0,.434.168.434.362,0,.188-.194.348-.434.348M66.925,43.061c-.226,0-.417-.138-.417-.31,0-.175.191-.325.417-.325.215,0,.377.15.377.325,0,.172-.162.31-.377.31M67.271,41.692c0,.179-.132.338-.314.338-.207,0-.354-.159-.354-.338,0-.188.147-.33.354-.33.183,0,.314.143.314.33M66.774,40.979c-.205,0-.358-.16-.358-.334,0-.193.153-.328.358-.328.193,0,.346.135.346.328,0,.174-.152.334-.346.334M66.378,37.741c.182-.06.348-.109.48-.031.125.072.267.172.242.322-.025.093-.117.166-.295.225l-.163.025c-.395.116-.978.275-1.062.434-.089.16-.484.359-.717.285-.075-.025-.188-.101-.146-.312l.009-.146c.083-.484.195-1.157.826-1.388.192-.054.309-.061.359-.013.072.086.032.206-.02.331-.061.159-.083.276-.02.321.117.045.306,0,.506-.053M65.924,34.409c.175.118.143.241.099.297-.079.2-.461.353-.71.291l-.159-.028c-.127-.02-.127-.045-.163-.167l-.027-.096c-.028-.104.018-.222.133-.301.188-.146.539-.188.828.004M65.095,33.046c.217,0,.423.223.51.429.053.122.029.233-.054.275-.083.071-.175.101-.293.075-.091-.029-.163-.088-.204-.17l-.246-.138c-.145-.052-.292-.089-.292-.21,0-.221.272-.262.579-.262M64.921,55.255c.247,0,.456.145.456.342,0,.2-.209.348-.456.348s-.432-.147-.432-.348c0-.196.186-.342.432-.342M64.508,56.206c.218,0,.413.138.413.297,0,.162-.195.291-.413.291-.213,0-.414-.129-.414-.291,0-.159.189-.297.414-.297M64.106,57.019c.229,0,.401.138.401.297,0,.171-.173.302-.401.302-.211,0-.403-.131-.403-.302,0-.159.192-.297.403-.297M63.402,64.281c.522,2.403,3.105,6.052,3.542,6.603.013,0,.039.013.039.013,0,0,0,.025-.016.029.016.008.028.041.04.053-.012.01-.024.02-.051,0l-.013.01-.02-.01c-.085-.033-.321-.138-.957-.45-.044-.003-.846-.446-2.511-3.13-.278-.481-1.196-2.847-1.196-3.71,0-.079,0-.159.02-.216.037-.051.078-.099.105-.111h.007c.234-.076.418-.069.547.013.271.146.376.519.464.906M62.563,41.749c.096-.053.246-.007.32.118.089.131.12.372-.137.601-.422.385-.751.619-1.269.81-.354.131-.827.234-1.032.066-.054-.028-.073-.091-.073-.183v-.043c.02-.362.751-.592,1.242-.738.225-.053.464-.246.665-.425l.283-.206ZM61.486,40.67c.088-.079.38-.05.51.087.061.055.15.223-.034.477-.216.267-.462.446-.69.609l-.395.346c-.106.16-.304.229-.439.147-.045-.029-.144-.092-.144-.264,0-.078.012-.162.045-.263.158-.488.785-.892,1.043-1.055l.104-.084Z"/>
  <path d="M59.3,31.735c.064,0,.652-.28.652-.28.031-.058-.096-.63-.096-.63-.024-.018-1.32-1.527-1.32-1.527l-.078-.066v.082l-.152.609-.397.988-.031.038.888.452.534.334Z"/>
</svg>