<?xml version="1.0" encoding="UTF-8"?>
<svg id="Layer_1" xmlns="http://www.w3.org/2000/svg" version="1.1" viewBox="0 0 252.27 54.661">
  <!-- Generator: Adobe Illustrator 29.5.1, SVG Export Plug-In . SVG Version: 2.1.0 Build 141)  -->
  <path d="M20.334,8.142h-7.517c-1.395,0-2.037.662-2.037,2.018v34.289c0,1.361.677,1.999,2.037,1.999l7.538.018c1.39,0,2.007-.706,2.007-2.032V10.16c0-1.38-.678-2.018-2.028-2.018"/>
  <path d="M71.337,26.928c-3.986-1.282-25.49-8.067-26.479-8.374-.791-.238-.807-.777-.692-1.144.079-.375.415-.533,1.059-.533.706,0,29.447.005,29.447.005,1.361,0,1.983-.624,1.983-2.014v-4.708c0-1.355-.596-2.018-1.993-2.018h-29.834c-8.259,0-11.811,4.521-11.811,9.782,0,4.176,2.023,7.578,7.38,9.373,1.103.37,26.791,8.508,27.568,8.749.732.252.83.841.708,1.182-.12.406-.417.629-1.029.629h-32.674c-1.38,0-2.036.643-2.036,2.002v4.571c0,1.482.603,2.036,2.052,2.036,0,0,30.022.031,32.861-.018,7.513-.089,11.889-3.085,11.889-9.427,0-5.297-2.3-8.121-8.398-10.094"/>
  <path d="M130.609,8.142l-7.611-.022c-1.444,0-2.037.659-2.037,2.014v21.737c0,3.617-.55,5.743-5.497,5.901-1.15.035-3.248.05-4.781.05-1.524,0-3.284-.015-4.44-.05-4.951-.158-5.833-2.284-5.833-5.901V10.135c0-1.376-.667-1.992-2.007-1.992h-7.603c-1.385,0-1.983.642-1.983,1.992,0,0,.006,19.215.006,23.558,0,6.054,1.354,12.598,12.76,12.73,4.16.044,9.101.115,9.101.115,0,0,4.639-.046,8.813-.115,12.073-.201,13.122-6.4,13.122-12.73V10.16c0-1.359-.609-2.018-2.009-2.018"/>
  <path d="M239.489,8.142l-7.637-.022c-1.43,0-2.026.659-2.026,2.014v21.737c0,3.617-.546,5.743-5.486,5.901-1.147.035-3.263.05-4.782.05s-3.285-.015-4.451-.05c-4.951-.158-5.832-2.284-5.832-5.901V10.135c0-1.376-.662-1.992-2.008-1.992h-7.592c-1.398,0-1.998.642-1.998,1.992v23.558c0,6.054,1.38,12.598,12.78,12.73,4.165.044,9.101.115,9.101.115,0,0,4.635-.046,8.794-.115,12.095-.201,13.136-6.4,13.136-12.73V10.16c.02-1.359-.608-2.018-1.998-2.018"/>
  <path d="M186.464,37.857h-32.711c-.589,0-.881-.223-1.006-.619-.122-.351-.034-.939.727-1.191.757-.241,26.455-8.373,27.554-8.749,5.361-1.816,7.386-5.197,7.386-9.373,0-5.262-3.562-9.782-11.817-9.782h-29.828c-1.41,0-2.021.662-2.021,2.018v4.708c0,1.39.637,2.014,2.006,2.014,0,0,28.726-.005,29.463-.005.64,0,.95.158,1.055.533.093.366.08.905-.693,1.144-.988.307-22.529,7.092-26.505,8.374-6.094,1.973-8.379,4.797-8.379,10.094,0,6.342,4.357,9.338,11.866,9.427,2.833.05,32.879.004,32.879.004,1.436,0,2.06-.539,2.06-2.022v-4.571c0-1.359-.649-2.002-2.034-2.002"/>
</svg>