<?xml version="1.0" encoding="utf-8"?>
<!-- Generator: Adobe Illustrator 16.0.0, SVG Export Plug-In . SVG Version: 6.00 Build 0)  -->
<!DOCTYPE svg PUBLIC "-//W3C//DTD SVG 1.1//EN" "http://www.w3.org/Graphics/SVG/1.1/DTD/svg11.dtd">
<svg version="1.1" id="Layer_1" xmlns="http://www.w3.org/2000/svg" xmlns:xlink="http://www.w3.org/1999/xlink" x="0px" y="0px"
	 width="210.333px" height="200px" viewBox="0 0 210.333 200" enable-background="new 0 0 210.333 200" xml:space="preserve">
<g id="CADILLAC_2DCREST">
	<g id="CADILLAC_2DCREST_POS_RGB">
		<path id="Shape" d="M58.922,97.137H44.809l-1.09-6.453h60.561v6.453h-1.635v-4.953H58.398L58.922,97.137z M43.469,89.184h60.789
			v-4.75H42.695L43.469,89.184z M81.486,105.09h22.771v-3.385H81.51L81.486,105.09z M42.082,82.957H56.49l-2.727-4.75h48.881v4.727
			h1.635v-6.361h-66.65L42.082,82.957z M129.051,76.572h-22.975v9.521h22.975V76.572z M48.082,113.271
			c0.363,0.568,1.068,1.227,3.363,1.842c1.113,0.271,2.34,0.545,4.066,0.93h24.385v-3.361H47.764
			C47.854,112.908,47.969,113.09,48.082,113.271L48.082,113.271z M46.695,108.135h33.201v-9.498H45.059L46.695,108.135z
			 M81.486,121.451c8.5,1.684,16.816,3.229,22.793,4.16v-15.93H81.486V121.451z M130.617,97.137h34.906l1.59-9.521h-36.496V97.137z
			 M130.617,79.594v3.385l37.541-0.021l2.363-3.363H130.617z M187.316,69.049l-11.068,15.613
			c-1.203,6.635-4.385,23.723-4.748,25.383c-1.047,4.771-1.545,7.682-10.93,9.932c-12.5,2.953-41.088,8.725-55.428,10.975
			c-14.338-2.25-42.926-7.998-55.402-10.975c-9.385-2.229-9.885-5.137-10.93-9.932c-0.363-1.637-3.523-18.748-4.75-25.383
			L23.018,69.049H187.316z M178.59,71.98H31.742l8.727,12.453c2.182,12.953,3.523,21.27,4.09,24.18
			c0.979,5.045,1.137,7.227,6.363,8.635c10.363,2.455,40.451,8.637,54.268,10.727c13.816-2.068,43.881-8.25,54.266-10.703
			c5.227-1.41,5.385-3.59,6.363-8.635c0.545-2.91,1.908-11.227,4.09-24.18L178.59,71.98z M106.076,105.09h1.635v-4.795h43.449
			c-0.045,0.455-0.453,3.682-0.682,4.818h13.727l1.09-6.453h-59.219V105.09z M106.076,111.295h56.969l0.934-4.705h-57.902V111.295z
			 M129.051,90.684h-22.975v3.408h22.975V90.684z M106.076,112.703h56.516c-0.092,0.205-0.182,0.41-0.297,0.592
			c-0.385,0.568-1.068,1.271-3.361,1.84c-10.227,2.545-38.359,8.135-52.836,10.5L106.076,112.703z M107.711,123.701
			c2.613-0.477,8.977-1.59,11.25-2.021c23.109-4.408,27.088-5.09,29.018-7.363h-40.268V123.701z"/>
	</g>
</g>
</svg>
