<?xml version="1.0" encoding="utf-8"?>
<!-- Generator: Adobe Illustrator 16.0.0, SVG Export Plug-In . SVG Version: 6.00 Build 0)  -->
<!DOCTYPE svg PUBLIC "-//W3C//DTD SVG 1.1//EN" "http://www.w3.org/Graphics/SVG/1.1/DTD/svg11.dtd">
<svg version="1.1" id="Layer_1" xmlns="http://www.w3.org/2000/svg" xmlns:xlink="http://www.w3.org/1999/xlink" x="0px" y="0px"
	 width="300px" height="184.334px" viewBox="0 0 300 184.334" enable-background="new 0 0 300 184.334" xml:space="preserve">
<g>
	<path fill="#FFFFFF" d="M218.597,102.577h-3.168l-1.873,5.806h3.025c0.338,0,0.996-0.104,2.031-0.378
		c0.501-0.129,0.996-0.411,1.455-0.907c0.453-0.483,0.775-1.015,0.991-1.65c0.287-0.928,0.287-1.633-0.018-2.123
		C220.721,102.834,219.913,102.577,218.597,102.577"/>
	<path fill="#FFFFFF" d="M173.708,83.804c1.486,0,2.595-0.201,3.358-0.635c0.769-0.407,1.506-1.135,2.206-2.164
		c0.711-1.032,1.476-2.704,2.31-5.002c1.054-3.085,1.409-5.161,1.016-6.281c-0.391-1.139-1.494-1.68-3.325-1.68h-1.731
		l-5.544,15.762H173.708z"/>
	<path fill="#FFFFFF" d="M110.821,102.577h-3.145l-1.893,5.806h3.012c0.334,0,0.994-0.104,2.041-0.378
		c0.494-0.129,0.995-0.411,1.466-0.907c0.438-0.483,0.781-1.015,0.993-1.65c0.29-0.928,0.29-1.633-0.011-2.123
		C112.937,102.834,112.131,102.577,110.821,102.577"/>
	<polygon fill="#FFFFFF" points="124.801,68.964 118.676,79.343 123.677,79.343 	"/>
	<path fill="#FFFFFF" d="M150.013,41.309c-59.411,0-107.88,22.938-107.88,51.038c0,28.091,48.469,51.029,107.88,51.029
		c59.412,0,107.891-22.938,107.891-51.029C257.903,64.246,209.425,41.309,150.013,41.309 M198.869,78.399l2.027-5.97l19.624-0.32
		l-3.924,6.068l-19.374,9.188l10.336-9.282L198.869,78.399z M183.228,61.493c2.089,0,3.614,0.361,4.63,1.062
		c1.022,0.712,1.714,1.714,2.041,3.022c0.357,1.356,0.435,2.897,0.191,4.655c-0.242,1.769-0.722,3.626-1.422,5.59
		c-1.082,3.083-2.197,5.48-3.332,7.172c-1.144,1.717-2.413,3.109-3.793,4.258c-1.394,1.146-2.703,1.939-3.981,2.312
		c-1.727,0.52-3.182,0.778-4.43,0.778h-10.431l10.13-28.849H183.228z M123.677,61.493h7.646l-1.59,28.849h-7.326l0.557-4.765h-8.007
		l-2.77,4.765h-7.172L123.677,61.493z M94.188,61.493h7.009L93.564,83.23h10.935l-2.484,7.111H84.048L94.188,61.493z
		 M89.714,112.893l-19.63,0.342l3.924-6.073l19.376-9.195l-10.316,9.293l8.662-0.314L89.714,112.893z M120.735,104.743
		c-0.525,1.596-1.236,2.953-2.164,4.112c-0.923,1.145-1.976,2.083-3.19,2.796c-0.749,0.454-1.718,0.856-2.873,1.119
		c0.737,0.375,1.241,0.721,1.532,1.057c0.18,0.253,0.402,0.747,0.654,1.51c0.252,0.769,0.382,1.366,0.417,1.786l0.773,8.294h-8.096
		l-1-8.765c-0.128-1.118-0.324-1.836-0.603-2.196c-0.362-0.434-0.877-0.671-1.526-0.671h-0.648l-3.774,11.632h-7.225l9.312-28.601
		h11.992c2.208,0,3.822,0.223,4.847,0.713c1.022,0.437,1.672,1.313,1.996,2.593C121.479,101.386,121.329,102.931,120.735,104.743
		 M147.714,110.884c-1.077,3.334-2.436,6.093-4.054,8.237c-1.612,2.157-3.444,3.79-5.569,5.019
		c-2.128,1.159-4.476,1.773-7.048,1.773c-2.641,0-4.631-0.531-6.011-1.541c-1.382-1.037-2.243-2.682-2.59-4.895
		c-0.36-2.232,0.016-4.991,1.104-8.342c1.525-4.662,3.777-8.302,6.728-10.905c2.959-2.608,6.333-3.897,10.096-3.897
		c3.873,0,6.441,1.268,7.688,3.82C149.321,102.715,149.214,106.288,147.714,110.884 M149.214,90.342l-2.935-15.835l-5.559,15.835
		h-6.584l10.122-28.849h6.558l2.935,15.957l5.604-15.957h6.611l-10.134,28.849H149.214z M154.111,125.417l0.536-28.601h7.523
		l-1.49,20.573l11.868-20.573h7.3l-17.947,28.601H154.111z M197.375,113.306h-11.174l-1.834,5.621h12.396l-2.089,6.49H175.06
		l9.308-28.601h19.248l-1.99,6.114h-12.034l-1.49,4.533h11.182L197.375,113.306z M228.509,104.743
		c-0.501,1.596-1.243,2.953-2.161,4.112c-0.917,1.145-1.975,2.083-3.191,2.796c-0.737,0.454-1.713,0.856-2.872,1.119
		c0.741,0.375,1.243,0.721,1.525,1.057c0.177,0.253,0.413,0.747,0.665,1.51c0.238,0.769,0.397,1.366,0.419,1.786l0.784,8.294h-8.128
		l-1.009-8.765c-0.124-1.118-0.285-1.836-0.574-2.196c-0.369-0.434-0.891-0.671-1.551-0.671h-0.629l-3.789,11.632h-7.203
		l9.305-28.601h11.969c2.226,0,3.857,0.223,4.877,0.713c1.021,0.437,1.686,1.313,1.99,2.593
		C229.256,101.386,229.079,102.931,228.509,104.743"/>
	<path fill="#FFFFFF" d="M138.175,103.01c-1.439,0-2.791,0.623-4.104,1.902c-1.285,1.237-2.39,3.342-3.36,6.264
		c-0.938,2.878-1.15,4.956-0.711,6.214c0.472,1.268,1.45,1.902,2.937,1.902c1.548,0,2.965-0.624,4.206-1.871
		c1.239-1.223,2.378-3.455,3.425-6.646c0.881-2.69,1.078-4.641,0.594-5.889C140.668,103.633,139.696,103.01,138.175,103.01"/>
	<path fill="#FFFFFF" d="M150.013,34.964c-62.739,0-113.921,25.798-113.921,57.383c0,31.59,51.182,57.355,113.921,57.355
		c62.744,0,113.895-25.766,113.895-57.355C263.907,60.762,212.757,34.964,150.013,34.964 M150.013,146.366
		c-61.361,0-111.386-24.27-111.386-54.02c0-29.76,50.024-54.019,111.386-54.019c61.351,0,111.396,24.259,111.396,54.019
		C261.408,122.097,211.363,146.366,150.013,146.366"/>
</g>
</svg>
