<?xml version="1.0" encoding="UTF-8"?>
<svg id="Layer_1" xmlns="http://www.w3.org/2000/svg" version="1.1" viewBox="0 0 257.124 95.176">
  <!-- Generator: Adobe Illustrator 29.5.1, SVG Export Plug-In . SVG Version: 2.1.0 Build 141)  -->
  <path d="M107.528,28.413l-23.665.027c-5.123,0-9.39,3.553-10.32,8.57l-3.826,20.554c-1.057,5.65,3.297,10.088,8.419,10.088l21.275.047c5.675,0,10.388-3.918,11.397-9.492l3.914-21.165c.897-4.848-2.81-8.629-7.193-8.629M101.554,40.315l-2.484,13.286c-.744,3.461-1.783,4.853-6.112,4.853h-5.888c-1.985-.019-4.907-.191-4.287-3.566l2.245-12.122c.897-4.767,2.535-5.664,6.117-5.701h7.975c1.235,0,2.814,1.195,2.435,3.251"/>
  <path d="M150.686,11.01l-8.788,47.426-12.055-.031c-2.111,0-3.109-1.442-2.73-3.517l2.243-12.127c.894-4.775,2.608-5.645,6.189-5.645l7.716-.014,1.604-8.651h-16.595c-5.126,0-9.404,3.543-10.339,8.561l-3.809,20.554c-1.085,5.834,2.897,10.088,8.392,10.088l29.576.047,10.516-56.694-11.921.005Z"/>
  <path d="M171.829,28.478c-5.136,0-9.372,3.529-10.298,8.551l-3.808,20.563c-1.123,6.043,2.841,10.061,8.326,10.084h14.33l1.715-9.24h-7.123c-1.975-.031-5.035-.173-4.401-3.516l2.253-12.154c.862-4.767,2.672-5.65,6.257-5.65h9.559l-6.58,35.3c-.393,2.069-2.131,4.136-4.972,4.136h-21.617l-1.665,8.957,25.764-.027-.01-.027h.46c5.487.027,11.53-.438,13.382-10.476l8.679-46.527-30.25.027Z"/>
  <path d="M236.905,28.413l-22.699.027c-4.934,0-9.029,3.553-9.911,8.57l-3.689,20.554c-.967,5.65,3.18,10.088,8.073,10.088l29.174.047,1.715-9.264-22.323-.031c-1.871,0-4.681-.142-4.082-3.517l2.152-12.122c.844-4.767,2.435-5.71,5.869-5.71h7.616c1.218,0,2.732,1.204,2.376,3.232l-.936,4.21h-12.199l-1.322,7.129h24.523l2.577-14.585c.843-4.848-2.715-8.629-6.913-8.629"/>
  <path d="M60.463,16.063H21.948l-1.751,9.358h32.088c3.549-.031,5.26,2.066,4.867,4.343l-4.237,22.743c-1.076,4.246-4.258,5.182-5.997,5.182h-19.267l5.11-27.61h-13.431l-6.96,37.574,32.462.023c15.466-.023,19.137-2.765,21.514-12.446l4.966-26.856c1.318-9.096-3.512-12.31-10.85-12.31"/>
</svg>