<?xml version="1.0" encoding="UTF-8"?>
<svg id="Layer_1" xmlns="http://www.w3.org/2000/svg" version="1.1" viewBox="0 0 199.961 153.888">
  <!-- Generator: Adobe Illustrator 29.5.1, SVG Export Plug-In . SVG Version: 2.1.0 Build 141)  -->
  <path d="M144.631,25.04c-11.218-12.039-29.566-14.641-44.996-14.641-15.561,0-34.47,2.602-45.493,15.346-.205.217-.349.456-.543.699-5.408,6.439-8.745,15.684-8.745,28.067,0,38.194,31.156,44.298,54.781,44.298,23.823,0,54.974-6.104,54.974-44.298,0-12.383-3.328-21.628-8.77-28.067-.41-.467-.821-.936-1.207-1.404M63.932,32.543c7.362-11.323,21.371-14.121,35.702-14.121s28.028,2.62,35.549,13.767c.126.268.316.517.455.763-12.734,7.464-27.242,7.731-36.004,26.443-9.52-18.16-23.864-18.286-36.46-25.483.227-.462.492-.906.758-1.368M99.635,90.788c-21.164.188-41.124-5.919-41.124-36.276,0-2.266,0-4.529.353-6.452.114-.423.21-.847.327-1.273,7.132,2.395,14.249,4.8,21.391,7.207,8.376,3.495,13.985,8.375,19.053,19.357,5.084-10.982,10.514-16.566,19.09-20.056,7.196-2.565,14.375-5.129,21.555-7.685.069.164.103.349.135.549.37,2.426.548,5.4.548,8.367,0,30.343-20.133,36.449-41.327,36.262"/>
  <g>
    <polygon points="103.165 120.626 114.482 111.243 90.701 111.243 90.701 120.626 103.165 120.626"/>
    <path d="M179.843,111.243h-21v8.499h16.655c4.841,0,4.075,3.155,4.075,3.155h-13.347c-1.648,0-6.864-.246-9.402,3.805v-1.518c0-14.314-10.819-13.941-10.819-13.941h-28.219l-28.733,22.681v-13.935c0-9.118-9.414-8.746-9.414-8.746h-20.973v8.499h16.651c4.84,0,4.197,3.155,4.197,3.155h-13.349c-1.645,0-6.735-.246-9.28,3.679v-3.536c0-12.539-11.333-11.797-11.333-11.797H10.219v31.435h10.689v-22.052h7.5v22.04h10.178v-22.04h3.418c4.967,0,4.319,4.049,4.319,4.049v17.991h10.562v-4.181c2.545,4.181,7.635,4.181,7.635,4.181h29.239l28.852-23.18v23.064h22.638c4.325,0,8.386-2.158,10.309-7.99,1.143,7.99,9.14,8.117,9.14,8.117h24.543v-22.689c0-9.118-9.398-8.746-9.398-8.746M79.379,134.053h-11.193s-2.271.127-2.271-2.15c0-1.899,1.773-2.029,2.407-2.029h11.058v4.18ZM142.33,133.419h-9.535v-13.298h9.658s4.562.373,4.562,6.206-2.135,7.092-4.686,7.092M179.319,134.053h-11.177s-2.294.127-2.294-2.15c0-1.899,1.902-2.029,2.535-2.029h10.936v4.18Z"/>
    <polygon points="97.071 142.669 120.842 142.669 120.842 133.426 108.366 133.426 97.071 142.669"/>
  </g>
</svg>