<?xml version="1.0" encoding="utf-8"?>
<!-- Generator: Adobe Illustrator 16.0.0, SVG Export Plug-In . SVG Version: 6.00 Build 0)  -->
<!DOCTYPE svg PUBLIC "-//W3C//DTD SVG 1.1//EN" "http://www.w3.org/Graphics/SVG/1.1/DTD/svg11.dtd">
<svg version="1.1" id="Layer_1" xmlns="http://www.w3.org/2000/svg" xmlns:xlink="http://www.w3.org/1999/xlink" x="0px" y="0px"
	 width="300px" height="184px" viewBox="0 0 300 184" enable-background="new 0 0 300 184" xml:space="preserve">
<g>
	<polygon points="100.833,148.74 103.06,148.74 103.06,143.35 106.902,143.35 106.902,141.606 103.06,141.606 103.06,138.59 
		107.153,138.59 107.153,136.849 100.833,136.849 	"/>
	<rect x="199.337" y="136.938" width="1.808" height="11.893"/>
	<polygon points="228.082,138.624 230.688,138.624 230.688,148.78 232.913,148.78 232.913,138.624 235.521,138.624 235.521,136.884 
		228.082,136.884 	"/>
	<rect x="36.304" y="136.938" width="1.822" height="11.893"/>
	<polygon points="169.527,145.808 169.563,145.897 169.527,145.897 169.527,145.808 166.51,136.833 163.89,136.833 163.89,148.725 
		165.772,148.725 165.772,139.775 168.861,148.725 171.449,148.725 171.449,136.833 169.533,136.833 	"/>
	<rect x="261.871" y="136.938" width="1.824" height="11.893"/>
	<rect x="134.073" y="136.938" width="1.815" height="11.893"/>
	<polygon points="71.399,145.808 71.436,145.897 71.399,145.897 71.399,145.808 68.379,136.833 65.76,136.833 65.76,148.725 
		67.623,148.725 67.623,139.775 70.733,148.725 73.334,148.725 73.334,136.833 71.414,136.833 	"/>
	<path d="M149.972,35.175c-48.05,0-87.021,19.577-87.021,43.72c0,19.554,25.555,36.099,60.788,41.695l26.232-62.466l26.243,62.466
		c35.251-5.597,60.776-22.142,60.776-41.695C236.991,54.752,198.045,35.175,149.972,35.175 M189.937,100.835l-39.965-46.237
		l-39.79,46.117c-19.62-5.461-32.54-15.013-32.54-26.746c0-18.601,32.14-36.054,72.268-36.054c40.118,0,73.023,17.453,73.023,36.054
		C222.933,85.799,209.802,95.404,189.937,100.835"/>
</g>
</svg>
