<?xml version="1.0" encoding="UTF-8"?>
<svg id="Layer_1" xmlns="http://www.w3.org/2000/svg" version="1.1" viewBox="0 0 250.824 107.775">
  <!-- Generator: Adobe Illustrator 29.5.1, SVG Export Plug-In . SVG Version: 2.1.0 Build 141)  -->
  <path d="M199.182,16.065c-8.878-.015-17.499,2.98-24.458,8.496-6.954-5.516-15.575-8.511-24.454-8.496-8.879-.015-17.498,2.981-24.454,8.496-6.957-5.516-15.578-8.512-24.457-8.496-8.878-.015-17.497,2.981-24.454,8.496-6.957-5.515-15.578-8.511-24.454-8.496-21.787,0-39.441,17.654-39.441,39.44s17.652,39.441,39.441,39.441c8.876.014,17.497-2.982,24.454-8.497,6.957,5.515,15.576,8.511,24.454,8.497,8.879.015,17.5-2.98,24.457-8.497,6.956,5.515,15.575,8.511,24.454,8.497,8.879.015,17.5-2.98,24.454-8.497,6.957,5.517,15.58,8.512,24.458,8.497,21.785,0,39.439-17.654,39.439-39.441s-17.654-39.44-39.439-39.44M70.451,80.008c-5.024,3.666-11.303,5.902-18,5.902-16.808,0-30.408-13.598-30.408-30.404s13.601-30.405,30.408-30.405c6.697,0,12.972,2.238,18,5.905-5.541,6.962-8.549,15.602-8.532,24.5.006,8.895,3.012,17.527,8.532,24.502M76.905,73.572c-3.875-5.226-5.962-11.56-5.949-18.066-.017-6.506,2.07-12.843,5.949-18.066,3.879,5.225,5.966,11.56,5.951,18.066.013,6.506-2.074,12.841-5.951,18.066M119.364,80.008c-5.223,3.844-11.542,5.91-18.025,5.894-6.471.014-12.774-2.054-17.98-5.894,5.521-6.974,8.526-15.606,8.532-24.5.017-8.9-2.993-17.538-8.532-24.499,5.205-3.844,11.509-5.91,17.98-5.897,6.747,0,12.978,2.183,18.025,5.897-5.544,6.961-8.552,15.6-8.533,24.499.005,8.894,3.01,17.526,8.533,24.5M125.813,73.572c-3.874-5.226-5.961-11.56-5.949-18.066-.016-6.506,2.072-12.843,5.949-18.066,3.882,5.224,5.969,11.56,5.952,18.066.012,6.506-2.075,12.842-5.952,18.066M168.272,80.008c-5.045,3.714-11.278,5.894-18.022,5.894s-12.938-2.184-17.982-5.894c5.523-6.974,8.528-15.606,8.533-24.5.019-8.9-2.991-17.538-8.533-24.499,5.045-3.714,11.237-5.897,17.982-5.897s12.978,2.183,18.022,5.897c-5.539,6.961-8.549,15.601-8.532,24.499.006,8.893,3.012,17.526,8.532,24.5M174.726,73.572c-3.877-5.226-5.962-11.56-5.949-18.066-.017-6.506,2.07-12.843,5.949-18.066,3.879,5.225,5.966,11.56,5.951,18.066.013,6.506-2.076,12.841-5.951,18.066M199.182,85.91c-6.701,0-12.978-2.236-18.002-5.902,5.521-6.974,8.526-15.607,8.53-24.5.019-8.899-2.991-17.538-8.53-24.499,5.03-3.667,11.304-5.907,18.002-5.907,16.804,0,30.404,13.6,30.404,30.406s-13.601,30.402-30.404,30.402" fill="#010101"/>
</svg>