<?xml version="1.0" encoding="UTF-8"?>
<svg id="Layer_1" xmlns="http://www.w3.org/2000/svg" version="1.1" viewBox="0 0 253.079 97.127">
  <!-- Generator: Adobe Illustrator 29.5.1, SVG Export Plug-In . SVG Version: 2.1.0 Build 141)  -->
  <path d="M43.904,79.803h6.118c.956,2.189,1.82,4.497,2.528,6.489.404-.019.829-.061,1.264-.061s.803.042,1.275.061l-7.226-16.816h-.573l-7.504,16.816c.273-.019.513-.061.839-.061.292,0,.566.042.89.061.676-2.261,1.533-4.376,2.389-6.489M46.992,72.615l2.681,6.175h-5.32l2.64-6.175Z"/>
  <path d="M61.149,85.55c-1.899,0-2.948-.969-3.919-2.495h-.242c-.066.717-.189,1.434-.438,2.14.821.896,2.748,1.389,3.933,1.389,3.263,0,5.949-2.056,5.949-5.477,0-5.155-7.592-3.369-7.592-7.787,0-1.716,1.382-2.804,3.04-2.804,1.418,0,2.462.769,2.975,2.077h.244c.201-.683.347-1.354.648-1.976-.893-.81-2.295-1.167-3.457-1.167-2.883,0-5.337,1.52-5.337,4.642,0,5.424,7.536,3.453,7.536,7.942,0,1.926-1.389,3.516-3.341,3.516"/>
  <path d="M73.272,70.97v15.378c.321-.021.683-.075,1.057-.075.336,0,.672.055,1.053.075v-15.378c2.161,0,3.84.147,5.037.298-.027-.234-.077-.486-.077-.722,0-.252.05-.462.077-.734h-12.417c.009.273.066.483.066.734,0,.235-.058.487-.066.722,1.351-.15,2.824-.298,5.271-.298"/>
  <path d="M99.064,77.695c0-5.785-4.59-8.236-9.109-8.236-4.997,0-8.938,3.341-8.938,8.606,0,5.148,3.548,8.517,8.894,8.517s9.154-3.504,9.154-8.888M83.392,78.357c0-4.888,2.543-8.102,6.789-8.102,1.934,0,3.799.81,4.997,2.337,1.269,1.612,1.531,3.299,1.531,5.295.165,2.649-1.66,7.902-6.738,7.902-3.6,0-6.579-2.564-6.579-7.433"/>
  <path d="M103.84,73.336h.246l10.398,11.51c.503.532.994,1.133,1.255,1.446h.713v-16.48c-.244.033-.445.084-.668.084-.25,0-.473-.051-.671-.084v12.421h-.238l-11.46-12.421h-.933v16.48c.229-.019.425-.061.676-.061.21,0,.439.042.682.061v-12.956Z"/>
  <path d="M129.468,73.865c1.649,3.13,3.311,6.271,4.859,9.448l1.335,2.716h.268c1.439-3.323,3.504-7.172,6.295-12.164.33,2.396.83,7.595,1.215,12.427.392-.019.769-.061,1.139-.061.378,0,.714.042,1.136.061-.657-4.589-1.299-10.519-1.958-16.484h-.483c-2.434,4.339-4.658,8.538-6.949,12.646-2.575-4.271-4.892-8.79-6.817-12.646h-.607c-.254,2.555-1.696,12.613-2.32,16.484.306-.019.545-.061.862-.061.27,0,.543.042.849.061,0-2.953.642-7.732,1.179-12.427"/>
  <path d="M151.429,79.803h6.118c.953,2.189,1.839,4.497,2.53,6.489.399-.019.827-.061,1.264-.061.432,0,.796.042,1.26.061l-7.24-16.816h-.537l-7.506,16.816c.27-.019.524-.061.841-.061.284,0,.554.042.884.061.682-2.261,1.531-4.376,2.387-6.489M154.505,72.615l2.691,6.175h-5.303l2.612-6.175Z"/>
  <path d="M175.625,73.491c0-2.434-1.637-3.68-5.351-3.68h-5.102v16.486c.327-.025.676-.067,1.053-.067.331,0,.672.042,1.054.067v-8.049h.927l1.917,2.258,2.842,3.681c.499.684.999,1.355,1.54,2.11.411-.025.901-.067,1.358-.067.451,0,.886.042,1.401.067l-.464-.608-1.159-1.339-4.968-6.285c2.45-.441,4.952-1.784,4.952-4.574M170.376,77.23c-1.217.222-2.737.135-3.107.105v-6.621c1.022-.06,2.658-.102,3.559.029,1.801.29,2.636,1.372,2.636,3.033,0,1.875-1.296,3.084-3.087,3.454"/>
  <path d="M182.573,70.97v15.378c.361-.021.706-.075,1.061-.075.34,0,.689.055,1.078.075v-15.378c2.119,0,3.815.147,5.022.298-.021-.234-.069-.486-.069-.722,0-.252.048-.462.069-.734h-12.415c.018.273.059.483.059.734,0,.235-.042.487-.059.722,1.364-.15,2.836-.298,5.253-.298"/>
  <path d="M194.621,69.811c-.383.033-.728.084-1.059.084-.352,0-.71-.051-1.062-.084v16.48c.353-.019.71-.061,1.062-.061.33,0,.676.042,1.059.061v-16.48Z"/>
  <path d="M200.662,73.336h.248l10.408,11.51c.496.532.979,1.133,1.256,1.446h.717v-16.48c-.242.033-.469.084-.689.084-.238,0-.44-.051-.657-.084v12.421h-.248l-11.418-12.421h-.969v16.48c.222-.019.444-.061.697-.061.188,0,.406.042.654.061v-12.956Z"/>
  <path d="M239.237,9.545h-93.781c-2.643,0-4.809.81-6.386,2.408-1.134,1.142-1.927,2.614-2.333,4.39,0,.07-.152.41-.914.41h-18.556c-.793,0-.908-.349-.908-.391-.418-1.782-1.216-3.267-2.341-4.409-1.585-1.599-3.738-2.408-6.387-2.408H13.827c-.602.028-2.072.149-2.922,1.477-.37.663-.661,1.786.173,3.348.021,0,1.707,2.845,1.707,2.845.724,1.146,1.506,1.558,3.198,1.671.032,0,.817.079,1.357,1.032l1.76,3.084c.374.717,1.219,2.349,4.201,2.765.038,0,.902.109,1.389,1.008l2.157,3.78c.619,1.25,1.509,1.694,3.106,2.202l39.24,11.502c1.321.41,1.884,1.897,1.884,1.897.918,2.434,2.15,4.41,8.287,6.266l32.074,8.76c.394.118,4.087,1.242,6.847-1.431l7.506-7.171s.329-.315.748-.315.747.315.747.315c.025.009,7.512,7.171,7.512,7.171,2.789,2.673,6.456,1.549,6.862,1.431,0,0,32.07-8.76,32.102-8.76,6.092-1.855,7.389-3.869,8.25-6.266.048-.105.56-1.486,1.877-1.897,0,0,5.94-1.746,39.218-11.502,1.632-.508,2.509-.952,3.134-2.202l2.131-3.738c.496-.941,1.352-1.05,1.39-1.05,2.988-.395,3.861-2.031,4.246-2.765-.017,0,1.741-3.084,1.741-3.084.543-.953,1.33-1.032,1.373-1.032,1.675-.101,2.479-.525,3.155-1.671,0,.019,1.75-2.845,1.75-2.845.34-.676.513-1.317.513-1.934,0-.495-.128-.975-.353-1.394-.845-1.348-2.3-1.46-2.95-1.497M138.456,16.732c.322-1.461.949-2.647,1.855-3.542,1.247-1.25,2.962-1.879,5.145-1.879h43.085c-1.49,1.124-2.25,2.483-2.301,2.584-.507.928-1.137,2.034-1.876,3.282h-46.076c.081-.177.169-.445.169-.445M174.366,27.07v-2.143l4.124.566c-.561.688-1.136,1.369-1.741,2.086-1.065-.223-1.871-.39-2.383-.509M175.707,28.741c-.431.466-.889.944-1.342,1.456v-1.728l1.342.272ZM174.366,23.567v-1.862l6.685.451c-.49.685-1.024,1.378-1.562,2.087l-5.123-.676ZM174.366,20.281v-1.762h9.159c-.473.722-.973,1.493-1.535,2.296l-7.624-.534ZM107.631,11.311c2.184,0,3.903.629,5.148,1.879.915.895,1.545,2.081,1.865,3.542,0,0,.058.251.167.445h-46.081c-.721-1.181-1.889-3.282-1.889-3.282-.042-.101-.806-1.478-2.29-2.584h43.079ZM76.339,27.579c-.606-.717-1.19-1.398-1.754-2.086l4.12-.566v2.152l-2.366.5ZM78.705,28.469v1.721c-.433-.504-.886-.982-1.322-1.448.537-.101.972-.202,1.322-.272M73.623,24.243c-.546-.709-1.087-1.401-1.581-2.087l6.663-.451v1.862l-5.082.676ZM71.093,20.809c-.546-.797-1.074-1.568-1.53-2.29h9.143v1.762l-7.612.528ZM16.097,17.178c-1.166-.105-1.423-.233-1.806-.844,0,0-1.56-2.618-1.686-2.791-.265-.491-.327-.844-.327-1.107.025-.62.453-1.108,1.606-1.124h46.746c3.157,0,5.039,3.226,5.039,3.226.402.785.9,1.646,1.468,2.641H16.097ZM22.441,23.802c-1.191-.423-1.557-1.141-1.808-1.598-.718-1.251-1.692-3.084-2.157-3.685h49.492c.47.751.998,1.554,1.542,2.392l-43.402,2.891c-.676.072-2.668.231-3.667,0M28.308,29.61l-2.087-3.668c-.138-.277-.302-.507-.485-.701.284-.028,44.713-2.986,44.713-2.986.507.717,1.035,1.463,1.622,2.205l-41.604,5.569c-1.577.206-2.059-.31-2.159-.419M40.561,34.04c-4.311-1.284-7.818-2.291-9.299-2.736l41.752-5.6c.596.717,1.169,1.442,1.805,2.189l-28.594,5.845c-1.049.24-4.113.697-5.664.302M54.723,38.194c-3.191-.94-6.552-1.918-9.73-2.85.862-.121,1.463-.23,1.508-.247,0,0,20.725-4.272,29.345-6.042.851.956,1.748,1.905,2.704,2.882l-19.176,5.899c-.041.035-2.638.898-4.65.358M69.658,42.579c-.409-.126-4.976-1.469-10.817-3.172.56-.117.931-.252.95-.277,0,.025,16.085-4.95,19.844-6.121,1.362,1.343,2.855,2.668,4.43,3.97l-10.364,4.842c-.686.336-2.673,1.12-4.042.759M107.939,48.021c-2.413-.692-4.764-1.511-7.032-2.468,4.859-5.059,10.699-11.156,12.089-12.616h3.851l-8.907,15.084ZM118.429,32.937h3.231l-4.699,16.942c-2.633-.382-5.166-.867-7.675-1.497,3.427-5.791,7.98-13.495,9.142-15.445M99.563,44.988c-1.942-.873-3.859-1.851-5.718-2.903,5.534-3.98,11.343-8.106,12.772-9.148h4.498l-11.553,12.051ZM92.553,41.333c-2.032-1.233-4.013-2.571-5.934-4.061,4.4-2.048,8.5-3.979,9.272-4.334h8.409l-11.748,8.396ZM85.398,36.323c-.089-.075-2.748-2.325-3.898-3.386h11.195l-7.297,3.386ZM77.969,50.123c-4.06-1.535-4.673-3.079-5.253-4.544-.049-.13-.342-.911-.988-1.678,1.367-.247,2.501-.836,2.566-.855-.033,0,5.489-2.561,10.92-5.136,2.009,1.56,4.049,2.986,6.139,4.266l-9.681,6.949c-.021.029-2.038,1.523-3.703.998M89.593,53.392l-8.597-2.35c.839-.361,1.446-.798,1.493-.831,0,0,4.787-3.44,10.137-7.271,1.932,1.141,3.92,2.169,5.943,3.074l-5.64,5.9c-.492.505-2.077,1.787-3.337,1.477M101.486,56.64l-9.224-2.512c.943-.56,1.59-1.231,1.649-1.298,0,0,2.663-2.748,5.975-6.214,2.396.994,4.834,1.862,7.33,2.598l-3.037,5.164c-.377.684-1.619,2.431-2.693,2.262M113.511,59.196c-.546.33-1.145.385-1.854.243l-8.09-2.221c.999-.8,1.653-1.933,1.77-2.156,0,0,1.368-2.316,3.219-5.472,2.644.692,5.303,1.229,8.045,1.615l-1.57,5.636c-.017,0-.368,1.657-1.519,2.354M117.081,58.499c-.629.583-1.301.941-1.977,1.082.886-.98,1.204-2.24,1.254-2.463l1.595-5.757c2.003.239,4.047.403,6.115.45-1.65,1.581-6.987,6.688-6.987,6.688M125.881,50.484c-2.586,0-5.091-.164-7.579-.436l4.76-17.111h2.819v17.547ZM80.107,31.578s-.034-.013-.034-.034v-13.012h92.941v13.033l-.037.013h-92.87ZM136.25,32.937h3.816l12.122,12.639c-2.285.935-4.61,1.753-7.044,2.42l-8.895-15.059ZM143.781,48.383c-2.476.63-5.031,1.115-7.665,1.497l-4.667-16.942h3.209l9.123,15.445ZM141.977,32.937h4.489l12.794,9.148c-1.883,1.078-3.784,2.03-5.727,2.903-4.239-4.398-9.287-9.663-11.557-12.051M148.791,32.937h8.388l9.294,4.334c-1.926,1.49-3.891,2.82-5.934,4.061-4.481-3.209-9.193-6.583-11.748-8.396M160.402,32.937h11.186c-1.148,1.146-3.835,3.339-3.906,3.386-2.74-1.255-5.388-2.514-7.279-3.386M127.227,50.484v-17.547h2.8l4.755,17.111c-2.481.284-4.997.436-7.555.436M134.859,57.383s-4.361-4.163-5.84-5.571c2.077-.047,4.107-.232,6.106-.45l1.611,5.774c.042.205.359,1.455,1.249,2.445-1.207-.327-1.578-.688-3.127-2.198M141.44,59.439c-.727.142-1.326.087-1.854-.243-1.109-.685-1.508-2.259-1.54-2.354l-1.559-5.636c2.763-.386,5.428-.936,8.015-1.615l3.249,5.493c.113.202.761,1.335,1.754,2.135l-8.064,2.221ZM151.602,56.64c-1.079.169-2.308-1.577-2.669-2.231l-3.067-5.194c2.505-.735,4.943-1.604,7.344-2.598l5.963,6.214c.062.066.71.738,1.669,1.298l-9.239,2.512ZM165.046,52.973l-1.543.42c-1.273.31-2.863-.973-3.341-1.477,0,0-2.468-2.584-5.639-5.9,2.03-.905,3.998-1.934,5.936-3.074l10.162,7.28c.038.024.625.461,1.465.822-2.248.629-7.041,1.93-7.041,1.93M180.371,45.579c-.577,1.465-1.185,3.009-5.242,4.544-1.691.499-3.696-.969-3.696-.981-.019,0-4.536-3.252-9.693-6.967,2.103-1.279,4.121-2.693,6.123-4.253l10.95,5.123c.072.02,1.166.608,2.565.855-.672.751-.961,1.531-1.006,1.678M183.437,42.579c-1.343.361-3.373-.423-4.029-.759,0,0-5.117-2.392-10.383-4.842,1.572-1.302,3.062-2.627,4.436-3.944l19.842,6.121c.038.009.408.135.936.252l-10.802,3.172ZM198.38,38.194c-1.985.55-4.62-.322-4.67-.322l-.022-.035-19.147-5.891c.953-.952,1.871-1.935,2.723-2.891l29.323,6.042c.054.017.657.126,1.5.247l-9.707,2.85ZM212.553,34.04c-1.581.396-4.654-.062-5.677-.302,0,0-19.591-4.003-28.601-5.865.638-.727,1.213-1.469,1.788-2.169l41.771,5.6-9.281,2.736ZM226.866,25.951c0-.009-1.707,3.029-2.065,3.659-.092.091-.591.625-2.178.419l-41.607-5.569c.593-.742,1.108-1.488,1.628-2.205l44.193,2.932c.054.013.239.026.51.055-.189.194-.347.463-.481.71M234.239,19.082l-1.778,3.122c-.258.457-.631,1.175-1.817,1.598-.992.231-2.959.072-3.664,0l-43.411-2.891c.559-.838,1.095-1.641,1.568-2.392h49.48c-.145.163-.256.341-.378.562M240.478,13.543c-.013.017-1.682,2.791-1.682,2.791-.333.503-.516.738-1.818.844h-51.019c.558-.995,1.044-1.855,1.463-2.641.025-.017,1.831-3.226,5.024-3.226h46.765c.486,0,1.128.083,1.455.629.032.075.139.226.139.495,0,.264-.066.616-.327,1.107"/>
  <path d="M85.847,20.596l-3.961,8.9h1.095v-.067c.315-1.061.734-2.098,1.119-3.101,0,0,.077-.142.103-.218h3.074c.402.935.857,2.039,1.289,3.348l.03.038h1.489l-3.84-8.9h-.398ZM84.5,25.43c.083-.171,1.12-2.647,1.255-2.936.113.29,1.179,2.766,1.25,2.936h-2.505Z"/>
  <path d="M93.672,24.457c-.927-.381-1.812-.717-1.812-1.783,0-.806.625-1.389,1.485-1.389.695,0,1.238.382,1.472,1.04l.031.056h.235l.364-1.101-.037-.049c-.493-.467-1.285-.636-1.826-.636-1.754,0-2.862.979-2.862,2.464,0,1.554,1.138,1.984,2.146,2.4.918.352,1.765.68,1.765,1.749,0,.97-.738,1.742-1.67,1.742-.83,0-1.417-.39-1.942-1.267l-.016-.034h-.23l-.285,1.216.045.021c.471.512,1.54.752,2.093.752,1.863,0,3.178-1.196,3.178-2.934,0-1.427-1.095-1.846-2.132-2.249"/>
  <path d="M102.871,21.705v-.915h-6.609v.915l.095-.019c.752-.087,1.486-.138,2.669-.138v7.977h1.256v-7.977c.884,0,1.716.051,2.528.138l.061.019Z"/>
  <path d="M107.306,20.596c-2.778,0-4.721,1.881-4.721,4.55,0,2.685,1.893,4.481,4.703,4.481,2.9,0,4.855-1.875,4.855-4.661,0-3.014-2.438-4.37-4.838-4.37M110.745,25.241c0,.81-.318,2.019-1.106,2.841-.635.659-1.398.995-2.333.995-2.017,0-3.341-1.465-3.341-3.798,0-2.525,1.343-4.128,3.465-4.128,1.018,0,1.973.448,2.548,1.199.633.827.768,1.683.768,2.693v.197Z"/>
  <path d="M120.045,20.79v6.44c-.047-.041-5.959-6.44-5.959-6.44h-.575v8.706h.83v-6.742h.017c.049.059,5.388,5.949,5.388,5.949l.676.776.024.017h.458v-8.706h-.858Z"/>
  <path d="M134.958,20.79h-.361l-2.103,3.823s-1.357,2.412-1.465,2.646c-1.307-2.179-2.467-4.447-3.463-6.432l-.025-.038h-.431l-.034.08c-.12,1.262-.855,6.523-1.183,8.529l-.013.097h1.031v-.067c0-1.238.239-3.071.47-5.017,0,0,.09-.86.131-1.199.151.293,1.801,3.401,2.392,4.698l.729,1.435h.232l.016-.047c.726-1.665,1.767-3.584,3.147-6.087.21,1.51.475,4.496.609,6.217l.02.067h1.323v-.097c-.293-2.11-.62-4.9-1.022-8.529v-.08Z"/>
  <path d="M140.807,20.596h-.34l-3.98,8.9h1.079l.021-.067c.319-1.078.74-2.14,1.137-3.126,0,0,.072-.117.079-.192h3.082c.41.96.85,2.08,1.296,3.348l.025.038h1.489l-3.831-8.9h-.058ZM139.111,25.43c.084-.171,1.125-2.617,1.245-2.936.128.29,1.21,2.766,1.269,2.936h-2.514Z"/>
  <path d="M151.01,22.77c0-1.34-.939-1.98-2.873-1.98h-2.703v8.702h1.251v-4.175h.352c.037.051,1.006,1.171,1.006,1.171-.038,0,1.448,1.892,1.448,1.892l.811,1.112h1.639s-3.283-4.124-3.442-4.314c1.572-.303,2.512-1.209,2.512-2.408M146.685,24.68v-3.277c.503-.022,1.292-.08,1.736.017.886.133,1.327.649,1.327,1.498,0,.884-.584,1.526-1.566,1.715-.524.108-1.179.08-1.497.047"/>
  <path d="M151.724,20.79v.915l.092-.019c.73-.087,1.448-.145,2.642-.145v7.984h1.257v-7.984c.905,0,1.741.046,2.518.145l.091.019v-.915h-6.6Z"/>
  <rect x="159.521" y="20.809" width=".89" height="8.686"/>
  <path d="M168.965,27.23h-.037c-.038-.041-5.925-6.44-5.925-6.44h-.622v8.71h.87v-6.746h.028c.038.054,5.379,5.949,5.379,5.949l.672.776.487.021v-8.71h-.852v6.44Z"/>
</svg>