<?xml version="1.0" encoding="utf-8"?>
<!-- Generator: Adobe Illustrator 16.0.0, SVG Export Plug-In . SVG Version: 6.00 Build 0)  -->
<!DOCTYPE svg PUBLIC "-//W3C//DTD SVG 1.1//EN" "http://www.w3.org/Graphics/SVG/1.1/DTD/svg11.dtd">
<svg version="1.1" id="Layer_1" xmlns="http://www.w3.org/2000/svg" xmlns:xlink="http://www.w3.org/1999/xlink" x="0px" y="0px"
	 width="175px" height="200px" viewBox="0 0 175 200" enable-background="new 0 0 175 200" xml:space="preserve">
<g>
	<path d="M142.331,121.705c-2.665-2.552-11.966-11.399-18.885-21.266l-0.17-0.283l0.057,0.057c-2.893-4.14-5.33-8.45-6.69-12.589
		c-0.908-2.724-1.419-5.615-1.475-8.507c0.056-2.438,0.509-4.878,1.475-7.145c0.851-2.213,2.154-4.48,3.686-6.749v-0.057
		c2.269-3.232,5.047-6.408,7.882-9.3c2.041-2.099,10.832-10.661,13.723-13.497c0.624-0.681,1.079-1.475,1.306-2.381
		c0.17-1.078,0.227-2.213,0.227-3.29v-1.644L90.954,75.998c-0.851,0.566-1.476,1.361-1.816,2.269
		c-0.341-0.907-0.963-1.702-1.758-2.269L34.868,35.056v88.011l52.568-40.943c0.851-0.568,1.475-1.361,1.815-2.269
		c0.227,0.68,0.567,1.304,1.134,1.814c3.799,3.629,21.096,20.075,25.746,34.081c0.964,2.723,1.474,5.614,1.474,8.507
		c0,2.438-0.51,4.819-1.474,7.032c-2.099,5.33-6.806,10.944-11.569,15.878c-2.041,2.098-10.943,10.604-13.723,13.439
		c-0.624,0.624-1.077,1.474-1.304,2.325c-0.172,1.191-0.228,2.439-0.228,3.63v1.645l52.512-40.943
		c1.021-0.681,1.701-1.814,1.814-3.063C143.579,123.293,143.124,122.327,142.331,121.705z M46.664,111.271
		c-4.083,3.174-7.146,5.671-9.301,7.314c-0.169,0.17-0.169-0.284-0.169-0.567s0-0.623,0.112-0.794
		c4.479-4.026,22.174-17.523,27.334-30.396c2.211-4.933,2.211-10.604,0-15.594c-5.104-12.873-22.797-26.37-27.334-30.396
		c-0.112-0.114-0.112-0.624-0.112-0.795c0-0.169,0-0.681,0.227-0.51c2.154,1.645,5.16,4.14,9.243,7.315
		c4.366,3.401,8.449,7.088,12.306,11.057c6.465,6.692,11.455,13.951,11.455,21.096c0,7.202-4.935,14.462-11.455,21.096
		C55.113,104.126,51.03,107.868,46.664,111.271z M85.905,81.441c-5.273,3.63-13.213,10.265-23.704,18.544
		c-0.227,0.171-0.17-0.454-0.112-0.681c0.056-0.34,0.169-0.623,0.283-0.906c3.8-3.913,7.031-8.28,9.583-13.044
		c1.815-3.401,2.212-5.671,5.444-5.671h9.018C87.834,79.684,86.529,80.932,85.905,81.441z M119.988,61.481
		c-2.553,3.175-4.65,6.521-5.955,9.754c-2.212,4.989-2.212,10.718,0,15.707c1.701,4.253,3.913,8.337,6.578,12.078
		c1.19,1.59,1.702,2.271,2.495,3.347c0.17,0.283,0.34,0.566,0.453,0.908l0.114,1.021c-0.283-0.17-0.51-0.397-0.794-0.624
		c-0.85-0.795-1.984-1.814-3.346-3.289c-6.577-6.579-11.285-14.234-11.285-21.322s4.934-14.291,11.456-20.927
		c3.854-3.912,7.994-7.541,12.304-10.943c1.646-1.305,3.063-2.438,4.424-3.459l1.986-1.476c0.112-0.112,0.168,0.114,0.112,0.171
		c0.056,0.454-0.057,0.851-0.339,1.19c-0.456,0.455-0.908,0.851-1.361,1.248C131.953,48.892,125.147,54.96,119.988,61.481
		 M92.484,81.441c-0.624-0.51-1.985-1.813-0.624-1.813h8.733c3.345,0,4.594,3.346,6.351,6.747c2.723,4.537,5.898,8.791,9.526,12.59
		c0.341,0.453,0.567,1.021,0.682,1.587c0.114,0.341,0,0.454-0.341,0.171C105.981,92.841,94.469,83.087,92.484,81.441z
		 M104.336,151.192c-0.51,0.454-0.906,0.738-0.851,0.398c0-0.341,0-1.079,0.284-1.361c6.351-6.238,12.646-13.213,14.913-18.714
		c1.022-2.326,1.589-4.764,1.646-7.316c0-2.721-0.454-5.386-1.36-7.938c-2.099-5.955-6.749-12.419-11.569-18.032
		c-1.19-1.419-2.211-2.609-2.609-3.063c-0.112-0.171-0.112-0.285,0-0.285c0.342,0,0.682,0.171,0.966,0.398
		c0.112,0.113,1.475,1.53,2.211,2.325c1.53,1.587,3.006,3.401,4.592,5.217c5.729,6.748,10.775,14.177,10.775,21.436
		c0,6.635-4.706,13.213-10.944,19.338C110.972,145.126,108.079,147.904,104.336,151.192z M140.063,126.752
		c-5.955,4.196-14.915,11.513-26.88,20.981c-0.34,0.284-0.284-0.51-0.284-0.736c0-0.284,0.059-0.568,0.227-0.795
		c4.368-4.479,8.055-9.47,11.059-14.97c2.042-3.855,2.553-6.465,6.295-6.465h10.207
		C142.217,124.824,140.744,126.298,140.063,126.752z"/>
</g>
</svg>
