<?xml version="1.0" encoding="utf-8"?>
<!-- Generator: Adobe Illustrator 28.2.0, SVG Export Plug-In . SVG Version: 6.00 Build 0)  -->
<svg version="1.1" id="Layer_1" xmlns="http://www.w3.org/2000/svg" xmlns:xlink="http://www.w3.org/1999/xlink" x="0px" y="0px"
	 viewBox="0 0 172.5 200" style="enable-background:new 0 0 172.5 200;" xml:space="preserve">
<g>
	<path style="fill-rule:evenodd;clip-rule:evenodd;fill:#FFFFFF;" d="M147.9,69.9c5.6,12.9,7.1,29.5,3,43.5c-3.4,12-10,23.3-20.1,32
		c-9.7,8.5-20.9,13.6-33.4,15.8c-23.3,3.3-44.6-4.6-60-21.6c-15.9-17.5-21.1-44.9-12.2-67.2C30.5,57,44.5,42.1,59.7,35.8
		c13.4-6.2,31.1-7.7,45.7-3.2c16.5,4.4,32.9,17.6,40.7,33.5L147.9,69.9z"/>
	<path style="fill-rule:evenodd;clip-rule:evenodd;" d="M144.2,70.2c6,12.9,7.3,30,2.8,43.9c-4.3,14.9-15.8,29.2-29.9,36.8
		c-13.7,8-33.2,10.1-48.9,4.9c-16-4.7-31.6-18-38.4-33.7c-6.1-12.5-7.4-29.1-3.4-43C30.5,63.4,42.9,47.7,58,40.3
		c14.9-8.1,36-9.4,52-2.7C124.3,43,138.1,55.9,144.2,70.2L144.2,70.2z"/>
	<path style="fill-rule:evenodd;clip-rule:evenodd;fill:#FFFFFF;" d="M126.2,72.2c7.6,11.7,8.8,29.5,2.7,42.3
		c-3.6,8-10,15.8-17.9,20.4c-0.7-0.1-0.8,0.7-1.4,0.8c-5.8,3.2-12.1,5.3-19,5.8c-18.3,1.4-35.4-7.9-44.2-24.1
		c-6.6-11.7-7.3-28.9-1.1-41c5.4-11.7,16.8-21.7,29-24.7c14.4-4.2,30.1-0.7,41.3,8.4C119.7,63.6,123.6,67.8,126.2,72.2z"/>
	<path style="fill-rule:evenodd;clip-rule:evenodd;fill:#FFFFFF;" d="M86.9,138.6c23.4,0,42.4-19,42.4-42.4
		c0-23.4-19-42.4-42.4-42.4s-42.4,19-42.4,42.4C44.5,119.6,63.5,138.6,86.9,138.6z"/>
	<path style="fill-rule:evenodd;clip-rule:evenodd;fill:#FFFFFF;" d="M90.8,36.1c1.6,1,1.7,3,1.7,4.7c-0.2,1.8-0.5,4.1-2.5,4.6
		c-6.7-0.4-12.8,0.5-18.6,2.5c-0.1,0.7,0.4,1.3,0.4,2.1L68,51.4l-0.3-0.3l-4.1-10.8c5-2.3,10.5-3.6,16.2-4.3
		c3.2-0.4,6.4-0.5,9.6-0.3L90.8,36.1z M103.8,38.1c-0.7,3.9-1.9,7.7-2.8,11.6l-4.3-1.1c0.8-3.9,1.6-7.8,2.6-11.7
		C100.8,37.3,102.3,37.6,103.8,38.1L103.8,38.1z"/>
	<path style="fill-rule:evenodd;clip-rule:evenodd;" d="M87.6,39.2c0.3,0.4,0.5,1,0.3,1.6l-0.5,0.5c-6.1-0.1-12,1-17.5,2.7
		c-0.4-0.6-0.6-1.5-0.8-2.2l0.3-0.3c5.6-1.7,11.6-2.9,17.8-2.6L87.6,39.2z"/>
	<path style="fill-rule:evenodd;clip-rule:evenodd;fill:#FFFFFF;" d="M116,43.2l8.6,16.9c0.1,0.3,0.5,0.1,0.7,0l5.6-5.3
		c1.1,0.9,1.9,2.1,2.9,3.2l-0.2,0.3l-8.4,7.9c-1.4-1.4-2.7-3.1-4.1-4.6l-7.6-13.9c-0.1-0.1-0.1-0.2-0.3-0.1c-1.2,2-2,4.1-3.1,6
		l-3.7-1.8l0-0.4c1.7-3.5,3.2-7,4.9-10.4C112.9,41.4,114.5,42.3,116,43.2L116,43.2z M64.5,53c-5.6,2.9-10.8,7.2-15.1,12.3
		c-3-2.6-5.9-5.1-8.9-7.8l0.1-0.4c0.9-1.1,1.8-2.2,2.9-3.1l6.3,5.6l0.4-0.1c3.8-3.9,8-6.9,12.5-9.3C63.4,51,64,52,64.5,53L64.5,53z"
		/>
	<path style="fill-rule:evenodd;clip-rule:evenodd;" d="M61.5,66.7c1.3,1.6,3.1,2.3,5.2,2.2l42.1,0c1.4-0.3,2.8-0.6,3.7-1.9
		c2.4,1.8,4.4,4.1,6.1,6.5c-0.3,0.4-0.9,0.7-1.1,1.2c-0.6,1-0.9,2.2-1,3.5l0.1,35c-0.6,5-2.9,9.6-7.4,12.6c-6,4.5-14.1,3.8-20.2,7.9
		c-0.7,0.5-1.4,1.3-1.9,2c-5.1-5.8-13.3-4.8-19.5-8.2c-6.9-2.9-10.4-10-10.3-17.2l0-33C57,76,56.5,74.4,55,73.6l0-0.3
		c1.8-2.4,3.8-4.5,6.2-6.6L61.5,66.7z"/>
	<path style="fill-rule:evenodd;clip-rule:evenodd;fill:#FFFFFF;" d="M47.4,68c-1.1,1.4-1.9,3-3,4.4L42,72.9
		c-3.3,6.1-5.1,12.8-5.6,20l0.1,0.3c0.7,0.7,1.5,1.3,2,2c0,1.5,0,3.1,0.1,4.6l-0.3-0.1l-11.5-9.7c0.7-7.2,2.5-13.9,5.6-20.1l0.3-0.1
		l14.7-2.1l0.1,0L47.4,68z M141.4,70.1c3.1,6.1,5,12.8,5.6,20l-9.7,8.6l-2.1,1.8c0.1-1.7,0-3.7,0.2-5.4l2-1.8
		c-0.3-7.4-2.3-14.2-5.5-20.4c-0.9-0.2-1.8-0.4-2.7-0.6l-2.9-4.6L141.4,70.1z"/>
	<path style="fill-rule:evenodd;clip-rule:evenodd;fill:#FFFFFF;" d="M69.2,70.7l17,0.1l0.1,2.3l0,59.5c-8-5.4-20-3.4-25.2-13.3
		c-1.5-3-2.1-6.4-2-9.9l0-31.8c-0.2-1.5-0.6-2.9-1.6-4.1c1.1-1.6,2.4-2.9,3.9-4.2C63.5,70.6,66.4,70.7,69.2,70.7L69.2,70.7z"/>
	<path style="fill-rule:evenodd;clip-rule:evenodd;fill:#FFFFFF;" d="M112.7,69.4c1.3,1.1,2.5,2.5,3.6,3.9c-1.3,1.7-1.5,3.9-1.5,6.2
		l0.1,33.2c-0.4,5.4-3.8,10.5-8.8,12.9c-5.3,2.8-11.6,3.1-16.9,5.8l-1.5,1.1l-0.1-0.7l0-61.1c0.3-0.1,0.7-0.1,1.1-0.1l19.8-0.1
		C110.1,70.6,111.3,69.9,112.7,69.4L112.7,69.4z"/>
	<path style="fill-rule:evenodd;clip-rule:evenodd;" d="M36.8,73.9c-2.1,4.9-3.5,10.1-4.3,15.6l-0.2,0l-2-1.8
		C31,83,32.2,78.5,34,74.3C34.8,74,35.8,74,36.8,73.9L36.8,73.9z M139.8,74.2c2,4.3,3.2,8.9,3.8,13.8c-0.7,0.6-1.4,1.4-2.2,1.8
		c-0.8-5.5-2.2-10.8-4.3-15.7l0.1-0.3L139.8,74.2z M102.4,77.9c0.2,0.9,0.1,1.8,0.1,2.8l0.4,0.4l0.1,2.8c1.5-0.2,0.5,1.5,0.8,2.2
		c0.9,0.3,2,0.1,3.1,0.2c0.2,0.5,0.2,1.3-0.1,1.9l-6.3,0c-0.1,0.4,0,0.9-0.1,1.4l0.2,0.1l6.3,0c0.1,0.5,0.1,1.1,0,1.7
		c-0.9,0.2-2,0-3,0.1c-0.3,0.5-0.1,1.3-0.2,1.9c0.2,0.3,0.8,0,1.1,0.2c0.7,0.5,1.8,0.6,2.2,1.4c-0.1,0.2,0,0.5-0.3,0.5
		c-0.2,0.4-0.1,1-0.1,1.5c0.4,0,0.3,0.4,0.3,0.7l0,0.2c-1,0.5-1.9,1.2-3.1,1.2c-0.1,0.6-0.1,1.3-0.1,2c1.2,0,2.1,0.8,3.1,1.3
		c0.2,0.1,0.1,0.4,0.1,0.7c-0.7,0.1-0.3,0.9-0.4,1.4c0.2,0.3,0.5,0.5,0.4,1c-0.6,0.5-1.3,0.9-2.1,1.1c-0.4,0.1-1.1-0.3-1.1,0.3
		c0.2,0.5-0.5,1.9,0.6,1.8l2.5,0c0.1,0.6,0.2,1.2,0,1.8l-6.3,0.1c-0.1,0.4-0.2,1.1,0,1.5l6.2,0c0.2,0.5,0.1,1.2,0.1,1.8
		c-1,0.2-2.1,0-3.1,0.2c-0.1,0.6-0.1,1.4,0,2c0.3,0.4,1.3-0.2,1.1,0.6c-0.1,0.5,0.2,1.3-0.2,1.6l-6.8-0.1c-0.1-0.6-0.2-1.3,0-1.9
		c0.2-0.3,1.1,0.2,1.1-0.4c0-0.6,0.1-1.3-0.1-1.8c-1.1-0.1-1.9-0.7-2.8-1.2c-0.1-0.3-0.1-0.9,0.4-0.9c0.1-0.4,0-0.8,0-1.2
		c-0.3-0.2-0.5-0.3-0.4-0.8c0.9-0.5,1.6-1.6,2.8-1.3l0.1-0.1l0-1.9c-0.9-0.3-2,0-2.9-0.2c0-0.5-0.1-1.2,0.1-1.7l6.4,0
		c0.2-0.4,0.1-1,0.1-1.4l-0.2-0.1l-6.3,0c-0.3-0.5-0.1-1.2-0.2-1.7l0.2-0.2l2.7-0.1c0.2-0.6,0.1-1.3,0.1-2c-0.8-0.3-2-0.1-2.9-0.2
		c-0.1-0.5-0.1-1.2-0.1-1.7l0.4-0.1l6.2,0c0.1-0.5,0.2-1.1,0-1.6l-6.4,0c-0.1-0.6-0.2-1.3,0.1-1.9c0.9,0,1.9,0.1,2.8-0.1l0-1.8
		c-0.3-0.3-0.8,0-1.1-0.2c-0.6-0.6-2.4-0.3-1.8-1.7c0.6-0.2,0.2-1,0.3-1.5c-0.5,0-0.4-0.7-0.3-0.9c0.8-0.5,1.5-1.1,2.5-1.2
		c0.2-0.6,0-1.4,0.1-2c0.3-0.3,0.9,0.1,1.1-0.4l0-2.6l0.3-0.4c0.1-0.9-0.2-2,0.2-2.8L102.4,77.9z"/>
	<path style="fill-rule:evenodd;clip-rule:evenodd;fill:#FFFFFF;" d="M101.5,80.5c-0.1,0,0,0.1,0,0.2c-0.2,0.1-0.4,0-0.6,0
		c-0.1-0.6-0.1-1.5,0-2.1C101.5,78.9,101.4,79.8,101.5,80.5L101.5,80.5z"/>
	<path style="fill-rule:evenodd;clip-rule:evenodd;" d="M71.8,79.3c0.5,0.5-0.4,0.3-0.5,0.7c-0.7,0.6-0.6,1.6-0.6,2.4l-0.3,15.9
		c0.3,0.3,0.8,0,1.2,0.2c0.3,0.5-0.3,1.6,0.5,1.6l2.4,0c0.4-0.5-0.3-1.6,0.5-1.6c0.3-0.1,0.7,0.1,0.9-0.2
		c-0.1-5.9-0.2-11.5-0.5-17.4c-0.1-0.4-0.3-0.9-0.8-1.2c-0.1,0-0.3,0-0.4-0.2c0-0.1,0.1-0.3,0.2-0.3l10.2,0c0.1,0.1,0.1,0.2,0.1,0.4
		c-0.5,0.1-1,0.4-1.1,1c-0.1,5.9-0.2,11.6-0.2,17.7l0.6,0.2l0,2.5l-0.3,0.3l0,6.6c0.3,0.3,0.9,0.1,1.2,0.2c0.2,0.9,0.1,2,0.1,3
		c-0.3,0.5-1.4-0.2-1.3,0.6c0.2,0.5-0.4,1.7,0.6,1.6c0,0.5,0.1,1.1-0.1,1.5l-9.6,0c-0.1-0.4-0.1-1,0-1.5l0.6-0.2
		c0.1-0.6,0.1-1.3,0-1.9c-0.4-0.3-1.4,0.2-1.2-0.6c-0.5-0.3-1.1-0.1-1.7-0.1c-0.3,0.1-0.1,0.4-0.2,0.6c-0.3,0.3-1-0.2-1.1,0.3
		c0,0.6-0.1,1.3,0.1,1.7c0.3-0.1,0.5,0.1,0.4,0.4l0,1.1c-3.2,0.2-6.1,0.1-9.4,0.1c-0.1-0.4-0.1-1,0-1.4c0.9-0.1,0.5-1.3,0.5-2
		c-0.3-0.4-1.2,0.2-1.2-0.5l0-2.7c0.4-0.4,1.5,0.3,1.3-0.6l0-6.4l-0.4-0.3l0.1-2.4c0.2-0.2,0.9,0,0.7-0.5l-0.3-17.2
		c-0.1-0.4-0.4-0.8-0.8-1.1c-0.2-0.1-0.6,0-0.4-0.4c0.4-0.2,0.9,0,1.3-0.2L71.8,79.3z"/>
	<path style="fill-rule:evenodd;clip-rule:evenodd;fill:#FFFFFF;" d="M68.7,82.6c0,5.2-0.1,10.6-0.3,15.8l-4.8,0L63.5,98l-0.3-17.4
		l0.1-0.1C65.3,80.5,68,80.7,68.7,82.6L68.7,82.6z M80.6,81.5c0.6,0.7,1,1.5,1,2.4l-0.2,14.4l-4.9,0c-0.4-5.9-0.3-11.9-0.5-17.8
		l0.2-0.1C77.7,80.5,79.4,80.4,80.6,81.5L80.6,81.5z M101.4,81.5c0.5,0.6,0.6,1.5,0.4,2.3l-1.2,0c0-0.9-0.2-1.7-0.1-2.6
		C100.9,81.1,101.2,81.4,101.4,81.5L101.4,81.5z"/>
	<path style="fill-rule:evenodd;clip-rule:evenodd;" d="M68.1,84.2l-0.2,12.6c0,0.2-0.1,0.3-0.3,0.4c-0.4,0.1-0.6-0.2-0.7-0.5
		l0.3-12.4c0-0.2,0.1-0.4,0.3-0.5C67.8,83.7,68.1,83.9,68.1,84.2L68.1,84.2z M81,84.1c0,4.1-0.1,8.6-0.2,12.7
		c-0.1,0.2-0.2,0.3-0.4,0.4c-0.3,0.1-0.5-0.3-0.5-0.5l0.2-12.7C80.2,83.6,80.9,83.6,81,84.1z"/>
	<path style="fill-rule:evenodd;clip-rule:evenodd;fill:#FFFFFF;" d="M101.7,84.9c0.3,0.3,0.5,0.7,0.5,1.1c-0.8,0.2-1.7,0-2.7,0
		l0-1.7C100.3,84.2,101.1,84.4,101.7,84.9L101.7,84.9z M106.5,87.6c-3.5,0.2-6.8,0-10.2,0.1c-0.1-0.1-0.1-0.1-0.1-0.2l1.8-0.9l8.5,0
		L106.5,87.6z M98.9,89.5c-0.5,0.1-1.1,0.1-1.6,0l0-1.2C98,88.4,98.6,88.9,98.9,89.5z M106.5,90c0.1,0.3,0,0.7,0.1,1
		c-2.8,0.2-5.7,0-8.6,0l-1.7-0.7l0-0.3C99.6,90,103.4,89.9,106.5,90L106.5,90z M102.3,93.4c-0.7,0.1-1.6,0.1-2.4,0.1l-0.1-0.1
		c0-0.5-0.1-1.2,0.1-1.7C100.9,91.7,102,92.4,102.3,93.4L102.3,93.4z M104.7,93.9c0.6,0.3,1.3,0.6,1.9,1l-10.2,0
		c0-0.4-0.3-1.1,0.3-1.1L104.7,93.9z M105.4,96.8l0,0.1l-2.4,0c-0.1-0.4-0.2-1,0-1.4C104,95.5,105,95.8,105.4,96.8L105.4,96.8z
		 M106.6,97.4c-0.6,0.5-1.3,0.8-2,1.1l-8.2-0.1c-0.1-0.4,0-0.9,0.1-1.2L106.6,97.4z M68.6,99l-0.1,0.2l-5.7-0.1l0-0.2
		C64.7,99,66.8,98.7,68.6,99L68.6,99z M80.4,98.9c0.1,0.1,0.2,0.1,0.3,0.2l-5.7,0l0-0.2L80.4,98.9z M69.5,99.7
		c0.1,0.1,0.3,0.2,0.3,0.4c-0.2,0-0.5,0-0.5,0.3l0,0.3l-6.5,0c0-0.4-0.1-0.8,0.1-1.1L69.5,99.7z M81.7,99.6c0.3,0.2,0.7,0.6,0.8,1
		l-5.6,0c0.1-1.1-1.2-0.4-1.7-0.6c0-0.1-0.1-0.4,0.1-0.5L81.7,99.6z M102.6,101c-0.9,0-1.9,0.1-2.7,0c0-0.5-0.1-1,0.1-1.4
		C101,99.6,102.2,99.9,102.6,101L102.6,101z M75.8,102.2c-1.9,0-4,0.2-5.9,0c-0.1-0.5-0.1-1.1,0-1.6c2-0.1,3.9-0.1,6,0L75.8,102.2z"
		/>
	<path style="fill-rule:evenodd;clip-rule:evenodd;" d="M70.4,101.9c-0.1,0.1-0.1,0.3-0.3,0.1c-0.1-0.4-0.2-0.9,0-1.3
		C70.6,100.8,70.3,101.5,70.4,101.9z M71.2,100.9c0,0.4,0.1,0.8-0.1,1.1l-0.2,0c-0.1-0.4-0.2-1,0.1-1.3
		C71.1,100.6,71.1,100.8,71.2,100.9z M71.9,101.8c0,0.1-0.1,0.3-0.2,0.3c-0.2-0.4-0.2-1,0-1.3C72,100.8,71.8,101.4,71.9,101.8
		L71.9,101.8z M72.6,101.7c0,0.2,0,0.3-0.1,0.4l-0.2,0c-0.1-0.4-0.2-1.1,0.1-1.3C72.8,100.8,72.5,101.4,72.6,101.7z M73.2,100.7
		c0.1,0.4,0.2,1,0,1.3c-0.3,0-0.2-0.3-0.3-0.5l0.1-0.8L73.2,100.7z M74.1,101.6c0,0.1,0,0.3-0.1,0.4c-0.2,0.1-0.3-0.1-0.3-0.2
		c0.1-0.4-0.2-0.9,0.2-1.1C74.2,100.8,74.1,101.3,74.1,101.6L74.1,101.6z M74.7,102l-0.1,0c-0.1-0.4-0.2-1.1,0.1-1.3
		C74.9,101,74.9,101.6,74.7,102L74.7,102z M75.5,100.9c-0.1,0.4,0.2,1-0.2,1.1c-0.2-0.4-0.2-1,0-1.3
		C75.4,100.6,75.5,100.8,75.5,100.9L75.5,100.9z"/>
	<path style="fill-rule:evenodd;clip-rule:evenodd;fill:#FFFFFF;" d="M104.6,101.4c0.7,0.3,1.4,0.6,2,1l-0.1,0.1l-10.1,0
		c0-0.4-0.1-0.8,0-1.2L104.6,101.4z M69.3,104.9c0.3,0.9,0.1,2,0,3c-0.7-0.2-1.7-0.4-2.4,0.1c-0.1-0.4,0.2-1.1,0.2-1.6
		c0-0.6-0.2-1.3-0.7-1.7c-0.5-0.5-1.2-0.6-1.8-0.5c-0.7,0.1-1.2,0.6-1.4,1.2l0,0.9l1.7,5.8c0.1,0.1,0.2,0.3,0.3,0.1
		c-0.4-2.1-1.1-4.2-1.6-6.3l1.5-0.1l0.5,3.6c0.1,0.2,0.4,0.1,0.6,0l0.3-0.5c0.2,1.3-0.1,2.7,0.2,3.9c0.3,0,0.2-0.4,0.2-0.7l0-2.8
		c0.6,0.4,1.4,0.5,2.2,0.4c0,1.2-0.4,2.3-0.3,3.5c-1.9,0.1-3.9,0.1-5.7,0c-0.1-3.7-0.1-7.6,0-11.4C65.5,102.2,68.3,102.4,69.3,104.9
		z M81.1,104c-1.1,0.7-0.6,2.2-0.9,3.4c-0.1,0.4,0,0.8-0.2,1.1c-0.7-0.5-1.5-0.9-2.4-0.6c-0.5,0.1-0.9,0.6-1.1,1
		c-0.1,1.3,0.3,2.5,0.6,3.7l0.1,0c0.1-0.9-0.3-1.7-0.3-2.7c0.6,0.2,1.5,0,2-0.2c0.2,0.8,0.1,1.9,0.1,2.9c0.1,0.1,0.3,0.4,0.5,0.2
		c0.7-0.9,1.4-1.8,1.2-2.9l-0.4-0.8l0.3-3.5c0.4,0.1,0.8,0.4,1.4,0.3c-0.4,2-1.1,4-1.5,6l1,1.2c-2,0.2-3.9,0.1-6,0.1
		c-0.2-3.3,0-5.9-0.1-9.2l2.3-0.1c0.3-0.5,0.1-1.1,0.2-1.6C79.3,101.9,80.5,103,81.1,104L81.1,104z"/>
	<path style="fill-rule:evenodd;clip-rule:evenodd;fill:#FFFFFF;" d="M75.2,102.7c0.2,1.7,0.1,3.7,0.1,5.3c-0.3,0.1-0.8-0.1-1.1,0.2
		c0.2,1.1-1.1,0.4-1.6,0.6c-0.4,0,0-0.9-0.7-0.7l-0.7-0.1l0-5.2l0.3-0.1L75.2,102.7z"/>
	<path style="fill-rule:evenodd;clip-rule:evenodd;fill:#FFFFFF;" d="M105.4,104.3l0,0.2l-2.4,0c-0.1-0.4-0.2-1,0.1-1.3
		C104.1,103.2,105,103.5,105.4,104.3L105.4,104.3z M106.6,105.1l0,0.1l-1.8,0.9l-8.4,0c-0.1-0.3-0.2-0.8,0-1.1
		C99.7,105,103.3,104.8,106.6,105.1z M102.5,108.4c-0.7,0.2-1.7,0.1-2.6,0.1c0-0.5-0.1-1,0.1-1.5C101.1,106.9,102,107.5,102.5,108.4
		L102.5,108.4z M62.7,110.4c-0.1,0.1-0.3,0-0.4,0.1c0-0.5-0.2-1.1,0.1-1.5l0.3,0L62.7,110.4z M75.2,109.3l0,1.1
		c-0.3,0-0.8,0.1-0.7-0.3c0-0.4,0-0.8,0.1-1.2C74.9,108.9,75.4,108.8,75.2,109.3z M106.6,108.9c0.1,0.3,0.1,0.8,0,1.1
		c-3.4,0.1-6.9,0.1-10.3,0c0.4-0.5,1.1-0.9,1.7-1.1L106.6,108.9z M84.3,110.3c0,0.3-0.3,0.1-0.4,0.1c-0.2-0.5,0-0.9,0-1.4
		C84.4,109.3,84.3,109.8,84.3,110.3z M74.1,109.7l0,0.3l-1.7,0c-0.2-0.1,0-0.3,0-0.4c0.4-0.4,1.1-0.3,1.6-0.3L74.1,109.7z
		 M71.3,110.3c0,0.1-0.1,0-0.2,0l0-0.7C71.4,109.7,71.4,110.1,71.3,110.3L71.3,110.3z M98.7,111.8c-0.5,0.1-0.9,0.1-1.4,0
		c0-0.3-0.1-0.8,0.1-1C97.9,110.9,98.5,111.3,98.7,111.8L98.7,111.8z M106.6,112.3c0.3,0.3,0,0.8,0,1.1l-8.5,0l-1.8-1l0.1-0.2
		L106.6,112.3z M68.4,114.4c-1.9,0.2-3.9,0.1-5.8,0.1l0-0.8c1.9,0.1,4.1-0.5,5.7,0.6L68.4,114.4z M80.8,114.4
		c-1.8,0.2-3.9,0.1-5.7,0.1c-0.2-0.2-0.1-0.5-0.1-0.8l0.1-0.1C77,113.8,79.3,113.2,80.8,114.4L80.8,114.4z M102.6,115.9l-0.1,0.1
		c-0.9,0-1.8,0.1-2.6-0.1c0-0.5-0.1-1.1,0.1-1.4C101.1,114.4,102.1,114.9,102.6,115.9z M103.5,117.6c-1.5,0.1-3.1,0.1-4.7,0
		c0-0.4-0.2-0.9,0.1-1.3C100.5,116.5,102.7,115.9,103.5,117.6L103.5,117.6z"/>
</g>
</svg>
