<?xml version="1.0" encoding="UTF-8"?>
<svg id="Layer_1" xmlns="http://www.w3.org/2000/svg" version="1.1" viewBox="0 0 251.461 112.128">
  <!-- Generator: Adobe Illustrator 29.5.1, SVG Export Plug-In . SVG Version: 2.1.0 Build 141)  -->
  <g id="Ford_Script">
    <path d="M241.951,39.158c.265-.45-.013-.79-.59-.79-2.995,0-6.918.013-10.026.013-.741,0-1.13.088-1.478.777-1.152,2.205-15.182,23.229-17.785,27.299-.439.628-.976.538-1.042-.175-.263-2.418-2.357-5.213-5.653-6.543-2.507-1.017-4.977-1.202-7.522-.867-4.614.617-8.722,3.06-12.334,5.791-5.438,4.139-10.141,9.5-16.208,13.473-3.31,2.155-7.848,4.036-10.882,1.229-2.745-2.544-2.43-8.196,1.768-12.573.439-.463.976-.075.888.342-.398,1.979.089,3.947,1.594,5.327,1.831,1.641,4.448,1.832,6.691.726,2.645-1.316,4.198-3.85,4.661-6.716.702-4.461-2.732-8.4-7.031-8.711-3.497-.25-6.845.964-10.104,3.658-1.632,1.355-2.569,2.359-3.974,4.377-.34.488-.878.54-.853-.188.161-5.715-2.193-8.927-6.917-9.037-3.658-.088-7.584,1.904-10.63,4.339-3.348,2.681-6.267,6.254-9.403,9.602-.387.412-.727.387-.842-.413-.102-3.785-1.04-7.443-2.795-10.051-.616-.902-1.917-1.355-3.021-.74-.501.275-2.268,1.091-3.548,2.12-.637.527-.878,1.279-.603,2.257,1.69,5.653,1.316,12.083-.978,17.509-2.107,4.976-6.203,9.461-11.017,10.978-3.17,1.001-6.467.515-8.51-2.295-2.796-3.875-1.665-10.63,2.507-16.221,3.684-4.925,9.011-8.061,14.326-10.078.628-.237.752-.638.578-1.177-.289-.88-.752-2.068-.94-2.608-.488-1.292-1.856-1.505-3.523-1.331-3.861.45-7.345,1.768-10.791,3.611-9.012,4.826-13.523,14.166-15.503,19.166-.952,2.405-1.768,3.9-2.821,5.228-1.416,1.778-3.209,3.406-6.467,6.278-.302.263-.514.815-.264,1.317.341.688,2.031,3.083,2.507,3.296.526.263,1.152-.101,1.389-.275,2.282-1.543,5.014-3.998,6.355-5.663.465-.565.952-.327,1.204.539,1.253,4.448,4.511,8.084,9.024,9.602,8.26,2.784,16.833-1.253,23.3-8.271,4.113-4.462,5.592-7.333,7.168-9.288,2.669-3.31,7.933-10.714,14.213-15.47,2.306-1.755,5.025-3.085,6.394-2.205,1.105.713,1.452,2.37-.315,5.579-6.394,11.684-15.804,25.407-17.534,28.742-.315.577-.038,1.029.565,1.029,3.348-.013,6.667-.013,9.7-.013.502-.026.727-.252.989-.617,4.911-7.681,9.526-15.001,14.476-22.56.276-.45.526-.103.539.102.102,1.755.54,4.159,1.582,5.726,1.868,2.907,4.524,4.16,7.468,4.187,2.346.025,3.523-.327,6.055-1.267,2.057-.765,3.71-1.767,4.964-2.668.738-.515.865.353.852.477-1.139,6.105.265,13.322,6.33,16.331,7.258,3.573,15.228-1.454,19.816-5.99.45-.438.926-.386.977.553.103,1.728.879,3.785,2.319,5.226,3.849,3.862,11.596,2.332,19.379-3.696,5-3.862,10.227-9.315,14.956-15.078.174-.227.302-.579-.039-.939-.714-.753-1.755-1.618-2.469-2.282-.327-.275-.803-.2-1.078.014-4.84,4.6-9.2,9.851-15.504,14.203-2.121,1.479-5.515,2.681-7.032.628-.59-.803-.527-1.903.065-3.36,1.831-4.598,30.922-48.868,32.425-51.49ZM203.51,76.283c.065.34.502.663.94.829.148.051.237.161.063.527-1.24,2.642-2.371,4.171-3.922,6.478-1.428,2.133-3.032,3.785-4.975,5.378-2.932,2.431-7.007,5.066-10.38,3.299-1.491-.777-2.142-2.874-2.12-4.564.077-4.763,2.191-9.665,6.106-14.463,4.774-5.88,10.051-8.926,13.51-7.256,3.586,1.703,2.443,5.854.842,9.114-.115.246-.128.457-.065.657Z"/>
    <path d="M31.013,101.491c-10.843.075-20.394-6.618-21.485-18.227-.617-6.428,1.202-12.16,4.853-16.871,3.22-4.198,8.684-7.695,13.311-8.548,1.503-.277,3.521-.103,4.363.888,1.316,1.528.926,3.195-.378,3.875-3.522,1.807-7.771,4.89-9.865,9.088-1.705,3.433-2.045,7.583.552,11.519,4.351,6.58,16.493,6.755,27.778-3.735,2.795-2.57,5.289-5.025,7.835-7.945,4.975-5.676,6.618-7.757,13.234-16.922.075-.103.102-.25.062-.314-.05-.116-.147-.149-.34-.162-4.409.127-8.259,1.44-11.993,4.237-1.08.79-2.621.675-3.31-.365-.753-1.165-.212-2.696,1.028-3.549,6.016-4.185,12.584-4.936,19.289-6.066,0,0,.463.025.853-.489,2.757-3.535,4.839-6.718,7.772-10.289,2.956-3.626,6.78-6.957,9.699-9.45,4.074-3.51,6.68-4.688,9.339-6.132.701-.365-.089-.803-.302-.803-14.828-2.782-30.233-6.395-44.96-.938-10.189,3.81-14.667,11.896-12.508,17.295,1.529,3.837,6.568,4.45,11.293,2.143,3.921-1.916,7.545-5.013,10.117-9,1.439-2.204,4.473-.615,2.833,3.222-4.313,10.13-12.546,18.163-22.574,18.499-8.535.275-14.037-6.003-14.023-13.749.037-15.278,17.045-25.329,34.907-26.847,21.518-1.781,41.898,3.946,63.27,6.543,16.372,1.979,32.074,2.03,48.522-1.755,1.942-.425,3.31.816,3.183,2.781-.162,2.849-2.357,5.581-7.784,8.537-6.164,3.387-12.609,4.4-19.352,4.461-16.281.137-31.463-6.216-47.157-9.628.025.689.199,1.505-.379,1.942-8.683,6.414-16.544,12.938-21.808,22.084-.174.213-.077.411.226.388,4.575-.239,8.684-.365,12.949-.702.739-.064.777-.25.701-.79-.379-3.156.54-6.743,3.322-9.224,2.834-2.545,6.395-2.833,8.747-1.003,2.682,2.095,2.444,5.843.978,8.663-1.491,2.859-3.946,4.39-6.316,5.128,0,0-.49.114-.426.566.102.726,3.323,2.506,3.599,2.983.264.45.127,1.149-.365,1.69-.34.386-.881.751-1.555.738-.553-.011-.889-.198-1.593-.59-1.44-.79-3.247-2.069-4.462-3.587-.412-.513-.615-.525-1.641-.463-4.613.265-11.819.965-16.696,1.569-1.178.148-1.356.363-1.606.777-7.784,12.821-16.081,26.661-25.194,35.908-9.772,9.94-17.904,12.556-26.542,12.62ZM105.141,44.5c.126.661.376.79.675.726,1.479-.302,3.109-1.517,4.062-2.92.879-1.277,1.292-3.135.413-3.873-.778-.664-2.032-.476-2.971.353-1.853,1.639-2.431,3.985-2.179,5.715Z"/>
  </g>
</svg>