<?xml version="1.0" encoding="utf-8"?>
<!-- Generator: Adobe Illustrator 16.0.0, SVG Export Plug-In . SVG Version: 6.00 Build 0)  -->
<!DOCTYPE svg PUBLIC "-//W3C//DTD SVG 1.1//EN" "http://www.w3.org/Graphics/SVG/1.1/DTD/svg11.dtd">
<svg version="1.1" id="Layer_1" xmlns="http://www.w3.org/2000/svg" xmlns:xlink="http://www.w3.org/1999/xlink" x="0px" y="0px"
	 width="300px" height="171.333px" viewBox="0 0 300 171.333" enable-background="new 0 0 300 171.333" xml:space="preserve">
<g>
	<path d="M132.637,66.713c-2.906,4.593-3.164,6.814-3.248,8.306c-0.098,1.454-0.098,4.067,2.264,6.211
		c4.004,3.544,9.582,2.974,14.529,2.974h40.822c1.738,0,2.248-0.511,3.184-1.766c3.26-4.975,4.73-10.356,4.73-15.183
		c0-10.324-6.736-23.331-23.762-29.21l-1.912,2.741c13.496,6.385,19.096,14.749,19.096,26.447c0.066,3.133-0.744,6.53-2.814,9.659
		H145.83c-2.377,0-2.699-2.683-1.855-4.183c3.529-6.225,7.145-11.726,11.383-17.38c4.01-5.337,7.971-10.321,12.102-15.548
		c1.125-1.45,0.375-2.854-1.857-3.301c-4.637-0.98-9.482-1.655-15.342-1.655c-32.568,0-44.447,18.629-44.447,32.438
		c0,14.964,11.984,32.354,44.529,32.354c18.064,0,29.898-5.801,36.744-13.244h-6.9c-6,5.504-16.271,9.413-29.844,9.413
		c-27.566,0-37.734-15.438-37.734-28.731c0.215-11.854,11.117-28.235,38.426-28.782c1.031-0.032,1.83,0.917,1.113,1.806
		C147.479,45.803,134.162,64.323,132.637,66.713"/>
	<path d="M255.332,120.178h-26.121c0.35-3.165,3.086-5.815,5.857-5.815h26.434l-0.088-5.509h-28.029
		c-8.863,0-15.953,7.333-16.164,15.866c-0.033,0.598,0.367,0.958,1.047,0.958l31.799-0.105c1.637,0.219,2.887,1.515,2.887,3.024
		c0,1.71-1.572,3.078-3.449,3.078h-34.986v-22.809h-10.293v22.873h-18.939c-5.15,0-6.207-3.115-6.207-5.966v-17.039h-17.084
		c-1.693,1.154-3.33,2.398-5.063,3.448l-10.127,6.225l-13.184-9.591h-20.492H93.791c-5.234,0-9.26,1.364-12.242,3.718
		c-5.367,4.218-7.066,8.674-6.996,10.666h6.973c-3.061,2.285-5.129,5.021-6.211,8.196H52.398c-4.119,0-6.764-2.914-6.764-5.746
		v-17.029H35.506v17.694c0,6.357,6.057,10.755,15.783,10.755h61.84h14.967c1.604-1.073,3.109-2.222,4.777-3.233l10.436-6.29
		l13.223,9.399h15.053l-19.889-14.918l10.221-6.649c2.176-1.427,4.459-2.618,6.691-3.94v15.023c0,6.329,1.623,10.717,14.43,10.717
		l72.295-0.173c5.574,0.087,9.162-3.763,9.162-8.409C264.494,123.981,260.377,120.178,255.332,120.178 M126.051,131.333h-12.922
		H88.605c0.094-2.92,3.207-5.848,6.047-5.848h18.477h5.105v-5.854h-5.105H88.297c-0.34-1.711,2.877-5.072,5.33-5.072h19.502h7.406
		v-3.138l17.443,12.464L126.051,131.333z"/>
</g>
</svg>
