<?xml version="1.0" encoding="utf-8"?>
<!-- Generator: Adobe Illustrator 16.0.0, SVG Export Plug-In . SVG Version: 6.00 Build 0)  -->
<!DOCTYPE svg PUBLIC "-//W3C//DTD SVG 1.1//EN" "http://www.w3.org/Graphics/SVG/1.1/DTD/svg11.dtd">
<svg version="1.1" id="Layer_1" xmlns="http://www.w3.org/2000/svg" xmlns:xlink="http://www.w3.org/1999/xlink" x="0px" y="0px"
	 width="168px" height="200px" viewBox="0 0 168 200" enable-background="new 0 0 168 200" xml:space="preserve">
<g>
	<polygon points="34.613,41.916 34.613,44.516 84.002,35.807 133.387,44.516 133.387,41.916 84.002,33.203 	"/>
	<path d="M34.613,47.061v8.787v26.286c0,14.052,3.303,28.036,9.814,41.546c15.286,31.745,38.972,42.863,39.218,42.961l0.356,0.156
		l0.354-0.156c0.238-0.098,23.913-11.216,39.199-42.961c6.511-13.51,9.808-27.494,9.808-41.546V55.848l0.024-8.787l-49.385-8.658
		L34.613,47.061z M131.685,82.134c0,13.788-3.256,27.532-9.662,40.827c-13.993,29.072-35.076,40.479-38.021,41.957
		c-2.935-1.478-24.053-12.885-38.036-41.957c-6.404-13.295-9.661-27.039-9.661-40.827V56.857c2.712-1.398,19.464-9.369,47.78-9.369
		c28.323,0,44.908,7.962,47.6,9.369V82.134z"/>
	<path d="M101.307,133.543c-1.6-0.379-3.371-0.662-5.146-0.287c-1.789,0.34-2.75,1.361-2.978,2.781
		c-0.179,1.081,1.1,1.748,2.172,1.484c1.182-0.293,1.508-1.69,1.508-1.69s-0.756,0.585-1.517,0.738
		c-0.784,0.134-1.193-0.4-0.975-0.95c0.424-1.028,1.066-1.289,1.735-1.395c0.667-0.082,1.481-0.129,2.962,0
		c1.474,0.134,2.225,0.393,1.837,1.088c-0.484,0.856-0.989,0.932-1.728,2.805c-0.322,0.79-0.242,1.19-0.768,1.19
		c-0.268,0-0.98-0.122-1.518,0.351c-0.648,0.555-0.549,1.31-0.549,1.31s0.386-0.776,1.697-0.776c0.286,0,0.102,0.735-0.174,1.314
		c-0.279,0.574-1.736,4.416-4.725,4.416c-3.2,0-3.675-3.124-3.509-3.539c0.318-0.775,0.843-0.088,1.485-0.229
		c0.617-0.177,1.219-1.16,0.401-1.733c-1.913-1.302-3.727,1.909-1.744,4.729c1.881,2.72,4.859,1.686,6.431,0.89
		c1.531-0.824,2.391-2.487,2.929-3.548c0.534-1.064,0.986-2.241,0.986-2.241s1.056,0,1.637-0.243
		c0.892-0.366,1.252-1.172,1.252-1.172s-0.664,0.405-2.53,0.334c-0.194,0,0.302-1.106,0.8-2.088
		c0.556-1.033,1.206-1.947,1.657-2.141c0.576-0.226,2.342,0,4.319-0.545c1.966-0.522,3.401-1.686,3.401-1.686
		s-1.958,0.732-5.108,0.91C104.069,133.711,102.888,133.941,101.307,133.543"/>
	<path d="M71.923,137.701c-2.32-0.91-3.664-1.414-3.695-2.518c-0.009-1.861,2.352-1.4,2.873-1.222
		c3.05,0.988,4.142,3.258,4.142,3.258s-0.498-2.991-0.598-3.542c-0.129-0.563-0.456-0.484-0.622-0.473
		c-0.368,0.027-0.368,0.645-0.368,0.645s-7.528-3.16-7.528,1.781c0,2.324,2.459,2.708,3.556,3.276
		c2.241,1.181,5.037,1.891,5.296,3.642c0.214,1.599-1.212,3.373-4.264,3.373c-3.063,0-4.375-2.913-4.267-3.479
		c0.119-0.556,0.689-0.218,1.151-0.218c0.448,0,1.231-0.488,0.871-1.427c-0.295-0.718-2.652-0.777-2.652,1.614
		c0,3.406,3.381,4.424,4.854,4.424c1.456,0,4.5-0.496,5.179-3.594C76.578,140.021,75.005,138.907,71.923,137.701"/>
	<path d="M84.552,122.184l1.243,0.59c0.718,0.283,1.169,0.15,1.322,0.088c0.187-0.088,0.818-0.781,0.974-1.375
		c0.058-0.244,0.029-0.449-0.115-0.6c-0.461-0.566-1.323-3.201-1.634-4.611c-0.129-0.531,0.013-1.982,0.14-3.15
		c0.092-0.998,0.156-1.616,0.095-1.779c-0.086-0.25-0.448-0.484-0.864-0.76l-0.692-0.459c-0.343-0.295-0.364-0.691-0.372-1.117
		l-0.096-0.681c-0.143-0.612-3.31-3.848-3.806-3.872c-0.7-0.066-0.894,0.734-0.94,1.197c-0.028,0.264,0.292,1.499,0.574,2.593
		l0.325,1.288c0.322,2.079,2.511,5.705,3.433,7.253l0.456,0.747c0.191,0.431,0.104,0.777-0.238,0.978
		c-0.322,0.188-3.167-0.121-4.516-0.418c-0.589-0.138-1.331-0.417-2.021-0.718c-0.817-0.313-1.556-0.63-2.003-0.651
		c-0.526-0.017-0.75,0.067-0.96,0.15l-0.317,0.101l-0.3-0.104c-0.367-0.146-1.068-0.466-2.979-0.629
		c-2.801-0.269-3.032,0.292-3.155,0.607c-0.124,0.376,1.577,2.188,1.887,2.446c0.4,0.322,1.652,0.793,2.428,0.673
		c0.881-0.14,2.3-0.331,2.507-0.29l0.266,0.168l0.279,0.201c0.237,0.1,1.823,0.174,2.274,0.209c0.562,0.033,1.986,0.307,3.036,0.547
		l1.155,0.232C82.418,121.124,83.594,121.697,84.552,122.184 M85.686,118.851c0.229,0,0.423,0.188,0.423,0.417
		c0,0.237-0.194,0.412-0.423,0.412c-0.233,0-0.462-0.175-0.462-0.412C85.224,119.039,85.452,118.851,85.686,118.851 M70.684,118.095
		c-0.372,0-0.659-0.181-0.659-0.45c0-0.25,0.287-0.456,0.659-0.456c0.361,0,0.644,0.206,0.644,0.456
		C71.327,117.914,71.045,118.095,70.684,118.095 M76.024,118.182c-0.267,0-0.475-0.128-0.475-0.303c0-0.182,0.208-0.322,0.475-0.322
		c0.239,0,0.448,0.141,0.448,0.322C76.473,118.054,76.264,118.182,76.024,118.182 M80.098,119.455
		c-0.813-0.221-2.363-0.685-2.278-0.998l0.025-0.065l0.017-0.013c0.267-0.15,1.444,0.054,2.423,0.309
		c0.826,0.197,2.372,0.676,2.289,0.992l-0.034,0.056l-0.03,0.021C82.252,119.901,81.1,119.701,80.098,119.455"/>
	<path d="M83.612,51.924l-0.31,0.697c0-0.004-0.313,0.484-0.313,0.484v0.02c0,0.094,0.054,0.56,0.054,0.56
		c0,0.038,0.31,0.355,0.334,0.368c-0.031,0-0.141,0.476-0.141,0.488c0-0.034-1.285,0.024-1.285,0.024l-1.04-0.493l-0.814-0.279
		c-0.007-0.005-1.886,0.06-1.886,0.06c-0.033,0.024-0.367,0.517-0.367,0.517l-0.025,0.059l0.813,0.135c0,0,0.127,0.061,0.198,0.104
		c-0.071,0.05-0.213,0.17-0.213,0.17c0-0.008-1.138-0.066-1.138-0.066c-0.02,0.021-0.831,0.343-0.831,0.343L76.56,55.15l0.404,0.262
		c0.03,0,1.732,0.063,1.732,0.063s1.267,0.331,1.277,0.331c0,0.012,0.227,0.362,0.227,0.362s0.18,0.241,0.237,0.337
		c-0.069,0.042-0.531,0.292-0.531,0.292l-1.565,0.655l-3.191,1.799l-2.107,0.313c-0.031,0.009-0.827,0.459-0.827,0.459
		c-0.027,0.013-0.674,0.906-0.674,0.906c-0.009,0.021-0.373,1.143-0.373,1.143c-0.021,1.899,0.049,1.949,0.083,1.949
		c0.031,0.041,0.607,0.367,1.034,0.135c0.459-0.26,1.503-0.514,2.071-0.641c0.224-0.053,0.351,0.053,0.388,0.146
		c0.021,0.115-0.059,0.244-0.25,0.31L74.377,64c-0.927,0.26-1.878,0.561-1.847,0.91l0.162,0.284c0.405,0.3,1.518,0.146,2.072,0.021
		l0.589-0.163c0.538-0.158,1.119-0.33,1.61-0.268c0.301,0.033,0.534,0.154,0.855,0.287c0.393,0.206,0.877,0.432,1.574,0.481
		c1.168,0.079,1.967,0.313,2.024,0.375c0.153,0.315,0.037,0.784-0.021,1.169l-0.07,0.338c-0.322,2.951-3.628,6.285-5.2,7.893
		c-0.442,0.42-0.726,0.713-0.786,0.831l-0.169,0.42c-0.151,0.392-0.28,0.734-0.794,0.926c-0.278,0.114-0.955,0.644-1.753,1.216
		c-1.14,0.859-2.537,1.902-2.942,1.853c-0.636-0.063-3.677-2.153-3.801-2.282c-2.955-2.863-4.211-2.263-4.934-1.928l-0.129,0.053
		c-0.877,0.396-1.783,2.9-1.879,3.439l-0.372,1.535l-0.271,1.131c-0.086,0.393-0.442,1.324-0.789,2.232l-0.7,1.975
		c-0.13,0.459-0.405,1.109-0.659,1.636l-0.303,0.765c-0.228,0.914-0.228,5.855,0.15,6.275l0.022,0.025l0.073,0.025
		c0.395-0.051,1.208-0.884,1.613-1.289l0.074-0.096c0.343-0.334,0.695-1.24,0.695-1.624c0-0.362-0.178-1.136-0.228-1.341
		c-0.542-1.63-0.341-3.184-0.237-3.945l0.048-0.332c0.022-0.354,0.364-0.729,0.707-1.1l0.434-0.484
		c0.226-0.31,0.473-0.422,0.709-0.522l0.363-0.213l0.092-0.063c0.242-0.246,0.671-0.674,0.856-1.242l0.35-1.566l0.089-0.429
		c0-0.079,0.047-0.127,0.117-0.134c0.141-0.041,0.375,0.071,0.462,0.199l2.622,3.045c0.658,0.574,1.364,1.247,1.364,1.396v0.014
		c0-0.014-0.025,0-0.025,0c-0.368,0.037-2.208-0.359-2.522-0.447c-2.511-0.723-3.642-0.605-4.532,0.504
		c-0.998,1.256-0.674,5.129-0.486,5.559c0.2,0.384,1.11,5.092,1.153,5.727c0.044,0.621,0.273,1.723,0.54,1.971l0.063,0.07
		c0.299,0.313,1.116,1.135,1.257,1.936c0.159,0.868,2.023,3.226,2.737,3.435c0.11,0.024,0.193,0.003,0.296-0.063
		c0.553-0.388,0.804-2.267,0.831-3.046c0.037-1.002-0.301-1.478-0.688-1.994l-0.151-0.197c-0.278-0.377-0.762-0.504-1.097-0.609
		c-0.135-0.028-0.321-0.07-0.321-0.117c0-0.025-0.038-1.469-0.493-1.752c-0.35-0.227-0.719-1.615-0.768-2.141
		c-0.048-0.543-0.251-1.807-0.519-2.372c-0.279-0.566-0.53-1.601-0.409-2.407c0.056-0.332,0.298-0.447,0.501-0.476
		c0.325-0.054,0.743,0.101,0.806,0.204c0.121,0.299,2.781,1.871,3.679,2.225c0.537,0.205,1.288,0.831,1.951,1.398
		c0.458,0.401,0.885,0.748,1.12,0.855c0.333,0.176,1.311,0.195,2.093,0.2c0.405,0.007,0.84,0.017,0.889,0.056
		c-0.3,0.119-0.3,0.676-0.283,0.857c0.325,2.288,8.626,8.543,9.267,8.898c0.738,0.4,3.416,3.186,3.629,3.561
		c0.271,0.383,0.484,0.788,0.442,1.102c-0.054,0.463,0.121,0.996,0.504,1.41c0.368,0.408,0.805,0.664,1.237,0.664
		c0.381,0,0.621-0.334,0.806-0.577l0.045-0.06c0.483-0.65,1.223-1.613,1.318-3.107c0.088-1.541,0.813-2.157,1.039-2.184
		c0.092-0.036,0.188,0,0.196,0.067c0.043,0.06,0,0.188-0.139,0.278c-0.304,0.21-0.491,0.891-0.697,1.62
		c0,0.013-0.074,0.731-0.074,0.731c-0.016,0.559-0.047,1.188-0.592,1.799c-0.83,0.876-1.786,2.945-2.014,5.546
		c-0.159,1.561,0.557,3.817,2.101,6.702l0.084,0.191l0.43,0.706c0.436,0.669,1.116,1.782,1.096,2.044
		c-0.061,0.376-0.082,0.68-0.73,1.466c-0.711,0.889-3.27,3.886-3.529,3.939c-0.51,0-0.589,0.05-0.997,0.366l-0.436,0.322
		c-0.474,0.352-0.563,0.605-0.641,0.822c-0.059,0.162-0.122,0.313-0.33,0.48l-0.163,0.115c-0.037,0.014-0.133,0.146-1.156,1.186
		c-1.179,1.172-1.719,2.5-1.535,3.807c0.063,0.404,0.414,0.56,1.452,0.601c1.05,0.05,3.458-1.636,3.573-2.17l0.024-0.216
		c0.099-0.486,0.265-1.32,0.522-1.441c0.334-0.158,0.903-0.802,1.321-1.263l0.066-0.097c0.206-0.26,0.268-0.519,0.322-0.74
		c0.043-0.203,0.084-0.391,0.226-0.57c0.083-0.117,0.238-0.196,0.4-0.264c0.309-0.163,0.723-0.351,1.006-1.082
		c0.282-0.709,2.008-1.951,3.266-2.842c0.629-0.459,1.139-0.825,1.266-0.979c0.188-0.215,0.272-0.631,0.272-1.078
		c0-0.504-0.136-1.072-0.474-1.385c-0.482-0.443-0.92-1.758-1.064-2.176l0,0c0-0.156-0.022-0.482-0.04-1.072v-0.074
		c0-1.545,2.282-3.059,3.298-3.711l0.434-0.301c3.594-3.176,4.304-5.574,4.419-6.229l0.075-0.801
		c0.033-0.538,0.073-1.077,0.372-1.14c0.134-0.017,0.338,0.089,0.497,0.23c0.07,0.094,0.175,0.262,0.109,0.479
		c-0.162,0.434-0.246,4.896-0.254,5.088c0.04,0.02,0.409,0.476,0.409,0.476l0.076,0.075l0.007-0.097
		c0-0.065,0.203-1.272,0.203-1.714c0-0.469,0.795-2.538,0.958-2.572c0,0.013,0.025,0.029,0.025,0.029
		c0.092,0.28,0.196,0.978,0.196,1.725c0,0.734-0.104,1.503-0.442,1.936c-0.559,0.668-0.963,1.715-1.257,2.412l-0.264,0.594
		c-0.035,0.049-0.035,0.157-0.035,0.245c0,0.586,0.299,1.778,0.492,2.003c0.056,0.06,0.101,0.06,0.116,0.06
		c0.072-0.028,0.121-0.109,0.121-0.585c0-1.807,1.495-3.113,1.539-3.125c1.33-1.053,1.621-3.026,1.621-4.523
		c0-1.137-0.15-1.997-0.172-2.025c-0.013-0.016-0.624-0.922-0.655-0.938c0.037,0.017,0.213-0.122,0.268-0.179
		c0.059,0.082,0.66,0.896,0.66,0.896c0.111,0.139,0.392,0.551,0.392,0.723c0,0.92,0.131,1.564,0.217,2.035l0.034,0.101
		c0.1,0.506,0.781,2.087,0.805,2.146l0.074,0.162l0.034-0.183c0-0.005,0.08-0.831,0-1.537c-0.075-0.396,0.013-0.876,0.07-1.401
		l0.125-1.209c0-0.979-0.134-1.6-0.493-2.172l-0.173-0.254c-0.047-0.109-0.134-0.213-0.134-0.25l0.134-0.056
		c2.829-0.95,4.15-3.026,4.69-4.189c0.551-1.214,0.589-3.097,0.589-3.451c0-0.468-0.038-2.917-0.436-4.164
		c-0.258-0.749-0.153-1.532-0.095-2.392l0.095-1.46c0-1.012,0.519-1.753,1.029-2.476l0.62-0.952
		c0.378-0.776,0.196-1.466,0.021-1.661c-0.061-0.082-0.118-0.082-0.137-0.078c-0.031,0.01-0.077,0.045-0.077,0.129
		c-0.054,0.406-0.566,1.397-0.938,1.544c-0.798,0.313-1.199,1.235-1.489,1.911c-0.168,0.34-0.321,0.674-0.436,0.674
		c-0.016,0-0.079-0.043-0.153-0.156c-0.483-0.844-0.229-2.115,0.022-3.16l0.032-0.25c0.169-0.866,1.192-2.086,1.813-2.823
		l0.242-0.315c0.436-0.516,0.544-2.266,0.468-2.399c-0.032-0.007-0.041,0.005-0.063,0.021c-0.015,0.009-0.015,0.021-0.029,0.03
		v-0.009v0.018c-0.036,0.02-0.061,0.02-0.061,0.11c-0.115,0.547-1.124,1.672-2.823,3.139c-0.347,0.306-0.755,0.856-1.072,1.285
		c-0.209,0.309-0.454,0.631-0.542,0.637c-0.422-2.256,0.362-3.535,0.73-4.166l0.144-0.316c0.74-1.972,2.603-3.457,2.624-3.473
		c0.02-0.063,0.02-0.118-0.021-0.168c-0.059-0.049-0.207-0.029-0.414,0.084l-0.096,0.063c-0.655,0.3-2.625,1.26-3.813,3.563
		c-0.869,1.657-1.195,3.497-1.195,4.901c0,0.713,0.1,1.293,0.237,1.688c0.397,1.123,1.144,3.911,1.363,5.018
		c0.151,0.672,0.175,3.008,0.175,4.47v1.253l-0.373,1.176c0,0.013-0.188,0.936-1.702,2.486c-1.524,1.549-3.224,2.059-3.23,2.071
		c-0.696,0.058-1.305,0.036-1.332-0.065c0-1.779-3.063-5.929-4.613-7.302c-1.597-1.401-2.869-2.386-5.043-3.708
		c-2.207-1.341-4.642-6.971-4.674-7.023l-0.201-0.748c0,0-0.126-1.516-0.161-1.928c0.089,0.05,0.188,0.125,0.188,0.125l0.754,0.434
		c0.014,0,0.848,0.334,0.848,0.334c0.012,0.008,1.136,0.217,1.136,0.217c0,0.004,0.64,0.329,0.64,0.329l0.587,0.377l0.885,0.654
		c0.018,0,0.951,0.489,0.951,0.489c0.021,0.008,1.103,0.058,1.103,0.058l0.019-0.093c0,0-1.254-0.592-1.267-0.592
		c0-0.025-0.454-0.807-0.454-0.807l-0.536-0.763c-0.033-0.021-0.658-0.396-0.658-0.396c-0.021,0-0.814-0.129-0.814-0.129
		s-0.179-0.13-0.24-0.209c0.057-0.038,0.198-0.122,0.198-0.122c0,0.004,0.869,0.109,0.869,0.109
		c0.006,0.013,0.796,0.543,0.796,0.543l0.853,0.65c0,0.01,0.8,0.316,0.8,0.316l0.11,0.04l-0.356-0.909
		c-0.024,0-0.667-0.619-0.667-0.619l-0.942-0.818c-0.03-0.01-0.773-0.394-0.773-0.394l-0.805-0.27l-0.84-0.538v-0.105
		c0.117,0.034,1.189,0.469,1.189,0.469l1.023,0.27c-0.009,0,0.825,0.334,0.825,0.334c0-0.004,1.248,0.598,1.248,0.598
		c0.021,0,1.021,0.221,1.021,0.221c0.008,0,1.247-0.221,1.247-0.221c0.031-0.008,1.205-0.826,1.205-0.826
		c0-0.02,0.208-0.504,0.208-0.504l0.058-0.127l-0.37,0.162c-0.021,0-1.069,0.538-1.069,0.538l-0.734,0.177
		c0-0.005-0.835-0.177-0.835-0.177c0-0.003-0.686-0.636-0.686-0.636l-0.971-0.924c0-0.014-0.85-0.451-0.85-0.451
		c-0.031-0.004-1.029-0.156-1.029-0.156s-0.632-0.328-0.632-0.335v-0.024c0-0.081-0.01-0.238-0.03-0.318
		c0.115,0.012,1.289,0.121,1.289,0.121c0.008,0,1.395-0.121,1.395-0.121l0.805,0.168l0.793,0.328l0.786,0.097l0.159,0.034
		l-0.901-0.877c-0.011,0-0.92-0.656-0.92-0.656c-0.013,0-0.764-0.27-0.764-0.27c0-0.014-1.257-0.125-1.298-0.125
		c0.019,0,0.019-0.021,0.019-0.047c0-0.079-0.019-0.185-0.019-0.238c0.089-0.009,0.586-0.104,0.586-0.104l0.958,0.221
		c0,0.008,0.897,0.539,0.897,0.539l0.972,0.325c0.021,0,1.41-0.212,1.41-0.212l0.071-0.01l-0.42-0.559
		c-0.03-0.019-0.711-0.234-0.711-0.234c0-0.014-0.581-0.434-0.581-0.434l-0.856-0.598c-0.01,0-0.668-0.221-0.668-0.221l-0.999-0.171
		c0-0.013-0.494-0.463-0.513-0.472c0.019,0,0.054-0.168,0.054-0.247c0.074,0.03,0.542,0.159,0.542,0.159l0.692,0.327
		c0.009,0,0.975,0.308,0.975,0.308l-0.223-0.435c-0.019-0.013-0.375-0.396-0.375-0.396s-0.242-0.289-0.331-0.43
		c0.063-0.01,0.126-0.038,0.126-0.038c0,0.02,1.041,0.55,1.041,0.55s0.808,0.275,0.82,0.275c0,0.01,0.612,0.588,0.612,0.588
		c0.009,0.006,1.19,0.682,1.19,0.682l0.119,0.063l-0.215-0.576c0-0.021-0.647-0.83-0.647-0.83l-0.538-0.919
		c-0.006-0.013-0.951-0.992-0.951-0.992c-0.021-0.013-1.236-0.669-1.236-0.669l-0.491-0.537l-0.84-0.869
		c0-0.007-0.1-0.316-0.154-0.463c0.167,0.038,0.849,0.264,0.849,0.264l0.979,0.278l0.666,0.437c0,0.007,0.573,0.7,0.573,0.7
		c0.029,0.013,0.929,0.388,0.929,0.388l2.313,0.313l0.139,0.006l-0.627-0.674c-0.024,0-1.272-0.558-1.272-0.558l-0.725-0.538
		l-0.417-0.744l-0.428-0.768c0-0.01-0.7-0.678-0.7-0.678c-0.013,0-0.868-0.491-0.868-0.491l-0.853-0.7c0,0-0.206-0.428-0.308-0.714
		c0.203,0.213,0.575,0.567,0.575,0.567l1.123,0.984c0.021,0.016,0.868,0.396,0.868,0.396l0.742,0.598l0.846,0.852
		c0.031,0.02,1.372,0.221,1.372,0.221l0.153,0.012l-1.353-1.16c0-0.024-0.296-0.969-0.296-0.969
		c-0.025-0.02-0.716-0.676-0.716-0.676l-0.36-0.425c0-0.013-0.37-1.132-0.37-1.132c-0.019-0.021-0.762-0.78-0.762-0.78
		c0-0.007-1.226-1.142-1.226-1.147v-0.008c0,0-0.051-0.189-0.074-0.3c0.094,0.048,0.22,0.11,0.22,0.11l1.131,0.656
		c0,0.008,1.343,0.383,1.343,0.383l1.391,0.334l1.601,0.262l-0.387-0.771c-0.011-0.022-0.805-0.354-0.805-0.354L96.09,65.76
		l-0.906-0.385L94.4,65.05c0-0.019-0.538-0.674-0.817-1.05c0.267,0.188,0.7,0.481,0.7,0.481c0.021,0.013,0.707,0.054,0.707,0.054
		h2.202l0.9,0.493l0.719,0.825l0.144,0.101l-0.111-0.926c-0.032-0.021-0.491-0.618-0.491-0.618
		c-0.013-0.017-1.305-0.731-1.305-0.731l-1.008-0.376c-0.021-0.006-1.546-0.27-1.565-0.27v-0.026c0-0.007-0.271-0.351-0.271-0.351
		c-0.021-0.009-1.136-1.051-1.136-1.051l-0.548-0.263c0-0.003-0.182-0.175-0.29-0.306h0.58c0,0.013,0.889,0.547,0.889,0.547
		c0.009,0.018,1.173,0.39,1.173,0.39l1.506,0.229c0,0.012,0.556,0.629,0.556,0.629c0.025,0.005,0.826,0.506,0.826,0.506
		c0.012,0,0.931,0.166,0.931,0.166l0.111,0.009l-1.89-2.325c-0.019-0.016-0.913-0.5-0.913-0.5c-0.011,0-1.083-0.326-1.083-0.326
		c0-0.016-0.958-1.081-0.958-1.081c0-0.02-1.161-0.726-1.161-0.726c-0.031-0.004-0.698-0.172-0.871-0.209
		c0.041-0.092,0.216-0.375,0.216-0.375l0.958-0.43c0.007,0.013,1.375-0.259,1.375-0.259c0.051-0.028,0.162-0.362,0.162-0.362
		c-0.022-0.051-0.608-0.435-0.608-0.435c-0.019-0.009-0.713-0.231-0.713-0.231c-0.041,0.014-0.409,0.231-0.409,0.231
		c0-0.009-1.156,0.042-1.156,0.042l-1.38-0.33c0-0.004-1.437-1.182-1.437-1.182c0-0.021-0.624-0.35-0.624-0.35
		c-0.023,0-2.389-0.267-2.389-0.267c0-0.03-0.556-0.849-0.556-0.849c0-0.004-0.752-0.822-0.752-0.822
		c0-0.013-0.949-0.876-0.949-0.876L83.612,51.924z M73.011,62.574c0,0-0.182,0.154-0.194,0.162
		c-0.267,0.254-0.397,0.367-0.647,0.209c-0.135-0.074-0.188-0.326-0.188-0.455c-0.024-0.328,0.029-0.764,0.233-0.938l0.13-0.134
		c0.098-0.141,0.212-0.279,0.484-0.279c0.213,0,0.516,0.033,0.659,0.204c0.092,0.097,0.134,0.216,0.115,0.384
		C73.571,62.109,73.269,62.353,73.011,62.574 M74.707,61.746l-0.035,0.119c-0.058,0.149-0.092,0.178-0.273,0.162
		c-0.109,0-0.188-0.013-0.21-0.075c-0.062-0.043-0.038-0.104,0-0.153v-0.047v-0.088c-0.038-0.137-0.083-0.305,0.014-0.387
		c0.008,0,0.037-0.047,0.154-0.021c0.112,0.021,0.274,0.07,0.351,0.209C74.755,61.552,74.744,61.636,74.707,61.746 M75.767,63.593
		c-0.178,0-0.343-0.163-0.343-0.351c0-0.205,0.165-0.362,0.343-0.362c0.219,0,0.372,0.157,0.372,0.362
		C76.139,63.43,75.985,63.593,75.767,63.593 M78.812,58.998l-1.313,0.855l-0.896,0.352l-0.111,0.027
		c-0.497,0.16-0.838,0.133-0.921-0.046c-0.12-0.308,0.557-0.604,1.34-0.947l0.249-0.082l0.516-0.265
		c0.374-0.176,0.73-0.342,1.085-0.416c0.138-0.014,0.316-0.029,0.362,0.074C79.164,58.717,78.843,58.968,78.812,58.998
		 M56.854,93.631c-0.214,0-0.401-0.179-0.401-0.379c0-0.225,0.188-0.393,0.401-0.393c0.25,0,0.446,0.168,0.446,0.393
		C57.3,93.452,57.104,93.631,56.854,93.631 M60.258,81.266c-0.246,0.736-0.575,1.324-0.794,1.424l-0.11,0.013
		c-0.251-0.093-0.113-0.924,0.146-1.703c0.242-0.738,0.564-1.328,0.771-1.436l0.151-0.009C60.659,79.639,60.53,80.489,60.258,81.266
		 M61.895,78.244c-0.396,0-0.73-0.192-0.73-0.425c0-0.237,0.334-0.435,0.73-0.435c0.418,0,0.727,0.197,0.727,0.435
		C62.621,78.052,62.313,78.244,61.895,78.244 M65.415,82.789l-0.102,0.049c-0.185,0.006-0.563-0.211-0.906-0.551
		c-0.342-0.304-0.646-0.676-0.646-0.885c0-0.045,0.024-0.082,0.053-0.098l0.106-0.053c0.183-0.012,0.557,0.201,0.926,0.553
		C65.256,82.162,65.571,82.627,65.415,82.789 M63.989,101.952c0.259,0,0.488,0.213,0.488,0.478c0,0.248-0.229,0.47-0.488,0.47
		c-0.279,0-0.509-0.222-0.509-0.47C63.48,102.165,63.71,101.952,63.989,101.952 M59.464,86.324c0.132-0.199,0.311-0.33,0.452-0.346
		l0.179,0.048c0.163,0.118,0.144,0.443-0.083,0.722c-0.146,0.197-0.329,0.31-0.461,0.344l-0.178-0.051
		C59.207,86.924,59.249,86.621,59.464,86.324 M60.53,94.946l-0.083-0.013l-0.025-0.012c-0.184-0.122-0.48-0.856-0.681-1.787
		c-0.15-0.654-0.362-1.898-0.07-1.974l0.07,0.011l0.025,0.006c0.207,0.125,0.48,0.855,0.686,1.785
		C60.604,93.619,60.805,94.883,60.53,94.946 M66.79,90.773c-0.386,0.287-1.547-0.432-1.815-0.644l-1.595-1.197l0.038-0.105
		c0.012,0.018,1.453,0.31,2.278,0.827c0.738,0.454,1.129,0.744,1.174,0.955C66.87,90.646,66.844,90.723,66.79,90.773 M69.252,84.604
		c-0.403,0.994-0.893,1.782-1.195,1.916l-0.169,0.004c-0.102-0.049-0.143-0.191-0.143-0.408c0-0.451,0.206-1.223,0.474-1.94
		c0.398-1.007,0.888-1.786,1.205-1.913l0.171-0.01c0.087,0.035,0.119,0.194,0.119,0.398C69.714,83.124,69.511,83.891,69.252,84.604
		 M88.231,114.627l-0.062,0.055h-0.021c-0.058,0.021-0.108-0.051-0.12-0.079c-0.105-0.172-0.215-0.656-0.215-1.124
		c0-0.338,0.052-0.654,0.215-0.889c0,0,0.797-1.356,0.801-1.373c0.057-0.005,0.33-0.121,0.496,0.014
		c0.076,0.087,0.076,0.237,0,0.475l-0.308,0.676l-0.344,0.897L88.231,114.627z M90.06,121.188l-0.021,0.132l-0.085-0.119
		c-0.048-0.09-1.41-2.263-1.054-2.822c0.034-0.109,0.168-0.162,0.343-0.138c0.195,0.007,0.366,0.108,0.484,0.271
		C90.318,119.223,90.06,121.1,90.06,121.188 M83.127,135.631c-0.211,0.238-0.491,0.385-0.686,0.385l-0.16-0.063
		c-0.042-0.038-0.062-0.094-0.062-0.163c0-0.192,0.135-0.456,0.385-0.706c0.227-0.241,0.493-0.391,0.698-0.391l0.134,0.072
		C83.612,134.926,83.483,135.284,83.127,135.631 M85.535,132.021c-0.21,0.216-0.448,0.358-0.604,0.358l-0.146-0.041
		c-0.108-0.159,0.066-0.509,0.302-0.765c0.216-0.213,0.453-0.355,0.625-0.355l0.118,0.048
		C85.978,131.412,85.795,131.753,85.535,132.021 M106.678,103.952l0.814-1.216c0.693-0.988,1.572-2.244,1.757-2.888
		c0.232-0.808,0.267-2.603,0.267-3.938c0-0.926-0.034-1.645-0.034-1.66l0.104-0.014c0.013,0.029,1.365,3.806,0.703,5.881
		c-0.627,1.898-1.461,2.748-2.165,3.445l-0.537,0.547c-0.403,0.494-0.694,0.348-0.759,0.281c-0.125-0.055-0.178-0.176-0.178-0.31
		C106.658,104.047,106.658,104.002,106.678,103.952 M98.753,107.545c0.059-0.271,0.384-0.422,0.384-0.422h0.009h0.013
		c0.037,0,0.646,0.2,0.646,0.668c0,0.517-0.058,0.893-0.112,1.178c-0.055,0.217-0.222,0.326-0.351,0.326
		c-0.122,0.012-0.205-0.068-0.26-0.185l-0.062-0.525l-0.043-0.359l-0.091-0.192C98.792,107.909,98.69,107.741,98.753,107.545
		 M93.25,124.865c0.282,0,0.514,0.229,0.514,0.494c0,0.285-0.231,0.484-0.514,0.484c-0.272,0-0.503-0.199-0.503-0.484
		C92.747,125.094,92.978,124.865,93.25,124.865 M91.153,126.134l0.059,0.007l0.008,0.021c0.247,0.25-1.585,2.113-1.668,2.198
		c-0.834,0.865-1.823,1.729-2.092,1.729l-0.054-0.013l-0.029-0.004c-0.236-0.268,1.598-2.128,1.69-2.212
		C89.905,126.997,90.895,126.134,91.153,126.134 M82.484,57.645c0.203-0.091,0.423-0.112,0.56-0.065l0.128,0.132
		c0.077,0.168-0.083,0.415-0.404,0.562c-0.186,0.085-0.391,0.11-0.548,0.061l-0.131-0.128c-0.008-0.038-0.008-0.066-0.008-0.092
		C82.081,57.951,82.239,57.764,82.484,57.645 M79.777,59.345c0.075-0.243,0.38-0.478,0.709-0.552l0.624-0.066l0.078,0.02
		c0.331,0.006,0.66,0.252,0.854,0.631c0.197,0.388,0.178,0.828-0.025,1.131c-0.08,0.101-0.175,0.163-0.318,0.18
		c-0.496,0.033-1.361-0.501-1.846-1.045C79.757,59.564,79.748,59.455,79.777,59.345 M81.004,64.26l-0.311,0.039l-0.224,0.09
		l-0.146,0.021l-0.071-0.107c-0.053-0.121-0.012-0.159,0.063-0.227l0.046-0.055l0.551-0.379c0.426-0.302,1.014-0.705,1.112-0.814
		c0.064-0.092,0.171-0.123,0.257-0.1c0.096,0.008,0.137,0.049,0.148,0.108c0.026,0.063,0.012,0.17-0.114,0.333l-0.31,0.496
		l-0.209,0.344C81.639,64.168,81.292,64.213,81.004,64.26 M75.066,79.338c0.224-0.367,1.276-1.252,2.576-1.23
		c2.01,0.053,2.61,1.047,2.737,1.351c0.049,0.056,0.08,0.15,0.022,0.213c-0.087,0.101-0.312,0.03-0.786-0.123
		c-0.495-0.172-1.212-0.394-1.871-0.378c-0.885,0.027-1.606,0.178-2.07,0.292l-0.572,0.102l-0.07-0.016l-0.013-0.034
		C75.005,79.483,75.02,79.408,75.066,79.338 M81.714,102.865c-0.016-0.02-3.729-2.866-4.986-4.072
		c-0.9-0.854-1.922-2.039-1.871-2.523c0.025-0.072,0.069-0.135,0.13-0.182c0.438-0.235,0.872-0.149,1.773,1.045
		c0.895,1.168,4.987,5.613,5.037,5.666L81.714,102.865z M82.478,83.312c-0.238,0.149-0.656,0.02-0.831-0.075
		c-0.32-0.158-0.483-0.355-0.483-0.586c0-0.232,0.325-0.676,0.773-0.676c0.474,0,0.668,0.093,0.72,0.902
		C82.656,83.078,82.604,83.219,82.478,83.312 M83.315,70.699l-0.1,0.213c-0.246,0.668-0.677,1.228-1.063,1.721l-0.581,0.799
		c-0.461,0.744-1.414,1.688-1.665,1.875c-0.158,0.095-0.29,0.05-0.365-0.013c-0.083-0.087-0.102-0.209-0.052-0.304l0.517-0.935
		l1.558-2.944l0.083-0.171c0.525-0.942,1.27-2.228,1.7-2.345l0.172,0.021C84.002,68.904,83.904,69.151,83.315,70.699 M88.996,99.745
		c-0.246,0.3-0.421,0.647-0.453,0.919c-0.031,0.194-0.173,0.334-0.299,0.383c-0.102,0.029-0.216,0-0.28-0.049
		c-0.145-0.152-0.107-0.59-0.066-0.678c0,0,0.306-1.626,0.334-1.643c0-0.008,0.164-0.201,0.388-0.211l0.334,0.139
		C89.325,98.955,89.263,99.452,88.996,99.745 M87.936,77.469c-0.22,0-0.421-0.184-0.421-0.393c0-0.229,0.201-0.41,0.421-0.41
		c0.234,0,0.435,0.182,0.435,0.41C88.37,77.285,88.17,77.469,87.936,77.469 M88.257,76.299c-0.229,0-0.438-0.18-0.438-0.4
		c0-0.224,0.209-0.398,0.438-0.398c0.255,0,0.461,0.175,0.461,0.398C88.718,76.119,88.512,76.299,88.257,76.299 M88.619,75.061
		c-0.31,0-0.55-0.205-0.55-0.458s0.24-0.448,0.55-0.448c0.306,0,0.54,0.195,0.54,0.448S88.925,75.061,88.619,75.061 M88.899,73.68
		c-0.28,0-0.529-0.18-0.529-0.405c0-0.233,0.249-0.397,0.529-0.397c0.271,0,0.518,0.164,0.518,0.397
		C89.417,73.5,89.171,73.68,88.899,73.68 M89.15,72.611c-0.392,0-0.723-0.159-0.723-0.393c0-0.226,0.331-0.406,0.723-0.406
		c0.401,0,0.729,0.181,0.729,0.406C89.879,72.452,89.552,72.611,89.15,72.611 M89.294,69.66c0.216-0.028,0.422,0.014,0.567,0.101
		l0.092,0.153c0,0.213-0.227,0.394-0.576,0.451c-0.218,0.037-0.443-0.004-0.552-0.088l-0.107-0.172
		C88.674,69.898,88.934,69.705,89.294,69.66 M88.825,68.816c0-0.19,0.204-0.346,0.513-0.371c0.185-0.025,0.378,0.029,0.48,0.114
		l0.1,0.183c0.025,0.196-0.211,0.359-0.517,0.388c-0.222,0.021-0.372-0.028-0.489-0.125l-0.087-0.172V68.816z M89.401,71.337
		c-0.334,0-0.594-0.166-0.594-0.379c0-0.212,0.26-0.394,0.594-0.394c0.325,0,0.584,0.182,0.584,0.394
		C89.985,71.171,89.727,71.337,89.401,71.337 M89.576,67.911c-0.282,0-0.509-0.163-0.509-0.376c0-0.191,0.227-0.362,0.509-0.362
		c0.285,0,0.483,0.171,0.483,0.362C90.06,67.748,89.861,67.911,89.576,67.911 M89.552,66.705c-0.235,0-0.448-0.16-0.448-0.348
		c0-0.194,0.213-0.362,0.448-0.362c0.239,0,0.434,0.168,0.434,0.362C89.985,66.545,89.791,66.705,89.552,66.705 M89.576,65.713
		c-0.226,0-0.417-0.138-0.417-0.31c0-0.175,0.191-0.325,0.417-0.325c0.215,0,0.377,0.15,0.377,0.325
		C89.953,65.575,89.791,65.713,89.576,65.713 M89.923,64.344c0,0.179-0.132,0.338-0.314,0.338c-0.207,0-0.354-0.159-0.354-0.338
		c0-0.188,0.146-0.33,0.354-0.33C89.791,64.014,89.923,64.156,89.923,64.344 M89.426,63.631c-0.205,0-0.358-0.16-0.358-0.334
		c0-0.193,0.153-0.328,0.358-0.328c0.193,0,0.346,0.135,0.346,0.328C89.771,63.471,89.619,63.631,89.426,63.631 M89.029,60.393
		c0.182-0.06,0.348-0.109,0.48-0.031c0.125,0.072,0.268,0.172,0.242,0.322c-0.025,0.093-0.117,0.166-0.295,0.225l-0.163,0.025
		c-0.395,0.116-0.978,0.275-1.063,0.434c-0.089,0.16-0.484,0.359-0.717,0.285c-0.075-0.025-0.188-0.101-0.146-0.313l0.009-0.146
		c0.083-0.484,0.195-1.157,0.826-1.388c0.192-0.054,0.309-0.061,0.359-0.013c0.072,0.086,0.032,0.206-0.02,0.331
		c-0.061,0.159-0.083,0.276-0.02,0.321C88.641,60.49,88.829,60.445,89.029,60.393 M88.575,57.061
		c0.175,0.118,0.143,0.241,0.099,0.297c-0.079,0.2-0.461,0.354-0.71,0.291l-0.159-0.028c-0.127-0.02-0.127-0.045-0.163-0.167
		l-0.027-0.096c-0.028-0.104,0.019-0.222,0.133-0.301C87.936,56.91,88.286,56.869,88.575,57.061 M87.747,55.697
		c0.217,0,0.423,0.223,0.51,0.429c0.053,0.122,0.029,0.233-0.054,0.275c-0.083,0.071-0.175,0.102-0.293,0.075
		c-0.091-0.029-0.163-0.088-0.204-0.17l-0.246-0.138c-0.145-0.052-0.292-0.089-0.292-0.21
		C87.168,55.738,87.439,55.697,87.747,55.697 M87.572,77.906c0.247,0,0.456,0.146,0.456,0.342c0,0.2-0.209,0.348-0.456,0.348
		c-0.246,0-0.432-0.147-0.432-0.348C87.141,78.052,87.326,77.906,87.572,77.906 M87.159,78.857c0.218,0,0.413,0.138,0.413,0.297
		c0,0.162-0.195,0.291-0.413,0.291c-0.213,0-0.414-0.129-0.414-0.291C86.745,78.995,86.934,78.857,87.159,78.857 M86.758,79.671
		c0.229,0,0.401,0.138,0.401,0.297c0,0.171-0.173,0.302-0.401,0.302c-0.211,0-0.403-0.131-0.403-0.302
		C86.354,79.809,86.547,79.671,86.758,79.671 M86.054,86.933c0.522,2.403,3.105,6.052,3.542,6.604c0.013,0,0.039,0.013,0.039,0.013
		s0,0.025-0.016,0.029c0.016,0.008,0.028,0.041,0.04,0.053c-0.012,0.01-0.024,0.02-0.051,0l-0.013,0.01l-0.02-0.01
		c-0.085-0.033-0.321-0.138-0.957-0.45c-0.044-0.003-0.846-0.446-2.511-3.13c-0.278-0.48-1.196-2.847-1.196-3.71
		c0-0.079,0-0.159,0.02-0.216c0.037-0.051,0.078-0.099,0.104-0.111h0.007c0.234-0.076,0.418-0.069,0.547,0.013
		C85.86,86.173,85.966,86.545,86.054,86.933 M85.215,64.4c0.096-0.053,0.246-0.007,0.32,0.118c0.089,0.131,0.12,0.372-0.137,0.601
		c-0.422,0.385-0.751,0.619-1.269,0.81c-0.354,0.131-0.827,0.234-1.032,0.066c-0.054-0.028-0.073-0.091-0.073-0.183V65.77
		c0.02-0.362,0.751-0.592,1.242-0.738c0.225-0.053,0.464-0.246,0.665-0.425L85.215,64.4z M84.138,63.321
		c0.088-0.079,0.38-0.05,0.51,0.087c0.062,0.055,0.15,0.223-0.034,0.477c-0.216,0.268-0.462,0.446-0.69,0.609l-0.395,0.346
		c-0.106,0.16-0.304,0.229-0.439,0.146c-0.045-0.029-0.144-0.092-0.144-0.264c0-0.078,0.012-0.162,0.045-0.263
		c0.158-0.488,0.785-0.892,1.043-1.055L84.138,63.321z"/>
	<path d="M81.952,54.387c0.064,0,0.652-0.28,0.652-0.28c0.031-0.058-0.096-0.63-0.096-0.63c-0.024-0.018-1.32-1.527-1.32-1.527
		l-0.078-0.066v0.082l-0.152,0.609l-0.396,0.988l-0.031,0.038l0.888,0.452L81.952,54.387z"/>
</g>
</svg>
