<?xml version="1.0" encoding="UTF-8"?>
<svg id="Layer_1" xmlns="http://www.w3.org/2000/svg" version="1.1" viewBox="0 0 235.416 158.278">
  <!-- Generator: Adobe Illustrator 29.5.1, SVG Export Plug-In . SVG Version: 2.1.0 Build 141)  -->
  <path d="M65.502,80.456c.582,2.95,1.283,5.859,2.417,8.659.672,1.594,1.388,3.175,2.392,4.6,1.896,2.719,4.403,4.712,7.446,6.022,1.245.542,2.499,1.004,3.795,1.384,3.597,1.085,7.311,1.638,11.035,1.945,3.568.308,7.161.546,10.754.686,5.189.196,10.358.26,14.415.351,4.337-.062,7.529-.1,10.715-.154,4.475-.105,8.975-.277,13.475-.608,3.342-.236,6.676-.552,9.988-1.178,2.713-.503,5.378-1.194,7.899-2.309,4.216-1.855,7.396-4.775,9.302-8.984.81-1.782,1.508-3.578,2.036-5.461.993-3.583,1.658-7.231,2.174-10.905.478-3.637.889-7.295,1.255-10.94.359-3.64.594-7.295.677-10.939.125-5.863.186-11.728-.317-17.581-.183-2.258-.567-4.471-1.27-6.617-1.173-3.649-3.161-6.743-6.244-9.076-1.999-1.483-4.208-2.512-6.535-3.276-3.141-1.023-6.359-1.564-9.629-1.967-3.972-.48-7.986-.823-11.986-1.004-4.148-.212-8.298-.366-12.442-.452-5.546-.141-11.111-.106-16.683.005-6.273.13-12.528.389-18.782.95-3.105.289-6.227.607-9.301,1.183-2.599.489-5.164,1.138-7.584,2.199-4.152,1.791-7.332,4.644-9.311,8.744-1.114,2.334-1.776,4.798-2.109,7.338-.373,2.698-.517,5.406-.556,8.115-.043,3.486-.068,6.964,0,10.45.101,6.232.695,12.438,1.393,18.638.389,3.408.927,6.808,1.583,10.184M68.189,46.626c.071-2.987.177-5.97.37-8.938.158-2.636.45-5.233,1.228-7.785,1.014-3.23,2.733-5.963,5.518-7.965,1.586-1.129,3.344-1.936,5.183-2.545,2.036-.674,4.14-1.102,6.252-1.364,2.939-.375,5.897-.721,8.866-1.004,2.059-.197,4.144-.308,6.231-.408,3.457-.153,6.905-.355,10.358-.384,5.072-.048,10.147-.048,15.223.052,3.844.073,7.669.274,11.536.501,4.09.225,8.212.633,12.275,1.257,2.655.389,5.261.932,7.727,1.959,3.029,1.24,5.536,3.107,7.293,5.902,1.007,1.613,1.667,3.376,2.118,5.221.446,1.858.69,3.745.83,5.643.476,5.656.537,11.327.414,16.998-.078,3.372-.305,6.73-.644,10.076-.256,2.747-.511,5.483-.835,8.211-.548,4.447-1.27,8.856-2.672,13.144-.461,1.47-1.026,2.905-1.746,4.27-1.769,3.435-4.463,5.84-8.02,7.319-2.194.902-4.48,1.44-6.801,1.81-3.984.648-8.013.955-12.052,1.186-5.504.297-11.061.447-16.601.447h-1.322v.081c-4.782-.115-9.571-.177-14.357-.366-3.492-.133-6.978-.393-10.441-.682-2.905-.249-5.754-.648-8.567-1.349-1.404-.351-2.745-.822-4.037-1.402-3.478-1.59-6.018-4.129-7.643-7.544-1.102-2.271-1.86-4.663-2.461-7.087-.799-3.329-1.37-6.705-1.753-10.101-.395-3.804-.794-7.615-1.088-11.415-.407-4.591-.458-9.166-.382-13.738"/>
  <path d="M38.89,122.476c.276.048.521.091.77.106.742.106,1.528.177,2.295.265.928.114,1.411.574,1.557,1.493.037.12.066.231.066.351,0,1.271-.019,2.54-.019,3.809,0,.022-.048.057-.058.096-.691.114-13.993.077-14.427-.049v-2.118c.021-.671,0-1.349.045-2.007.091-.923.604-1.426,1.504-1.56.421-.072.853-.091,1.27-.144.629-.072,1.248-.149,1.893-.24,0-.582.01-1.096,0-1.629-.029-.509.06-1.026-.05-1.521H14.925v3.15c.284.048.526.091.777.106.753.106,1.516.177,2.3.265.921.114,1.406.57,1.589,1.487.044.266.044.538.044.808v11.77c0,.299,0,.581-.056.87-.184.897-.667,1.33-1.567,1.435-.783.096-1.532.173-2.295.26-.275.037-.528.086-.784.118v3.09c.634.129,18.396.109,18.824-.021v-3.087c-.973-.115-1.929-.246-2.89-.337-1.178-.129-1.715-.614-1.758-1.806-.035-1.278-.015-2.568-.015-3.856,0-.033.043-.058.058-.088.785-.124,13.968-.081,14.425.055v3.72c0,.16-.029.318-.066.473-.146.888-.606,1.355-1.505,1.479-.43.048-.841.085-1.272.139-.594.067-1.219.154-1.83.222v3.146h18.8v-3.142c-.319-.042-.617-.077-.916-.119-.733-.083-1.478-.153-2.228-.245-.856-.124-1.311-.566-1.48-1.417-.055-.311-.065-.64-.065-.959-.004-3.881-.004-7.743,0-11.614,0-.301.011-.608.054-.92.181-.914.681-1.346,1.618-1.46.432-.059.891-.092,1.314-.136.565-.071,1.121-.153,1.703-.231v-3.154h-18.814v3.15Z"/>
  <path d="M124.533,119.383v3.083c.108.02.208.049.31.059.895.115,1.797.216,2.715.322.999.114,1.507.619,1.622,1.613.031.148.031.308.031.455v11.194c0,.12-.031.236-.06.432-.212-.254-.353-.436-.472-.615-3.939-5.151-7.856-10.29-11.751-15.462-.58-.763-1.252-1.172-2.188-1.172h-15.991c-.163,0-.325.014-.526.034v3.15c.238.038.45.081.647.106.781.092,1.555.173,2.371.265.965.1,1.471.57,1.644,1.545.047.274.028.549.028.812.019,3.89.019,7.77.019,11.655,0,.211,0,.421-.039.633-.086,1.085-.614,1.619-1.719,1.743-.428.039-.868.077-1.315.14-.549.072-1.088.15-1.637.216v3.094c.623.124,14.568.109,14.994-.007.103-.69.074-2.684-.037-3.106-.284-.033-.564-.068-.85-.105-.746-.088-1.475-.154-2.185-.261-.941-.113-1.45-.667-1.541-1.599-.014-.221-.014-.417-.014-.628-.007-3.602,0-7.199,0-10.791v-.553c.039,0,.071-.019.127-.032.128.167.251.336.385.503,3.905,5.153,7.838,10.296,11.728,15.468.634.821,1.397,1.201,2.425,1.195,3.708-.019,7.406-.015,11.122-.015.14,0,.32-.028.493-.047v-17.365c0-.278,0-.537.029-.806.072-1.024.629-1.576,1.629-1.69.46-.049.893-.092,1.324-.15.578-.057,1.135-.148,1.694-.22v-3.142c-.878-.114-14.598-.071-15.015.048"/>
  <path d="M179.949,129.704c-.283-2.977-1.54-5.451-3.939-7.301-1.061-.816-2.256-1.401-3.494-1.871-2.511-.912-5.129-1.24-7.798-1.24-7.607-.024-15.229,0-22.808,0-.177,0-.35.006-.523.028v3.184c.831.077,1.633.163,2.443.25,1.495.153,1.945.652,1.945,2.152v12.004c0,.269-.015.542-.047.812-.177.945-.665,1.388-1.633,1.512-.446.029-.881.077-1.32.13-.558.071-1.138.159-1.709.226v3.179h.777c7.342,0,14.669.006,22.018-.019,1.339,0,2.693-.059,4.043-.183,2.075-.202,4.091-.715,5.975-1.623,2.688-1.301,4.633-3.251,5.569-6.108.545-1.68.668-3.404.499-5.133M168.813,134.27c-.145.604-.375,1.215-.681,1.758-.688,1.201-1.82,1.806-3.161,2.046-.652.114-1.335.162-2.003.168-2.454.027-4.918.013-7.361.013-.179,0-.341-.019-.522-.032v-14.368c.138-.01.273-.043.407-.043,2.558,0,5.11-.01,7.662,0,.866.005,1.759.11,2.6.375,1.32.446,2.224,1.295,2.741,2.573.511,1.186.609,2.458.669,3.727.032,1.282,0,2.545-.352,3.784"/>
  <path d="M92.66,122.067c-1.737-1.276-3.702-2.036-5.776-2.578-2.925-.763-5.926-.975-8.868-1-2.787.02-5.471.204-8.111.778-2.036.452-3.992,1.1-5.754,2.176-3.577,2.165-5.448,5.325-5.473,9.495-.035,4.067,1.686,7.231,5.098,9.459.94.614,1.936,1.091,3.011,1.488,2.378.89,4.85,1.336,7.382,1.538,3.774.287,7.521.206,11.243-.505,2.139-.413,4.191-1.065,6.068-2.156,3.433-1.977,5.44-4.903,5.685-8.88.262-4.058-1.174-7.385-4.504-9.816M86.037,133.933c-.547,2.569-2.122,4.178-4.662,4.778-2.353.548-4.72.543-7.055-.047-2.527-.639-4.01-2.286-4.501-4.811-.202-.908-.243-1.851-.358-2.787.058-1.117.148-2.203.442-3.266.595-2.285,2.04-3.76,4.316-4.369,2.357-.634,4.782-.634,7.17-.072,2.507.605,4.09,2.186,4.64,4.73.425,1.944.425,3.899.008,5.844"/>
  <path d="M217.43,137.746c-1.733-2.698-3.515-5.373-5.267-8.066-1.946-2.959-3.901-5.911-5.826-8.88-.628-.984-1.436-1.532-2.659-1.532-5.72.03-11.425.016-17.15.016-.158,0-.331.023-.5.037v3.156c.23.048.442.071.679.106,1.127.129,2.209.245,3.351.379.971.105,1.445.946,1.014,1.845-.076.135-.15.259-.238.398-2.61,4.222-5.226,8.441-7.823,12.669-.111.191-.227.363-.36.531-.361.486-.835.766-1.466.831-.403.029-.846.077-1.253.12-.586.072-1.187.154-1.771.232v3.105c.844.131,14.592.102,15.009-.043v-3.068c-.357-.042-.714-.077-1.06-.129-.605-.062-1.22-.097-1.829-.217-.98-.211-1.276-.927-.769-1.772.27-.491.604-.938.865-1.435.212-.381.457-.472.879-.472,4.441.02,8.874.01,13.316.01.101,0,.209-.018.294.01.117.034.296.087.378.197.385.572.781,1.138,1.101,1.748.378.671.162,1.268-.554,1.546-.417.149-.849.216-1.306.279-.722.09-1.432.157-2.19.23v3.115c.101.034.145.062.197.062,6.584.007,13.164.007,19.756.007.082,0,.193-.021.288-.035.01,0,.015-.019.028-.034.031,0,.031-.028.039-.043v-3.062c-.913-.11-1.828-.256-2.708-.322-1.101-.087-1.859-.614-2.464-1.519M193.272,131.331c1.482-2.362,2.899-4.673,4.331-7.01.341.278,4.244,6.145,4.668,6.995-.409.116-8.136.145-8.999.015"/>
  <path d="M85.433,26.187c.136,2.017.263,4.038.389,6.041.208,3.313.432,6.617.633,9.912.175,2.708.342,5.422.524,8.121.198,3.141.433,6.294.649,9.432.154,2.52.316,5.036.508,7.548.24,3.434.502,6.862.74,10.296.223,2.791.413,5.605.64,8.399.259,3.246.528,6.468.802,9.715.011.278.058.557.095.827,2.032.446,9.491.809,11.254.786.065-.25.142-.493.22-.754.961-3.539,1.917-7.084,2.914-10.604.539-1.936,1.234-3.804,2.176-5.599,1.152-2.248,2.983-3.507,5.475-3.885,2.155-.341,4.327-.505,6.497-.505,2.205,0,4.395.164,6.571.519,2.366.403,4.151,1.612,5.267,3.746.23.466.477.923.683,1.407.763,1.753,1.406,3.566,1.906,5.426.883,3.17,1.713,6.339,2.575,9.524.08.245.156.494.23.725,2.194.126,10.217-.479,11.278-.845,2.1-25.121,3.675-50.299,5.269-75.529-2.618-.384-5.201-.523-7.817-.59-.06.217-.103.379-.131.547-1.052,4.744-2.098,9.483-3.155,14.238-1.555,6.94-3.249,13.851-5.094,20.716-.611,2.233-1.335,4.428-2.345,6.514-1.925,4.023-5.156,6.242-9.565,6.861-1.637.226-3.294.302-4.945.308-2.425.015-4.838,0-7.224-.446-2.992-.548-5.46-1.926-7.348-4.337-.944-1.205-1.584-2.583-2.159-3.99-.971-2.441-1.672-4.961-2.351-7.482-2.592-10.037-4.858-20.141-7.042-30.254-.204-.889-.405-1.757-.615-2.674-2.628.052-5.203.217-7.794.571,0,.216-.017.355,0,.484.08,1.618.205,3.218.292,4.831"/>
</svg>