<?xml version="1.0" encoding="utf-8"?>
<!-- Generator: Adobe Illustrator 16.0.0, SVG Export Plug-In . SVG Version: 6.00 Build 0)  -->
<!DOCTYPE svg PUBLIC "-//W3C//DTD SVG 1.1//EN" "http://www.w3.org/Graphics/SVG/1.1/DTD/svg11.dtd">
<svg version="1.1" id="Layer_1" xmlns="http://www.w3.org/2000/svg" xmlns:xlink="http://www.w3.org/1999/xlink" x="0px" y="0px"
	 width="200px" height="200px" viewBox="0 0 200 200" enable-background="new 0 0 200 200" xml:space="preserve">
<g>
	<path d="M112.486,52.899c-3.993-1.053-8.205-1.606-12.451-1.606c-4.219,0-8.306,0.553-12.187,1.553l12.346,34.074L112.486,52.899z"
		/>
	<path d="M148.703,100.033c0-6.075-1.043-11.883-3.079-17.258l-23.159,60.442C137.998,135.074,148.703,118.778,148.703,100.033"/>
	<path d="M124.532,57.907L110.25,97.203h-6.308h-7.479h-6.317L75.809,57.74c-5.297,3.037-9.919,7.038-13.756,11.77l20.355,52.78
		l7.456-19.279h5.74h8.066h5.746l7.452,19.279l20.552-53.415C133.801,64.501,129.419,60.776,124.532,57.907"/>
	<path d="M100.035,34.999c-35.78,0-65.036,29.188-65.036,65.035c0,35.741,29.256,64.968,65.036,64.968
		c35.814,0,64.964-29.228,64.964-64.968C164.999,64.187,135.85,34.999,100.035,34.999 M100.035,156.688
		c-31.213,0-56.73-25.454-56.73-56.659c0-31.267,25.518-56.764,56.73-56.764c31.21,0,56.72,25.497,56.72,56.764
		C156.755,131.234,131.245,156.688,100.035,156.688"/>
	<path d="M99.606,113.346l-12.563,32.596l-0.061,1.006c4.156,1.167,8.529,1.758,13.052,1.758c4.246,0,8.366-0.538,12.286-1.544
		l-0.146-1.22L99.606,113.346z"/>
	<path d="M51.313,100.033c0,18.315,10.222,34.402,25.338,42.654l-22.573-58.84C52.272,88.902,51.313,94.33,51.313,100.033"/>
</g>
</svg>
