<?xml version="1.0" encoding="utf-8"?>
<!-- Generator: Adobe Illustrator 28.2.0, SVG Export Plug-In . SVG Version: 6.00 Build 0)  -->
<svg version="1.1" id="Calque_3" xmlns="http://www.w3.org/2000/svg" xmlns:xlink="http://www.w3.org/1999/xlink" x="0px" y="0px"
	 viewBox="0 0 204 200" style="enable-background:new 0 0 204 200;" xml:space="preserve">
<style type="text/css">
	.st0{fill-rule:evenodd;clip-rule:evenodd;}
	.st1{fill:#FFFFFF;stroke:#000000;stroke-miterlimit:10;}
	.st2{fill-rule:evenodd;clip-rule:evenodd;fill:#FFFFFF;}
</style>
<g>
	<path class="st0" d="M144.1,53.5l-0.2-1.3l-1.2-0.6c-6.2-2.9-22.9-9.6-44.9-9.6C77,42,61,48,53.4,51.6l-1.2,0.6l-0.2,1.3
		c-1.4,8.8-3.8,32.1,3,58.5c6.9,26.7,20.9,47.5,41.6,61.9l1.4,1l1.4-1c20.7-14.4,34.7-35.3,41.6-61.9
		C148,85.6,145.5,62.3,144.1,53.5L144.1,53.5z"/>
	<path class="st1" d="M136.3,110.7c-6.4,24.8-19.3,44.4-38.2,58c-18.9-13.7-31.8-33.2-38.2-58c-6.3-24.2-4.4-45.7-3.1-55.1
		c7.7-3.4,22.3-8.5,41.1-8.5c19.7,0,34.9,5.6,41.6,8.5C140.7,65,142.5,86.5,136.3,110.7z"/>
	<polygon class="st0" points="62.6,66.3 65.6,65.2 66,66.3 61.8,67.9 59.6,61.8 60.8,61.4 	"/>
	<polygon class="st0" points="68.8,65.4 67.4,65.8 67.9,59 69.4,58.6 73.3,64.2 71.9,64.6 71.1,63.4 68.9,64 68.8,65.4 	"/>
	<polygon class="st0" points="81.2,62.6 80,62.8 78.9,57.5 78.9,57.5 78.8,63 77.5,63.3 75.3,58.2 75.3,58.2 76.3,63.5 75.1,63.8 
		73.9,57.4 75.8,57.1 77.9,61.8 77.9,61.8 78.1,56.6 80,56.3 	"/>
	<path class="st0" d="M82.8,55.9l3.1-0.4c1.6-0.2,2.1,0.8,2.1,1.4c0.1,0.9-0.4,1.2-0.6,1.4c0.8,0.2,1.1,0.8,1.2,1.4
		c0.1,0.5-0.1,1-0.4,1.4c-0.3,0.4-0.6,0.7-1.9,0.8l-2.7,0.3L82.8,55.9z"/>
	<path class="st0" d="M93.5,54.8c0.8,0,3.1,0.2,3.2,3.3c0.1,3-2.1,3.5-2.9,3.5c-0.8,0-3.1-0.2-3.2-3.3
		C90.4,55.3,92.7,54.8,93.5,54.8z"/>
	<path class="st0" d="M99.2,54.8l3.2,0.1c1.7,0.1,2,1.3,2,1.9c0,0.7-0.4,1.3-1,1.5c0.5,0.2,0.8,0.5,0.8,1.7c0,0.9,0,1.2,0.2,1.3
		l0,0.2l-1.5,0c-0.1-0.3-0.1-0.6-0.1-1.3c0-0.9,0-1.2-1-1.2l-1.4,0l-0.1,2.5l-1.3,0L99.2,54.8L99.2,54.8z"/>
	<path class="st0" d="M109.8,58.4l2.7,0.3l-0.4,3.4l-0.9-0.1l-0.1-0.8c-0.4,0.4-0.9,0.9-2.1,0.8c-1.5-0.2-2.8-1.4-2.6-3.7
		c0.2-1.7,1.3-3.3,3.5-3.1c2,0.2,2.6,1.6,2.6,2.4l-1.3-0.1c0-0.3-0.3-1.1-1.3-1.2c-0.9-0.1-1.9,0.5-2.1,2.1
		c-0.2,1.7,0.7,2.3,1.6,2.4c0.3,0,1.3,0,1.7-1.2l-1.5-0.2L109.8,58.4L109.8,58.4z"/>
	<polygon class="st0" points="116.2,59.9 115.7,62.7 114.4,62.5 115.5,56.1 116.8,56.4 116.4,58.8 118.9,59.2 119.3,56.8 
		120.6,57.1 119.5,63.4 118.2,63.2 118.7,60.3 116.2,59.9 	"/>
	<polygon class="st0" points="123,64.2 121.7,63.9 123.2,57.7 124.5,58 123,64.2 	"/>
	<polygon class="st0" points="130.9,59.8 132.1,60.1 130.3,66.3 129,65.9 127.8,60.7 127.8,60.7 126.5,65.1 125.3,64.8 127.1,58.6 
		128.5,59 129.6,64 129.6,64.1 130.9,59.8 	"/>
	<polygon class="st0" points="133.7,67.5 132.4,67.1 134.7,61.1 135.9,61.5 133.7,67.5 	"/>
	<path class="st0" d="M106.9,80c-1-0.4-2.1-0.7-3.2-0.7c-1.1,0-2.3,0.2-3.2,0.7c-0.9,0.5-3.3,1.6-5.7,3.4s-4.8,4.2-6,7.3
		c-1.2,3.1-1.7,5-2.1,6.4c-0.3,1.3-0.5,2.1-0.7,2.8c-0.2,0.7-0.7,1.4-1,2.2c-0.4,0.8-0.6,1.7-0.6,2.7c0,1-0.1,2.2-0.2,3.4
		c-0.1,1.2-0.3,2.3-0.5,3.1s-0.4,1.8-0.6,2.9c-0.2,1.2-0.3,2.4-0.3,3.5c0,1.3-0.1,2.6-0.2,3.8c-0.1,1.1-0.4,2.2-0.8,3.3
		c-0.4,1-0.5,1.8-0.6,2.6c-0.1,0.8-0.3,1.5-0.7,2.3c-0.4,0.8-1,1.7-1.6,2.7c-0.6,0.9-1.2,1.8-1.6,2.4s-0.7,1.3-0.5,1.8
		c0.1,0.6,0.6,1,1.6,1.1c1,0.1,1.8-0.1,2.4-0.5c0.6-0.4,1-1,1.1-1.6c0.1-0.6,0.1-1.5,0.1-2.4c0-0.9,0.1-1.8,0.4-2.5l0.3-0.8l0.3-0.8
		c0.3-0.5,0.5-0.7,0.8-0.9c0.2-0.2,0.4-0.3,0.8-0.7c0.3-0.4,0.8-1.5,1.2-2.6c0.4-1.2,0.7-2.5,0.7-3.4c0-0.7,0-1.5,0.2-2.2
		c0.1-0.6,0.4-1.1,0.6-1.5c0.2-0.5,0.4-1,0.6-1.4c0.2-0.4,0.5-0.6,1.1-0.6c0.6,0.1,0.7,0.3,0.8,0.7c0.1,0.4,0,0.8,0.2,1.2
		c0.2,0.4,0.4,0.8,0.7,1.2c0.3,0.4,0.6,0.7,1.1,0.9c0.5,0.2,0.9,0.6,1.1,1c0.2,0.5,0.2,1-0.1,1.4c-0.3,0.5-0.7,1.2-1.1,2
		c-0.4,0.8-0.6,1.6-0.6,2.1c0,0.5,0.1,1.3,0,2.1c-0.1,0.8-0.3,1.6-1,2.3c-0.6,0.6-1,1.2-1.5,1.9c-0.3,0.6-0.5,1-0.5,1.4
		c0,0.3,0.1,0.7,0.5,1.1c0.3,0.3,0.9,0.6,1.7,0.6s1.5-0.2,1.9-0.5c0.5-0.3,0.8-0.8,1-1.3s0.1-1,0.1-1.4c-0.1-0.4-0.2-0.7-0.2-1.1
		c0-0.4,0.1-0.8,0.3-1.3c0.1-0.5,0.3-0.9,0.3-1.4c0.1-1.3,0.6-2.5,1.3-3.6c0.5-0.7,0.8-1.3,1-1.9c0.2-0.5,0.4-1,0.7-1.5
		c0.3-0.5,0.4-0.7,0.6-0.7c0.1-0.1,0.3,0,0.6,0.2c0.3,0.2,0.4,0.4,0.3,0.6c-0.1,0.2-0.2,0.5-0.4,0.8c-0.2,0.3-0.6,0.9-1,1.5
		s-0.8,1.2-1,1.6c-0.2,0.5-0.4,1-0.3,1.5c0.1,0.5,0.4,0.9,1.1,0.9c0.7,0.1,1.2,0,1.6-0.1c0.4-0.1,0.6-0.3,0.7-0.7s0.2-1,0.3-1.6
		c0.2-0.6,0.4-1.2,0.6-1.6s0.4-0.7,0.5-1c0.1-0.2,0.1-0.5,0.1-0.8c0.4,0.4,0.7,0.8,1,1.3c0.3,0.5,0.5,0.9,0.7,1.4
		c0.2,0.4,0.7,1,1.5,1.4c0.8,0.4,2,0.7,3.5,0.6c1.6-0.1,2.4-0.2,2.8-0.3s0.5-0.4,0.7-0.8c0.2-0.4,0.6-1.2,0.8-1.9
		c0.2-0.8,0.2-1.6-0.5-2c0.1-0.6,0.3-1.5,0.6-2.3c0.3-0.8,0.6-1.6,1.1-2.2c0.5-0.5,1.2-1,1.8-1.5c0.6-0.5,1.1-0.9,1.3-1.2
		c0.8,0.4,1.6,1,2.2,1.8c0.6,0.8,1,1.8,1.1,3.2c0,0.8,0.1,1.5,0.2,2.1c0.1,0.6,0.3,1.1,0.3,1.5c0.1,0.4,0.1,0.8,0.1,1.2
		c0,0.4,0,0.9,0.1,1.3c0.1,0.5,0.4,0.9,0.7,1.1c0.4,0.3,0.8,0.4,1.2,0.4c0.4-0.1,0.7-0.4,1-0.9c0.2-0.5,0.4-1,0.4-1.4
		c0-0.4-0.1-0.7-0.3-1c-0.2-0.3-0.4-0.4-0.6-0.6c-0.2-0.2-0.3-0.3-0.4-0.6c0-0.2,0-0.6,0.2-1.1c0.2-0.5,0.1-1,0-1.3
		c-0.1-0.4-0.4-0.7-0.6-0.8s-0.4-0.7-0.6-1.4c-0.2-0.7-0.3-1.6-0.2-2.4s0-1.8-0.3-2.6s-0.6-1.5-1.1-1.8c1.5-0.1,3.1-0.2,4.6-0.6
		c1.5-0.4,2.8-1.2,3.5-2.5c-0.8-0.1-1.8,0-2.9-0.3c-1.2-0.3-2.5-1.1-4.1-2.8c0.1-0.8,0.1-1.3,0.1-1.7s-0.2-0.8-0.4-1.2
		c-0.2-0.4-0.5-0.9-0.6-1.5c-0.2-0.7-0.2-1.6-0.1-3.1c0.2-1.5,0.1-3.8-0.5-6.4c-0.6-2.6-1.8-5.4-3.9-7.7c0.5-1.7,0.8-2.9,0.9-3.9
		c0.1-0.9-0.1-1.7-0.5-2.5c-0.4-0.8-1.4-1.5-2.9-2c-1.5-0.5-3.5-0.7-5.8-0.7c-2.3,0-5.6,0.2-8.3,0.1s-4.8-0.3-4.9-1
		c0-0.7,0.4-1,0.9-1.2c0.5-0.2,1.1-0.2,1.7-0.2c0.8,0.3,1.9,0.5,3,0.6c1.1,0.1,2.3,0.1,3.3,0.1c1,0,1.8-0.3,2.8-0.6
		c0.9-0.3,1.9-0.5,3.1-0.6c-1-0.3-2.2-0.8-3.4-1.1c-1.3-0.3-2.5-0.5-3.6-0.3c-0.4-0.4-0.7-0.7-1.1-0.8c-0.4-0.1-1.1-0.1-2.1,0.2
		c-1,0.3-1.7,0.4-2.2,0.4c-0.5,0.1-1,0.1-1.6,0.3s-1.5,0.2-2.3,0.6c-0.7,0.3-1.3,0.9-1.3,2c0,1.1,0.4,2,1.5,2.7
		c1.1,0.7,2.9,1.1,5.8,1c2.9,0,6.1-0.1,8.8,0c2.6,0.1,4.7,0.5,5.4,1.3c0.7,0.8,0.9,1.4,0.8,1.8c-0.1,0.4-0.5,0.8-1,1.3
		c-0.4,0-1.2,0.1-2.2,0C108.9,80.7,107.8,80.5,106.9,80L106.9,80z"/>
	<path class="st2" d="M104.1,122.9c0.2-0.5,0.4-1.2,0.6-2.2c0.2-1,0.3-2.4,0.1-4.4c-0.4,0.1-0.7,0.3-1,0.5c-0.4,0.3-0.7,0.6-1,1
		c-0.1-1-0.1-1.9,0-2.9c0.1-1,0.2-2,0.3-2.5c0.1-0.5,0.2-0.8,0.3-1c0.1-0.2,0.2-0.3,0.4-0.6c0.3-0.3,0.4-0.7,0.4-1.1
		c0-0.5-0.2-1-0.5-1.3c-0.3-0.3-0.6-0.7-0.8-1.1c-0.2-0.4-0.2-0.7-0.2-1.1c0-0.4,0.4-1,1.3-1.5c0.8-0.5,2.2-1.1,4-1.3
		c0.3,0,0.4,0.1,0.4,0.2c0,0.1-0.1,0.3-0.3,0.4c-0.2,0.1-0.6,0.4-1,0.7c-0.4,0.3-0.8,0.7-1,0.9c-0.2,0.2-0.5,0.7-0.5,1.4
		c0,0.6,0.4,1.4,1.5,2.1s1.8,1.1,2.4,1.3c0.6,0.2,1.1,0.2,1.8,0.3c-0.2-0.3-0.9-0.8-1.5-1.3c-0.6-0.5-1.2-1-1.3-1.2
		c-0.1-0.2-0.3-0.4-0.4-0.7c0-0.3,0.1-0.6,0.5-1c0.5-0.4,0.9-0.8,1.2-1.1c0.3-0.3,0.5-0.6,0.6-0.8c0.4,0.2,1.2,0.6,1.9,0.9
		c0.7,0.3,1.5,0.6,1.9,0.7c0.4,0.1,0.9,0.3,1.4,0.6c0.4,0.3,0.8,0.6,1.1,1c0.5,0.7,1.7,1.3,3,1.5c1.3,0.3,2.8,0.3,4.1-0.2
		c-0.8-0.3-1.6-0.6-2.3-1c-1-0.5-2.1-1.2-2.8-2c-0.5-0.6-0.9-0.9-1.2-1.1c-0.3-0.2-0.6-0.2-1-0.3c-0.4-0.1-1.2-0.3-2.1-0.7
		c-0.8-0.4-1.7-1-2.3-1.9c-0.6-0.9-1-2.2-1.4-3.4c-0.4-1.2-0.6-2.2-0.9-2.7c-0.3-0.4-0.6-0.9-1-1.4c-0.4-0.6-0.7-1.3-0.9-2
		c-0.2-0.9-0.4-1.7-0.6-2.6c-0.2-0.8-0.5-1.5-0.8-1.9c-0.3-0.4-0.5-1.2-0.8-1.9c-0.2-0.7-0.5-1.4-0.7-1.7c-0.4-0.5-0.9-0.9-1.5-1.3
		c-0.7-0.5-1.5-0.9-2.2-0.9c-0.8,0-1.8,0.3-2.8,0.9c-1,0.6-2.1,1.4-2.9,2.2c-0.8,0.8-1.8,1.6-2.6,2.4c-0.8,0.8-1.5,1.7-1.8,2.9
		c-0.3,1.2-0.7,2.7-1.2,4c-0.4,1.4-0.9,2.6-1.1,3.3c-0.3,0.6-0.8,2-1.3,3.4c-0.5,1.4-0.8,2.9-0.7,3.9c0,0.8,0.1,1.5,0.3,2
		c0.2,0.5,0.5,0.7,1,0.6c0.5-0.1,0.6-0.6,0.8-1c0.2-0.4,0.4-0.8,0.9-0.8s0.8,0,1,0.1c0.2,0.1,0.3,0.2,0.6,0.4
		c0.3,0.1,0.6,0.3,0.9,0.4c0.3,0.1,0.6,0.1,0.9-0.3c0.2-0.4,0.6-0.5,1-0.6c0.4-0.1,0.7,0,1.1,0c0.3,0,0.6,0,0.9-0.1
		c0.3-0.1,0.6-0.4,0.8-0.8c0.2-0.4,0.5-0.6,0.8-0.7c0.2,0,0.4,0,0.6,0.1c0.4,0.5,0.8,1.2,1.1,1.9c0.3,0.7,0.5,1.3,0.4,1.7
		c-0.1,0.5-0.2,1.1-0.4,1.6c-0.2,0.7-0.6,1.3-1,1.9c-0.4,0.6-0.9,1.4-0.9,2.3c0,0.9,0.5,1.8,2,2.6c0,0.6,0,0.9,0.2,1.3
		c0.2,0.4,0.6,0.9,1.6,1.9c0.4,0.3,0.7,0.9,1,1.6c0.3,0.6,0.6,1.3,0.7,1.8c0,0.2,0.2,0.3,0.3,0.3C104,123.2,104.1,123.1,104.1,122.9
		L104.1,122.9z M68.9,62.9l1.6-0.4L69,60.2l0,0L68.9,62.9L68.9,62.9z M84.7,61l1.6-0.2c0.6-0.1,1-0.4,0.9-1.1
		c-0.1-0.6-0.6-0.7-1-0.7l-1.7,0.2L84.7,61L84.7,61z M84.3,58.2l1.6-0.2c0.5-0.1,0.9-0.3,0.9-0.8c-0.1-0.5-0.4-0.6-1.1-0.6l-1.5,0.2
		L84.3,58.2L84.3,58.2z M93.7,60.4c0.7,0,1.7-0.5,1.6-2.3c-0.1-1.8-1.1-2.2-1.8-2.2c-0.7,0-1.7,0.5-1.6,2.3C92,60,93,60.4,93.7,60.4
		z M102,57.8c0.7,0,1-0.2,1.1-0.8c0-0.3-0.1-0.8-0.9-0.9l-1.7-0.1l-0.1,1.7L102,57.8L102,57.8z"/>
</g>
</svg>
