<?xml version="1.0" encoding="UTF-8"?>
<svg id="Layer_1" xmlns="http://www.w3.org/2000/svg" version="1.1" viewBox="0 0 184.921 149.843">
  <!-- Generator: Adobe Illustrator 29.5.1, SVG Export Plug-In . SVG Version: 2.1.0 Build 141)  -->
  <path d="M75.692,10.361c18.108-.639,36.234-.004,54.31,1.155,1.903.168,3.83.152,5.704.554,1.015.243,2.109.63,2.703,1.552.541,1.001.553,2.173.692,3.277.429,5.423.557,10.87.961,16.293-.782.096-1.564-.023-2.349-.049-13.941-.723-27.893-1.32-41.857-1.34-7.233.021-14.474-.05-21.7.301-1.75.259-3.732.845-4.743,2.406,5.466.971,10.923,2.018,16.388,3.006,18.11,3.39,36.237,6.706,54.346,10.092-.014,3.434-.007,6.869-.002,10.305-10.183-1.685-20.35-3.506-30.527-5.246-21.9-3.774-43.79-7.6-65.693-11.337.044-3.815.206-7.625.285-11.44.138-3.021.053-6.084.736-9.049.457-2.093,1.309-4.198,2.895-5.692,2.74-2.712,6.699-3.475,10.386-3.858,5.81-.538,11.642-.714,17.467-.93h0ZM43.82,46.344c31.371,5.791,62.733,11.676,94.099,17.496.685.168,1.419.182,2.077.433l.08.182c-.171,5.147-.273,10.296-.456,15.441-.121,3.176-.457,6.498-2.09,9.295-1.752,2.892-5.015,4.489-8.243,5.095-4.758.894-9.62.952-14.438,1.218-20.738.941-41.522.421-62.227-1.006-1.653-.114-3.337-.144-4.943-.602-.833-.263-1.693-.686-2.163-1.456-.505-1.01-.538-2.16-.661-3.26-.444-6.006-.679-12.019-.994-18.029,10.681.679,21.381,1.06,32.08,1.298,10.333.166,20.665.164,30.996.266,2.229.093,4.64-.331,6.329-1.897.247-.283.647-.545.607-.969-4.657-.699-9.287-1.567-13.934-2.333-18.702-3.196-37.41-6.366-56.108-9.58-.023-3.863.004-7.727-.011-11.59h0Z"/>
  <path d="M127.038,123.067v7.153h-22.751v-2.016c0-3.123.504-5.189,4.169-5.189h18.582v.051ZM107.05,118.635c-5.977,0-8.739,3.173-8.739,8.311v14.406h5.977v-6.65h22.751v6.601h5.977v-22.668h-25.965ZM140.398,118.635v4.433h14.062v18.235h5.978v-18.235h14.061v-4.433h-34.102ZM59.942,132.587c0,3.175.651,4.332,4.169,4.332h24.961v4.434h-26.368c-5.977,0-8.789-2.72-8.789-7.808v-14.91h35.106v4.433h-29.13v4.434h27.924v4.355h-27.924v.756l.051-.025ZM17.152,126.543c-1.858-.152-2.159-.807-2.159-1.915,0-1.008.551-1.611,1.958-1.611h27.571v-4.382h-28.274c-4.018,0-6.78,1.56-6.78,6.044s2.06,6.044,6.679,6.447l22.351,1.864c1.708.151,2.21.704,2.21,1.965,0,1.157-.502,1.914-2.059,1.914H10.571v4.434h28.528c4.924,0,7.082-1.966,7.082-6.601,0-4.23-1.959-5.942-6.729-6.346l-22.3-1.814Z"/>
</svg>