<?xml version="1.0" encoding="UTF-8"?>
<svg id="Layer_1" xmlns="http://www.w3.org/2000/svg" version="1.1" viewBox="0 0 257.933 110.839">
  <!-- Generator: Adobe Illustrator 29.5.1, SVG Export Plug-In . SVG Version: 2.1.0 Build 141)  -->
  <path d="M121.654,84.984c.194-.062,4.126-2.006,4.126-6.692,0-1.716-.766-7.489-8.679-7.489h-26.623v28.502c.055,0,16.454.13,26.623,0,8.83-.061,9.23-5.488,9.23-8.028,0-4.543-4.603-6.293-4.677-6.293M99.028,76.576c.217-.146,10.048,0,15.663,0,1.67,0,3.21,1.041,3.21,2.92,0,2.152-1.353,3.081-2.953,3.081-6.163,0-15.703.129-15.92,0v-6.001ZM115.078,93.554c-6.817,0-15.833.134-16.05,0v-6.159c.217-.137,10.703-.074,15.933-.137,1.8-.074,3.47,1.191,3.47,3.215,0,2.136-1.67,3.081-3.352,3.081"/>
  <path d="M200.871,88.328c.213-.058,4.284-2.793,4.284-7.367,0-5.339-2.14-10.158-10.035-10.158h-25.429v28.502h8.571v-8.832c.058,0,10.289.074,15.391,0,2.211-.067,4.015,2.281,4.015,4.276v4.556h7.646v-4.405c0-4.164-4.386-6.572-4.443-6.572M193.92,85.247c-6.159,0-15.537.08-15.657,0v-8.671c.199-.146,10.053,0,15.657,0,2.146,0,3.481,2.512,3.481,4.532,0,2.003-1.411,4.139-3.481,4.139"/>
  <path d="M141.465,70.8l-15.393,28.505h8.554l3.216-5.751h17.927l3.095,5.751h8.429l-15.392-28.505h-10.436ZM140.927,87.4l5.613-10.307,5.882,10.307h-11.495Z"/>
  <path d="M236.328,70.8c.148.209,0,12.451-.121,20.339,0,1.091-.397,2.415-2.003,2.415h-14.859c-1.741,0-2.398-1.016-2.398-2.277,0-8.829-.342-20.348-.142-20.627h-8.434c-.133.208-.133,13.801,0,22.763.066,4.402,4.697,5.893,9.903,5.893,7.375,0,11.382.13,19.561,0,4.28-.074,7.149-2.328,7.079-5.893-.067-7.878-.134-22.613-.134-22.613h-8.453Z"/>
  <path d="M41.896,81.649c-6.838-.341-15.139-.262-20.222-.541-2.812-.137-2.812-5.485.282-5.485h15.654c2.128,0,2.128,2.329,2.128,2.412h7.771c-.147-.337.809-8.295-6.7-8.295h-22.617c-3.727,0-6.431,2.273-6.431,5.059v6.026c0,3.906,3.495,5.768,8.309,5.91,7.071.178,11.369.392,16.995.666,4.682.259,4.026,6.076,0,6.155-5.348.134-8.695,0-14.575,0-3.34,0-3.219-3.356-3.219-3.356h-7.759c-.151.953-.151,1.746,0,2.69.528,3.648,3.618,6.417,7.35,6.417h22.36c3.394,0,6.888-1.877,6.82-5.893,0,0-.133-5.879-.133-6.013.013-3.473-2.807-5.556-6.014-5.751"/>
  <path d="M78.689,70.8c.133.209.133,12.451,0,20.339,0,1.091-.413,2.415-1.994,2.415h-14.992c-1.608,0-2.42-1.016-2.42-2.277,0-8.829-.142-20.398,0-20.627h-8.562c-.141.208.051,13.801.133,22.763.072,4.356,4.548,5.893,9.771,5.893,7.488,0,11.524.13,19.548,0,4.281-.074,7.281-2.328,7.218-5.893-.07-7.878-.125-22.613-.125-22.613h-8.575Z"/>
  <path d="M101.623,19.997c-7.838,4.652-12.776,10.965-12.776,17.375s4.933,12.651,12.723,17.236c7.476,4.381,17.615,7.271,28.567,7.271,11.074,0,21.236-2.857,28.74-7.243,7.849-4.605,12.801-10.844,12.801-17.265s-4.973-12.736-12.843-17.379c-7.492-4.417-17.654-7.321-28.677-7.321-10.961,0-21.061,2.924-28.535,7.325M170.454,37.372c0,5.963-4.706,11.835-12.178,16.207-7.334,4.281-17.291,7.088-28.118,7.088-10.762,0-20.665-2.807-27.961-7.088-7.458-4.381-12.139-10.244-12.139-16.207s4.723-11.908,12.176-16.329c7.297-4.312,17.191-7.176,27.924-7.176,10.79,0,20.752,2.833,28.055,7.164,7.514,4.43,12.241,10.377,12.241,16.341"/>
  <polygon points="114.961 19.152 111.13 28.867 94.117 32.524 111.13 36.143 115.161 46.492 119.219 36.368 137.646 32.524 119.01 28.477 114.961 19.152"/>
  <polygon points="136.034 37.988 128.726 39.595 136.034 41.236 137.842 45.667 139.465 41.44 147.361 39.595 139.465 37.988 137.646 33.94 136.034 37.988"/>
  <polygon points="157.09 33.94 155.266 37.988 148.161 39.595 155.266 41.236 157.09 45.667 158.709 41.44 166.602 39.595 158.709 37.988 157.09 33.94"/>
  <polygon points="152.03 33.753 153.646 29.268 161.538 27.659 153.646 26.019 151.815 21.972 150.193 26.019 142.926 27.659 150.193 29.268 152.03 33.753"/>
  <polygon points="144.529 43.647 142.71 47.699 135.63 49.32 142.71 50.94 144.529 55.183 146.341 50.94 154.262 49.32 146.141 47.491 144.529 43.647"/>
  <polygon points="123.465 44.856 121.849 49.132 114.554 50.747 121.849 52.16 123.683 56.608 125.29 52.351 133.182 50.747 125.29 48.92 123.465 44.856"/>
</svg>