<?xml version="1.0" encoding="utf-8"?>
<!-- Generator: Adobe Illustrator 28.2.0, SVG Export Plug-In . SVG Version: 6.00 Build 0)  -->
<svg version="1.1" id="Layer_1" xmlns="http://www.w3.org/2000/svg" xmlns:xlink="http://www.w3.org/1999/xlink" x="0px" y="0px"
	 viewBox="0 0 200 200" style="enable-background:new 0 0 200 200;" xml:space="preserve">
<g>
	<path d="M143.4,120.1c-1.1-0.8-2.3-0.2-2.7,0.3c-1.4,2-5.7,7-14.1,7c-12.3,0-17.3-13-17.3-27.4c0-11.7,1.9-33.8,14.4-33.8
		c4,0,8.9,3.3,9.8,8.8c0.1,0.6,0.8,1.6,1.9,1.6c1,0,2-0.8,1.9-2.1c-0.6-11.7-10.1-16.7-17.3-16.7c-17.8,0-22.4,28.1-22.4,42.2
		c0,3.7,0,40.1,23.8,40.1c11,0,18.4-9.1,22.6-17.6C144.2,122.1,144.3,120.8,143.4,120.1L143.4,120.1z"/>
	<path d="M100.3,35.3c-35.7,0-64.7,29-64.7,64.7c0,35.7,29,64.7,64.7,64.7s64.7-29,64.7-64.7C165,64.3,136.1,35.3,100.3,35.3
		L100.3,35.3z M100.3,156.9c-31.4,0-56.9-25.5-56.9-56.9c0-31.4,25.5-56.9,56.9-56.9s56.9,25.5,56.9,56.9S131.8,156.9,100.3,156.9
		L100.3,156.9z"/>
	<path d="M108.7,144.8c-7.3-3.5-18.8-17.3-18.8-44.2c0-15.3,4.6-37.4,15.9-46.1c0.9-0.7,1-1.8,0.5-2.6c-0.3-0.4-1.1-1.3-2.4-0.8
		c-1.3,0.5-33.3,13.7-45.4,51c-1.4,4.4-2.9,3.8-4,3.3c-1.6-0.6-2.9,0.8-2.7,2.1c1.5,8.2,4.1,16.2,11.8,24.9c0.7,0.8,2,0.7,2.6,0.2
		c0.8-0.7,0.9-1.6,0.6-2.4c-0.8-1.8-2.3-9.3-0.8-16.7c0.5-2.6,1.2-5.6,2.2-8.9c2.2,2,5.6,5,10.1,8c0.4,5.3,1.4,10.8,3,16.6
		c1.8,6.4,1.8,9.9-1.7,11.7c-1.4,0.7-1.3,2.8,0.1,3.5c7.9,3.8,18.5,5.5,28.4,3.9c0.8-0.1,1.6-0.9,1.6-1.9
		C109.7,145.9,109.4,145.2,108.7,144.8L108.7,144.8z M78,102.2c-2.2-1.3-4.4-2.9-7.2-5.1c2.7-6.8,6.8-14.4,13-22
		C80.8,82.9,78.5,92,78,102.2L78,102.2z"/>
</g>
</svg>
