<?xml version="1.0" encoding="utf-8"?>
<!-- Generator: Adobe Illustrator 16.0.0, SVG Export Plug-In . SVG Version: 6.00 Build 0)  -->
<!DOCTYPE svg PUBLIC "-//W3C//DTD SVG 1.1//EN" "http://www.w3.org/Graphics/SVG/1.1/DTD/svg11.dtd">
<svg version="1.1" id="Layer_1" xmlns="http://www.w3.org/2000/svg" xmlns:xlink="http://www.w3.org/1999/xlink" x="0px" y="0px"
	 width="300px" height="122.667px" viewBox="0 0 300 122.667" enable-background="new 0 0 300 122.667" xml:space="preserve">
<path d="M168.553,83.221c0,0.391,0.197,0.581,0.387,0.581c0.192,0,0.392,0,0.581-0.19l72.168-46.894
	c1.159-0.768,2.697-1.346,4.244-1.346h15.823c2.123-0.19,3.861,1.545,4.052,3.663v30.68c0,3.672-0.77,5.791-4.052,7.724
	l-19.297,11.573c-0.192,0.198-0.391,0.198-0.58,0.198c-0.19,0-0.389-0.198-0.389-0.776V53.121c0-0.381-0.189-0.579-0.381-0.579
	c-0.2,0-0.39,0-0.579,0.198l-52.871,34.347c-1.157,0.769-2.704,1.155-4.054,1.155h-35.12c-2.124,0.191-3.862-1.545-4.053-3.666
	V40.391c0-0.197-0.19-0.578-0.388-0.578c-0.191,0-0.381,0-0.579,0.191l-34.733,21.033c-0.189,0-0.379,0.38-0.379,0.578
	c0,0.189,0.189,0.383,0.379,0.581l24.897,24.891c0.19,0.188,0.383,0.576,0.581,0.769c0,0.387-0.391,0.387-0.779,0.387h-22.764
	c-1.547,0.191-2.896-0.189-4.052-1.155L91.561,72.031c-0.189-0.191-0.189-0.191-0.388-0.191c-0.191,0-0.381,0-0.381,0.191
	L65.516,87.274c-1.158,0.778-2.707,1.159-4.054,1.159H38.301c-2.116,0.197-3.854-1.538-4.051-3.665v-30.29
	c-0.38-3.094,1.155-6.181,4.051-7.726l19.3-11.571c0-0.391,0.196-0.391,0.387-0.391s0.388,0.391,0.388,0.968v39.944
	c0,0.381,0.192,0.578,0.383,0.578c0.196,0,0.388-0.197,0.578-0.197l65.607-39.557c1.351-0.769,2.706-1.346,4.244-1.155h35.121
	c2.127-0.19,3.863,1.545,4.055,3.663v44.186H168.553z"/>
</svg>
