<?xml version="1.0" encoding="utf-8"?>
<!-- Generator: Adobe Illustrator 28.2.0, SVG Export Plug-In . SVG Version: 6.00 Build 0)  -->
<svg version="1.1" id="Calque_3" xmlns="http://www.w3.org/2000/svg" xmlns:xlink="http://www.w3.org/1999/xlink" x="0px" y="0px"
	 viewBox="0 0 200 200" style="enable-background:new 0 0 200 200;" xml:space="preserve">
<style type="text/css">
	.st0{fill-rule:evenodd;clip-rule:evenodd;}
	.st1{fill-rule:evenodd;clip-rule:evenodd;fill:#FFFFFF;}
</style>
<g>
	<path class="st0" d="M31.9,100c0-37.1,30-67.1,67.1-67.1c37.1,0,67.1,30,67.1,67.1s-30,67.1-67.1,67.1
		C62,167.1,31.9,137.1,31.9,100L31.9,100z"/>
	<path class="st1" d="M46.9,118.1l-0.7-2.2h4c-1.7-5.1-2.5-10.5-2.5-15.9c0-28.3,23-51.3,51.3-51.3c28.3,0,51.3,23,51.3,51.3
		c0,28.3-23,51.3-51.3,51.3c-20.3,0-37.9-11.8-46.2-29c-1.1-0.3-1.6-0.1-2.8-0.2c-1.2-0.1-2.1-1.3-2.4-2.1l4.2,0l-0.8-2L46.9,118.1
		L46.9,118.1z M45.8,83.6l-3.1-1.3l2.9-6.6c0.3-0.7-0.9-1.2-1.1-0.6l-3,6.7l-1.2-0.5l3.4-7.7c0.3-0.7,1.1-1,2.4-0.5
		c1.3,0.6,1.5,1.1,1.2,1.9l-2.7,6l1.9,0.8L45.8,83.6L45.8,83.6z M154,72.2l0.7,1.8l-1.8,0.8l2.2,5.3l1.8-0.8l0.7,1.9l-5.4,2.3
		l-0.7-1.9l2.4-1l-2.2-5.4l-2.4,1l-0.7-1.9L154,72.2L154,72.2z M143.7,59.8l-3.4,3.2l1.4,1.5l3.4-3.2l2.5,2.9l1.2-1l-6.6-7.3l-1.2,1
		L143.7,59.8z M127,44.7l-2.1,3.2c-0.4,0.6-0.9,2.1,0.4,3.1l6.5,4.4l3.4-5.2l-1.7-1.1l-2.5,3.8l-3.8-2.6c-0.6-0.4-0.8-1-0.4-1.6
		l1.9-2.9L127,44.7L127,44.7z M82.1,40.6l1,5.7l2-0.3l-0.9-4.5l2.3-0.4c0.6-0.1,1.1,0.2,1.2,0.7l0.6,3.6l2-0.3l-0.8-4.5l2.2-0.4
		c0.6-0.2,1.2,0.2,1.3,0.7l0.6,3.6l2-0.4L95,40c-0.1-0.7-1.3-1.4-2.3-1.3l-3.7,0.6c-0.4,0-0.5,0.3-0.6,0.4c-0.3-0.2-0.7-0.3-1.1-0.2
		L82.1,40.6L82.1,40.6z"/>
	<path class="st1" d="M49.9,62.7l1.3-1.6l3.5,3.1l5.3-5.8l1.1,1.1l-6.6,7.3L49.9,62.7z M67.6,51l1.6,2.3l1.7-1.3l-1.6-2.2l1.6-1.1
		c0.5-0.4,1.2-1.9,0.7-2.7l-1.2-1.7l-1.7,1.2l0.8,1.1c0.2,0.3,0.3,1.3,0,1.6l-3.1,2.1c-0.5,0.4-1.3,0.2-1.5-0.2L64,48.8L62.4,50
		l1.2,1.7c0.5,0.6,1.9,0.8,2.7,0.3L67.6,51L67.6,51z M107.9,45c-1-0.2-2.8-0.3-2.1-3.8c0.4-2.1,1.6-2.5,3.8-2.1l4.1,0.7
		c1.8,0.3,3,0.9,2.6,3.3c-0.4,2.5-1.7,3.1-3.5,2.7L107.9,45z"/>
	<path class="st0" d="M108.2,43.8c-0.9-0.2-1-0.9-0.8-2.3c0.2-1.2,0.9-1.3,1.7-1.2l4.4,0.8c0.7,0.2,1.2,0.7,1,1.8
		c-0.2,1.1-0.8,1.9-1.9,1.6L108.2,43.8z M134.9,132.7c1-1,1.7-1.8,2.5-2.9c-10.7-1.6-26.9-2.8-31.3,7.5c-3.7-2.8-12.9-3-15.3-1.2
		c-2.2-1.8-9.9-3-14.1,0.5c-3.6-3.7-10-11.2-20.9-14.2c4.3,8.2,10.9,15.1,18.9,19.7c1.9-3.4,9.7-6.6,15.7-2.4
		c2.6-1.7,10.9-3,17.3,2.5C108,138,112.9,128.7,134.9,132.7C134.9,132.7,112.9,128.7,134.9,132.7z"/>
	<path class="st0" d="M90.6,141.6c7.4-3.3,14.4,0.2,18,3.7c0.1-1.4,1.4-14.4,24.6-10.6c-8.8,8.6-20.8,14-34.1,14
		c-8.2,0-15.5-1.9-22.3-5.5C78,140.7,85.6,137.8,90.6,141.6C90.6,141.6,85.6,137.8,90.6,141.6L90.6,141.6z M108.8,52.4
		c-3.2-0.7-6.5-1-9.8-1c-26.9,0-48.6,21.8-48.6,48.6c0,4.4,0.6,8.6,1.7,12.7C53.6,97,62.9,85.4,67.8,80C73.4,73.8,91,59,108.8,52.4
		C108.8,52.4,91,59,108.8,52.4L108.8,52.4z M102.6,115.9c-2.1-6.7-4.4-25.3,24.8-52.4L108,115.9H102.6L102.6,115.9z M111.7,115.9
		c0.9-4.3,12.5-5.7,33.5-1l-0.1,1H111.7L111.7,115.9z M54.8,115.9c1.2-4.8,9.2-5.9,16.1-5.7c7,0.3,19.7,2.2,28.6,5.7H54.8z
		 M53.8,118.1l0.6,1.9h89l0.8-1.9H53.8z"/>
</g>
</svg>
