<?xml version="1.0" encoding="UTF-8"?>
<svg id="Layer_1" xmlns="http://www.w3.org/2000/svg" version="1.1" viewBox="0 0 251.461 133.843">
  <!-- Generator: Adobe Illustrator 29.5.1, SVG Export Plug-In . SVG Version: 2.1.0 Build 141)  -->
  <path d="M125.94,94.118c30.168-.183,55.561-18.831,55.561-42.159s-24.608-42.072-55.561-42.072h-.156c-30.814.088-55.825,18.881-55.825,42.072s24.575,42.076,55.825,42.159h.156ZM125.784,14.623c.156-.04.339-.04.502-.04,20.529-.42,48.667,14.021,47.62,38.64-9.19-5.366-19.568-8.8-32.478-10.48v-12.677h-30.756v12.577c-12.866,1.709-23.622,4.918-32.812,10.291,0-26.932,28.022-38.132,47.924-38.311M79.228,61.902c10.958-7.192,25.303-9.519,40.918-10.425v-11.202h11.354v11.202c16.572.744,29.594,4.539,40.878,10.564-.695,1.896-1.688,4.013-2.716,5.733-11.938-7.221-28.096-10.744-43.879-10.989-17.073-.248-33.739,3.29-44.279,10.237-1.016-1.72-1.572-3.26-2.276-5.121M87.181,74.526c9.682-5.13,24.256-7.54,38.604-7.379,14.845.165,29.578,3.062,38.614,8.433-10.551,9.973-24.656,14.981-38.614,14.938-14.348-.041-28.573-5.363-38.604-15.991"/>
  <path d="M9.687,113.935c-.137,2.555.46,5.272,2.457,7.096,4.477,4.091,13.666,2.635,19.502,2.46v-9.79h-13.757c.18.933.678,1.907,1.542,2.757h6.256v5.193c-2.334.19-4.242-.593-6.309-1.294-5.683-1.903-6.308-9.362.302-11.508,3.549-1.177,7.793-.608,11.966.6v-4c-11.22-.17-21.582-1.261-21.959,8.486"/>
  <path d="M53.661,105.279h-17.444v18.678h6.341v-7.583h4.289l4.065,7.583h6.512l-4.652-7.879c2.794-1.102,4.574-3.545,4.652-5.916v-.4c-.078-1.851-1.211-3.595-3.762-4.482M49.095,114.009h-6.45v-5.334h6.698c2.523.991,2.084,4.772-.248,5.334"/>
  <path d="M66.698,115.677l9.992.112c1.17,0,1.519-1.953,1.777-2.934h-11.77v-4.637h9.992c1.224,0,1.857-1.966,2.145-2.94h-18.481v16.936c.026.98.494,1.742,1.524,1.742h17.819v-2.899h-13v-5.381Z"/>
  <path d="M95.181,105.279h-4.575l-8.083,18.678h6.641l1.522-3.517h9.013l1.621,3.517h6.641l-8.35-18.678h-4.43ZM95.181,116.938h-3.518l3-6.462h1.372l2.621,6.462h-3.476Z"/>
  <path d="M186.938,105.188h-4.579l-8.066,18.69h6.641l1.506-3.522h9.013l1.622,3.522h6.648l-8.305-18.69h-4.479ZM186.938,116.839h-3.475l2.969-6.435h1.386l2.583,6.435h-3.463Z"/>
  <path d="M106.135,108.76h7.673v15.196h6.471v-15.196h6.223c1.432,0,2.485-1.959,2.907-3.481h-23.273v3.481Z"/>
  <polygon points="169.779 105.279 166.972 118.647 165.214 118.647 160.609 105.279 158.099 105.279 153.196 118.647 151.521 118.647 148.762 105.279 143.13 105.279 148.552 123.957 155.827 123.957 159.252 115.102 163.067 123.957 170.133 123.957 175.291 105.279 169.779 105.279"/>
  <path d="M208.977,105.279h-6.426v16.478c0,1.135.469,2.199,1.83,2.199h16.881v-3.437h-12.285v-15.241Z"/>
  <path d="M229.468,105.279h-6.385v16.425c0,1.189.448,2.253,1.806,2.253h16.904v-3.469h-12.325v-15.209Z"/>
</svg>