<?xml version="1.0" encoding="utf-8"?>
<!-- Generator: Adobe Illustrator 28.2.0, SVG Export Plug-In . SVG Version: 6.00 Build 0)  -->
<svg version="1.1" id="Calque_2" xmlns="http://www.w3.org/2000/svg" xmlns:xlink="http://www.w3.org/1999/xlink" x="0px" y="0px"
	 viewBox="0 0 272.7 200" style="enable-background:new 0 0 272.7 200;" xml:space="preserve">
<g id="Layer_1_1_">
	<g>
		<path d="M95.2,89.7h-6.9v0.1c0.2,0.4,0.4,0.9,0.4,1.4c0,0.8-0.5,2.3-0.7,3l-4.4,12.7c-0.6,1.6-0.7,2.1-1.7,3.7v0.1h5.7v-0.1
			c-0.3-0.5-0.4-1-0.4-1.5c0-0.8,0.4-1.9,0.6-2.5l0.3-0.9h6.3c0,0,0.4,1.1,0.7,1.8c0.2,0.6,0.3,1.2,0.3,1.6c0,0.4-0.1,0.8-0.3,1.6
			v0.1h8.4v-0.1c-0.9-1.1-1.3-2.4-2.1-4.5L95.2,89.7z M89.2,102.2l1.9-5.8l0,0l2,5.8H89.2z M78.3,106c0,1.9,0.1,3.6,0.7,4.5v0.1
			h-8.2v-0.1c0.8-1.4,0.7-2.8,0.7-4.5v-3.4v-0.8l-1.1-2.2l-4-7.4c-0.5-1-1-1.7-1.8-2.5v-0.1h7.2v0.1l4.3,8.7c0,0,1-1.9,1.2-2.4
			c0.4-0.9,1-1.9,1.2-2.4c0.4-0.7,0.7-1.6,0.7-2.4s-0.2-1.1-0.4-1.4v-0.1h5.7v0.1l-5.7,11.3l-0.4,0.8L78.3,106L78.3,106z
			 M119.6,110.6h-14.7v-0.1c0.6-1.3,0.7-2.5,0.7-4.5V94.3c0-2.5-0.2-3.4-0.7-4.4v-0.1h8v0.1c-0.5,1.4-0.6,2.2-0.6,4.5v12
			c0.9,0.1,1.9,0.3,3.1,0.3c2.4,0,3.7-0.2,4.5-0.6h0.2L119.6,110.6z M55,89.2c-6.5,0-11,4-11,9.7c0,8.3,8.8,9.5,11.9,6.8l-0.5-1
			c-2.7,0.5-5.1-1.5-5.1-6c0-3.7,1.9-6,4.6-6c3.1,0,5.1,3.1,5.1,7.7c0,5.1-3,9-8.5,9c-6.3,0-11.1-5-14.1-10c3.3-1.3,5.2-3.7,5.2-7.1
			c0-4.3-3.3-7.4-9.2-7.4H22.2v0.1c0.4,1,0.7,2.8,0.7,5.2V106c0,2-0.1,3.1-0.7,4.5v0.1h8.3v-0.1c-0.5-1.3-0.7-3-0.7-4.5
			c0-2.5,0-4.4,0-4.4c0.1,0,0.9,0,1,0c5.7,8.4,12.3,11.9,19.3,11.9c10.1,0,16.1-6.4,16.1-13.5C66.3,94,61.8,89.2,55,89.2z
			 M29.9,98.3v-9.5h2.3c2.7,0,3.8,1.6,3.8,4.1c0,3.1-1.8,5.4-4.7,5.4C30.9,98.3,30.1,98.3,29.9,98.3z M169,89.8
			c-0.4,1-0.7,2-0.7,4.4v13c0.1,1.3,0.1,2.2,0.7,3.3v0.1h-0.7H167h-2.8c-1-0.4-2.2-1.7-3.7-3.3c-1.2-1.3-6.8-7.8-6.8-7.8h-0.1
			c0,0,0,6.1,0,6.2c-1.6,0.1-3.6,0.6-5.1,1v-1.3V94.1c0-2.5-0.2-3.4-0.7-4.4v-0.1h4.2h1.7l9.5,11.5l0,0v-6.9c0-2.5-0.2-3.4-0.7-4.4
			v-0.1h4.4H169L169,89.8z M159.2,110.6c-8.3,0.1-10.2,4.5-20.7,4.5c-5.1,0-9.5-1.3-9.5-1.3v-0.1c0.6-1.3,0.7-2.4,0.7-4.4V90.2
			c0-2.5-0.2-4.3-0.7-5.2v-0.1h16.9l0.5,4.7l0,0c-1.3-0.5-2.8-0.7-5.1-0.7h-4.5V97h2.2c3.4,0,5.3-0.2,5.8-0.4h0.1v4.9h-0.1
			c-0.7-0.2-3-0.4-5.7-0.4h-2.2v8.1c0,0,2.6,0.6,5,0.6c6.3,0,8.9-2.2,15.1-2.2c0.2,0,0.4,0,0.5,0c1.2,1.4,2.2,2.5,2.7,3
			C159.8,110.6,159.8,110.6,159.2,110.6z M195.2,94.3v11.9c0,2,0.1,3.1,0.7,4.5v0.1h-8.1v-0.1c0.6-1.3,0.7-2.5,0.7-4.5V94.3
			c0-2.5-0.2-3.4-0.7-4.4v-0.1h8.1v0.1C195.5,90.8,195.2,91.8,195.2,94.3z M179.1,98.8L179.1,98.8h0.6c3,0,4-0.2,4.4-0.3h0.1v4.3
			h-0.1c-0.6-0.2-1.9-0.4-4.3-0.4h-0.7v2.5v1c0,2.1,0.1,3.5,0.7,4.5v0.1h-8.1v-0.1c0.6-1.3,0.7-2.5,0.7-4.5V94.3
			c0-2.5-0.2-3.4-0.7-4.4v-0.1h13.9l0.5,4.3H186c-1-0.4-2.2-0.7-4.3-0.7h-2.7v3.4V98.8z M213.5,106.3l-0.5,4.3h-9.6l0,0h-4.7v-0.1
			c0.6-1.3,0.7-2.5,0.7-4.5V94.3c0-2.5-0.2-3.4-0.7-4.4v-0.1h13.9l0.5,4.3H213c-1-0.4-2.2-0.7-4.3-0.7h-2.7v4.8l0,0l0,0h0.5
			c3,0,4-0.2,4.4-0.3h0.1v4.3H211c-0.6-0.2-1.9-0.4-4.3-0.4H206v4.9c1,0.1,1.6,0.2,2.8,0.2c2.5,0,3.4-0.1,4.5-0.6H213.5z
			 M250.4,100.8c0,7.2-5.2,12.8-14,12.8c-6.8,0-8.9-3-17.4-3l0,0h-3.5v-0.1c0.6-1.3,0.7-2.5,0.7-4.5V94.2c0-2.5-0.2-3.4-0.7-4.4
			v-0.1h8.1v0.1c-0.4,1-0.7,2.5-0.7,4.5v12.7c5,0,7.2,1.5,11.6,1.5c6.1,0,9.1-3.4,9.1-8.1c0-4.1-2.1-7.2-5.7-7.2c-0.7,0-1.6,0-2.4,0
			V106c-2.2,0.1-4.8-0.2-6.7-0.9v-11c0-2.5-0.2-3.4-0.7-4.4v-0.1h9.5C245.4,89.7,250.4,94.6,250.4,100.8z"/>
	</g>
</g>
</svg>
