<?xml version="1.0" encoding="utf-8"?>
<!-- Generator: Adobe Illustrator 16.0.0, SVG Export Plug-In . SVG Version: 6.00 Build 0)  -->
<!DOCTYPE svg PUBLIC "-//W3C//DTD SVG 1.1//EN" "http://www.w3.org/Graphics/SVG/1.1/DTD/svg11.dtd">
<svg version="1.1" id="Layer_1" xmlns="http://www.w3.org/2000/svg" xmlns:xlink="http://www.w3.org/1999/xlink" x="0px" y="0px"
	 width="200px" height="200px" viewBox="0 0 200 200" enable-background="new 0 0 200 200" xml:space="preserve">
<path fill-rule="evenodd" clip-rule="evenodd" d="M134.197,142.492c-13.711,13.896-59.256,10.92-67.621,0
	C56.367,120.018,52.68,97,53.939,73.576c-0.365-7.789,2.189-13.043,7.662-15.752c19.023-8.537,57.045-9.477,74.688-0.338
	c7.285,2.807,9.949,9.824,9.648,20.045C146.516,103.162,141.275,124.355,134.197,142.492 M44.504,73.422
	c1.494-9.279,7.43-16.107,16.949-21.611c20.781-13.719,53.764-13.924,77.506,0.479c8.564,4.473,13.5,11.297,15.822,20.139
	c4.783,25.17,0.615,47.158-9.984,66.166c-11.566,26.479-72.785,26.93-87.172,3.088C45.461,125.172,39.512,97.641,44.504,73.422z
	 M99.986,165.99c-36.67,0-66.404-29.555-66.404-65.988c0-36.439,29.734-65.992,66.404-65.992c36.697,0,66.432,29.553,66.432,65.992
	C166.418,136.436,136.684,165.99,99.986,165.99z M116.379,74.836h16.836l-0.053,5.988l-5.521-0.014l-0.057,47.217h-5.498
	l-0.246-47.186l-5.471-0.031L116.379,74.836z M109.664,95.492h-7.598V80.568l4.705-0.01l2.893,6.992V95.492z M115.156,128.027
	h-5.492l-0.043-25.439h-7.576l-0.123,25.449l-4.957-0.01V74.676h12.969l5.223,10.559V128.027z M84.928,74.676h5.482v53.51h-5.482
	V74.676z M66.459,74.836h15.975v5.896l-10.465,0.01l0.021,15.926l8.215,0.01l0.02,5.975l-8.234-0.016l-0.027,25.549h-5.504V74.836z"
	/>
</svg>
