<?xml version="1.0" encoding="UTF-8"?>
<svg id="Layer_1" xmlns="http://www.w3.org/2000/svg" version="1.1" viewBox="0 0 182.839 153.888">
  <!-- Generator: Adobe Illustrator 29.5.1, SVG Export Plug-In . SVG Version: 2.1.0 Build 141)  -->
  <path d="M52.589,136.047c-.414-1.17-1.795-5.151-2.639-7.481-.866-2.334-2.256-6.623-2.486-7.362-.24-.743-.265-1.062-1.069-1.159-.79-.076-2.858-.222-3.896-.123-.168.014-.5.032-.662.539-.148.518-1.735,5.341-2.392,7.327-.685,1.984-2.654,7.721-2.9,8.497-.258.777-2.002,5.986-2.313,6.877-.27.905-.316,1.155.249,1.155.594,0,.998.039,1.571.039.566,0,.82.029,1.017-.427.23-.537,2.047-5.995,2.047-5.995h4.169c1.801,0,4.275-.021,4.275-.021,0,0,.314.557,1.052,2.89.754,2.336.964,3.596,2.058,3.596h3.829c.526,0,.695-.2.695-.617,0-.423-.422-1.386-.422-1.386,0,0-1.783-5.161-2.184-6.35M43.375,135.357c-2.056,0-3.43-.068-3.43-.068,0,0,.307-1.051,1.604-5.032,1.309-3.991,1.735-5.19,1.735-5.19,0,0,.532,1.357,1.896,5.522,1.318,4.146,1.486,4.749,1.486,4.749,0,0-1.202.021-3.293.021"/>
  <path d="M112.773,136.047c-.392-1.17-1.773-5.151-2.635-7.481-.849-2.334-2.243-6.623-2.463-7.362-.25-.743-.26-1.062-1.089-1.159-.809-.076-2.847-.222-3.895-.123-.173.014-.476.032-.658.539-.162.518-1.719,5.341-2.399,7.327-.659,1.984-2.665,7.721-2.889,8.497-.26.777-2.014,5.986-2.297,6.877-.293.905-.331,1.155.25,1.155.569,0,.978.039,1.547.039.573,0,.844.029,1.016-.427.235-.537,2.053-5.995,2.053-5.995h4.154c1.807,0,4.289-.021,4.289-.021,0,0,.321.557,1.05,2.89.747,2.336.962,3.596,2.06,3.596h3.829c.528,0,.689-.2.689-.617,0-.423-.419-1.386-.419-1.386,0,0-1.788-5.161-2.191-6.35M103.572,135.357c-2.065,0-3.431-.068-3.431-.068,0,0,.307-1.051,1.605-5.032,1.312-3.991,1.734-5.19,1.734-5.19,0,0,.542,1.357,1.884,5.522,1.337,4.146,1.505,4.749,1.505,4.749,0,0-1.223.021-3.298.021"/>
  <path d="M64.705,120.634c0-.68-1.173-.657-1.839-.657-.661,0-1.591-.014-2.487-.014-.93,0-1.183.418-1.183,1.428s.052,5.55.052,7.506.086,12.978.086,14.225.562,1.334,1.448,1.345c.891.014,2.204-.048,3.095-.048.868,0,.988-.488.988-1.61s-.061-9.296-.061-11.068-.098-10.424-.098-11.105"/>
  <path d="M89.506,119.958c-.877,0-1.758.019-2.371.019-.628,0-1.765-.022-1.765.657,0,.57-.066,6.666-.066,9.72,0,0-1.711.029-4.264.029s-3.797-.029-3.797-.029c-.038-3.054-.101-9.149-.101-9.72,0-.68-1.136-.657-1.764-.657-.609,0-1.514-.019-2.385-.019-.883,0-1.123.423-1.123,1.433s.065,5.55.065,7.506.045,12.978.045,14.219.579,1.336,1.408,1.356c.849.004,2.123-.054,2.953-.054s.946-.488.946-1.619c0-.934-.036-6.843-.046-9.767,0,0,2.626-.015,3.762-.015,1.126,0,4.265.015,4.265.015,0,2.924-.032,8.833-.032,9.767,0,1.131.096,1.619.933,1.619.825,0,2.101.058,2.952.054.84-.02,1.396-.097,1.396-1.356,0-1.24.03-12.259.03-14.219s.09-6.494.09-7.506-.26-1.433-1.132-1.433"/>
  <path d="M131.782,120.309c-.711-.05-5.379-.14-6.399-.144-.978-.029-4.846-.029-5.587-.015-.729.015-5.427.076-5.785.076-.346,0-.514.406-.514,1.264,0,.879.067,1.41.547,1.41.465,0,4.109.009,5.09.029.498.004.705,0,.838,0,.139,0,.332-.021.332.123,0,.153.09,3.581.09,4.889s-.058,4.807-.058,6.198.092,5.999.092,6.583c0,.571.01,1.975.066,2.74.033.762,0,.926.34.991.369.089,1.75.226,2.719.275.996.043,2.257.23,2.257-1.155,0-1.396-.01-6.096-.01-6.537,0-.449-.034-5.219-.034-5.636v-8.156c0-.233.073-.291.337-.291.272,0,2.956.058,4.001.058h1.679c.247,0,.54.069.577-.333.059-.406.111-1.231.13-1.638.016-.408-.018-.695-.707-.732"/>
  <path d="M137.737,125.142c0-1.408,1.02-2.601,3.428-2.601,3.676,0,4.661,1.667,5.346,1.667.202,0,.352-.186.352-.445v-1.802c0-.359-.096-.579-.754-.897-.67-.314-2.597-.928-5.199-.928-3.229,0-7.26.973-7.26,6.362,0,7.338,10.188,8.411,10.188,13.615,0,.955-.399,2.444-3.009,2.444-4.562,0-5.635-1.547-6.632-1.547-.308,0-.369.578-.369,1.079v.985c0,.316.015.706.633.896.603.197,3.658,1.035,5.966,1.035,3.432,0,7.859-1.347,7.859-6.509,0-7.322-10.548-9.182-10.548-13.356"/>
  <path d="M168.895,120.623c-.526,0-1.369-.026-1.709-.026-.345,0-.427.224-.427.693,0,.484.047,2.904.047,4.477.028,2.972.116,10.198.116,12.111,0,4.9-3.672,4.9-4.64,4.9-5.085,0-4.668-4.605-4.668-7.093,0-1.358-.004-4.406-.004-5.328,0-.939.028-5.938.028-7.854,0-1.935-.498-2.013-.996-2.013-.504-.019-1.036-.029-1.678-.029s-1.126.065-1.859.065c-.724,0-.79.353-.79.833,0,.47.081,11.711.081,15.766s2.577,8.029,10.126,8.029,7.366-5.576,7.366-7.093v-7.305c0-6.863-.082-9.373-.082-9.749s-.341-.384-.912-.384"/>
  <path d="M20.464,119.805h-8.181c-.68,0-1.093.032-1.093.792,0,.766.029,7.931.029,12.061s.1,10.083.1,10.658c0,.581.015.848,1.433.938,1.425.064,6.906.015,8.545.015,6.677,0,10.079-4.786,10.079-11.668,0-11.367-6.369-12.796-10.912-12.796M19.684,141.759c-1.386,0-3.034-.091-3.034-.091v-18.604c0-.609.513-.55.838-.55h1.922c2.971,0,6.519.072,6.519,9.408s-3.188,9.837-6.244,9.837"/>
  <path d="M11.191,108.328h158.698V14.398H11.191v93.93ZM30.437,37.199l36.205,36.093s88.89-7.821,88.89-17.172c0-5.636-39.686-10.586-59.123-12.173-17.378-1.424-36.576-1.336-36.576-1.336l26.89,26.818-19.163,1.954-34.294-34.185s22.403-1.379,63.144,2.276c40.758,3.666,63.354,9.889,63.354,16.429,0,17.388-110.349,34.394-110.349,34.394l9.863-15.361L21.474,37.626l8.963-.427Z"/>
</svg>