<?xml version="1.0" encoding="utf-8"?>
<!-- Generator: Adobe Illustrator 16.0.0, SVG Export Plug-In . SVG Version: 6.00 Build 0)  -->
<!DOCTYPE svg PUBLIC "-//W3C//DTD SVG 1.1//EN" "http://www.w3.org/Graphics/SVG/1.1/DTD/svg11.dtd">
<svg version="1.1" id="Layer_1" xmlns="http://www.w3.org/2000/svg" xmlns:xlink="http://www.w3.org/1999/xlink" x="0px" y="0px"
	 width="243.5px" height="200px" viewBox="0 0 243.5 200" enable-background="new 0 0 243.5 200" xml:space="preserve">
<g>
	<path d="M171.013,93.429l20.152-58.72h-17.06l-70.142,58.72H73.748l10.849-22.865L35.371,104.85h54.651L64.04,126.548h22.079
		l25.007-21.698h38.164l-7.541,21.698h17.82l7.374-21.698h26.935l13.751-11.421H171.013z M153.192,93.429h-28.695l41.091-35.665
		L153.192,93.429z"/>
	<path d="M48.944,149.42h0.091c4.719,5.108,9.389,10.261,14.016,15.46c-1.625,0-3.252,0-4.879-0.068
		c-0.801-0.939-1.603-1.878-2.428-2.818c-4.487,0.024-8.954,0-13.443,0.024c-0.869,0.961-1.719,1.9-2.564,2.862
		c-1.579,0-3.139,0-4.696,0C39.576,159.635,44.362,154.596,48.944,149.42 M44.797,159.269c2.84,0,5.68,0,8.543,0
		c-1.42-1.626-2.863-3.253-4.283-4.88C47.592,155.993,46.172,157.619,44.797,159.269 M71.571,149.854c1.352,0,2.704,0,4.053,0
		c0.023,4.1,0,8.178,0,12.277c5.108,0.046,10.216,0,15.324,0.021c-0.391,0.917-0.78,1.81-1.145,2.727
		c-6.094,0-12.163,0.023-18.256,0C71.571,159.863,71.571,154.871,71.571,149.854 M99.284,149.878c5.542,0,11.085,0,16.629,0
		c2.015,0.022,4.282,0.184,5.817,1.695c1.58,1.671,1.603,4.488,0.297,6.32c-1.261,1.581-3.435,1.925-5.313,1.993
		c-4.442,0.069-8.908,0-13.33,0.022c0,1.672-0.022,3.321-0.022,4.994c-1.351,0-2.702,0-4.055,0
		C99.284,159.887,99.284,154.871,99.284,149.878 M103.339,152.604c0,1.511,0,3.044,0.022,4.557c3.663,0,7.352,0,11.017,0
		c1.213-0.045,2.588,0.068,3.617-0.732c1.168-1.19,0.573-3.642-1.236-3.688C112.293,152.443,107.806,152.65,103.339,152.604
		 M133.433,149.878c1.352,0,2.68,0,4.007,0c0,5.016,0,10.009,0,15.025c-1.349,0-2.68,0-4.007,0
		C133.433,159.887,133.433,154.871,133.433,149.878 M150.153,149.878c1.718,0.068,3.593-0.389,5.128,0.596
		c5.156,2.841,10.262,5.749,15.416,8.589c0.021-3.069,0-6.115,0-9.185c1.26,0,2.541,0.022,3.825,0c0,5.131,0,10.261,0,15.414h-0.162
		c-6.824-3.824-13.648-7.627-20.499-11.406c-0.021,3.665,0,7.33,0,10.994c-1.235,0-2.473,0-3.732,0
		C150.153,159.863,150.153,154.871,150.153,149.878 M187.185,149.854c6.759-0.022,13.515-0.022,20.271,0v2.704
		c-5.427,0.021-10.832,0-16.259,0.021v3.253c5.403,0.023,10.81,0,16.214,0c0.045,0.641,0.115,1.947,0.16,2.588
		c-5.451,0.32-10.902,0.046-16.374,0.16c0,1.191,0,2.359,0,3.551c5.587,0.021,11.175-0.023,16.765,0.021v0.367
		c-0.184,0.596-0.551,1.764-0.733,2.337c-6.664,0.022-13.352,0.022-20.043,0C187.164,159.841,187.164,154.848,187.185,149.854
		L187.185,149.854z"/>
</g>
</svg>
