<?xml version="1.0" encoding="utf-8"?>
<!-- Generator: Adobe Illustrator 16.0.0, SVG Export Plug-In . SVG Version: 6.00 Build 0)  -->
<!DOCTYPE svg PUBLIC "-//W3C//DTD SVG 1.1//EN" "http://www.w3.org/Graphics/SVG/1.1/DTD/svg11.dtd">
<svg version="1.1" id="Layer_1" xmlns="http://www.w3.org/2000/svg" xmlns:xlink="http://www.w3.org/1999/xlink" x="0px" y="0px"
	 width="269.333px" height="200px" viewBox="0 0 269.333 200" enable-background="new 0 0 269.333 200" xml:space="preserve">
<g>
	<path d="M106.661,62.951c-1.862-3.297-3.873-6.505-5.762-9.783c6.165,3.08,12.421,5.992,18.536,9.176
		c-4.245,1.658-8.522,3.227-12.735,4.942c-2.369,0.961-4.898,2.791-5.109,5.553c-0.396,3.284,1.907,5.975,3.495,8.606
		c9.118,14.297,18.23,28.609,27.362,42.9c-0.021-3.81,0.364-7.651-0.04-11.437c-3.624-11.588-7.267-23.179-10.563-34.865
		c-0.635-1.445,0.928-2.459,2.034-2.971c3.587-1.735,7.096-3.65,10.753-5.232c3.604,1.332,6.902,3.394,10.423,4.951
		c1.25,0.607,3.188,1.536,2.536,3.271c-3.322,11.681-6.928,23.277-10.577,34.859c-0.448,3.778-0.014,7.619-0.065,11.424
		c9.279-14.419,18.461-28.903,27.694-43.349c1.492-2.473,3.599-4.996,3.221-8.081c-0.16-2.78-2.702-4.643-5.071-5.611
		c-4.251-1.722-8.542-3.321-12.825-4.955c6.127-3.194,12.409-6.083,18.582-9.188c-1.896,3.279-3.906,6.492-5.775,9.784
		c3.228,1.318,6.523,2.465,9.726,3.842c6.929-10.713,13.774-21.483,20.555-32.292c-19.114,6.686-38.144,13.594-57.303,20.152
		c-0.68,0.263-1.351,0.263-2.029,0c-19.19-6.526-38.234-13.493-57.379-20.152c6.819,10.771,13.65,21.547,20.555,32.273
		C100.13,65.442,103.416,64.246,106.661,62.951z"/>
	<path d="M148.135,146.378c-10.386-0.056-20.777,0.034-31.164-0.037c-0.102,6.314,0.007,12.62-0.057,18.934
		c1.959,0.072,3.917,0.096,5.877,0.046c-0.024-1.897-0.031-3.786-0.038-5.681c8.478-0.019,16.949,0.014,25.422-0.005
		c2.188,0.154,4.673-1.281,4.802-3.65c0.153-2.146,0.211-4.321-0.039-6.468C152.533,147.328,150.164,146.31,148.135,146.378z
		 M146.931,154.979c-8.041,0.141-16.084-0.008-24.126,0.072c-0.032-1.48-0.045-2.953-0.07-4.426
		c8.311,0.064,16.635-0.161,24.938,0.122C147.398,152.104,148.392,154.133,146.931,154.979z"/>
	<path d="M41.195,151.663c9.97-0.168,19.959-0.009,29.936-0.077c-0.013-1.743-0.02-3.491-0.04-5.231
		c-10.187,0.023-20.369-0.014-30.548,0.013c-2.004-0.045-4.162,1.006-4.995,2.887c-0.576,2.043-0.269,4.194-0.302,6.282
		c0.097,2.297-0.261,4.647,0.256,6.913c0.949,2.563,3.92,3.024,6.314,2.929c9.766-0.104,19.544,0.141,29.308-0.141
		c0-1.685-0.006-3.369-0.013-5.054c-9.322,0.04-18.646,0-27.969,0.026c-0.941,0.037-1.856-0.19-2.76-0.416
		c0.102-2.51-0.039-5.027,0.076-7.529C40.645,152.111,41.01,151.809,41.195,151.663z"/>
	<path d="M105.771,146.373c-0.07,4.598,0.174,9.208-0.147,13.806c-7.747,0.013-15.501,0.104-23.25-0.051
		c-0.167-4.579-0.019-9.163-0.089-13.742c-2.095-0.039-4.188-0.026-6.275-0.031c-0.059,4.77-0.045,9.545-0.025,14.323
		c-0.097,1.926,1.362,3.65,3.105,4.303c2.056,0.52,4.194,0.39,6.294,0.397c7.281-0.13,14.561,0.159,21.835-0.058
		c2.504,0.045,4.931-2.094,4.905-4.656c0.045-4.778,0.032-9.553-0.014-14.323C109.998,146.367,107.885,146.359,105.771,146.373z"/>
	<path d="M193.842,156.202c0.152-2.133,0.159-4.285,0.006-6.418c-0.551-2.323-3.145-3.47-5.348-3.425
		c-10.199-0.005-20.399,0.019-30.6-0.005c-0.045,6.306,0.013,12.614-0.019,18.92c2.01,0.136,4.032,0.128,6.051-0.05
		c-0.02-1.865-0.026-3.723-0.039-5.576c6.743-0.009,13.484-0.04,20.229,0.019c0.819,1.355,1.62,2.727,2.464,4.072
		c1.409,2.854,5.24,1.345,7.762,1.504c-1.243-1.857-2.472-3.72-3.855-5.476C191.939,158.937,193.521,157.995,193.842,156.202z
		 M188.61,154.377c-0.206,0.148-0.603,0.435-0.801,0.575c-7.959,0.186-15.932,0.019-23.896,0.077
		c-0.007-1.536-0.007-3.08,0.044-4.616c7.921,0.071,15.849-0.09,23.764,0.077C189.27,151.13,188.493,153.085,188.61,154.377z"/>
	<path d="M234.765,146.347c-10.105,0.031-20.209,0.008-30.313,0.013c-2.677-0.199-5.692,1.813-5.608,4.701
		c-0.097,4.738,0.082,9.477,0.026,14.214c1.958,0.085,3.917,0.109,5.884,0.059c-0.013-1.902-0.026-3.804-0.013-5.698
		c8.118,0.005,16.238,0,24.356,0.005c0.193,1.839-0.48,4.004,0.314,5.662c1.748,0.217,3.521,0.05,5.276-0.027
		C234.873,158.969,234.796,152.655,234.765,146.347z M229.064,155.029c-8.099,0.008-16.198-0.024-24.293,0.021
		c-0.026-1.462-0.031-2.916-0.008-4.37c8.114-0.127,16.227-0.045,24.341-0.045C229.085,152.104,229.078,153.564,229.064,155.029z"/>
</g>
</svg>
