<?xml version="1.0" encoding="utf-8"?>
<!-- Generator: Adobe Illustrator 28.2.0, SVG Export Plug-In . SVG Version: 6.00 Build 0)  -->
<svg version="1.1" id="Calque_2" xmlns="http://www.w3.org/2000/svg" xmlns:xlink="http://www.w3.org/1999/xlink" x="0px" y="0px"
	 viewBox="0 0 204 200" style="enable-background:new 0 0 204 200;" xml:space="preserve">
<style type="text/css">
	.st0{fill:none;stroke:#000000;stroke-width:2.491;stroke-miterlimit:19.2588;}
</style>
<g>
	<path d="M37.8,147.2h5.6v7.5l9.2-7.5h7.3l-7.5,6.3l7.9,11.6h-6.4l-5.9-8.3l-4.5,3.1v5.2h-5.6L37.8,147.2z M76.6,157.9v7.2h-5.9
		v-7.2l-8.2-10.8h6.3l4.8,6.5l4.6-6.5h6.5L76.6,157.9z M87.3,147.2h8.3l4.1,11.6h0l3.8-11.6h8.5v17.9h-4.9v-13.6h0l-5.1,13.6h-4.4
		l-5.1-13.6h0v13.6h-5.1V147.2z M133,153.1c-1.4-1.9-2.7-2.6-5.5-2.6c-4.3,0-6.9,2.7-6.9,5.4c0,2.7,2.6,5.2,6.9,5.1
		c2.9,0,4.4-0.9,5.6-2.4h6.2c-1,4.3-5.5,6.4-11.7,6.8c-7.7,0.5-12.8-4.2-12.8-9.5c0-5.3,5-9.5,12.8-9.5c5.5,0,10.7,2,11.4,6.6
		L133,153.1z M155.2,146.2c7.9,0,12.4,4.2,12.4,9.4c0,5.2-4.5,9.4-12.4,9.4c-7.9,0-12.4-4.2-12.4-9.4
		C142.8,150.4,147.3,146.2,155.2,146.2z M155.2,160.8c4.7,0,6.5-2.6,6.5-5.2c0-2.6-1.8-5.2-6.5-5.2c-4.7,0-6.4,2.6-6.4,5.2
		C148.7,158.2,150.5,160.8,155.2,160.8"/>
	<path d="M102.7,44.4c-38.9,0-70.4,17-70.4,37.9c0,20.9,31.5,37.9,70.4,37.9c38.9,0,70.4-17,70.4-37.9
		C173.1,61.4,141.6,44.4,102.7,44.4z M102.6,114.6c-8.6,0-16.7-0.8-24.2-2.3v-25c2.3,13.5,21.3,24,44.5,24c4.1,0,8.6-0.4,13-1.2
		C126.2,113,114.8,114.6,102.6,114.6L102.6,114.6z M133.4,105.7c-18.3,0.1-33.1-9.8-33.1-21.9S115.1,62,133.4,62
		c13.9,0,21.8,5.3,21.8,5.3s-11.8-9.7-32.3-9.7c-24,0-42.2,10.5-44.5,23.9V57.9c0,0-13.7,2.8-21.4,7.7v39.6
		c-11.8-5.8-19.1-13.9-19.1-22.9c0-17.8,29-32.3,64.7-32.3c35.7,0,64.5,14.5,64.6,32.3C167.4,96.7,150.8,105.6,133.4,105.7"/>
	<path class="st0" d="M102.7,44.4c-38.9,0-70.4,17-70.4,37.9c0,20.9,31.6,37.9,70.4,37.9c38.9,0,70.4-17,70.4-37.9
		C173.1,61.4,141.6,44.4,102.7,44.4z M102.6,114.7c-8.5,0-16.7-0.8-24.2-2.3v-25c2.3,13.5,21.3,24,44.4,24c4.1,0,8.6-0.4,13-1.2
		C126.2,113,114.8,114.7,102.6,114.7L102.6,114.7z M133.4,105.7c-18.3,0.1-33.1-9.8-33.1-21.9c0-12,14.8-21.8,33.1-21.8
		c13.9,0,21.8,5.3,21.8,5.3s-11.8-9.7-32.3-9.7c-24,0-42.2,10.5-44.4,23.9V57.9c0,0-13.7,2.8-21.4,7.7v39.6
		c-11.8-5.8-19.1-13.9-19.1-22.9c0-17.8,29-32.3,64.7-32.3s64.5,14.4,64.6,32.3C167.4,96.7,150.8,105.6,133.4,105.7L133.4,105.7z"/>
</g>
</svg>
