<?xml version="1.0" encoding="UTF-8"?>
<svg id="Layer_1" xmlns="http://www.w3.org/2000/svg" version="1.1" viewBox="0 0 186.063 83.506">
  <!-- Generator: Adobe Illustrator 29.5.1, SVG Export Plug-In . SVG Version: 2.1.0 Build 141)  -->
  <g id="CADILLAC_2DCREST">
    <g id="CADILLAC_2DCREST_POS_RGB">
      <path id="Shape" d="M46.787,41.316h-14.113l-1.09-6.453h60.561v6.453h-1.635v-4.953h-44.246l.523,4.953ZM31.334,33.363h60.789v-4.75H30.56l.773,4.75ZM69.351,49.27h22.772v-3.385h-22.748l-.024,3.385ZM29.947,27.137h14.408l-2.726-4.75h48.881v4.727h1.635v-6.361H25.494l4.453,6.385ZM116.916,20.752h-22.975v9.522h22.975v-9.522ZM35.947,57.451c.363.568,1.068,1.226,3.363,1.842,1.113.271,2.34.545,4.066.93h24.385v-3.361h-32.133c.09.227.205.408.318.59h0ZM34.56,52.315h33.201v-9.498h-34.838l1.637,9.498ZM69.351,65.631c8.5,1.684,16.816,3.229,22.793,4.16v-15.93h-22.793v11.77ZM118.482,41.316h34.906l1.59-9.521h-36.496v9.521ZM118.482,23.774v3.385l37.541-.021,2.363-3.363h-39.904ZM175.182,13.229l-11.068,15.613c-1.203,6.635-4.385,23.723-4.748,25.383-1.047,4.771-1.545,7.682-10.93,9.932-12.5,2.953-41.088,8.725-55.428,10.975-14.338-2.25-42.926-7.998-55.402-10.975-9.385-2.229-9.885-5.137-10.93-9.932-.363-1.637-3.523-18.748-4.75-25.383l-11.043-15.613h164.299ZM166.455,16.16H19.607l8.727,12.453c2.182,12.953,3.523,21.27,4.09,24.18.979,5.045,1.137,7.226,6.363,8.635,10.363,2.455,40.451,8.637,54.267,10.727,13.816-2.068,43.881-8.25,54.266-10.703,5.227-1.41,5.385-3.59,6.363-8.635.545-2.91,1.908-11.226,4.09-24.18l8.682-12.477ZM93.941,49.27h1.635v-4.795h43.449c-.045.455-.453,3.682-.682,4.818h13.727l1.09-6.453h-59.219v6.43ZM93.941,55.475h56.969l.934-4.705h-57.902v4.705ZM116.916,34.863h-22.975v3.408h22.975v-3.408ZM93.941,56.883h56.516c-.092.205-.182.41-.297.592-.385.568-1.068,1.271-3.361,1.84-10.227,2.545-38.359,8.135-52.836,10.5l-.021-12.932ZM95.576,67.881c2.613-.477,8.977-1.59,11.25-2.021,23.109-4.408,27.088-5.09,29.018-7.363h-40.268v9.385Z"/>
    </g>
  </g>
</svg>