<?xml version="1.0" encoding="UTF-8"?>
<svg id="Layer_1" xmlns="http://www.w3.org/2000/svg" version="1.1" viewBox="0 0 124.829 156.315">
  <!-- Generator: Adobe Illustrator 29.5.1, SVG Export Plug-In . SVG Version: 2.1.0 Build 141)  -->
  <path d="M11.022,130.212c.302,1.167,1.312,2.361,2.699,2.661h4.194l.214.085v10.583h2.619v-10.583l.237-.085h4.198c1.403-.362,2.393-1.494,2.688-2.661v-.025H11.022v.025Z"/>
  <path d="M36.945,143.569h9.962c1.387-.274,2.417-1.496,2.705-2.677h-15.373c.286,1.181,1.331,2.402,2.706,2.677Z"/>
  <path d="M36.945,138.142h9.962c1.387-.274,2.417-1.495,2.705-2.679h-15.373c.286,1.184,1.331,2.404,2.706,2.679Z"/>
  <path d="M36.945,132.859h9.962c1.387-.276,2.417-1.499,2.705-2.682h-15.373c.286,1.183,1.331,2.405,2.706,2.682Z"/>
  <path d="M68.87,132.834c1.388-.403,2.553-1.461,2.837-2.633h-14.622v7.9h11.968v2.772l-9.388.007c-1.472.409-2.718,1.397-3.34,2.702l.76-.014h14.54v-8.094h-11.96v-2.641h9.205Z"/>
  <path d="M81.65,130.197l-2.604.008v13.366h11.944c1.309-.554,2.011-1.512,2.28-2.633h-11.625l.005-10.741Z"/>
  <path d="M101.144,132.869h9.966c1.385-.274,2.414-1.496,2.704-2.678h-15.375c.289,1.182,1.331,2.403,2.705,2.678Z"/>
  <polygon points="98.84 143.566 101.432 143.566 101.432 138.186 110.866 138.186 110.866 143.566 113.457 143.566 113.457 135.498 98.84 135.484 98.84 143.566"/>
  <path d="M92.485,37.125s8.367-3.119,12.587-9.456c-16.468-7.631-33.015-7.976-33.015-7.976l-9.644,11.747-9.645-11.748s-16.547.345-33.014,7.975c4.218,6.336,12.587,9.455,12.587,9.455.573-5.582,4.501-6.95,16.891-6.959l13.191,73.606,13.085-73.596c12.474,0,16.407,1.369,16.976,6.951Z"/>
  <path d="M62.415,16.297h.003c13.311-.102,28.549,2.059,44.148,8.856,2.085-3.751,2.621-5.409,2.621-5.409-17.052-6.746-33.02-9.055-46.771-9.112-13.749.058-29.716,2.366-46.766,9.112,0,0,.761,2.042,2.62,5.409,15.596-6.798,30.834-8.958,44.146-8.856Z"/>
</svg>