<?xml version="1.0" encoding="UTF-8"?>
<svg id="Layer_1" xmlns="http://www.w3.org/2000/svg" version="1.1" viewBox="0 0 246.607 118.843">
  <!-- Generator: Adobe Illustrator 29.5.1, SVG Export Plug-In . SVG Version: 2.1.0 Build 141)  -->
  <path d="M52.057,11.102c1.057.023,2.262-.406,3.061-.793.56-.27.935-.479.883-.479-.723-.018-1.924-.027-2.361-.027-1.916,0-2.918,1.091-2.918,1.172-.027.056.24.097.666.104.182.023.396.023.67.023"/>
  <path d="M31.421,27.731c.377.638.725,1.527,1.185,2.07.67.816,2.029,2.184,3.953,1.856.83-.137.848-.396.848-.396.977.952,2.5.921,2.5.921-.174-.611-.856-1.788-.953-2.518-.096-.803.133-1.551.133-1.551.283-.899.811-2.03,1.404-2.601.512-.524,1.861-1.099,2.914-.368.863.606,1.865,2.572,1.031,5.376-.055.197-.984,2.204-1.975,2.496,0,0-.1.035-.283.035-.676,0-1.934-.716-1.934-.716,0,0-.031.183.137.927.109.396.283.847.393,1.212,0,0-.26.424-.393.675-.229.284-.475,1.246.055,1.651,0,0,2.234,1.51,4.379,1.619,1.49.087,2.051-.903,2.051-.903,1.088-1.499,1.922-2.768,3.066-3.821,3.15-2.883,7.57-3.645,7.57-3.645.293-.031,5.121-1.391,13.367,5.172-2.363.165-5.168.749-7.297,1.118-6.08,1.095-9.992,6.781-11.109,9.121-2.961,6.079,3.074,8.168,3.074,8.168.045-.059,5.76-.497,8.51-6.53,0,0,1.016-2.705,3.684-1.839,1.77.58,17.244,5.975,20.729,6.882,0,0,10.371,2.682,14.293-2.061,6.213,2.048,12.066,3.028,27.391,1.063,2.692-.365,4.772-.265,4.772-.265,3.588.265,6.863,2.668,7.834,4.25,4.045,6.417,9.15,19.186,26.926,17.654l8.045-.726c4.895-.292,8.871-.505,12.943,1.634,1.752.921,2.742,1.249,5.715,4.09,4.09,3.891,7.865,8.086,12.879,5.811,1.779-.82,3.775-3.985,3.775-3.985-.205-1.423-.82-2.841-2.434-4.019,4.547,1.062,14.807,1.756,18.781-5.158,1.025-1.618,1.133-3.042.738-3.917-1.096-2.408-4.105-1.633-4.105-1.633-1.422.31-3.024,1.93-5.434,2.659-5.17,1.51-9.33-.252-9.33-.252-7.975-3.465-33.629-18.06-46.678-24.468,0,0-15.135-7.009-37.123-15.678,0,0-43.211-18.353-72.053-16.865,0,0-15.369.418-20.203,7.16,0,0-.793.93-.361,1.951,0,0,.115.288-.09.474,0,0-2.568,2.312-3.91,4.392-.459.717-.896,1.934-.008,2.852,0,0,.41.351.598.625M32.858,25.432c1.541-3.484,4.441-3.981,4.828-4.05.406-.036,1.738-.237,1.738-.237,3.699-.629,5.469-4.478,5.469-4.478-2.5-.032-3.726.145-3.726.145-2.445.435-3.293,3.321-3.293,3.289-2.066.501-2.025-1.306-1.656-1.834.324-.506,1.547-2.637,9.545-4.483,0,0,3.934-1.182,12.363-.81l-.353.629c-.738,1.423-3.695,4.319-8.602,3.252,0,0,.059,2.166,5.353,2.918,0,0,4.812.862,12.92,7.361,0,0-3.881-7.694-10.477-9.682,0,0-.824-.151-.424-.689,0,0,4.074-3.749,9.312-3.914,0,0,17.756-1.715,27.608,11.812,0,0-2.965-5.738-5.223-8.236,0,0,10.303,2.904,26.174,8.405,0,0,10.809,3.794,17.709,6.521,9.357,3.657,32.713,12.728,47.645,20.847,2.641,1.432,29.608,15.423,29.608,15.423,7.451,3.353,12.629,1.342,12.629,1.342,1.678-.653,4.703-3.001,6.06-1.665.674.688.772,1.601.455,2.508-.41,1.318-2.326,3.111-4.647,4.169-2.49,1.077-7.59,1.369-10.539.886-.004,0-5.742-.584-10.736-5.797-1.596-1.642-3.543-3.512-5.336-5.368-.789-.825-2.74-2.759-5.979-3.189-3.355-.464-11.598-.684-14.672-1.697-2.082-.702-4.574-2.093-7.881-6.977-1.602-2.357-2.742-2.991-4.914-4.374,0,0,1.662,1.336,2.617,2.978,1.35,2.436,2.068,4.205,2.803,5.478.73,1.305,1.574,2.439,2.848,3.457,1.555,1.276,2.549,1.495,4.24,1.778,1.637.27,7.146.224,11.861.151,4.652-.083,6.723,1.422,8.252,2.709,1.408,1.18,3.834,4.587,5.33,6.061,1.76,1.746,3.065,3.565,6.594,5.336,1.209.611,3.203,2.107,3.105,3.57-1.586,1.556-3.537,1.989-8.23.738.309.338,2.791,2.897,6.988,1.684-1.279,1.054-2.531,1.495-3.824,1.428-4.4-.242-8.715-5.656-11.121-7.63-1.858-1.519-2.061-1.897-5.182-4.073-4.734-3.252-15.369-2.331-15.369-2.331l-7.826.411c-15.211,1.136-21.603-12.295-23.295-15.109-.566-.962-1.092-1.737-1.598-2.393-.785-1.026-4.957-6.381-9.148-8.164,0,0,4.137,3.562,3.908,5.893,0,0-1.728-.772-6.391-.114-20.012,2.827-26.824-2.156-26.824-2.156.912-4.037-1.889-8.119-1.889-8.119,1.551.476,11.398,3.814,20.766,1.906,0,0-15.228.101-25.9-8.378,0,0,6.627,8.287,5.059,13.715,0,0-1.096,5.774-12.684,3.456-1.227-.246-2.682-.656-20.008-5.459-4.076-1.203-5.48.739-6.221,1.898-.041,1.691-2.06,3.697-3.078,4.322-5.355-.962-3.221-5.915-3.221-5.915-3.369,4.799.129,6.938,1.256,7.069-.648.355-1.273.564-1.816.762,0,0-4.404-2.595-1.938-6.854,3.42-5.956,6.908-7.868,13.279-8.433,2.787-.274,5.1-.461,6.873-.225,4.629.621,7.549,3.233,14.453,3.923-14.686-4.337-14.721-12.811-14.768-12.971,0-.022-.014-.022-.014-.022-.81,2.79-.369,5.13.361,7.15-.215-.087-3.434-2.17-4.67-2.932-5.274-3.211-9.455-3.759-9.455-3.759-1.732-.236-2.568-2.334-2.568-2.334-.027-.114-.121-.219-.162-.315-2.432-4.177-4.873-4.219-4.873-4.219,1.389,1.811,1.416,4.443,1.416,4.443.715,5.144-5.146,6.735-5.146,6.735-3.578,4.528-3.406,4.629-4.182,4.752-.803.114-2.562-.779-2.562-.779-.283-.421.127-.858.127-.858.68-.537,1.219-1.058,1.219-1.058,3.789-3.871,4.25-5.751,3.771-8.245-.943-5.035-4.56-4.434-4.56-4.434-1.701.083-2.463,1.582-2.463,1.582-.588.932-1.865,3.782-1.865,3.782-.779,1.691-1.596,2.06-2.002,2.129-.182.042-.492.023-.621.023-1.226-.047-2.129-1.149-2.129-1.149-.064-.056-.127-.114-.156-.168-1.111-1.182-.326-2.751-.326-2.751M38.686,20.06s.147-.476.182-.588c.076-.093.502-1.311,1.596-1.425,0,0,.629-.045,1.615-.045,0,0-.484,1.528-2.377,1.866,0,0-.725.191-1.016.191"/>
  <path d="M35.1,105.429c1.373-1.396,2.043-3.151,2.043-6.001v-8.939h-6.844v8.374c0,2.427-.543,4.086-1.742,5.262-1.58,1.557-4.197,2.198-8.068,2.198H7.839v2.45h13.74c6.516,0,11.105-.876,13.521-3.344"/>
  <path d="M187.307,104.886l3.369,3.887h7.672l-15.939-18.284h-6.727l-15.935,18.284h3.963l3.365-3.887h20.232ZM177.167,93.157l8.098,9.35h-16.164l8.066-9.35Z"/>
  <path d="M71.18,108.773h7.67l-15.943-18.284h-6.736l-15.916,18.284h3.963l3.334-3.873h20.281l3.348,3.873ZM49.612,102.529l8.064-9.372,8.09,9.372h-16.154Z"/>
  <path d="M234.464,100.942c1.732-.931,2.545-2.699,2.545-4.537,0-2.445-1.094-4-3.074-4.866-1.787-.785-3.984-1.05-8.346-1.05h-21.166v18.284h6.815v-6.335h8.961l10.248,6.335h8.322l-10.726-6.472c2.537-.055,4.707-.461,6.422-1.359M211.237,100.139v-7.356h13.457c2.559,0,3.686.223,4.48.82.742.565.994,1.395.994,2.724v.351c0,1.167-.266,2.139-1.16,2.75-.857.583-2.047.711-4.232.711h-13.539Z"/>
  <path d="M122.921,90.489v9.122c0,2.354.248,4.218,1.435,5.755,1.961,2.555,5.52,4.009,15.393,4.009h.123c9.916,0,13.48-1.454,15.406-4.009,1.203-1.537,1.469-3.401,1.469-5.778v-9.099h-6.834v8.857c0,2.294-.305,3.758-1.189,4.989-1.463,2.08-3.803,2.828-8.609,2.828h-.588c-4.57,0-7.119-.748-8.617-2.828-.869-1.231-1.166-2.622-1.166-4.989v-8.857h-6.822Z"/>
  <path d="M97.626,92.911h17.049v-2.422h-19.191c-4.643,0-7.424.533-9.9,1.916-2.336,1.295-4.174,3.712-4.174,7.183,0,3.699,1.678,6.408,5.371,7.867,2.201.885,5.129,1.318,8.826,1.318h19.783v-8.397h-6.816v5.956h-10.881c-3.545,0-5.598-.511-7.111-1.665-1.451-1.094-2.203-2.772-2.203-5.048,0-2.18.725-3.804,2.053-4.908,1.541-1.226,3.529-1.801,7.195-1.801"/>
</svg>