<?xml version="1.0" encoding="utf-8"?>
<!-- Generator: Adobe Illustrator 28.2.0, SVG Export Plug-In . SVG Version: 6.00 Build 0)  -->
<svg version="1.1" id="Calque_2_00000140715303107068775460000017821869331920564396_"
	 xmlns="http://www.w3.org/2000/svg" xmlns:xlink="http://www.w3.org/1999/xlink" x="0px" y="0px" viewBox="0 0 300 145.7"
	 style="enable-background:new 0 0 300 145.7;" xml:space="preserve">
<style type="text/css">
	.st0{clip-path:url(#SVGID_00000026140933880679434800000000098210810725651858_);}
	.st1{fill-rule:evenodd;clip-rule:evenodd;}
	.st2{fill-rule:evenodd;clip-rule:evenodd;stroke:#000000;stroke-width:2.5487;stroke-miterlimit:8;}
	.st3{fill-rule:evenodd;clip-rule:evenodd;stroke:#000000;stroke-width:0.8007;stroke-miterlimit:8;}
</style>
<g>
	<g>
		<defs>
			<rect id="SVGID_1_" x="-61.2" y="-69.2" width="362.8" height="220.2"/>
		</defs>
		<clipPath id="SVGID_00000023978451271061719140000005449979593021550525_">
			<use xlink:href="#SVGID_1_"  style="overflow:visible;"/>
		</clipPath>
		<g transform="translate(-96 -125)" style="clip-path:url(#SVGID_00000023978451271061719140000005449979593021550525_);">
			<path class="st1" d="M181.9,866.4h9v169.9h23.6v38.1h-32.6v-38.1l0,0V866.4z M220.8,866.4h10l22.5,133.1l0,0v75.6h-9v-64.6
				L220.8,866.4z M366.5,865.8h10.2l-19.5,94.3l19.5,119.5h-9.3l-15.4-94.9l-5.3,25.8v67.8h-9v-74.9l0,0L366.5,865.8z M276.2,863.2
				l32,127.2V867h9v164.1l0,0v44.6l-32-127.2v127.2h-9V912.9V863.2z"/>
			<path class="st1" d="M462,867c5.2,0,10,6.5,14,18.1l0.9,3.2l-5.3,23.9l0,0c-2.7-7.8-6.1-12.3-9.6-12.3
				c-9.6,0-17.4,32.9-17.4,73.6c0,40.7,7.8,73.6,17.4,73.6c4.7,0,9.1-8.4,12.2-21.3l1.1-5.8l5.9,20.7l-1.7,8.4
				c-4.6,19.4-10.8,31-17.7,31c-13.9,0-25-47.8-25-106.6C437,914.2,448.3,867,462,867z M517.8,867c13.9,0,25,47.8,25,106.6
				c0,58.8-11.1,106.6-25,106.6c-12,0-22.1-36.2-24.5-84.6l-0.3-8.4h7.8v1.9c1.7,33.6,8.5,58.8,16.9,58.8c9.6,0,17.4-32.9,17.4-73.6
				c0-40.7-7.8-73.6-17.4-73.6c-3.7,0-6.9,4.5-9.6,12.3l-0.9,3.2l-6.2-20l2.9-9.7C507.8,873.5,512.7,867,517.8,867z"/>
			<path class="st2" d="M403.2,925.8c4.6,0,8.2,15.5,8.2,34.9c0,7.1-0.5,13.6-1.4,19.4l-4.7,19.4l6.2,29.7c0.6-1.9,1.1-3.9,1.7-5.8
				h5.9c-1.7,5.8-3.3,11.6-5,18.1l7.2,34.2h-4.9l-5.2-24.5l-5.3,18.7c-1.4,3.9-2.9,5.8-4.6,5.8c-4.6,0-8.2-15.5-8.2-34.9
				c0-7.1,0.5-14.2,1.4-19.4l0.6-3.2l5-20l-3.7-18.1c-0.9-5.8-1.4-12.3-1.4-19.4C395,941.3,398.6,925.8,403.2,925.8z M403.2,940.7
				c-2.6,0-4.6,8.4-4.6,19.4c0,2.6,0.2,5.2,0.3,7.8c1.2,7.8,2.7,14.2,4.3,22c1.4-7.1,3.5-14.9,4.3-22c0.3-2.6,0.3-5.2,0.3-7.8
				C407.8,949.7,405.6,940.7,403.2,940.7z M402.3,1012.4l-3,11c-0.8,3.2-1.7,5.2-2.1,9.7c-0.3,2.6-0.3,5.2-0.3,7.8
				c0,11,2.1,19.4,4.6,19.4l1.7-1.3c1.7-5.8,3.3-12.3,5-18.1L402.3,1012.4z"/>
		</g>
	</g>
</g>
<g transform="translate(-96 -125)">
	<path class="st1" d="M129.2,181.9h5.8v25.9h15.3v5.9h-21.1v-5.9l0,0V181.9z M154.5,181.9h6.5l14.6,20.3l0,0v11.5h-5.8v-9.8
		L154.5,181.9z M248.7,181.8h6.6l-12.7,14.4l12.7,18.2h-6.1l-9.9-14.5l-3.5,4v10.4H230v-11.4l0,0L248.7,181.8z M190.3,181.3
		l20.7,19.4v-18.8h5.8v25l0,0v6.8l-20.7-19.4v19.4h-5.8v-24.8V181.3z"/>
	<path class="st1" d="M310.5,181.9c3.3,0,6.5,1,9,2.8l0.6,0.5l-3.4,3.6l0,0c-1.8-1.2-3.9-1.9-6.3-1.9c-6.2,0-11.2,5-11.2,11.2
		c0,6.2,5,11.2,11.2,11.2c3.1,0,5.9-1.3,7.9-3.3l0.7-0.9l3.9,3.1l-1.1,1.3c-2.9,2.9-7,4.7-11.4,4.7c-8.9,0-16.2-7.3-16.2-16.2
		S301.6,181.9,310.5,181.9z M346.6,181.9c8.9,0,16.2,7.3,16.2,16.2s-7.2,16.2-16.2,16.2c-7.8,0-14.3-5.6-15.8-12.9l-0.2-1.3h5.1
		l0,0.3c1,5.1,5.6,9,11,9c6.2,0,11.2-5,11.2-11.2c0-6.2-5-11.2-11.2-11.2c-2.3,0-4.5,0.7-6.3,1.9l-0.6,0.5l-4.1-3.1l1.8-1.5
		C340.2,183,343.3,181.9,346.6,181.9z"/>
	<path class="st3" d="M272.4,190.9c2.9,0,5.3,2.4,5.3,5.3c0,1.1-0.3,2.1-0.9,2.9l-3,2.9l4.1,4.6c0.4-0.3,0.7-0.6,1.1-0.9h3.9
		c-1.1,0.9-2.2,1.8-3.3,2.7l4.7,5.2H281l-3.3-3.7l-3.5,2.9c-0.9,0.6-1.9,0.9-3,0.9c-3,0-5.3-2.4-5.3-5.3c0-1.1,0.3-2.1,0.9-3
		l0.4-0.5l3.2-3.1l-2.3-2.7c-0.6-0.8-0.9-1.9-0.9-2.9C267.2,193.3,269.5,190.9,272.4,190.9z M272.4,193.2c-1.6,0-3,1.3-3,3
		c0,0.4,0.1,0.8,0.2,1.2c0.8,1.2,1.8,2.2,2.7,3.3c0.9-1.1,2.3-2.3,2.7-3.3c0.2-0.4,0.2-0.7,0.2-1.2
		C275.4,194.6,274.1,193.2,272.4,193.2z M271.9,204.1l-2,1.7c-0.5,0.5-1,0.8-1.4,1.5c-0.2,0.4-0.2,0.8-0.2,1.2c0,1.7,1.3,3,3,3
		l1.1-0.2c1.1-0.9,2.2-1.9,3.3-2.8L271.9,204.1z"/>
</g>
</svg>
