<?xml version="1.0" encoding="utf-8"?>
<!-- Generator: Adobe Illustrator 16.0.0, SVG Export Plug-In . SVG Version: 6.00 Build 0)  -->
<!DOCTYPE svg PUBLIC "-//W3C//DTD SVG 1.1//EN" "http://www.w3.org/Graphics/SVG/1.1/DTD/svg11.dtd">
<svg version="1.1" id="Layer_1" xmlns="http://www.w3.org/2000/svg" xmlns:xlink="http://www.w3.org/1999/xlink" x="0px" y="0px"
	 width="292.5px" height="200px" viewBox="0 0 292.5 200" enable-background="new 0 0 292.5 200" xml:space="preserve">
<g>
	<path d="M67.923,64.209c-4.213,6.414-5.602,13.318-3.268,20.795c1.883,5.997,5.721,10.681,10.398,14.707
		c6.242,5.422,13.441,9.212,21.061,12.2c14.853,5.822,30.339,8.297,46.157,8.836c7.701,0.257,15.405-0.018,23.051-0.85
		c7.938-0.873,15.763-2.254,23.435-4.398c9.98-2.788,19.526-6.576,28.125-12.451c5.309-3.639,10.021-7.861,13.333-13.46
		c3.267-5.443,4.544-11.285,3.174-17.584c-1.109-5.189-3.822-9.486-7.358-13.332c-5.37-5.776-11.912-9.875-18.987-13.22
		c-8.438-4.026-17.307-6.633-26.444-8.439c-6.36-1.266-12.786-2.137-19.285-2.541c-1.484-0.081-2.932-0.247-4.396-0.372h-14.19
		c-0.226,0.054-0.476,0.149-0.708,0.167c-2.435,0.153-4.832,0.251-7.243,0.481c-7.643,0.698-15.215,1.896-22.625,3.782
		C101.9,41.1,92.039,44.679,83.028,50.229C77.108,53.918,71.794,58.295,67.923,64.209 M166.739,94.091
		c-1.148,7.011-4.528,12.82-9.835,17.519c-1.974,1.734-4.409,2.411-6.932,2.61c-1.793,0.145-3.604,0.201-4.684,0.25
		c-6.554-0.105-12.328-0.722-18.122-1.512c-5.984-0.81-11.938-1.841-17.757-3.472c-2.01-0.563-3.987-1.218-5.89-1.928
		c-1.595-0.647-1.641-1.612-0.326-2.666c12.573-10.022,26.846-16.423,42.425-20.002c4.056-0.947,8.153-1.695,12.362-1.385
		c3.15,0.211,6.018,1.126,7.75,4.085C166.954,89.605,167.121,91.874,166.739,94.091 M206.321,61.397
		c0.68-1.323,1.354-2.681,2.059-4.014c0.893-1.707,1.813-2.11,3.511-1.239c8.088,3.981,13.074,10.322,14.531,19.331
		c0.102,0.621,0,1.323,0,1.964c0.067,4.608-1.624,8.539-4.364,12.099c-3.679,4.835-8.493,8.305-13.764,11.224
		c-8.982,4.98-18.604,8.243-28.746,9.988c-0.418,0.058-1.243-0.07-1.296-0.261c-0.167-0.485-0.109-1.194,0.165-1.588
		c1.282-1.849,2.683-3.655,4.072-5.483c4.936-6.522,9.128-13.527,13.013-20.706C199.286,75.702,202.73,68.534,206.321,61.397
		 M138.555,45.118c3.111-3.267,6.973-4.659,11.431-4.799c11.224-0.39,22.266,1.013,33.137,3.717c2.94,0.712,5.869,1.646,8.771,2.564
		c0.919,0.313,1.79,0.771,2.604,1.287c1.006,0.696,1.066,1.604,0.244,2.505c-0.538,0.585-1.18,1.122-1.894,1.532
		c-11.396,7.053-23.442,12.906-36.175,17.174c-4.843,1.566-9.75,2.813-14.864,3.072c-2.197,0.111-4.368-0.144-6.434-1.04
		c-3.297-1.505-4.315-4.238-4.247-8.345C131.678,56.63,133.647,50.279,138.555,45.118 M113.995,44.625
		c1.693-0.436,3.543-0.468,5.335-0.491c1.516,0,1.853,0.729,0.949,1.943c-2.48,3.287-5.05,6.446-7.481,9.749
		c-8.768,11.918-16.362,24.442-21.396,38.396c-0.45,1.293-1.084,2.521-1.819,3.635c-0.985,1.6-2.109,1.879-3.881,1.298
		c-2.131-0.794-3.84-2.165-5.457-3.685c-3.587-3.471-6.797-7.234-8.45-12.031c-0.646-1.879-0.886-3.894-1.343-5.842
		c0.102-0.046,0.182-0.069,0.249-0.077c0.057-4.885,2.141-8.985,5.229-12.65c3.515-4.238,7.95-7.421,12.688-10.153
		C96.566,50.084,105.146,47.046,113.995,44.625"/>
	<path d="M204.075,133.427c-0.596-0.089-1.242-0.125-1.878-0.125h-23.656c-0.332,0-0.682,0.05-1.098,0.067v1.218v30.111
		c0,0.386-0.049,0.812-0.058,1.201h26.884c0.341-0.129,0.701-0.248,1.039-0.39c2.05-0.687,3.238-2.155,3.61-4.222
		c0.19-0.813,0.229-1.626,0.229-2.426c0.022-3.981,0-7.908,0-11.856c0-2.352,0.067-4.688-0.038-7.009
		C208.988,135.948,207.48,134.082,204.075,133.427 M199.564,155.017c-0.106,2.355-0.75,2.963-3.055,2.99h-9.417v-16.926
		c3.387,0,6.732-0.035,10.07,0.024c1.424,0.033,1.98,0.72,2.232,2.129c0.11,0.449,0.169,0.919,0.169,1.378
		c0.017,3.31,0,6.636,0,9.959C199.564,154.742,199.581,154.867,199.564,155.017"/>
	<path d="M244.785,134.393v-1.133c-0.436-0.02-0.709-0.062-0.982-0.062c-7.502,0.042-15.019,0.062-22.532,0.104
		c-0.323,0-0.625,0.05-0.929,0.067c-3.939,0.237-6.721,2.888-6.734,6.803c-0.099,8.596-0.043,17.166-0.043,25.728h9.262v-7.125
		h12.496v7.125h9.477c-0.014-0.366-0.032-0.752-0.032-1.124C244.767,154.652,244.785,144.508,244.785,134.393 M235.309,150.518
		h-12.482c0-2.369-0.062-4.725,0.045-7.085c0.014-1.229,0.88-2.085,2.118-2.146c2.452-0.167,4.967-0.119,7.437-0.167
		c0.939-0.014,1.904,0,2.883,0V150.518z"/>
	<path d="M136.099,133.198c-2.574,0-5.183,0.042-7.747-0.027c-0.899-0.011-1.119,0.298-1.105,1.138
		c0.034,7.081,0.034,14.212,0,21.311c0,1.845-0.554,2.346-2.352,2.37h-9.004h-1.037v-24.707h-9.65v1.305
		c0,6.277-0.021,12.545,0,18.826c0,4.176,0,8.324,0.021,12.486h27.1c0.095-0.014,0.167-0.139,0.29-0.163
		c2.652-0.453,3.965-2.141,4.329-4.667c0.134-0.776,0.207-1.584,0.207-2.374c0.037-8.094,0.037-16.237,0.047-24.303v-1.133
		C136.787,133.24,136.426,133.198,136.099,133.198"/>
	<path d="M173.176,146.541c0-2.551-0.039-5.088-0.199-7.57c-0.198-2.696-1.645-4.545-4.017-5.178
		c-1.276-0.311-2.594-0.553-3.88-0.553c-7.665-0.08-15.35-0.069-23.01-0.069c-0.263,0-0.479,0.027-0.831,0.056v1.082v8.225
		c0,7.8,0,15.567-0.027,23.366h9.657c0-8.151,0-16.272-0.037-24.437c0-0.073,0.047-0.146,0.082-0.296
		c0.177-0.048,0.341-0.086,0.518-0.086c3.202-0.012,6.448-0.025,9.654-0.012c1.503,0,2.159,0.645,2.159,2.165
		c0.016,7.397,0,14.811,0,22.212c0,0.163-0.035,0.324-0.082,0.453h10.067c-0.048-0.163-0.094-0.366-0.094-0.529
		C173.176,159.062,173.183,152.786,173.176,146.541"/>
	<path d="M56.997,133.198c-0.642,0-0.549,0.462-0.549,0.884v8.929v1.845H44.016v-11.657h-1.198
		c-2.686-0.027-5.349-0.038-8.049-0.069v32.771h9.286v-12.821h12.503v12.821h9.665c0.019-0.063,0.019-0.163,0.019-0.248v-31.663
		c0-0.219-0.062-0.47-0.097-0.762C63.045,133.198,60.025,133.227,56.997,133.198"/>
	<path d="M94.749,133.24c-0.297,0-0.711,0.338-0.906,0.633c-2.416,3.316-4.748,6.69-7.149,10.006
		c-0.147,0.274-0.372,0.507-0.626,0.837c-0.249-0.361-0.397-0.585-0.549-0.837c-2.152-3.279-4.33-6.582-6.482-9.891
		c-0.298-0.441-0.583-0.706-1.195-0.706c-2.963,0-5.92-0.042-8.896-0.084h-1.203c0.343,0.508,0.506,0.79,0.697,1.064
		c3.503,5.263,6.912,10.597,10.573,15.777c1.535,2.169,2.262,4.322,2.081,7c-0.213,2.946-0.081,5.915-0.106,8.859h9.667
		c0-3.981,0-7.998,0.043-12.003c0-0.483,0.181-1.064,0.449-1.486c4.201-6.082,8.425-12.187,12.639-18.265
		c0.171-0.241,0.317-0.499,0.494-0.794c-0.165-0.069-0.249-0.125-0.348-0.125C100.895,133.227,97.81,133.171,94.749,133.24"/>
	<path d="M249.209,134.426c0.046,10.082,0.031,20.19,0.031,30.272c0,0.386-0.084,0.812-0.084,1.201h9.075v-32.548
		c-2.594-0.069-5.226-0.05-7.839-0.181C249.41,133.129,249.209,133.497,249.209,134.426"/>
</g>
</svg>
