<?xml version="1.0" encoding="UTF-8"?>
<svg id="Layer_1" xmlns="http://www.w3.org/2000/svg" version="1.1" viewBox="0 0 158 158">
  <!-- Generator: Adobe Illustrator 29.5.1, SVG Export Plug-In . SVG Version: 2.1.0 Build 141)  -->
  <path d="M91.486,31.899c-3.993-1.053-8.205-1.606-12.451-1.606-4.219,0-8.306.553-12.187,1.553l12.346,34.074,12.292-34.021Z"/>
  <path d="M127.703,79.033c0-6.075-1.043-11.883-3.079-17.258l-23.159,60.442c15.533-8.143,26.238-24.44,26.238-43.184"/>
  <path d="M103.532,36.907l-14.282,39.295h-20.103l-14.338-39.463c-5.297,3.037-9.919,7.038-13.756,11.77l20.355,52.78,7.456-19.279h19.553l7.452,19.279,20.552-53.414c-3.62-4.374-8.002-8.099-12.889-10.968"/>
  <path d="M79.035,13.998C43.255,13.998,13.999,43.187,13.999,79.033s29.256,64.968,65.036,64.968,64.964-29.228,64.964-64.968S114.85,13.998,79.035,13.998M79.035,135.688c-31.213,0-56.73-25.454-56.73-56.659s25.518-56.764,56.73-56.764,56.72,25.497,56.72,56.764-25.51,56.659-56.72,56.659"/>
  <path d="M78.606,92.346l-12.562,32.596-.06,1.006c4.156,1.167,8.529,1.758,13.052,1.758,4.246,0,8.366-.538,12.286-1.544l-.145-1.22-12.569-32.596Z"/>
  <path d="M30.314,79.033c0,18.315,10.222,34.402,25.338,42.654l-22.573-58.84c-1.806,5.055-2.765,10.482-2.765,16.186"/>
</svg>