<?xml version="1.0" encoding="utf-8"?>
<!-- Generator: Adobe Illustrator 16.0.0, SVG Export Plug-In . SVG Version: 6.00 Build 0)  -->
<!DOCTYPE svg PUBLIC "-//W3C//DTD SVG 1.1//EN" "http://www.w3.org/Graphics/SVG/1.1/DTD/svg11.dtd">
<svg version="1.1" id="Layer_1" xmlns="http://www.w3.org/2000/svg" xmlns:xlink="http://www.w3.org/1999/xlink" x="0px" y="0px"
	 width="200px" height="200px" viewBox="0 0 200 200" enable-background="new 0 0 200 200" xml:space="preserve">
<path d="M102.309,35.71C66.436,35.7,37.332,64.485,37.332,99.99c0,35.501,29.08,64.286,64.977,64.3
	c35.908,0,65.023-28.779,65.023-64.3C167.332,64.499,138.229,35.71,102.309,35.71 M102.309,161.85
	c-24.417,0-43.571-12.702-52.697-30.148l1.395-0.519c2.366,3.874,5.472,7.267,9.633,11.862c5.132,5.645,21.349,16.522,41.646,16.522
	c21.612,0.01,40.603-11.201,51.255-28.323c0.821-0.236,1.091-0.589,0.809-1.311c4.875-8.596,8.193-19.387,8.193-29.944
	c0-6.649-0.976-12.05-2.521-16.879c-1.155-3.644-2.772-7.263-3.487-8.7c-0.207-0.336-0.22-0.52-0.228-0.835
	c0.252,0.218,0.385,0.358,0.582,0.711c0.941,1.73,3.049,5.942,4.038,8.681c1.339,3.686,3.737,8.746,3.737,17.022
	C164.663,133.829,136.967,161.864,102.309,161.85 M50.193,130.264l45.527-32.743l-3.893-2.214l-40.555,33.724
	c-4.56-8.262-7.729-18.857-7.729-28.937c0-31.934,25.416-57.778,57.613-57.98l-8.304,51.641l3.874,2.25l5.217-53.891
	c0.095-0.679,0.549-0.679,0.549,0l0.316,56.82l9.243-5.423l-8.845-51.407c31.637,0.849,57.861,26.359,57.861,57.887
	c0,10.165-3.09,20.779-7.749,29.102l-40.518-33.756l-3.902,2.224l43.561,31.587c1.051,0.741,0.721,1.085-0.4,0.463l-48.913-28.215
	v10.575l49.035,18.733c-10.27,16.759-28.822,27.475-50.04,27.475c-21.257,0-39.504-10.702-49.789-27.494l49.13-18.743v-10.569
	L50.62,130.746C49.396,131.411,49.081,131.051,50.193,130.264 M49.018,130.839c-2.159-4.467-4.425-10.749-5.368-15.711
	c-0.009-0.294-0.056-0.528,0.033-0.783c0.164,0.198,0.236,0.414,0.362,0.759c1.477,4.566,2.758,8.663,6.122,14.822L49.018,130.839z
	 M164.564,89.099c-0.145-0.178-0.238-0.433-0.354-0.745c-4.75-14.646-8.795-20.396-16.604-28.955
	c-10.272-11.281-27.051-19.991-44.902-20.013c-34.114,0-61.79,27.695-61.79,61.801c0,10.157,2.214,18.903,3.979,23.314
	c2.098,5.094,5.693,11.976,5.867,12.281c0.165,0.359,0.187,0.504,0.197,0.82c-0.255-0.194-0.362-0.357-0.579-0.679
	c-1.041-1.502-5.274-9.143-6.602-12.474c-2.863-7.267-4.991-15.179-4.991-23.488c0-35.167,28.465-63.697,63.655-63.697
	c31.424,0,56.773,21.835,62.123,51.068C164.582,88.609,164.663,88.846,164.564,89.099"/>
</svg>
