<?xml version="1.0" encoding="UTF-8"?>
<svg id="Layer_1" xmlns="http://www.w3.org/2000/svg" version="1.1" viewBox="0 0 193.343 146.607">
  <!-- Generator: Adobe Illustrator 29.5.1, SVG Export Plug-In . SVG Version: 2.1.0 Build 141)  -->
  <path d="M145.934,66.732l20.152-58.72h-17.06l-70.142,58.72h-30.216l10.849-22.865L10.292,78.153h54.651l-25.982,21.698h22.079l25.007-21.698h38.164l-7.541,21.698h17.82l7.374-21.698h26.934l13.751-11.421h-36.616ZM128.114,66.732h-28.695l41.091-35.665-12.396,35.665Z"/>
  <path d="M23.866,122.723h.091c4.719,5.108,9.389,10.261,14.016,15.46-1.625,0-3.252,0-4.879-.068-.801-.939-1.603-1.878-2.428-2.818-4.487.024-8.954,0-13.443.024-.869.961-1.719,1.9-2.565,2.862h-4.696c4.536-5.245,9.322-10.284,13.904-15.46M19.718,132.572h8.543c-1.42-1.626-2.863-3.253-4.283-4.88-1.465,1.605-2.885,3.23-4.26,4.88M46.493,123.158h4.053c.023,4.1,0,8.178,0,12.277,5.108.046,10.216,0,15.324.022-.391.917-.78,1.81-1.145,2.727-6.094,0-12.163.023-18.256,0,.023-5.017.023-10.009.023-15.025M74.206,123.181h16.629c2.015.023,4.282.184,5.817,1.695,1.58,1.671,1.603,4.488.297,6.32-1.261,1.581-3.434,1.925-5.313,1.993-4.442.069-8.908,0-13.33.023,0,1.672-.022,3.321-.022,4.994h-4.055c-.022-5.017-.022-10.032-.022-15.025M78.26,125.908c0,1.511,0,3.044.022,4.557h11.017c1.213-.045,2.588.068,3.617-.732,1.168-1.19.573-3.642-1.236-3.688-4.466-.298-8.953-.091-13.42-.137M108.354,123.181h4.007v15.025h-4.007v-15.025M125.075,123.181c1.718.068,3.593-.389,5.128.596,5.156,2.841,10.262,5.749,15.416,8.589.022-3.069,0-6.115,0-9.185,1.26,0,2.541.023,3.825,0v15.414h-.162c-6.824-3.824-13.648-7.627-20.499-11.406-.021,3.665,0,7.33,0,10.994h-3.732c.024-5.017.024-10.009.024-15.002M162.106,123.158c6.759-.022,13.515-.022,20.27,0v2.704c-5.427.021-10.832,0-16.259.021v3.253c5.403.023,10.81,0,16.214,0,.045.641.115,1.947.16,2.588-5.451.32-10.902.046-16.374.16v3.551c5.587.022,11.175-.023,16.765.022v.367c-.184.596-.551,1.764-.733,2.337-6.664.022-13.352.022-20.043,0-.021-5.017-.021-10.01,0-15.003h0Z"/>
</svg>