<?xml version="1.0" encoding="UTF-8"?>
<svg id="Layer_1" xmlns="http://www.w3.org/2000/svg" version="1.1" viewBox="0 0 140.211 154.697">
  <!-- Generator: Adobe Illustrator 29.5.1, SVG Export Plug-In . SVG Version: 2.1.0 Build 141)  -->
  <path d="M129.807,36.357c-2.223-1.939-7.797-6.665-9.734-17.65l-15.551-6.099s-.282-.121-.282,0,0,.121-.12.121c-4.161,4.322-18.742,1.13-33.768,1.13h-.686c-15.024,0-29.606,3.192-33.767-1.13-.119-.121,0-.121-.119-.121h-.284l-15.43,6.099c-1.937,10.985-7.351,15.712-9.733,17.65,3.756,2.787,7.635,6.825,7.635,12.521,0,5.01-5.293,20.438-5.293,33.361,0,35.141,27.789,48.631,44.873,52.953,4.322,1.13,9.573,5.29,12.24,7.633.12.122.402.122.686,0,2.625-2.343,7.917-6.543,12.238-7.633,17.084-4.322,44.873-17.65,44.873-52.79,0-12.926-5.411-28.476-5.411-33.362-.04-5.896,3.878-9.895,7.634-12.683M22.652,22.18c.12-.566.12-1.131.12-1.535l12.521-4.603s.121,2.504,13.329,1.938c.565,0,2.907-.121,3.594-.121,5.413-.404,10.987-.687,16.682-.687h2.343c5.695,0,11.27.405,16.682.687.686,0,3.07.121,3.595.121,13.207.566,13.329-1.938,13.329-1.938l12.521,4.603c0,.566,0,1.131.12,1.535,1.252,5.291,3.757,10.299,7.514,14.177H15.139c3.756-3.919,6.262-8.886,7.514-14.177M124.353,82.362c0,35.422-29.728,46.689-42.529,49.881-4.322,1.131-9.17,4.605-11.795,6.826-2.787-2.221-7.514-5.695-11.794-6.826-12.804-3.191-42.531-14.459-42.531-49.881,0-7.635,1.938-16.277,3.474-23.225.969-3.353,1.535-6.826,1.818-10.138,0-3.474-1.132-6.826-3.354-9.573h104.65c-2.101,2.788-3.191,6.1-3.352,9.573.283,3.474.849,6.825,1.816,10.138,1.657,6.947,3.596,15.551,3.596,23.225"/>
  <path d="M111.59,23.553v3.594c-3.069-.281-4.605-.402-7.796-.685v-3.877c-6.099-.688-12.802-1.252-19.306-1.818v1.938c-.404-1.252-1.373-1.938-3.353-2.099-3.756-.123-7.35-.283-11.105-.283v11.592l-5.979-11.552c-1.939,0-2.908,0-4.726.12-1.817,3.474-3.474,6.947-5.292,10.422,0-.404.122-.688.122-1.132,0-1.939-.565-2.787-2.222-2.907h0c.97-.283,1.818-.849,1.818-2.909,0-2.504-1.374-3.19-4.443-3.069-3.474.284-7.068.565-10.542.969v10.542c-1.938-3.472-4.039-6.825-6.099-9.855-1.938.283-2.908.404-4.726.686-2.101,3.353-4.16,6.665-6.542,9.735h4.158c.404-.688.688-.971,1.132-1.657l7.513-.12,1.131,1.938h15.268c.969.121,1.938-.121,2.787-.688-.122.283-.283.405-.405.688h4.161c.402-.848.688-1.373,1.13-2.221h7.514l1.13,2.221h7.068v-3.352h5.816c1.132,0,1.535.405,1.535,1.818v1.534h3.594v-2.1c0-2.1-.848-2.505-1.938-2.787h0c1.656-.404,2.1-1.373,2.1-3.07v-1.413l5.01.282v9.047h3.593v-8.764c2.626.121,4.04.283,6.827.566v8.197h3.596v-4.038c3.069.122,4.604.282,7.795.404v3.474h3.594v-8.887c-1.373-.282-2.221-.566-3.594-.686M27.942,29.249c.97-1.535,1.372-2.342,2.343-3.879.969,1.375,1.373,2.101,2.342,3.758l-4.685.121M42.522,24.24c2.626-.12,3.878-.283,6.544-.403.686,0,1.131.12,1.131.969,0,.688-.404.97-1.131.97-2.625.12-3.879.12-6.544.282v-1.817M49.187,30.217c-2.626,0-3.878,0-6.544.122v-1.818c2.626-.12,3.878-.12,6.665-.282.849,0,1.373.121,1.373.969s-.646,1.01-1.494,1.01M59.609,28.159c.969-1.939,1.371-2.909,2.342-4.848.969,1.939,1.372,2.908,2.342,4.848h-4.684M81.135,25.37c0,.971-.402,1.253-1.372,1.253l-6.099-.12v-2.908c2.342,0,3.474,0,5.695.121,1.13,0,1.656.282,1.656,1.373l.119.281"/>
  <polygon points="79.197 104.294 83.641 103.727 87.68 100.82 87.68 112.897 81.58 113.624 79.197 112.089 79.197 104.294"/>
  <polygon points="78.793 112.775 81.419 114.43 87.396 113.906 78.228 124.569 74.472 121.378 73.785 118.874 78.793 112.775"/>
  <polygon points="73.098 119.319 73.785 121.823 77.26 125.012 66.272 127.355 65.182 124.165 65.99 122.104 73.098 119.319"/>
  <polygon points="65.303 122.104 64.334 124.165 65.465 127.638 53.51 117.905 56.296 116.814 65.303 122.104"/>
  <polygon points="60.578 79.009 43.492 91.813 39.614 83.856 47.369 82.362 56.417 67.741 46.845 73.315 52.378 53.321 33.233 72.467 38.485 99.163 65.748 85.675 60.578 79.009"/>
  <polygon points="78.915 69.962 99.514 63.984 95.596 56.229 89.336 61.924 72.252 60.106 82.832 55.543 63.646 47.747 90.467 44.112 108.398 64.712 81.297 78.04 78.915 69.962"/>
  <polygon points="74.068 71.376 70.473 75.818 64.777 75.94 66.272 85.391 80.732 78.322 74.068 71.376"/>
  <polygon points="95.474 94.034 94.223 95.407 86.307 95.973 85.457 93.065 93.939 92.217 94.223 88.461 93.092 89.835 84.771 90.399 83.924 87.612 92.567 86.925 93.092 83.048 91.839 84.421 83.237 84.987 82.389 82.362 91.152 81.512 91.839 77.635 90.749 79.009 81.58 78.887 65.99 86.643 60.738 93.752 58.922 93.874 62.394 95.69 68.373 89.309 70.029 91.53 64.334 98.033 62.516 98.195 65.868 100.134 71.724 93.752 73.381 95.973 67.807 102.233 66.15 102.354 69.221 104.454 75.037 98.195 76.855 100.537 71.563 106.514 69.746 106.676 72.937 108.736 78.511 102.759 78.915 103.485 83.398 102.759 87.557 99.85 86.993 98.598 95.07 97.75 95.474 94.034"/>
  <polygon points="55.57 115.682 48.098 118.753 53.348 99.85 55.57 115.682"/>
</svg>