<?xml version="1.0" encoding="utf-8"?>
<!-- Generator: Adobe Illustrator 16.0.0, SVG Export Plug-In . SVG Version: 6.00 Build 0)  -->
<!DOCTYPE svg PUBLIC "-//W3C//DTD SVG 1.1//EN" "http://www.w3.org/Graphics/SVG/1.1/DTD/svg11.dtd">
<svg version="1.1" id="Layer_1" xmlns="http://www.w3.org/2000/svg" xmlns:xlink="http://www.w3.org/1999/xlink" x="0px" y="0px"
	 width="300px" height="145.666px" viewBox="0 0 300 145.666" enable-background="new 0 0 300 145.666" xml:space="preserve">
<g>
	<path d="M67.364,104.072h6.118c0.956,2.189,1.82,4.497,2.528,6.489c0.404-0.02,0.829-0.062,1.264-0.062
		c0.433,0,0.803,0.042,1.275,0.062l-7.226-16.816h-0.573l-7.504,16.816c0.273-0.02,0.513-0.062,0.839-0.062
		c0.292,0,0.566,0.042,0.89,0.062C65.651,108.301,66.509,106.186,67.364,104.072 M70.453,96.885l2.681,6.175h-5.32L70.453,96.885z"
		/>
	<path d="M84.609,109.819c-1.899,0-2.948-0.969-3.919-2.495h-0.242c-0.066,0.717-0.189,1.434-0.438,2.14
		c0.821,0.896,2.748,1.389,3.933,1.389c3.263,0,5.949-2.056,5.949-5.477c0-5.155-7.592-3.369-7.592-7.787
		c0-1.716,1.382-2.804,3.04-2.804c1.418,0,2.462,0.769,2.975,2.077h0.244c0.201-0.683,0.347-1.354,0.648-1.976
		c-0.893-0.81-2.295-1.167-3.457-1.167c-2.883,0-5.337,1.52-5.337,4.642c0,5.424,7.536,3.453,7.536,7.942
		C87.95,108.229,86.562,109.819,84.609,109.819"/>
	<path d="M96.732,95.239v15.378c0.321-0.021,0.683-0.075,1.057-0.075c0.336,0,0.672,0.055,1.053,0.075V95.239
		c2.161,0,3.84,0.147,5.037,0.298c-0.027-0.234-0.077-0.486-0.077-0.722c0-0.252,0.05-0.462,0.077-0.734H91.462
		c0.009,0.272,0.066,0.482,0.066,0.734c0,0.235-0.058,0.487-0.066,0.722C92.813,95.387,94.286,95.239,96.732,95.239"/>
	<path d="M122.524,101.965c0-5.785-4.59-8.236-9.109-8.236c-4.997,0-8.938,3.341-8.938,8.606c0,5.148,3.548,8.518,8.894,8.518
		C118.732,110.853,122.524,107.349,122.524,101.965 M106.853,102.627c0-4.888,2.543-8.102,6.789-8.102
		c1.934,0,3.799,0.81,4.997,2.337c1.269,1.612,1.531,3.299,1.531,5.295c0.165,2.649-1.66,7.902-6.738,7.902
		C109.832,110.06,106.853,107.496,106.853,102.627"/>
	<path d="M127.301,97.605h0.246l10.398,11.51c0.503,0.532,0.994,1.133,1.255,1.446h0.713v-16.48
		c-0.244,0.033-0.445,0.084-0.668,0.084c-0.25,0-0.473-0.051-0.671-0.084v12.421h-0.238l-11.46-12.421h-0.933v16.48
		c0.229-0.02,0.425-0.062,0.676-0.062c0.21,0,0.438,0.042,0.682,0.062V97.605z"/>
	<path d="M152.929,98.135c1.649,3.13,3.312,6.271,4.859,9.448l1.335,2.716h0.268c1.439-3.323,3.504-7.172,6.295-12.164
		c0.33,2.396,0.83,7.595,1.215,12.427c0.392-0.02,0.769-0.062,1.139-0.062c0.378,0,0.714,0.042,1.136,0.062
		c-0.657-4.589-1.299-10.52-1.958-16.484h-0.483c-2.434,4.339-4.658,8.538-6.949,12.646c-2.575-4.271-4.892-8.79-6.817-12.646
		h-0.607c-0.254,2.555-1.696,12.613-2.32,16.484c0.306-0.02,0.545-0.062,0.862-0.062c0.27,0,0.543,0.042,0.849,0.062
		C151.75,107.608,152.392,102.829,152.929,98.135"/>
	<path d="M174.89,104.072h6.118c0.953,2.189,1.839,4.497,2.53,6.489c0.399-0.02,0.827-0.062,1.264-0.062
		c0.432,0,0.796,0.042,1.26,0.062l-7.24-16.816h-0.537l-7.506,16.816c0.27-0.02,0.524-0.062,0.841-0.062
		c0.284,0,0.554,0.042,0.884,0.062C173.185,108.301,174.034,106.186,174.89,104.072 M177.966,96.885l2.69,6.175h-5.303
		L177.966,96.885z"/>
	<path d="M199.086,97.761c0-2.435-1.637-3.68-5.352-3.68h-5.102v16.486c0.327-0.025,0.676-0.067,1.053-0.067
		c0.331,0,0.672,0.042,1.054,0.067v-8.049h0.927l1.917,2.258l2.842,3.681c0.499,0.684,0.999,1.355,1.54,2.11
		c0.411-0.025,0.901-0.067,1.358-0.067c0.451,0,0.886,0.042,1.401,0.067l-0.464-0.608l-1.159-1.339l-4.968-6.285
		C196.584,101.895,199.086,100.551,199.086,97.761 M193.837,101.5c-1.217,0.222-2.737,0.135-3.107,0.104v-6.621
		c1.021-0.06,2.658-0.102,3.559,0.029c1.801,0.29,2.636,1.372,2.636,3.033C196.924,99.921,195.628,101.13,193.837,101.5"/>
	<path d="M206.033,95.239v15.378c0.361-0.021,0.706-0.075,1.062-0.075c0.34,0,0.688,0.055,1.078,0.075V95.239
		c2.119,0,3.815,0.147,5.022,0.298c-0.021-0.234-0.069-0.486-0.069-0.722c0-0.252,0.048-0.462,0.069-0.734H200.78
		c0.018,0.272,0.06,0.482,0.06,0.734c0,0.235-0.042,0.487-0.06,0.722C202.145,95.387,203.616,95.239,206.033,95.239"/>
	<path d="M218.082,94.081c-0.383,0.033-0.729,0.084-1.059,0.084c-0.353,0-0.71-0.051-1.063-0.084v16.48
		c0.353-0.02,0.71-0.062,1.063-0.062c0.33,0,0.676,0.042,1.059,0.062V94.081z"/>
	<path d="M224.123,97.605h0.248l10.408,11.51c0.496,0.532,0.979,1.133,1.256,1.446h0.717v-16.48
		c-0.242,0.033-0.469,0.084-0.688,0.084c-0.238,0-0.439-0.051-0.657-0.084v12.421h-0.248L223.74,94.081h-0.969v16.48
		c0.222-0.02,0.444-0.062,0.697-0.062c0.188,0,0.406,0.042,0.654,0.062V97.605z"/>
	<path d="M262.697,33.814h-93.781c-2.643,0-4.809,0.81-6.386,2.408c-1.134,1.142-1.927,2.614-2.333,4.39
		c0,0.07-0.152,0.41-0.914,0.41h-18.556c-0.793,0-0.908-0.349-0.908-0.391c-0.418-1.782-1.216-3.268-2.341-4.409
		c-1.585-1.599-3.738-2.408-6.387-2.408H37.288c-0.602,0.028-2.072,0.149-2.922,1.477c-0.37,0.663-0.661,1.786,0.173,3.348
		c0.021,0,1.707,2.845,1.707,2.845c0.724,1.146,1.506,1.558,3.198,1.671c0.032,0,0.817,0.079,1.356,1.032l1.76,3.084
		c0.374,0.717,1.219,2.349,4.201,2.765c0.038,0,0.902,0.109,1.389,1.008l2.157,3.78c0.619,1.25,1.509,1.694,3.106,2.202
		l39.24,11.502c1.321,0.41,1.884,1.896,1.884,1.896c0.918,2.434,2.15,4.41,8.287,6.266l32.074,8.76
		c0.394,0.118,4.087,1.242,6.847-1.431l7.506-7.171c0,0,0.329-0.315,0.748-0.315c0.417,0,0.747,0.315,0.747,0.315
		c0.025,0.009,7.512,7.171,7.512,7.171c2.789,2.673,6.456,1.549,6.862,1.431c0,0,32.07-8.76,32.102-8.76
		c6.092-1.855,7.389-3.869,8.25-6.266c0.048-0.105,0.561-1.486,1.877-1.896c0,0,5.939-1.746,39.218-11.502
		c1.632-0.508,2.509-0.952,3.134-2.202l2.131-3.738c0.496-0.94,1.352-1.05,1.39-1.05c2.988-0.395,3.861-2.031,4.246-2.765
		c-0.017,0,1.741-3.084,1.741-3.084c0.543-0.953,1.33-1.032,1.373-1.032c1.675-0.101,2.479-0.525,3.155-1.671
		c0,0.019,1.75-2.845,1.75-2.845c0.34-0.676,0.513-1.317,0.513-1.934c0-0.495-0.128-0.975-0.353-1.394
		C264.803,33.964,263.348,33.852,262.697,33.814 M161.917,41.002c0.322-1.461,0.949-2.647,1.854-3.542
		c1.247-1.25,2.962-1.879,5.145-1.879h43.085c-1.49,1.124-2.25,2.483-2.301,2.584c-0.507,0.928-1.137,2.034-1.876,3.282h-46.076
		C161.829,41.271,161.917,41.002,161.917,41.002 M197.826,51.34v-2.144l4.124,0.566c-0.561,0.688-1.136,1.369-1.741,2.086
		C199.144,51.626,198.338,51.459,197.826,51.34 M199.168,53.011c-0.431,0.466-0.889,0.944-1.342,1.456v-1.729L199.168,53.011z
		 M197.826,47.837v-1.862l6.685,0.451c-0.49,0.686-1.024,1.378-1.562,2.087L197.826,47.837z M197.826,44.551v-1.762h9.159
		c-0.473,0.722-0.973,1.493-1.535,2.296L197.826,44.551z M131.092,35.581c2.184,0,3.903,0.629,5.148,1.879
		c0.915,0.895,1.545,2.081,1.865,3.542c0,0,0.058,0.251,0.167,0.445H92.191c-0.721-1.181-1.889-3.282-1.889-3.282
		c-0.042-0.101-0.806-1.478-2.29-2.584H131.092z M99.8,51.849c-0.605-0.717-1.19-1.398-1.754-2.086l4.12-0.566v2.152L99.8,51.849z
		 M102.166,52.738v1.721c-0.433-0.504-0.886-0.982-1.322-1.448C101.381,52.91,101.815,52.809,102.166,52.738 M97.084,48.513
		c-0.546-0.709-1.087-1.401-1.581-2.087l6.663-0.451v1.862L97.084,48.513z M94.554,45.079c-0.546-0.797-1.074-1.568-1.53-2.29h9.143
		v1.762L94.554,45.079z M39.558,41.447c-1.166-0.105-1.423-0.232-1.806-0.844c0,0-1.56-2.618-1.686-2.791
		c-0.265-0.491-0.327-0.844-0.327-1.107c0.025-0.62,0.453-1.108,1.606-1.124h46.746c3.157,0,5.039,3.226,5.039,3.226
		c0.402,0.785,0.9,1.646,1.468,2.641H39.558z M45.901,48.071c-1.191-0.423-1.557-1.141-1.808-1.598
		c-0.718-1.251-1.691-3.084-2.157-3.685h49.492c0.47,0.751,0.998,1.554,1.542,2.392l-43.402,2.891
		C48.893,48.144,46.9,48.303,45.901,48.071 M51.769,53.88l-2.087-3.668c-0.138-0.277-0.302-0.507-0.485-0.701
		c0.284-0.028,44.713-2.986,44.713-2.986c0.507,0.717,1.035,1.463,1.622,2.205l-41.604,5.569
		C52.351,54.505,51.869,53.988,51.769,53.88 M64.021,58.31c-4.311-1.284-7.818-2.291-9.299-2.736l41.752-5.6
		c0.596,0.717,1.169,1.442,1.805,2.189l-28.594,5.845C68.637,58.248,65.572,58.705,64.021,58.31 M78.184,62.464
		c-3.191-0.939-6.552-1.918-9.73-2.85c0.862-0.121,1.463-0.23,1.508-0.247c0,0,20.725-4.271,29.345-6.042
		c0.852,0.956,1.748,1.905,2.704,2.882l-19.176,5.899C82.793,62.142,80.196,63.005,78.184,62.464 M93.118,66.849
		c-0.409-0.126-4.976-1.469-10.817-3.172c0.561-0.117,0.931-0.252,0.95-0.277c0,0.025,16.085-4.95,19.844-6.121
		c1.362,1.343,2.855,2.668,4.43,3.97L97.16,66.09C96.475,66.426,94.487,67.21,93.118,66.849 M131.399,72.291
		c-2.413-0.692-4.764-1.511-7.032-2.468c4.859-5.059,10.699-11.156,12.089-12.616h3.851L131.399,72.291z M141.89,57.207h3.231
		l-4.699,16.942c-2.633-0.382-5.166-0.867-7.675-1.497C136.174,66.861,140.728,59.157,141.89,57.207 M123.023,69.258
		c-1.942-0.873-3.859-1.851-5.718-2.903c5.534-3.979,11.343-8.106,12.772-9.147h4.498L123.023,69.258z M116.014,65.603
		c-2.032-1.233-4.013-2.571-5.934-4.062c4.4-2.048,8.5-3.979,9.272-4.334h8.409L116.014,65.603z M108.858,60.593
		c-0.089-0.075-2.748-2.325-3.898-3.386h11.195L108.858,60.593z M101.43,74.393c-4.06-1.535-4.673-3.079-5.253-4.544
		c-0.049-0.13-0.342-0.911-0.988-1.678c1.367-0.247,2.501-0.836,2.566-0.855c-0.033,0,5.489-2.561,10.92-5.136
		c2.009,1.561,4.049,2.986,6.139,4.266l-9.681,6.949C105.111,73.424,103.095,74.917,101.43,74.393 M113.054,77.662l-8.597-2.35
		c0.839-0.361,1.446-0.798,1.493-0.831c0,0,4.787-3.44,10.137-7.271c1.932,1.141,3.92,2.169,5.943,3.074l-5.64,5.9
		C115.898,76.689,114.313,77.972,113.054,77.662 M124.946,80.909l-9.224-2.512c0.943-0.56,1.59-1.231,1.649-1.298
		c0,0,2.663-2.748,5.975-6.214c2.396,0.994,4.834,1.862,7.33,2.598l-3.037,5.164C127.263,79.332,126.021,81.078,124.946,80.909
		 M136.972,83.466c-0.546,0.33-1.145,0.385-1.854,0.243l-8.09-2.221c0.999-0.8,1.653-1.933,1.77-2.156c0,0,1.368-2.316,3.219-5.472
		c2.644,0.692,5.303,1.229,8.045,1.615l-1.57,5.636C138.474,81.111,138.122,82.769,136.972,83.466 M140.542,82.769
		c-0.629,0.583-1.301,0.94-1.977,1.082c0.886-0.98,1.204-2.24,1.254-2.463l1.595-5.757c2.003,0.239,4.047,0.403,6.115,0.45
		C145.879,77.662,140.542,82.769,140.542,82.769 M149.342,74.754c-2.586,0-5.091-0.164-7.579-0.436l4.76-17.111h2.819V74.754z
		 M103.567,55.848c0,0-0.034-0.013-0.034-0.034V42.802h92.941v13.033l-0.037,0.013H103.567z M159.711,57.207h3.816l12.122,12.639
		c-2.285,0.935-4.61,1.753-7.044,2.42L159.711,57.207z M167.241,72.652c-2.476,0.63-5.031,1.115-7.665,1.497l-4.667-16.942h3.209
		L167.241,72.652z M165.438,57.207h4.489l12.794,9.147c-1.883,1.078-3.784,2.03-5.727,2.903
		C172.755,64.86,167.707,59.595,165.438,57.207 M172.252,57.207h8.388l9.294,4.334c-1.926,1.49-3.891,2.82-5.934,4.062
		C179.519,62.394,174.807,59.02,172.252,57.207 M183.862,57.207h11.186c-1.148,1.146-3.835,3.339-3.906,3.386
		C188.401,59.338,185.754,58.079,183.862,57.207 M150.688,74.754V57.207h2.8l4.755,17.111
		C155.761,74.603,153.245,74.754,150.688,74.754 M158.319,81.652c0,0-4.361-4.163-5.84-5.571c2.077-0.047,4.107-0.232,6.106-0.45
		l1.611,5.774c0.042,0.205,0.359,1.455,1.249,2.445C160.239,83.523,159.868,83.163,158.319,81.652 M164.9,83.709
		c-0.727,0.142-1.326,0.087-1.854-0.243c-1.109-0.686-1.508-2.259-1.54-2.354l-1.559-5.636c2.763-0.386,5.428-0.936,8.015-1.615
		l3.249,5.493c0.113,0.202,0.761,1.335,1.754,2.135L164.9,83.709z M175.063,80.909c-1.079,0.169-2.308-1.577-2.669-2.231
		l-3.067-5.194c2.505-0.735,4.943-1.604,7.344-2.598l5.963,6.214c0.063,0.066,0.71,0.738,1.669,1.298L175.063,80.909z
		 M188.507,77.242l-1.543,0.42c-1.272,0.31-2.863-0.973-3.341-1.478c0,0-2.468-2.584-5.639-5.9c2.03-0.905,3.998-1.934,5.937-3.074
		l10.162,7.28c0.038,0.024,0.625,0.461,1.465,0.822C193.3,75.941,188.507,77.242,188.507,77.242 M203.832,69.849
		c-0.577,1.465-1.185,3.009-5.242,4.544c-1.691,0.499-3.696-0.969-3.696-0.98c-0.019,0-4.536-3.252-9.693-6.967
		c2.103-1.279,4.121-2.693,6.123-4.253l10.95,5.123c0.072,0.02,1.166,0.608,2.564,0.855
		C204.166,68.922,203.877,69.702,203.832,69.849 M206.897,66.849c-1.343,0.361-3.373-0.423-4.029-0.759
		c0,0-5.117-2.393-10.383-4.842c1.572-1.302,3.063-2.627,4.436-3.944l19.842,6.121c0.038,0.009,0.408,0.135,0.937,0.252
		L206.897,66.849z M221.841,62.464c-1.985,0.55-4.62-0.322-4.67-0.322l-0.021-0.035l-19.147-5.891
		c0.953-0.952,1.871-1.935,2.723-2.891l29.323,6.042c0.054,0.017,0.657,0.126,1.5,0.247L221.841,62.464z M236.014,58.31
		c-1.581,0.396-4.654-0.062-5.677-0.302c0,0-19.591-4.003-28.601-5.865c0.638-0.727,1.213-1.469,1.788-2.169l41.771,5.6
		L236.014,58.31z M250.326,50.221c0-0.009-1.707,3.029-2.064,3.659c-0.092,0.091-0.591,0.625-2.178,0.419l-41.607-5.569
		c0.593-0.742,1.108-1.488,1.628-2.205l44.193,2.932c0.054,0.013,0.239,0.026,0.51,0.055
		C250.619,49.705,250.461,49.974,250.326,50.221 M257.699,43.352l-1.778,3.122c-0.258,0.457-0.631,1.175-1.817,1.598
		c-0.992,0.231-2.959,0.072-3.664,0l-43.411-2.891c0.559-0.838,1.095-1.641,1.568-2.392h49.48
		C257.933,42.952,257.821,43.13,257.699,43.352 M263.938,37.813c-0.013,0.017-1.682,2.791-1.682,2.791
		c-0.333,0.503-0.516,0.738-1.818,0.844H209.42c0.558-0.995,1.044-1.855,1.463-2.641c0.025-0.017,1.831-3.226,5.024-3.226h46.765
		c0.486,0,1.128,0.083,1.455,0.629c0.032,0.075,0.139,0.227,0.139,0.495C264.266,36.969,264.199,37.321,263.938,37.813"/>
	<path d="M109.308,44.865l-3.961,8.9h1.095v-0.067c0.315-1.062,0.734-2.098,1.119-3.101c0,0,0.077-0.143,0.103-0.218h3.074
		c0.402,0.935,0.857,2.039,1.289,3.348l0.03,0.038h1.489l-3.84-8.9H109.308z M107.961,49.699c0.083-0.171,1.12-2.646,1.255-2.937
		c0.113,0.29,1.179,2.766,1.25,2.937H107.961z"/>
	<path d="M117.133,48.727c-0.927-0.381-1.813-0.717-1.813-1.783c0-0.806,0.625-1.389,1.485-1.389c0.695,0,1.238,0.382,1.472,1.04
		l0.031,0.056h0.235l0.364-1.101l-0.037-0.049c-0.493-0.467-1.285-0.636-1.826-0.636c-1.754,0-2.862,0.979-2.862,2.464
		c0,1.554,1.138,1.984,2.146,2.4c0.918,0.353,1.765,0.68,1.765,1.749c0,0.97-0.738,1.742-1.67,1.742c-0.83,0-1.417-0.39-1.942-1.267
		l-0.016-0.034h-0.23l-0.285,1.216l0.045,0.021c0.471,0.512,1.54,0.752,2.093,0.752c1.863,0,3.178-1.196,3.178-2.934
		C119.265,49.549,118.17,49.13,117.133,48.727"/>
	<path d="M126.332,45.975V45.06h-0.062h-6.548v0.915l0.095-0.019c0.752-0.087,1.486-0.138,2.669-0.138v7.977h1.256v-7.977
		c0.884,0,1.716,0.051,2.528,0.138L126.332,45.975z"/>
	<path d="M130.767,44.865c-2.778,0-4.721,1.881-4.721,4.55c0,2.685,1.893,4.481,4.703,4.481c2.9,0,4.855-1.875,4.855-4.661
		C135.604,46.222,133.166,44.865,130.767,44.865 M134.206,49.511c0,0.81-0.318,2.019-1.106,2.841
		c-0.635,0.659-1.398,0.995-2.333,0.995c-2.017,0-3.341-1.465-3.341-3.798c0-2.525,1.343-4.128,3.465-4.128
		c1.018,0,1.973,0.448,2.548,1.199c0.633,0.827,0.768,1.683,0.768,2.693V49.511z"/>
	<path d="M143.506,45.06v6.44c-0.047-0.041-5.959-6.44-5.959-6.44h-0.575v8.706h0.83v-6.742h0.018
		c0.049,0.059,5.388,5.949,5.388,5.949l0.676,0.776l0.023,0.017h0.458V45.06h-0.079H143.506z"/>
	<path d="M158.419,45.06h-0.053h-0.309l-2.103,3.823c0,0-1.357,2.412-1.465,2.646c-1.307-2.179-2.467-4.447-3.463-6.432
		l-0.025-0.038h-0.431l-0.034,0.08c-0.12,1.262-0.855,6.523-1.183,8.529l-0.013,0.097h1.031v-0.067c0-1.238,0.239-3.071,0.47-5.018
		c0,0,0.09-0.86,0.131-1.199c0.151,0.293,1.801,3.401,2.392,4.698l0.729,1.436h0.232l0.016-0.047
		c0.727-1.665,1.767-3.584,3.146-6.087c0.21,1.51,0.475,4.496,0.609,6.217l0.02,0.067h1.323v-0.097
		c-0.293-2.11-0.62-4.9-1.022-8.529V45.06z"/>
	<path d="M164.268,44.865h-0.34l-3.98,8.9h1.079l0.021-0.067c0.319-1.078,0.74-2.14,1.137-3.126c0,0,0.072-0.117,0.079-0.192h3.082
		c0.41,0.96,0.85,2.08,1.296,3.348l0.025,0.038h1.489l-3.831-8.9H164.268z M162.571,49.699c0.084-0.171,1.125-2.617,1.245-2.937
		c0.128,0.29,1.21,2.766,1.269,2.937H162.571z"/>
	<path d="M174.471,47.04c0-1.34-0.939-1.98-2.873-1.98h-2.64h-0.063v8.702h1.251v-4.175h0.353c0.037,0.051,1.006,1.171,1.006,1.171
		c-0.038,0,1.448,1.892,1.448,1.892l0.811,1.112h0.045h1.594c0,0-3.283-4.124-3.442-4.313
		C173.531,49.146,174.471,48.239,174.471,47.04 M170.146,48.949v-3.277c0.503-0.021,1.292-0.08,1.736,0.018
		c0.886,0.133,1.327,0.649,1.327,1.498c0,0.884-0.584,1.526-1.566,1.715C171.118,49.011,170.464,48.982,170.146,48.949"/>
	<path d="M175.185,45.06v0.915l0.092-0.019c0.73-0.087,1.448-0.146,2.643-0.146v7.984h1.257v-7.984c0.905,0,1.741,0.046,2.518,0.146
		l0.091,0.019V45.06h-0.058H175.185z"/>
	<rect x="182.981" y="45.079" width="0.89" height="8.687"/>
	<path d="M192.426,51.5h-0.037c-0.038-0.041-5.925-6.44-5.925-6.44h-0.622v8.71h0.87v-6.746h0.028
		c0.038,0.054,5.379,5.949,5.379,5.949l0.672,0.776l0.487,0.021v-8.71h-0.853V51.5z"/>
</g>
</svg>
