<?xml version="1.0" encoding="utf-8"?>
<!-- Generator: Adobe Illustrator 16.0.0, SVG Export Plug-In . SVG Version: 6.00 Build 0)  -->
<!DOCTYPE svg PUBLIC "-//W3C//DTD SVG 1.1//EN" "http://www.w3.org/Graphics/SVG/1.1/DTD/svg11.dtd">
<svg version="1.1" id="Layer_1" xmlns="http://www.w3.org/2000/svg" xmlns:xlink="http://www.w3.org/1999/xlink" x="0px" y="0px"
	 width="300px" height="195.5px" viewBox="0 0 300 195.5" enable-background="new 0 0 300 195.5" xml:space="preserve">
<g>
	<path d="M70.348,137.696c-0.758-0.759-1.342-0.951-2.525-0.951H34.689v8.001l29.447,0.188c0.702,0,1.092,0.163,1.538,0.609
		l3.131,2.706c0.229,0.229,0.335,0.375,0.335,0.611s-0.105,0.383-0.335,0.612l-3.131,2.706c-0.446,0.448-0.836,0.609-1.538,0.609
		l-29.447,0.188v8.003h33.133c1.184,0,1.768-0.195,2.525-0.953l9.468-9.787c0.357-0.356,0.59-0.915,0.59-1.378
		s-0.232-1.019-0.59-1.377L70.348,137.696z"/>
	<path d="M131.008,91.521l20.83-20.262l20.83,20.262c1.236,1.243,2.433,1.746,4.248,1.746h79.111v-19.36h-71.651V54.383h71.651
		v-19.36h-79.111c-1.815,0-3.012,0.504-4.248,1.748l-20.83,20.262l-20.83-20.262c-1.236-1.244-2.432-1.748-4.247-1.748H47.647v19.36
		h71.651v19.523H47.647v19.36h79.113C128.576,93.267,129.771,92.764,131.008,91.521z"/>
	<path d="M110.463,137.055c-0.205-0.205-0.5-0.31-1.021-0.31s-0.816,0.104-1.021,0.31l-23.245,23.339
		c-0.243,0.246-0.134,0.585,0.245,0.585h11.303l11.987-12.438c0.249-0.248,0.437-0.351,0.731-0.351s0.48,0.103,0.731,0.351
		l11.986,12.438h11.302c0.379,0,0.489-0.339,0.245-0.585L110.463,137.055z"/>
	<path d="M148.728,137.696l-9.469,9.787c-0.355,0.358-0.59,0.914-0.59,1.377s0.234,1.021,0.59,1.378l9.469,9.787
		c0.759,0.758,1.343,0.953,2.525,0.953h33.133v-8.003l-29.444-0.188c-0.705,0-1.094-0.161-1.541-0.609l-3.131-2.706
		c-0.229-0.229-0.334-0.376-0.334-0.612s0.104-0.383,0.334-0.611l3.131-2.706c0.447-0.446,0.836-0.609,1.541-0.609l29.444-0.188
		v-8.001h-33.133C150.07,136.745,149.486,136.938,148.728,137.696z"/>
	<path d="M265.182,160.394l-23.246-23.339c-0.204-0.205-0.499-0.31-1.021-0.31c-0.521,0-0.816,0.104-1.021,0.31l-23.245,23.339
		c-0.244,0.246-0.133,0.585,0.246,0.585h11.301l11.988-12.438c0.249-0.248,0.436-0.351,0.73-0.351c0.296,0,0.481,0.103,0.73,0.351
		l11.988,12.438h11.301C265.314,160.979,265.425,160.64,265.182,160.394z"/>
	<rect x="198.22" y="136.745" width="9.261" height="24.233"/>
</g>
</svg>
