<?xml version="1.0" encoding="utf-8"?>
<!-- Generator: Adobe Illustrator 16.0.0, SVG Export Plug-In . SVG Version: 6.00 Build 0)  -->
<!DOCTYPE svg PUBLIC "-//W3C//DTD SVG 1.1//EN" "http://www.w3.org/Graphics/SVG/1.1/DTD/svg11.dtd">
<svg version="1.1" id="Layer_1" xmlns="http://www.w3.org/2000/svg" xmlns:xlink="http://www.w3.org/1999/xlink" x="0px" y="0px"
	 width="204px" height="200px" viewBox="0 0 204 200" enable-background="new 0 0 204 200" xml:space="preserve">
<g>
	<path d="M145.892,150.488c-1.531-0.009-3.063,0.006-4.591-0.015c-0.298-0.003-0.622-0.276-0.73-0.53
		c-0.246-0.579,0.06-1.379,0.73-1.401c1.571-0.054,3.162-0.039,4.733,0.007c0.347,0.01,0.701,0.482,0.722,0.82
		c0.025,0.434-0.133,0.887-0.577,1.055C146.114,150.451,145.962,150.488,145.892,150.488"/>
	<path d="M101.821,133.846c-2.879-0.098-5.712-0.523-8.471-1.35c-5.298-1.586-10.147-4.49-14.209-8.207
		c-2.157-1.972-4.093-4.156-5.831-6.5c-4.602-6.199-7.639-13.441-9.256-20.957c-1.394-6.461-1.63-13.104-0.957-19.666
		c0.801-7.821,3.266-15.6,7.226-22.393c1.54-2.646,3.312-5.156,5.323-7.464c3.729-4.273,8.236-7.837,13.404-10.188
		c2.603-1.186,5.364-2.028,8.182-2.518c4.913-0.846,10.022-0.509,14.787,0.922c5.227,1.571,10.049,4.437,14.066,8.113
		c4.323,3.954,7.861,8.758,10.474,14.006c0.745,1.5,1.415,3.034,2.031,4.592c2.338,5.873,3.725,12.773,3.955,19.092
		c0.177,4.81-0.122,9.629-1.047,14.353c-0.922,4.71-2.4,9.29-4.438,13.638c-3.118,6.655-7.628,12.559-13.416,17.094
		c-3.171,2.478-6.806,4.49-10.623,5.756c-2.477,0.818-5.018,1.303-7.606,1.571C104.22,133.854,103.02,133.877,101.821,133.846
		 M102.653,56.086c11.687,8.714,23.365,17.439,35.057,26.149c0.145,0.109,0.165-0.012,0.147-0.19
		c-0.069-0.762-0.09-1.531-0.141-2.297c-0.421-5.949-1.782-11.892-4.158-17.367c-1.011-2.332-2.18-4.608-3.546-6.748
		c-1.439-2.246-3.074-4.346-4.867-6.315c-1.84-2.022-3.974-3.81-6.236-5.339c-1.874-1.268-3.916-2.355-6.029-3.148
		c-1.95-0.732-3.965-1.313-6.029-1.62c-1.092-0.161-2.351-0.306-3.444-0.317c-2.456-0.03-4.938,0.18-7.321,0.793
		c-4.478,1.145-8.612,3.255-12.202,6.182c-2.886,2.352-5.39,5.139-7.525,8.191c-3.295,4.709-5.646,10.092-7.092,15.646
		c-1.015,3.901-1.575,7.889-1.767,11.916c-0.012,0.236,0,0.504,0.012,0.736L102.653,56.086z M100.244,128.998
		c1.621,0.131,3.252,0.145,4.884-0.003c5.372-0.513,10.498-2.567,14.859-5.754c4.806-3.519,8.589-8.163,11.473-13.354
		l-28.804-21.421c-0.703,0.53-1.416,1.049-2.123,1.572c-8.179,6.088-16.345,12.199-24.547,18.262
		c-0.713,0.525-1.42,1.064-2.124,1.604c2.56,4.618,5.889,8.893,10.019,12.219c3.497,2.816,7.545,5.017,11.914,6.113
		C97.259,128.609,98.735,128.861,100.244,128.998 M134.984,101.059c0.066,0.05,0.138,0.103,0.207,0.154
		c0.455-1.284,0.784-2.625,1.086-3.953c0.289-1.287,0.485-2.588,0.691-3.894l-34.322-25.542
		C91.431,76.207,80.207,84.578,68.95,92.902c-0.195,0.145-0.389,0.297-0.584,0.444c0.326,2.583,0.876,5.167,1.684,7.647
		c0.022,0.07,0.076,0.131,0.115,0.195l32.484-24.273C113.43,84.958,124.221,92.988,134.984,101.059"/>
	<path d="M58.261,165.49l-0.008-13.46l3.013,0.003l-0.005,13.347c-0.069,0.037-0.128,0.11-0.207,0.114
		C60.127,165.525,59.191,165.487,58.261,165.49"/>
	<path d="M138.286,150.488c-1.533-0.009-3.066,0.033-4.592-0.007c-0.192-0.005-0.505-0.251-0.604-0.392
		c-0.269-0.377-0.248-0.863,0.028-1.215c0.146-0.185,0.342-0.326,0.576-0.327c1.621-0.036,3.259-0.089,4.878,0.022
		c0.336,0.024,0.635,0.635,0.616,0.949C139.167,149.992,138.795,150.488,138.286,150.488"/>
	<path d="M169.576,165.531c-0.923-0.002-1.842-0.002-2.76,0.003c-0.017-0.078-0.053-0.154-0.053-0.233
		c0-2.299,0.007-4.596,0.005-6.891c-0.005-2.194-1.619-3.717-3.799-3.717c-2.627,0-5.262,0.027-7.886-0.025l0.005,10.869
		l-3.007-0.012c0.002-4.38,0.009-8.762,0-13.145c0-0.101,0.013-0.199,0.022-0.299c3.858,0.033,7.72-0.052,11.583,0.03
		c2.104,0.044,4.344,1.073,5.343,2.998c0.442,0.853,0.728,1.772,0.757,2.729c0.069,2.433-0.014,4.88,0.003,7.317
		c0,0.13-0.014,0.25-0.035,0.375C169.698,165.531,169.64,165.531,169.576,165.531"/>
	<path d="M147.756,165.531c-5.344-0.008-10.688-0.002-16.034-0.008v-13.389c0.081-0.015,0.159-0.046,0.244-0.046
		c5.335,0.034,10.676,0.023,16.011,0l0.009,2.604l-13.244-0.008l0.009,2.811l11.59,0.005c-0.002,0.734,0,1.467,0.002,2.2
		c0,0.086-0.036,0.17-0.063,0.252c-0.082,0.005-0.165,0.014-0.245,0.014c-3.768,0.027-7.541-0.006-11.308,0.004l-0.004,2.956
		c0.085,0.003,0.173,0.013,0.262,0.013c4.319,0.028,8.644,0.002,12.965-0.004c0.053,0.86,0.064,1.732,0.016,2.599
		C147.894,165.531,147.827,165.531,147.756,165.531"/>
	<path d="M41.674,165.348c-2.203-0.202-4.264-1.412-5.369-3.346c-0.937-1.639-0.966-3.545-0.463-5.312
		c0.687-2.418,3.022-4.008,5.402-4.405c1.143-0.19,2.292-0.158,3.446-0.185c2.899-0.058,5.809,0.005,8.713,0l-0.009,2.543
		c-3.095-0.003-6.186-0.017-9.278-0.003c-0.72,0.003-1.449,0.049-2.155,0.165c-1.485,0.239-2.823,1.413-3.166,2.892
		c-0.492,2.115,0.389,4.047,2.449,4.82c0.543,0.201,1.145,0.294,1.722,0.313c3.481,0.096,6.968,0.03,10.451,0.034l-0.009,2.579
		c-1.042-0.017-2.084-0.006-3.122,0.022C47.517,165.543,44.436,165.57,41.674,165.348"/>
	<path d="M72.153,165.487l0.002-10.882l-7.514,0.003c-0.021-0.12-0.037-0.24-0.035-0.36c0.003-0.74,0.01-1.49,0.041-2.22
		l18.042,0.019l-0.036,2.562H75.2c-0.019,0.074-0.053,0.142-0.053,0.218c0,3.441,0,6.889,0.01,10.334
		c0,0.123-0.028,0.211-0.063,0.324L72.153,165.487z"/>
	<path d="M104.693,165.494c-1.338-0.01-2.699,0.055-4.018-0.053c-0.055-0.006-0.104-0.041-0.145-0.07
		c-2.93-2.111-5.845-4.242-8.758-6.372c-0.09-0.064-0.173-0.138-0.254-0.21l-0.019-0.738c0.092-0.01,0.183-0.033,0.272-0.033
		c2.438,0,4.884,0.01,7.32,0.008c0.629,0,1.405-0.095,1.819-0.619c0.397-0.51,0.394-1.291,0.185-1.867
		c-0.2-0.565-0.87-0.852-1.429-0.852c-3.493,0.01-6.981,0.01-10.472,0c-0.069,0.058-0.172,0.167-0.172,0.278
		c0.014,3.511-0.008,7.028,0.013,10.538c-0.094,0.011-0.188,0.025-0.279,0.027c-0.889,0.012-1.778-0.002-2.671,0.003
		c-0.016-0.078-0.048-0.151-0.048-0.229c0-4.307,0.016-8.614-0.017-12.92c-0.004-0.091,0.023-0.18,0.056-0.262
		c0.078-0.006,0.159-0.022,0.239-0.022c4.495,0,8.995-0.003,13.493,0.003c1.003,0,2.017,0.293,2.87,0.801
		c0.855,0.51,1.412,1.395,1.572,2.352c0.256,1.486,0.091,3.035-1.141,4.006c-1.277,1.004-4.178,0.998-5.743,0.905
		c2.518,1.675,4.98,3.425,7.478,5.129l0.016,0.198H104.693z"/>
	<path d="M116.322,165.854c-1.854,0.004-3.705-0.266-5.312-1.232c-1.295-0.777-2.274-2.061-2.737-3.48
		c-0.559-1.715-0.443-3.667,0.271-5.312c0.816-1.88,2.654-3.267,4.618-3.737c0.791-0.19,1.628-0.281,2.441-0.305
		c1.049-0.035,2.104-0.038,3.159-0.035c2.057,0.004,4.142,0.141,5.952,1.209c1.552,0.909,2.733,2.525,3.069,4.306
		c0.394,2.083-0.019,4.19-1.313,5.886c-1.197,1.566-3.21,2.453-5.123,2.602C119.67,165.861,117.999,165.852,116.322,165.854
		 M114.524,163.006c1.439,0.217,3.198,0.195,4.668,0.149c0.717-0.022,1.441-0.038,2.156-0.157c1.085-0.187,2.229-0.861,2.765-1.859
		c0.659-1.229,0.861-2.845,0.305-4.161c-0.496-1.175-1.423-1.976-2.644-2.345c-0.844-0.255-2.265-0.314-3.157-0.311
		c-1.38,0.002-2.804-0.053-4.162,0.201c-0.723,0.135-1.47,0.489-2.012,1.001c-0.884,0.834-1.293,1.956-1.316,3.176
		C111.082,160.805,112.312,162.676,114.524,163.006"/>
</g>
</svg>
