<?xml version="1.0" encoding="UTF-8"?>
<svg id="Layer_1" data-name="Layer 1" xmlns="http://www.w3.org/2000/svg" width="300" height="200" version="1.1" viewBox="0 0 300 200">
  <path d="M63.451,160.951c-.492-4.594-12.798-10.009-12.798-10.009-3.117-1.969-1.805-4.43-1.805-4.43,1.969-4.266,12.306-.164,12.306-.164l1.969-4.594c-5.415-4.102-12.47-3.281-12.47-3.281-8.532.985-9.844,6.727-9.844,6.727-1.969,8.86,4.922,10.993,4.922,10.993,6.235,2.953,8.04,4.102,8.04,4.102,5.086,3.281.656,5.415.656,5.415-5.578,2.625-12.469-.985-12.469-.985l-2.133,5.086c5.743,3.938,14.767,2.297,14.767,2.297,11.157-1.805,8.86-11.157,8.86-11.157Z" fill="#000" stroke-width="0"/>
  <path d="M81.663,162.755c-.328-3.61-10.336-8.039-10.336-8.039-2.625-1.641-1.477-3.61-1.477-3.61,1.641-3.446,9.844-.164,9.844-.164l1.641-3.774c-4.43-3.281-10.009-2.625-10.009-2.625-6.891.82-7.876,5.414-7.876,5.414-1.641,7.219,3.938,8.86,3.938,8.86,5.086,2.297,6.563,3.281,6.563,3.281,4.102,2.625.492,4.43.492,4.43-4.43,2.133-10.172-.82-10.172-.82l-1.805,4.102c4.594,3.117,11.813,1.805,11.813,1.805,9.188-1.313,7.383-8.86,7.383-8.86Z" fill="#000" stroke-width="0"/>
  <polygon points="126.127 162.173 126.291 162.427 126.127 162.427 126.127 162.173 115.298 145.364 108.079 145.364 108.079 170.959 113.33 170.959 113.33 154.224 124.979 171.78 131.705 171.78 131.705 145.364 126.127 145.364 126.127 162.173" fill="#000" stroke-width="0"/>
  <path d="M89.867,145.2v-.164l-9.844,26.252,5.579.164,2.625-5.743h11.814l2.625,5.25h5.414l-10.172-25.759h-8.04ZM90.195,160.951l3.774-9.188,4.102,9.188h-7.876Z" fill="#000" stroke-width="0"/>
  <path d="M155.496,156.849h-8.86v4.102h6.071v6.234c-4.102,1.641-8.532-.164-8.532-.164-8.532-5.743-3.938-12.798-3.938-12.798,5.25-8.204,17.884-3.117,17.884-3.117v-4.758c-15.423-4.922-21.986,3.446-21.986,3.446-8.696,11.977,2.133,19.853,2.133,19.853,10.665,6.563,20.838.82,20.838.82v-9.516c-.164-4.594-3.61-4.102-3.61-4.102Z" fill="#000" stroke-width="0"/>
  <path d="M256.566,156.849h-8.86v4.102h6.071v6.234c-4.102,1.641-8.532-.164-8.532-.164-8.532-5.743-3.938-12.798-3.938-12.798,5.25-8.204,17.884-3.117,17.884-3.117v-4.758c-15.423-4.922-21.986,3.446-21.986,3.446-8.696,11.977,2.133,19.853,2.133,19.853,10.665,6.563,20.838.82,20.838.82v-9.516c-.164-4.594-3.61-4.102-3.61-4.102Z" fill="#000" stroke-width="0"/>
  <path d="M134.167,99.259s-5.415,4.102,2.297,7.548c0,0,4.594,1.641,7.876,5.086,0,0,2.133,1.969,5.743,2.133h.492c3.61,0,5.743-2.133,5.743-2.133,3.281-3.445,7.876-5.086,7.876-5.086,7.547-3.446,2.297-7.548,2.297-7.548l-3.61-3.117c-.82-.82.328-1.477.328-1.477l1.477-.328c26.416-5.25,32.979-8.039,32.979-8.039,14.439-4.758,20.181-13.126,22.478-18.212,2.133-4.102.82-9.844.82-9.844-4.102-15.095-23.463-22.642-23.463-22.642-4.339-1.627-3.637.216-3.261.906.049.027.095.051.144.079,0,0,.812.431,2.098,1.233,5.552,2.987,20.216,11.969,20.216,23.542,0,17.72-24.283,22.97-24.283,22.97,22.15-7.055,22.15-22.15,22.15-22.15-.262-12.058-12.976-21.179-18.083-24.362-1.296-.697-2.098-1.069-2.098-1.069,0,0-.066-.097-.144-.242-7.616-4.199-11.669-5.336-11.669-5.336-10.008-3.281-6.727.492-6.727.492,0,0,30.026,9.516,30.026,30.354,0,21.33-42.003,28.221-42.003,28.221,39.378-7.383,39.542-28.057,39.542-28.057,0-18.704-27.564-30.517-27.564-30.517-4.102-2.297-11.157-4.102-11.157-4.102-6.563-1.313-2.789,1.477-2.789,1.477,26.416,15.423,26.416,32.487,26.416,32.487,0,19.033-17.392,23.791-17.392,23.791-5.086,1.969-14.767,3.61-14.767,3.61-1.641.492-2.625,1.477-2.625,2.789,0,.492.164.985.492,1.477.985.984,4.102,3.445,4.102,3.445,1.149,1.149,1.805,2.461,1.805,3.938,0,3.61-4.102,6.399-9.188,6.563h-.328c-5.086,0-9.188-2.953-9.188-6.563,0-1.477.656-2.789,1.805-3.938,0,0,3.281-2.461,4.102-3.445.328-.328.492-.985.492-1.477,0-1.312-1.148-2.297-2.625-2.789,0,0-9.844-1.641-14.767-3.61,0,0-17.392-4.758-17.392-23.791,0,0,0-17.064,26.416-32.487,0,0,3.774-2.789-2.789-1.477,0,0-7.055,1.805-11.157,4.102,0,0-27.564,11.977-27.564,30.517,0,0,0,20.673,39.542,28.057,0,0-42.003-6.891-42.003-28.221,0-21.002,30.025-30.354,30.025-30.354,0,0,3.281-3.938-6.727-.492,0,0-4.102,1.148-11.813,5.415,0,0-.035.019-.087.047-.045.073-.077.117-.077.117,0,0-.336.156-.918.452-4.134,2.441-18.817,12.011-19.099,24.98,0,0,0,15.095,22.15,22.15,0,0-24.447-5.25-24.447-22.97,0-12.535,17.202-22.03,21.396-24.159.5-.296.849-.489.995-.569.331-.528,1.422-2.618-3.195-1.031,0,0-19.361,7.548-23.463,22.642,0,0-1.313,5.578.492,9.844,2.133,5.086,7.875,13.454,22.478,18.212,0,0,6.563,2.789,32.979,8.039l1.477.328s1.148.492.328,1.477l-3.61,3.117Z" fill="#000" stroke-width="0"/>
  <polygon points="227.361 162.099 216.368 145.2 208.984 145.2 208.984 171.451 214.563 171.287 214.563 154.224 226.212 171.451 232.939 171.451 232.939 144.872 227.361 144.872 227.361 162.099" fill="#000" stroke-width="0"/>
  <path d="M193.233,144.707c-7.711,0-13.946,6.235-13.946,13.946s6.235,13.946,13.946,13.946,13.946-6.235,13.946-13.946-6.234-13.946-13.946-13.946ZM193.233,167.185c-4.758,0-8.531-3.773-8.531-8.532s3.773-8.532,8.531-8.532,8.532,3.774,8.532,8.532-3.774,8.532-8.532,8.532Z" fill="#000" stroke-width="0"/>
  <polygon points="179.451 139.457 171.247 153.075 163.044 139.785 155.989 139.785 168.13 159.638 161.403 172.436 167.802 172.436 186.67 139.457 179.451 139.457" fill="#000" stroke-width="0"/>
</svg>
