<?xml version="1.0" encoding="utf-8"?>
<!-- Generator: Adobe Illustrator 16.0.0, SVG Export Plug-In . SVG Version: 6.00 Build 0)  -->
<!DOCTYPE svg PUBLIC "-//W3C//DTD SVG 1.1//EN" "http://www.w3.org/Graphics/SVG/1.1/DTD/svg11.dtd">
<svg version="1.1" id="Layer_1" xmlns="http://www.w3.org/2000/svg" xmlns:xlink="http://www.w3.org/1999/xlink" x="0px" y="0px"
	 width="212.667px" height="200px" viewBox="0 0 212.667 200" enable-background="new 0 0 212.667 200" xml:space="preserve">
<g>
	<path d="M158.337,147.817h-14.272c-4.133,0-8.056,2.047-8.056,7.234v4.049c0,4.383,1.862,6.16,6.337,6.9
		c2.63,0.425,6.436,0.644,8.854,0.644c2.415,0,6.223-0.219,8.846-0.644c4.493-0.74,6.37-2.518,6.37-6.9v-4.049
		C166.416,149.864,162.487,147.817,158.337,147.817 M157.905,158.677c0,1.482-1.197,2.676-2.688,2.676h-8.163
		c-0.961,0-1.603-0.484-1.895-0.775c-0.302-0.302-0.794-0.934-0.794-1.9v-3.662c0-0.971,0.492-1.61,0.794-1.9
		c0.292-0.297,0.934-0.789,1.895-0.789h8.163c0.975,0,1.61,0.492,1.93,0.789c0.275,0.303,0.758,0.93,0.758,1.9V158.677z"/>
	<path d="M66.92,151.268c0,1.55-1.031,2.321-2.126,2.321h-7.188c-1.063,0-2.117-0.771-2.117-2.321V148.5h-7.744v16.659h7.744v-3.282
		c0-1.509,1.055-2.294,2.117-2.294h7.188c1.095,0,2.126,0.785,2.126,2.294v3.282h8.785V148.5H66.92V151.268z"/>
	<path d="M120.151,33.366c-8.737,0.344-7.357,4.614-1.679,6.504c5.678,1.882,31.623,10.188,33.582,26.021
		c0.762,5.873-10.089,6.723-45.39,6.728c-35.459,0-46.153-0.854-45.425-6.728c1.975-15.833,27.901-24.14,33.598-26.021
		c5.693-1.89,7.049-6.16-1.675-6.504c-10.546-0.428-58.248,10.238-58.248,45.966c-0.019,35.604,47.702,46.403,58.248,45.971
		c8.724-0.333,7.368-4.62,1.675-6.505c-5.696-1.89-31.623-10.2-33.598-26.032c-0.729-5.88,10.193-6.789,45.425-6.715
		c35.301,0.069,46.151,0.835,45.39,6.715c-1.959,15.832-27.904,24.139-33.582,26.032c-5.679,1.885-7.059,6.172,1.679,6.505
		c10.522,0.433,58.267-10.395,58.267-45.971C178.418,43.604,130.674,32.938,120.151,33.366 M106.854,74.551
		c45.692,0,42.976-0.771,47.647-2.843c1.003-0.441,1.657-0.543,2.02-0.301c0.375,0.245,0.854,0.543,1.723,1.031
		c0.832,0.492,1.271,1.094,0.047,1.518c-5.717,1.986-42.968,1.936-51.437,1.936c-8.459,0-45.734,0.051-51.441-1.936
		c-1.225-0.424-0.779-1.025,0.075-1.518c0.836-0.488,1.328-0.786,1.691-1.031c0.356-0.242,1.002-0.141,2.005,0.301
		C63.864,73.779,61.158,74.551,106.854,74.551 M175.67,80.4c-0.116,2.772-0.92,0.896-1.017-0.152
		c-0.048-1.077-0.966-11.928-9.547-21.029c-0.988-1.026-1.593-0.729-0.85,0.552c0.711,1.277,7.173,9.757,6.617,21.164
		c-0.539,11.394-9.375,32.891-48.497,41.1c-1.118,0.247-3.877,0-0.052-1.08c3.845-1.101,29.637-6.854,40.646-25.423
		c10.335-17.453-6.019-15.521-14.222-15.688c-7.452-0.173-30.082-0.037-40.454-0.014v0.014h-1.44h-1.438V79.83
		c-10.387-0.023-33.018-0.159-40.455,0.014c-8.205,0.166-24.563-1.766-14.228,15.688c10.985,18.568,36.825,24.322,40.628,25.423
		c3.853,1.08,1.118,1.322-0.052,1.08c-39.079-8.209-47.948-29.706-48.507-41.1c-0.538-11.407,5.93-19.887,6.646-21.164
		c0.732-1.281,0.116-1.578-0.868-0.552c-8.585,9.102-9.49,19.952-9.569,21.029c-0.057,1.049-0.854,2.925-0.966,0.152
		c-0.171-3.826,1.359-18.726,17.025-30.23c15.657-11.479,30.562-13.387,34.057-13.991c3.502-0.616,7.109-0.31,0.461,1.445
		c-27.019,7.113-35.733,18.646-40.767,29.07c-5.07,10.438,4.875,10.438,11.441,10.66c6.38,0.224,29.719,0.288,46.592,0.302
		c16.864-0.014,40.2-0.078,46.604-0.302c6.536-0.223,16.477-0.223,11.436-10.66c-5.034-10.424-13.772-21.957-40.803-29.07
		c-6.622-1.755-3.029-2.062,0.473-1.445c3.52,0.604,18.419,2.513,34.057,13.991C174.296,61.675,175.833,76.574,175.67,80.4"/>
	<rect x="83.83" y="148.5" width="7.832" height="16.659"/>
	<path d="M120.839,153.323c0,0.846-0.343,1.097-1.011,1.097c-1.009,0-10.564-5.92-11.516-5.92h-8.571v16.674h8.571v-6.923
		c0-0.633,0.399-1.115,1.087-1.115c1.143,0,3.296,0.78,10.001,5.534c1.519,1.073,1.438,1.914,1.438,2.48v0.023h8.539V148.5h-8.539
		V153.323z"/>
</g>
</svg>
