<?xml version="1.0" encoding="UTF-8"?>
<svg id="Layer_1" xmlns="http://www.w3.org/2000/svg" version="1.1" viewBox="0 0 253.079 151.815">
  <!-- Generator: Adobe Illustrator 29.5.1, SVG Export Plug-In . SVG Version: 2.1.0 Build 141)  -->
  <path d="M46.887,115.854c-.758-.759-1.342-.951-2.525-.951H11.229v8.001l29.447.188c.702,0,1.092.163,1.538.609l3.131,2.706c.229.229.335.375.335.611s-.105.383-.335.612l-3.131,2.706c-.446.448-.836.609-1.538.609l-29.447.188v8.003h33.133c1.184,0,1.767-.195,2.525-.953l9.468-9.787c.358-.357.59-.915.59-1.378s-.232-1.019-.59-1.377l-9.468-9.787Z"/>
  <path d="M107.547,69.678l20.83-20.262,20.83,20.262c1.236,1.243,2.433,1.746,4.248,1.746h79.111v-19.36h-71.651v-19.524h71.651V13.18h-79.111c-1.815,0-3.012.504-4.248,1.748l-20.83,20.262-20.83-20.262c-1.236-1.244-2.432-1.748-4.247-1.748H24.187v19.36h71.651v19.524H24.187v19.36h79.113c1.815,0,3.011-.503,4.247-1.746Z"/>
  <path d="M87.002,115.212c-.205-.205-.5-.31-1.022-.31s-.816.104-1.021.31l-23.245,23.339c-.243.246-.134.585.245.585h11.303l11.987-12.438c.249-.248.437-.351.731-.351s.48.103.731.351l11.986,12.438h11.302c.379,0,.489-.339.245-.585l-23.243-23.339Z"/>
  <path d="M125.267,115.854l-9.469,9.787c-.355.358-.59.914-.59,1.377s.234,1.021.59,1.378l9.469,9.787c.759.758,1.343.953,2.525.953h33.133v-8.003l-29.444-.188c-.705,0-1.094-.161-1.541-.609l-3.131-2.706c-.229-.229-.334-.376-.334-.612s.105-.383.334-.611l3.131-2.706c.447-.446.836-.609,1.541-.609l29.444-.188v-8.001h-33.133c-1.183,0-1.767.192-2.525.951Z"/>
  <path d="M241.721,138.551l-23.246-23.339c-.204-.205-.499-.31-1.02-.31s-.816.104-1.021.31l-23.245,23.339c-.244.246-.133.585.246.585h11.301l11.988-12.438c.249-.248.435-.351.73-.351s.481.103.73.351l11.988,12.438h11.301c.38,0,.49-.339.247-.585Z"/>
  <rect x="174.759" y="114.902" width="9.261" height="24.233"/>
</svg>