<?xml version="1.0" encoding="utf-8"?>
<!-- Generator: Adobe Illustrator 16.0.0, SVG Export Plug-In . SVG Version: 6.00 Build 0)  -->
<!DOCTYPE svg PUBLIC "-//W3C//DTD SVG 1.1//EN" "http://www.w3.org/Graphics/SVG/1.1/DTD/svg11.dtd">
<svg version="1.1" id="Layer_1" xmlns="http://www.w3.org/2000/svg" xmlns:xlink="http://www.w3.org/1999/xlink" x="0px" y="0px"
	 width="300px" height="155.333px" viewBox="0 0 300 155.333" enable-background="new 0 0 300 155.333" xml:space="preserve">
<g>
	<path d="M143.497,107.636c0.194-0.063,4.126-2.006,4.126-6.692c0-1.716-0.766-7.489-8.679-7.489h-26.623v28.502
		c0.055,0,16.454,0.13,26.623,0c8.83-0.062,9.229-5.488,9.229-8.028C148.174,109.385,143.571,107.636,143.497,107.636
		 M120.871,99.228c0.217-0.146,10.048,0,15.663,0c1.67,0,3.21,1.042,3.21,2.92c0,2.152-1.353,3.081-2.953,3.081
		c-6.163,0-15.703,0.129-15.92,0V99.228z M136.921,116.206c-6.817,0-15.833,0.134-16.05,0v-6.159
		c0.217-0.137,10.703-0.074,15.933-0.137c1.8-0.074,3.47,1.191,3.47,3.215C140.273,115.261,138.604,116.206,136.921,116.206"/>
	<path d="M222.714,110.979c0.213-0.058,4.284-2.793,4.284-7.367c0-5.339-2.14-10.158-10.035-10.158h-25.429v28.502h8.571v-8.832
		c0.058,0,10.289,0.074,15.391,0c2.211-0.067,4.015,2.281,4.015,4.276v4.556h7.646v-4.405
		C227.157,113.387,222.771,110.979,222.714,110.979 M215.763,107.898c-6.159,0-15.537,0.08-15.657,0v-8.671
		c0.199-0.146,10.053,0,15.657,0c2.146,0,3.481,2.512,3.481,4.532C219.244,105.762,217.833,107.898,215.763,107.898"/>
	<path d="M163.308,93.452l-15.393,28.505h8.554l3.216-5.751h17.927l3.095,5.751h8.429l-15.392-28.505H163.308z M162.77,110.051
		l5.613-10.307l5.882,10.307H162.77z"/>
	<path d="M258.171,93.452c0.148,0.208,0,12.451-0.121,20.339c0,1.091-0.396,2.416-2.003,2.416h-14.859
		c-1.741,0-2.398-1.016-2.398-2.277c0-8.829-0.342-20.348-0.142-20.627h-8.434c-0.133,0.208-0.133,13.801,0,22.763
		c0.066,4.402,4.697,5.893,9.903,5.893c7.375,0,11.382,0.13,19.562,0c4.28-0.074,7.149-2.328,7.079-5.893
		c-0.067-7.878-0.134-22.613-0.134-22.613H258.171z"/>
	<path d="M63.738,104.3c-6.838-0.341-15.139-0.262-20.222-0.541c-2.813-0.137-2.813-5.485,0.282-5.485h15.654
		c2.128,0,2.128,2.329,2.128,2.412h7.771c-0.146-0.337,0.809-8.295-6.7-8.295H40.034c-3.727,0-6.431,2.273-6.431,5.059v6.026
		c0,3.906,3.495,5.768,8.309,5.91c7.071,0.178,11.369,0.392,16.995,0.666c4.682,0.259,4.026,6.076,0,6.155
		c-5.348,0.134-8.695,0-14.575,0c-3.34,0-3.219-3.356-3.219-3.356h-7.759c-0.151,0.953-0.151,1.746,0,2.69
		c0.528,3.648,3.618,6.417,7.35,6.417h22.36c3.394,0,6.888-1.877,6.82-5.893c0,0-0.133-5.879-0.133-6.013
		C69.765,106.578,66.945,104.496,63.738,104.3"/>
	<path d="M100.531,93.452c0.133,0.208,0.133,12.451,0,20.339c0,1.091-0.413,2.416-1.994,2.416H83.545
		c-1.608,0-2.42-1.016-2.42-2.277c0-8.829-0.142-20.398,0-20.627h-8.563c-0.141,0.208,0.051,13.801,0.133,22.763
		c0.072,4.356,4.548,5.893,9.771,5.893c7.488,0,11.523,0.13,19.548,0c4.281-0.074,7.281-2.328,7.218-5.893
		c-0.07-7.878-0.125-22.613-0.125-22.613H100.531z"/>
	<path d="M123.466,42.648c-7.838,4.652-12.776,10.965-12.776,17.375c0,6.392,4.934,12.651,12.723,17.236
		c7.476,4.381,17.615,7.271,28.567,7.271c11.074,0,21.236-2.857,28.74-7.243c7.849-4.605,12.801-10.844,12.801-17.265
		c0-6.41-4.973-12.736-12.843-17.379c-7.492-4.417-17.654-7.321-28.677-7.321C141.04,35.323,130.94,38.248,123.466,42.648
		 M192.297,60.024c0,5.963-4.706,11.835-12.178,16.207c-7.334,4.281-17.291,7.088-28.118,7.088c-10.762,0-20.665-2.807-27.961-7.088
		c-7.458-4.381-12.139-10.244-12.139-16.207c0-5.952,4.723-11.908,12.176-16.329c7.297-4.312,17.191-7.176,27.924-7.176
		c10.79,0,20.752,2.833,28.055,7.164C187.569,48.113,192.297,54.06,192.297,60.024"/>
	<polygon points="136.804,41.804 132.973,51.519 115.96,55.175 132.973,58.795 137.004,69.144 141.062,59.02 159.488,55.175 
		140.853,51.129 	"/>
	<polygon points="157.877,60.64 150.568,62.247 157.877,63.888 159.685,68.319 161.308,64.092 169.204,62.247 161.308,60.64 
		159.488,56.591 	"/>
	<polygon points="178.933,56.591 177.108,60.64 170.004,62.247 177.108,63.888 178.933,68.319 180.552,64.092 188.444,62.247 
		180.552,60.64 	"/>
	<polygon points="173.873,56.404 175.488,51.919 183.381,50.311 175.488,48.671 173.657,44.624 172.036,48.671 164.769,50.311 
		172.036,51.919 	"/>
	<polygon points="166.372,66.299 164.553,70.351 157.473,71.972 164.553,73.592 166.372,77.834 168.184,73.592 176.104,71.972 
		167.983,70.143 	"/>
	<polygon points="145.308,67.507 143.691,71.783 136.396,73.399 143.691,74.812 145.525,79.259 147.133,75.002 155.024,73.399 
		147.133,71.572 	"/>
</g>
</svg>
