<?xml version="1.0" encoding="utf-8"?>
<!-- Generator: Adobe Illustrator 16.0.0, SVG Export Plug-In . SVG Version: 6.00 Build 0)  -->
<!DOCTYPE svg PUBLIC "-//W3C//DTD SVG 1.1//EN" "http://www.w3.org/Graphics/SVG/1.1/DTD/svg11.dtd">
<svg version="1.1" id="Layer_1" xmlns="http://www.w3.org/2000/svg" xmlns:xlink="http://www.w3.org/1999/xlink" x="0px" y="0px"
	 width="300px" height="184px" viewBox="0 0 300 184" enable-background="new 0 0 300 184" xml:space="preserve">
<g>
	<path d="M150.21,119.196c30.168-0.183,55.561-18.831,55.561-42.159c0-23.256-24.608-42.072-55.561-42.072h-0.156
		c-30.813,0.088-55.825,18.881-55.825,42.072c0,23.232,24.575,42.076,55.825,42.159H150.21z M150.054,39.701
		c0.156-0.04,0.339-0.04,0.502-0.04c20.529-0.42,48.667,14.021,47.62,38.64c-9.19-5.366-19.568-8.8-32.478-10.479V55.145h-15.645
		h-15.111v12.577c-12.866,1.709-23.622,4.918-32.813,10.291C102.13,51.081,130.151,39.881,150.054,39.701 M103.498,86.98
		c10.958-7.192,25.303-9.519,40.918-10.425V65.354h5.638h5.717v11.202c16.572,0.744,29.594,4.539,40.878,10.564
		c-0.695,1.896-1.688,4.013-2.716,5.733c-11.938-7.221-28.096-10.744-43.879-10.989c-17.073-0.248-33.739,3.29-44.279,10.237
		C104.759,90.382,104.202,88.842,103.498,86.98 M111.45,99.604c9.682-5.13,24.256-7.54,38.604-7.379
		c14.845,0.165,29.578,3.063,38.614,8.433c-10.551,9.973-24.656,14.981-38.614,14.938C135.706,115.555,121.48,110.232,111.45,99.604
		"/>
	<path d="M33.957,139.014c-0.137,2.555,0.46,5.271,2.457,7.096c4.478,4.091,13.666,2.635,19.502,2.46v-9.79H42.159
		c0.18,0.933,0.678,1.907,1.542,2.757h6.256v5.193c-2.334,0.19-4.242-0.593-6.309-1.294c-5.683-1.903-6.308-9.362,0.302-11.508
		c3.549-1.177,7.793-0.608,11.966,0.6v-4C44.696,130.357,34.334,129.267,33.957,139.014"/>
	<path d="M77.931,130.357H77.16h-6.044h-10.63v18.678h6.341v-7.583h4.289l4.064,7.583h6.512l-4.652-7.879
		c2.794-1.102,4.574-3.545,4.652-5.916v-0.4C81.614,132.988,80.481,131.245,77.931,130.357 M73.364,139.088h-2.248h-4.202v-5.334
		h4.202h2.496C76.136,134.745,75.696,138.525,73.364,139.088"/>
	<path d="M90.968,140.756l9.992,0.112c1.17,0,1.519-1.953,1.777-2.934h-11.77v-4.637h9.992c1.224,0,1.857-1.966,2.145-2.94h-18.48
		v16.936c0.026,0.98,0.494,1.742,1.524,1.742h17.819v-2.898h-13V140.756z"/>
	<path d="M119.45,130.357h-4.575l-8.083,18.678h6.641l1.522-3.517h4.495h4.518l1.621,3.517h6.641l-8.35-18.678H119.45z
		 M119.45,142.017h-3.518l3-6.462h0.518h0.854l2.621,6.462H119.45z"/>
	<path d="M211.208,130.267h-4.579l-8.066,18.69h6.641l1.506-3.521h4.499h4.514l1.622,3.521h6.648l-8.305-18.69H211.208z
		 M211.208,141.918h-3.475l2.969-6.435h0.506h0.88l2.583,6.435H211.208z"/>
	<path d="M130.404,133.839h7.673v15.196h6.471v-15.196h6.223c1.432,0,2.485-1.959,2.907-3.481h-23.273V133.839z"/>
	<polygon points="194.049,130.357 191.241,143.726 189.483,143.726 184.879,130.357 182.369,130.357 177.466,143.726 
		175.791,143.726 173.031,130.357 167.399,130.357 172.821,149.035 180.097,149.035 183.521,140.181 187.337,149.035 
		194.402,149.035 199.561,130.357 	"/>
	<path d="M233.247,130.357h-6.426v16.479c0,1.135,0.469,2.199,1.83,2.199h16.881v-3.437h-12.285V130.357z"/>
	<path d="M253.737,130.357h-6.385v16.425c0,1.188,0.448,2.253,1.806,2.253h16.904v-3.469h-12.325V130.357z"/>
</g>
</svg>
