<?xml version="1.0" encoding="UTF-8"?>
<svg id="Layer_1" xmlns="http://www.w3.org/2000/svg" version="1.1" viewBox="0 0 158 158">
  <!-- Generator: Adobe Illustrator 29.5.1, SVG Export Plug-In . SVG Version: 2.1.0 Build 141)  -->
  <g id="g44">
    <g id="g34">
      <polygon id="polygon2" points="30.072 123.58 30.072 111.881 25.092 120.261 20.032 111.881 20.032 123.58 16.318 123.58 16.318 106.982 21.138 106.982 25.092 113.779 28.885 106.982 33.788 106.982 33.788 123.58 30.072 123.58"/>
      <rect id="rect4" x="36.949" y="106.982" width="3.714" height="16.598"/>
      <polygon id="polygon6" points="42.323 106.982 55.049 106.982 55.049 110.46 50.543 110.46 50.543 123.58 46.749 123.58 46.749 110.46 42.323 110.46 42.323 106.982"/>
      <path id="path8" d="M56.394,123.424v-3.479c.789.158,2.607.473,4.9.473,1.896,0,2.846-.238,2.846-1.342,0-1.186-.791-1.344-3.478-2.609-2.608-1.185-4.584-2.213-4.584-5.059,0-3.478,2.135-4.664,6.244-4.664,2.135,0,3.636.157,4.663.316v3.479c-.947-.079-2.608-.318-4.506-.318-2.213,0-2.686.239-2.686,1.188s1.186,1.424,3.003,2.213c2.766,1.266,4.98,2.293,4.98,5.455,0,3.317-2.057,4.82-6.483,4.82-1.739-.078-3.319-.237-4.9-.473"/>
      <path id="path10" d="M70.067,117.967v-10.984h3.716v10.828c0,1.897,1.106,2.529,2.925,2.529,1.737,0,2.924-.633,2.924-2.529v-10.828h3.715v10.984c0,4.031-2.608,5.852-6.639,5.852s-6.641-1.82-6.641-5.852"/>
      <path id="path12" d="M86.51,106.982h7.272c3.398,0,5.295,1.264,5.295,4.268,0,2.371-1.342,3.162-2.608,3.637,1.502.473,3.083,1.264,3.083,4.029,0,2.926-1.738,4.664-5.453,4.664h-7.511l-.077-16.598h0ZM93.229,113.701c1.501,0,2.054-.792,2.054-1.898,0-1.343-.631-1.66-2.054-1.66h-3.005v3.559h3.005ZM93.464,120.498c1.503,0,2.136-.553,2.136-1.976,0-1.265-.553-1.818-1.977-1.818h-3.398v3.794h3.24Z"/>
      <rect id="rect14" x="101.685" y="106.982" width="3.714" height="16.598"/>
      <path id="path16" d="M108.088,123.424v-3.479c.791.158,2.608.473,4.901.473,1.897,0,2.845-.238,2.845-1.342,0-1.186-.791-1.344-3.478-2.609-2.608-1.185-4.584-2.213-4.584-5.059,0-3.478,2.133-4.664,6.244-4.664,2.133,0,3.636.157,4.662.316v3.479c-.947-.079-2.608-.318-4.504-.318-2.216,0-2.688.239-2.688,1.188s1.185,1.424,3.003,2.213c2.767,1.266,4.98,2.293,4.98,5.455,0,3.317-2.056,4.82-6.481,4.82-1.661-.078-3.32-.237-4.901-.473"/>
      <polygon id="polygon18" points="131.169 123.58 131.169 117.02 125.24 117.02 125.24 123.58 121.524 123.58 121.524 106.982 125.24 106.982 125.24 113.541 131.169 113.541 131.169 106.982 134.883 106.982 134.883 123.58 131.169 123.58"/>
      <rect id="rect20" x="137.967" y="106.982" width="3.715" height="16.598"/>
      <polygon id="polygon22" points="47.462 145.949 47.462 134.251 42.483 142.631 37.502 134.251 37.502 145.949 33.708 145.949 33.708 129.352 38.529 129.352 42.483 136.069 46.354 129.352 51.256 129.352 51.256 145.949 47.462 145.949"/>
      <path id="path24" d="M53.785,137.65c0-5.929,2.292-8.537,7.193-8.537s7.191,2.608,7.191,8.537-2.291,8.537-7.191,8.537-7.193-2.608-7.193-8.537M64.219,137.65c0-3.399-.553-5.139-3.32-5.139-2.686,0-3.318,1.739-3.318,5.139s.552,5.139,3.318,5.139,3.32-1.74,3.32-5.139"/>
      <polygon id="polygon26" points="68.725 129.352 81.45 129.352 81.45 132.829 76.944 132.829 76.944 145.949 73.229 145.949 73.229 132.829 68.725 132.829 68.725 129.352"/>
      <path id="path28" d="M82.083,137.65c0-5.929,2.291-8.537,7.192-8.537s7.192,2.608,7.192,8.537-2.291,8.537-7.192,8.537-7.192-2.608-7.192-8.537M92.516,137.65c0-3.399-.552-5.139-3.318-5.139s-3.32,1.739-3.32,5.139.553,5.139,3.32,5.139,3.318-1.74,3.318-5.139"/>
      <path id="path30" d="M98.919,129.352h6.719c3.557,0,5.85,1.342,5.85,5.295,0,2.609-1.267,4.269-3.399,4.742l4.111,6.56h-4.347l-3.48-5.928h-1.659v5.928h-3.716l-.079-16.598h0ZM105.479,136.781c1.66,0,2.213-.869,2.213-2.135s-.553-2.135-2.213-2.135h-2.766v4.27h2.766Z"/>
      <path id="path32" d="M113.7,145.713v-3.477c.79.158,2.607.473,4.9.473,1.897,0,2.846-.237,2.846-1.343,0-1.188-.79-1.345-3.478-2.608-2.608-1.188-4.583-2.215-4.583-5.059,0-3.479,2.133-4.664,6.244-4.664,2.133,0,3.636.158,4.663.316v3.478c-.947-.077-2.608-.317-4.506-.317-2.213,0-2.688.24-2.688,1.107,0,.948,1.188,1.423,3.004,2.213,2.769,1.266,4.981,2.293,4.981,5.455,0,3.32-2.056,4.82-6.482,4.82-1.66.08-3.32-.079-4.9-.395"/>
    </g>
    <g id="g42">
      <polygon id="polygon36" points="94.729 39.32 78.763 11.812 62.874 39.32 78.763 66.906 94.729 39.32"/>
      <polygon id="polygon38" points="94.729 94.413 126.505 94.413 110.618 66.906 78.763 66.906 94.729 94.413"/>
      <polygon id="polygon40" points="62.874 94.413 31.1 94.413 46.987 66.906 78.763 66.906 62.874 94.413"/>
    </g>
  </g>
</svg>