<?xml version="1.0" encoding="UTF-8"?>
<svg id="Layer_1" xmlns="http://www.w3.org/2000/svg" version="1.1" viewBox="0 0 254.697 78.982">
  <!-- Generator: Adobe Illustrator 29.5.1, SVG Export Plug-In . SVG Version: 2.1.0 Build 141)  -->
  <path d="M145.901,61.378c0,.391.197.581.387.581.192,0,.392,0,.581-.19L219.037,14.875c1.159-.768,2.697-1.346,4.244-1.346h15.823c2.123-.191,3.861,1.545,4.052,3.663v30.68c0,3.672-.77,5.791-4.052,7.724l-19.297,11.573c-.192.198-.391.198-.58.198s-.389-.198-.389-.776V31.278c0-.381-.189-.579-.381-.579-.2,0-.39,0-.579.198l-52.871,34.347c-1.157.769-2.704,1.155-4.054,1.155h-35.12c-2.124.191-3.862-1.545-4.053-3.666V18.548c0-.197-.19-.578-.388-.578-.191,0-.381,0-.579.191l-34.733,21.033c-.189,0-.379.38-.379.578,0,.19.189.383.379.581l24.897,24.891c.19.188.383.576.581.769,0,.387-.391.387-.779.387h-22.764c-1.547.191-2.896-.19-4.052-1.155l-15.056-15.056q-.189-.192-.388-.192c-.191,0-.381,0-.381.192l-25.276,15.243c-1.158.778-2.707,1.159-4.054,1.159H15.649c-2.116.197-3.855-1.538-4.051-3.665v-30.29c-.38-3.094,1.155-6.181,4.051-7.726l19.3-11.571c0-.391.196-.391.387-.391s.388.391.388.968v39.944c0,.381.192.578.383.578.196,0,.388-.197.578-.197L102.292,14.685c1.351-.769,2.706-1.346,4.244-1.155h35.121c2.127-.191,3.863,1.545,4.055,3.663v44.185h.189Z"/>
</svg>