<?xml version="1.0" encoding="utf-8"?>
<!-- Generator: Adobe Illustrator 16.0.0, SVG Export Plug-In . SVG Version: 6.00 Build 0)  -->
<!DOCTYPE svg PUBLIC "-//W3C//DTD SVG 1.1//EN" "http://www.w3.org/Graphics/SVG/1.1/DTD/svg11.dtd">
<svg version="1.1" id="Layer_1" xmlns="http://www.w3.org/2000/svg" xmlns:xlink="http://www.w3.org/1999/xlink" x="0px" y="0px"
	 width="300px" height="167.333px" viewBox="0 0 300 167.333" enable-background="new 0 0 300 167.333" xml:space="preserve">
<g>
	<path d="M150.142,124.266c22.426,0,40.613-18.187,40.613-40.604c0-22.442-18.188-40.634-40.613-40.634
		c-22.439,0-40.617,18.191-40.617,40.634C109.524,106.079,127.702,124.266,150.142,124.266 M150.142,46.05
		c20.777,0,37.602,16.843,37.602,37.611c0,20.744-16.824,37.583-37.602,37.583c-20.769,0-37.597-16.839-37.597-37.583
		C112.545,62.893,129.373,46.05,150.142,46.05"/>
	<path d="M39.714,67.466c1.854,2.236,4.084,4.862,6.677,7.752h-0.016c2.412,2.693,5.14,5.606,8.154,8.688h0.015
		c2.456,2.474,5.097,5.086,7.938,7.725h-0.028c3.053,2.848,6.311,5.751,9.766,8.689h0.028c3.075,2.596,6.325,5.182,9.71,7.745l0,0
		c3.795,2.86,7.788,5.657,11.956,8.351h0.015h13.095h6.555c8.982,10.035,22.038,16.361,36.563,16.361
		c14.521,0,27.58-6.326,36.558-16.361h19.372h0.015c37.02-23.971,60.522-57.018,60.522-57.018h-0.015h-73.731
		c-8.449-14.86-24.418-24.842-42.721-24.842c-18.309,0-34.274,9.981-42.716,24.842h-2.983H33.405H33.39c0,0,2.197,3.081,6.317,8.067
		H39.714z M64.322,91.631c-2.705-2.512-5.378-5.092-8.007-7.725h44.716c0.008,2.62,0.215,5.213,0.639,7.725H64.322z M235.688,91.631
		h-37.078c0.419-2.512,0.633-5.104,0.652-7.725h44.439C241.062,86.539,238.386,89.119,235.688,91.631 M258.651,67.466
		c-1.894,2.261-4.149,4.901-6.73,7.752h-53.392c-0.458-2.67-1.131-5.262-1.996-7.752H258.651z M196.368,100.32h29.44
		c-3.252,2.688-6.551,5.281-9.865,7.745h-23.162C194.186,105.591,195.386,102.999,196.368,100.32 M150.142,41.141
		c23.476,0,42.497,19.034,42.497,42.521c0,23.452-19.021,42.487-42.497,42.487c-23.473,0-42.518-19.035-42.518-42.487
		C107.624,60.175,126.669,41.141,150.142,41.141 M107.507,108.065H84.06c-3.301-2.464-6.593-5.058-9.866-7.745h29.741
		C104.89,102.999,106.092,105.591,107.507,108.065 M103.755,67.466c-0.878,2.49-1.549,5.082-2.013,7.752H48.087
		c-2.581-2.851-4.831-5.466-6.721-7.752H103.755z"/>
	<rect x="144.918" y="73.251" width="5.316" height="21.037"/>
	<polygon points="129.939,94.288 135.222,81.925 135.222,94.288 140.395,94.288 140.395,73.251 135.332,73.251 135.222,73.251 
		134.697,73.251 128.737,87.117 123.263,73.251 117.474,73.251 117.474,94.288 121.882,94.288 121.882,81.62 126.915,94.288 	"/>
	<polygon points="159.084,81.602 168.858,94.288 172.817,94.288 172.817,73.251 168.362,73.251 168.362,86.032 168.362,86.043 
		158.521,73.251 154.687,73.251 154.687,94.288 159.084,94.288 	"/>
	<rect x="177.351" y="73.251" width="5.312" height="21.037"/>
</g>
</svg>
