<?xml version="1.0" encoding="utf-8"?>
<!-- Generator: Adobe Illustrator 16.0.0, SVG Export Plug-In . SVG Version: 6.00 Build 0)  -->
<!DOCTYPE svg PUBLIC "-//W3C//DTD SVG 1.1//EN" "http://www.w3.org/Graphics/SVG/1.1/DTD/svg11.dtd">
<svg version="1.1" id="Layer_1" xmlns="http://www.w3.org/2000/svg" xmlns:xlink="http://www.w3.org/1999/xlink" x="0px" y="0px"
	 width="266.333px" height="200px" viewBox="0 0 266.333 200" enable-background="new 0 0 266.333 200" xml:space="preserve">
<g>
	<path d="M176.835,94.832c0,0-8.144,2.359-23.926,12.059c-14.181,8.715-19.735,14.571-19.735,14.571L89.51,91.281
		c0,0,18.373-13.512,33.729-3.163l20.592,14.13l2.509-1.655L89.51,60.785c0,0,8.175-2.361,23.955-12.062
		c14.181-8.715,19.709-14.573,19.709-14.573l43.688,30.181c0,0-18.373,13.518-33.729,3.165l-20.59-14.126l-2.509,1.646
		L176.835,94.832"/>
	<polyline points="143.027,136.005 109.782,136.005 109.782,143.395 125.83,143.395 109.219,158.915 109.219,165.107 
		142.974,165.107 142.974,157.688 126.178,157.688 143.027,142.206 143.027,136.005 	"/>
	<path d="M90.207,165.85c13.296,0,16.716-3.394,16.716-10.88v-18.965h-10.55v17.833c0,2.993-2.563,4.776-6.166,4.776
		c-3.739,0-6.144-1.79-6.144-4.824v-17.785H73.517v18.965C73.517,162.456,76.932,165.85,90.207,165.85"/>
	<path d="M162.311,165.85c13.298,0,16.715-3.394,16.715-10.88v-18.965h-10.549v17.833c0,2.993-2.563,4.776-6.166,4.776
		c-3.739,0-6.145-1.79-6.145-4.824v-17.785H145.62v18.965C145.62,162.456,149.037,165.85,162.311,165.85"/>
	<polyline points="231.58,136.005 220.607,136.005 220.607,165.107 231.58,165.107 231.58,136.005 	"/>
	<polyline points="218.951,136.005 204.474,136.005 192.807,146.045 192.807,136.005 181.804,136.005 181.804,165.107 
		192.807,165.107 192.807,154.787 203.648,165.107 218.417,165.107 202.338,150.177 218.951,136.005 	"/>
	<path d="M47.556,144.047c0-2.247,3.338-2.321,4.46-2.321c1.149,0,3.688,0.448,5.396,3.281h12.417c0-5.476-5.182-9.843-17.758-9.843
		c-13.995,0-16.37,6.136-16.37,9.654c0,6.495,5.046,8.395,15.969,9.559c0.937,0.099,6.624-0.17,6.624,2.566
		c0,2.032-3.204,2.163-4.353,2.163c-1.178,0-3.365-0.191-5.184-3.405H35.086c0,6.383,4.301,10.081,18.828,10.081
		c13.353,0,16.902-5.455,16.902-9.607c0-4.028-2.749-8.127-14.153-9.584C51.911,145.973,47.556,145.714,47.556,144.047"/>
</g>
</svg>
